<svg width="149" height="32" viewBox="0 0 149 32" fill="none" xmlns="http://www.w3.org/2000/svg">
<path d="M25.2235 2C27.8093 2.44643 30.3238 3.2351 32.7006 4.34513C36.8025 10.4588 38.8405 17.354 38.088 25.3072C34.9495 27.6492 31.9054 29.0701 28.9122 30C28.1685 28.9805 27.5115 27.9007 26.9482 26.7719C28.024 26.3635 29.0609 25.8597 30.0465 25.2665C29.7886 25.0735 29.5358 24.8739 29.2883 24.6678C23.3963 27.4519 16.9169 27.4519 10.9537 24.6678C10.7085 24.8742 10.4547 25.0749 10.1953 25.2665C11.1793 25.8583 12.2144 26.3611 13.2882 26.7688C12.7243 27.8974 12.0674 28.9772 11.3242 29.9972C8.33383 29.0673 5.29251 27.6464 2.15406 25.3072C1.51232 18.4467 2.79495 11.4874 7.52699 4.35079C9.90516 3.23767 12.4218 2.44706 15.0101 2C15.3349 2.58113 15.7198 3.36293 15.9792 3.98476C18.7157 3.56644 21.4779 3.56644 24.2657 3.98476C24.5512 3.30746 24.8709 2.64502 25.2235 2ZM97.1381 10.9563C99.1332 10.9563 100.789 11.3834 102.107 12.2375V15.96C101.642 15.6346 101.1 15.3701 100.482 15.1666C99.8635 14.9631 99.2012 14.8614 98.4947 14.8614C97.2576 14.8614 96.2914 15.0911 95.593 15.553C94.8946 16.0148 94.5443 16.6166 94.5443 17.3634C94.5443 18.0954 94.883 18.6943 95.5615 19.165C96.2404 19.6327 97.2234 19.8682 98.5148 19.8682C99.1789 19.8682 99.8345 19.7693 100.482 19.5748C101.126 19.3769 101.682 19.1358 102.146 18.8512V22.4513C100.684 23.3464 98.9879 23.7939 97.058 23.7939C95.4335 23.7882 94.0478 23.5033 92.9048 22.9338C91.7618 22.3643 90.898 21.5912 90.3223 20.6149C89.7465 19.6387 89.4557 18.5403 89.4557 17.3198C89.4557 16.0994 89.755 15.0069 90.3534 14.0451C90.9519 13.0833 91.83 12.3277 92.9878 11.7782C94.1447 11.2293 95.5273 10.9563 97.1381 10.9563ZM82.1519 10.9535C83.2691 10.9535 84.2926 11.0753 85.2252 11.3195C86.1569 11.5637 86.9267 11.8746 87.5398 12.2551V15.4487C86.9122 15.068 86.1937 14.7686 85.3733 14.542C84.5501 14.3181 83.7004 14.2057 82.8471 14.2079C81.5959 14.2079 80.972 14.4255 80.972 14.8588C80.972 15.0623 81.0689 15.2132 81.2626 15.315C81.4563 15.4168 81.8126 15.5213 82.3286 15.6316L84.3237 15.9979C85.6272 16.2278 86.5983 16.6306 87.2371 17.2065C87.8758 17.782 88.195 18.6334 88.1949 19.7608C88.1949 20.996 87.6681 21.975 86.61 22.7015C85.5529 23.4279 84.0526 23.7911 82.1091 23.7911C80.9658 23.7882 79.8548 23.6458 78.7769 23.3609C77.6993 23.0762 76.7271 22.6636 75.8636 22.12V18.7441C76.5163 19.2585 77.3914 19.6828 78.4889 20.0169C79.5863 20.3481 80.6469 20.5138 81.673 20.5138C82.1518 20.5138 82.5138 20.4498 82.759 20.3218C83.0043 20.1941 83.1272 20.04 83.1272 19.8628C83.1272 19.6593 83.0615 19.4908 82.9273 19.354C82.7933 19.2175 82.5336 19.1042 82.1493 19.0084L79.7548 18.4592C78.3836 18.1339 77.4113 17.6833 76.833 17.1053C76.2542 16.5298 75.9661 15.7743 75.9661 14.8385C75.9661 14.0513 76.2171 13.3684 76.7246 12.7842C77.229 12.2 77.9473 11.7497 78.8794 11.4331C79.8118 11.1137 80.9004 10.9535 82.1519 10.9535ZM147 8.73636V23.3812H142.111V20.717C141.698 21.7195 141.071 22.4835 140.227 23.0067C139.383 23.5268 138.34 23.7885 137.103 23.7885C135.997 23.7885 135.034 23.5152 134.209 22.966C133.386 22.4169 132.75 21.6643 132.303 20.7082C131.858 19.7523 131.632 18.6715 131.632 17.4626C131.618 16.2161 131.855 15.0974 132.342 14.1064C132.827 13.1154 133.514 12.3427 134.397 11.7875C135.281 11.2327 136.29 10.9537 137.422 10.9537C139.711 10.9537 141.259 11.9498 142.069 13.9396L142.111 14.0451V8.73636H147ZM111.165 10.9503C112.748 10.9503 114.113 11.2206 115.256 11.7641C116.399 12.3073 117.272 13.0513 117.87 14.0015C118.469 14.9518 118.768 16.0414 118.768 17.2763C118.768 18.4968 118.469 19.6011 117.87 20.5918C117.272 21.5827 116.396 22.3611 115.245 22.931C114.093 23.5005 112.733 23.7851 111.163 23.7851C109.592 23.7851 108.232 23.5033 107.084 22.9338C105.932 22.3643 105.054 21.5856 104.45 20.5946C103.846 19.6039 103.54 18.4996 103.54 17.2791C103.54 16.0589 103.842 14.969 104.45 14.0131C105.056 13.0572 105.929 12.3073 107.075 11.7641C108.218 11.2206 109.583 10.9503 111.165 10.9503ZM73.6807 14.2862V23.4451H68.8068V14.2862C70.3001 14.9428 72.1531 14.9719 73.6807 14.2862ZM128.942 11.2177C129.646 11.2177 130.25 11.3805 130.757 11.7059V16.0994C130.25 15.7593 129.594 15.5909 128.782 15.5909C127.718 15.5909 126.898 15.9193 126.327 16.5759C125.755 17.2328 125.469 18.2554 125.469 19.6387V23.3812H120.581V11.4823H125.37V15.2655C125.635 13.8823 126.066 12.8625 126.658 12.2028C127.249 11.5462 128.012 11.2177 128.942 11.2177ZM58.4834 9.14309C60.3594 9.14309 61.9442 9.44242 63.2441 10.038C64.5412 10.6338 65.5134 11.4648 66.1577 12.5281C66.8014 13.5917 67.1262 14.8091 67.1262 16.1808C67.1262 17.5233 66.7901 18.7407 66.1175 19.8303C65.4446 20.923 64.4211 21.7862 63.0447 22.4222C61.6681 23.0587 59.9629 23.3784 57.925 23.3784H50.7016V9.14309H58.4834ZM14.1007 13.6869C12.2791 13.6869 10.8424 15.358 10.8424 17.3891C10.8424 19.4202 12.3106 21.0881 14.1007 21.0881C15.9223 21.0881 17.3618 19.4202 17.359 17.3891C17.3901 15.3549 15.9223 13.6869 14.1007 13.6869ZM26.1414 13.6869C24.3198 13.6869 22.8831 15.358 22.8831 17.3891C22.8831 19.4202 24.3512 21.0881 26.1414 21.0881C27.9629 21.0881 29.3996 19.4202 29.3996 17.3891C29.4308 15.3549 27.9629 13.6869 26.1414 13.6869ZM111.163 14.6988C110.31 14.6988 109.643 14.9399 109.156 15.4224C108.672 15.9049 108.429 16.5499 108.429 17.3636C108.429 18.1771 108.671 18.8309 109.156 19.3249C109.641 19.819 110.31 20.0689 111.163 20.0689C112 20.066 112.662 19.819 113.146 19.3249C113.632 18.8309 113.876 18.1774 113.876 17.3634C113.876 16.5499 113.634 15.9021 113.146 15.4224C112.662 14.94 112.001 14.6988 111.163 14.6988ZM139.417 14.7599C138.594 14.7599 137.935 15.0011 137.442 15.4835C136.949 15.9659 136.704 16.5906 136.704 17.3636C136.704 18.1364 136.949 18.767 137.442 19.2551C137.935 19.7433 138.585 19.9872 139.397 19.9872C140.221 19.9844 140.882 19.7376 141.382 19.2438C141.881 18.7495 142.128 18.1076 142.128 17.3229C142.128 16.5643 141.886 15.9456 141.401 15.4716C140.917 14.9982 140.252 14.7599 139.417 14.7599ZM58.1272 12.7635H55.6928V19.7608H57.8451C59.1082 19.7608 60.0801 19.4383 60.7584 18.7961C61.437 18.1508 61.7762 17.2735 61.7762 16.1604C61.7762 15.1287 61.4738 14.3065 60.8697 13.6906C60.2654 13.0744 59.3503 12.7635 58.1272 12.7635ZM71.246 8.2861C72.5918 8.2861 73.6832 9.28498 73.6832 10.5176C73.6832 11.7502 72.5918 12.7494 71.246 12.7494C69.8996 12.7494 68.8085 11.7502 68.8085 10.5176C68.8085 9.28498 69.8996 8.2861 71.246 8.2861Z" fill="#5865F2"/>
</svg>
