<svg width="32" height="32" viewBox="0 0 32 32" fill="none" xmlns="http://www.w3.org/2000/svg">
<path d="M25.7191 6.83491C23.8828 5.96648 21.9402 5.34943 19.9426 5.00006C19.6937 5.45476 19.403 6.06634 19.2025 6.55289C17.0487 6.2255 14.9147 6.2255 12.8005 6.55289C12.6001 6.06645 12.3028 5.45476 12.0517 5.00006C10.0521 5.34958 8.10782 5.9682 6.2707 6.83944C2.61495 12.4233 1.6239 17.8684 2.11937 23.2364C4.54411 25.0666 6.89392 26.1784 9.20414 26.906C9.77832 26.1079 10.2859 25.263 10.7215 24.38C9.89202 24.0608 9.09238 23.6674 8.33209 23.2046C8.53215 23.0546 8.72752 22.8984 8.9179 22.7362C13.525 24.9143 18.5309 24.9143 23.0831 22.7362C23.2743 22.8974 23.4696 23.0536 23.6688 23.2046C22.9073 23.6687 22.1061 24.0628 21.275 24.3823C21.7131 25.2689 22.2198 26.1146 22.7923 26.9082C25.1047 26.1808 27.4567 25.0689 29.8815 23.2364C30.4629 17.0136 28.8884 11.6185 25.7191 6.83491ZM11.3492 19.9352C9.96615 19.9352 8.83193 18.6301 8.83193 17.0409C8.83193 15.4517 9.94198 14.1444 11.3492 14.1444C12.7564 14.1444 13.8906 15.4494 13.8665 17.0409C13.8687 18.6301 12.7565 19.9352 11.3492 19.9352ZM20.6517 19.9352C19.2686 19.9352 18.1345 18.6301 18.1345 17.0409C18.1345 15.4517 19.2444 14.1444 20.6517 14.1444C22.059 14.1444 23.1931 15.4494 23.1689 17.0409C23.1689 18.6301 22.059 19.9352 20.6517 19.9352Z" fill="#5865F2"/>
</svg>
