<svg width="152" height="32" viewBox="0 0 152 32" fill="none" xmlns="http://www.w3.org/2000/svg">
<path d="M92.0925 7.29771V25.684H97.2811V7.29771H92.0925ZM51.2686 7.2666V25.6685H56.5042V11.38L60.5865 11.3956C61.9267 11.3956 62.8616 11.7228 63.5004 12.4085C64.3261 13.2812 64.6533 14.6988 64.6533 17.27V25.6685H69.733V15.509C69.733 8.24816 65.1052 7.2666 60.5865 7.2666H51.2686ZM100.46 7.29771V25.684H108.874C113.361 25.684 114.826 24.9361 116.4 23.2687C117.522 22.1003 118.238 19.5136 118.238 16.6933C118.238 14.107 117.631 11.8008 116.555 10.3674C114.655 7.79626 111.881 7.29771 107.736 7.29771H100.46ZM105.602 11.2867H107.83C111.071 11.2867 113.159 12.7354 113.159 16.5064C113.159 20.2774 111.071 21.7417 107.83 21.7417H105.602V11.2867ZM84.6133 7.29771L80.2816 21.8664L76.1371 7.29771H70.5274L76.4484 25.684H83.9273L89.9108 7.29771H84.6133ZM120.669 25.684H125.858V7.29771H120.669V25.684ZM135.222 7.29771L127.977 25.6685H133.088L134.241 22.4119H142.81L143.901 25.6526H149.464L142.156 7.29742L135.222 7.29771ZM138.588 10.6476L141.735 19.2486H135.347L138.588 10.6476Z" fill="black"/>
<path d="M17.7841 10.3516V7.82742C18.0335 7.81186 18.2827 7.79631 18.5321 7.79631C25.4502 7.57828 29.9844 13.7484 29.9844 13.7484C29.9844 13.7484 25.0919 20.5424 19.8408 20.5424C19.1398 20.5424 18.454 20.4333 17.7997 20.2153V12.5489C20.4955 12.876 21.0407 14.0601 22.6455 16.7556L26.2451 13.7329C26.2451 13.7329 23.6118 10.2894 19.1867 10.2894C18.7193 10.2738 18.2516 10.3049 17.7841 10.3516ZM17.7844 2V5.7707L18.5324 5.72404C28.1463 5.39685 34.4256 13.6082 34.4256 13.6082C34.4256 13.6082 27.2264 22.365 19.732 22.365C19.0773 22.365 18.4388 22.3028 17.7997 22.1936V24.5309C18.3296 24.5934 18.8748 24.64 19.4045 24.64C26.3851 24.64 31.4335 21.0718 36.3263 16.8648C37.1364 17.5191 40.4553 19.0929 41.141 19.7786C36.4976 23.674 25.6685 26.8059 19.5292 26.8059C18.9567 26.8069 18.3845 26.7756 17.8155 26.7123V30H44.3351V2L17.7844 2ZM17.7844 20.215V22.2092C11.3337 21.0563 9.54169 14.3406 9.54169 14.3406C9.54169 14.3406 12.6422 10.9126 17.7841 10.3516L17.7844 12.533H17.7688C15.073 12.2058 12.9541 14.73 12.9541 14.73C12.9541 14.73 14.154 18.984 17.7844 20.215ZM6.33175 14.0601C6.33175 14.0601 10.1491 8.41958 17.7997 7.82742V5.77099C9.32337 6.45618 2 13.6234 2 13.6234C2 13.6234 6.14454 25.6213 17.7841 26.712V24.5306C9.24532 23.4716 6.33175 14.0601 6.33175 14.0601Z" fill="#76B900"/>
</svg>
