<svg width="32" height="32" viewBox="0 0 32 32" fill="none" xmlns="http://www.w3.org/2000/svg">
<path d="M12.443 12.6639V10.9574C12.6138 10.9402 12.7678 10.9402 12.94 10.9402C17.518 10.7994 20.5182 14.9867 20.5182 14.9867C20.5182 14.9867 17.2772 19.579 13.7982 19.579C13.3334 19.579 12.8882 19.5072 12.443 19.3492V14.1593C14.2252 14.3891 14.585 15.1792 15.649 17.0092L18.0318 14.9508C18.0318 14.9508 16.2832 12.6122 13.3684 12.6122C13.0604 12.6122 12.752 12.6295 12.443 12.6639ZM12.443 7V9.55115L12.94 9.51523C19.3016 9.2854 23.4512 14.8632 23.4512 14.8632C23.4512 14.8632 18.6842 20.8273 13.7282 20.8273C13.2969 20.8295 12.8665 20.7881 12.443 20.7038V22.2882C12.786 22.3227 13.1458 22.3586 13.5056 22.3586C18.1186 22.3586 21.4618 19.931 24.7028 17.081C25.2348 17.5206 27.4286 18.5936 27.892 19.0504C24.8218 21.6892 17.6552 23.8195 13.591 23.8195C13.2128 23.8217 12.8349 23.7977 12.4598 23.7476V26H30.0004V7H12.443ZM12.443 19.3679V20.7225C8.17304 19.931 6.99004 15.3745 6.99004 15.3745C6.99004 15.3745 9.04804 13.0518 12.443 12.6639V14.1435H12.4248C10.6426 13.9137 9.23564 15.6374 9.23564 15.6374C9.23564 15.6374 10.0434 18.5232 12.443 19.3679ZM4.86204 15.1806C4.86204 15.1806 7.38344 11.3453 12.443 10.9574L12.4416 9.56838C6.83604 10.0252 2.00044 14.8818 2.00044 14.8818C2.00044 14.8818 4.74444 23.0265 12.443 23.7649V22.2882C6.78424 21.5671 4.86204 15.1806 4.86204 15.1806Z" fill="#76B900"/>
</svg>
