<svg width="81" height="32" viewBox="0 0 81 32" fill="none" xmlns="http://www.w3.org/2000/svg">
<path fill-rule="evenodd" clip-rule="evenodd" d="M4.78957 12.665C5.91518 14.9666 7.05303 17.2034 8.20312 19.3753C9.35321 21.5472 10.5563 23.7759 11.8124 26.0613C11.9756 25.7533 12.2121 25.3116 12.5221 24.7362C12.832 24.1608 13.1909 23.5003 13.5987 22.7548C14.0066 22.0092 14.4429 21.2028 14.9079 20.3357C15.3728 19.4685 15.8459 18.5892 16.3271 17.6977C16.8084 16.8063 17.2855 15.931 17.7586 15.072C18.2317 14.2129 18.6722 13.4106 19.08 12.665H19.3981C19.5775 14.221 19.7448 15.7244 19.8997 17.175C20.0547 18.6257 20.2138 20.052 20.3769 21.454C20.54 22.8561 20.7032 24.2419 20.8663 25.6115C21.0294 26.9811 21.2089 28.3386 21.4046 29.6839C21.2089 29.6514 21.0172 29.6352 20.8296 29.6352H19.6795C19.4919 29.6352 19.3002 29.6514 19.1045 29.6839C18.925 27.5281 18.7456 25.4373 18.5661 23.4112C18.3867 21.3852 18.1664 19.3186 17.9054 17.2115H17.8565C16.7309 19.2538 15.6257 21.2839 14.5408 23.3018C13.456 25.3197 12.4242 27.4309 11.4454 29.6352H11.2252C10.2464 27.593 9.2227 25.5467 8.15418 23.4963C7.08566 21.4459 6.01306 19.351 4.93639 17.2115H4.88745C4.77326 18.2164 4.64683 19.3064 4.50816 20.4815C4.3695 21.6566 4.24307 22.8155 4.12888 23.9582C4.01469 25.1009 3.91681 26.1788 3.83524 27.1918C3.75368 28.2048 3.71289 29.0355 3.71289 29.6839C3.45188 29.6514 3.1664 29.6352 2.85645 29.6352C2.54649 29.6352 2.26101 29.6514 2 29.6839C2.21207 28.371 2.4323 26.9852 2.66069 25.5264C2.88907 24.0676 3.1093 22.6008 3.32137 21.1258C3.53345 19.6509 3.72921 18.1962 3.90865 16.7617C4.0881 15.3273 4.24307 13.9617 4.37358 12.665H4.78957ZM24.9772 19.2781C24.9772 18.2083 24.9568 17.1588 24.9161 16.1296C24.8753 15.1004 24.8304 14.0509 24.7815 12.9811C24.9936 13.0135 25.1975 13.0419 25.3932 13.0662C25.589 13.0905 25.7847 13.1027 25.9805 13.1027C26.1763 13.1027 26.372 13.0905 26.5678 13.0662C26.7635 13.0419 26.9675 13.0135 27.1795 12.9811C27.1306 14.0509 27.0857 15.1004 27.0449 16.1296C27.0042 17.1588 26.9838 18.2083 26.9838 19.2781V23.4598C26.9838 24.5296 27.0042 25.5831 27.0449 26.6205C27.0857 27.6578 27.1306 28.6789 27.1795 29.6839C26.8043 29.6514 26.4046 29.6352 25.9805 29.6352C25.5564 29.6352 25.1567 29.6514 24.7815 29.6839C24.8304 28.6789 24.8753 27.6578 24.9161 26.6205C24.9568 25.5831 24.9772 24.5296 24.9772 23.4598V19.2781ZM45.5564 29.9999C43.6804 27.8442 41.682 25.6358 39.5613 23.3747C37.4406 21.1137 35.3199 18.8647 33.1991 16.628C33.1828 17.0818 33.1665 17.6896 33.1502 18.4514C33.1339 19.2132 33.1257 20.2506 33.1257 21.5634C33.1257 21.9038 33.1298 22.3252 33.138 22.8277C33.1461 23.3302 33.1543 23.8569 33.1624 24.408C33.1706 24.9591 33.1828 25.5183 33.1991 26.0856C33.2154 26.6529 33.2318 27.1797 33.2481 27.6659C33.2644 28.1522 33.2807 28.5776 33.297 28.9423C33.3133 29.307 33.3296 29.5542 33.3459 29.6839C33.0849 29.6514 32.7995 29.6352 32.4895 29.6352C32.1632 29.6352 31.8614 29.6514 31.5841 29.6839C31.6167 29.5218 31.6534 29.2219 31.6942 28.7843C31.735 28.3467 31.7717 27.8239 31.8043 27.2161C31.837 26.6083 31.8737 25.9478 31.9145 25.2346C31.9552 24.5215 31.9879 23.8083 32.0123 23.0951C32.0368 22.382 32.0572 21.685 32.0735 21.0043C32.0898 20.3235 32.098 19.7157 32.098 19.1808C32.098 17.6248 32.0939 16.2876 32.0857 15.1692C32.0776 14.0509 32.0572 13.2161 32.0246 12.665H32.4161C33.4112 13.7348 34.4756 14.8815 35.6094 16.1053C36.7432 17.329 37.8688 18.5365 38.9863 19.7278C40.1037 20.9192 41.1641 22.0456 42.1673 23.1073C43.1706 24.1689 44.0474 25.0726 44.7979 25.8181V22.5116C44.7979 20.8098 44.7856 19.1524 44.7612 17.5397C44.7367 15.927 44.6837 14.4074 44.6021 12.9811C44.9284 13.0621 45.2057 13.1027 45.4341 13.1027C45.6298 13.1027 45.8908 13.0621 46.2171 12.9811C46.1845 13.3377 46.1478 13.8726 46.107 14.5857C46.0662 15.2989 46.0254 16.0607 45.9846 16.8711C45.9439 17.6815 45.9072 18.4757 45.8745 19.2538C45.8419 20.0318 45.8256 20.6558 45.8256 21.1258V22.5846C45.8256 23.1357 45.8297 23.7111 45.8378 24.3108C45.846 24.9105 45.8541 25.5142 45.8623 26.1221C45.8705 26.7299 45.8786 27.2972 45.8868 27.8239C45.8949 28.3507 45.899 28.8086 45.899 29.1976V29.9999H45.5564ZM50.8175 19.2781C50.8175 18.2083 50.7971 17.1588 50.7563 16.1296C50.7155 15.1004 50.6706 14.0509 50.6217 12.9811C51.2416 13.0135 51.8574 13.0419 52.4692 13.0662C53.0809 13.0905 53.6967 13.1027 54.3166 13.1027C54.9366 13.1027 55.5524 13.0824 56.1641 13.0419C56.7759 13.0014 57.3917 12.9811 58.0116 12.9811C59.4472 12.9811 60.6747 13.1675 61.6943 13.5403C62.7139 13.9131 63.55 14.4439 64.2025 15.1328C64.855 15.8216 65.3322 16.6645 65.634 17.6613C65.9358 18.6581 66.0867 19.7805 66.0867 21.0286C66.0867 22.6494 65.8053 24.015 65.2425 25.1252C64.6797 26.2355 63.9619 27.131 63.0891 27.8118C62.2163 28.4925 61.2539 28.9747 60.2017 29.2584C59.1495 29.542 58.1421 29.6839 57.1796 29.6839C56.625 29.6839 56.0785 29.6757 55.5401 29.6595C55.0018 29.6433 54.4553 29.6352 53.9007 29.6352H52.2612C51.7228 29.6352 51.1763 29.6514 50.6217 29.6839C50.6706 28.6789 50.7155 27.6578 50.7563 26.6205C50.7971 25.5831 50.8175 24.5296 50.8175 23.4598V19.2781ZM52.824 23.4598C52.824 25.2103 52.8729 26.9284 52.9708 28.6141C53.3134 28.6951 53.7783 28.7559 54.3656 28.7964C54.9529 28.837 55.5565 28.8572 56.1764 28.8572C57.0736 28.8572 57.9708 28.7519 58.868 28.5412C59.7653 28.3305 60.5687 27.9333 61.2783 27.3498C61.988 26.7663 62.5671 25.9681 63.0157 24.9551C63.4643 23.942 63.6886 22.6332 63.6886 21.0286C63.6886 19.6184 63.5133 18.4595 63.1625 17.5519C62.8118 16.6442 62.3305 15.927 61.7188 15.4002C61.107 14.8734 60.377 14.5087 59.5287 14.3061C58.6805 14.1035 57.7506 14.0022 56.7392 14.0022C56.0051 14.0022 55.3199 14.0265 54.6837 14.0752C54.0475 14.1238 53.4765 14.1805 52.9708 14.2454C52.9219 15.0234 52.8852 15.8378 52.8607 16.6888C52.8362 17.5397 52.824 18.4028 52.824 19.2781V23.4598ZM69.3167 26.5232C69.4472 26.815 69.6226 27.1108 69.8428 27.4106C70.063 27.7105 70.3322 27.982 70.6503 28.2251C70.9684 28.4682 71.3395 28.6668 71.7637 28.8208C72.1878 28.9747 72.6609 29.0517 73.1829 29.0517C73.7213 29.0517 74.2066 28.9585 74.6389 28.7721C75.0712 28.5857 75.4383 28.3345 75.7401 28.0184C76.0418 27.7024 76.2743 27.3296 76.4374 26.9001C76.6006 26.4705 76.6821 26.0126 76.6821 25.5264C76.6821 24.7808 76.4905 24.1892 76.1071 23.7516C75.7237 23.314 75.2466 22.9493 74.6756 22.6575C74.1046 22.3658 73.4888 22.0983 72.8281 21.8552C72.1674 21.6121 71.5516 21.3082 70.9807 20.9435C70.4097 20.5788 69.9325 20.1128 69.5492 19.5455C69.1658 18.9782 68.9741 18.2164 68.9741 17.2601C68.9741 16.5794 69.0965 15.9594 69.3412 15.4002C69.5859 14.841 69.9407 14.3588 70.4056 13.9536C70.8705 13.5484 71.4293 13.2323 72.0818 13.0054C72.7343 12.7785 73.4684 12.665 74.2841 12.665C75.0671 12.665 75.7441 12.7582 76.3151 12.9446C76.8861 13.131 77.4162 13.4187 77.9056 13.8077C77.7588 14.0833 77.6365 14.375 77.5386 14.683C77.4407 14.9909 77.3428 15.3799 77.2449 15.85H76.9513C76.8697 15.6231 76.7596 15.3759 76.621 15.1085C76.4823 14.841 76.2947 14.5938 76.0582 14.3669C75.8216 14.14 75.5402 13.9496 75.2139 13.7956C74.8877 13.6416 74.4962 13.5646 74.0394 13.5646C73.5826 13.5646 73.1626 13.6375 72.7792 13.7834C72.3958 13.9293 72.0614 14.136 71.7759 14.4034C71.4904 14.6708 71.2702 14.9909 71.1152 15.3637C70.9603 15.7365 70.8828 16.1417 70.8828 16.5794C70.8828 17.3412 71.0745 17.9409 71.4578 18.3785C71.8412 18.8161 72.3183 19.1849 72.8893 19.4847C73.4603 19.7846 74.0761 20.052 74.7368 20.287C75.3975 20.5221 76.0133 20.8098 76.5843 21.1501C77.1552 21.4905 77.6324 21.9281 78.0157 22.463C78.3991 22.9979 78.5908 23.7111 78.5908 24.6025C78.5908 25.3481 78.4562 26.0532 78.187 26.7177C77.9179 27.3823 77.5264 27.9617 77.0125 28.4561C76.4986 28.9504 75.8706 29.3313 75.1283 29.5988C74.386 29.8662 73.5418 29.9999 72.5957 29.9999C71.5842 29.9999 70.7645 29.8662 70.1364 29.5988C69.5084 29.3313 68.9823 29.0274 68.5581 28.687C68.705 28.3142 68.8069 27.9779 68.864 27.6781C68.9211 27.3782 68.9741 26.9933 69.0231 26.5232H69.3167Z" fill="#555555"/>
<path fill-rule="evenodd" clip-rule="evenodd" d="M23.9901 15.1693L25.0097 14.3184L26.0293 15.9797L23.9901 15.1693Z" fill="#656565"/>
<path fill-rule="evenodd" clip-rule="evenodd" d="M23.9901 12.6571V15.1694L25.0097 14.3185L23.9901 12.6571Z" fill="#787778"/>
<path fill-rule="evenodd" clip-rule="evenodd" d="M27.0495 14.3184L26.0299 15.9797L28.0691 15.1693L27.0495 14.3184Z" fill="#5C5C5C"/>
<path fill-rule="evenodd" clip-rule="evenodd" d="M28.0684 15.1694L27.0488 14.3185L28.0684 12.6571V15.1694Z" fill="#787778"/>
<path fill-rule="evenodd" clip-rule="evenodd" d="M23.9901 12.6571H28.0684L26.0293 15.9798L23.9901 12.6571Z" fill="#4A4A4A"/>
<path fill-rule="evenodd" clip-rule="evenodd" d="M24.3989 4.99855L28.7219 6.78148L25.6224 9.25326L24.3989 4.99855ZM27.6615 2L30.1085 4.5123L28.7219 6.78148L27.6615 2ZM23.9911 12.657L28.4772 11.3603L28.0694 12.657H23.9911ZM23.5832 11.3603L25.6224 9.25326L23.9911 12.657L23.5832 11.3603ZM21.9519 4.5123L24.3989 2V4.99855L21.9519 4.5123Z" fill="#FED12F"/>
<path fill-rule="evenodd" clip-rule="evenodd" d="M25.6215 9.2534L28.4763 11.3605L28.721 6.78162L25.6215 9.2534ZM25.6215 9.2534L21.7063 8.56454L23.5823 11.3605L25.6215 9.2534Z" fill="#FFF3CB"/>
<path fill-rule="evenodd" clip-rule="evenodd" d="M24.3984 4.99855L27.6611 2L28.7215 6.78148L24.3984 4.99855Z" fill="#FFDD63"/>
<path fill-rule="evenodd" clip-rule="evenodd" d="M21.7063 8.56426L24.398 4.99841L25.6215 9.25312L21.7063 8.56426Z" fill="#FFEDAC"/>
<path fill-rule="evenodd" clip-rule="evenodd" d="M23.9902 12.6569L25.6215 9.25316L28.4763 11.3603L23.9902 12.6569ZM28.4763 11.3603L28.721 6.78138L30.3523 8.56431L28.4763 11.3603ZM21.7063 8.56431L21.951 4.51221L24.398 4.99846L21.7063 8.56431Z" fill="#FFDD63"/>
<path fill-rule="evenodd" clip-rule="evenodd" d="M28.7217 6.78138L30.1083 4.51221L30.353 8.56431L28.7217 6.78138Z" fill="#FEE382"/>
<path fill-rule="evenodd" clip-rule="evenodd" d="M27.6611 2L24.3984 4.99855V2H27.6611Z" fill="#FEF1C0"/>
</svg>
