<svg width="32" height="32" viewBox="0 0 32 32" fill="none" xmlns="http://www.w3.org/2000/svg">
<path fill-rule="evenodd" clip-rule="evenodd" d="M12.572 28.4895L14.4603 26.9033L16.3485 30.0001L12.572 28.4895Z" fill="#656565"/>
<path fill-rule="evenodd" clip-rule="evenodd" d="M12.572 23.8066V28.4895L14.4603 26.9034L12.572 23.8066Z" fill="#787778"/>
<path fill-rule="evenodd" clip-rule="evenodd" d="M18.2368 26.9033L16.3485 30.0001L20.125 28.4895L18.2368 26.9033Z" fill="#5C5C5C"/>
<path fill-rule="evenodd" clip-rule="evenodd" d="M20.125 28.4895L18.2367 26.9034L20.125 23.8066V28.4895Z" fill="#787778"/>
<path fill-rule="evenodd" clip-rule="evenodd" d="M12.572 23.8066H20.1251L16.3485 30.0001L12.572 23.8066Z" fill="#4A4A4A"/>
<path fill-rule="evenodd" clip-rule="evenodd" d="M13.3268 9.53149L21.333 12.8548L15.5927 17.4622L13.3268 9.53149Z" fill="#FED12F"/>
<path fill-rule="evenodd" clip-rule="evenodd" d="M19.3693 3.94226L23.9011 8.62515L21.3331 12.8549L19.3693 3.94226Z" fill="#FED12F"/>
<path fill-rule="evenodd" clip-rule="evenodd" d="M12.5715 23.8067L20.8799 21.3898L20.1246 23.8067H12.5715Z" fill="#FED12F"/>
<path fill-rule="evenodd" clip-rule="evenodd" d="M11.8162 21.3897L15.5927 17.4622L12.5715 23.8067L11.8162 21.3897Z" fill="#FED12F"/>
<path fill-rule="evenodd" clip-rule="evenodd" d="M8.79492 8.62515L13.3267 3.94226V9.53151L8.79492 8.62515Z" fill="#FED12F"/>
<path fill-rule="evenodd" clip-rule="evenodd" d="M15.5927 17.4622L20.8798 21.3898L21.333 12.8549L15.5927 17.4622Z" fill="#FFF3CB"/>
<path fill-rule="evenodd" clip-rule="evenodd" d="M15.593 17.4621L8.34204 16.1781L11.8164 21.3897L15.593 17.4621Z" fill="#FFF3CB"/>
<path fill-rule="evenodd" clip-rule="evenodd" d="M13.3268 9.53149L19.3692 3.94224L21.333 12.8548L13.3268 9.53149Z" fill="#FFDD63"/>
<path fill-rule="evenodd" clip-rule="evenodd" d="M8.34185 16.1782L13.3269 9.53154L15.5928 17.4622L8.34185 16.1782Z" fill="#FFEDAC"/>
<path fill-rule="evenodd" clip-rule="evenodd" d="M12.5715 23.8067L15.5927 17.4622L20.8798 21.3898L12.5715 23.8067Z" fill="#FFDD63"/>
<path fill-rule="evenodd" clip-rule="evenodd" d="M20.8799 21.3897L21.3331 12.8548L24.3543 16.1781L20.8799 21.3897Z" fill="#FFDD63"/>
<path fill-rule="evenodd" clip-rule="evenodd" d="M8.34191 16.1782L8.79509 8.62511L13.3269 9.53148L8.34191 16.1782Z" fill="#FFDD63"/>
<path fill-rule="evenodd" clip-rule="evenodd" d="M21.3332 12.8548L23.9013 8.62507L24.3545 16.1781L21.3332 12.8548Z" fill="#FEE382"/>
<path fill-rule="evenodd" clip-rule="evenodd" d="M19.3693 3.94224L13.3269 9.53149L13.3269 3.94224L19.3693 3.94224Z" fill="#FEF1C0"/>
</svg>
