<svg width="114" height="34" viewBox="0 0 114 34" fill="none" xmlns="http://www.w3.org/2000/svg">
<path d="M18.6823 3C15.9388 3 14.889 4.59952 13.5603 8.1586L9.85047 18.0267C8.35485 16.9528 7.06221 15.6042 6.00743 14.0524L2 18.1195C3.33498 20.0251 5.33247 21.9345 7.81438 23.4475L5.13695 30.5669H11.564L13.2489 25.7872C14.8716 26.225 16.6001 26.4746 18.4108 26.4746C20.3236 26.4746 22.0122 26.215 23.5103 25.7934L25.1006 30.5656H31.9885L23.9761 8.15735C22.7009 4.59325 21.4107 3 18.6823 3ZM18.4133 20.744C17.28 20.744 16.1929 20.6223 15.1555 20.3952L18.3373 11.3765C18.3983 11.2046 18.422 11.1356 18.5216 11.1356C18.6125 11.1356 18.6524 11.2046 18.7096 11.3765L21.7071 20.3752C20.6573 20.6148 19.5565 20.744 18.4133 20.744Z" fill="#001767"/>
<path d="M39.1567 3.42407H32.8828V30.5971H39.1567V3.42407Z" fill="#001767"/>
<path d="M78.9507 8.85867C76.1164 8.85867 73.8549 10.0128 72.5747 11.9159V3.42407H66.3008V30.5971H72.5747V19.3553C72.5747 15.9568 74.3281 14.6684 76.5896 14.6684C78.8511 14.6684 80.5696 15.958 80.5696 19.3553V30.5971H86.8435V18.2011C86.8435 11.7792 83.3342 8.85741 78.9495 8.85741L78.9507 8.85867Z" fill="#001767"/>
<path d="M52.7881 8.87866C45.2328 8.87866 41.2852 13.9731 41.2852 19.9845C41.2852 25.9959 45.2316 30.9887 52.7881 30.9887C60.3447 30.9887 64.3247 25.9269 64.3247 19.9845C64.3247 14.0421 60.3447 8.87866 52.7881 8.87866ZM52.7881 25.4539C49.4831 25.4539 47.5603 22.94 47.5603 19.9845C47.5603 17.0289 49.4831 14.5514 52.7881 14.5514C56.0932 14.5514 58.0172 16.9963 58.0172 19.9845C58.0172 22.9726 56.1617 25.4539 52.7881 25.4539Z" fill="#001767"/>
<path d="M105.592 9.39933V11.9472C104.175 10.2147 101.747 8.89001 99.0145 8.89001C92.8054 8.89001 88.793 13.3396 88.793 19.9958C88.793 26.652 92.8079 31 99.0145 31C101.747 31 104.175 29.8133 105.592 28.0119V30.5923H112.001V9.39933H105.592ZM105.658 20.1664C105.658 22.984 103.5 25.4979 100.464 25.4979C96.9884 25.4979 95.0681 23.0191 95.0681 19.962C95.0681 16.9048 96.9909 14.4599 100.464 14.4599C103.5 14.4599 105.658 16.8722 105.658 19.7913V20.1652V20.1664Z" fill="#001767"/>
</svg>
