<svg width="32" height="32" viewBox="0 0 32 32" fill="none" xmlns="http://www.w3.org/2000/svg">
<path d="M17.5754 3.0011C15.0136 3.0011 14.0337 4.46883 12.7934 7.73348L9.32987 16.7858C7.93319 15.8001 6.72655 14.5636 5.74165 13.14L2 16.872C3.24722 18.6209 5.1121 20.3728 7.42935 21.7592L4.92997 28.2904H10.9315L12.5053 23.9059C14.0198 24.3076 15.6342 24.5369 17.3239 24.5369C19.1096 24.5369 20.6865 24.2978 22.0851 23.9118L23.5699 28.2904H30L22.5187 7.73153C21.3279 4.46197 20.1232 3.00012 17.5754 3.00012V3.0011ZM17.3249 19.2793C16.2668 19.2793 15.2522 19.1676 14.2831 18.9589L17.2546 10.6846C17.3111 10.5269 17.3338 10.4642 17.4259 10.4642C17.511 10.4642 17.5476 10.5269 17.6011 10.6846L20.3994 18.9403C19.4195 19.1598 18.392 19.2783 17.3249 19.2783V19.2793Z" fill="#001767"/>
</svg>
