<svg width="139" height="32" viewBox="0 0 139 32" fill="none" xmlns="http://www.w3.org/2000/svg">
<path d="M14.3391 25.0068C12.1242 25.064 11.6955 23.4819 11.6768 22.3329V14.3643H16.839V9.74564H11.6974V2.88133H7.64365C7.57695 2.88133 7.46067 2.93887 7.44432 3.08405C7.20675 5.19829 6.19662 8.90865 2 10.391V14.3643H5.19466V22.7526C5.19466 25.7857 7.08414 30.0944 13.1112 29.9928C15.1449 29.9593 17.404 29.1247 17.904 28.4051L16.5732 24.539C16.0582 24.7784 15.0745 24.9878 14.3391 25.0068ZM39.0534 24.5153V9.74617H29.9873V14.0829L31.7341 14.0831C32.3089 14.0831 32.5505 14.3281 32.5581 14.8644L32.5491 21.601C32.5491 22.2614 32.0732 24.7412 28.7707 24.804C26.5197 24.8471 26.0464 23.5181 26.0464 21.7757V9.74617H19.3702V22.1191C19.3702 25.2501 20.7983 30.1757 27.4632 29.9952C29.6511 29.9353 32.1579 28.8338 33.4607 27.2184L33.515 29.7061H40.954V25.4634C40.954 25.4634 40.3523 25.4167 39.9019 25.3869C39.3759 25.3525 39.0529 25.0693 39.0529 24.515M77.7424 24.4736L77.7429 18.4185C77.7429 16.2602 77.7171 14.0304 76.2901 12.2104C74.9836 10.5441 72.8149 9.322 69.5229 9.4809C67.3371 9.58648 65.0046 10.6035 63.7174 12.3456L63.5144 12.6016L63.391 12.453C62.0673 10.5399 59.9543 9.322 56.6626 9.4809C54.4757 9.58648 52.1432 10.6035 50.8562 12.3456L50.6627 9.74485H42.5959V14.0826L44.4521 14.1101C45.0264 14.1101 45.269 14.3548 45.2766 14.8908L45.2772 23.3795V24.4736C45.2772 25.0279 44.9518 25.3309 44.4263 25.3649C43.9759 25.395 43.0636 25.46 43.0636 25.46V29.7027L53.9728 29.7061V25.4605C53.9728 25.4605 53.1133 25.3998 52.6102 25.3655C52.0841 25.3296 51.7596 25.0279 51.7596 24.4738C51.7596 24.4738 51.7683 19.0555 51.7683 17.9711C51.7683 16.8871 52.6642 14.6633 55.5079 14.6633C57.8019 14.6633 58.272 16.063 58.272 17.6916C58.272 19.3202 58.2747 24.4744 58.2747 24.4744C58.2747 25.0287 57.9495 25.3312 57.424 25.3657C56.9737 25.3961 56.0614 25.4613 56.0614 25.4613V29.703H66.959V25.4605C66.959 25.4605 66.0994 25.3998 65.5958 25.3655C65.0703 25.3296 64.7502 25.0279 64.7502 24.4738H64.7339C64.7339 24.4738 64.7428 19.0555 64.7428 17.9711C64.7428 16.8871 65.5417 14.6633 68.386 14.6633C70.6797 14.6633 71.2537 16.063 71.2537 17.6916V23.3798L71.2529 24.4744C71.2529 25.0287 70.9275 25.3312 70.4018 25.3657C69.9509 25.3961 69.0394 25.4613 69.0394 25.4613V29.703H79.9501V25.4605C79.9501 25.4605 79.0911 25.3998 78.5883 25.3655C78.0617 25.3296 77.7424 25.0276 77.7424 24.4736ZM92.1326 25.0564C91.2256 25.1234 89.5465 24.9706 88.4665 23.0733V20.2939L88.4673 20.2926H88.4665V17.0787C88.4665 15.689 89.7485 14.4698 91.7324 14.3959C93.7416 14.3218 95.5198 15.6946 95.5198 19.572C95.5198 24.8025 93.2282 24.9754 92.1326 25.0564ZM93.1206 9.46005C91.4711 9.53237 89.7306 10.164 88.4665 11.2642V2H86.1309C86.1309 2 82.3124 3.35829 79.3558 3.72096L79.2593 7.96318L81.1288 7.96582C81.7025 7.96582 81.9493 8.21024 81.9567 8.74712V29.6885L87.2977 29.6827L88.0605 27.9643C88.2239 28.0562 90.6743 30.3618 94.5872 29.9004C99.5139 29.3187 102.101 25.414 102.101 19.4902C102.101 16.3822 101.148 9.10846 93.1203 9.46005M134.169 13.3111C133.951 8.57845 127.55 8.36095 124.203 11.5577L123.593 9.72479H115.855V14.062L117.477 14.0594C118.052 14.0594 118.265 14.3038 118.273 14.8402V24.457C118.273 25.0112 117.946 25.3143 117.421 25.3481C116.97 25.3779 116.063 25.4431 116.063 25.4431V29.6856H126.958V25.4431C126.958 25.4431 126.057 25.3779 125.607 25.3481C125.081 25.3143 124.755 25.011 124.755 24.457L124.752 17.9363C124.752 16.7142 125.032 14.6744 127.187 14.1528C127.453 16.1924 129.421 16.8016 130.382 16.8016C132.806 16.8016 134.169 14.984 134.169 13.3111ZM111.701 24.457L111.707 2H109.347C109.347 2 105.427 3.41953 102.603 3.72096V7.96345H104.386C104.96 7.96345 105.199 8.20813 105.207 8.74448V24.4575C105.207 25.0112 104.883 25.3145 104.357 25.3483C103.906 25.3781 102.897 25.4439 102.897 25.4439V29.6858H114.012V25.4436C114.012 25.4436 113.002 25.3779 112.552 25.3481C112.026 25.3143 111.701 25.011 111.701 24.457ZM133.093 22.2783C130.935 22.2783 129.187 23.9932 129.187 26.1077C129.187 28.2206 130.935 29.936 133.093 29.936C135.252 29.936 137 28.2206 137 26.1077C137 23.9932 135.252 22.2783 133.093 22.2783Z" fill="#303D4D"/>
</svg>
