<svg width="105" height="32" viewBox="0 0 105 32" fill="none" xmlns="http://www.w3.org/2000/svg">
<path d="M12.6352 2.41353L12.9462 3.68594C11.7021 3.99697 10.5287 4.47766 9.4259 5.14214L8.74729 4.01111C9.96314 3.29008 11.278 2.75284 12.6352 2.41353ZM19.3648 2.41353L19.0538 3.68594C20.2979 3.99697 21.4713 4.47766 22.5741 5.14214L23.2527 4.01111C22.0369 3.29008 20.722 2.75284 19.3648 2.41353ZM4.01111 8.76143C3.29008 9.96314 2.7387 11.278 2.41353 12.6352L3.68594 12.9462C3.99697 11.7021 4.47766 10.5287 5.14214 9.4259L4.01111 8.76143ZM3.31835 16C3.31835 15.3638 3.36077 14.7276 3.45973 14.1055L2.15905 13.9076C1.94698 15.2931 1.94698 16.7069 2.15905 18.1065L3.45973 17.9086C3.36077 17.2724 3.31835 16.6362 3.31835 16ZM23.2386 27.9889L22.56 26.8579C21.4713 27.5223 20.2838 28.003 19.0538 28.3141L19.3648 29.5865C20.722 29.2472 22.0369 28.7099 23.2386 27.9889ZM28.6816 16C28.6816 16.6362 28.6392 17.2724 28.5403 17.8945L29.8409 18.0924C30.053 16.7069 30.053 15.2931 29.8409 13.8935L28.5403 14.0914C28.6392 14.7276 28.6816 15.3638 28.6816 16ZM29.5865 19.3648L28.3141 19.0538C28.003 20.2979 27.5223 21.4713 26.8579 22.5741L27.9889 23.2527C28.7099 22.0369 29.2472 20.722 29.5865 19.3648ZM17.8945 28.5403C16.6362 28.7241 15.3497 28.7241 14.0914 28.5403L13.8935 29.8409C15.279 30.053 16.6928 30.053 18.0924 29.8409L17.8945 28.5403ZM26.2075 23.5213C25.4441 24.5393 24.5393 25.4441 23.5213 26.2075L24.2989 27.2679C25.4299 26.4337 26.4337 25.4441 27.2679 24.3131L26.2075 23.5213ZM23.5213 5.79248C24.5534 6.54178 25.4582 7.46074 26.2075 8.47867L27.2679 7.68695C26.4337 6.55592 25.4441 5.56627 24.3131 4.73214L23.5213 5.79248ZM5.79248 8.47867C6.54178 7.44661 7.46074 6.54178 8.47867 5.79248L7.68695 4.73214C6.55592 5.56627 5.56627 6.55592 4.73214 7.68695L5.79248 8.47867ZM27.9889 8.76143L26.8579 9.44004C27.5223 10.5287 28.003 11.7162 28.3141 12.9462L29.5865 12.6352C29.2472 11.278 28.7099 9.96314 27.9889 8.76143ZM14.1055 3.45973C15.3638 3.27594 16.6503 3.27594 17.9086 3.45973L18.1065 2.15905C16.721 1.94698 15.3072 1.94698 13.9076 2.15905L14.1055 3.45973ZM6.45696 27.6072L3.74249 28.2434L4.37869 25.5289L3.10629 25.232L2.47008 27.9465C2.37112 28.3848 2.49836 28.8513 2.82353 29.1765C3.1487 29.5016 3.61525 29.6289 4.05352 29.5299L6.76799 28.9079L6.45696 27.6072ZM3.37491 24.0727L4.64731 24.3696L5.08559 22.4893C4.44938 21.4148 3.9687 20.2555 3.6718 19.0538L2.39939 19.3648C2.68215 20.5241 3.12042 21.641 3.68594 22.6872L3.37491 24.0727ZM9.51073 26.9144L7.6304 27.3527L7.92729 28.6251L9.3128 28.2999C10.359 28.8654 11.4759 29.3037 12.6352 29.5865L12.9462 28.3141C11.7445 28.0172 10.5852 27.5365 9.51073 26.9144ZM16 4.63317C11.8576 4.63317 8.05453 6.88109 6.04696 10.5004C4.03938 14.1197 4.16663 18.5448 6.37213 22.051L5.28351 26.7165L9.949 25.6279C14.0348 28.201 19.3083 27.9182 23.0972 24.8927C26.8861 21.8672 28.3423 16.8059 26.7448 12.2393C25.1472 7.67281 20.8351 4.61904 16 4.63317Z" fill="#3A76F0"/>
<path d="M36.1899 19.2657L39.3992 18.9547C39.5972 20.0292 39.9789 20.8209 40.5727 21.3299C41.1665 21.8388 41.9582 22.0933 42.962 22.0933C44.0223 22.0933 44.8282 21.8671 45.3654 21.4147C45.9026 20.9623 46.1713 20.4392 46.1713 19.8454C46.1713 19.4637 46.0582 19.1243 45.832 18.8557C45.6057 18.5871 45.2099 18.3468 44.6444 18.1488C44.2627 18.0216 43.372 17.7813 42.0006 17.4419C40.2334 17.0037 38.9892 16.4664 38.2823 15.8302C37.2786 14.9254 36.7837 13.8368 36.7837 12.5503C36.7837 11.7161 37.0241 10.9385 37.4906 10.2175C37.9572 9.49648 38.6358 8.9451 39.5265 8.56338C40.4172 8.18166 41.4775 7.99786 42.7358 7.99786C44.7858 7.99786 46.3268 8.45027 47.3588 9.34096C48.3909 10.2458 48.9423 11.4334 48.9847 12.932L45.6906 13.0734C45.5492 12.2392 45.2523 11.6313 44.7858 11.2637C44.3192 10.8961 43.6264 10.7123 42.6933 10.7123C41.732 10.7123 40.9827 10.9103 40.4454 11.3061C40.092 11.5606 39.9223 11.8999 39.9223 12.324C39.9223 12.7058 40.092 13.0451 40.4172 13.3137C40.8272 13.6671 41.8451 14.0206 43.4427 14.4023C45.0402 14.784 46.2278 15.1658 47.0054 15.5757C47.7688 15.9857 48.3768 16.5371 48.815 17.2299C49.2533 17.9368 49.4654 18.7992 49.4654 19.8312C49.4654 20.7643 49.2109 21.6409 48.6878 22.4609C48.1647 23.2809 47.4295 23.8888 46.4823 24.2847C45.5351 24.6805 44.3475 24.8785 42.9337 24.8785C40.8696 24.8785 39.2861 24.3978 38.1834 23.4505C37.0665 22.475 36.402 21.0895 36.1899 19.2657Z" fill="black"/>
<path d="M52.2083 24.5674V12.7482H55.3327V24.5674H52.2083Z" fill="black"/>
<path d="M58.2591 25.345L61.836 25.7833C61.8925 26.1933 62.0339 26.4902 62.246 26.6457C62.5429 26.8719 63.0094 26.985 63.6456 26.985C64.4656 26.985 65.0736 26.8578 65.4836 26.6174C65.7522 26.4478 65.9642 26.1933 66.1056 25.8257C66.2046 25.5712 66.247 25.0905 66.247 24.3836V22.6588C65.3139 23.9312 64.1263 24.5674 62.7125 24.5674C61.1291 24.5674 59.8708 23.8888 58.9377 22.5457C58.2167 21.4854 57.8491 20.1564 57.8491 18.5871C57.8491 16.6078 58.3298 15.0951 59.277 14.0489C60.2243 13.0027 61.4119 12.4796 62.8398 12.4796C64.296 12.4796 65.5118 13.1158 66.4591 14.4023V12.7482H69.3856V23.3516C69.3856 24.7512 69.2725 25.7833 69.0463 26.4761C68.8201 27.1688 68.4949 27.706 68.0708 28.1019C67.6608 28.4978 67.0953 28.8088 66.4025 29.0209C65.7098 29.2471 64.8332 29.3602 63.7729 29.3602C61.7653 29.3602 60.3515 29.0209 59.5033 28.3281C58.6691 27.6354 58.245 26.7729 58.245 25.7126C58.245 25.6278 58.2591 25.5005 58.2591 25.345ZM61.0584 18.4175C61.0584 19.6757 61.2988 20.5947 61.7936 21.1744C62.2743 21.754 62.8822 22.0509 63.5891 22.0509C64.3525 22.0509 65.0029 21.754 65.526 21.1602C66.0491 20.5664 66.3177 19.6757 66.3177 18.5023C66.3177 17.2723 66.0632 16.3675 65.5542 15.7737C65.0453 15.1799 64.4091 14.883 63.6456 14.883C62.8963 14.883 62.2743 15.1799 61.7936 15.7596C61.2988 16.3251 61.0584 17.2158 61.0584 18.4175Z" fill="black"/>
<path d="M83.2267 24.5674H80.1022V18.5306C80.1022 17.2582 80.0315 16.424 79.9043 16.0565C79.777 15.6747 79.5508 15.392 79.2539 15.1799C78.957 14.9678 78.5894 14.8689 78.1653 14.8689C77.6281 14.8689 77.1332 15.0244 76.7091 15.3072C76.285 15.604 75.9881 15.9999 75.8184 16.4806C75.6629 16.9754 75.5781 17.8802 75.5781 19.1951V24.5533H72.4536V12.7482H75.366V14.4872C76.3981 13.1582 77.6988 12.4796 79.2681 12.4796C79.9608 12.4796 80.5829 12.6068 81.1625 12.8472C81.728 13.1016 82.1663 13.4127 82.4632 13.7944C82.7601 14.1761 82.958 14.6144 83.0711 15.1092C83.1842 15.604 83.2408 16.2968 83.2408 17.2158V24.5674H83.2267Z" fill="black"/>
<path d="M88.7404 16.3534L85.8987 15.8444C86.2239 14.6992 86.7611 13.851 87.5528 13.2996C88.3304 12.7482 89.4897 12.4796 91.0307 12.4796C92.4304 12.4796 93.4625 12.6492 94.1411 12.9744C94.8197 13.2996 95.3004 13.7237 95.5831 14.2327C95.8659 14.7416 96.0073 15.6747 96.0073 17.032L95.979 20.6795C95.979 21.7257 96.0355 22.4892 96.1345 22.984C96.2335 23.4788 96.4173 24.0019 96.7 24.5674H93.6038C93.519 24.3554 93.42 24.0585 93.3069 23.6485C93.2504 23.4647 93.2221 23.3374 93.1938 23.2809C92.6566 23.804 92.0911 24.1857 91.4832 24.4543C90.8752 24.7088 90.2249 24.8502 89.5321 24.8502C88.3163 24.8502 87.3549 24.525 86.648 23.8605C85.9411 23.1961 85.6018 22.3619 85.6018 21.3581C85.6018 20.6937 85.7573 20.0999 86.0825 19.5768C86.4077 19.0537 86.8459 18.6578 87.4256 18.3751C88.0052 18.0923 88.8252 17.852 89.9138 17.6399C91.37 17.3713 92.388 17.1027 92.9535 16.8765V16.5654C92.9535 15.9575 92.798 15.5334 92.5011 15.2789C92.2042 15.0244 91.6387 14.8972 90.8187 14.8972C90.2673 14.8972 89.829 15.0103 89.518 15.2223C89.1928 15.4203 88.9383 15.802 88.7404 16.3534ZM92.9252 18.8982C92.5293 19.0254 91.8931 19.1951 91.0166 19.3789C90.1542 19.5626 89.5745 19.7464 89.3201 19.9302C88.9101 20.213 88.7121 20.5806 88.7121 21.033C88.7121 21.4713 88.8818 21.853 89.207 22.164C89.5321 22.4892 89.9421 22.6447 90.4511 22.6447C91.0166 22.6447 91.5538 22.4609 92.0628 22.0933C92.4445 21.8106 92.6849 21.4713 92.8121 21.0613C92.8969 20.7926 92.9394 20.2837 92.9394 19.5344V18.8982H92.9252Z" fill="black"/>
<path d="M99.0891 24.5674V8.25232H102.214V24.5674H99.0891Z" fill="black"/>
<path d="M52.1782 10.6276C52.1782 9.82172 52.8286 9.18552 53.6203 9.18552H53.8606C54.6665 9.18552 55.3027 9.83586 55.3027 10.6276C55.3027 11.4334 54.6523 12.0696 53.8606 12.0696H53.6203C52.8286 12.0838 52.1782 11.4334 52.1782 10.6276Z" fill="black"/>
</svg>
