<svg width="32" height="32" viewBox="0 0 32 32" fill="none" xmlns="http://www.w3.org/2000/svg">
<path d="M12.6357 2.41353L12.9467 3.68594C11.7026 3.99697 10.5291 4.47766 9.42639 5.14214L8.74777 4.01111C9.96363 3.29008 11.2784 2.75284 12.6357 2.41353ZM19.3653 2.41353L19.0543 3.68594C20.2984 3.99697 21.4718 4.47766 22.5746 5.14214L23.2532 4.01111C22.0373 3.29008 20.7225 2.75284 19.3653 2.41353ZM4.0116 8.76143C3.29057 9.96314 2.73919 11.278 2.41402 12.6352L3.68643 12.9462C3.99746 11.7021 4.47815 10.5287 5.14262 9.4259L4.0116 8.76143ZM3.31884 16C3.31884 15.3638 3.36126 14.7276 3.46022 14.1055L2.15954 13.9076C1.94747 15.2931 1.94747 16.7069 2.15954 18.1065L3.46022 17.9086C3.36126 17.2724 3.31884 16.6362 3.31884 16ZM23.2391 27.9889L22.5604 26.8579C21.4718 27.5223 20.2843 28.003 19.0543 28.3141L19.3653 29.5865C20.7225 29.2472 22.0373 28.7099 23.2391 27.9889ZM28.6821 16C28.6821 16.6362 28.6397 17.2724 28.5408 17.8945L29.8414 18.0924C30.0535 16.7069 30.0535 15.2931 29.8414 13.8935L28.5408 14.0914C28.6397 14.7276 28.6821 15.3638 28.6821 16ZM29.587 19.3648L28.3146 19.0538C28.0035 20.2979 27.5228 21.4713 26.8584 22.5741L27.9894 23.2527C28.7104 22.0369 29.2477 20.722 29.587 19.3648ZM17.895 28.5403C16.6367 28.7241 15.3501 28.7241 14.0919 28.5403L13.894 29.8409C15.2795 30.053 16.6932 30.053 18.0929 29.8409L17.895 28.5403ZM26.208 23.5213C25.4446 24.5393 24.5397 25.4441 23.5218 26.2075L24.2994 27.2679C25.4304 26.4337 26.4342 25.4441 27.2684 24.3131L26.208 23.5213ZM23.5218 5.79248C24.5539 6.54178 25.4587 7.46074 26.208 8.47867L27.2684 7.68695C26.4342 6.55592 25.4446 5.56627 24.3135 4.73214L23.5218 5.79248ZM5.79297 8.47867C6.54227 7.44661 7.46123 6.54178 8.47916 5.79248L7.68744 4.73214C6.55641 5.56627 5.56676 6.55592 4.73263 7.68695L5.79297 8.47867ZM27.9894 8.76143L26.8584 9.44004C27.5228 10.5287 28.0035 11.7162 28.3146 12.9462L29.587 12.6352C29.2477 11.278 28.7104 9.96314 27.9894 8.76143ZM14.106 3.45973C15.3643 3.27594 16.6508 3.27594 17.9091 3.45973L18.107 2.15905C16.7215 1.94698 15.3077 1.94698 13.9081 2.15905L14.106 3.45973ZM6.45744 27.6072L3.74298 28.2434L4.37918 25.5289L3.10678 25.232L2.47057 27.9465C2.37161 28.3848 2.49885 28.8513 2.82402 29.1765C3.14919 29.5016 3.61574 29.6289 4.05401 29.5299L6.76848 28.9079L6.45744 27.6072ZM3.37539 24.0727L4.6478 24.3696L5.08607 22.4893C4.44987 21.4148 3.96918 20.2555 3.67229 19.0538L2.39988 19.3648C2.68264 20.5241 3.12091 21.641 3.68643 22.6872L3.37539 24.0727ZM9.51122 26.9144L7.63089 27.3527L7.92778 28.6251L9.31329 28.2999C10.3595 28.8654 11.4764 29.3037 12.6357 29.5865L12.9467 28.3141C11.745 28.0172 10.5857 27.5365 9.51122 26.9144ZM16.0005 4.63317C11.8581 4.63317 8.05502 6.88109 6.04745 10.5004C4.03987 14.1197 4.16711 18.5448 6.37262 22.051L5.284 26.7165L9.94949 25.6279C14.0353 28.201 19.3087 27.9182 23.0977 24.8927C26.8866 21.8672 28.3428 16.8059 26.7453 12.2393C25.1477 7.67281 20.8356 4.61904 16.0005 4.63317Z" fill="#3A76F0"/>
</svg>
