<svg width="143" height="32" viewBox="0 0 143 32" fill="none" xmlns="http://www.w3.org/2000/svg">
<path d="M6.5533 20.4653C6.5533 22.075 6.9066 23.3108 7.36838 24.0584C7.97382 25.0377 8.87686 25.4526 9.79749 25.4526C10.9849 25.4526 12.0712 25.1579 14.1646 22.2626C15.8417 19.942 17.8178 16.6846 19.1474 14.6425L21.3992 11.1828C22.9634 8.7801 24.7738 6.10911 26.8496 4.29864C28.5443 2.82094 30.3724 2 32.2121 2C35.3009 2 38.2431 3.78995 40.4949 7.14702C42.9592 10.8237 44.1554 15.4547 44.1554 20.2337C44.1554 23.0748 43.5954 25.1623 42.6425 26.8115C41.7219 28.4065 39.9275 30 36.9091 30V25.4526C39.4936 25.4526 40.1386 23.0777 40.1386 20.3598C40.1386 16.4867 39.2356 12.1885 37.2463 9.11728C35.8346 6.93885 34.005 5.60775 31.9923 5.60775C29.8153 5.60775 28.0635 7.24963 26.0947 10.1772C25.048 11.7326 23.9734 13.6281 22.7669 15.7669L21.4387 18.1198C18.7707 22.8505 18.0949 23.928 16.7608 25.7062C14.4226 28.8199 12.426 30 9.79749 30C6.67937 30 4.70764 28.6498 3.48649 26.6151C2.48963 24.9571 2 22.7816 2 20.3026L6.5533 20.4653Z" fill="#0081FB"/>
<path d="M5.58984 7.46806C7.67738 4.25026 10.6899 2 14.1452 2C16.1463 2 18.1356 2.59225 20.2129 4.28838C22.4851 6.14283 24.9069 9.19644 27.9283 14.2291L29.0116 16.0352C31.6269 20.392 33.1149 22.6335 33.9857 23.6905C35.1057 25.048 35.8899 25.4526 36.9088 25.4526C39.4933 25.4526 40.1383 23.0777 40.1383 20.3598L44.1551 20.2337C44.1551 23.0748 43.5951 25.1623 42.6422 26.8115C41.7216 28.4065 39.9272 30 36.9088 30C35.0324 30 33.3699 29.5925 31.5316 27.8582C30.1184 26.5271 28.4663 24.1625 27.1953 22.0369L23.4146 15.7215C21.5176 12.552 19.7775 10.1889 18.7704 9.11874C17.687 7.96796 16.2943 6.57822 14.0719 6.57822C12.2732 6.57822 10.7457 7.84042 9.46733 9.7711L5.58984 7.46806Z" fill="url(#paint0_linear_20_3377)"/>
<path d="M14.0723 6.57822C12.2735 6.57822 10.746 7.84042 9.46764 9.7711C7.6601 12.4993 6.5533 16.5629 6.5533 20.4653C6.5533 22.075 6.9066 23.3108 7.36838 24.0584L3.48649 26.6151C2.48963 24.9571 2 22.7816 2 20.3026C2 15.7948 3.23728 11.0963 5.59016 7.46806C7.6777 4.25026 10.6903 2 14.1455 2L14.0723 6.57822Z" fill="url(#paint1_linear_20_3377)"/>
<path d="M53.0078 2.88544H58.275L67.2306 19.0873L76.1877 2.88544H81.3406V29.5074H77.0438V9.10408L69.1892 23.2331H65.1578L57.3046 9.10408V29.5074H53.0078V2.88544ZM94.804 12.8115C91.7226 12.8115 89.8667 15.1307 89.4225 18.0025H99.8807C99.6652 15.0442 97.9588 12.8115 94.804 12.8115ZM85.1624 19.6385C85.1624 13.5958 89.0677 9.1979 94.8788 9.1979C100.595 9.1979 104.007 13.5401 104.007 19.961V21.1411H89.4225C89.94 24.2651 92.0128 26.3703 95.3552 26.3703C98.0218 26.3703 99.6887 25.5566 101.269 24.0687L103.551 26.8643C101.401 28.8419 98.6654 29.9824 95.2028 29.9824C88.9123 29.9824 85.1624 25.3954 85.1624 19.6385V19.6385ZM109.217 13.1927H105.262V9.67434H109.217V3.85591H113.363V9.67434H119.372V13.1927H113.363V22.1101C113.363 25.155 114.337 26.2369 116.729 26.2369C117.821 26.2369 118.447 26.143 119.372 25.9891V29.4693C118.22 29.7948 117.12 29.9443 115.93 29.9443C111.455 29.9443 109.217 27.499 109.217 22.6042V13.1927ZM136.829 16.6142C135.996 14.512 134.139 12.964 131.409 12.964C127.862 12.964 125.591 15.481 125.591 19.5814C125.591 23.579 127.681 26.2178 131.239 26.2178C134.036 26.2178 136.033 24.5906 136.829 22.5661V16.6142ZM140.975 29.5074H136.905V26.7309C135.768 28.3654 133.698 29.9824 130.345 29.9824C124.953 29.9824 121.35 25.4687 121.35 19.5814C121.35 13.6383 125.04 9.1979 130.574 9.1979C133.309 9.1979 135.455 10.2915 136.905 12.2222V9.67434H140.975V29.5074Z" fill="#192830"/>
<defs>
<linearGradient id="paint0_linear_20_3377" x1="10.9421" y1="19.1518" x2="39.9683" y2="20.6178" gradientUnits="userSpaceOnUse">
<stop stop-color="#0064E1"/>
<stop offset="0.4" stop-color="#0064E1"/>
<stop offset="0.83" stop-color="#0073EE"/>
<stop offset="1" stop-color="#0082FB"/>
</linearGradient>
<linearGradient id="paint1_linear_20_3377" x1="8.59686" y1="22.377" x2="8.59686" y2="11.6754" gradientUnits="userSpaceOnUse">
<stop stop-color="#0082FB"/>
<stop offset="1" stop-color="#0064E0"/>
</linearGradient>
</defs>
</svg>
