<svg width="68" height="32" viewBox="0 0 68 32" fill="none" xmlns="http://www.w3.org/2000/svg">
<path d="M58.2317 18.0757H61.6323V21.2437C61.0082 21.4821 59.7833 21.7205 58.6221 21.7205C54.8606 21.7205 53.6097 19.8082 53.6097 15.925C53.6097 12.2189 54.8006 10.038 58.5585 10.038C60.6527 10.038 61.8409 10.6961 62.8258 11.9511L65.4242 9.56036C63.8375 7.2945 61.0682 6.60779 58.4681 6.60779C52.6222 6.60546 49.5484 9.79887 49.5484 15.8941C49.5484 21.959 52.3258 25.2468 58.4368 25.2468C61.2429 25.2468 63.9854 24.5315 65.4789 23.4831V14.6992H58.2318L58.2317 18.0757ZM40.394 21.4521H49.0481V24.9778H36.2176V6.87351H40.3943L40.394 21.4521Z" fill="#6B6C6B"/>
<path d="M25.8643 25.8996C31.3236 20.4322 31.3232 11.567 25.8637 6.10075C20.4042 0.633504 11.5524 0.632846 6.0943 6.10021C0.634978 11.5676 0.635307 20.4328 6.09484 25.8991C11.5543 31.3668 20.4061 31.3669 25.8643 25.8996Z" fill="#A50034"/>
<path d="M11.7407 13.2693C12.0594 13.2677 12.3706 13.1716 12.6349 12.9931C12.8991 12.8146 13.1047 12.5618 13.2256 12.2664C13.3465 11.971 13.3773 11.6463 13.3142 11.3334C13.251 11.0205 13.0967 10.7334 12.8708 10.5082C12.6448 10.283 12.3573 10.1299 12.0446 10.0682C11.7319 10.0065 11.4079 10.0389 11.1136 10.1614C10.8192 10.284 10.5676 10.4911 10.3907 10.7567C10.2138 11.0222 10.1194 11.3342 10.1194 11.6535C10.1199 11.8662 10.1622 12.0767 10.244 12.273C10.3258 12.4694 10.4454 12.6477 10.5959 12.7977C10.7465 12.9477 10.9251 13.0666 11.1214 13.1475C11.3179 13.2285 11.5283 13.2698 11.7407 13.2693ZM26.527 16.4436H19.4178V15.3889H27.5689C27.58 15.5932 27.5856 15.7974 27.5856 16.0041C27.5856 22.3545 22.4177 27.5022 16.0444 27.5022C9.67083 27.5022 4.50209 22.3576 4.50209 16.0041C4.50209 9.65108 9.66919 4.50598 16.0433 4.50598C16.2115 4.50598 16.3789 4.50939 16.5456 4.51629V5.56303C16.3789 5.55558 16.2121 5.55191 16.0448 5.55191C10.2517 5.55191 5.55365 10.2316 5.55365 16.003C5.55365 21.7745 10.251 26.4551 16.0448 26.4551C21.6793 26.4551 26.2825 22.0274 26.5261 16.4729L26.527 16.4436ZM19.4016 20.8373H16.5446V10.0875H15.4884V21.8991H16.5471V21.892H19.4041L19.4016 20.8373Z" fill="white"/>
</svg>
