<svg width="32" height="32" viewBox="0 0 32 32" fill="none" xmlns="http://www.w3.org/2000/svg">
<path d="M15.9983 30C23.7313 30 30 23.722 30 16.0017C30 8.2671 23.7313 2 15.9983 2C8.26618 2 2 8.2671 2 16.0017C2 23.722 8.26618 30 15.9983 30Z" fill="#C4084F"/>
<path d="M15.4342 9.84936V22.1364H19.3334V21.0326H16.5616V9.84936H15.4342Z" fill="white"/>
<path d="M11.525 13.2084C12.4495 13.2084 13.2106 12.4574 13.2106 11.5305C13.2106 10.5986 12.4495 9.84601 11.525 9.84601C10.6005 9.84601 9.84448 10.5986 9.84448 11.5305C9.84448 12.4574 10.6005 13.2084 11.525 13.2084Z" fill="white"/>
<path d="M16.5616 4.29134C16.4082 4.28715 16.1425 4.28714 15.9983 4.28714C9.53518 4.28714 4.27733 9.53348 4.27733 15.9992C4.27733 19.1261 5.49937 22.0719 7.70628 24.2819C9.92409 26.4969 12.8602 27.728 15.9983 27.728C19.1297 27.728 22.0701 26.4969 24.2862 24.2819C26.4931 22.0719 27.7084 19.1261 27.7084 15.9992V15.4637H19.3443V16.5515H26.5987C26.5987 16.5733 26.5937 16.6931 26.5937 16.7174C26.2366 22.2495 21.6082 26.6159 15.9983 26.6159C13.1653 26.6159 10.4865 25.5164 8.48412 23.5159C6.47921 21.5112 5.36862 18.8369 5.36862 15.9984C5.36862 13.1623 6.47921 10.4931 8.48412 8.48924C10.4865 6.48038 13.1653 5.37412 15.9983 5.37412C16.1241 5.37412 16.4224 5.38084 16.5616 5.38335V4.29134Z" fill="white"/>
</svg>
