<svg width="87" height="32" viewBox="0 0 87 32" fill="none" xmlns="http://www.w3.org/2000/svg">
<path d="M2 2V19.2235C2 25.7093 6.50275 29.9961 12.375 29.9961C15.2316 29.9961 17.7769 28.8983 19.6167 26.9738V29.5306H23.6838V2H19.5752V18.9804C19.5752 23.347 16.6357 26.2964 12.8419 26.2964C9.00312 26.2964 6.11196 23.4235 6.11196 18.9804V2.00348H2V2ZM27.73 2V29.5306H31.6379V27.012C33.4397 28.8601 35.985 29.9995 38.7621 29.9995C40.1366 30.0124 41.4999 29.7513 42.7733 29.2314C44.0467 28.7115 45.2048 27.9432 46.1806 26.9707C47.1564 25.9983 47.9305 24.8411 48.4582 23.5662C48.9858 22.2913 49.2566 20.9239 49.2547 19.5431C49.2611 18.1592 48.994 16.7876 48.4687 15.5081C47.9435 14.2286 47.1706 13.0666 46.1949 12.0894C45.2192 11.1122 44.0601 10.3393 42.7848 9.81556C41.5095 9.29177 40.1433 9.02751 38.7655 9.0381C37.4455 9.03643 36.1384 9.30021 34.9214 9.8139C33.7044 10.3276 32.6021 11.0808 31.6794 12.0291V2.00348H27.7265L27.73 2ZM61.8603 9.07979C56.0261 9.07979 51.6063 13.839 51.6063 19.5015C51.6063 25.4765 56.2197 29.9579 62.2096 29.9579C65.8512 29.9579 68.8254 28.3494 70.8208 25.6746L67.9642 23.552C66.4772 25.5564 64.5197 26.4944 62.2096 26.4944C58.8446 26.4944 56.1471 24.0627 55.5972 20.7972H71.841V19.5015C71.841 13.5264 67.615 9.07979 61.8603 9.07979ZM83.6305 9.31601C81.4379 9.31601 79.8332 10.3373 78.8545 11.9492V9.47234H74.9432V29.5306H78.8926V18.1188C78.8926 15.0132 80.7739 13.0122 83.3573 13.0122H85V9.31254H83.6305V9.31601ZM61.7773 12.5398C64.7169 12.5398 67.1861 14.5824 67.8501 17.6464H55.6733C56.3754 14.5824 58.8412 12.5398 61.7773 12.5398ZM38.4958 12.5815C42.2515 12.5815 45.3433 15.6489 45.3433 19.5431C45.3507 21.3764 44.6339 23.1377 43.3502 24.4408C42.0666 25.7439 40.3208 26.4824 38.4958 26.4944C37.5879 26.4958 36.6888 26.3167 35.8501 25.9675C35.0115 25.6184 34.2499 25.1059 33.6092 24.4598C32.9685 23.8137 32.4615 23.0466 32.1172 22.2028C31.773 21.359 31.5983 20.4551 31.6033 19.5431C31.5969 18.6306 31.7705 17.7259 32.1139 16.8811C32.4573 16.0363 32.9639 15.2681 33.6043 14.6209C34.2447 13.9738 35.0064 13.4603 35.8453 13.1103C36.6843 12.7603 37.5839 12.5805 38.4923 12.5815H38.4958Z" fill="black"/>
</svg>
