<svg width="116" height="32" viewBox="0 0 116 32" fill="none" xmlns="http://www.w3.org/2000/svg">
<path d="M46.2 18.3999L52.3801 25.9999H47.5L42 19.0201V25.9999H37.9999V6.00006H42V17.7601L47.08 11.9999H52.1799L46.2 18.3999ZM30.1999 11.6001C29.3241 11.6132 28.4646 11.8384 27.6948 12.2564C26.9251 12.6744 26.2681 13.2726 25.7801 14V11.9999H22.0001V25.9999H25.9999V19.46C25.9474 18.9853 25.9932 18.5049 26.1344 18.0486C26.2756 17.5924 26.5091 17.1701 26.8205 16.808C27.132 16.4459 27.5146 16.1518 27.9446 15.944C28.3745 15.7361 28.8427 15.619 29.3199 15.5999C31.64 15.5999 32 17.8799 32 19.46V25.9999H36.0001V18.5799C36.0001 14.18 34.5399 11.6001 30.28 11.6001H30.1999ZM65.9999 19.32C66.0152 19.6132 66.0152 19.9066 65.9999 20.2H55.4999V20.34C55.6704 21.174 56.1324 21.92 56.8032 22.4441C57.474 22.9683 58.3095 23.2362 59.16 23.1999C59.8347 23.2293 60.5084 23.1222 61.1407 22.8851C61.773 22.648 62.351 22.2858 62.8401 21.8201L65.5001 23.8201C64.657 24.6805 63.643 25.3546 62.5234 25.799C61.4038 26.2434 60.2035 26.4481 58.9999 26.4C58.0032 26.463 57.0045 26.3113 56.0714 25.9553C55.1383 25.5992 54.2925 25.0471 53.591 24.3361C52.8896 23.6252 52.3489 22.772 52.0054 21.8342C51.6619 20.8964 51.5237 19.8958 51.6 18.9C51.5795 17.9169 51.7617 16.9402 52.1353 16.0306C52.5088 15.1211 53.0657 14.2982 53.7712 13.6133C54.4767 12.9284 55.3158 12.3962 56.236 12.0499C57.1563 11.7035 58.138 11.5504 59.12 11.6001C62.8801 11.6001 65.9999 14.2601 65.9999 19.32ZM62.2801 17.5999C62.2653 17.2038 62.1701 16.8148 62.0002 16.4567C61.8302 16.0985 61.5892 15.7787 61.2916 15.5167C60.9941 15.2548 60.6464 15.0561 60.2696 14.9329C59.8928 14.8097 59.4949 14.7644 59.1001 14.7999C57.3413 14.6098 55.7486 15.8486 55.4999 17.5999H62.2801ZM6.00006 6.00006H2V25.9999H14V22.0003H6.00006V6.00006ZM78.0001 6.00006H81.9999V25.9999H78.2199V24.5999C77.7399 25.1913 77.1282 25.6621 76.4336 25.9747C75.7391 26.2872 74.981 26.4329 74.2201 26.4C73.2904 26.3762 72.3755 26.1624 71.5315 25.7719C70.6875 25.3815 69.9323 24.8225 69.3122 24.1294C68.6922 23.4363 68.2205 22.6237 67.926 21.7416C67.6316 20.8595 67.5206 19.9265 67.6001 18.9999C67.5056 18.0721 67.6054 17.1347 67.893 16.2475C68.1805 15.3603 68.6496 14.5426 69.2704 13.8466C69.8912 13.1505 70.6501 12.5913 71.4988 12.2046C72.3475 11.8178 73.2674 11.6119 74.2 11.6001C74.8946 11.5696 75.5883 11.6777 76.2408 11.918C76.8932 12.1584 77.4913 12.5262 78.0001 13.0001V6.00006ZM78.3 18.9999C78.3629 18.5381 78.326 18.0682 78.1919 17.6218C78.0578 17.1754 77.8295 16.763 77.5224 16.4123C77.2153 16.0617 76.8367 15.781 76.4119 15.5891C75.9872 15.3972 75.5262 15.2986 75.0601 15.3C73.1467 15.4389 71.6968 17.0843 71.8001 18.9999C71.6968 20.9155 73.1467 22.5612 75.0601 22.7001C75.5262 22.7015 75.9872 22.6029 76.412 22.411C76.8367 22.2191 77.2154 21.9384 77.5225 21.5877C77.8296 21.237 78.0578 20.8245 78.192 20.3782C78.3261 19.9318 78.3629 19.4618 78.3 18.9999ZM18 5.59997C17.3568 5.60903 16.741 5.86186 16.2769 6.3074C15.8129 6.75293 15.5352 7.35797 15.4999 8.00031C15.4999 9.38084 16.6193 10.5002 18 10.5002C19.3808 10.5002 20.4997 9.38063 20.4997 8.00031C20.4644 7.35805 20.1867 6.7531 19.7227 6.30761C19.2587 5.86213 18.643 5.6093 17.9998 5.60019M16 25.9999H20.0001V11.9999H16V25.9999ZM114 4.00003V28C114 28.5304 113.789 29.0391 113.414 29.4142C113.039 29.7893 112.53 30 112 30H88C87.4696 30 86.9609 29.7893 86.5858 29.4142C86.2107 29.0391 86 28.5304 86 28V4.00003C86 3.46959 86.2107 2.96087 86.5858 2.5858C86.9609 2.21072 87.4696 2 88 2H112C112.53 2 113.039 2.21072 113.414 2.5858C113.789 2.96087 114 3.46959 114 4.00003ZM93.9999 11.9999H90.0001V25.9999H93.9999V11.9999ZM94.5 8.00009C94.5 6.61934 93.3806 5.5 92.0001 5.5C90.6196 5.5 89.5 6.61934 89.5 8.00009C89.5 9.38063 90.6193 10.5 92.0001 10.5C93.3806 10.5 94.5 9.38063 94.5 8.00009ZM110 18.5799C110 14.18 108.54 11.6001 104.28 11.6001C103.391 11.6002 102.515 11.8192 101.73 12.2377C100.945 12.6562 100.276 13.2615 99.7799 14V11.9999H95.9999V25.9999H100V19.46C99.9475 18.9853 99.9933 18.5049 100.134 18.0486C100.276 17.5924 100.509 17.1701 100.821 16.808C101.132 16.4459 101.515 16.1518 101.945 15.944C102.375 15.7361 102.843 15.619 103.32 15.5999C105.64 15.5999 106 17.8799 106 19.46V25.9999H110V18.5799Z" fill="#0A66C2"/>
</svg>
