<svg width="32" height="32" viewBox="0 0 32 32" fill="none" xmlns="http://www.w3.org/2000/svg">
<path d="M25.8578 25.8577H21.7091V19.3605C21.7091 17.8112 21.6814 15.8168 19.5513 15.8168C17.3905 15.8168 17.0599 17.5048 17.0599 19.2477V25.8573H12.9113V12.4965H16.894V14.3224H16.9498C17.3484 13.6409 17.9243 13.0802 18.6163 12.7002C19.3083 12.3201 20.0904 12.1348 20.8794 12.1641C25.0843 12.1641 25.8596 14.9299 25.8596 18.5282L25.8578 25.8577ZM8.23005 10.6702C6.90038 10.6704 5.82227 9.59266 5.82205 8.26299C5.82183 6.93332 6.8995 5.85521 8.22918 5.85499C9.55885 5.85466 10.637 6.93244 10.6372 8.26211C10.6373 8.90065 10.3838 9.51308 9.93233 9.96468C9.48091 10.4163 8.86859 10.6701 8.23005 10.6702ZM10.3045 25.8578H6.15138V12.4965H10.3043L10.3045 25.8578ZM27.9261 2.00204H4.06669C2.93903 1.98935 2.01427 2.89268 2.00049 4.02033V27.9792C2.01383 29.1075 2.93849 30.0117 4.06658 29.9998H27.9261C29.0566 30.0138 29.9848 29.1096 30.0005 27.9792V4.01847C29.9844 2.88863 29.056 1.98541 27.9261 2.00018" fill="#0A66C2"/>
</svg>
