<svg width="50" height="32" viewBox="0 0 50 32" fill="none" xmlns="http://www.w3.org/2000/svg">
<path d="M27.9202 4.09019L27.1802 7.04941C28.2285 4.95936 29.8933 3.38664 31.805 2C30.4073 3.63485 29.133 5.26985 28.3519 6.90469C29.6674 5.0421 31.4351 4.00746 33.4288 3.32452C30.7772 5.70443 28.6725 8.25819 27.0692 10.8243L25.7949 10.2657C26.0208 8.21683 26.7896 6.11841 27.9202 4.09019Z" fill="#ABCD03"/>
<path d="M24.5169 9.72144L26.9424 10.7346C26.9424 11.3555 26.8922 13.2495 27.2779 13.8082C31.3118 19.0388 30.6331 29.5238 26.4607 29.7927C20.107 29.7927 17.6838 25.447 17.6838 21.4529C17.6838 17.8106 22.0207 15.3893 24.6108 13.2371C25.2685 12.6577 25.1542 11.377 24.5169 9.72144Z" fill="#FFFCDB"/>
<path d="M26.9447 10.6982L27.8188 11.1471C27.7367 11.7264 27.8599 13.0097 28.4353 13.3407C30.9842 14.9341 33.389 16.6725 34.3346 18.4108C37.7055 24.5365 31.9708 30.2068 27.0171 29.6687C29.7098 27.6612 30.4909 23.5431 29.4837 19.0523C29.0727 17.2932 28.4353 15.6997 27.3047 13.8992C26.8149 13.0154 26.9859 11.9194 26.9447 10.6982Z" fill="#7D4698"/>
<path d="M26.5219 10.5469L28.3306 10.7953C27.7962 12.575 29.379 13.8166 29.8928 14.1065C31.0439 14.7481 32.1539 15.4103 33.0378 16.2173C34.7028 17.7487 35.6482 19.901 35.6482 22.1774C35.6482 24.4331 34.6204 26.606 32.8939 28.0546C31.2701 29.4205 29.0297 29.9999 26.8509 29.9999C25.4942 29.9999 24.2815 29.938 22.9661 29.5032C19.9652 28.4892 17.7246 25.9024 17.5397 22.7981C17.3752 20.3768 17.9096 18.5349 19.7802 16.6104C20.7461 15.5963 22.6989 14.4374 24.0351 13.5061C24.6929 13.0508 25.3917 11.7676 24.0556 9.34651L24.3229 9.13953L26.303 10.4748L24.6312 9.7811C24.7751 9.98809 25.1657 10.9194 25.248 11.1884C25.433 11.954 25.3508 12.6992 25.1863 13.0302C24.3436 14.5617 22.9048 14.9755 21.8566 15.8447C20.0066 17.376 17.9922 18.5971 18.2183 22.7981C18.3211 24.8675 19.9244 27.3923 22.3291 28.5719C23.6858 29.2343 25.248 29.5032 26.8307 29.586C28.2489 29.6481 30.9622 28.7995 32.4421 27.5579C34.0248 26.2335 34.9087 24.2261 34.9087 22.1774C34.9087 20.1078 34.0865 18.1419 32.5449 16.7552C31.6609 15.9482 30.2017 14.9755 29.2973 14.458C28.3929 13.9407 27.2623 12.4921 27.6323 11.1056L26.5219 10.5469Z" fill="black"/>
<path d="M25.9669 13.6099C25.782 14.5619 25.5764 16.2795 24.7542 16.9211C24.4047 17.1693 24.0552 17.4178 23.6853 17.666C22.2054 18.6802 20.7254 19.6319 20.0472 22.074C19.9033 22.5914 20.0267 23.1501 20.1501 23.6675C20.5201 25.1574 21.5683 26.7717 22.3905 27.7237C22.3905 27.7651 22.555 27.8686 22.555 27.91C23.2333 28.7172 23.4389 28.9448 26.0082 29.5241L25.9465 29.8139C24.4049 29.4001 23.1306 29.0276 22.3288 28.0962C22.3288 28.0756 22.1849 27.9306 22.1849 27.9306C21.3217 26.9372 20.2732 25.2817 19.8828 23.7296C19.739 23.1086 19.6157 22.6328 19.78 21.9911C20.4788 19.4665 22 18.473 23.5416 17.4176C23.891 17.19 24.3021 16.9829 24.6309 16.7139C25.268 16.2381 25.6173 14.7894 25.9669 13.6099Z" fill="black"/>
<path d="M26.6259 17.5417C26.6465 18.6179 26.5421 19.1578 26.8093 19.9236C26.9736 20.3788 27.529 20.9997 27.6935 21.5999C27.9196 22.4071 28.1658 23.2969 28.145 23.8349C28.145 24.4559 28.1064 25.6143 27.8393 26.8561C27.6356 27.8821 27.1661 28.7625 26.3766 29.2616C25.5679 29.0939 24.6184 28.8077 24.0579 28.324C22.9686 27.3721 22.0037 25.7803 21.8803 24.3937C21.7777 23.2556 22.8244 21.577 24.2837 20.7286C25.5169 20.0043 25.8037 19.1788 26.0709 17.8543C25.7009 19.0132 25.3535 19.9847 24.1614 20.6055C22.4348 21.516 21.5489 23.0445 21.631 24.4931C21.7543 26.3556 22.4951 27.6176 23.9544 28.6318C24.571 29.0664 25.723 29.5256 26.4424 29.6499V29.5552C26.988 29.4523 27.6944 28.5501 28.0462 27.3296C28.3546 26.2328 28.4762 24.829 28.4554 23.9391C28.4348 23.4218 28.2081 22.3014 27.797 21.2874C27.5709 20.7287 27.2236 20.17 26.9974 19.7768C26.751 19.3833 26.7493 18.535 26.6259 17.5417Z" fill="black"/>
<path d="M26.5005 21.5997C26.521 22.324 26.81 23.2521 26.9332 24.2041C27.0362 24.9078 26.9915 25.6146 26.9708 26.2356C26.9505 26.9543 26.7127 28.2422 26.3876 28.8684C26.0811 28.7269 25.9613 28.5655 25.7621 28.3049C25.5156 27.9531 25.3481 27.6012 25.1836 27.1874C25.0604 26.8769 24.9162 26.5216 24.8544 26.1077C24.7722 25.4869 24.7952 24.5157 25.494 23.5223C26.0285 22.7358 26.1509 22.676 26.3359 21.7655C26.0891 22.5725 25.9051 22.6548 25.3294 23.3376C24.6923 24.0827 24.5863 25.1801 24.5863 26.0698C24.5863 26.4425 24.7339 26.8559 24.8779 27.2489C25.0423 27.6629 25.1833 28.0751 25.4094 28.3854C25.7492 28.8886 26.1842 29.1747 26.397 29.2283C26.3984 29.2286 26.4004 29.228 26.4017 29.2283C26.4063 29.2293 26.4115 29.2321 26.4158 29.233V29.2093C26.8147 28.7617 27.0546 28.3169 27.1354 27.8692C27.2382 27.3312 27.2619 26.7919 27.3236 26.1503C27.3851 25.6123 27.3405 24.8875 27.1966 24.1426C26.9911 23.2113 26.6444 22.2618 26.5005 21.5997Z" fill="black"/>
<path d="M26.5643 12.7407C26.5849 13.8167 26.6671 15.8243 26.9549 16.6106C27.0371 16.8795 27.7976 18.0592 28.3318 19.487C28.7019 20.4805 28.7841 21.391 28.8458 21.66C29.0925 22.8396 28.7841 24.8263 28.3729 26.7095C28.1675 27.7236 27.4686 28.9859 26.667 29.4827L26.5026 29.7724C26.9549 29.7516 28.0647 28.6549 28.4553 27.289C29.1131 24.9712 29.3802 23.895 29.072 21.3289C29.0309 21.0804 28.9281 20.2321 28.5376 19.3214C27.9621 17.9348 27.1399 16.6104 27.0372 16.3413C26.8521 15.9069 26.6054 14.0237 26.5643 12.7407Z" fill="black"/>
<path d="M26.9492 11.2687C26.8882 12.3746 26.8719 12.7819 27.0773 13.5889C27.3034 14.4788 28.4546 15.7618 28.9273 17.2312C29.8317 20.0457 29.6056 23.7294 28.9478 26.6059C28.7012 27.6197 27.5294 29.0893 26.3579 29.5651L27.2212 29.7721C27.6939 29.7513 28.9065 28.6132 29.3794 27.3094C30.1398 25.2606 30.2838 22.8187 29.9754 20.2526C29.9548 20.0042 29.5436 17.7899 29.1532 16.8586C28.5982 15.4721 27.6115 14.2303 27.5088 13.9615C27.324 13.5062 26.9179 12.5608 26.9492 11.2687Z" fill="black"/>
<path d="M26.3782 10.4905H26.2953V29.586H26.3782V10.4905Z" fill="black"/>
<path d="M3.15105 4.71094H19.6565C20.2729 4.71094 20.8074 5.22826 20.8074 5.86983V10.7744C20.8074 11.4159 20.2729 11.9334 19.6565 11.9334H16.265C15.5044 11.9334 15.1755 12.3679 15.1755 12.8646V28.9236C15.1755 29.4617 14.7439 29.8755 14.2301 29.8755H8.61869C8.10472 29.8755 7.69369 29.4617 7.69369 28.9236V12.7199C7.69369 12.2231 7.24143 11.9336 6.89211 11.9336H3.15105C2.51382 11.9336 2 11.4161 2 10.7745V5.86983C1.99985 5.22826 2.51367 4.71094 3.15105 4.71094Z" fill="#7D4698"/>
<path d="M45.4976 11.2093H46.9569C47.4913 11.2093 47.9229 11.6439 47.9229 12.1612V17.4177C47.9229 18.1007 47.964 18.3696 47.1418 18.3696C45.5181 18.3696 44.7782 19.2388 44.7782 20.1907V29.0687C44.7782 29.4826 44.3876 29.8343 43.9149 29.8343H38.6733C38.2006 29.8343 37.81 29.4826 37.81 29.0687V18.9489C37.8043 18.771 37.8078 18.5083 37.8306 18.3696C38.1184 14.6238 41.0375 11.6269 44.7369 11.2507C44.861 11.2381 45.2997 11.2093 45.4976 11.2093Z" fill="#7D4698"/>
</svg>
