<svg width="32" height="32" viewBox="0 0 32 32" fill="none" xmlns="http://www.w3.org/2000/svg">
<path d="M15.5161 29.4531C22.946 29.4531 28.9692 23.43 28.9692 16C28.9692 8.57004 22.946 2.54688 15.5161 2.54688C8.0861 2.54688 2.06293 8.57004 2.06293 16C2.06293 23.43 8.0861 29.4531 15.5161 29.4531Z" fill="#F2E4FF"/>
<path d="M15.5448 27.4538V25.7566C20.9206 25.741 25.2734 21.3794 25.2734 15.9996C25.2734 10.6203 20.9206 6.25863 15.5448 6.24298V4.54592C21.8579 4.56178 26.9701 9.68305 26.9701 15.9997C26.9701 22.3166 21.8579 27.4381 15.5448 27.4538ZM15.5448 21.5136C18.5769 21.4977 21.0312 19.036 21.0312 15.9996C21.0312 12.9635 18.5769 10.5019 15.5448 10.486V8.78923C19.5146 8.80477 22.7283 12.0263 22.7283 15.9996C22.7283 19.9733 19.5146 23.1948 15.5448 23.2103V21.5136ZM15.5448 13.0316C17.1712 13.047 18.4857 14.3692 18.4857 15.9996C18.4857 17.6303 17.1712 18.9527 15.5448 18.9681V13.0316ZM1.51605 15.9995C1.51605 23.7319 7.78368 30 15.5161 30C23.248 30 29.5161 23.7319 29.5161 15.9996C29.5161 8.26762 23.248 2 15.5161 2C7.78368 2 1.51605 8.26752 1.51605 15.9995Z" fill="url(#paint0_linear_128_2686)"/>
<path d="M15.5161 3.58594C8.53913 3.58594 2.88324 9.21733 2.88324 16.1641C2.88324 23.1108 8.53913 28.7422 15.5161 28.7422V3.58594Z" fill="url(#paint1_linear_128_2686)"/>
<defs>
<linearGradient id="paint0_linear_128_2686" x1="1401.52" y1="2802" x2="1401.52" y2="2" gradientUnits="userSpaceOnUse">
<stop stop-color="#420C5D"/>
<stop offset="1" stop-color="#951AD1"/>
</linearGradient>
<linearGradient id="paint1_linear_128_2686" x1="-616.125" y1="2519.21" x2="-616.125" y2="3.58594" gradientUnits="userSpaceOnUse">
<stop stop-color="#420C5D"/>
<stop offset="1" stop-color="#951AD1"/>
</linearGradient>
</defs>
</svg>
