<svg width="156" height="32" viewBox="0 0 156 32" fill="none" xmlns="http://www.w3.org/2000/svg">
<path d="M43.0254 10.0362C43.2259 10.0364 43.4182 10.1164 43.5601 10.2586C43.7019 10.4009 43.7816 10.5938 43.7818 10.795V25.2911C43.7818 25.6997 43.4134 26.0306 43.0254 26.0306H41.066C40.6979 26.0306 40.3291 25.7387 40.3291 25.3302V23.9877C39.34 25.4469 37.6329 26.4588 35.1502 26.4588C30.999 26.4588 28.4384 23.6955 28.4384 19.59V10.756C28.4384 10.3474 28.8072 10.0165 29.1952 10.0165H31.1542C31.2511 10.0164 31.347 10.0355 31.4365 10.0726C31.526 10.1097 31.6073 10.1642 31.6757 10.2329C31.7442 10.3016 31.7985 10.3831 31.8355 10.4729C31.8725 10.5626 31.8915 10.6589 31.8914 10.756V19.026C31.8914 21.6913 33.2879 23.462 36.0423 23.462C38.7385 23.462 40.3291 21.6332 40.3291 19.0647V10.756C40.3291 10.3474 40.6976 10.0165 41.0663 10.0165H43.0254M14.1235 2C7.41172 2 2 7.23418 2 14.2197C2 21.2244 7.41202 26.4392 14.1235 26.4392C15.2377 26.4406 16.347 26.29 17.4208 25.9916L18.7399 29.3969C18.8758 29.7665 19.1472 30 19.6323 30H21.727C22.2317 30 22.5998 29.6694 22.3671 29.0271L20.66 24.5714C24.0162 22.4501 26.2469 18.6948 26.2469 14.2001C26.2466 7.23448 20.8346 2 14.1235 2ZM19.3995 21.3217L17.867 17.333C17.7314 17.0021 17.4597 16.6909 16.8779 16.6909H14.8799C14.3755 16.6909 13.9875 17.0215 14.2202 17.6638L16.2375 22.898C15.5781 23.0731 14.8603 23.1508 14.1235 23.1508C9.21583 23.1508 5.72429 19.2788 5.72429 14.2197C5.72429 9.16066 9.21553 5.28863 14.1235 5.28863C19.0308 5.28863 22.5223 9.16066 22.5223 14.2197C22.5223 17.1772 21.3396 19.7067 19.3995 21.3217ZM153.94 25.2137C154.114 25.6223 153.901 26.0115 153.416 26.0115H151.224C150.817 26.0115 150.487 25.8168 150.351 25.4082L146.297 14.4729L142.185 25.4082C142.01 25.8364 141.719 26.0115 141.312 26.0115H139.353C138.945 26.0115 138.654 25.8364 138.48 25.4082L134.329 14.4142L130.236 25.4079C130.061 25.8165 129.77 26.0112 129.363 26.0112H127.307C126.899 26.0112 126.609 25.8165 126.434 25.4079L122.38 14.4142L118.19 25.4079C118.015 25.8361 117.724 26.0112 117.317 26.0112H115.358C114.95 26.0112 114.659 25.8361 114.485 25.4079L110.392 14.4142L106.299 25.4079C106.163 25.8165 105.834 26.0112 105.426 26.0112H103.293C102.788 26.0112 102.594 25.6026 102.769 25.2131L108.317 10.6589C108.491 10.2307 108.782 10.0165 109.189 10.0165H111.575C111.983 10.0165 112.274 10.2113 112.448 10.6589L116.444 21.2827L120.401 10.6589C120.576 10.2307 120.867 10.0165 121.274 10.0165H123.621C124.028 10.0165 124.319 10.2113 124.494 10.6589L128.412 21.2827L132.33 10.6589C132.505 10.2307 132.796 10.0165 133.203 10.0165H135.57C135.977 10.0165 136.268 10.2113 136.442 10.6589L140.419 21.2827L144.299 10.6589C144.473 10.2307 144.764 10.0165 145.171 10.0165H147.557C147.965 10.0165 148.256 10.2113 148.43 10.6589L153.94 25.2137ZM62.0155 10.0365H60.0564C59.8559 10.0367 59.6636 10.1167 59.5217 10.2589C59.3799 10.4012 59.3002 10.5941 59.3 10.7953V12.1184C58.3108 10.6202 56.371 9.54989 54.0821 9.54989C49.7567 9.54989 46.0517 12.9746 46.0517 17.9753C46.0517 23.0344 49.776 26.4395 54.0628 26.4395C56.3903 26.4395 58.2719 25.3695 59.3193 23.8712V25.2721C59.3193 25.6807 59.688 26.0115 60.076 26.0115H62.0351C62.1319 26.0116 62.2278 25.9926 62.3173 25.9555C62.4068 25.9184 62.4881 25.8639 62.5566 25.7952C62.6251 25.7265 62.6794 25.645 62.7164 25.5552C62.7534 25.4654 62.7724 25.3692 62.7722 25.2721V10.795C62.7527 10.3671 62.4231 10.0365 62.0155 10.0365ZM54.4503 23.2482C51.5991 23.2482 49.5622 20.9134 49.5622 18.014C49.5622 15.0759 51.5795 12.8186 54.4503 12.8186C57.2824 12.8186 59.3386 15.0759 59.3386 18.014C59.319 20.9325 57.2631 23.2482 54.4503 23.2482ZM85.389 23.7539C85.8159 24.2795 85.4472 24.6881 85.2145 24.8632C83.8568 25.8945 82.0527 26.4588 80.0937 26.4588C75.1475 26.4588 71.8498 22.82 71.8498 18.0334C71.8498 13.2468 75.1475 9.56925 80.0937 9.56925C82.053 9.56925 83.8373 10.1336 85.2148 11.1646C85.4472 11.34 85.777 11.6902 85.389 12.2739L84.458 13.5774C84.0896 14.0836 83.6627 13.9472 83.2943 13.7138C82.4215 13.1884 81.3934 12.7408 80.21 12.7408C77.32 12.7408 75.3995 15.0756 75.3995 18.0334C75.3995 20.9912 77.32 23.3066 80.21 23.3066C81.4127 23.3066 82.3633 22.8396 83.2361 22.3337C83.6045 22.1389 83.9925 21.9638 84.3998 22.5088L85.389 23.7539ZM94.6224 9.58861C89.9668 9.58861 86.2621 13.2468 86.2621 18.014C86.2621 22.82 89.9864 26.4392 94.6221 26.4392C99.2777 26.4392 102.983 22.8006 102.983 18.014C103.002 13.2662 99.2777 9.58861 94.6224 9.58861ZM94.6224 23.2286C91.7709 23.2286 89.7341 20.9325 89.7341 18.0334C89.7341 15.0953 91.7513 12.8382 94.6224 12.8382C97.4736 12.8382 99.5104 15.0953 99.5104 18.0334C99.5104 20.9325 97.4932 23.2286 94.6224 23.2286ZM68.8819 2.42794C69.3088 2.42794 69.6191 2.79781 69.6191 3.18704V25.2524C69.6191 25.661 69.3281 26.0112 68.8819 26.0112H66.9228C66.5155 26.0112 66.1664 25.6414 66.1664 25.2524V3.2061C66.1664 2.79752 66.5348 2.4473 66.9228 2.4473H68.8822" fill="#3253DC"/>
</svg>
