<svg width="32" height="32" viewBox="0 0 32 32" fill="none" xmlns="http://www.w3.org/2000/svg">
<path d="M16.0004 2C9.35947 2 4.00043 7.236 4.00043 14.2185C4.00043 21.2229 9.35947 26.4405 16.0004 26.4405C17.1036 26.4417 18.2018 26.2898 19.2644 25.989L20.5687 29.398C20.7034 29.7681 20.9727 30 21.4536 30H23.5262C24.026 30 24.3895 29.6675 24.1607 29.0296L22.4696 24.5732C25.7922 22.4487 28.0004 18.6941 28.0004 14.2001C28.0004 7.236 22.6414 2 16.0004 2ZM21.2205 21.3226L19.7055 17.3317C19.5708 17.0027 19.3006 16.6939 18.7248 16.6939H16.7506C16.2525 16.6939 15.8658 17.022 16.0945 17.6643L18.0903 22.9002C17.4069 23.0727 16.7047 23.1571 16.0004 23.1514C11.1447 23.1514 7.68649 19.2778 7.68649 14.2194C7.68649 9.161 11.1438 5.29087 16.0004 5.29087C20.8562 5.29087 24.3144 9.161 24.3144 14.2194C24.3144 17.1769 23.1403 19.7056 21.2205 21.3226Z" fill="#3253DC"/>
</svg>
