<svg width="76" height="32" viewBox="0 0 76 32" fill="none" xmlns="http://www.w3.org/2000/svg">
<g clip-path="url(#clip0_103_3911)">
<path d="M7.21175 2.39044H2V7.61488H7.21175V2.39044Z" fill="#04C7FD"/>
<path d="M7.08207 29.6096V10.7942H2.14853V29.6096H7.08207ZM39.8734 29.7955V25.1846C39.1501 25.1846 38.538 25.1474 38.0929 25.073C37.5736 24.9987 37.1841 24.8127 36.9244 24.5525C36.6648 24.2922 36.4978 23.9203 36.4051 23.4369C36.3309 22.9721 36.2938 22.3586 36.2938 21.6149V15.0332H39.8734V10.7942H36.2938V3.4502H31.3417V21.6521C31.3417 23.1952 31.4716 24.4967 31.7312 25.5378C31.9909 26.5604 32.436 27.3971 33.0481 28.0292C33.6601 28.6614 34.4762 29.1076 35.4592 29.3865C36.4607 29.6653 37.7219 29.7955 39.2243 29.7955H39.8734ZM68.2134 29.6096V2H63.2614V29.6096H68.2134ZM26.5751 12.6348C25.2026 11.1474 23.2737 10.4037 20.8255 10.4037C19.6385 10.4037 18.5627 10.6454 17.5798 11.1288C16.6153 11.6122 15.7807 12.2815 15.1315 13.1368L14.8533 13.49V13.174V10.7942H9.97542V29.6096H14.8904V19.5883V20.2762C14.8904 20.1647 14.8904 20.0531 14.8904 19.9416C14.9461 18.1753 15.3726 16.8738 16.1887 16.0372C17.0604 15.1448 18.1176 14.6985 19.3232 14.6985C20.7513 14.6985 21.8456 15.1448 22.5689 16C23.2737 16.8552 23.6447 18.0637 23.6447 19.6069V19.6441V29.591H28.6338V18.919C28.6524 16.2417 27.9476 14.1222 26.5751 12.6348ZM60.7019 20.1647C60.7019 18.8074 60.4607 17.5432 59.9971 16.3533C59.5148 15.1819 58.8471 14.1408 58.0125 13.2483C57.1594 12.3559 56.1393 11.668 54.9522 11.166C53.7652 10.664 52.4484 10.4223 51.0202 10.4223C49.6663 10.4223 48.3866 10.6826 47.1995 11.1846C46.0125 11.7052 44.9739 12.3931 44.1022 13.2669C43.2304 14.1408 42.5257 15.1819 42.0249 16.3718C41.5056 17.5618 41.2645 18.8446 41.2645 20.2019C41.2645 21.5591 41.5056 22.842 41.9878 24.0319C42.47 25.2218 43.1563 26.2629 44.0094 27.1368C44.8626 28.0106 45.9198 28.7171 47.1439 29.2191C48.368 29.7397 49.722 30 51.1686 30C55.3603 30 57.9569 28.085 59.5148 26.3001L55.9538 23.5857C55.2119 24.4781 53.4314 25.6866 51.2057 25.6866C49.8147 25.6866 48.6648 25.3705 47.793 24.7198C46.9213 24.0876 46.3278 23.1952 46.0125 22.0983L45.9569 21.9309H60.7019V20.1647ZM45.994 18.4356C45.994 17.0598 47.5705 14.6614 50.9646 14.6428C54.3587 14.6428 55.9538 17.0412 55.9538 18.417L45.994 18.4356Z" fill="#0068B5"/>
<path d="M73.8519 27.1554C73.7592 26.9323 73.6293 26.7464 73.4624 26.579C73.2955 26.4117 73.11 26.2816 72.8875 26.1886C72.6649 26.0956 72.4238 26.0399 72.1827 26.0399C71.923 26.0399 71.7004 26.0956 71.4779 26.1886C71.2553 26.2816 71.0698 26.4117 70.9029 26.579C70.736 26.7464 70.6062 26.9323 70.5134 27.1554C70.4207 27.3785 70.3651 27.6202 70.3651 27.8619C70.3651 28.1222 70.4207 28.3453 70.5134 28.5684C70.6062 28.7915 70.736 28.9774 70.9029 29.1448C71.0698 29.3121 71.2553 29.4422 71.4779 29.5352C71.7004 29.6282 71.9416 29.6839 72.1827 29.6839C72.4423 29.6839 72.6649 29.6282 72.8875 29.5352C73.11 29.4422 73.2955 29.3121 73.4624 29.1448C73.6293 28.9774 73.7592 28.7915 73.8519 28.5684C73.9446 28.3453 74.0003 28.1036 74.0003 27.8619C74.0003 27.6202 73.9446 27.3785 73.8519 27.1554ZM73.5552 28.4569C73.481 28.6428 73.3697 28.8101 73.2399 28.9403C73.11 29.0704 72.9431 29.182 72.7576 29.2563C72.5722 29.3307 72.3867 29.3679 72.1641 29.3679C71.9601 29.3679 71.7561 29.3307 71.5706 29.2563C71.3851 29.182 71.2182 29.0704 71.0884 28.9403C70.9586 28.8101 70.8473 28.6428 70.7731 28.4569C70.6989 28.2709 70.6618 28.085 70.6618 27.8619C70.6618 27.6574 70.6989 27.4529 70.7731 27.2669C70.8473 27.081 70.9586 26.9137 71.0884 26.7835C71.2182 26.6534 71.3851 26.5418 71.5706 26.4675C71.7561 26.3931 71.9416 26.3559 72.1641 26.3559C72.3681 26.3559 72.5722 26.3931 72.7576 26.4675C72.9431 26.5418 73.11 26.6534 73.2399 26.7835C73.3697 26.9137 73.481 27.081 73.5552 27.2669C73.6293 27.4529 73.6664 27.6388 73.6664 27.8619C73.685 28.085 73.6293 28.2709 73.5552 28.4569ZM72.5165 28.0106C72.6649 27.992 72.7762 27.9363 72.8689 27.8433C72.9617 27.7503 73.0173 27.6202 73.0173 27.4343C73.0173 27.2298 72.9616 27.081 72.8318 26.9695C72.7205 26.8579 72.5165 26.8021 72.2754 26.8021H71.4593V28.9031H71.8488V28.0478H72.127L72.6463 28.9031H73.0544L72.5165 28.0106ZM72.3125 27.7132C72.2569 27.7132 72.2012 27.7132 72.127 27.7132H71.8488V27.1182H72.127C72.1827 27.1182 72.2383 27.1182 72.3125 27.1182C72.3681 27.1182 72.4238 27.1368 72.4794 27.1554C72.5351 27.174 72.5722 27.2112 72.5907 27.2484C72.6093 27.2855 72.6278 27.3413 72.6278 27.4157C72.6278 27.4901 72.6093 27.5458 72.5907 27.583C72.5536 27.6202 72.5165 27.6574 72.4794 27.676C72.4238 27.6946 72.3681 27.7132 72.3125 27.7132Z" fill="#0068B5"/>
</g>
<defs>
<clipPath id="clip0_103_3911">
<rect width="72" height="28" fill="white" transform="translate(2 2)"/>
</clipPath>
</defs>
</svg>
