<svg width="32" height="32" viewBox="0 0 32 32" fill="none" xmlns="http://www.w3.org/2000/svg">
<path d="M10.2495 14.9177V19.4888H8.81026V13.7431L11.7818 13.7461C13.0439 13.7461 13.4738 14.6459 13.4738 15.4632V19.4888H12.0371V15.4707C12.0371 15.1284 11.8618 14.9177 11.439 14.9177H10.2495ZM18.8673 16.0751H21.0817C21.1162 14.3854 18.865 14.4958 18.8674 16.0751M22.5185 17.0654H18.8674C18.8238 18.4303 20.537 18.8059 21.4615 17.8097L22.3505 18.6678C21.7812 19.2359 21.184 19.5809 20.1316 19.5809C18.7538 19.5809 17.4352 18.8214 17.4352 16.6078C17.4352 14.7165 18.5864 13.6458 20.0992 13.6458C21.7464 13.6767 22.6486 14.9703 22.5185 17.0654ZM16.2201 19.4816C15.0476 19.4816 14.5501 18.6564 14.5501 17.8414V12.1777H15.9872V13.7431H17.0705V14.9177H15.9872V17.7503C15.9872 18.0842 16.1431 18.2694 16.4859 18.2694H17.0705V19.4816H16.2201ZM7.52959 12.9491H6.08037V11.5574H7.52959V12.9491ZM7.53325 19.5493C6.44798 19.4438 6.07884 18.7783 6.07884 18.0104L6.08043 13.7431H7.53325V19.5493ZM24.8057 19.4265C23.7227 19.3209 23.3553 18.6564 23.3553 17.8895V11.3594H24.8058L24.8057 19.4265ZM29.8762 12.3031C28.5617 5.82441 16.122 5.41423 8.1037 10.3491V10.8939C16.1138 6.73222 27.4741 6.75676 28.5091 12.7239C28.8554 14.6971 27.7556 16.7542 25.7914 17.9367V19.4837C28.1556 18.6093 30.5802 15.7739 29.8762 12.3031ZM15.3008 23.6384C9.76696 24.1555 4.00023 23.3435 3.19337 18.9718C2.79842 16.8168 3.76956 14.5323 5.05783 13.1132V12.3544C2.73865 14.4105 1.47997 17.0133 2.20457 20.0888C3.12939 24.0326 8.07865 26.2676 15.6328 25.5253C18.6217 25.2304 22.5336 24.2589 25.2533 22.7498V20.6059C22.7855 22.0915 18.7019 23.3199 15.3007 23.6383" fill="#00C7FD"/>
</svg>
