<svg width="85" height="32" viewBox="0 0 85 32" fill="none" xmlns="http://www.w3.org/2000/svg">
<path d="M16.7571 2C8.60633 2 2 8.26656 2 16.0013C2 23.509 8.23 29.6356 16.0555 29.983C16.2891 29.9935 16.523 29.9992 16.7571 30C20.5368 30 23.9818 28.6529 26.5922 26.4371C24.8237 27.5575 22.7734 28.1527 20.6799 28.1536C17.1637 28.1536 14.0168 26.4989 11.9013 23.8885C10.2686 22.0617 9.21212 19.3599 9.13837 16.3316V15.6691C9.21212 12.6376 10.2686 9.93642 11.8988 8.10959C14.0162 5.50173 17.1637 3.84952 20.6799 3.84952C22.8421 3.84952 24.8637 4.47233 26.5947 5.56099C23.9944 3.35657 20.5715 2.0145 16.8138 2H16.7571Z" fill="url(#paint0_linear_128_2429)"/>
<path d="M11.9087 8.10935C13.2627 6.59267 15.0114 5.67673 16.9221 5.67673C21.2193 5.67673 24.7009 10.2986 24.7009 16.0016C24.7009 21.6996 21.2168 26.3215 16.9221 26.3215C15.0114 26.3215 13.2627 25.4081 11.9087 23.8914C14.0236 26.5018 17.1711 28.154 20.6873 28.154C22.7809 28.1535 24.8312 27.5582 26.5996 26.4375C29.621 23.8744 31.5247 20.1508 31.5247 16.0016C31.5247 11.8525 29.621 8.127 26.6021 5.56327C24.8332 4.44206 22.7816 3.84756 20.6873 3.84928C17.1736 3.84928 14.0242 5.50149 11.9087 8.10935Z" fill="url(#paint1_linear_128_2429)"/>
<path d="M54.3706 21.7998C52.5091 21.7998 50.995 20.2188 50.995 18.2785C50.995 16.3382 52.5091 14.7572 54.3706 14.7572C56.2321 14.7572 57.7444 16.3407 57.7444 18.2785C57.7444 20.2163 56.2302 21.7998 54.3706 21.7998ZM54.3706 13.7846C53.7592 13.7814 53.1548 13.9151 52.6018 14.1759C52.0488 14.4367 51.5611 14.818 51.1746 15.2918V13.9894H50.1358V25.3337H51.1746V21.2633C51.5601 21.7386 52.0474 22.1212 52.6006 22.3828C53.1538 22.6445 53.7587 22.7785 54.3706 22.775C56.7988 22.775 58.7731 20.7584 58.7731 18.2785C58.7731 15.7986 56.7982 13.7846 54.3706 13.7846ZM42.7799 22.0708C39.8499 22.0708 37.4658 19.6798 37.4658 16.7423C37.4658 13.8047 39.8493 11.4137 42.7799 11.4137C45.7105 11.4137 48.094 13.8047 48.094 16.7423C48.094 19.6798 45.7105 22.0708 42.7799 22.0708ZM42.7799 10.4707C39.3028 10.4707 36.4736 13.2828 36.4736 16.7423C36.4736 20.2018 39.3028 23.0139 42.7799 23.0139C46.2571 23.0139 49.0862 20.1993 49.0862 16.7423C49.0862 13.2853 46.2571 10.4707 42.7799 10.4707ZM73.3361 13.8192C72.9832 13.8324 72.6372 13.9214 72.3218 14.0802C71.6568 14.4175 71.1966 14.9299 70.9009 15.5849L70.8789 15.6341L70.8688 14.0436H69.8274V22.5411H70.8713V18.0818C70.8713 17.454 70.9747 16.944 71.1915 16.4492C71.3907 15.989 71.6719 15.5799 72.0728 15.2546C72.2959 15.0643 72.5577 14.9247 72.84 14.8456C73.1223 14.7665 73.4185 14.7497 73.708 14.7963L74.0106 14.8556C74.0698 14.5725 74.2123 14.2126 74.2716 13.9295C73.9664 13.8494 73.6515 13.8127 73.3361 13.8192ZM64.1093 14.7698C65.9487 14.7698 67.234 15.9493 67.4509 17.7471H60.7803C61.0312 16.0653 62.4274 14.7698 64.1093 14.7698ZM64.1093 13.7972C61.6811 13.7972 59.7067 15.8163 59.7067 18.2936C59.7067 20.771 61.6817 22.7876 64.1093 22.7876C65.8478 22.7876 67.3526 21.7582 68.0687 20.2635L67.1723 19.7662C66.6352 20.9752 65.4658 21.8124 64.1093 21.8124C62.3512 21.8124 60.9057 20.4016 60.7506 18.6088H68.5024L68.515 18.2936C68.515 15.6442 66.702 13.7972 64.1093 13.7972ZM78.4528 21.7998C76.5913 21.7998 75.0772 20.2188 75.0772 18.2785C75.0772 16.3382 76.5913 14.7572 78.4528 14.7572C80.3143 14.7572 81.8285 16.3407 81.8285 18.2785C81.8285 20.2163 80.3143 21.7998 78.4528 21.7998ZM81.6488 13.9888V15.2912C81.2623 14.8174 80.7747 14.4361 80.2217 14.1753C79.6686 13.9145 79.0643 13.7808 78.4528 13.7839C76.0246 13.7839 74.0503 15.8005 74.0503 18.2779C74.0503 20.7552 76.0252 22.7743 78.4528 22.7743C79.0647 22.7774 79.6694 22.6432 80.2225 22.3816C80.7757 22.12 81.2631 21.7376 81.6488 21.2627V22.543H82.6883V13.9888H81.6488Z" fill="black"/>
<defs>
<linearGradient id="paint0_linear_128_2429" x1="14.2974" y1="2.45513" x2="14.2974" y2="29.5926" gradientUnits="userSpaceOnUse">
<stop stop-color="#FF1B2D"/>
<stop offset="0.614" stop-color="#FF1B2D"/>
<stop offset="1" stop-color="#A70014"/>
</linearGradient>
<linearGradient id="paint1_linear_128_2429" x1="21.7148" y1="4.05541" x2="21.7148" y2="28.0571" gradientUnits="userSpaceOnUse">
<stop stop-color="#9C0000"/>
<stop offset="0.7" stop-color="#FF4B4B"/>
</linearGradient>
</defs>
</svg>
