<svg width="32" height="32" viewBox="0 0 32 32" fill="none" xmlns="http://www.w3.org/2000/svg">
<path d="M10.9137 23.8859C9.36062 22.0594 8.36531 19.3578 8.29968 16.3281V15.6719C8.36531 12.6422 9.37156 9.94063 10.9137 8.11406C12.9262 5.51094 15.8794 4.34063 19.2153 4.34063C21.2716 4.34063 23.2075 4.48281 24.8481 5.57656C22.3872 3.35625 19.1387 2.01094 15.5731 2H15.5184C7.78562 2 1.51843 8.26719 1.51843 16C1.51843 23.5031 7.42468 29.6391 14.8512 29.9891C15.07 30 15.2997 30 15.5184 30C19.1059 30 22.3762 28.6547 24.8481 26.4344C23.2075 27.5281 21.3809 27.5719 19.3247 27.5719C15.9997 27.5828 12.9153 26.5 10.9137 23.8859Z" fill="url(#paint0_linear_128_2667)"/>
<path d="M10.911 8.11389C12.1907 6.59358 13.8532 5.68577 15.6688 5.68577C19.7485 5.68577 23.0516 10.3014 23.0516 16.0108C23.0516 21.7201 19.7485 26.3358 15.6688 26.3358C13.8532 26.3358 12.2016 25.417 10.911 23.9076C12.9235 26.5108 15.9094 28.1733 19.2344 28.1733C21.2798 28.1733 23.2048 27.5498 24.8454 26.4561C27.711 23.8748 29.5157 20.1451 29.5157 15.9998C29.5157 11.8545 27.711 8.12483 24.8454 5.56545C23.2048 4.4717 21.2907 3.84827 19.2344 3.84827C15.8985 3.84827 12.9126 5.49983 10.911 8.11389Z" fill="url(#paint1_linear_128_2667)"/>
<defs>
<linearGradient id="paint0_linear_128_2667" x1="1168.07" y1="47.64" x2="1168.07" y2="2761.26" gradientUnits="userSpaceOnUse">
<stop offset="0.3" stop-color="#FF1B2D"/>
<stop offset="0.4381" stop-color="#FA1A2C"/>
<stop offset="0.5939" stop-color="#ED1528"/>
<stop offset="0.7581" stop-color="#D60E21"/>
<stop offset="0.9272" stop-color="#B70519"/>
<stop offset="1" stop-color="#A70014"/>
</linearGradient>
<linearGradient id="paint1_linear_128_2667" x1="940.959" y1="24.5975" x2="940.959" y2="2424.65" gradientUnits="userSpaceOnUse">
<stop stop-color="#9C0000"/>
<stop offset="0.7" stop-color="#FF4B4B"/>
</linearGradient>
</defs>
</svg>
