<svg width="183" height="32" viewBox="0 0 183 32" fill="none" xmlns="http://www.w3.org/2000/svg">
<path d="M171.063 18.8567C170.38 19.1632 170.116 18.9662 170.116 17.784C170.116 15.3321 170.931 14.1499 172.187 14.1499C173.619 14.1499 174.456 15.7919 174.456 16.9521C174.456 17.193 174.324 17.3462 174.016 17.4994L171.063 18.8567ZM86.7926 18.5284C86.7926 16.8865 87.057 14.3908 88.9297 14.3908C91.3091 14.3908 91.9039 19.207 91.9039 21.046C91.9039 22.8849 91.5955 25.1617 89.7448 25.1617C87.4095 25.1617 86.7926 20.3454 86.7926 18.5284ZM120.721 18.1124C120.721 16.7551 120.986 13.8653 122.858 13.8653C125.238 13.8653 125.833 18.7692 125.833 20.6519C125.833 21.9873 125.524 24.8552 123.673 24.8552C121.338 24.8771 120.721 19.9732 120.721 18.1124ZM48.9203 10.5159C44.2055 10.5159 40.1958 14.2594 40.1958 19.8638C40.1958 24.8771 43.6548 28.336 48.2594 28.336C52.864 28.336 56.0806 24.899 56.0806 23.06C56.0806 22.4471 55.7501 21.856 55.0671 21.856C54.6926 21.856 54.318 22.053 53.7232 22.5346C52.7318 23.279 51.7183 23.7168 50.5727 23.7168C47.5323 23.7168 45.7037 20.6519 45.7037 17.5651C45.7037 14.6972 46.5189 13.3618 47.7967 13.3618C48.9423 13.3618 49.7355 14.4345 50.6167 17.3243C50.9252 18.3313 51.2557 18.7473 51.8064 18.7473C52.9521 18.7473 55.7721 16.5362 55.7721 14.9818C55.7721 14.1499 55.0892 13.2305 54.1198 12.3986C52.886 11.3696 51.1896 10.5159 48.9203 10.5159ZM122.748 28.3579C128.19 28.3579 131.847 24.5925 131.847 19.0757C131.847 13.8653 128.741 10.494 123.894 10.494C118.386 10.494 114.729 14.2594 114.729 19.82C114.729 25.0084 117.813 28.3579 122.748 28.3579ZM148.856 24.2203C148.04 24.2203 147.798 23.3446 147.798 22.5784V12.4424C147.798 11.0413 147.247 10.5159 146.476 10.5159C146.036 10.5159 145.529 10.6472 144.978 10.888L142.092 12.1359C140.902 12.6394 140.572 13.121 140.572 13.7559C140.572 14.1499 140.814 14.5659 141.453 14.9381C141.96 15.2664 142.158 15.6386 142.158 17.0835V21.0897C142.158 22.9068 140.836 23.3008 139.999 23.3008C138.809 23.3008 138.28 22.6003 138.28 20.8489L138.347 12.4424C138.347 11.0194 137.796 10.5159 137.025 10.5159C136.584 10.5159 136.077 10.6472 135.526 10.888L132.751 12.0921C131.561 12.5956 131.23 13.0772 131.23 13.7121C131.23 14.1062 131.473 14.5221 132.112 14.8943C132.618 15.2227 132.817 15.5948 132.817 17.0397C132.817 19.5354 132.618 21.9873 132.618 24.0452C132.618 26.5628 134.249 28.3579 136.65 28.3579C138.236 28.3579 139.69 27.5479 141.453 26.3001C141.695 26.1249 141.938 26.0374 142.136 26.0374C142.444 26.0374 142.621 26.2782 142.775 27.1101C142.951 27.9858 143.326 28.3579 143.965 28.3579C144.361 28.3579 144.912 28.2266 145.419 27.9858L148.371 26.6503C149.076 26.322 149.45 26.2125 149.803 26.2125C150.244 26.2125 150.442 26.4095 150.552 26.8474L150.662 27.3071C150.86 28.2922 151.367 28.6206 151.984 28.6206C152.909 28.6206 153.504 27.5041 154.077 27.5041C154.474 27.5041 154.782 27.7449 155.707 27.9858C156.545 28.2266 157.536 28.3579 158.483 28.3579C161.876 28.3579 164.344 26.6722 164.917 24.3955C165.027 24.0014 165.115 23.8919 165.247 23.8919C165.379 23.8919 165.489 23.9138 165.688 24.3298C166.899 26.716 169.455 28.3579 172.584 28.3579C177.629 28.3579 180.735 24.9646 180.735 22.8411C180.735 22.2062 180.361 21.7027 179.744 21.7027C179.413 21.7027 179.105 21.8341 178.466 22.3814C177.276 23.3227 175.932 23.87 174.566 23.87C172.187 23.87 171.085 22.25 171.085 21.6808C171.085 21.3743 171.218 21.2211 171.416 21.1116L179.347 17.6746C179.832 17.4775 180.273 17.1711 180.273 16.4705C180.273 15.9013 180.03 15.354 179.502 14.3251C178.224 11.8732 175.954 10.5596 173.245 10.5596C168.64 10.5596 165.093 14.5221 164.674 18.7692C164.608 19.4697 164.476 19.6011 164.3 19.6011C164.123 19.6011 164.035 19.4916 163.815 19.2946C162.669 18.2438 161.414 17.5213 158.902 16.6675C155.685 15.5948 155.046 15.0256 155.046 14.4127C155.046 13.7997 155.796 13.4056 156.831 13.4056C158.087 13.4056 159.409 13.9529 160.422 14.8943C161.788 16.1421 162.317 16.5362 162.934 16.5362C163.551 16.5362 163.947 16.0327 163.947 15.4635C163.947 15.157 163.881 14.8286 163.749 14.5221L162.559 11.5667C162.229 10.691 161.788 10.2094 161.127 10.2094C160.687 10.2094 160.378 10.3845 160.07 10.5377C159.805 10.7129 159.673 10.8005 159.365 10.8005C158.439 10.8005 157.844 10.5377 156.324 10.5377C152.293 10.5377 149.517 12.4643 149.517 15.3759C149.517 17.5651 151.103 19.2508 154.936 20.5862C158.77 21.9216 159.166 22.5346 159.166 23.1695C159.166 23.8481 158.55 24.3736 157.294 24.3736C155.333 24.3736 153.592 23.5636 152.381 21.6808C151.698 20.63 151.257 20.1703 150.596 20.1703C149.957 20.1703 149.517 20.7176 149.517 21.5495C149.517 22.0968 149.715 22.666 149.715 23.1914C149.737 23.87 149.428 24.2203 148.856 24.2203ZM63.8798 14.8943C64.3865 15.2227 64.5848 15.5948 64.5848 17.0397C64.5848 19.5354 64.3865 21.9873 64.3865 24.0452C64.3865 26.5628 66.0168 28.3579 68.4183 28.3579C70.0045 28.3579 71.4586 27.5479 73.2212 26.3001C73.4635 26.1249 73.6838 26.0374 73.9041 26.0374C74.2126 26.0374 74.3668 26.2782 74.543 27.1101C74.7193 27.9858 75.0938 28.3579 75.7328 28.3579C76.1293 28.3579 76.6801 28.2266 77.1868 27.9858L79.2798 27.0006C79.9849 26.6722 80.4695 26.5628 80.778 26.5628C81.2407 26.5628 81.4169 26.8693 81.4169 27.329C81.4169 28.0295 81.7914 28.336 82.2541 28.336C82.5185 28.336 82.8269 28.2266 83.3116 27.942L84.5674 27.1757C84.964 26.913 85.2063 26.8036 85.4487 26.8036C85.691 26.8036 85.8893 26.8693 86.1317 27.0663C87.2553 27.9858 88.445 28.336 89.855 28.336C94.3274 28.336 97.5661 24.2641 97.5661 18.813C97.5661 13.9748 95.2968 10.494 91.5735 10.494C90.4278 10.494 89.2381 10.8223 88.2467 11.5448C87.8501 11.8513 87.6298 11.9826 87.4315 11.9826C87.1671 11.9826 87.035 11.7856 87.035 11.4134V4.88959C87.035 3.83877 86.5943 3.31335 85.8232 3.31335C85.4927 3.31335 85.0081 3.42281 84.303 3.86066L80.7119 6.07176C79.8967 6.57528 79.7205 7.01312 79.7205 7.34151C79.7205 7.80124 80.0289 8.21719 80.7119 8.61125C81.2186 8.93963 81.4169 9.24612 81.4169 10.9975V22.7317C81.4169 23.9357 81.1085 24.2203 80.6017 24.2203C79.7866 24.2203 79.5442 23.3446 79.5442 22.5784V12.4424C79.5442 11.0413 78.9934 10.5159 78.2223 10.5159C77.7817 10.5159 77.275 10.6472 76.7242 10.888L73.838 12.1359C72.6483 12.6394 72.3179 13.121 72.3179 13.7559C72.3179 14.1499 72.5602 14.5659 73.1991 14.9381C73.7058 15.2664 73.9041 15.6386 73.9041 17.0835V21.0897C73.9041 22.9068 72.5822 23.3008 71.745 23.3008C70.5553 23.3008 70.0266 22.6003 70.0266 20.8489L70.0927 12.4424C70.0927 11.0194 69.5419 10.5159 68.7708 10.5159C68.3301 10.5159 67.8234 10.6472 67.2726 10.888L64.4966 12.0921C63.3069 12.5956 62.9765 13.0772 62.9765 13.7121C62.9985 14.1281 63.2408 14.5221 63.8798 14.8943ZM98.205 23.476C98.205 24.7895 98.0948 25.1179 97.4559 25.5338C96.7068 25.9936 96.4424 26.3438 96.4424 26.8474C96.4424 27.6136 97.1254 28.0295 98.3812 28.0295H103.669C104.925 28.0295 105.608 27.6355 105.608 26.8474C105.608 26.3438 105.343 26.0155 104.594 25.5338C103.955 25.1398 103.845 24.7895 103.845 23.476V17.8497C103.845 15.9232 104.462 15.2227 105.409 15.2227C106.731 15.2227 107.304 16.5581 107.855 19.404C108.251 21.5933 108.428 23.9138 108.428 24.3736C108.428 25.0522 108.384 25.2711 107.987 25.5119C107.238 25.9498 106.974 26.322 106.974 26.8255C106.974 27.6355 107.524 28.0076 108.736 28.0076H114.09C115.301 28.0076 115.874 27.6355 115.874 26.8255C115.874 26.322 115.566 25.9279 114.993 25.5119C114.552 25.2055 114.486 25.0084 113.98 21.3087C113.649 18.7254 113.341 16.6675 112.548 14.1499C111.776 11.6324 110.477 10.5159 108.516 10.5159C106.952 10.5159 105.916 11.1945 104.859 11.8513C104.616 12.0264 104.418 12.0921 104.242 12.0921C104.043 12.0921 103.845 11.9826 103.845 11.5229V4.88959C103.845 3.83877 103.404 3.31335 102.633 3.31335C102.303 3.31335 101.818 3.42281 101.113 3.86066L97.522 6.07176C96.7068 6.57528 96.5306 7.01312 96.5306 7.34151C96.5306 7.80124 96.839 8.21719 97.522 8.61125C98.0287 8.93963 98.227 9.24612 98.227 10.9975V23.476H98.205ZM56.8297 23.476C56.8297 24.7895 56.7195 25.1179 56.0806 25.5338C55.3315 25.9936 55.0671 26.3438 55.0671 26.8474C55.0671 27.6136 55.7501 28.0295 57.0059 28.0295H62.2935C63.5493 28.0295 64.2323 27.6355 64.2323 26.8474C64.2323 26.3438 63.9679 26.0155 63.2188 25.5338C62.5799 25.1398 62.4697 24.7895 62.4697 23.476V4.91148C62.4697 3.86066 62.0291 3.33525 61.258 3.33525C60.9275 3.33525 60.4428 3.44471 59.7378 3.88255L56.1246 6.07176C55.3095 6.57528 55.1332 7.01312 55.1332 7.34151C55.1332 7.80124 55.4417 8.21719 56.1246 8.61125C56.6314 8.93963 56.8297 9.24612 56.8297 10.9975V23.476Z" fill="#1F1F1A"/>
<path d="M10.5623 13.2306C11.025 14.7412 11.5758 16.1642 12.1927 17.5434C13.2282 19.9953 13.9332 21.3088 14.9026 22.907C16.0923 24.8335 17.3921 27.0227 19.5512 28.4457C21.1375 29.4746 23.0543 30 24.8829 30C27.4826 30 29.7078 28.8616 31.1398 27.5481C32.5499 26.2564 34.3565 23.7389 34.3565 18.8569C34.3565 17.1712 35.1055 15.7263 35.6563 14.5661C35.6563 14.5442 35.6784 14.5004 35.7224 14.3909C35.9427 13.9093 36.2071 13.2744 36.2071 12.6615C36.2071 12.2017 36.0749 11.6763 35.7665 11.2166C35.2818 10.4066 34.4005 10.1001 33.6074 10.1001C31.7347 10.1001 30.4569 11.3917 29.7959 12.7271L29.5756 13.165C29.3112 12.7709 29.0468 12.3769 28.8265 12.0047C28.1436 10.8225 27.769 10.0344 27.4165 9.02736C27.1521 8.23925 26.9318 7.31978 26.7776 6.57545C26.359 4.2111 25.698 3.44488 24.5744 3.16028C23.7593 2.94136 22.7899 3.1165 22.0849 3.57623C21.6002 2.48163 20.785 2 19.6834 2C18.1412 2 16.7312 3.00704 16.7312 4.71462C16.7312 4.93354 16.7532 5.15246 16.7752 5.41517C16.577 5.37138 16.3566 5.34949 16.1363 5.34949C14.4619 5.34949 13.2282 6.50977 13.2282 8.06411C13.2282 8.41439 13.2722 8.83034 13.4044 9.31196C13.2502 9.29007 13.118 9.29007 12.9638 9.29007C12.1486 9.33385 11.3995 9.66224 10.8488 10.2971C10.3641 10.932 10.1658 11.8952 10.5623 13.2306Z" fill="#1F1F1A"/>
<path d="M11.9487 12.7931C11.7284 12.0925 11.7504 11.5671 12.0148 11.2169C12.2792 10.9104 12.6537 10.7571 13.0723 10.7352C13.8214 10.7133 14.1078 11.2387 14.5484 12.6179C14.8128 13.4936 15.3415 14.7415 15.672 15.442C16.0906 16.2958 16.6634 17.4123 16.9278 17.8064C17.1481 18.1348 17.3464 18.2442 17.5667 18.2442C17.9633 18.2442 18.2497 18.0253 18.2497 17.6312C18.2497 17.4123 18.0294 17.062 17.9192 16.8431C17.6989 16.4272 17.2363 15.6172 16.9278 14.9166C16.5973 14.1504 16.2008 13.1871 15.8923 12.3115C15.694 11.8079 15.4737 11.0855 15.2534 10.3631C14.9229 9.24657 14.7467 8.5898 14.7467 8.06439C14.7467 7.29817 15.3195 6.79465 16.2008 6.79465C16.8397 6.79465 17.2363 7.10114 17.5006 8.23953C17.721 9.26846 18.1175 10.9541 18.6683 12.2896C19.0208 13.1653 19.5716 14.3036 19.88 14.8947C20.0783 15.2231 20.2986 15.5296 20.2986 15.6391C20.2986 15.8142 19.9902 16.0769 19.7258 16.4272C19.5496 16.6461 19.4835 16.7775 19.4835 16.9526C19.4835 17.1058 19.5716 17.2372 19.7258 17.4342C19.88 17.6312 20.0122 17.8283 20.1885 17.8283C20.2986 17.8283 20.3868 17.7845 20.4529 17.675C21.2019 16.7337 22.0171 16.0769 22.9645 15.5515C24.0881 14.9166 25.2117 14.6101 26.115 14.4131C26.5556 14.3255 26.6658 14.2161 26.6658 13.9753C26.6658 13.6907 26.4455 13.5155 26.1591 13.4936C25.9387 13.4717 25.7405 13.4936 25.41 13.5155C25.1676 13.5374 25.0354 13.428 24.9033 13.0996C24.4626 12.1801 23.6254 10.6477 23.1187 8.67737C22.8984 7.82358 22.7001 6.9479 22.5899 5.78762C22.5238 5.26221 22.612 5.06518 22.8763 4.82437C23.2068 4.53977 23.8237 4.40841 24.2864 4.53976C24.8372 4.69301 25.1456 5.10896 25.432 6.81654C25.5862 7.60466 25.8286 8.6117 26.115 9.48738C26.4675 10.6039 26.9302 11.5015 27.6352 12.7493C28.0317 13.428 28.5164 14.1285 29.0232 14.8072C28.935 15.0918 28.7588 15.2888 28.208 15.7485C27.6572 16.2083 27.0844 16.6899 26.5777 17.5875C26.2251 18.2442 26.0489 18.9667 26.0489 19.4483C26.0489 19.908 26.137 19.9956 26.4455 19.9956C26.9522 19.9956 27.3708 19.908 27.3928 19.6891C27.525 18.8134 27.6572 18.2661 28.1419 17.6094C28.4283 17.2591 28.935 16.7993 29.3536 16.4272C30.1247 15.7923 30.3891 15.442 30.6535 14.5445C30.7857 14.1285 30.9179 13.7563 31.1162 13.3842C31.5788 12.5304 32.394 11.589 33.6939 11.589C34.1125 11.589 34.4429 11.6985 34.6632 12.0488C34.7954 12.2458 34.8395 12.5085 34.8395 12.7055C34.8395 13.1434 34.5311 13.7345 34.3768 14.019C33.8481 15.1574 32.9668 16.8869 32.9668 18.8791C32.9668 23.2356 31.4246 25.4029 30.1908 26.5194C29.0011 27.6359 27.1284 28.5992 24.9253 28.5992C23.339 28.5992 21.7307 28.1395 20.3868 27.2638C18.5141 26.0378 17.3464 24.1113 16.1787 22.1848C15.2314 20.6305 14.5704 19.3826 13.557 16.9964C12.9401 15.6172 12.4113 14.2599 11.9487 12.7931Z" fill="#FFE450"/>
<path d="M18.1835 4.71457C18.1835 3.7951 19.0427 3.44482 19.7257 3.44482C20.4748 3.44482 20.7391 3.7951 20.9374 4.58322C21.1137 5.21809 21.1798 5.78728 21.2459 6.46594C21.334 7.14459 21.6865 8.67704 21.7746 9.0711C22.1492 10.3846 22.8542 11.9609 23.7354 13.8436C23.2287 14.0187 22.5457 14.3033 22.0831 14.5441C21.5102 14.8506 21.3781 14.8506 21.1357 14.3909C20.629 13.4495 20.2544 12.749 19.946 11.939C19.6816 11.2603 19.4172 10.4941 19.1969 9.59651C18.8224 8.08595 18.7783 7.64811 18.4919 6.94756C18.3597 6.20323 18.1835 5.32755 18.1835 4.71457Z" fill="#FFE450"/>
<path d="M9.50221 20.8491C8.99549 21.1556 6.26357 22.5785 5.64669 22.7975C5.20606 22.9507 4.72136 22.9288 4.45698 22.0969C4.10448 21.0899 4.58917 20.8272 5.29418 20.5645C5.91107 20.3237 8.42267 19.4261 9.01752 19.2728C9.43612 19.1634 9.72253 19.2947 9.92082 19.7982C10.1191 20.3456 9.96488 20.5645 9.50221 20.8491Z" fill="#1F1F1A"/>
<path d="M7.25409 15.1131C6.52704 15.135 3.48669 15.0036 2.78167 14.9379C2.18682 14.8723 1.94447 14.6096 2.01057 13.7558C2.07666 12.8144 2.4512 12.7706 3.04605 12.8144C3.72903 12.8801 6.92361 13.3836 7.43034 13.5587C7.9591 13.712 8.02519 13.9528 7.9591 14.4125C7.87097 14.9817 7.60659 15.0912 7.25409 15.1131Z" fill="#1F1F1A"/>
<path d="M7.63054 9.0059C6.79334 8.74319 4.30377 7.25453 3.66485 6.86047C3.07 6.5102 3.0039 6.20371 3.40047 5.43749C3.75298 4.75883 4.17158 4.64937 4.76643 4.95586C5.44941 5.30613 7.89492 7.18886 8.35758 7.56102C8.79821 7.9113 8.75415 8.10832 8.5118 8.56805C8.26945 9.0059 8.04914 9.13725 7.63054 9.0059Z" fill="#1F1F1A"/>
</svg>
