<svg width="32" height="32" viewBox="0 0 32 32" fill="none" xmlns="http://www.w3.org/2000/svg">
<path d="M9.00617 13.224C9.38265 14.4703 9.8384 15.6392 10.3338 16.7668C11.1858 18.7864 11.7605 19.8546 12.5549 21.1801C13.5258 22.7627 14.5976 24.5646 16.3611 25.7318C17.6491 26.5824 19.2163 27.0177 20.7222 27.0177C22.8442 27.0177 24.6672 26.0879 25.8381 24.9981C26.9874 23.9298 28.4753 21.8706 28.4753 17.853C28.4753 16.4683 29.0896 15.2795 29.5453 14.33C29.5453 14.3102 29.5651 14.2706 29.6048 14.1915C29.7831 13.7959 30.0011 13.2815 30.0011 12.7672C30.0011 12.3913 29.902 11.9561 29.6444 11.5802C29.2481 10.9076 28.5347 10.6702 27.8791 10.6702C26.3533 10.6702 25.3013 11.7385 24.7663 12.8283L24.588 13.1844C24.37 12.8679 24.152 12.5316 23.9737 12.2348C23.4189 11.2655 23.1018 10.6127 22.8244 9.78004C22.6065 9.12722 22.4281 8.37549 22.3092 7.76044C21.9724 5.81998 21.4176 5.18694 20.5043 4.94955C19.8306 4.77151 19.038 4.90999 18.4615 5.28585C18.067 4.39565 17.3933 4 16.4998 4C15.2317 4 14.0806 4.83086 14.0806 6.2372C14.0806 6.41524 14.1004 6.59328 14.1202 6.81089C13.9617 6.77133 13.7834 6.75154 13.605 6.75154C12.2378 6.75154 11.2254 7.7011 11.2254 8.98875C11.2254 9.28548 11.2651 9.62178 11.3642 10.0174C11.2453 9.99765 11.1264 9.99765 11.0075 9.99765C10.3338 10.0372 9.71951 10.2944 9.28178 10.8285C8.84765 11.3428 8.66931 12.1341 9.00617 13.224Z" fill="#1F1F1A"/>
<path d="M10.1342 12.8682C9.95584 12.2945 9.97565 11.8593 10.1936 11.5823C10.4116 11.3252 10.7088 11.2065 11.0655 11.1867C11.6797 11.1669 11.9175 11.6021 12.2742 12.7297C12.4922 13.4419 12.9281 14.4723 13.1857 15.046C13.5225 15.7384 13.9981 16.6682 14.2161 16.9865C14.3944 17.2635 14.5529 17.3426 14.7313 17.3426C15.0483 17.3426 15.2861 17.1645 15.2861 16.848C15.2861 16.67 15.1077 16.3732 15.0087 16.1952C14.8303 15.8589 14.4538 15.1863 14.1962 14.6126C13.9188 13.9796 13.6018 13.1883 13.3442 12.4743C13.1857 12.0589 13.0073 11.4654 12.829 10.872C12.5516 9.96197 12.4129 9.40807 12.4129 8.99084C12.4129 8.3578 12.8885 7.94238 13.6018 7.94238C14.117 7.94238 14.4538 8.19955 14.6718 9.12932C14.8501 9.97996 15.1672 11.3665 15.6229 12.4545C15.9202 13.1667 16.3561 14.1181 16.6137 14.5928C16.7722 14.8698 16.9505 15.1072 16.9505 15.2061C16.9505 15.3446 16.6929 15.5622 16.475 15.8589C16.3363 16.037 16.2768 16.1556 16.2768 16.2941C16.2768 16.4128 16.3561 16.5315 16.475 16.6898C16.5939 16.848 16.7128 17.0063 16.8515 17.0063C16.9505 17.0063 17.01 16.9667 17.0694 16.8876C17.6837 16.1161 18.3574 15.582 19.132 15.1449C20.0435 14.6306 20.9766 14.3734 21.7097 14.2152C22.0664 14.136 22.1655 14.0569 22.1655 13.8591C22.1655 13.6217 21.9871 13.4832 21.7494 13.4634C21.571 13.4437 21.4125 13.4634 21.1351 13.4832C20.9369 13.503 20.8379 13.4041 20.719 13.1469C20.3623 12.3952 19.6688 11.1273 19.2527 9.50518C19.0743 8.8128 18.9158 8.08085 18.8167 7.1295C18.7573 6.69429 18.8366 6.53603 19.0545 6.33821C19.3319 6.10082 19.8273 6.00191 20.2038 6.10082C20.6595 6.21951 20.8973 6.5756 21.1351 7.96216C21.254 8.61498 21.4521 9.44583 21.6899 10.1598C21.9871 11.0698 22.3636 11.8233 22.9383 12.8322C23.2553 13.3861 23.6516 13.9598 24.0677 14.5155C23.9885 14.7529 23.8498 14.9112 23.394 15.287C22.9383 15.6629 22.4825 16.0585 22.0664 16.7905C21.7692 17.3246 21.6305 17.9181 21.6305 18.3137C21.6305 18.6896 21.7097 18.7687 21.9475 18.7687C22.3636 18.7687 22.7005 18.6896 22.7203 18.5115C22.8194 17.7994 22.9383 17.3444 23.3346 16.8085C23.5723 16.5117 23.9885 16.1359 24.3253 15.8391C24.9594 15.3248 25.1774 15.0281 25.3953 14.2961C25.4944 13.9598 25.6133 13.6433 25.7718 13.3466C26.1483 12.6542 26.822 11.8629 27.874 11.8629C28.2109 11.8629 28.4883 11.9618 28.6666 12.2387C28.7657 12.397 28.8053 12.6146 28.8053 12.7729C28.8053 13.1289 28.5477 13.6235 28.4288 13.8609C27.9929 14.7907 27.2796 16.2168 27.2796 17.8587C27.2796 21.4411 26.0114 23.2233 25.0188 24.1333C24.0479 25.0433 22.5203 25.8364 20.7172 25.8364C19.4292 25.8364 18.0998 25.4605 17.01 24.7484C15.4842 23.7395 14.5313 22.1551 13.5604 20.5725C12.7876 19.2866 12.2526 18.276 11.4185 16.3175C10.9484 15.1827 10.5107 14.0749 10.1342 12.8682Z" fill="#FFE450"/>
<path d="M15.2313 6.23718C15.2313 5.48546 15.9248 5.18872 16.4995 5.18872C17.1137 5.18872 17.3317 5.48546 17.4902 6.11849C17.6289 6.63283 17.6884 7.10761 17.7478 7.66151C17.8271 8.21542 18.1045 9.48329 18.1838 9.7998C18.481 10.8878 19.0754 12.1755 19.7888 13.7185C19.3727 13.857 18.8178 14.0944 18.4414 14.2922C17.9658 14.5494 17.8667 14.5494 17.6686 14.1735C17.2525 13.402 16.9552 12.8283 16.6976 12.1539C16.4797 11.6 16.2617 10.967 16.0834 10.2332C15.7861 8.98693 15.7465 8.63085 15.5087 8.05536C15.37 7.46369 15.2313 6.73174 15.2313 6.23718Z" fill="#FFE450"/>
<path d="M8.13515 19.488C7.71544 19.747 5.49075 20.9105 4.98817 21.0958C4.6297 21.2289 4.24061 21.1965 4.01183 20.5203C3.73082 19.684 4.12532 19.4862 4.68734 19.2686C5.18452 19.0762 7.24708 18.3317 7.72624 18.2022C8.0631 18.1122 8.29728 18.2255 8.4594 18.6302C8.63773 19.0744 8.51524 19.2524 8.13515 19.488Z" fill="#1F1F1A"/>
<path d="M6.29872 14.7745C5.70067 14.7907 3.21659 14.6846 2.64916 14.6288C2.15559 14.5803 1.95563 14.3627 2.00968 13.6487C2.06732 12.8826 2.36635 12.8358 2.85091 12.8826C3.41294 12.9365 6.01591 13.3591 6.43022 13.4868C6.85895 13.6199 6.91839 13.8141 6.86615 14.1882C6.7995 14.6738 6.57974 14.7655 6.29872 14.7745Z" fill="#1F1F1A"/>
<path d="M6.60879 9.75301C5.92427 9.5372 3.89233 8.3089 3.36273 7.99238C2.88356 7.70464 2.82232 7.44567 3.15557 6.81443C3.45099 6.25693 3.77884 6.15982 4.26521 6.41159C4.82904 6.70473 6.81955 8.25135 7.19963 8.55708C7.56711 8.85201 7.51667 9.00488 7.32393 9.38434C7.13118 9.7638 6.95105 9.86091 6.60879 9.75301Z" fill="#1F1F1A"/>
</svg>
