<svg width="147" height="32" viewBox="0 0 147 32" fill="none" xmlns="http://www.w3.org/2000/svg">
<path d="M48.5637 15.7474C48.5637 17.1589 48.0372 18.0858 47.0261 18.528L48.4796 24.0473C48.5427 24.3006 48.4166 24.4264 48.1847 24.4264H45.9937C45.7832 24.4264 45.6781 24.3213 45.6357 24.1314L44.2242 18.7809H42.7707V24.0897C42.7707 24.3006 42.6446 24.4264 42.4337 24.4264H40.2428C40.0322 24.4264 39.9058 24.2999 39.9058 24.0897V7.91062C39.9058 7.70007 40.0322 7.57361 40.2428 7.57361H45.5303C47.5103 7.57361 48.5637 8.62703 48.5637 10.6071V15.7474ZM44.8562 16C45.4038 16 45.6988 15.705 45.6988 15.1575V11.197C45.6988 10.6495 45.4038 10.3548 44.8562 10.3548H42.7707V16.0003L44.8562 16Z" fill="#04436A"/>
<path d="M50.2478 10.6071C50.2478 8.62703 51.3009 7.57361 53.2813 7.57361H55.6407C57.6208 7.57361 58.6742 8.62703 58.6742 10.6071V21.3929C58.6742 23.3726 57.6208 24.4261 55.6407 24.4261H53.2813C51.3009 24.4261 50.2478 23.3726 50.2478 21.3929V10.6071ZM55.1138 21.7086C55.6614 21.7086 55.9564 21.4346 55.9564 20.866V11.134C55.9564 10.5864 55.6614 10.2914 55.1138 10.2914H53.8922C53.3447 10.2914 53.0497 10.5864 53.0497 11.134V20.8664C53.0497 21.4346 53.3447 21.7086 53.8922 21.7086H55.1138Z" fill="#04436A"/>
<path d="M69.2266 12.8821C69.2266 13.093 69.1002 13.2191 68.8899 13.2191H66.7834C66.5515 13.2191 66.4464 13.093 66.4464 12.8821V11.197C66.4464 10.6495 66.1518 10.3548 65.6042 10.3548H64.5087C63.9401 10.3548 63.6662 10.6495 63.6662 11.197V20.8036C63.6662 21.3722 63.9608 21.6455 64.5087 21.6455H65.6042C66.1518 21.6455 66.4464 21.3719 66.4464 20.8036V19.1179C66.4464 18.907 66.5515 18.7809 66.7834 18.7809H68.8899C69.1012 18.7809 69.2266 18.907 69.2266 19.1179V21.3933C69.2266 23.373 68.1522 24.4264 66.1935 24.4264H63.834C61.854 24.4264 60.7795 23.373 60.7795 21.3933V10.6071C60.7795 8.62703 61.854 7.57361 63.834 7.57361H66.1935C68.1525 7.57361 69.2266 8.62703 69.2266 10.6071V12.8821Z" fill="#04436A"/>
<path d="M78.1151 24.4264C77.8619 24.4264 77.7151 24.3213 77.6303 24.1107L74.9766 17.8539L74.1968 19.3498V24.005C74.1968 24.2789 74.0496 24.4264 73.7756 24.4264H71.7532C71.4793 24.4264 71.3318 24.2789 71.3318 24.005V7.99504C71.3318 7.72142 71.4793 7.57361 71.7532 7.57361H73.7756C74.0493 7.57361 74.1968 7.72109 74.1968 7.99504V14.5255L77.4408 7.8896C77.5462 7.67905 77.694 7.57361 77.9256 7.57361H80.1372C80.4532 7.57361 80.5797 7.78449 80.4319 8.07913L76.8512 15.4311L80.6635 23.9419C80.8109 24.2158 80.6845 24.4264 80.3478 24.4264H78.1151Z" fill="#04436A"/>
<path d="M90.6063 10.0175C90.6063 10.228 90.5219 10.3755 90.2693 10.3755H85.0028V14.5885H89.0263C89.2375 14.5885 89.3633 14.715 89.3633 14.9466V17.0321C89.3633 17.264 89.2369 17.3904 89.0263 17.3904H85.0028V21.6455H90.2693C90.5225 21.6455 90.6063 21.751 90.6063 21.9825V24.0894C90.6063 24.2999 90.5219 24.4257 90.2693 24.4257H82.5173C82.3274 24.4257 82.2009 24.2993 82.2009 24.0894V7.91062C82.2009 7.70007 82.3274 7.57361 82.5173 7.57361H90.2693C90.5225 7.57361 90.6063 7.70007 90.6063 7.91062V10.0175Z" fill="#04436A"/>
<path d="M100.38 7.57361C100.611 7.57361 100.717 7.70007 100.717 7.91062V10.0175C100.717 10.228 100.611 10.3545 100.38 10.3545H97.9361V24.0894C97.9361 24.321 97.831 24.4257 97.5994 24.4257H95.4085C95.1973 24.4257 95.0715 24.321 95.0715 24.0894V10.3545H92.6283C92.4171 10.3545 92.2913 10.228 92.2913 10.0175V7.91062C92.2913 7.70007 92.4177 7.57361 92.6283 7.57361H100.38Z" fill="#04436A"/>
<path d="M100.506 22.0666C100.506 21.7927 100.653 21.6455 100.927 21.6455H102.844C103.118 21.6455 103.265 21.7927 103.265 22.0666V24.0043C103.265 24.2786 103.118 24.4257 102.844 24.4257H100.927C100.653 24.4257 100.506 24.2786 100.506 24.0043V22.0666Z" fill="#04436A"/>
<path d="M113.819 12.8821C113.819 13.093 113.692 13.2191 113.482 13.2191H111.375C111.144 13.2191 111.039 13.093 111.039 12.8821V11.197C111.039 10.6495 110.744 10.3548 110.196 10.3548H109.101C108.532 10.3548 108.258 10.6495 108.258 11.197V20.8036C108.258 21.3722 108.553 21.6455 109.101 21.6455H110.196C110.744 21.6455 111.039 21.3719 111.039 20.8036V19.1179C111.039 18.907 111.144 18.7809 111.375 18.7809H113.482C113.693 18.7809 113.819 18.907 113.819 19.1179V21.3933C113.819 23.373 112.744 24.4264 110.785 24.4264H108.426C106.446 24.4264 105.371 23.373 105.371 21.3933V10.6071C105.371 8.62703 106.446 7.57361 108.426 7.57361H110.785C112.745 7.57361 113.819 8.62703 113.819 10.6071V12.8821Z" fill="#04436A"/>
<path d="M121.485 7.91062C121.485 7.70007 121.611 7.57361 121.821 7.57361H123.991C124.244 7.57361 124.349 7.70007 124.349 7.91062V24.0894C124.349 24.2999 124.244 24.4257 123.991 24.4257H121.821C121.61 24.4257 121.485 24.2993 121.485 24.0894V17.3904H118.788V24.0897C118.788 24.3006 118.662 24.4264 118.451 24.4264H116.282C116.029 24.4264 115.924 24.2999 115.924 24.0897V7.91062C115.924 7.70007 116.029 7.57361 116.282 7.57361H118.451C118.662 7.57361 118.788 7.70007 118.788 7.91062V14.6096H121.485V7.91062Z" fill="#04436A"/>
<path d="M133.955 24.4264C133.766 24.4264 133.661 24.3213 133.618 24.1314L133.029 21.0562H129.279L128.711 24.1314C128.668 24.3213 128.563 24.4264 128.374 24.4264H126.12C125.888 24.4264 125.783 24.2999 125.846 24.0684L129.343 7.86858C129.385 7.65803 129.511 7.57361 129.701 7.57361H132.629C132.819 7.57361 132.945 7.65803 132.987 7.86858L136.484 24.0684C136.526 24.2999 136.442 24.4264 136.189 24.4264H133.955ZM131.154 11.2601L129.805 18.612H132.502L131.154 11.2601Z" fill="#04436A"/>
<path d="M144.361 7.57361C144.593 7.57361 144.698 7.70007 144.698 7.91062V10.0175C144.698 10.228 144.593 10.3545 144.361 10.3545H141.918V24.0894C141.918 24.321 141.813 24.4257 141.581 24.4257H139.39C139.18 24.4257 139.054 24.321 139.054 24.0894V10.3545H136.61C136.399 10.3545 136.274 10.228 136.274 10.0175V7.91062C136.274 7.70007 136.4 7.57361 136.61 7.57361H144.361Z" fill="#04436A"/>
<path d="M34.9077 15.9777C34.9077 14.3252 34.4134 12.7409 33.4381 11.2677C32.5624 9.9456 31.3355 8.77524 29.792 7.78883C26.8114 5.88498 22.894 4.83616 18.7621 4.83616C17.3819 4.83616 16.0213 4.95277 14.7018 5.18401C13.8833 4.41768 12.9248 3.72821 11.9108 3.18327C6.49289 0.55743 2 3.12151 2 3.12151C2 3.12151 6.17723 6.5531 5.49794 9.56096C3.62924 11.4149 2.61622 13.6505 2.61622 15.9777C2.61622 15.985 2.61655 15.9925 2.61655 16.0001C2.61655 16.0073 2.61622 16.0145 2.61622 16.0224C2.61622 18.3497 3.62891 20.5853 5.49794 22.4389C6.17723 25.447 2 28.8786 2 28.8786C2 28.8786 6.49289 31.4424 11.9108 28.8169C12.9248 28.2719 13.8829 27.5821 14.7018 26.8161C16.0217 27.047 17.3819 27.1637 18.7621 27.1637C22.8944 27.1637 26.8114 26.1155 29.792 24.2116C31.3355 23.2252 32.5624 22.0552 33.4381 20.7324C34.4134 19.2595 34.9077 17.6746 34.9077 16.0227C34.9077 16.0152 34.9074 16.008 34.9074 16.0004C34.9074 15.9928 34.9077 15.985 34.9077 15.9777Z" fill="#C1272D"/>
<path d="M18.7115 7.17261C26.34 7.17261 32.5246 11.1347 32.5246 16.0221C32.5246 20.9091 26.34 24.8716 18.7115 24.8716C17.0127 24.8716 15.386 24.6745 13.8831 24.3154C12.3557 26.1582 8.99549 28.7206 5.73128 27.8925C6.79304 26.7488 8.36603 24.816 8.02936 21.6325C6.07286 20.1057 4.89844 18.1516 4.89844 16.0221C4.89811 11.1344 11.0827 7.17261 18.7115 7.17261Z" fill="white"/>
<path d="M18.7159 18.1473C19.7293 18.1473 20.5508 17.3233 20.5508 16.3069C20.5508 15.2904 19.7293 14.4664 18.7159 14.4664C17.7024 14.4664 16.8809 15.2904 16.8809 16.3069C16.8809 17.3233 17.7024 18.1473 18.7159 18.1473Z" fill="#C1272D"/>
<path d="M25.0962 18.1473C26.1097 18.1473 26.9312 17.3233 26.9312 16.3069C26.9312 15.2904 26.1097 14.4664 25.0962 14.4664C24.0828 14.4664 23.2612 15.2904 23.2612 16.3069C23.2612 17.3233 24.0828 18.1473 25.0962 18.1473Z" fill="#C1272D"/>
<path d="M12.3347 18.147C13.3479 18.147 14.1693 17.3232 14.1693 16.3069C14.1693 15.2906 13.3479 14.4668 12.3347 14.4668C11.3214 14.4668 10.5 15.2906 10.5 16.3069C10.5 17.3232 11.3214 18.147 12.3347 18.147Z" fill="#C1272D"/>
<path d="M18.7146 23.7071C17.0158 23.7071 15.3891 23.5363 13.8862 23.2249C12.5376 24.6354 9.7597 26.5313 6.88096 26.4617C6.50171 27.0382 6.08939 27.5095 5.73438 27.8922C8.99859 28.7203 12.3588 26.1582 13.8862 24.3151C15.3891 24.6744 17.0162 24.8712 18.7146 24.8712C26.2819 24.8712 32.4271 20.9719 32.525 16.1387C32.4271 20.3281 26.2819 23.7071 18.7146 23.7071Z" fill="#CCCCCC"/>
</svg>
