<svg width="32" height="32" viewBox="0 0 32 32" fill="none" xmlns="http://www.w3.org/2000/svg">
<path d="M30 15.8932C30 14.4871 29.5794 13.1391 28.7496 11.8856C28.0045 10.7606 26.9606 9.76481 25.6472 8.92551C23.1112 7.30559 19.778 6.41319 16.2623 6.41319C15.0879 6.41319 13.9302 6.5124 12.8075 6.70916C12.1111 6.05712 11.2955 5.47047 10.4327 5.0068C5.82284 2.77257 2 4.95426 2 4.95426C2 4.95426 5.55426 7.87407 4.97627 10.4333C3.38626 12.0108 2.52432 13.913 2.52432 15.8932C2.52432 15.8993 2.5246 15.9057 2.5246 15.9122C2.5246 15.9183 2.52432 15.9245 2.52432 15.9312C2.52432 17.9113 3.38598 19.8135 4.97627 21.3907C5.55426 23.9503 2 26.8701 2 26.8701C2 26.8701 5.82284 29.0515 10.4327 26.8175C11.2955 26.3539 12.1108 25.7669 12.8075 25.1152C13.9305 25.3116 15.0879 25.4109 16.2623 25.4109C19.7783 25.4109 23.1112 24.519 25.6472 22.8991C26.9606 22.0598 28.0045 21.0643 28.7496 19.9388C29.5794 18.6855 30 17.337 30 15.9314C30 15.925 29.9997 15.9189 29.9997 15.9124C29.9997 15.906 30 15.8993 30 15.8932Z" fill="#C1272D"/>
<path d="M16.2191 8.40118C22.7099 8.40118 27.9721 11.7724 27.9721 15.9309C27.9721 20.0891 22.7099 23.4606 16.2191 23.4606C14.7737 23.4606 13.3896 23.2929 12.1108 22.9874C10.8112 24.5553 7.9521 26.7356 5.1747 26.031C6.07811 25.0579 7.41652 23.4134 7.13005 20.7045C5.46534 19.4055 4.46606 17.7428 4.46606 15.9309C4.46579 11.7721 9.728 8.40118 16.2191 8.40118Z" fill="white"/>
<path d="M16.2232 17.7392C17.0855 17.7392 17.7845 17.0381 17.7845 16.1732C17.7845 15.3083 17.0855 14.6072 16.2232 14.6072C15.3609 14.6072 14.6619 15.3083 14.6619 16.1732C14.6619 17.0381 15.3609 17.7392 16.2232 17.7392Z" fill="#C1272D"/>
<path d="M21.6522 17.7392C22.5145 17.7392 23.2135 17.0381 23.2135 16.1732C23.2135 15.3083 22.5145 14.6072 21.6522 14.6072C20.7899 14.6072 20.0908 15.3083 20.0908 16.1732C20.0908 17.0381 20.7899 17.7392 21.6522 17.7392Z" fill="#C1272D"/>
<path d="M10.7974 17.7389C11.6595 17.7389 12.3584 17.0379 12.3584 16.1732C12.3584 15.3085 11.6595 14.6075 10.7974 14.6075C9.93524 14.6075 9.23633 15.3085 9.23633 16.1732C9.23633 17.0379 9.93524 17.7389 10.7974 17.7389Z" fill="#C1272D"/>
<path d="M16.2236 22.4698C14.7782 22.4698 13.3941 22.3245 12.1153 22.0595C10.9678 23.2596 8.60421 24.8728 6.15479 24.8136C5.8321 25.3041 5.48127 25.7051 5.1792 26.0307C7.9566 26.7353 10.8157 24.5553 12.1153 22.9871C13.3941 23.2929 14.7785 23.4603 16.2236 23.4603C22.6623 23.4603 27.8911 20.1425 27.9744 16.0301C27.8911 19.5947 22.6623 22.4698 16.2236 22.4698Z" fill="#CCCCCC"/>
</svg>
