<svg width="121" height="32" viewBox="0 0 121 32" fill="none" xmlns="http://www.w3.org/2000/svg">
<path d="M29.5167 28.135H22.9933L21.0088 23.3295H10.1898L8.38084 28.1346H2L11.7471 3.87344H18.731L29.5167 28.135ZM15.3732 9.65308L11.7892 19.1044H19.2335L15.3732 9.65308ZM53.0472 3.87344H58.2976V28.135H52.2684V13.0137L45.7452 20.6248H44.8243L38.3008 12.98V28.1013H32.2715V3.87344H37.5218L45.2845 12.8958L53.0472 3.87344ZM73.5715 3.87344C82.3977 3.87344 86.9699 9.3844 86.9699 16.0377C86.9699 23.0104 82.5735 28.135 72.9269 28.135H62.8951V3.87344H73.5715ZM68.9242 23.691H72.86C78.9225 23.691 80.7314 19.5661 80.7314 16.0042C80.7314 11.8037 78.4954 8.31746 72.7928 8.31746H68.924L68.9242 23.691ZM98.9194 11.157V22.1452H109.872L102.051 30H91.0982V19.0033L98.9194 11.157ZM119 2V29.7646L111.397 22.1367V9.62786H98.9279L91.3327 2H119Z" fill="black"/>
</svg>
