<svg width="112" height="32" viewBox="0 0 112 32" fill="none" xmlns="http://www.w3.org/2000/svg">
<path d="M48.6214 20.6703L47.4561 24.2469C47.4241 24.366 47.3127 24.4468 47.1891 24.4403H44.3779C44.2081 24.4403 44.16 24.3437 44.1835 24.199L49.0361 10.2556C49.2013 9.78147 49.2837 9.28267 49.2797 8.78084C49.2774 8.73946 49.2913 8.69881 49.3183 8.66735C49.3454 8.63589 49.3836 8.61604 49.425 8.61194H53.308C53.425 8.61194 53.4778 8.63631 53.5025 8.75647L59.0075 24.2235C59.0556 24.3401 59.0322 24.4403 58.8904 24.4403H55.7361C55.6787 24.4482 55.6203 24.4355 55.5714 24.4046C55.5225 24.3736 55.4862 24.3263 55.469 24.2712L54.2321 20.6703H48.6214ZM49.4942 17.65H53.3291L52.9599 16.4667C52.4514 14.8575 51.7742 12.7633 51.4116 11.415H51.387C50.9993 13.0343 50.1256 15.6928 49.4942 17.65ZM59.3939 18.5391C59.3929 15.0838 61.9885 12.1839 66.43 12.1839C66.6234 12.1839 66.867 12.2082 67.2313 12.2315V7.47101C67.2269 7.43269 67.2372 7.39413 67.2602 7.36307C67.2832 7.33201 67.3171 7.31076 67.3551 7.30358L70.458 7.3019C70.5753 7.3019 70.6046 7.34959 70.6046 7.44643V21.7283C70.5986 22.3181 70.6311 22.9077 70.7016 23.4933C70.7016 23.5866 70.686 23.6389 70.6055 23.6803L70.5321 23.7101C69.0203 24.3499 67.3944 24.6789 65.7518 24.6773C62.1606 24.6773 59.3941 22.6475 59.3941 18.5389M67.2315 15.1069C66.9416 15.014 66.6371 14.9745 66.3329 14.9903C65.8944 14.9584 65.4539 15.0158 65.0384 15.159C64.6228 15.3021 64.241 15.5281 63.916 15.8231C63.591 16.1181 63.3298 16.4759 63.1482 16.8747C62.9666 17.2736 62.8685 17.7051 62.8598 18.1429L62.8636 18.3731C62.8636 20.7657 64.247 21.8051 66.0906 21.8051C66.4764 21.8214 66.8621 21.7725 67.2315 21.6604V15.1069ZM84.4925 18.1152L84.5012 18.3685C84.5012 22.1631 82.0262 24.6758 78.5274 24.6758C74.3777 24.6758 72.5339 21.5589 72.5339 18.4408C72.4859 17.6269 72.6074 16.8119 72.8909 16.047C73.1743 15.2821 73.6135 14.5839 74.1809 13.9962C74.7483 13.4085 75.4316 12.9439 76.1878 12.6318C76.9441 12.3197 77.757 12.1667 78.5755 12.1824C82.3817 12.1824 84.3919 14.9579 84.4925 18.1152ZM75.9553 18.3893C75.9553 20.5159 76.9498 21.869 78.5755 21.869C79.9812 21.869 81.0504 20.6604 81.0504 18.437C81.0504 16.552 80.274 14.9819 78.4304 14.9819C77.0247 14.9819 75.9553 16.2381 75.9553 18.3893ZM86.6401 7.30148L89.5999 7.30022C89.7942 7.30022 89.8425 7.3248 89.8425 7.49391V12.4481C90.3738 12.3061 90.9186 12.2204 91.468 12.1925L91.8804 12.1822C92.6267 12.1453 93.3727 12.2587 94.0739 12.5158C94.7751 12.7728 95.417 13.1681 95.9612 13.6781C96.5054 14.188 96.9406 14.8021 97.2409 15.4835C97.5411 16.1649 97.7002 16.8996 97.7086 17.6437L97.7042 17.9343C97.7042 22.4534 94.1129 24.6769 90.4256 24.6769C89.1345 24.6858 87.8497 24.4985 86.6154 24.1216C86.5723 24.0973 86.5362 24.0623 86.5108 24.0199C86.4853 23.9776 86.4713 23.9294 86.4701 23.8801V7.47101C86.4701 7.35442 86.5182 7.3019 86.6401 7.3019M91.483 15.0306L91.2748 15.0335C90.7908 15.0279 90.3085 15.0931 89.8436 15.2272V21.7761C90.0397 21.8213 90.2393 21.8509 90.4401 21.8644L90.7417 21.8728C91.2212 21.8999 91.7008 21.8236 92.1479 21.6493C92.5951 21.475 92.9992 21.2067 93.3328 20.8627C93.6664 20.5187 93.9215 20.1071 94.0808 19.656C94.2401 19.2048 94.2999 18.7248 94.256 18.2486C94.3096 17.8517 94.2784 17.448 94.1643 17.064C94.0501 16.68 93.8558 16.3244 93.5939 16.0205C93.332 15.7166 93.0085 15.4713 92.6447 15.3008C92.2809 15.1302 91.885 15.038 91.483 15.0306ZM102.445 19.3103C102.562 20.688 103.537 21.824 105.915 21.824C106.937 21.843 107.953 21.6537 108.899 21.2678C108.973 21.2199 109.046 21.2432 109.046 21.3844V23.6799C109.046 23.849 108.998 23.9214 108.876 23.9704C107.828 24.4376 106.693 24.6791 105.545 24.6792L105.163 24.6702C100.602 24.6702 98.9993 21.5533 98.9993 18.5565C98.9993 15.3048 100.96 12.3292 104.589 12.1824L104.871 12.1767C105.561 12.1515 106.248 12.2703 106.889 12.5254C107.53 12.7804 108.11 13.1662 108.592 13.6578C109.074 14.1495 109.448 14.7361 109.689 15.3801C109.93 16.0241 110.033 16.7111 109.991 17.3971C110.009 17.9394 109.969 18.482 109.874 19.0162C109.87 19.0663 109.849 19.1135 109.813 19.149C109.777 19.1846 109.73 19.2061 109.679 19.2096C109.056 19.2685 108.431 19.3014 107.806 19.3084L102.445 19.3103ZM105.6 16.9667C106.005 16.9818 106.411 16.9658 106.813 16.919V16.7497C106.806 16.4886 106.747 16.2317 106.639 15.9938C106.531 15.7558 106.376 15.5417 106.184 15.364C105.992 15.1862 105.766 15.0483 105.52 14.9584C105.274 14.8684 105.012 14.8282 104.751 14.8401C104.163 14.8308 103.594 15.046 103.161 15.4415C102.727 15.837 102.463 16.3828 102.421 16.9667H105.6ZM17.8865 12.3225L25.3676 30H20.4644L18.2261 24.3704H12.7515L17.8865 12.3225ZM33.7669 2V29.9966L22.0224 2H33.7669ZM13.7494 2L2 29.9966V2H13.7494Z" fill="#FA0F00"/>
</svg>
