<svg width="146" height="32" viewBox="0 0 146 32" fill="none" xmlns="http://www.w3.org/2000/svg">
<path d="M18.472 7.26155L10.236 12.5231L18.472 17.7847L10.236 23.0462L2 17.7562L10.236 12.4947L2 7.26155L10.236 2L18.472 7.26155ZM10.1934 24.7384L18.4294 19.4769L26.6654 24.7384L18.4294 30L10.1934 24.7384ZM18.472 17.7562L26.708 12.4947L18.472 7.26155L26.6654 2L34.9014 7.26155L26.6654 12.5231L34.9014 17.7847L26.6654 23.0462L18.472 17.7562Z" fill="#0061FF"/>
<path d="M41.3633 7.26152H48.0231C52.2689 7.26152 55.7763 9.72165 55.7763 15.3387V16.519C55.7763 22.1787 52.4961 24.7242 48.1509 24.7242H41.3633V7.26152ZM45.0837 10.4327V21.5388H47.9379C50.3519 21.5388 51.9707 19.9604 51.9707 16.4479V15.5236C51.9707 12.0111 50.2667 10.4327 47.8101 10.4327H45.0837ZM57.7501 10.6033H60.7321L61.2149 13.8882C61.7829 11.6556 63.2313 10.4611 65.8583 10.4611H66.7813V14.2295H65.2477C62.2231 14.2295 61.4847 15.2818 61.4847 18.2681V24.7669H57.8069V10.6033H57.7501ZM67.5197 17.9695V17.5713C67.5197 12.8359 70.5443 10.2478 74.6623 10.2478C78.8655 10.2478 81.8049 12.8359 81.8049 17.5713V17.9695C81.8049 22.6196 78.9507 25.1224 74.6623 25.1224C70.1041 25.0797 67.5197 22.6338 67.5197 17.9695ZM78.0419 17.9268V17.5713C78.0419 14.9405 76.7213 13.3621 74.6197 13.3621C72.5607 13.3621 71.1975 14.8126 71.1975 17.5713V17.9268C71.1975 20.4723 72.5181 21.9228 74.6197 21.9228C76.7213 21.8801 78.0419 20.4723 78.0419 17.9268ZM83.7361 10.6033H86.8033L87.1583 13.2768C87.8967 11.485 89.4729 10.2478 91.8017 10.2478C95.3943 10.2478 97.7657 12.8359 97.7657 17.6282V18.0264C97.7657 22.6765 95.1387 25.1366 91.8017 25.1366C89.5723 25.1366 88.0387 24.1269 87.2861 22.5058V29.6587H83.6935L83.7361 10.6033ZM94.0311 17.9268V17.614C94.0311 14.7983 92.5827 13.4047 90.6515 13.4047C88.5925 13.4047 87.2293 14.9832 87.2293 17.614V17.8842C87.2293 20.387 88.5499 21.9654 90.6089 21.9654C92.7247 21.9228 94.0311 20.5718 94.0311 17.9268ZM103.204 22.1503L102.892 24.7384H99.7395V5.86792H103.332V13.1061C104.127 11.2575 105.703 10.2478 107.933 10.2478C111.312 10.2905 113.812 12.6226 113.812 17.3154V17.7562C113.812 22.4489 111.44 25.1366 107.848 25.1366C105.476 25.0797 103.943 23.9847 103.204 22.1503ZM110.034 17.7562V17.4007C110.034 14.8126 108.629 13.3621 106.655 13.3621C104.638 13.3621 103.233 14.9832 103.233 17.4433V17.7562C103.233 20.387 104.596 21.9228 106.612 21.9228C108.771 21.9228 110.034 20.5718 110.034 17.7562ZM115.388 17.9695V17.5713C115.388 12.8359 118.412 10.2478 122.53 10.2478C126.734 10.2478 129.673 12.8359 129.673 17.5713V17.9695C129.673 22.6196 126.776 25.1224 122.53 25.1224C117.972 25.0797 115.388 22.6338 115.388 17.9695ZM125.938 17.9268V17.5713C125.938 14.9405 124.618 13.3621 122.516 13.3621C120.457 13.3621 119.094 14.8126 119.094 17.5713V17.9268C119.094 20.4723 120.415 21.9228 122.516 21.9228C124.632 21.8801 125.938 20.4723 125.938 17.9268ZM134.487 17.4007L129.531 10.6033H133.777L136.631 14.8552L139.528 10.6033H143.731L138.704 17.358L144.001 24.7384H139.84L136.603 20.0457L133.45 24.7384H129.105L134.487 17.4007Z" fill="black"/>
</svg>
