<svg width="86" height="32" viewBox="0 0 86 32" fill="none" xmlns="http://www.w3.org/2000/svg">
<path d="M75.4108 13.4111C76.389 13.4111 77.1819 12.6182 77.1819 11.64C77.1819 10.6619 76.389 9.86899 75.4108 9.86899C74.4327 9.86899 73.6398 10.6619 73.6398 11.64C73.6398 12.6182 74.4327 13.4111 75.4108 13.4111Z" fill="#FF4500"/>
<path d="M60.5065 8.74961C61.0389 8.74961 61.4777 9.16998 61.5072 9.69537L61.5088 9.7521V22.6326C61.5088 23.184 61.0578 23.635 60.5065 23.635C60.0222 23.635 59.6044 23.2844 59.5209 22.8162C58.8361 23.5014 57.9672 23.8523 56.9479 23.8523C54.3084 23.8523 52.17 21.4631 52.17 18.5229C52.17 15.5825 54.3086 13.1933 56.9479 13.1933C57.928 13.1933 58.7534 13.5025 59.4246 14.1351L59.5043 14.2127V9.75194C59.5043 9.20058 59.9553 8.74961 60.5066 8.74961M70.965 8.74961C71.4974 8.74961 71.9361 9.16998 71.9657 9.69537L71.9673 9.7521V22.6326C71.9673 23.184 71.5164 23.635 70.965 23.635C70.4804 23.635 70.0627 23.2844 69.9794 22.8162C69.2942 23.5014 68.4257 23.8523 67.4065 23.8523C64.7669 23.8523 62.6286 21.4631 62.6286 18.5229C62.6286 15.5825 64.7671 13.1933 67.4065 13.1933C68.3865 13.1933 69.2119 13.5025 69.8828 14.1351L69.9625 14.2127V9.75194C69.9625 9.20042 70.4138 8.74945 70.9648 8.74945M46.7404 13.1764C48.9626 13.1764 50.8335 14.8809 51.368 17.1863L51.3862 17.2827C51.4133 17.4361 51.4381 17.6313 51.4515 17.9046C51.484 18.521 51.0128 19.1528 50.1907 19.1895L50.115 19.1911V19.1576H44.0174C44.268 20.6779 45.4041 21.8306 46.7404 21.8306C47.8766 21.8306 48.5782 21.1959 48.9458 20.8783C49.3299 20.561 49.8478 20.4608 50.2655 20.7448C50.7668 21.0957 50.8503 21.814 50.4328 22.2819C49.5807 23.2342 48.3946 23.8356 46.7404 23.8356C44.1009 23.8356 41.9623 21.4464 41.9623 18.506C41.9623 15.5656 44.1009 13.1764 46.7404 13.1764ZM80.4962 10.9699L80.5542 10.9716C81.0699 11.0038 81.461 11.4398 81.4882 11.9504L81.4898 12.0074V13.4109H82.4086C82.9101 13.4109 83.3276 13.8451 83.294 14.3628C83.2621 14.8288 82.8748 15.1712 82.4292 15.1969L82.3753 15.1985H81.4898V22.6495C81.4898 23.2007 81.0557 23.6351 80.4709 23.6684C79.9387 23.6684 79.4996 23.2481 79.47 22.723L79.4684 22.6663V15.2151H78.6163C78.1153 15.2151 77.6974 14.7807 77.731 14.2628C77.7632 13.7968 78.1504 13.4545 78.5959 13.4289L78.6497 13.4273H79.4851V11.974C79.4851 11.4086 79.9377 10.9684 80.4961 10.9697M41.2272 13.2435C41.6951 13.327 42.0626 13.728 42.0626 14.2291C42.0626 14.7286 41.6897 15.1502 41.2137 15.21L41.1603 15.2151H40.9598C39.0517 15.001 37.662 16.488 37.6198 18.3196L37.6187 18.4056V22.6325C37.6187 23.2173 37.1342 23.6683 36.5494 23.6348C36.0338 23.6029 35.6427 23.167 35.6156 22.6564L35.614 22.599V14.4129C35.614 13.8617 36.065 13.4107 36.6163 13.4107C37.1001 13.4107 37.5843 13.7688 37.6171 14.3498L37.6188 14.4129V14.5467C38.404 13.5608 39.7738 13.0265 41.2274 13.2435M75.4089 14.2961C75.9411 14.2961 76.3798 14.7164 76.4095 15.2418L76.4111 15.2986V22.6325C76.4111 23.184 75.9601 23.6348 75.4089 23.6348C74.8763 23.6348 74.4376 23.2146 74.4081 22.6892L74.4065 22.6325V15.2986C74.4065 14.747 74.8575 14.2961 75.4089 14.2961ZM56.9648 15.1816C55.4277 15.1816 54.1914 16.6854 54.1914 18.5231C54.1914 20.3775 55.4277 21.8641 56.9648 21.8641C58.4851 21.8641 59.7382 20.3773 59.7382 18.5231C59.7382 16.6685 58.502 15.1816 56.9648 15.1816ZM67.4063 15.1816C65.8692 15.1816 64.6332 16.6854 64.6332 18.5231C64.6332 20.3775 65.8692 21.8641 67.4063 21.8641C68.9434 21.8641 70.1797 20.3773 70.1797 18.5231C70.1797 16.6685 68.9434 15.1816 67.4063 15.1816ZM46.7238 15.1985C45.5481 15.1985 44.5322 16.076 44.128 17.3321L44.1009 17.4204H49.3468C48.9626 16.1339 47.9265 15.1985 46.7238 15.1985Z" fill="#222222"/>
<path d="M16 30C23.732 30 30 23.732 30 16C30 8.26801 23.732 2 16 2C8.26801 2 2 8.26801 2 16C2 23.732 8.26801 30 16 30Z" fill="#FF4500"/>
<path d="M25.3353 16.0001C25.3353 14.8641 24.4164 13.962 23.2971 13.962C22.7683 13.9613 22.2595 14.1647 21.877 14.5299C20.4737 13.5276 18.5524 12.876 16.4139 12.7926L17.3493 8.41536L20.3901 9.06696C20.4235 9.83552 21.0582 10.4537 21.8437 10.4537C22.6455 10.4537 23.297 9.80206 23.297 8.99987C23.297 8.19801 22.6455 7.54657 21.8437 7.54657C21.2756 7.54657 20.7744 7.88073 20.5405 8.36533L17.1491 7.6468C17.0489 7.63007 16.9487 7.6468 16.8817 7.697C16.7982 7.7472 16.748 7.83054 16.7316 7.93093L15.6955 12.8091C13.5238 12.876 11.569 13.5276 10.149 14.5468C9.76658 14.1816 9.25789 13.9781 8.72905 13.9787C7.59286 13.9787 6.69092 14.8974 6.69092 16.0168C6.69092 16.8522 7.19193 17.5536 7.89388 17.8714C7.85971 18.0757 7.84292 18.2824 7.84368 18.4895C7.84368 21.6301 11.5024 24.1864 16.0131 24.1864C20.5239 24.1864 24.1827 21.6468 24.1827 18.4895C24.1827 18.2889 24.1658 18.0715 24.1325 17.8712C24.4911 17.7073 24.795 17.4438 25.0082 17.1121C25.2214 16.7804 25.3349 16.3944 25.3351 16.0001M11.335 17.4534C11.335 16.6515 11.9866 16.0001 12.7887 16.0001C13.5906 16.0001 14.242 16.6515 14.242 17.4534C14.242 18.2553 13.5906 18.907 12.7887 18.907C11.9866 18.9236 11.335 18.2553 11.335 17.4534ZM19.4712 21.3128C18.4689 22.3151 16.5641 22.3821 16.0129 22.3821C15.445 22.3821 13.5404 22.2984 12.5545 21.3128C12.5188 21.278 12.4905 21.2364 12.4712 21.1905C12.4518 21.1446 12.4418 21.0952 12.4418 21.0454C12.4418 20.9956 12.4518 20.9462 12.4712 20.9003C12.4905 20.8544 12.5188 20.8128 12.5545 20.778C12.5893 20.7424 12.6309 20.7141 12.6768 20.6947C12.7227 20.6754 12.772 20.6654 12.8218 20.6654C12.8716 20.6654 12.9209 20.6754 12.9668 20.6947C13.0127 20.7141 13.0543 20.7424 13.0891 20.778C13.7241 21.413 15.0606 21.6301 16.0129 21.6301C16.9652 21.6301 18.3183 21.413 18.9364 20.778C18.9712 20.7424 19.0128 20.714 19.0588 20.6947C19.1047 20.6753 19.154 20.6654 19.2038 20.6654C19.2537 20.6654 19.303 20.6753 19.3489 20.6947C19.3948 20.714 19.4364 20.7424 19.4712 20.778C19.5359 20.8521 19.5716 20.9471 19.5716 21.0454C19.5716 21.1437 19.5359 21.2387 19.4712 21.3128ZM19.2037 18.9236C18.4018 18.9236 17.7504 18.2722 17.7504 17.4703C17.7504 16.6684 18.4018 16.017 19.2037 16.017C20.0059 16.017 20.6573 16.6684 20.6573 17.4703C20.6573 18.2553 20.0059 18.9236 19.2037 18.9236Z" fill="white"/>
</svg>
