<svg width="32" height="32" viewBox="0 0 32 32" fill="none" xmlns="http://www.w3.org/2000/svg">
<path d="M16.0005 30C23.7325 30 30.0005 23.732 30.0005 16C30.0005 8.26801 23.7325 2 16.0005 2C8.2685 2 2.00049 8.26801 2.00049 16C2.00049 23.732 8.2685 30 16.0005 30Z" fill="#FF4500"/>
<path d="M25.3165 16.1333C25.3165 14.9984 24.3987 14.0971 23.2803 14.0971C22.7519 14.0964 22.2437 14.2997 21.8617 14.6646C20.4597 13.6631 18.5402 13.0123 16.4039 12.9288L17.3384 8.55593L20.376 9.20671C20.4096 9.97452 21.0437 10.5922 21.8283 10.5922C22.6294 10.5922 23.2803 9.94138 23.2803 9.13988C23.2803 8.33882 22.6295 7.68793 21.8283 7.68793C21.2609 7.68793 20.7599 8.02174 20.5263 8.50583L17.1383 7.78811C17.0381 7.77127 16.9379 7.78811 16.8711 7.83821C16.7877 7.8883 16.7377 7.97165 16.7212 8.07183L15.686 12.9454C13.5164 13.0123 11.5635 13.6631 10.1449 14.6814C9.76279 14.3164 9.25454 14.1131 8.72618 14.1139C7.59119 14.1139 6.68994 15.0317 6.68994 16.1502C6.68994 16.9846 7.19055 17.6855 7.89175 18.0029C7.8577 18.2069 7.84095 18.4135 7.84166 18.6204C7.84166 21.7579 11.497 24.3118 16.0033 24.3118C20.5098 24.3118 24.1651 21.7748 24.1651 18.6204C24.1651 18.4135 24.1484 18.207 24.115 18.0029C24.8159 17.6855 25.3165 16.9677 25.3165 16.1333ZM11.3298 17.5853C11.3298 16.7842 11.9806 16.1333 12.7821 16.1333C13.5832 16.1333 14.2341 16.7841 14.2341 17.5853C14.2341 18.3864 13.5833 19.0376 12.7821 19.0376C11.9807 19.054 11.3298 18.3864 11.3298 17.5853ZM19.4583 21.4408C18.4568 22.4424 16.554 22.5092 16.0033 22.5092C15.4359 22.5092 13.5332 22.4256 12.5482 21.4408C12.3982 21.2907 12.3982 21.0569 12.5482 20.9068C12.6985 20.7568 12.9321 20.7568 13.0824 20.9068C13.7167 21.5411 15.052 21.7579 16.0033 21.7579C16.9547 21.7579 18.3066 21.541 18.9241 20.9068C19.0744 20.7568 19.308 20.7568 19.4583 20.9068C19.5917 21.0569 19.5917 21.2907 19.4583 21.4408ZM19.1911 19.0541C18.3899 19.0541 17.7391 18.4033 17.7391 17.6021C17.7391 16.8009 18.3899 16.1502 19.1911 16.1502C19.9925 16.1502 20.6432 16.8009 20.6432 17.6021C20.6432 18.3863 19.9925 19.0541 19.1911 19.0541Z" fill="white"/>
</svg>
