<svg width="169" height="32" viewBox="0 0 169 32" fill="none" xmlns="http://www.w3.org/2000/svg">
<path d="M166.499 7.83337V26.5003H161.832V7.83337H166.499ZM146.159 7.83337C147.376 7.83445 148.581 8.07656 149.705 8.54572C150.828 9.01488 151.847 9.70182 152.704 10.5669C154.442 12.3233 155.417 14.6954 155.415 17.1668C155.417 19.6382 154.442 22.0101 152.704 23.7664C151.847 24.6315 150.828 25.3184 149.705 25.7876C148.581 26.2568 147.376 26.4989 146.159 26.4999H139.665V7.83337H146.159ZM125.665 7.83337V22.4167H133.832V26.5003H120.999V7.83337H125.665ZM105.847 7.83337L115.165 26.5003H110.687L109.325 23.6421H102.339L100.976 26.4999H96.4987L105.847 7.83337ZM82.4789 7.83337L86.5802 17.0608L90.6811 7.83337H95.3318L86.5798 26.5003L77.8318 7.83337H82.4789ZM71.9985 7.83337V26.5003H67.3321V7.83337H71.9985ZM48.6491 7.83337L52.7504 17.0608L56.8516 7.83337H61.4984L52.7504 26.5003L43.9985 7.83337H48.6491ZM146.159 11.6721H143.838V22.6615H146.159C149.276 22.6615 151.384 20.1664 151.384 17.1668C151.384 14.1673 149.265 11.6721 146.159 11.6721ZM105.847 16.4111L104.061 20.2592H107.634L105.847 16.4111Z" fill="#333333"/>
<path d="M15.9998 30C22.1348 30 25.544 30 27.7719 27.7719C29.9997 25.5437 30 22.1348 30 15.9998C30 9.86483 30 6.45563 27.7719 4.22782C25.5437 2 22.1352 2 15.9998 2C9.86451 2 6.45146 2 4.22782 4.22782C2.00418 6.45563 2 9.86483 2 15.9998C2 22.1348 2 25.544 4.22782 27.7719C6.45563 29.9997 9.86483 30 15.9998 30Z" fill="#EF3939"/>
<path d="M25.1007 10.8194C24.425 9.60079 23.2623 8.60286 22.168 7.7402C21.0733 6.87754 19.999 6.3577 18.656 5.985C17.313 5.61231 15.9404 5.61905 14.5579 5.79416C13.1751 5.96958 11.9854 6.28509 10.778 6.981C9.57056 7.67691 8.63272 8.52929 7.78837 9.63773C6.94402 10.7462 6.38273 11.8469 6.03221 13.1957C5.682 14.5441 5.55509 16.0385 5.75365 17.4174C5.95188 18.797 6.19285 20.1095 6.909 21.305L6.96812 21.4059L11.8999 29.9554C12.7185 29.9777 13.6046 29.9875 14.5579 29.985H15.9587C18.1952 30.0328 20.4327 29.9666 22.6624 29.7867C24.8941 29.5419 26.497 28.9938 27.7247 27.7578C29.5303 25.9528 29.8722 23.3715 29.9355 19.1958L25.1007 10.8194Z" fill="url(#paint0_linear_128_2445)"/>
<path d="M23.4154 8.57181C21.947 7.10459 20.0766 6.10567 18.0406 5.70135C16.0046 5.29703 13.8944 5.50547 11.9768 6.3003C10.0589 7.09518 8.41968 8.44101 7.26663 10.1676C6.11357 11.8941 5.49844 13.9238 5.49902 16C5.49929 18.076 6.11476 20.1053 7.26771 21.8317C8.42066 23.5581 10.0594 24.9041 11.9768 25.6997C13.8944 26.4948 16.0046 26.7033 18.0407 26.299C20.0767 25.8947 21.9471 24.8956 23.4154 23.4282C24.3928 22.4539 25.1684 21.2961 25.6975 20.0215C26.2266 18.7468 26.4989 17.3802 26.4988 16C26.4987 14.6199 26.2264 13.2533 25.6973 11.9787C25.1681 10.704 24.3927 9.54627 23.4154 8.57181ZM22.786 13.4059C21.0549 16.4183 19.3243 19.4309 17.5943 22.4438C17.458 22.7108 17.2548 22.938 17.0046 23.1032C16.7543 23.2683 16.4656 23.3658 16.1665 23.3861C15.8363 23.4228 15.5028 23.359 15.2096 23.2028C14.9164 23.0467 14.6772 22.8057 14.5234 22.5112C13.4291 20.6269 12.3434 18.7297 11.2578 16.8366C10.5926 15.6865 9.93076 14.5345 9.27224 13.3805C9.11579 13.1212 9.02952 12.8256 9.02191 12.5228C9.01431 12.2201 9.08563 11.9205 9.22887 11.6536C9.3721 11.3868 9.58232 11.1618 9.83886 11.0008C10.0954 10.8398 10.3894 10.7483 10.692 10.7354C11.0177 10.7154 11.3421 10.7902 11.6262 10.9506C11.9103 11.1111 12.1419 11.3503 12.293 11.6395C12.783 12.4845 13.2646 13.3295 13.7462 14.1748C14.0964 14.7833 14.4344 15.3915 14.7936 15.9917C15.0219 16.4062 15.3534 16.7547 15.756 17.0035C16.1585 17.2522 16.6186 17.3928 17.0914 17.4114C17.8097 17.456 18.5176 17.2224 19.0682 16.759C19.6188 16.2956 19.9699 15.6381 20.0486 14.9227C20.0486 14.8087 20.0486 14.6946 20.074 14.6352C20.0765 14.1832 19.9754 13.7366 19.7784 13.3298C19.5966 12.992 19.5311 12.6037 19.5921 12.225C19.6531 11.8463 19.8372 11.4982 20.1159 11.2346C20.3946 10.971 20.7524 10.8066 21.1339 10.7668C21.5154 10.7269 21.8995 10.8139 22.2266 11.0142C22.4436 11.1475 22.6288 11.3266 22.7693 11.539C22.9097 11.7514 23.0019 11.992 23.0395 12.2438C23.0865 12.6485 22.9973 13.0576 22.786 13.4059Z" fill="white"/>
<defs>
<linearGradient id="paint0_linear_128_2445" x1="515.087" y1="130.498" x2="1850.67" y2="2444.57" gradientUnits="userSpaceOnUse">
<stop stop-opacity="0.2"/>
<stop offset="0.79" stop-opacity="0.05"/>
</linearGradient>
</defs>
</svg>
