<svg width="32" height="32" viewBox="0 0 32 32" fill="none" xmlns="http://www.w3.org/2000/svg">
<path d="M16.0003 29.9999C22.1354 29.9999 25.5446 29.9999 27.7723 27.7719C30.0004 25.5443 30.0004 22.1351 30.0004 16C30.0004 9.86515 30.0004 6.45583 27.7724 4.22797C25.5447 2 22.1355 2 16.0004 2C9.86558 2 6.45199 2 4.22839 4.22786C2.0048 6.45572 2.00043 9.86504 2.00043 15.9999C2.00043 22.1349 2.00043 25.5442 4.22829 27.7719C6.45614 30 9.86547 30 16.0003 30" fill="#EF3939"/>
<path d="M25.1055 10.8193C24.4297 9.6007 23.2671 8.60288 22.1726 7.74013C21.0781 6.87738 20.0037 6.35763 18.6608 5.98488C17.3178 5.61213 15.9453 5.61902 14.5627 5.79424C13.1801 5.96946 11.9902 6.28511 10.7827 6.98106C9.57545 7.67702 8.63767 8.52916 7.79307 9.63767C6.9487 10.7462 6.3875 11.8469 6.03717 13.1956C5.68684 14.5443 5.55996 16.0385 5.75837 17.4176C5.95678 18.7968 6.19773 20.1093 6.91403 21.3048L6.97309 21.4059L11.9048 29.9553C12.7234 29.9778 13.6094 29.9876 14.5628 29.9848H15.9634C18.1999 30.0329 20.4375 29.9668 22.6672 29.7866C24.8989 29.5419 26.502 28.9936 27.7297 27.7579C29.5354 25.9526 29.8772 23.3713 29.9404 19.1957L25.1055 10.8193Z" fill="url(#paint0_linear_128_2680)"/>
<path d="M23.417 8.57197C21.9487 7.10448 20.0783 6.10537 18.0422 5.70102C16.0061 5.29667 13.8958 5.50525 11.9783 6.30036C10.0607 7.09556 8.42185 8.44134 7.26884 10.1676C6.11582 11.8942 5.50043 13.9239 5.50043 16.0001C5.50043 18.0763 6.11582 20.1059 7.26884 21.8325C8.42183 23.5588 10.0607 24.9046 11.9783 25.6999C13.8959 26.495 16.0061 26.7035 18.0422 26.2992C20.0783 25.8948 21.9488 24.8957 23.417 23.4281C24.8889 21.9605 25.8916 20.0886 26.2979 18.0501C26.7041 16.0116 26.4956 13.8984 25.6988 11.9786C25.1697 10.704 24.3943 9.54633 23.417 8.57197ZM22.7875 13.4058C21.0565 16.4182 19.326 19.4308 17.5959 22.4438C17.4595 22.7107 17.2564 22.9378 17.0061 23.1029C16.7559 23.2681 16.4672 23.3655 16.1681 23.3859C15.838 23.4229 15.5044 23.3591 15.2111 23.203C14.9179 23.047 14.6786 22.8058 14.5249 22.5114C13.4308 20.6268 12.345 18.7297 11.2595 16.8367C10.5944 15.6865 9.93258 14.5344 9.27412 13.3804C9.11774 13.1211 9.03152 12.8256 9.02393 12.5228C9.01633 12.2201 9.08763 11.9206 9.23081 11.6538C9.37399 11.387 9.58412 11.162 9.84057 11.0009C10.097 10.8399 10.3909 10.7484 10.6935 10.7353C11.0191 10.7154 11.3436 10.7902 11.6277 10.9507C11.9118 11.1111 12.1433 11.3504 12.2944 11.6396C12.7844 12.4846 13.266 13.3297 13.7477 14.1748C14.0982 14.7833 14.4361 15.3916 14.7951 15.9916C15.0234 16.4063 15.3549 16.7549 15.7576 17.0037C16.1602 17.2524 16.6203 17.3928 17.0931 17.4113C17.8114 17.4559 18.5192 17.2222 19.0698 16.7589C19.6204 16.2955 19.9715 15.6379 20.0502 14.9226C20.0502 14.8085 20.0502 14.6944 20.0756 14.6353C20.0781 14.1832 19.9769 13.7366 19.7799 13.3297C19.6286 13.0489 19.5571 12.7321 19.5732 12.4136C19.5893 12.0951 19.6924 11.7871 19.8713 11.523C20.0501 11.259 20.2979 11.049 20.5877 10.9159C20.8775 10.7827 21.1982 10.7316 21.515 10.7679C21.7679 10.797 22.0113 10.8812 22.2283 11.0144C22.4452 11.1476 22.6303 11.3266 22.7707 11.539C22.9109 11.7515 23.0032 11.992 23.0409 12.2438C23.0885 12.6485 22.9994 13.0575 22.7875 13.4058Z" fill="white"/>
<defs>
<linearGradient id="paint0_linear_128_2680" x1="515.095" y1="130.498" x2="1850.68" y2="2444.58" gradientUnits="userSpaceOnUse">
<stop stop-opacity="0.2"/>
<stop offset="0.79" stop-opacity="0.05"/>
</linearGradient>
</defs>
</svg>
