<svg width="95" height="32" viewBox="0 0 95 32" fill="none" xmlns="http://www.w3.org/2000/svg">
<path d="M29.0156 2H2.98438C2.44072 2 2 2.44072 2 2.98438V29.0156C2 29.5593 2.44072 30 2.98438 30H29.0156C29.5593 30 30 29.5593 30 29.0156V2.98438C30 2.44072 29.5593 2 29.0156 2Z" fill="#37AEE2"/>
<path d="M12.8837 24.0939C12.2821 24.0939 12.3368 23.8751 12.1727 23.3282L10.4227 17.5861L23.8212 9.71106" fill="#C8DAEA"/>
<path d="M12.8823 24.0937C13.2651 24.0937 13.4839 23.875 13.7573 23.6562L16.2183 21.3047L13.1558 19.4453" fill="#A9C9DD"/>
<path d="M13.156 19.4452L20.5388 24.8592C21.3044 25.3514 21.9607 25.078 22.1794 24.0936L25.1872 9.98425C25.4607 8.78112 24.695 8.23425 23.8747 8.61706L6.32003 15.3983C5.1716 15.8358 5.1716 16.5467 6.10128 16.8202L10.6403 18.2421L21.031 11.6249C21.5232 11.3514 21.9607 11.4608 21.6325 11.8436" fill="#F6FBFE"/>
<path d="M34.3929 19.6772V11.5884H31.0258V10.3013H39.7054V11.5884H36.3453V19.6772H34.3929ZM46.6863 19.4417C45.7944 19.7039 44.9491 19.835 44.1502 19.835C42.9872 19.835 42.0699 19.5054 41.3985 18.8461C40.727 18.1869 40.3913 17.2865 40.3913 16.1451C40.3913 15.0666 40.698 14.2001 41.3112 13.5456C41.9282 12.8863 42.7418 12.5567 43.7522 12.5567C44.7709 12.5567 45.5148 12.8779 45.9837 13.5202C46.4527 14.1626 46.6871 15.1792 46.6871 16.5702H42.3691C42.496 17.8919 43.2251 18.5527 44.5563 18.5527C45.1907 18.5527 45.9007 18.4068 46.6863 18.115V19.4417ZM42.343 15.5107H44.841C44.841 14.3228 44.4585 13.7288 43.6935 13.7288C42.9163 13.7288 42.4661 14.3228 42.343 15.5107ZM48.6269 19.6772V9.66614H50.5039V19.6772H48.6269ZM58.5301 19.4417C57.6382 19.7039 56.7928 19.835 55.994 19.835C54.8309 19.835 53.9137 19.5054 53.2422 18.8461C52.5708 18.1869 52.2351 17.2865 52.2351 16.1451C52.2351 15.0666 52.5417 14.2001 53.155 13.5456C53.772 12.8863 54.5856 12.5567 55.5959 12.5567C56.6147 12.5567 57.3585 12.8779 57.8275 13.5202C58.2964 14.1626 58.5309 15.1792 58.5309 16.5702H54.2137C54.3406 17.8919 55.0696 18.5527 56.4008 18.5527C57.0352 18.5527 57.7453 18.4068 58.5309 18.115L58.5301 19.4417ZM54.1867 15.5107H56.6847C56.6847 14.3228 56.3022 13.7288 55.5372 13.7288C54.7601 13.7288 54.3099 14.3228 54.1867 15.5107ZM60.5214 21.839L60.6736 20.475C61.4471 20.8303 62.1872 21.0079 62.8941 21.0079C63.5814 21.0079 64.0823 20.8599 64.3969 20.5638C64.7056 20.2678 64.86 19.788 64.86 19.1245V18.1729C64.4037 19.1747 63.6493 19.6756 62.5967 19.6756C61.7683 19.6756 61.1111 19.3672 60.6252 18.7502C60.1389 18.129 59.8957 17.29 59.8957 16.2331C59.8957 15.1213 60.1679 14.2316 60.7125 13.5638C61.257 12.8924 61.9818 12.5567 62.8869 12.5567C63.597 12.5567 64.2541 12.844 64.8584 13.4187L65.0551 12.7153H66.7418V18.0285C66.7418 19.0896 66.6763 19.8546 66.5452 20.3235C66.4183 20.7925 66.169 21.189 65.7973 21.5131C65.1719 22.0539 64.2906 22.3243 63.1534 22.3243C62.3461 22.3243 61.4738 22.1594 60.5364 21.8295L60.5214 21.839ZM64.8513 17.0841V14.517C64.3992 14.0058 63.9234 13.7502 63.4238 13.7502C62.9507 13.7502 62.5745 13.9659 62.2954 14.3973C62.0162 14.8287 61.8766 15.4103 61.8766 16.1419C61.8766 17.5028 62.3141 18.1832 63.1891 18.1832C63.7934 18.1832 64.345 17.8197 64.8441 17.0928L64.8513 17.0841ZM69.0432 19.6772V12.7145H70.9202V14.027C71.4066 13.0463 72.1463 12.5559 73.1391 12.5559C73.2575 12.5559 73.3739 12.5686 73.488 12.594V14.2593C73.2216 14.162 72.9744 14.1134 72.7466 14.1134C71.9985 14.1134 71.3897 14.4914 70.9202 15.2474V19.6669L69.0432 19.6772ZM78.3627 18.9286C77.7373 19.5329 77.0675 19.835 76.3532 19.835C75.7452 19.835 75.2509 19.6489 74.8703 19.2768C74.4896 18.9046 74.2993 18.4227 74.2993 17.8311C74.2993 17.0618 74.6059 16.4697 75.2192 16.0547C75.8362 15.636 76.7175 15.4266 77.8631 15.4266H78.3643V14.7922C78.3643 14.0695 77.952 13.7082 77.1272 13.7082C76.396 13.7082 75.6564 13.9154 74.9083 14.3299V13.0373C75.7579 12.7158 76.5991 12.5551 77.4317 12.5551C79.2536 12.5551 80.1645 13.2799 80.1645 14.7296V17.8113C80.1645 18.3558 80.3316 18.6281 80.6657 18.6281C80.7418 18.6281 80.8475 18.6048 80.9829 18.5583V19.6479C80.5853 19.7663 80.2345 19.8255 79.9305 19.8255C79.1613 19.8255 78.667 19.5234 78.4476 18.9191L78.3627 18.9286ZM78.3627 17.9215V16.5075H77.9187C77.353 16.5075 76.907 16.609 76.5808 16.812C76.2594 17.0151 76.0987 17.2939 76.0987 17.6487C76.0987 17.9067 76.1854 18.1242 76.3588 18.3013C76.5364 18.4747 76.754 18.5615 77.0114 18.5615C77.4502 18.5615 77.9004 18.3479 78.362 17.9207L78.3627 17.9215ZM82.5856 19.6764V12.7137H84.3857V14.0262C84.9356 13.0455 85.7175 12.5551 86.7315 12.5551C87.2602 12.5551 87.691 12.6841 88.0241 12.9421C88.3625 13.2001 88.5697 13.5615 88.6458 14.0262C89.2961 13.0455 90.0823 12.5551 91.0043 12.5551C92.2768 12.5551 92.9131 13.2567 92.9131 14.6598V19.6749H91.1129V15.2736C91.1129 14.4488 90.838 14.0365 90.2882 14.0365C89.7262 14.0365 89.179 14.4422 88.6466 15.2538V19.6733H86.8465V15.272C86.8465 14.4436 86.5697 14.0293 86.0162 14.0293C85.4627 14.0293 84.9194 14.4372 84.3865 15.253V19.6725L82.5856 19.6764Z" fill="black"/>
</svg>
