<svg width="32" height="32" viewBox="0 0 32 32" fill="none" xmlns="http://www.w3.org/2000/svg">
<path d="M29.0156 2H2.98438C2.44072 2 2 2.44072 2 2.98438V29.0156C2 29.5593 2.44072 30 2.98438 30H29.0156C29.5593 30 30 29.5593 30 29.0156V2.98438C30 2.44072 29.5593 2 29.0156 2Z" fill="#37AEE2"/>
<path d="M12.8837 24.0939C12.2821 24.0939 12.3368 23.8751 12.1727 23.3282L10.4227 17.5861L23.8212 9.71106" fill="#C8DAEA"/>
<path d="M12.8823 24.0937C13.2651 24.0937 13.4839 23.875 13.7573 23.6562L16.2183 21.3047L13.1558 19.4453" fill="#A9C9DD"/>
<path d="M13.156 19.4452L20.5388 24.8592C21.3044 25.3514 21.9607 25.078 22.1794 24.0936L25.1872 9.98425C25.4607 8.78112 24.695 8.23425 23.8747 8.61706L6.32003 15.3983C5.1716 15.8358 5.1716 16.5467 6.10128 16.8202L10.6403 18.2421L21.031 11.6249C21.5232 11.3514 21.9607 11.4608 21.6325 11.8436" fill="#F6FBFE"/>
</svg>
