<svg width="90" height="32" viewBox="0 0 90 32" fill="none" xmlns="http://www.w3.org/2000/svg">
<path fill-rule="evenodd" clip-rule="evenodd" d="M11.2417 12.9963C9.5223 12.9963 8.55945 14.6907 8.55945 16.9616C8.55945 18.5949 9.04088 19.3378 10.425 19.3378C11.9729 19.3378 13.1588 17.8879 13.1588 15.3982C13.1588 13.7911 12.7032 12.9963 11.2417 12.9963ZM60.0124 12.9963C59.2727 12.9963 58.6189 13.302 58.2492 13.7649L57.4501 19.2233C57.7338 19.3103 58.0781 19.3378 58.5591 19.3378C60.3559 19.3378 61.7232 18.1233 61.7232 15.3895C61.7232 13.6601 61.207 12.9963 60.0124 12.9963ZM76.157 16.8214C76.157 18.5333 76.7932 18.9963 77.8334 18.9963C78.4438 18.9963 78.9944 18.7779 79.3809 18.367L80.0944 12.8561C79.7333 12.6902 79.3809 12.6644 78.9343 12.6644C77.2574 12.6644 76.157 14.0968 76.157 16.8214ZM86.5679 16.9966L86.233 16.7175L87.9692 4.02633L86.7738 3.10051C85.5444 2.13931 84.0064 2 83.1979 2C80.4301 2 78.8388 3.50184 78.4696 6.47189L78.3226 7.52873C77.1584 7.50327 76.0027 7.73575 74.9358 8.20999C75.1422 7.67721 75.2539 7.09202 75.2539 6.46316C75.2539 3.86911 73.4228 2.05241 70.8003 2.05241C67.9977 2.05241 65.8837 4.0962 65.8837 6.80379C65.8837 7.22303 65.9349 7.61563 66.0213 7.98291C65.7023 8.09645 65.3932 8.24493 65.1096 8.41961C64.1372 7.82569 62.9603 7.49379 61.5852 7.49379C60.536 7.49379 59.6509 7.68551 58.9198 8.00037C58.0945 7.61563 57.1742 7.5545 56.3918 7.5545C54.862 7.5545 53.7616 7.71171 52.8843 8.06108C51.7929 7.57196 50.6328 7.50209 50.0993 7.50209C48.4749 7.50209 47.442 8.05234 46.7723 8.78601C45.7145 7.68507 44.1932 7.5545 43.1186 7.5545C41.468 7.5545 40.3246 7.73791 39.4134 8.14842C38.5709 7.73791 37.4533 7.46672 35.923 7.46672C33.8855 7.46672 32.1146 7.95583 30.6703 8.82925C29.9567 8.08684 28.779 7.50165 26.8017 7.50165C26.1827 7.50165 25.6411 7.55406 25.1511 7.68507L25.4352 5.5286L25.6334 4.02633L24.4466 3.10051C23.2172 2.13931 21.6783 2 20.8702 2C18.102 2 16.5116 3.50184 16.1333 6.47189L15.8754 8.48075C14.6547 7.79905 13.1244 7.44139 11.3105 7.44139C5.73966 7.44139 2 11.267 2 16.9616C2 21.6956 4.90576 24.5254 9.77161 24.5254C11.9466 24.5254 13.8289 24.0018 15.3252 23.0406C16.0818 23.949 17.2681 24.4726 18.7554 24.4726C19.9934 24.4726 20.8956 24.3507 21.6005 24.0804L22.6408 23.6957C23.2855 24.1673 24.1285 24.4726 25.2633 24.4726C27.3265 24.4726 28.7106 24.0359 29.6305 23.4166C30.8341 24.1503 32.3811 24.5254 34.2466 24.5254C36.3013 24.5254 37.9519 23.9839 39.1731 23.1454C40.0667 23.949 41.3735 24.4726 43.205 24.4726C44.4602 24.4726 45.552 24.2721 46.5058 23.8704C47.5293 24.4988 48.6727 24.4988 49.1111 24.4988C49.5147 24.4988 49.8934 24.4809 50.2545 24.4468C50.1771 25.0054 50.126 25.4242 50.126 25.8089C50.126 27.8959 51.4753 29.8611 54.4932 29.9926C56.7624 30.0974 58.8003 29.0576 58.8003 29.0576L59.4274 24.2721C61.3355 24.0974 62.9956 23.4865 64.3444 22.5161C65.0666 23.6437 66.3828 24.4726 68.3858 24.4726C70.1555 24.4726 71.445 24.2372 72.4341 23.7476C72.5373 23.6869 72.6323 23.6258 72.7346 23.5651C73.7413 24.1586 74.9797 24.4726 76.4403 24.4726C77.4895 24.4726 78.452 24.2721 79.2949 23.914C79.9483 24.29 80.7555 24.4992 81.659 24.4992C87.4706 24.4992 87.9262 21.0322 87.9262 19.9754C87.9262 18.4464 87.1869 17.5119 86.5679 16.9966ZM9.7974 21.8969C6.66856 21.8969 4.60487 20.499 4.60487 16.9616C4.60487 12.8304 7.08121 10.0616 11.3363 10.0616C15.3171 10.0616 16.7265 12.0705 16.7265 15.0571C16.7265 19.2766 14.199 21.8969 9.7974 21.8969ZM25.2891 21.8436C24.2144 21.8436 23.8362 21.4514 23.252 20.1933L21.4123 16.376L20.7241 21.6165C20.2087 21.8178 19.3572 21.8436 18.7726 21.8436C17.569 21.8436 17.0192 21.3453 17.0192 20.2802C17.0192 19.9749 17.0704 19.4417 17.1826 18.691L18.7214 6.79462C18.9445 5.03949 19.5205 4.62025 20.896 4.62025C21.6612 4.62025 22.4349 4.82114 22.8991 5.1788L21.6096 15.0047C24.8764 10.4023 25.1773 10.1223 26.8279 10.1223C28.5563 10.1223 29.1663 10.6206 29.1663 11.6246C29.1663 12.2098 28.9943 12.6024 28.7192 12.9081C28.3066 12.8819 27.9025 12.8819 27.5672 12.8819C26.9908 12.8819 26.6641 13.0216 25.0393 15.2838L26.9134 18.7159C27.0424 18.943 27.1799 19.1356 27.4894 19.1356C27.7387 19.1356 28.1514 19.1089 28.4781 19.0212C28.7536 19.2225 28.8649 19.6063 28.8649 19.974C28.8654 21.285 27.5672 21.8436 25.2891 21.8436ZM38.6401 13.1623C38.0039 12.9706 37.3505 12.8566 36.3275 12.8566C34.3498 12.8566 33.2236 14.0274 33.2236 16.542C33.2236 18.3853 33.7738 19.0495 35.2267 19.0495C36.052 19.0495 37.0148 18.8569 38.0641 18.4643C38.4423 18.6648 38.6401 19.2233 38.6401 19.6347C38.6401 21.0667 37.3763 21.8969 34.2728 21.8969C30.9458 21.8969 29.1577 20.5339 29.1577 16.9874C29.1577 12.5771 31.7973 10.0878 35.9406 10.0878C38.5541 10.0878 39.1903 10.9001 39.1903 11.9657C39.1903 12.5509 38.9925 12.8828 38.6401 13.1623ZM49.1369 21.8702C47.7868 21.8702 47.2112 21.4514 47.4008 20.1413L47.4863 19.5819C46.6872 21.0667 45.5081 21.844 43.2222 21.844C41.2707 21.844 40.1699 21.0322 40.1699 19.2238C40.1699 18.4373 40.2305 17.9403 40.4794 16.6206L41.1676 12.8304L39.9038 12.8566C39.6803 12.5771 39.6287 12.2107 39.6287 11.8521C39.6287 10.6211 40.6943 10.1752 43.1449 10.1752C44.9597 10.1752 45.3719 10.708 45.1746 11.8521L44.486 16.2018C44.3484 16.9874 44.2109 17.9049 44.2109 18.3853C44.2109 18.9439 44.5204 19.1369 45.2597 19.1369C46.0244 19.1369 46.8497 18.7788 47.3737 17.9054L48.1143 12.3242C48.3378 10.5687 48.75 10.1232 50.126 10.1232C50.8907 10.1232 51.768 10.3154 52.24 10.6822L51.3549 17.3202C51.3029 17.8006 51.2174 18.2975 51.2174 18.7788C51.2174 18.9705 51.3291 19.1369 51.664 19.1369C51.9051 19.1369 52.292 19.1102 52.6187 19.0225C52.9286 19.25 53.0575 19.6076 53.0575 19.9754C53.0575 21.285 51.7934 21.8702 49.1369 21.8702ZM58.2845 21.7038C57.9831 21.7038 57.4334 21.7038 57.1828 21.6781L56.4692 27.1457C55.9452 27.347 55.0941 27.3728 54.5181 27.3728C53.306 27.3728 52.73 26.8662 52.73 25.8093C52.73 25.5032 52.8155 24.9709 52.9195 24.2202L54.4068 12.8304L53.1435 12.8566C52.9539 12.5771 52.8942 12.2107 52.8942 11.8521C52.8942 10.6211 53.9688 10.1752 56.4103 10.1752C58.0098 10.1752 58.4478 10.542 58.3102 11.4591L58.1473 12.4893C58.8862 10.5416 60.1758 10.1223 61.6029 10.1223C64.2761 10.1223 65.4547 11.7382 65.4547 14.7519C65.4543 19.1364 62.6513 21.7038 58.2845 21.7038ZM70.8274 4.68139C72.1169 4.68139 72.6929 5.43253 72.6929 6.46316C72.6929 7.69468 71.8418 8.53316 70.4143 8.53316C69.4003 8.53316 68.4886 8.16632 68.4886 6.80379C68.4886 5.59848 69.3741 4.68139 70.8274 4.68139ZM68.4112 21.8436C67.0611 21.8436 66.262 21.3112 66.262 20.1138C66.262 19.643 66.3475 18.8565 66.4339 18.2713L67.3615 12.8299L66.0986 12.8561C65.8747 12.5766 65.8231 12.2102 65.8231 11.8517C65.8231 10.6206 66.8977 10.1747 69.3392 10.1747C71.1527 10.1747 71.5405 10.7075 71.3767 11.8517L70.7405 16.2013C70.5518 17.4935 70.3618 18.3849 70.3618 18.743C70.3618 18.9434 70.4392 19.136 70.7749 19.136C71.0152 19.136 71.4541 19.1094 71.7889 19.0216C72.0894 19.2491 72.2274 19.581 72.2274 19.9478C72.2278 21.2588 71.0758 21.8436 68.4112 21.8436ZM81.6844 21.8702C80.6364 21.8702 79.9229 21.4244 79.9229 20.254C79.9229 20.202 79.9483 19.9487 79.9827 19.8085C79.3203 21.3112 77.9198 21.8436 76.4665 21.8436C73.9051 21.8436 72.426 20.699 72.426 17.4935C72.426 12.664 74.9797 10.149 78.1347 10.149C79.3203 10.149 80.06 10.3149 80.5324 10.6818L81.0487 6.80379C81.2722 5.03949 81.8477 4.62025 83.2241 4.62025C83.9888 4.62025 84.7621 4.82114 85.2272 5.1788L83.6363 16.8481C83.4988 17.8263 83.4644 18.3246 83.4644 18.6648C83.4644 18.9439 83.5499 19.1364 83.963 19.1364C84.2123 19.1364 84.6516 19.1098 84.9521 19.022C85.2526 19.2762 85.3652 19.5561 85.3652 19.9749C85.3648 21.2588 83.963 21.8702 81.6844 21.8702Z" fill="#084AA3"/>
</svg>
