<svg width="32" height="32" viewBox="0 0 32 32" fill="none" xmlns="http://www.w3.org/2000/svg">
<path d="M27.9594 17.1583C29.1079 17.3971 29.6846 16.1992 29.914 15.2773C30.2862 13.6239 29.4346 12.2738 27.7885 11.8871C26.062 11.5138 24.1422 11.6417 22.9434 13.1087C22.8897 13.172 22.7188 13.0217 22.734 12.9072C22.9325 11.3965 23.1294 9.88551 23.3388 8.37634C23.4685 7.44084 23.2749 7.01082 22.433 6.57837C20.5181 5.56741 17.2037 5.73378 16.6961 8.26997C16.3503 9.94642 16.1327 11.7702 15.9 13.4375C9.34599 8.72394 0.429159 13.6439 2.23774 21.9392C2.61473 23.8411 3.71933 25.1712 5.52124 25.903C8.53625 27.0361 12.2061 26.5446 14.7772 24.6163C15.5545 26.7403 18.3992 26.6882 20.2175 26.137C21.2075 25.8439 21.0981 24.8002 21.2666 23.9296C21.8318 25.0333 22.4024 26.1439 23.7125 26.3418C26.0811 26.7294 29.8525 26.1103 29.654 23.0168C29.594 21.8998 28.794 20.583 27.3709 21.0222C27.3533 21.0276 27.3275 21.0058 27.2854 20.9882C26.9254 20.3364 26.5902 19.6487 26.1775 19.0114C25.9035 18.5887 25.972 18.3184 26.2523 17.9247C26.693 17.3068 27.2024 17.0192 27.9594 17.1583Z" fill="#F1F1F1"/>
<path d="M10.3575 25.1018C5.15781 25.7849 2.45009 23.3114 3.61742 18.0354C4.06684 15.401 6.073 13.583 8.77315 13.09C11.6124 12.5027 15.498 13.3097 15.9535 16.6914C16.693 20.6952 14.6228 24.6345 10.3575 25.1018ZM24.4728 18.539C25.0885 19.6721 25.7171 20.7982 26.3419 21.9265C26.5853 22.4444 27.0974 22.3359 27.5729 22.2965C28.089 22.2374 28.2396 22.3465 28.3372 22.8599C28.7396 25.1357 25.571 25.2391 24.0191 25.0903C23.4754 25.0354 23.1115 24.6694 22.8748 24.1966C22.2263 22.9014 21.5899 21.5998 20.9486 20.3006C20.8171 20.1412 20.7247 19.6045 20.5286 19.6309C20.3259 21.1252 20.115 22.6183 19.9231 24.1139C19.8077 25.0139 19.8031 25.0445 18.8913 25.0963C17.6163 25.1745 15.8117 25.3185 15.9278 23.5323C16.4666 18.629 17.1324 13.7254 17.8576 8.8461C18.0561 7.78423 18.6028 7.3739 19.6789 7.3242C20.2095 7.28026 22.2051 7.38906 22.0572 8.19243C21.6614 11.4626 21.1065 14.7037 20.8101 17.982C21.7708 16.6065 22.7466 15.4264 23.7545 14.1155C24.8434 12.7087 26.6171 12.8339 27.8684 13.2612C28.7751 13.5706 29.0197 15.1676 28.3081 15.8019C28.2454 15.858 28.1342 15.8777 28.0442 15.8813C27.8605 15.8892 27.6729 15.8922 27.4917 15.8662C26.7153 15.7549 26.1277 16.0695 25.664 16.6632C25.2631 17.1762 24.8652 17.692 24.4821 18.2184C24.4288 18.2917 24.4276 18.4557 24.4728 18.539Z" fill="#4C7BD9"/>
<path d="M10.4777 15.738C7.8491 15.4977 7.14543 18.9061 7.54545 20.9495C7.64606 21.7274 8.10184 22.318 8.93188 22.3947C10.1807 22.5438 11.1726 21.9811 11.7032 20.7322C12.2121 19.5346 12.2951 18.279 12.0154 17.0126C11.8329 16.1865 11.319 15.7886 10.4777 15.738Z" fill="#F1F1F1"/>
</svg>
