<svg width="98" height="32" viewBox="0 0 98 32" fill="none" xmlns="http://www.w3.org/2000/svg">
<path d="M2 22.7578V12.5017C2 12.5017 2.13613 2.00899 15.0219 2.00899C15.0219 2.00899 18.8955 1.77231 21.781 3.74457C21.781 3.74457 24.3108 2 27.196 2C30.0813 2 33.1646 3.38955 34.2318 6.34806C34.2318 6.34806 35.8919 3.1924 40.7933 3.1924C44.7064 3.1924 46.2084 4.88868 46.2084 4.88868C46.2084 4.88868 48.2242 3.23192 51.663 3.23192C55.1019 3.23192 56.248 4.3758 56.248 4.3758C56.248 4.3758 58.8191 2 64.431 2C70.0429 2 71.5844 4.17841 71.5844 4.17841C71.5844 4.17841 77.1577 0.0525942 82.5727 5.48015C82.5727 5.48015 83.9167 3.78386 87.7112 3.78386C91.5058 3.78386 95.5622 6.62403 95.5622 11.9889C95.5622 11.9889 95.9328 13.8428 93.996 17.4325C93.996 17.4325 95.5906 19.734 95.5906 22.4094C95.5906 25.0849 93.1657 29.582 87.7506 29.582C83.6399 29.582 81.5845 27.6098 81.5845 27.6098C81.5845 27.6098 78.0665 31.1602 72.3353 28.596C72.3353 28.596 67.5133 30.2921 64.2325 26.9785C64.2325 26.9785 59.0147 30.6078 54.3112 27.7281C54.3112 27.7281 47.2756 32.2643 39.963 28.517C39.963 28.517 37.2357 30 30.4767 30C23.7176 30 20.9144 29.8187 19.8455 23.665H17.0376C17.0376 23.665 15.4564 28.6353 9.92278 28.6353C4.38914 28.6353 2 25.0063 2 22.7578Z" fill="white"/>
<path d="M9.2923 21.8875V13.4683C9.2923 13.4683 8.6994 8.01365 14.747 8.01365C19.3716 8.01365 19.8459 11.531 19.8459 12.5197C19.8459 13.7055 18.8183 17.0257 15.1027 17.0257H9.8852M26.9607 8.01365V21.6503H35.4984M41.1902 8.01365V16.5514C41.1902 18.923 42.8207 21.8875 46.6449 21.8875C50.3505 21.8875 51.981 19.0416 51.981 16.4328V8.01365M76.6455 7.77649V21.6503M88.5229 21.5384L83.8789 15.4858H77.2384" stroke="#E9443D" stroke-width="4" stroke-miterlimit="10" stroke-linecap="round" stroke-linejoin="round"/>
<path d="M88.0294 9.34652C88.0294 9.34652 87.4761 13.4572 83.6419 15.04M59.0959 21.2045V12.5482C59.0959 10.5719 59.6888 7.09351 64.432 7.09351C69.1752 7.09351 69.8075 10.6122 69.7681 11.6002C69.724 12.7056 69.7681 16.3427 64.432 16.3427H59.8074M69.7681 21.2045L66.685 16.4613" stroke="#E9443D" stroke-width="4" stroke-miterlimit="10" stroke-linecap="round" stroke-linejoin="round"/>
</svg>
