<svg width="32" height="32" viewBox="0 0 32 32" fill="none" xmlns="http://www.w3.org/2000/svg">
<path d="M17.0527 4.00064C15.2942 3.98615 13.5549 4.36739 11.9636 5.11614C10.3723 5.8649 8.96984 6.96198 7.85999 8.32617C7.74682 8.4621 7.63597 8.60036 7.52746 8.74096H7.53184C7.80486 8.50819 8.08431 8.33492 8.37017 8.22116L8.43842 8.19403C8.77086 8.06038 9.13443 8.02396 9.48677 8.08902C11.1687 8.42593 12.0438 11.1334 11.4417 14.1367C10.8396 17.14 8.98972 19.3006 7.31219 18.968C6.13171 18.7309 5.35201 17.3273 5.19712 15.4765V15.4677V15.5316C5.19255 15.6865 5.19255 15.8414 5.19712 15.9963V16.1512C5.20149 16.3244 5.2155 16.4977 5.22425 16.6666C5.233 16.7445 5.23825 16.8258 5.247 16.9037C5.37778 18.2985 5.75744 19.6586 6.36798 20.9195C6.40417 20.9897 6.41489 21.0703 6.39829 21.1475C6.38169 21.2248 6.33882 21.2939 6.27697 21.343L5.95319 21.6073C5.62066 21.8812 5.48852 22.3275 5.61628 22.7379C5.61687 22.7461 5.61978 22.7522 5.62503 22.7563C5.64312 22.8146 5.66587 22.8709 5.69329 22.9252L5.7528 22.8797L6.01707 22.6749C6.34085 22.429 6.71014 22.9164 6.38636 23.1623L6.1037 23.3767L6.0582 23.4082L7.43033 25.0989C7.60865 25.3152 7.86489 25.4527 8.14373 25.4816C8.42256 25.5106 8.7016 25.4288 8.92059 25.2538L9.22162 25.0079C9.283 24.9566 9.36042 24.9285 9.44039 24.9285C9.52036 24.9285 9.59778 24.9566 9.65916 25.0079C11.8183 26.7273 14.5159 27.6281 17.275 27.5508C19.609 27.4943 21.8726 26.7403 23.7742 25.3859C23.8402 25.3394 23.9203 25.3171 24.0008 25.3228C24.0813 25.3286 24.1574 25.362 24.2161 25.4174L24.4078 25.5994C24.5918 25.7722 24.8313 25.874 25.0835 25.8865C25.3357 25.899 25.584 25.8214 25.7843 25.6677L25.7799 25.6633L25.534 25.4305C25.2601 25.1522 25.6574 24.7331 25.9532 24.9886L26.2131 25.2301L27.685 23.6847C27.8773 23.4809 27.981 23.2091 27.9733 22.9289C27.9656 22.6487 27.8471 22.3831 27.6438 22.1901L27.3384 21.8987C27.2834 21.8454 27.2473 21.7756 27.2358 21.6999C27.2243 21.6242 27.2379 21.5468 27.2746 21.4795C28.5895 19.1111 29.0452 16.3608 28.5644 13.6948C28.9153 13.371 29.5576 12.7331 29.8088 12.1862C30.0774 11.6025 30.1509 10.9969 29.4351 11.2612C28.8795 11.4712 28.4507 11.6034 27.9309 11.4843C26.2813 7.29095 22.2796 4.26054 17.6075 4.01902C17.4226 4.00554 17.2381 3.99941 17.0527 4.00064ZM4.64232 9.06387C4.4016 9.06829 4.16588 9.13327 3.9569 9.25282C3.74792 9.37237 3.57242 9.54263 3.4466 9.74789C3.32077 9.95315 3.24868 10.1868 3.23696 10.4273C3.22525 10.6677 3.2743 10.9073 3.37957 11.1238C3.15664 11.1321 2.9387 11.1923 2.74314 11.2996C2.54758 11.407 2.3798 11.5585 2.25316 11.7422C2.12652 11.9258 2.04454 12.1366 2.01373 12.3575C1.98292 12.5785 2.00414 12.8036 2.0757 13.0149C2.14709 13.2261 2.26672 13.4179 2.42512 13.5748C2.58352 13.7318 2.77632 13.8497 2.98822 13.9192C3.20013 13.9887 3.42531 14.0078 3.6459 13.9751C3.86649 13.9423 4.07642 13.8587 4.25903 13.7307C4.4638 13.5845 4.61432 13.3938 4.71932 13.1838C4.9381 13.5802 5.2575 13.9127 5.62591 14.1455C5.62153 14.3782 5.62591 14.6101 5.64866 14.8429C5.7668 16.2789 6.36885 17.3631 7.28069 17.546C8.57931 17.8059 10.0109 16.1328 10.4756 13.8129C10.9403 11.4887 10.2656 9.3964 8.96697 9.1365C8.4568 9.03586 7.93262 9.23188 7.44958 9.64229C6.92541 10.0886 6.45636 10.7957 6.11858 11.6611C6.10983 11.6567 6.09583 11.6567 6.08708 11.6524C5.92256 11.6069 5.8368 11.4975 5.72217 11.4747C6.57887 10.5445 5.90419 9.04111 4.64232 9.06387ZM7.98338 10.5183C8.04289 10.5183 8.10677 10.5226 8.1654 10.5366C9.01335 10.7011 9.45527 12.0636 9.15424 13.5767C8.84884 15.0897 7.9195 16.1792 7.07154 16.0103C6.49749 15.8965 6.10983 15.2262 6.01445 14.338C6.22884 14.4202 6.44761 14.4701 6.67076 14.4789C7.28594 14.506 7.68673 14.3012 8.00176 13.8821C8.40254 13.3395 8.09714 11.8352 7.56422 11.6392C7.14943 11.4887 6.90353 11.6707 6.53424 11.6987C6.72151 11.3522 6.94028 11.0652 7.1818 10.8604C7.43733 10.646 7.71035 10.5183 7.98425 10.5139L7.98338 10.5183Z" fill="#FF574D"/>
</svg>
