<svg width="106" height="32" viewBox="0 0 106 32" fill="none" xmlns="http://www.w3.org/2000/svg">
<g clip-path="url(#clip0_21_3544)">
<path d="M4.22266 8.44068V19.1864H10.4938L16.0023 9.64407H28.4769C26.1549 5.10169 21.443 2 16.0023 2C11.0532 2 6.71418 4.55932 4.22266 8.44068Z" fill="#DB4437"/>
<path d="M4.22266 8.44068V19.1864H10.4938L16.0023 9.64407H28.4769C26.1549 5.10169 21.443 2 16.0023 2C11.0532 2 6.71418 4.55932 4.22266 8.44068Z" fill="url(#paint0_linear_21_3544)"/>
<path d="M4.22266 8.44067L10.5108 19.2034L10.6464 19.1186L4.32435 8.27118C4.29045 8.33898 4.25655 8.38982 4.22266 8.44067Z" fill="#3E2723" fill-opacity="0.15"/>
<path d="M15.339 29.983L21.5085 23.8136V19.1864H10.4915L4.22034 8.44067C2.81356 10.6102 2 13.2203 2 16C2 23.5085 7.91525 29.6441 15.339 29.983Z" fill="#0F9D58"/>
<path d="M15.339 29.983L21.5085 23.8136V19.1864H10.4915L4.22034 8.44067C2.81356 10.6102 2 13.2203 2 16C2 23.5085 7.91525 29.6441 15.339 29.983Z" fill="url(#paint1_linear_21_3544)"/>
<path d="M15.1719 29.9831C15.2227 29.9831 15.2905 29.9831 15.3414 30L21.3922 19.4068L21.2566 19.3221L15.1719 29.9831Z" fill="#263238" fill-opacity="0.15"/>
<path d="M15.3398 29.9831L21.5093 23.8136V19.1865L15.3398 29.9831Z" fill="#FFCD40"/>
<path d="M15.3398 29.9831L21.5093 23.8136V19.1865L15.3398 29.9831Z" fill="url(#paint2_linear_21_3544)"/>
<path d="M16.0009 9.6441L21.5093 19.1865L15.3398 29.9831C15.5602 30 15.7805 30 16.0009 30C23.7297 30 30.0009 23.7288 30.0009 16C30.0009 13.7119 29.4415 11.5424 28.4754 9.6441H16.0009Z" fill="#FFCD40"/>
<path d="M16.0009 9.6441L21.5093 19.1865L15.3398 29.9831C15.5602 30 15.7805 30 16.0009 30C23.7297 30 30.0009 23.7288 30.0009 16C30.0009 13.7119 29.4415 11.5424 28.4754 9.6441H16.0009Z" fill="url(#paint3_linear_21_3544)"/>
<path d="M28.4746 9.6441H16V12.9661L28.4746 9.6441Z" fill="url(#paint4_radial_21_3544)"/>
<path d="M4.22266 8.44067L10.4938 19.1864L13.3413 17.5424L4.22266 8.44067Z" fill="url(#paint5_radial_21_3544)"/>
<path d="M21.5093 19.1865L18.6788 17.5424L15.3398 29.9831L21.5093 19.1865Z" fill="url(#paint6_radial_21_3544)"/>
<path d="M16.0005 22.356C19.5107 22.356 22.3564 19.5103 22.3564 16C22.3564 12.4898 19.5107 9.6441 16.0005 9.6441C12.4902 9.6441 9.64453 12.4898 9.64453 16C9.64453 19.5103 12.4902 22.356 16.0005 22.356Z" fill="#F1F1F1"/>
<path d="M16.0027 21.0848C18.8109 21.0848 21.0875 18.8083 21.0875 16C21.0875 13.1918 18.8109 10.9153 16.0027 10.9153C13.1945 10.9153 10.918 13.1918 10.918 16C10.918 18.8083 13.1945 21.0848 16.0027 21.0848Z" fill="#4285F4"/>
<path d="M28.3903 9.47461H16.0005C12.492 9.47461 9.64453 12.3221 9.64453 15.8305V15.9831C9.64453 12.4746 12.492 9.62715 16.0005 9.62715H28.4581C28.4411 9.5763 28.4242 9.52546 28.3903 9.47461Z" fill="#3E2723" fill-opacity="0.2"/>
<path d="M16.1041 22.3559H16.0024C13.6465 22.3559 11.5956 21.0678 10.4939 19.1695L4.22272 8.44067C4.20577 8.45762 4.18882 8.49152 4.17188 8.50847L10.4939 19.339C11.5956 21.2373 13.6465 22.5254 16.0024 22.5254C17.7651 22.5254 19.3753 21.7966 20.5278 20.6271C19.3922 21.6949 17.8498 22.3559 16.1719 22.3559C16.138 22.3729 16.121 22.3559 16.1041 22.3559Z" fill="white" fill-opacity="0.1"/>
<path d="M18.9492 21.6441C19.034 21.6102 19.1018 21.5593 19.1865 21.5085C19.1018 21.5593 19.017 21.5932 18.9492 21.6441Z" fill="white" fill-opacity="0.1"/>
<path opacity="0.1" d="M22.3398 16.5085V16.4068C22.3568 16.4237 22.3568 16.4576 22.3398 16.5085Z" fill="#3E2723"/>
<path opacity="0.1" d="M20.5273 20.6272L20.9341 20.2204L21.0019 20.1017C20.8494 20.2882 20.6968 20.4577 20.5273 20.6272Z" fill="#3E2723"/>
<path opacity="0.1" d="M22.1876 14.4746C22.3402 15.0339 22.4249 15.6102 22.4249 16.2204C22.4249 17.1865 22.2046 18.0848 21.8148 18.9153C22.2554 18.0509 22.5266 17.0509 22.5266 16C22.5266 12.4916 19.6792 9.6441 16.1707 9.6441H16.0859C19.0351 9.678 21.5097 11.7288 22.1876 14.4746Z" fill="#3E2723"/>
<path opacity="0.1" d="M22.3047 16.8814C22.3047 16.8475 22.3047 16.8305 22.3216 16.7966C22.3047 16.8305 22.3047 16.8644 22.3047 16.8814Z" fill="#3E2723"/>
<path opacity="0.1" d="M18.3242 21.9322C18.392 21.8983 18.4768 21.8814 18.5446 21.8475C18.4768 21.8644 18.392 21.8983 18.3242 21.9322Z" fill="#3E2723"/>
<path opacity="0.1" d="M19.1719 21.5085C19.2058 21.4915 19.2227 21.4746 19.2566 21.4576C19.2397 21.4746 19.2058 21.4915 19.1719 21.5085Z" fill="#3E2723"/>
<path opacity="0.1" d="M16.0859 22.3559H16.1029C16.73 22.339 17.3402 22.2373 17.9164 22.0678C17.3402 22.2543 16.73 22.3559 16.0859 22.3559Z" fill="#3E2723"/>
<path d="M21.5083 19.1865C20.966 20.1187 20.1863 20.9153 19.2541 21.4746C19.2202 21.4915 19.2033 21.5085 19.1694 21.5254C19.0846 21.5763 19.0168 21.6102 18.9321 21.661C18.8982 21.678 18.8643 21.6949 18.8134 21.7288C18.7287 21.7797 18.627 21.8136 18.5253 21.8644C18.4575 21.8983 18.3727 21.9322 18.305 21.9492C18.2711 21.9661 18.2372 21.9831 18.2033 21.9831C18.1185 22.017 18.0507 22.0339 17.966 22.0678C17.949 22.0678 17.9321 22.0848 17.9151 22.0848C17.3389 22.2712 16.7287 22.3729 16.1016 22.3729H16.1524C17.8473 22.3729 19.3727 21.7119 20.5083 20.6441C20.6778 20.4746 20.8304 20.2882 20.9829 20.1017L21.5083 19.1865Z" fill="white" fill-opacity="0.1"/>
<path opacity="0.1" d="M21.5083 19.1865C20.966 20.1187 20.1863 20.9153 19.2541 21.4746C19.2202 21.4915 19.2033 21.5085 19.1694 21.5254C19.0846 21.5763 19.0168 21.6102 18.9321 21.661C18.8982 21.678 18.8643 21.6949 18.8134 21.7288C18.7287 21.7797 18.627 21.8136 18.5253 21.8644C18.4575 21.8983 18.3727 21.9322 18.305 21.9492C18.2711 21.9661 18.2372 21.9831 18.2033 21.9831C18.1185 22.017 18.0507 22.0339 17.966 22.0678C17.949 22.0678 17.9321 22.0848 17.9151 22.0848C17.3389 22.2712 16.7287 22.3729 16.1016 22.3729H16.1524C17.8473 22.3729 19.3727 21.7119 20.5083 20.6441C20.6778 20.4746 20.8304 20.2882 20.9829 20.1017L21.5083 19.1865Z" fill="#3E2723"/>
<path d="M22.1873 14.4746C22.1704 14.4068 22.1534 14.3559 22.1365 14.2881C22.2551 14.6949 22.3229 15.1017 22.3568 15.5424V15.5763C22.3737 15.7119 22.3737 15.8644 22.3737 16C22.3737 16.1356 22.3737 16.2542 22.3568 16.3898V16.4915C22.3568 16.5932 22.3398 16.6949 22.3229 16.7966C22.3229 16.8305 22.3229 16.8475 22.3059 16.8814C22.1873 17.7119 21.9161 18.4746 21.5093 19.1695L20.9839 20.0848L20.9161 20.2034L15.3398 29.9661H15.5263L21.5771 19.3729C21.6619 19.2204 21.7466 19.0509 21.8314 18.8814C22.2212 18.0678 22.4415 17.1526 22.4415 16.1865C22.4246 15.6102 22.3398 15.0339 22.1873 14.4746Z" fill="white" fill-opacity="0.2"/>
<path d="M16 2.15254C23.7119 2.15254 29.9492 8.37288 30 16.0678V15.9831C30 8.27119 23.7288 2 16 2C8.27119 2 2 8.27119 2 16V16.0847C2.05085 8.38983 8.28814 2.15254 16 2.15254Z" fill="white" fill-opacity="0.2"/>
<path d="M16 29.8475C23.7119 29.8475 29.9492 23.6271 30 15.9322V16.017C30 23.7458 23.7288 30.017 16 30.017C8.27119 30.017 2 23.7288 2 16V15.9153C2.05085 23.6102 8.28814 29.8475 16 29.8475Z" fill="#3E2723" fill-opacity="0.15"/>
<path d="M16 30C23.732 30 30 23.732 30 16C30 8.26801 23.732 2 16 2C8.26801 2 2 8.26801 2 16C2 23.732 8.26801 30 16 30Z" fill="url(#paint7_radial_21_3544)"/>
<path d="M37.6289 16.3559C37.6289 13.339 39.7476 11.0339 42.7645 11.0339C45.1543 11.0339 46.4933 12.4576 47.1035 13.8644L45.4255 14.661C44.9848 13.5085 44.0018 12.7966 42.6798 12.7966C41.0865 12.7966 39.5781 14.2203 39.5781 16.4237C39.5781 18.5424 41.0865 20.0508 42.6798 20.0508C44.1035 20.0508 45.0696 19.339 45.612 18.1864L47.2899 18.8983C46.6628 20.322 45.256 21.7288 42.8662 21.7288C39.7476 21.678 37.6289 19.3729 37.6289 16.3559ZM50.4764 11.3898L50.3916 12.8136H50.4764C51.0018 11.9322 52.256 11.1356 53.6628 11.1356C56.2391 11.1356 57.4764 12.8136 57.4764 15.3051V21.4237H55.612V15.5593C55.612 13.5254 54.5442 12.8136 53.1374 12.8136C51.5442 12.8136 50.4764 14.322 50.4764 15.9152V21.4068H48.612V6.88135H50.4764V11.3898ZM59.4255 21.4068V11.3898H61.2052V12.983H61.2899C61.7306 11.8305 63.1543 11.1186 64.2221 11.1186C64.8492 11.1186 65.2052 11.2034 65.6459 11.3898L64.934 13.1695C64.6628 13.0847 64.3069 13 63.9509 13C62.7137 13 61.3747 14.0678 61.3747 15.9322V21.4237H59.4255V21.4068ZM75.917 16.3559C75.917 19.3729 73.7984 21.678 70.7814 21.678C67.7645 21.678 65.6459 19.3729 65.6459 16.3559C65.6459 13.339 67.7645 11.0339 70.7814 11.0339C73.7984 11.0339 75.917 13.339 75.917 16.3559ZM74.0526 16.3559C74.0526 14.0508 72.4594 12.7288 70.7814 12.7288C69.1035 12.7288 67.5103 14.0508 67.5103 16.3559C67.5103 18.661 69.1035 19.983 70.7814 19.983C72.4594 19.983 74.0526 18.661 74.0526 16.3559ZM77.4086 11.3898H79.1882V12.8136H79.273C79.7984 11.8305 81.1374 11.1356 82.3747 11.1356C83.9679 11.1356 85.0357 11.8474 85.5611 13.0847C86.273 11.9322 87.5103 11.1356 89.0187 11.1356C91.4086 11.1356 92.5611 12.8136 92.5611 15.3051V21.4237H90.612V15.5593C90.612 13.5254 89.8153 12.8136 88.3916 12.8136C86.8831 12.8136 85.8153 14.322 85.8153 15.9152V21.4068H83.9509V15.5593C83.9509 13.5254 83.1543 12.8136 81.7306 12.8136C80.2221 12.8136 79.1543 14.322 79.1543 15.9152V21.4068H77.2899V11.3898H77.4086ZM93.9001 16.3559C93.9001 13.5254 95.8492 11.0339 98.7814 11.0339C101.714 11.0339 103.663 13.1525 103.663 16.3559V16.7119H95.7814C95.8662 18.8305 97.3747 19.983 98.9679 19.983C100.036 19.983 101.188 19.5424 101.714 18.3051L103.392 19.0169C102.765 20.4407 101.358 21.7627 99.0526 21.7627C95.934 21.678 93.9001 19.3729 93.9001 16.3559ZM98.7645 12.8136C97.3408 12.8136 96.2899 13.7966 95.934 15.2034H101.697C101.612 14.322 100.9 12.8136 98.7645 12.8136Z" fill="#757575"/>
</g>
<defs>
<linearGradient id="paint0_linear_21_3544" x1="6.21859" y1="14.0698" x2="14.5718" y2="9.19034" gradientUnits="userSpaceOnUse">
<stop stop-color="#A52714" stop-opacity="0.6"/>
<stop offset="0.66" stop-color="#A52714" stop-opacity="0"/>
</linearGradient>
<linearGradient id="paint1_linear_21_3544" x1="19.1231" y1="25.611" x2="9.84186" y2="20.1742" gradientUnits="userSpaceOnUse">
<stop stop-color="#055524" stop-opacity="0.4"/>
<stop offset="0.33" stop-color="#055524" stop-opacity="0"/>
</linearGradient>
<linearGradient id="paint2_linear_21_3544" x1="15.0527" y1="9.80799" x2="17.39" y2="20.0429" gradientUnits="userSpaceOnUse">
<stop stop-color="#EA6100" stop-opacity="0.3"/>
<stop offset="0.66" stop-color="#EA6100" stop-opacity="0"/>
</linearGradient>
<linearGradient id="paint3_linear_21_3544" x1="19.6039" y1="8.76868" x2="21.9412" y2="19.0036" gradientUnits="userSpaceOnUse">
<stop stop-color="#EA6100" stop-opacity="0.3"/>
<stop offset="0.66" stop-color="#EA6100" stop-opacity="0"/>
</linearGradient>
<radialGradient id="paint4_radial_21_3544" cx="0" cy="0" r="1" gradientUnits="userSpaceOnUse" gradientTransform="translate(15.3939 9.62919) scale(13.3776)">
<stop stop-color="#3E2723" stop-opacity="0.2"/>
<stop offset="1" stop-color="#3E2723" stop-opacity="0"/>
</radialGradient>
<radialGradient id="paint5_radial_21_3544" cx="0" cy="0" r="1" gradientUnits="userSpaceOnUse" gradientTransform="translate(4.21079 8.44711) scale(12.4176)">
<stop stop-color="#3E2723" stop-opacity="0.2"/>
<stop offset="1" stop-color="#3E2723" stop-opacity="0"/>
</radialGradient>
<radialGradient id="paint6_radial_21_3544" cx="0" cy="0" r="1" gradientUnits="userSpaceOnUse" gradientTransform="translate(15.9771 16.0238) scale(13.981 13.981)">
<stop stop-color="#263238" stop-opacity="0.2"/>
<stop offset="1" stop-color="#263238" stop-opacity="0"/>
</radialGradient>
<radialGradient id="paint7_radial_21_3544" cx="0" cy="0" r="1" gradientUnits="userSpaceOnUse" gradientTransform="translate(6.18237 5.82085) scale(28.1227)">
<stop stop-color="white" stop-opacity="0.1"/>
<stop offset="1" stop-color="white" stop-opacity="0"/>
</radialGradient>
<clipPath id="clip0_21_3544">
<rect width="101.644" height="28" fill="white" transform="translate(2 2)"/>
</clipPath>
</defs>
</svg>
