<svg width="50" height="50" viewBox="0 0 50 50" fill="none" xmlns="http://www.w3.org/2000/svg">
<path d="M25.0011 3.13095C25.0011 3.13095 37.8952 2.5544 44.7313 15.4686H23.9039C23.9039 15.4686 19.9735 15.3423 16.616 20.0936C15.6514 22.0879 14.6147 24.1422 15.7781 28.1906C14.1021 25.3614 6.88049 12.8318 6.88049 12.8318C6.88049 12.8318 11.9744 3.6415 25.0011 3.13095Z" fill="#EF3F36"/>
<path d="M44.0619 35.915C44.0619 35.915 38.112 47.3336 23.476 46.7689C25.2844 43.6514 33.8924 28.7972 33.8924 28.7972C33.8924 28.7972 35.9722 25.4695 33.5188 20.1958C32.2708 18.3637 30.9988 16.4476 26.8999 15.4263C30.1974 15.3965 44.6949 15.4263 44.6949 15.4263C44.6949 15.4263 50.1261 24.4184 44.0619 35.915Z" fill="#FCD900"/>
<path d="M6.03023 36.0053C6.03023 36.0053 -0.920237 25.1632 6.89217 12.8136C8.69464 15.931 17.3028 30.7854 17.3028 30.7854C17.3028 30.7854 19.1595 34.2454 24.9645 34.7617C27.177 34.5996 29.4797 34.4615 32.4215 31.4401C30.7997 34.2995 23.5236 46.7931 23.5236 46.7931C23.5236 46.7931 12.9867 46.9854 6.03023 36.0053Z" fill="black"/>
<path d="M23.47 46.8771L26.3995 34.6958C26.3995 34.6958 29.6186 34.4433 32.3193 31.4943C30.6434 34.4316 23.47 46.8771 23.47 46.8771Z" fill="black"/>
<path d="M15.1873 25.1391C15.1873 19.7692 19.5578 15.4144 24.9467 15.4144C30.3358 15.4144 34.7062 19.7692 34.7062 25.1391C34.7062 30.5089 30.3358 34.8636 24.9467 34.8636C19.5578 34.8577 15.1873 30.5089 15.1873 25.1391Z" fill="white"/>
<path d="M16.8208 25.1393C16.8208 20.6704 20.456 17.0422 24.9469 17.0422C29.4317 17.0422 33.0728 20.6644 33.0728 25.1393C33.0728 29.6082 29.438 33.2363 24.9469 33.2363C20.4619 33.2363 16.8208 29.6082 16.8208 25.1393Z" fill="url(#paint0_linear_104_1256)"/>
<path d="M44.6888 15.4326L32.6266 18.9585C32.6266 18.9585 30.8061 16.2974 26.8939 15.4326C30.2877 15.4145 44.6888 15.4326 44.6888 15.4326Z" fill="#EACA05"/>
<path d="M15.543 27.7464C13.8489 24.8211 6.88049 12.8318 6.88049 12.8318L15.8142 21.6375C15.8142 21.6375 14.8978 23.5177 15.2416 26.2086L15.543 27.7464Z" fill="#DF3A32"/>
<defs>
<linearGradient id="paint0_linear_104_1256" x1="24.9464" y1="17.1566" x2="24.9464" y2="32.7488" gradientUnits="userSpaceOnUse">
<stop stop-color="#86BBE5"/>
<stop offset="1" stop-color="#1072BA"/>
</linearGradient>
</defs>
</svg>
