<svg width="32" height="32" viewBox="0 0 32 32" fill="none" xmlns="http://www.w3.org/2000/svg">
<g clip-path="url(#clip0_21_3685)">
<path d="M16 22.9969C19.866 22.9969 23 19.8629 23 15.9969C23 12.1309 19.866 8.99689 16 8.99689C12.134 8.99689 9 12.1309 9 15.9969C9 19.8629 12.134 22.9969 16 22.9969Z" fill="white"/>
<path d="M16.0021 8.99996H28.1245C26.8961 6.8716 25.129 5.10417 23.0009 3.87538C20.8728 2.6466 18.4586 1.99977 16.0012 1.99994C13.5438 2.00011 11.1298 2.64728 9.00181 3.87636C6.87385 5.10545 5.107 6.87312 3.87891 9.00166L9.94009 19.5L9.94551 19.4986C9.32893 18.4353 9.00355 17.2283 9.00217 15.9992C9.00079 14.7701 9.32345 13.5623 9.93765 12.4977C10.5518 11.433 11.4358 10.5491 12.5006 9.93506C13.5653 9.32099 14.773 8.99845 16.0021 8.99996Z" fill="url(#paint0_linear_21_3685)"/>
<path d="M15.9987 21.5416C19.0593 21.5416 21.5404 19.0606 21.5404 16C21.5404 12.9394 19.0593 10.4583 15.9987 10.4583C12.9381 10.4583 10.457 12.9394 10.457 16C10.457 19.0606 12.9381 21.5416 15.9987 21.5416Z" fill="#1A73E8"/>
<path d="M22.0598 19.5017L15.9986 30C18.456 30.0004 20.8702 29.3537 22.9984 28.1251C25.1266 26.8964 26.8938 25.1291 28.1224 23.0009C29.3509 20.8726 29.9975 18.4584 29.997 16.001C29.9966 13.5436 29.3492 11.1297 28.1199 9.00183H15.9976L15.9961 9.00726C17.2252 9.00489 18.4332 9.32659 19.4983 9.93994C20.5635 10.5533 21.4481 11.4366 22.063 12.5008C22.6779 13.5651 23.0014 14.7726 23.0008 16.0017C23.0003 17.2308 22.6757 18.438 22.0598 19.5017Z" fill="url(#paint1_linear_21_3685)"/>
<path d="M9.93737 19.5018L3.87619 9.00348C2.64718 11.1315 2.00009 13.5456 2 16.003C1.99991 18.4604 2.64681 20.8745 3.87566 23.0026C5.10452 25.1307 6.872 26.8977 9.0004 28.126C11.1288 29.3544 13.5431 30.0007 16.0005 30L22.0617 19.5017L22.0578 19.4977C21.4452 20.5633 20.5626 21.4486 19.4989 22.0644C18.4351 22.6801 17.2278 23.0045 15.9987 23.005C14.7696 23.0054 13.5621 22.6818 12.498 22.0667C11.4338 21.4517 10.5506 20.567 9.93737 19.5018Z" fill="url(#paint2_linear_21_3685)"/>
</g>
<defs>
<linearGradient id="paint0_linear_21_3685" x1="3.87891" y1="10.75" x2="28.1245" y2="10.75" gradientUnits="userSpaceOnUse">
<stop stop-color="#D93025"/>
<stop offset="1" stop-color="#EA4335"/>
</linearGradient>
<linearGradient id="paint1_linear_21_3685" x1="14.086" y1="29.8128" x2="26.2088" y2="8.81551" gradientUnits="userSpaceOnUse">
<stop stop-color="#FCC934"/>
<stop offset="1" stop-color="#FBBC04"/>
</linearGradient>
<linearGradient id="paint2_linear_21_3685" x1="17.5146" y1="29.1259" x2="5.39174" y2="8.12848" gradientUnits="userSpaceOnUse">
<stop stop-color="#1E8E3E"/>
<stop offset="1" stop-color="#34A853"/>
</linearGradient>
<clipPath id="clip0_21_3685">
<rect width="28" height="28" fill="white" transform="translate(2 2)"/>
</clipPath>
</defs>
</svg>
