<svg width="186" height="32" viewBox="0 0 186 32" fill="none" xmlns="http://www.w3.org/2000/svg">
<path d="M25.2554 19.5311V10.417L26.2 8.45063L30.9242 4.70731C31.5539 4.17881 32.4986 4.62266 32.4986 5.44705V23.337C32.4986 24.1618 31.533 24.606 30.9028 24.0771L25.2554 19.5311Z" fill="#00AC47"/>
<path d="M9.62397 2L1.99951 9.62621H9.62397V2Z" fill="#EA4335"/>
<path d="M9.62397 9.62622H1.99951V19.5403H9.62397V9.62622Z" fill="#2684FC"/>
<path d="M1.99951 19.5403V24.6243C1.99951 26.0226 3.14318 27.1665 4.54112 27.1665H9.62397V19.5403H1.99951Z" fill="#0066DA"/>
<path d="M26.2077 4.51283C26.2077 3.13096 25.0884 2 23.7202 2H9.62451V9.62619H18.9645V14.5832L26.2077 14.3552V4.51283Z" fill="#FFBA00"/>
<path d="M18.9645 19.5403H9.62451V27.1665H23.7202C25.0884 27.1665 26.2077 26.0374 26.2077 24.6574V14.5833H18.9645V19.5403Z" fill="#00AC47"/>
<path d="M26.2056 8.4823V20.3029L18.9624 14.5833L26.2056 8.4823Z" fill="#00832D"/>
<path d="M133.178 23.8125H130.933V6.3393H133.178L139.253 16.9794H139.351L145.426 6.3393H147.67V23.8125H145.426V13.4408L145.523 10.5124H145.426L139.961 20.1031H138.643L133.178 10.5124H133.08L133.178 13.4408V23.8125ZM156.163 24.2029C154.406 24.2029 152.959 23.6008 151.82 22.397C150.681 21.1932 150.112 19.6718 150.112 17.8335C150.112 16.0112 150.665 14.4982 151.771 13.2944C152.877 12.0742 154.292 11.4641 156.017 11.4641C157.79 11.4641 159.196 12.0418 160.237 13.1968C161.295 14.3358 161.823 15.9384 161.823 18.0043L161.799 18.2484H152.406C152.438 19.4198 152.828 20.3635 153.577 21.0792C154.325 21.7949 155.219 22.153 156.26 22.153C157.692 22.153 158.814 21.4373 159.627 20.0055L161.628 20.9816C161.091 21.9902 160.343 22.7795 159.383 23.3488C158.44 23.9181 157.366 24.2029 156.163 24.2029ZM152.576 16.3937H159.432C159.367 15.564 159.025 14.8806 158.408 14.3438C157.806 13.7909 156.992 13.514 155.968 13.514C155.122 13.514 154.39 13.7745 153.772 14.295C153.17 14.8154 152.772 15.5151 152.576 16.3937ZM169.363 24.2029C167.606 24.2029 166.159 23.6008 165.02 22.397C163.881 21.1932 163.312 19.6718 163.312 17.8335C163.312 16.0112 163.865 14.4982 164.971 13.2944C166.077 12.0742 167.492 11.4641 169.216 11.4641C170.989 11.4641 172.396 12.0418 173.437 13.1968C174.494 14.3358 175.023 15.9384 175.023 18.0043L174.999 18.2484H165.605C165.638 19.4198 166.028 20.3635 166.777 21.0792C167.525 21.7949 168.419 22.153 169.46 22.153C170.892 22.153 172.014 21.4373 172.827 20.0055L174.828 20.9816C174.291 21.9902 173.543 22.7795 172.583 23.3488C171.64 23.9181 170.566 24.2029 169.363 24.2029ZM165.776 16.3937H172.632C172.567 15.564 172.225 14.8806 171.607 14.3438C171.005 13.7909 170.192 13.514 169.168 13.514C168.322 13.514 167.59 13.7745 166.972 14.295C166.37 14.8154 165.971 15.5151 165.776 16.3937ZM181.452 24.0077C180.476 24.0077 179.663 23.7065 179.012 23.1047C178.378 22.5027 178.052 21.6649 178.036 20.5911V13.9045H175.938V11.8546H178.036V8.19399H180.281V11.8546H183.208V13.9045H180.281V19.859C180.281 20.656 180.435 21.2012 180.744 21.4941C181.053 21.7705 181.403 21.909 181.793 21.909C181.972 21.909 182.143 21.8926 182.306 21.8601C182.472 21.8156 182.635 21.7585 182.794 21.6893L183.501 23.6904C182.916 23.9021 182.232 24.0077 181.452 24.0077ZM56.9257 16.4089V13.7413H65.852C65.9431 14.2114 65.9969 14.7708 65.9969 15.3767C65.9969 17.3775 65.4491 19.8541 63.6878 21.6169C61.9735 23.4029 59.7837 24.3554 56.8796 24.3554C51.4994 24.3554 46.9766 19.973 46.9766 14.5905C46.9766 9.2079 51.4994 4.8255 56.8796 4.8255C59.855 4.8255 61.9735 5.99269 63.5689 7.51717L61.6879 9.39893C60.545 8.32669 58.998 7.49353 56.8796 7.49353C52.9518 7.49353 49.8807 10.6611 49.8807 14.5909C49.8807 18.5206 52.9518 21.6886 56.8796 21.6886C59.4269 21.6886 60.879 20.6644 61.8069 19.7355C62.5636 18.979 63.0615 17.893 63.2551 16.4093L56.9257 16.4089ZM79.5993 18.0684C79.5993 21.6886 76.7664 24.3562 73.2908 24.3562C69.8152 24.3562 66.9824 21.6886 66.9824 18.0684C66.9824 14.4242 69.8152 11.7806 73.2908 11.7806C76.7668 11.7806 79.5993 14.4238 79.5993 18.0684ZM76.8381 18.0684C76.8381 15.8053 75.1958 14.2576 73.2912 14.2576C71.387 14.2576 69.7439 15.8057 69.7439 18.0684C69.7439 20.3067 71.3862 21.8788 73.2912 21.8788C75.1958 21.8788 76.8381 20.3071 76.8381 18.0684ZM93.3611 18.0684C93.3611 21.6886 90.5282 24.3562 87.0526 24.3562C83.577 24.3562 80.7441 21.6886 80.7441 18.0684C80.7441 14.4242 83.577 11.7806 87.0526 11.7806C90.5286 11.7806 93.3611 14.4238 93.3611 18.0684ZM90.5999 18.0684C90.5999 15.8053 88.9576 14.2576 87.053 14.2576C85.1488 14.2576 83.5057 15.8057 83.5057 18.0684C83.5057 20.3067 85.1484 21.8788 87.053 21.8788C88.9576 21.8788 90.5999 20.3071 90.5999 18.0684ZM106.552 12.1611V23.4502C106.552 28.0946 103.815 30 100.577 30C97.5297 30 95.6972 27.9516 95.0064 26.2849L97.4108 25.2843C97.8393 26.3085 98.8865 27.523 100.577 27.523C102.648 27.523 103.933 26.2368 103.933 23.8315V22.9263H103.838C103.219 23.6881 102.029 24.3551 100.529 24.3551C97.3868 24.3551 94.5062 21.6161 94.5062 18.0913C94.5062 14.5424 97.3868 11.7798 100.529 11.7798C102.029 11.7798 103.219 12.4467 103.838 13.1853H103.933V12.1611H106.552ZM104.124 18.0917C104.124 15.8766 102.648 14.2572 100.767 14.2572C98.8629 14.2572 97.2674 15.8766 97.2674 18.0917C97.2674 20.2827 98.8625 21.8788 100.767 21.8788C102.648 21.8788 104.124 20.2823 104.124 18.0917ZM111.229 5.55457V23.9749H108.468V5.55457H111.229ZM121.893 20.1397L124.035 21.5684C123.344 22.5926 121.678 24.3551 118.798 24.3551C115.227 24.3551 112.561 21.5921 112.561 18.0673C112.561 14.3281 115.25 11.7795 118.488 11.7795C121.75 11.7795 123.344 14.3758 123.868 15.7809L124.154 16.4955L115.75 19.9727C116.393 21.2348 117.393 21.8781 118.798 21.8781C120.202 21.8788 121.178 21.1879 121.893 20.1397ZM115.298 17.8774L120.916 15.5437C120.606 14.7579 119.678 14.2099 118.583 14.2099C117.179 14.2095 115.227 15.448 115.298 17.8774Z" fill="#5F6368"/>
</svg>
