<svg width="32" height="32" viewBox="0 0 32 32" fill="none" xmlns="http://www.w3.org/2000/svg">
<g clip-path="url(#clip0_125_1576)">
<path d="M17.8403 16.4806L20.57 19.5902L24.2408 21.9278L24.8794 16.5002L24.2408 11.1951L20.4997 13.2486L17.8403 16.4806Z" fill="#00832D"/>
<path d="M2.00049 21.4227V26.0478C2.00049 27.1038 2.86061 27.9612 3.92046 27.9612H8.56124L9.52221 24.4666L8.56124 21.4227L5.37733 20.465L2.00049 21.4227Z" fill="#0066DA"/>
<path d="M8.56124 5L2.00049 11.5385L5.37755 12.494L8.56124 11.5385L9.50471 8.536L8.56124 5Z" fill="#E94235"/>
<path d="M2.00049 21.4247H8.56113V11.5385H2.00049V21.4247Z" fill="#2684FC"/>
<path d="M28.4319 7.76849L24.2407 11.1952V21.9278L28.4491 25.3677C29.0791 25.8596 30.0007 25.4113 30.0007 24.6132V8.50776C30.0007 7.7008 29.0572 7.25475 28.4318 7.7686" fill="#00AC47"/>
<path d="M17.8404 16.4806V21.4226H8.56128V27.9612H22.3211C23.3809 27.9612 24.241 27.1038 24.241 26.0477V21.9278L17.8404 16.4806Z" fill="#00AC47"/>
<path d="M22.3211 5H8.56128V11.5385H17.8404V16.4806L24.2411 11.195V6.91358C24.2411 5.85732 23.3809 5.00011 22.3211 5.00011" fill="#FFBA00"/>
</g>
<defs>
<clipPath id="clip0_125_1576">
<rect width="28" height="23" fill="white" transform="translate(2.00049 5)"/>
</clipPath>
</defs>
</svg>
