<svg width="136" height="32" viewBox="0 0 136 32" fill="none" xmlns="http://www.w3.org/2000/svg">
<path d="M133.151 14.6666V12.3601H130.287V8.77436L130.191 8.80404L127.5 9.62718L127.447 9.64329V12.3602H123.201V10.8467C123.201 10.1419 123.359 9.60257 123.669 9.24289C123.978 8.88752 124.419 8.70686 124.981 8.70686C125.386 8.70686 125.805 8.80214 126.226 8.99004L126.332 9.03723V6.60816L126.282 6.58989C125.889 6.44855 125.354 6.37738 124.691 6.37738C123.856 6.37738 123.097 6.55919 122.435 6.9195C121.772 7.28032 121.251 7.79542 120.886 8.45033C120.523 9.10447 120.338 9.85999 120.338 10.6961V12.3601H118.344V14.6666H120.338V24.3836H123.201V14.6666H127.447V20.8416C127.447 23.3847 128.647 24.6735 131.013 24.6735C131.401 24.6735 131.81 24.6279 132.228 24.5387C132.654 24.4471 132.943 24.3556 133.114 24.2579L133.151 24.2356V21.9078L133.035 21.9848C132.88 22.0883 132.686 22.173 132.459 22.2359C132.231 22.2999 132.041 22.332 131.894 22.332C131.339 22.332 130.929 22.1827 130.675 21.888C130.418 21.5906 130.287 21.0706 130.287 20.3431V14.6666H133.151ZM111.95 22.3324C110.911 22.3324 110.091 21.9878 109.514 21.3091C108.933 20.6269 108.639 19.6543 108.639 18.4186C108.639 17.1437 108.933 16.1458 109.514 15.4516C110.092 14.7619 110.903 14.4119 111.926 14.4119C112.919 14.4119 113.709 14.7462 114.276 15.406C114.844 16.0693 115.133 17.0592 115.133 18.3489C115.133 19.6546 114.862 20.6575 114.326 21.3284C113.795 21.9942 112.995 22.3324 111.95 22.3324M112.077 12.0705C110.094 12.0705 108.52 12.6514 107.397 13.7972C106.275 14.9431 105.706 16.5288 105.706 18.5108C105.706 20.3933 106.261 21.9075 107.357 23.0107C108.452 24.1142 109.943 24.6732 111.787 24.6732C113.709 24.6732 115.252 24.0841 116.375 22.9225C117.497 21.7621 118.065 20.1914 118.065 18.2557C118.065 16.3437 117.532 14.8182 116.479 13.7225C115.426 12.6262 113.945 12.0705 112.077 12.0705M101.09 12.0705C99.741 12.0705 98.6255 12.4154 97.7733 13.0956C96.9159 13.7798 96.481 14.6772 96.481 15.763C96.481 16.3275 96.5749 16.8289 96.7596 17.2542C96.9454 17.6808 97.2331 18.0565 97.6152 18.3718C97.9944 18.6845 98.5798 19.0121 99.3555 19.3454C100.008 19.6137 100.494 19.8407 100.803 20.0196C101.105 20.1949 101.319 20.3711 101.44 20.5428C101.558 20.7108 101.617 20.9407 101.617 21.2243C101.617 22.0321 101.012 22.4252 99.7677 22.4252C99.306 22.4252 98.7794 22.3287 98.2025 22.1387C97.6297 21.9515 97.0891 21.6774 96.5996 21.326L96.4807 21.2407V23.9972L96.5244 24.0175C96.9295 24.2045 97.4402 24.3622 98.0422 24.4863C98.6431 24.6105 99.189 24.6737 99.6633 24.6737C101.127 24.6737 102.305 24.3271 103.165 23.6429C104.031 22.954 104.469 22.0354 104.469 20.912C104.469 20.1015 104.233 19.4065 103.768 18.846C103.305 18.2901 102.503 17.7797 101.384 17.3285C100.493 16.9707 99.922 16.6737 99.6864 16.4457C99.4593 16.2255 99.3439 15.914 99.3439 15.5196C99.3439 15.1699 99.4863 14.8898 99.7785 14.6629C100.073 14.435 100.483 14.319 100.997 14.319C101.474 14.319 101.962 14.3944 102.447 14.542C102.932 14.6897 103.359 14.8875 103.714 15.1295L103.831 15.2094V12.5946L103.786 12.5753C103.458 12.4346 103.025 12.3142 102.5 12.2165C101.977 12.1194 101.502 12.0705 101.09 12.0705M89.017 22.3324C87.9781 22.3324 87.1585 21.9878 86.5812 21.3091C86.0001 20.6269 85.7063 19.6546 85.7063 18.4186C85.7063 17.1437 86.0005 16.1458 86.5819 15.4516C87.1591 14.7619 87.9705 14.4119 88.9941 14.4119C89.9864 14.4119 90.7767 14.7462 91.3429 15.406C91.912 16.0693 92.2006 17.0592 92.2006 18.3489C92.2006 19.6546 91.929 20.6575 91.3936 21.3284C90.8619 21.9942 90.0627 22.3324 89.017 22.3324M89.1446 12.0705C87.1615 12.0705 85.5867 12.6514 84.4645 13.7972C83.3425 14.9431 82.7732 16.5288 82.7732 18.5108C82.7732 20.3941 83.3289 21.9075 84.4243 23.0107C85.5197 24.1142 87.0103 24.6732 88.8546 24.6732C90.7762 24.6732 92.32 24.0841 93.4423 22.9225C94.5642 21.7621 95.133 20.1914 95.133 18.2557C95.133 16.3437 94.5993 14.8182 93.5464 13.7225C92.493 12.6262 91.0119 12.0705 89.1446 12.0705M78.4271 14.4423V12.3601H75.5989V24.3833H78.4271V18.233C78.4271 17.1872 78.6642 16.328 79.1321 15.6791C79.5941 15.0379 80.2096 14.7129 80.9612 14.7129C81.216 14.7129 81.5019 14.7549 81.8116 14.838C82.1181 14.9206 82.3402 15.0103 82.4711 15.1047L82.59 15.1909V12.3396L82.5442 12.3199C82.2808 12.208 81.9082 12.1515 81.4367 12.1515C80.726 12.1515 80.09 12.3799 79.5452 12.8295C79.067 13.2247 78.7214 13.7666 78.4572 14.4423H78.4271ZM70.5341 12.0705C69.2366 12.0705 68.0792 12.3487 67.0948 12.8972C66.1084 13.4469 65.3455 14.2317 64.8265 15.2297C64.3098 16.2252 64.0474 17.3881 64.0474 18.685C64.0474 19.821 64.3018 20.8635 64.8046 21.7823C65.3076 22.7026 66.0196 23.4226 66.9209 23.922C67.8209 24.4207 68.8611 24.6736 70.0129 24.6736C71.357 24.6736 72.5045 24.4049 73.4246 23.8749L73.4617 23.8536V21.2625L73.3429 21.3493C72.9261 21.6529 72.4603 21.8952 71.9592 22.0698C71.4593 22.2443 71.0036 22.3324 70.604 22.3324C69.4942 22.3324 68.6033 21.9852 67.9567 21.3006C67.3086 20.6151 66.98 19.6525 66.98 18.4413C66.98 17.2224 67.3227 16.2351 67.998 15.5066C68.6713 14.7803 69.5639 14.4119 70.6507 14.4119C71.5802 14.4119 72.4861 14.7266 73.3431 15.3483L73.4617 15.4344V12.7043L73.4234 12.6827C73.1009 12.5022 72.6611 12.3531 72.115 12.2401C71.5712 12.1273 71.0394 12.0705 70.5341 12.0705M62.0995 12.3602H59.2713V24.3833H62.0995V12.3602V12.3602ZM60.7144 7.23833C60.2489 7.23833 59.8429 7.39679 59.5094 7.7108C59.1744 8.02569 59.0045 8.42216 59.0045 8.89006C59.0045 9.3506 59.1724 9.73984 59.5041 10.0464C59.8338 10.352 60.241 10.5069 60.7145 10.5069C61.1879 10.5069 61.5966 10.352 61.9302 10.0469C62.2659 9.73984 62.4361 9.35073 62.4361 8.89006C62.4361 8.43853 62.2704 8.04612 61.944 7.72348C61.6178 7.40148 61.204 7.23833 60.7144 7.23833ZM53.6578 11.4732V24.3833H56.5441V7.60638H52.5493L47.4717 20.0678L42.5442 7.60638H38.3867V24.3832H41.0991V11.4719H41.1922L46.3956 24.3833H48.4425L53.5647 11.4732H53.6578V11.4732Z" fill="#706D6E"/>
<path d="M15.3047 15.3047H2V2H15.3047V15.3047Z" fill="#F1511B"/>
<path d="M29.992 15.3047H16.6875V2H29.992V15.3047Z" fill="#80CC28"/>
<path d="M15.3043 30H2V16.6954H15.3043V30Z" fill="#00ADEF"/>
<path d="M29.992 30H16.6875V16.6954H29.992V30Z" fill="#FBBC09"/>
</svg>
