<svg width="97" height="32" viewBox="0 0 97 32" fill="none" xmlns="http://www.w3.org/2000/svg">
<path d="M55.6173 21.1147C57.3705 20.9068 61.2051 20.4519 61.8888 21.3286C62.58 22.2138 61.1221 25.8541 60.4703 27.4814L60.4692 27.4843C60.271 27.9777 60.6956 28.1759 61.1405 27.8038C64.0404 25.3812 64.7846 20.3053 64.1941 19.5733C63.6036 18.8453 58.5399 18.2184 55.454 20.3903C54.9767 20.7219 55.0576 21.183 55.5875 21.1183L55.6173 21.1147Z" fill="#FF9900"/>
<path d="M39.6804 30C46.4185 30 54.2446 27.8766 59.644 23.8968C60.5378 23.2335 59.7734 22.2467 58.8594 22.635C52.8088 25.2032 46.2284 26.4408 40.2467 26.4408C31.3771 26.4408 22.7906 24.0101 15.8463 19.9696C15.2396 19.6137 14.7866 20.2366 15.2922 20.6936C21.7269 26.5055 30.2325 30 39.6804 30Z" fill="#FF9900"/>
<path fill-rule="evenodd" clip-rule="evenodd" d="M51.0718 18.1901C50.8817 18.36 50.6067 18.3721 50.3923 18.2588C49.58 17.5842 49.333 17.2171 48.9559 16.6565C48.8899 16.5584 48.8199 16.4544 48.7422 16.3418C47.1648 17.9515 46.0445 18.4328 44.002 18.4328C41.5794 18.4328 39.6987 16.9403 39.6987 13.9515C39.6987 11.6178 40.9606 10.0283 42.7644 9.25177C44.0734 8.67529 45.8173 8.49686 47.3288 8.34221C47.62 8.31241 47.9027 8.28349 48.1719 8.25278V7.88069C48.1719 7.8111 48.1724 7.74021 48.173 7.66838C48.1779 7.03472 48.1833 6.32815 47.82 5.79778C47.4722 5.26795 46.8008 5.04954 46.2063 5.04954C45.1102 5.04954 44.1355 5.61173 43.8969 6.77654C43.8483 7.03539 43.6582 7.29019 43.3954 7.30232L40.6087 7.00303C40.3741 6.95046 40.1112 6.76036 40.18 6.40041C40.819 3.01921 43.8766 2 46.6107 2C48.0101 2 49.8382 2.37209 50.9424 3.43175C52.2288 4.63269 52.2198 6.20278 52.21 7.92207C52.2092 8.073 52.2083 8.22508 52.2083 8.37816V12.8595C52.2083 14.0619 52.6532 14.6615 53.1227 15.2943C53.1791 15.3703 53.2359 15.4467 53.2922 15.5248C53.4742 15.7836 53.5147 16.095 53.2801 16.2892C52.6936 16.7786 51.6501 17.6886 51.0758 18.1982L51.0718 18.1901ZM48.1719 11.181C48.1719 11.2323 48.172 11.2832 48.172 11.3337C48.1732 12.387 48.1743 13.2811 47.634 14.2305C47.1769 15.0394 46.4489 15.5369 45.6441 15.5369C44.5399 15.5369 43.8928 14.6956 43.8928 13.454C43.8928 11.003 46.089 10.5581 48.1719 10.5581V11.181Z" fill="black"/>
<path d="M18.3519 18.2305H21.2275C21.5349 18.2305 21.7816 17.9919 21.7816 17.6967V9.87462C21.7816 9.81337 21.7815 9.75128 21.7814 9.68848C21.7785 8.00136 21.7749 5.80587 23.7674 5.80587C25.6014 5.80587 25.5701 7.75924 25.5446 9.34976C25.5417 9.53047 25.5389 9.70668 25.5389 9.87462L25.543 17.6967C25.543 17.9798 25.7695 18.2103 26.0607 18.2305H28.9322C29.2396 18.2305 29.4863 17.9919 29.4863 17.6967V9.87462C29.4863 9.8093 29.4862 9.74148 29.486 9.67162C29.4839 8.84607 29.4811 7.73364 29.7533 7.04753C30.0485 6.30334 30.7765 5.83822 31.4722 5.83822C32.3053 5.83822 32.9484 6.1173 33.1628 7.10819C33.2735 7.5835 33.2584 8.68247 33.2483 9.41797C33.2458 9.59622 33.2437 9.75312 33.2437 9.87462V17.6967C33.2437 17.9798 33.4742 18.2103 33.7614 18.2305H36.633C36.9403 18.2305 37.187 17.9919 37.187 17.6967L37.1911 8.38221C37.1911 8.15509 37.1949 7.92338 37.1988 7.68941L37.1988 7.68905C37.2219 6.29402 37.2464 4.81855 36.4671 3.75531C35.6623 2.63903 34.3438 2.14156 33.1385 2.14156C31.4439 2.14156 29.8625 3.01113 29.1668 4.87564C28.3579 3.01113 27.2336 2.14156 25.4338 2.14156C23.6623 2.14156 22.3478 3.01113 21.6481 4.87564H21.5955V2.94641C21.5753 2.67948 21.3529 2.46511 21.0738 2.45299H18.3923C18.0849 2.45299 17.8382 2.68757 17.8382 2.98282V17.7411C17.8584 18.004 18.0768 18.2103 18.3519 18.2305Z" fill="black"/>
<path d="M55.7067 2.9464V5.05762C55.7067 5.3731 55.9494 5.58745 56.2527 5.58745H61.191L55.5166 13.725C55.1728 14.2467 55.1688 14.8332 55.1688 15.1769V17.3165C55.1688 17.6239 55.5126 17.9798 55.8402 17.8018C59.0556 16.095 62.918 16.2609 65.826 17.7856C66.1819 17.9717 66.5217 17.6117 66.5217 17.3043V15.0516C66.4934 14.7482 66.3923 14.4408 66.0202 14.2305C64.37 13.3003 62.4489 13.0293 60.6289 13.0738L65.5267 6.08088C65.9797 5.45398 66.2345 5.05762 66.2386 4.75429V2.9464C66.2386 2.63093 65.9959 2.41253 65.6926 2.41253H56.2406C55.9494 2.41253 55.7067 2.62689 55.7067 2.9464Z" fill="black"/>
<path fill-rule="evenodd" clip-rule="evenodd" d="M74.3761 2.14156C78.643 2.14156 80.9524 5.80587 80.9524 10.4651C80.9524 14.9666 78.4004 18.5379 74.3761 18.5379C70.186 18.5379 67.9049 14.8736 67.9049 10.3074C67.9049 5.71284 70.2143 2.14156 74.3761 2.14156ZM74.4004 5.15471C72.2811 5.15471 72.1476 8.04247 72.1476 9.84227L72.1476 9.90851C72.1472 11.7386 72.1465 15.4965 74.3761 15.4965C76.6046 15.4965 76.7098 12.3903 76.7098 10.4975C76.7098 9.25177 76.6572 7.7634 76.2811 6.58241C75.9575 5.55511 75.3144 5.15471 74.4004 5.15471Z" fill="black"/>
<path d="M83.6218 18.2305H86.4853C86.7927 18.2305 87.0435 17.9919 87.0475 17.6967V9.74924C87.0475 8.7543 87.1001 7.85642 87.5045 6.9545C87.824 6.24267 88.4671 5.77351 89.1668 5.77351C90.9996 5.77351 90.9824 7.78553 90.9688 9.36432C90.9677 9.49612 90.9666 9.6249 90.9666 9.74924V17.7654C90.9949 18.0162 91.2133 18.2103 91.4762 18.2305H94.3599C94.643 18.2305 94.8817 18.0243 94.914 17.7654V8.47523C94.914 7.04753 94.914 5.06168 94.1618 3.88069C93.3529 2.60668 92.095 2.14156 90.8048 2.14156C88.819 2.14156 87.6906 3.10415 86.8857 5.12235H86.8331V2.86553C86.7765 2.63499 86.5702 2.46511 86.3195 2.45299H83.6542C83.363 2.45299 83.1243 2.6633 83.1001 2.93428L83.1041 17.6967C83.1041 17.9798 83.3347 18.2103 83.6218 18.2305Z" fill="black"/>
<path fill-rule="evenodd" clip-rule="evenodd" d="M12.6936 18.2589C12.908 18.3721 13.183 18.36 13.3731 18.1901L13.3812 18.1982C13.9555 17.6886 14.999 16.7786 15.5854 16.2892C15.82 16.0951 15.7796 15.7836 15.5935 15.5248C15.5372 15.4468 15.4804 15.3703 15.424 15.2943C14.9545 14.6615 14.5096 14.0619 14.5096 12.8595V8.37818C14.5096 8.2251 14.5105 8.07302 14.5113 7.92208C14.5212 6.2028 14.5301 4.63271 13.2437 3.43177C12.1395 2.37212 10.3114 2.00002 8.91203 2.00002C6.17795 2.00002 3.12437 3.01924 2.48129 6.40043C2.41658 6.76039 2.67543 6.95048 2.91001 7.00305L5.70071 7.30235C5.95955 7.29022 6.14964 7.03541 6.19818 6.77656C6.4368 5.61175 7.41557 5.04957 8.51162 5.04957C9.10212 5.04957 9.7735 5.26797 10.1254 5.7978C10.4847 6.3277 10.4792 7.03347 10.4743 7.6667C10.4738 7.73911 10.4732 7.81057 10.4732 7.88071V8.2528C10.204 8.28352 9.92135 8.31243 9.63009 8.34223C8.11861 8.49688 6.37466 8.67531 5.06572 9.25179C3.26592 10.0283 2 11.6178 2 13.9515C2 16.9404 3.88473 18.4328 6.30333 18.4328C8.34985 18.4328 9.46612 17.9515 11.0435 16.3418C11.1267 16.4615 11.201 16.5715 11.2709 16.675C11.6427 17.2253 11.8902 17.5916 12.6936 18.2589ZM10.4733 11.3337C10.4733 11.2832 10.4732 11.2323 10.4732 11.181V10.5582C8.39433 10.5582 6.19818 11.0031 6.19818 13.454C6.19818 14.6957 6.84125 15.5369 7.9454 15.5369C8.75429 15.5369 9.47826 15.0395 9.93528 14.2306C10.4756 13.2812 10.4745 12.387 10.4733 11.3337Z" fill="black"/>
</svg>
