<svg width="32" height="32" viewBox="0 0 32 32" fill="none" xmlns="http://www.w3.org/2000/svg">
<path fill-rule="evenodd" clip-rule="evenodd" d="M10.5769 12.4967C9.99932 13.328 9.71053 14.3292 9.71053 15.5018H9.70703C9.70703 16.979 10.1271 18.1219 10.9672 18.927C11.8073 19.7321 12.8819 20.1346 14.1876 20.1346C15.0364 20.1346 15.7505 20.0506 16.3281 19.8791C17.2435 19.6236 18.1763 18.9795 19.1285 17.9434C19.1967 18.0291 19.3157 18.1936 19.4873 18.4422C19.6553 18.689 19.7778 18.8517 19.8548 18.9392C19.9301 19.0233 20.0578 19.1598 20.2363 19.3453C20.4149 19.5326 20.6214 19.7286 20.8594 19.9316C21.1482 20.0506 21.395 20.0331 21.598 19.8791C21.717 19.7776 22.4801 19.1178 23.8908 17.8926C24.0273 17.7911 24.0938 17.6721 24.0938 17.5373C24.0938 17.4183 24.0431 17.2818 23.9416 17.1295L23.357 16.3524C23.238 16.1914 23.112 15.9289 22.9894 15.5613C22.8599 15.199 22.7969 14.7965 22.7969 14.3537V8.1929C22.7969 8.12639 22.7899 7.90936 22.7724 7.54532C22.7549 7.18127 22.7304 6.94149 22.6954 6.83123C22.6639 6.72097 22.6114 6.52144 22.5414 6.23615C22.4749 5.94562 22.4014 5.72509 22.3139 5.57107C22.2316 5.41705 22.1143 5.24553 21.9691 5.04951C21.8238 4.85523 21.668 4.67146 21.5 4.50169C20.4114 3.50056 18.9009 3 16.9669 3H16.3316C14.8229 3.08401 13.5015 3.49181 12.3726 4.22165C11.2455 4.95149 10.5366 6.07163 10.2478 7.58207C10.2303 7.65033 10.2216 7.70809 10.2216 7.7606C10.2216 7.99862 10.3669 8.15089 10.6539 8.2209L13.582 8.57795C13.8533 8.52719 14.0231 8.33117 14.0931 7.99162C14.2103 7.44906 14.4729 7.02375 14.8807 6.71746C15.2885 6.40943 15.7733 6.2344 16.3334 6.1819H16.5311C17.296 6.1819 17.856 6.43743 18.2113 6.94849C18.4476 7.31954 18.5701 8.05113 18.5701 9.13627V9.56857C17.534 9.65258 16.7849 9.71909 16.3299 9.7716C14.9892 9.94137 13.8603 10.2214 12.9449 10.6117C11.9421 11.037 11.1545 11.6653 10.5769 12.4967ZM14.5849 16.5834C14.2541 16.1809 14.0896 15.6523 14.0896 14.9907L14.0878 14.9925C14.0878 13.5328 14.8334 12.5912 16.3281 12.1676C16.8357 12.0329 17.583 11.9629 18.5684 11.9629V12.5982C18.5684 13.1408 18.5649 13.5328 18.5561 13.7708C18.5474 14.0089 18.4966 14.3187 18.4039 14.6985C18.3094 15.08 18.1693 15.4318 17.9838 15.7556C17.5935 16.4854 17.0404 16.9422 16.3299 17.1295C16.2949 17.1295 16.2301 17.1383 16.1373 17.1558C16.0428 17.1715 15.9728 17.1785 15.9203 17.1785C15.3602 17.1785 14.9174 16.9807 14.5849 16.5834Z" fill="#221F1F"/>
<path d="M24.9331 22.9841C24.8683 23.0523 24.8158 23.1188 24.7808 23.1888V23.1923C24.7633 23.2256 24.7563 23.2501 24.7563 23.2676C24.7388 23.3026 24.7458 23.3341 24.7808 23.3691C24.8158 23.4041 24.8805 23.4216 24.9856 23.4216C25.3409 23.3709 25.7312 23.3219 26.1582 23.2693C26.5468 23.2343 26.8863 23.2168 27.1733 23.2168C27.9557 23.2168 28.43 23.3201 28.5998 23.5214C28.6663 23.6054 28.7013 23.7419 28.7013 23.9292C28.7013 24.5068 28.3897 25.5324 27.7597 27.0096C27.7089 27.1443 27.7317 27.2371 27.8367 27.2896C27.8682 27.3054 27.9032 27.3141 27.9382 27.3141C28.0064 27.3141 28.0817 27.2826 28.1692 27.2126C28.7433 26.7208 29.1931 26.0697 29.5169 25.2646C29.8389 24.4595 29.9999 23.7594 29.9999 23.1643V22.9858C29.9999 22.7828 29.9684 22.6305 29.8984 22.5308C29.7479 22.3417 29.2876 22.2157 28.5228 22.1457C28.3722 22.1125 28.2095 22.102 28.0397 22.1195C27.4289 22.137 26.8005 22.2315 26.1582 22.3995C25.7662 22.501 25.3584 22.697 24.9331 22.9841Z" fill="#FF9900"/>
<path d="M2.45856 22.7302C2.27128 22.6112 2.13652 22.6199 2.05251 22.7564C2.0175 22.8072 2 22.8562 2 22.9087C2 22.9927 2.05251 23.0802 2.15577 23.1625C4.02325 24.8427 6.13402 26.1466 8.49681 27.0707C10.8544 27.9948 13.3572 28.4587 16.0053 28.4587C17.7205 28.4587 19.4759 28.2189 21.2734 27.7463C23.0726 27.2703 24.7021 26.5999 26.16 25.7336C26.6361 25.4465 27.0264 25.191 27.3327 24.9705C27.5689 24.8007 27.6162 24.6134 27.4727 24.4104C27.3274 24.2056 27.1279 24.1566 26.8724 24.2581C26.8113 24.2879 26.7137 24.3303 26.5784 24.3891L26.5293 24.4104L26.1618 24.5627C22.9186 25.8018 19.6335 26.4231 16.308 26.4231C11.3182 26.4231 6.70109 25.191 2.45856 22.7302Z" fill="#FF9900"/>
</svg>
