<svg width="88" height="32" viewBox="0 0 88 32" fill="none" xmlns="http://www.w3.org/2000/svg">
<g clip-path="url(#clip0_21_3824)">
<path d="M28.5726 11.3908C27.9832 9.97262 26.7876 8.44137 25.8514 7.95732C26.5192 9.25062 26.9826 10.6396 27.2251 12.0747L27.2276 12.0975C25.6939 8.27372 23.093 6.73197 20.9689 3.37477C20.8614 3.20502 20.754 3.03492 20.6493 2.85537C20.5895 2.75282 20.5415 2.66042 20.4999 2.57537C20.4118 2.40477 20.3439 2.22447 20.2976 2.03812C20.2976 2.02953 20.2945 2.0212 20.2889 2.01475C20.2832 2.00829 20.2753 2.00416 20.2668 2.00312C20.2584 2.00083 20.2496 2.00083 20.2412 2.00312C20.2395 2.00312 20.2367 2.00627 20.2346 2.00697C20.2325 2.00767 20.2279 2.01082 20.2248 2.01222L20.23 2.00312C16.8228 3.99812 15.6667 7.69132 15.5603 9.53862C14.1996 9.63216 12.8987 10.1336 11.8272 10.9775C11.7154 10.8828 11.5986 10.7942 11.4772 10.7122C11.1681 9.6303 11.155 8.48532 11.4391 7.39662C10.1878 8.0028 9.07598 8.86209 8.17393 9.92012H8.16763C7.63003 9.23867 7.66783 6.99167 7.69863 6.52232C7.53959 6.58624 7.38778 6.66684 7.24573 6.76277C6.77115 7.10149 6.32748 7.48156 5.91993 7.89852C5.45552 8.36939 5.03135 8.87832 4.65188 9.41997V9.42207V9.41962C3.77977 10.656 3.1612 12.0529 2.83188 13.5297L2.81368 13.6193C2.78813 13.7386 2.69608 14.3364 2.68033 14.4663C2.68033 14.4764 2.67823 14.4859 2.67718 14.496C2.55844 15.1132 2.48486 15.7382 2.45703 16.3661V16.4361C2.46001 19.8326 3.73699 23.1044 6.03561 25.6049C8.33423 28.1054 11.4872 29.6527 14.8715 29.9409C18.2557 30.2291 21.625 29.2374 24.3134 27.1616C27.0017 25.0858 28.8136 22.0771 29.3909 18.73C29.4137 18.555 29.4322 18.3817 29.4525 18.205C29.7319 15.8958 29.4294 13.5533 28.5726 11.3908ZM12.9381 22.0091C13.0015 22.0396 13.061 22.0725 13.1261 22.1015L13.1355 22.1075C13.0697 22.076 13.0039 22.0432 12.9381 22.0091ZM27.2286 12.1006V12.0877L27.2311 12.102L27.2286 12.1006Z" fill="url(#paint0_linear_21_3824)"/>
<path d="M28.5726 11.3908C27.9832 9.97264 26.7876 8.44139 25.8514 7.95734C26.5192 9.25063 26.9826 10.6396 27.2251 12.0747V12.0877L27.2276 12.102C28.2731 15.094 28.1219 18.3743 26.8055 21.2573C25.2508 24.5932 21.4876 28.0123 15.5971 27.8461C9.23233 27.6658 3.62708 22.9429 2.57918 16.757C2.38843 15.7816 2.57918 15.287 2.67508 14.4943C2.54426 15.1101 2.47126 15.7367 2.45703 16.3661V16.4361C2.46001 19.8326 3.73699 23.1044 6.03561 25.6049C8.33423 28.1054 11.4872 29.6527 14.8715 29.9409C18.2557 30.2292 21.625 29.2374 24.3134 27.1616C27.0017 25.0858 28.8136 22.0771 29.3909 18.73C29.4137 18.555 29.4322 18.3817 29.4525 18.205C29.7319 15.8958 29.4294 13.5533 28.5726 11.3908Z" fill="url(#paint1_radial_21_3824)"/>
<path d="M28.5726 11.3908C27.9832 9.97264 26.7876 8.44139 25.8514 7.95734C26.5192 9.25063 26.9826 10.6396 27.2251 12.0747V12.0877L27.2276 12.102C28.2731 15.094 28.1219 18.3743 26.8055 21.2573C25.2508 24.5932 21.4876 28.0123 15.5971 27.8461C9.23233 27.6658 3.62708 22.9429 2.57918 16.757C2.38843 15.7816 2.57918 15.287 2.67508 14.4943C2.54426 15.1101 2.47126 15.7367 2.45703 16.3661V16.4361C2.46001 19.8326 3.73699 23.1044 6.03561 25.6049C8.33423 28.1054 11.4872 29.6527 14.8715 29.9409C18.2557 30.2292 21.625 29.2374 24.3134 27.1616C27.0017 25.0858 28.8136 22.0771 29.3909 18.73C29.4137 18.555 29.4322 18.3817 29.4525 18.205C29.7319 15.8958 29.4294 13.5533 28.5726 11.3908Z" fill="url(#paint2_radial_21_3824)"/>
<path d="M21.979 12.9854C22.0084 13.0061 22.0357 13.0267 22.0633 13.0474C21.7226 12.4432 21.2984 11.89 20.8033 11.4041C16.5872 7.18731 19.6984 2.26106 20.223 2.01081L20.2283 2.00311C16.821 3.99811 15.665 7.69131 15.5586 9.53861C15.7168 9.52776 15.8736 9.51446 16.0353 9.51446C17.2443 9.51668 18.4311 9.839 19.4751 10.4487C20.5191 11.0583 21.383 11.9336 21.979 12.9854Z" fill="url(#paint3_radial_21_3824)"/>
<path d="M16.0445 13.8275C16.0221 14.1649 14.83 15.3287 14.4132 15.3287C10.5558 15.3287 9.92969 17.6621 9.92969 17.6621C10.1005 19.627 11.4697 21.2454 13.1248 22.1015C13.2004 22.1407 13.2771 22.1761 13.3537 22.2107C13.4865 22.2695 13.6193 22.3239 13.752 22.3738C14.3201 22.5749 14.915 22.6896 15.5171 22.7144C22.278 23.0315 23.5877 14.6294 18.7087 12.1913C19.8597 12.0415 21.0253 12.3245 21.9795 12.9854C21.3835 11.9336 20.5195 11.0583 19.4756 10.4487C18.4316 9.83901 17.2448 9.51668 16.0358 9.51447C15.8748 9.51447 15.7173 9.52777 15.5591 9.53862C14.1984 9.63215 12.8975 10.1336 11.826 10.9775C12.0328 11.1525 12.2663 11.3863 12.758 11.871C13.6785 12.7779 16.0393 13.7173 16.0445 13.8275Z" fill="url(#paint4_radial_21_3824)"/>
<path d="M16.0445 13.8275C16.0221 14.1649 14.83 15.3287 14.4132 15.3287C10.5558 15.3287 9.92969 17.6621 9.92969 17.6621C10.1005 19.627 11.4697 21.2454 13.1248 22.1015C13.2004 22.1407 13.2771 22.1761 13.3537 22.2107C13.4865 22.2695 13.6193 22.3239 13.752 22.3738C14.3201 22.5749 14.915 22.6896 15.5171 22.7144C22.278 23.0315 23.5877 14.6294 18.7087 12.1913C19.8597 12.0415 21.0253 12.3245 21.9795 12.9854C21.3835 11.9336 20.5195 11.0583 19.4756 10.4487C18.4316 9.83901 17.2448 9.51668 16.0358 9.51447C15.8748 9.51447 15.7173 9.52777 15.5591 9.53862C14.1984 9.63215 12.8975 10.1336 11.826 10.9775C12.0328 11.1525 12.2663 11.3863 12.758 11.871C13.6785 12.7779 16.0393 13.7173 16.0445 13.8275Z" fill="url(#paint5_radial_21_3824)"/>
<path d="M11.1952 10.5264C11.3051 10.5964 11.3957 10.6573 11.4752 10.7122C11.1661 9.63035 11.1529 8.48536 11.437 7.39667C10.1858 8.00284 9.07392 8.86213 8.17188 9.92017C8.23802 9.91842 10.2057 9.88307 11.1952 10.5264Z" fill="url(#paint6_radial_21_3824)"/>
<path d="M2.57752 16.7571C3.62437 22.943 9.23067 27.6659 15.5954 27.8461C21.4859 28.0127 25.2491 24.5932 26.8038 21.2574C28.1202 18.3743 28.2715 15.094 27.2259 12.1021V12.0891C27.2259 12.079 27.2238 12.073 27.2259 12.0762L27.2284 12.0989C27.7096 15.2409 26.1115 18.2848 23.6132 20.3432L23.6055 20.3607C18.7377 24.3251 14.0792 22.7526 13.1363 22.1107C13.0705 22.0792 13.0047 22.0464 12.9389 22.0123C10.1008 20.6557 8.92827 18.0699 9.17957 15.8523C8.50586 15.8623 7.84372 15.6766 7.27339 15.3179C6.70305 14.9591 6.24899 14.4427 5.96622 13.8311C6.71124 13.3747 7.56073 13.1166 8.43373 13.0816C9.30674 13.0465 10.1742 13.2356 10.9534 13.6309C12.5598 14.3602 14.3878 14.432 16.0466 13.8311C16.0413 13.7208 13.6806 12.7811 12.7601 11.8746C12.2683 11.3898 12.0349 11.1564 11.828 10.981C11.7162 10.8863 11.5994 10.7978 11.478 10.7157C11.3975 10.6608 11.3069 10.6013 11.198 10.5299C10.2086 9.88658 8.24087 9.92193 8.17577 9.92368H8.16947C7.63187 9.24223 7.66967 6.99523 7.70047 6.52588C7.54143 6.5898 7.38962 6.6704 7.24757 6.76633C6.77299 7.10505 6.32933 7.48511 5.92177 7.90208C5.4557 8.37162 5.02977 8.87938 4.64847 9.42003V9.42213V9.41968C3.77636 10.6561 3.15779 12.053 2.82847 13.5297C2.82182 13.5574 2.33987 15.6644 2.57752 16.7571Z" fill="url(#paint7_radial_21_3824)"/>
<path d="M20.803 11.4041C21.2983 11.8905 21.7224 12.4443 22.063 13.0491C22.1376 13.1055 22.2072 13.1615 22.2664 13.2157C25.3418 16.0507 23.7304 20.0582 23.6104 20.3435C26.1087 18.2851 27.7054 15.2412 27.2255 12.0992C25.6911 8.27372 23.0903 6.73197 20.9661 3.37477C20.8587 3.20502 20.7512 3.03492 20.6466 2.85537C20.5867 2.75282 20.5388 2.66042 20.4971 2.57537C20.409 2.40477 20.3412 2.22447 20.2948 2.03812C20.2949 2.02953 20.2918 2.0212 20.2861 2.01475C20.2804 2.00829 20.2726 2.00416 20.264 2.00312C20.2557 2.00083 20.2469 2.00083 20.2385 2.00312C20.2367 2.00312 20.2339 2.00627 20.2318 2.00697C20.2297 2.00767 20.2252 2.01082 20.222 2.01222C19.6974 2.26107 16.5862 7.18732 20.803 11.4041Z" fill="url(#paint8_radial_21_3824)"/>
<path d="M22.2634 13.214C22.2043 13.1598 22.1346 13.1038 22.0601 13.0474C22.0324 13.0268 22.0051 13.0061 21.9757 12.9855C21.0216 12.3246 19.856 12.0416 18.705 12.1913C23.584 14.6308 22.275 23.0315 15.5133 22.7144C14.9113 22.6897 14.3163 22.5749 13.7483 22.3739C13.6155 22.3242 13.4828 22.2698 13.35 22.2108C13.2733 22.1758 13.1967 22.1408 13.1211 22.1016L13.1305 22.1075C14.0734 22.7512 18.7305 24.3237 23.5997 20.3575L23.6074 20.34C23.7289 20.0565 25.3403 16.048 22.2634 13.214Z" fill="url(#paint9_radial_21_3824)"/>
<path d="M9.93034 17.6621C9.93034 17.6621 10.5565 15.3287 14.4138 15.3287C14.8307 15.3287 16.0238 14.1649 16.0452 13.8275C14.3865 14.4285 12.5584 14.3566 10.952 13.6273C10.1728 13.2321 9.30536 13.043 8.43235 13.078C7.55934 13.1131 6.70986 13.3711 5.96484 13.8275C6.24761 14.4391 6.70167 14.9556 7.272 15.3143C7.84234 15.6731 8.50448 15.8587 9.17819 15.8488C8.92689 18.0667 10.0994 20.6525 12.9375 22.0088C13.0009 22.0392 13.0604 22.0721 13.1255 22.1012C11.4689 21.2454 10.1011 19.627 9.93034 17.6621Z" fill="url(#paint10_radial_21_3824)"/>
<path d="M28.5726 11.3908C27.9832 9.97262 26.7876 8.44137 25.8514 7.95732C26.5192 9.25062 26.9826 10.6396 27.2251 12.0747L27.2276 12.0975C25.6939 8.27372 23.093 6.73197 20.9689 3.37477C20.8614 3.20502 20.754 3.03492 20.6493 2.85537C20.5895 2.75282 20.5415 2.66042 20.4999 2.57537C20.4118 2.40477 20.3439 2.22447 20.2976 2.03812C20.2976 2.02953 20.2945 2.0212 20.2889 2.01475C20.2832 2.00829 20.2753 2.00416 20.2668 2.00312C20.2584 2.00083 20.2496 2.00083 20.2412 2.00312C20.2395 2.00312 20.2367 2.00627 20.2346 2.00697C20.2325 2.00767 20.2279 2.01082 20.2248 2.01222L20.23 2.00312C16.8228 3.99812 15.6667 7.69132 15.5603 9.53862C15.7185 9.52777 15.8753 9.51447 16.037 9.51447C17.246 9.51669 18.4328 9.83901 19.4768 10.4487C20.5208 11.0583 21.3847 11.9336 21.9807 12.9854C21.0266 12.3245 19.861 12.0415 18.71 12.1913C23.589 14.6308 22.28 23.0315 15.5183 22.7144C14.9163 22.6896 14.3213 22.5749 13.7533 22.3738C13.6205 22.3241 13.4877 22.2698 13.355 22.2107C13.2783 22.1757 13.2017 22.1407 13.1261 22.1015L13.1355 22.1075C13.0697 22.076 13.0039 22.0432 12.9381 22.0091C13.0015 22.0396 13.061 22.0725 13.1261 22.1015C11.4695 21.2454 10.1017 19.627 9.93093 17.6621C9.93093 17.6621 10.5571 15.3287 14.4144 15.3287C14.8313 15.3287 16.0244 14.1649 16.0458 13.8275C16.0405 13.7173 13.6798 12.7775 12.7593 11.871C12.2675 11.3863 12.0341 11.1528 11.8272 10.9775C11.7154 10.8828 11.5986 10.7942 11.4772 10.7122C11.1681 9.6303 11.155 8.48532 11.4391 7.39662C10.1878 8.0028 9.07598 8.86209 8.17393 9.92012H8.16763C7.63003 9.23867 7.66783 6.99167 7.69863 6.52232C7.53959 6.58624 7.38778 6.66684 7.24573 6.76277C6.77115 7.10149 6.32748 7.48156 5.91993 7.89852C5.45552 8.36939 5.03135 8.87832 4.65188 9.41997V9.42207V9.41962C3.77977 10.656 3.1612 12.0529 2.83188 13.5297L2.81368 13.6193C2.78813 13.7386 2.67368 14.3448 2.65723 14.475C2.65723 14.4848 2.65723 14.4649 2.65723 14.475C2.55255 15.1008 2.4857 15.7323 2.45703 16.3661V16.4361C2.46001 19.8326 3.73699 23.1044 6.03561 25.6049C8.33423 28.1054 11.4872 29.6527 14.8715 29.9409C18.2557 30.2291 21.625 29.2374 24.3134 27.1616C27.0017 25.0858 28.8136 22.0771 29.3909 18.73C29.4137 18.555 29.4322 18.3817 29.4525 18.205C29.7319 15.8958 29.4294 13.5533 28.5726 11.3908Z" fill="url(#paint11_linear_21_3824)"/>
<path d="M35.9414 10.3951H43.4412V12.4251H38.0932V15.1757H43.4412V17.1889H38.0932V21.6136H35.9414V10.3951ZM45.992 9.61143C46.1583 9.60596 46.3238 9.63492 46.4784 9.6965C46.6329 9.75808 46.773 9.85095 46.8899 9.96928C47.0068 10.0876 47.098 10.2288 47.1577 10.3841C47.2175 10.5393 47.2444 10.7053 47.237 10.8714C47.2373 11.2012 47.1075 11.5178 46.8759 11.7525C46.6443 11.9872 46.3294 12.1211 45.9997 12.1252C45.67 12.1293 45.3519 12.0031 45.1146 11.7742C44.8773 11.5452 44.7398 11.2319 44.732 10.9022C44.7257 10.7336 44.7537 10.5655 44.8144 10.4081C44.8751 10.2506 44.9671 10.1072 45.085 9.98644C45.2029 9.8657 45.344 9.7702 45.5 9.70573C45.6559 9.64126 45.8233 9.60918 45.992 9.61143ZM44.9315 13.3148H47.0525V21.6136H44.9315V13.3148ZM53.1996 15.6202C52.9059 15.388 52.5442 15.2585 52.1699 15.2513C51.3092 15.2513 50.8175 15.8047 50.8175 17.0185V21.6136H48.7122V13.3148H50.7254V14.5135C50.8751 14.1163 51.1487 13.7778 51.5058 13.5481C51.8628 13.3184 52.2842 13.2097 52.7078 13.2381C53.2116 13.2368 53.7041 13.3866 54.1218 13.6683L53.1996 15.6202ZM54.0746 17.5102C54.0586 16.9405 54.1574 16.3734 54.3653 15.8428C54.5732 15.3121 54.8858 14.8287 55.2844 14.4214C55.6831 14.0141 56.1597 13.6913 56.6858 13.4721C57.2119 13.2529 57.7767 13.1419 58.3467 13.1457C60.8362 13.1457 62.6037 14.9132 62.6037 17.372V18.247H56.1501C56.3807 19.2921 57.1952 19.9837 58.4401 19.9837C58.865 19.9969 59.2847 19.8881 59.6497 19.6702C60.0146 19.4523 60.3095 19.1344 60.4995 18.7541L62.2667 19.8146C61.3917 21.1054 60.146 21.7816 58.3785 21.7816C55.6891 21.7827 54.0756 19.9847 54.0756 17.5102H54.0746ZM56.1798 16.5729H60.5443C60.314 15.5124 59.4534 14.9279 58.3313 14.9279C57.8378 14.9107 57.3537 15.0653 56.9616 15.3653C56.5694 15.6653 56.2936 16.0922 56.1812 16.5729H56.1798ZM63.1263 13.3148H64.6169V12.9C64.6169 10.6408 65.5696 9.70348 67.6598 9.70348H68.3973V11.5322H67.7981C66.8146 11.5322 66.5993 11.8703 66.5993 12.9V13.3148H68.3973V15.2205H66.6473V21.6136H64.6173V15.2205H63.1266L63.1263 13.3148ZM68.7963 17.4644C68.7868 16.8932 68.8926 16.326 69.1073 15.7966C69.322 15.2673 69.6413 14.7867 70.046 14.3835C70.4507 13.9804 70.9326 13.663 71.4628 13.4503C71.993 13.2376 72.5606 13.134 73.1317 13.1457C73.7021 13.1406 74.2678 13.2485 74.7963 13.4632C75.3247 13.6779 75.8054 13.9952 76.2106 14.3967C76.6157 14.7983 76.9373 15.2761 77.1568 15.8026C77.3762 16.329 77.4892 16.8938 77.4892 17.4642C77.4892 18.0346 77.3762 18.5994 77.1568 19.1259C76.9373 19.6524 76.6157 20.1302 76.2106 20.5317C75.8054 20.9332 75.3247 21.2505 74.7963 21.4652C74.2678 21.6799 73.7021 21.7878 73.1317 21.7827C72.5584 21.8032 71.9869 21.7057 71.4529 21.4962C70.9188 21.2866 70.4335 20.9695 70.0272 20.5646C69.6208 20.1596 69.302 19.6755 69.0905 19.1422C68.8791 18.6089 68.7795 18.0378 68.798 17.4644H68.7963ZM75.4043 17.4644C75.4043 16.861 75.1646 16.2824 74.7379 15.8557C74.3113 15.4291 73.7326 15.1894 73.1293 15.1894C72.5259 15.1894 71.9472 15.4291 71.5206 15.8557C71.0939 16.2824 70.8543 16.861 70.8543 17.4644C70.8543 18.0677 71.0939 18.6464 71.5206 19.0731C71.9472 19.4997 72.5259 19.7394 73.1293 19.7394C73.7326 19.7394 74.3113 19.4997 74.7379 19.0731C75.1646 18.6464 75.4043 18.0677 75.4043 17.4644ZM80.3221 17.372L77.3254 13.3148H79.815L81.5825 15.8659L83.3958 13.3148H85.8392L82.7963 17.3566L85.9928 21.6136H83.5187L81.5363 18.9088L79.6151 21.6136H77.1427L80.3221 17.372Z" fill="black"/>
</g>
<defs>
<linearGradient id="paint0_linear_21_3824" x1="26.7771" y1="6.33752" x2="4.25848" y2="28.0638" gradientUnits="userSpaceOnUse">
<stop offset="0.048" stop-color="#FFF44F"/>
<stop offset="0.111" stop-color="#FFE847"/>
<stop offset="0.225" stop-color="#FFC830"/>
<stop offset="0.368" stop-color="#FF980E"/>
<stop offset="0.401" stop-color="#FF8B16"/>
<stop offset="0.462" stop-color="#FF672A"/>
<stop offset="0.534" stop-color="#FF3647"/>
<stop offset="0.705" stop-color="#E31587"/>
</linearGradient>
<radialGradient id="paint1_radial_21_3824" cx="0" cy="0" r="1" gradientUnits="userSpaceOnUse" gradientTransform="translate(25.7366 5.10764) scale(28.2789 28.279)">
<stop offset="0.129" stop-color="#FFBD4F"/>
<stop offset="0.186" stop-color="#FFAC31"/>
<stop offset="0.247" stop-color="#FF9D17"/>
<stop offset="0.283" stop-color="#FF980E"/>
<stop offset="0.403" stop-color="#FF563B"/>
<stop offset="0.467" stop-color="#FF3750"/>
<stop offset="0.71" stop-color="#F5156C"/>
<stop offset="0.782" stop-color="#EB0878"/>
<stop offset="0.86" stop-color="#E50080"/>
</radialGradient>
<radialGradient id="paint2_radial_21_3824" cx="0" cy="0" r="1" gradientUnits="userSpaceOnUse" gradientTransform="translate(15.4032 16.6688) scale(28.2789 28.279)">
<stop offset="0.3" stop-color="#960E18"/>
<stop offset="0.351" stop-color="#B11927" stop-opacity="0.74"/>
<stop offset="0.435" stop-color="#DB293D" stop-opacity="0.343"/>
<stop offset="0.497" stop-color="#F5334B" stop-opacity="0.094"/>
<stop offset="0.53" stop-color="#FF3750" stop-opacity="0"/>
</radialGradient>
<radialGradient id="paint3_radial_21_3824" cx="0" cy="0" r="1" gradientUnits="userSpaceOnUse" gradientTransform="translate(18.8108 -1.30999) scale(20.4869 20.4869)">
<stop offset="0.132" stop-color="#FFF44F"/>
<stop offset="0.252" stop-color="#FFDC3E"/>
<stop offset="0.506" stop-color="#FF9D12"/>
<stop offset="0.526" stop-color="#FF980E"/>
</radialGradient>
<radialGradient id="paint4_radial_21_3824" cx="0" cy="0" r="1" gradientUnits="userSpaceOnUse" gradientTransform="translate(12.274 24.0556) scale(13.4649 13.4648)">
<stop offset="0.353" stop-color="#3A8EE6"/>
<stop offset="0.472" stop-color="#5C79F0"/>
<stop offset="0.669" stop-color="#9059FF"/>
<stop offset="1" stop-color="#C139E6"/>
</radialGradient>
<radialGradient id="paint5_radial_21_3824" cx="0" cy="0" r="1" gradientTransform="matrix(6.93906 -1.67765 1.96321 8.12413 16.9473 14.3512)" gradientUnits="userSpaceOnUse">
<stop offset="0.206" stop-color="#9059FF" stop-opacity="0"/>
<stop offset="0.278" stop-color="#8C4FF3" stop-opacity="0.064"/>
<stop offset="0.747" stop-color="#7716A8" stop-opacity="0.45"/>
<stop offset="0.975" stop-color="#6E008B" stop-opacity="0.6"/>
</radialGradient>
<radialGradient id="paint6_radial_21_3824" cx="0" cy="0" r="1" gradientUnits="userSpaceOnUse" gradientTransform="translate(15.0466 3.95057) scale(9.6866)">
<stop stop-color="#FFE226"/>
<stop offset="0.121" stop-color="#FFDB27"/>
<stop offset="0.295" stop-color="#FFC82A"/>
<stop offset="0.502" stop-color="#FFA930"/>
<stop offset="0.732" stop-color="#FF7E37"/>
<stop offset="0.792" stop-color="#FF7139"/>
</radialGradient>
<radialGradient id="paint7_radial_21_3824" cx="0" cy="0" r="1" gradientUnits="userSpaceOnUse" gradientTransform="translate(22.6567 -2.19332) scale(41.3284)">
<stop offset="0.113" stop-color="#FFF44F"/>
<stop offset="0.456" stop-color="#FF980E"/>
<stop offset="0.622" stop-color="#FF5634"/>
<stop offset="0.716" stop-color="#FF3647"/>
<stop offset="0.904" stop-color="#E31587"/>
</radialGradient>
<radialGradient id="paint8_radial_21_3824" cx="0" cy="0" r="1" gradientTransform="matrix(3.17884 30.1233 -19.7693 2.08895 19.174 0.10457)" gradientUnits="userSpaceOnUse">
<stop stop-color="#FFF44F"/>
<stop offset="0.06" stop-color="#FFE847"/>
<stop offset="0.168" stop-color="#FFC830"/>
<stop offset="0.304" stop-color="#FF980E"/>
<stop offset="0.356" stop-color="#FF8B16"/>
<stop offset="0.455" stop-color="#FF672A"/>
<stop offset="0.57" stop-color="#FF3647"/>
<stop offset="0.737" stop-color="#E31587"/>
</radialGradient>
<radialGradient id="paint9_radial_21_3824" cx="0" cy="0" r="1" gradientUnits="userSpaceOnUse" gradientTransform="translate(14.8144 7.53842) scale(25.802 25.802)">
<stop offset="0.137" stop-color="#FFF44F"/>
<stop offset="0.48" stop-color="#FF980E"/>
<stop offset="0.592" stop-color="#FF5634"/>
<stop offset="0.655" stop-color="#FF3647"/>
<stop offset="0.904" stop-color="#E31587"/>
</radialGradient>
<radialGradient id="paint10_radial_21_3824" cx="0" cy="0" r="1" gradientUnits="userSpaceOnUse" gradientTransform="translate(21.6284 9.04862) scale(28.2401 28.2401)">
<stop offset="0.094" stop-color="#FFF44F"/>
<stop offset="0.231" stop-color="#FFE141"/>
<stop offset="0.509" stop-color="#FFAF1E"/>
<stop offset="0.626" stop-color="#FF980E"/>
</radialGradient>
<linearGradient id="paint11_linear_21_3824" x1="26.5066" y1="6.22132" x2="7.34548" y2="25.3821" gradientUnits="userSpaceOnUse">
<stop offset="0.167" stop-color="#FFF44F" stop-opacity="0.8"/>
<stop offset="0.266" stop-color="#FFF44F" stop-opacity="0.634"/>
<stop offset="0.489" stop-color="#FFF44F" stop-opacity="0.217"/>
<stop offset="0.6" stop-color="#FFF44F" stop-opacity="0"/>
</linearGradient>
<clipPath id="clip0_21_3824">
<rect width="84" height="28" fill="white" transform="translate(2 2)"/>
</clipPath>
</defs>
</svg>
