<svg width="32" height="32" viewBox="0 0 32 32" fill="none" xmlns="http://www.w3.org/2000/svg">
<path d="M28.9905 11.2265C28.3816 9.7574 27.1473 8.17139 26.1784 7.67039C26.967 9.22015 27.4232 10.7746 27.5976 11.9344C27.5976 11.9344 27.5976 11.9426 27.6005 11.9578C26.0156 7.99777 23.3277 6.40065 21.1327 2.92407C21.0213 2.74869 20.9105 2.57331 20.802 2.38566C20.7407 2.27985 20.6911 2.18397 20.648 2.09336C20.557 1.91757 20.4867 1.73179 20.4386 1.53975C20.439 1.53063 20.4359 1.52169 20.4301 1.51467C20.4243 1.50765 20.4161 1.50305 20.4071 1.50175C20.3985 1.49942 20.3894 1.49942 20.3808 1.50175C20.3785 1.50281 20.3763 1.50419 20.3744 1.50584C20.3709 1.50584 20.3674 1.50994 20.3639 1.5111L20.3697 1.5035C16.8483 3.57063 15.6536 7.39446 15.544 9.30784C14.1368 9.40428 12.7913 9.92358 11.683 10.798C11.5672 10.6998 11.4461 10.6081 11.3202 10.5232C11.0008 9.4027 10.9873 8.21683 11.2811 7.08931C9.84091 7.74697 8.72095 8.78463 7.90664 9.70303H7.90023C7.34433 8.99742 7.38341 6.67015 7.41491 6.18435C7.40849 6.15395 7.00076 6.39656 6.94826 6.43339C6.45773 6.7841 5.9992 7.17771 5.57805 7.6096C5.0988 8.09655 4.66096 8.62276 4.26909 9.18274C3.36752 10.4632 2.72814 11.9101 2.3879 13.4398C2.38149 13.4702 2.37565 13.5017 2.36924 13.5327C2.34299 13.6561 2.24791 14.2751 2.23099 14.4096V14.4406C2.10704 15.0803 2.02984 15.7282 2 16.3791V16.451C2 24.2097 8.27646 30.5 16.0182 30.5C22.9521 30.5 28.7088 25.4549 29.8364 18.828C29.8597 18.6485 29.8789 18.4673 29.8999 18.286C30.1788 15.8763 29.869 13.3439 28.9905 11.2265ZM12.8327 22.2239C12.8981 22.2549 12.9599 22.2894 13.027 22.3198L13.0363 22.3256C12.9692 22.2929 12.901 22.259 12.8333 22.2239H12.8327ZM27.6017 11.9642V11.9508V11.966V11.9642Z" fill="url(#paint0_linear_21_3759)"/>
<path d="M28.9888 11.2265C28.3798 9.75741 27.1455 8.17141 26.1766 7.67041C26.9653 9.22017 27.4214 10.7746 27.5958 11.9344V11.9631C28.9188 15.5572 28.1978 19.2121 27.1595 21.4452C25.5531 24.9002 21.6641 28.4416 15.5761 28.2692C9.00386 28.0821 3.20979 23.1885 2.12775 16.7842C1.93059 15.7735 2.12775 15.2608 2.22691 14.4406C2.10616 15.0725 2.06008 15.2555 2 16.3791V16.451C2 24.2098 8.27646 30.5 16.0182 30.5C22.9521 30.5 28.7088 25.4549 29.8364 18.828C29.8597 18.6485 29.8789 18.4673 29.8999 18.2861C30.177 15.8764 29.8673 13.3439 28.9888 11.2265V11.2265Z" fill="url(#paint1_radial_21_3759)"/>
<path d="M28.9888 11.2265C28.3798 9.75741 27.1455 8.17141 26.1766 7.67041C26.9653 9.22017 27.4214 10.7746 27.5958 11.9344V11.9631C28.9188 15.5572 28.1978 19.2121 27.1595 21.4452C25.5531 24.9002 21.6641 28.4416 15.5761 28.2692C9.00386 28.0821 3.20979 23.1885 2.12775 16.7842C1.93059 15.7735 2.12775 15.2608 2.22691 14.4406C2.10616 15.0725 2.06008 15.2555 2 16.3791V16.451C2 24.2098 8.27646 30.5 16.0182 30.5C22.9521 30.5 28.7088 25.4549 29.8364 18.828C29.8597 18.6485 29.8789 18.4673 29.8999 18.2861C30.177 15.8764 29.8673 13.3439 28.9888 11.2265V11.2265Z" fill="url(#paint2_radial_21_3759)"/>
<path d="M22.1776 12.8774C22.2085 12.899 22.2359 12.9207 22.2651 12.9423C21.9133 12.3162 21.4749 11.7431 20.9631 11.24C16.6058 6.87304 19.821 1.7707 20.3629 1.51114L20.3687 1.50354C16.8473 3.57067 15.6526 7.3945 15.543 9.30788C15.7063 9.29677 15.869 9.28274 16.0353 9.28274C18.6631 9.28274 20.952 10.7314 22.1776 12.8774Z" fill="url(#paint3_radial_21_3759)"/>
<path d="M16.0456 13.7496C16.0229 14.1004 14.7909 15.3047 14.3598 15.3047C10.3735 15.3047 9.72656 17.7214 9.72656 17.7214C9.90156 19.7569 11.3167 21.433 13.0287 22.3198C13.1069 22.3601 13.1856 22.3964 13.262 22.4326C13.3991 22.4911 13.5368 22.5495 13.6739 22.6016C14.261 22.8091 14.8758 22.9273 15.4979 22.9523C22.4848 23.2809 23.8393 14.5798 18.7965 12.0532C20.0874 11.8281 21.4279 12.349 22.1762 12.8757C20.9513 10.7296 18.6618 9.28101 16.0339 9.28101C15.8677 9.28101 15.705 9.29504 15.5416 9.30614C14.1355 9.40378 12.7912 9.92366 11.6842 10.798C11.8982 10.9798 12.1397 11.2219 12.6478 11.7234C13.6009 12.6658 16.0404 13.6356 16.0456 13.7496V13.7496Z" fill="url(#paint4_radial_21_3759)"/>
<path d="M16.0456 13.7496C16.0229 14.1004 14.7909 15.3047 14.3598 15.3047C10.3735 15.3047 9.72656 17.7214 9.72656 17.7214C9.90156 19.7569 11.3167 21.433 13.0287 22.3198C13.1069 22.3601 13.1856 22.3964 13.262 22.4326C13.3991 22.4911 13.5368 22.5495 13.6739 22.6016C14.261 22.8091 14.8758 22.9273 15.4979 22.9523C22.4848 23.2809 23.8393 14.5798 18.7965 12.0532C20.0874 11.8281 21.4279 12.349 22.1762 12.8757C20.9513 10.7296 18.6618 9.28101 16.0339 9.28101C15.8677 9.28101 15.705 9.29504 15.5416 9.30614C14.1355 9.40378 12.7912 9.92366 11.6842 10.798C11.8982 10.9798 12.1397 11.2219 12.6478 11.7234C13.6009 12.6658 16.0404 13.6356 16.0456 13.7496V13.7496Z" fill="url(#paint5_radial_21_3759)"/>
<path d="M11.0321 10.3309C11.1458 10.4046 11.2391 10.4666 11.3237 10.5233C11.0043 9.40275 10.9908 8.21688 11.2846 7.08936C9.84443 7.74702 8.72446 8.78468 7.91016 9.70308C7.97607 9.70132 10.0095 9.66449 11.0321 10.3309V10.3309Z" fill="url(#paint6_radial_21_3759)"/>
<path d="M2.13068 16.7842C3.21273 23.1885 9.00679 28.0821 15.5837 28.2692C21.6717 28.4416 25.5583 24.9002 27.1671 21.4452C28.2054 19.2115 28.9264 15.5572 27.6034 11.9631V11.9362C27.6034 11.9397 27.6034 11.9444 27.6064 11.9596C28.1033 15.214 26.452 18.3667 23.8702 20.4987C23.8676 20.5047 23.865 20.5108 23.8626 20.5169C18.8316 24.6225 14.0175 22.9938 13.0427 22.3291C12.9751 22.2964 12.9068 22.2625 12.8392 22.2274C9.90568 20.8244 8.69413 18.144 8.95371 15.8471C6.47754 15.8471 5.6329 13.7531 5.6329 13.7531C5.6329 13.7531 7.85649 12.1642 10.7871 13.5462C13.5012 14.8264 16.0503 13.7537 16.0503 13.7531C16.0451 13.6391 13.6056 12.6663 12.6543 11.7269C12.1462 11.2253 11.9047 10.9833 11.6906 10.8015C11.5748 10.7033 11.4537 10.6116 11.3278 10.5267C11.2444 10.4683 11.1528 10.4098 11.0361 10.3344C10.0136 9.66796 7.98016 9.70479 7.91307 9.70654H7.90666C7.35076 9.00094 7.38984 6.67367 7.42134 6.18787C7.41492 6.15747 7.00719 6.40008 6.95469 6.43691C6.46416 6.78761 6.00563 7.18122 5.58448 7.61311C5.10523 8.10007 4.66739 8.62628 4.27553 9.18625C3.37395 10.4667 2.73457 11.9136 2.39434 13.4433C2.38325 13.4702 1.88452 15.6525 2.13068 16.7842V16.7842Z" fill="url(#paint7_radial_21_3759)"/>
<path d="M20.9653 11.2399C21.4772 11.7431 21.9155 12.3162 22.2673 12.9423C22.3402 12.9971 22.4103 13.0557 22.4773 13.1176C25.6552 16.05 23.9927 20.2012 23.8662 20.4993C26.4479 18.3673 28.0993 15.2146 27.6023 11.9601C26.0174 7.99777 23.3295 6.40065 21.1345 2.92407C21.0231 2.74869 20.9123 2.57331 20.8038 2.38566C20.7425 2.27985 20.6929 2.18397 20.6498 2.09336C20.5588 1.91757 20.4885 1.73179 20.4404 1.53975C20.4407 1.53063 20.4377 1.52169 20.4319 1.51467C20.4261 1.50765 20.4179 1.50305 20.4089 1.50175C20.4003 1.49942 20.3912 1.49942 20.3826 1.50175C20.3803 1.50281 20.3781 1.50419 20.3762 1.50584C20.3727 1.50584 20.3692 1.50994 20.3657 1.5111C19.8232 1.77066 16.608 6.87301 20.9653 11.2399V11.2399Z" fill="url(#paint8_radial_21_3759)"/>
<path d="M22.4763 13.1147C22.4093 13.0528 22.3392 12.9942 22.2663 12.9394C22.2377 12.9177 22.2079 12.8961 22.1788 12.8745C21.4304 12.3483 20.0899 11.8269 18.7991 12.0519C23.8412 14.5786 22.4873 23.2797 15.5004 22.9511C14.8783 22.9261 14.2635 22.8079 13.6764 22.6004C13.5393 22.5489 13.4017 22.4922 13.2646 22.4314C13.1852 22.3952 13.1065 22.3589 13.0312 22.3186L13.0406 22.3244C14.0153 22.9909 18.8294 24.6196 23.8605 20.5122C23.8605 20.5122 23.8634 20.5046 23.8681 20.4941C23.9929 20.2012 25.6553 16.05 22.4763 13.1147Z" fill="url(#paint9_radial_21_3759)"/>
<path d="M9.72727 17.7214C9.72727 17.7214 10.3742 15.3047 14.3605 15.3047C14.7916 15.3047 16.0236 14.0992 16.0463 13.7497C16.0691 13.4001 13.4972 14.823 10.7831 13.5427C7.8525 12.1607 5.62891 13.7497 5.62891 13.7497C5.62891 13.7497 6.47355 15.8437 8.94972 15.8437C8.69014 18.1405 9.90169 20.8186 12.8352 22.2239C12.9005 22.2549 12.9623 22.2894 13.0294 22.3198C11.3174 21.4347 9.90402 19.7569 9.72727 17.7214Z" fill="url(#paint10_radial_21_3759)"/>
<path d="M28.9905 11.2265C28.3816 9.7574 27.1473 8.17139 26.1784 7.67039C26.967 9.22015 27.4232 10.7746 27.5976 11.9344C27.5976 11.9344 27.5976 11.9426 27.6005 11.9578C26.0156 7.99777 23.3277 6.40065 21.1327 2.92407C21.0213 2.74869 20.9105 2.57331 20.802 2.38566C20.7407 2.27985 20.6911 2.18397 20.648 2.09336C20.557 1.91757 20.4867 1.73179 20.4386 1.53975C20.439 1.53063 20.4359 1.52169 20.4301 1.51467C20.4243 1.50765 20.4161 1.50305 20.4071 1.50175C20.3985 1.49942 20.3894 1.49942 20.3808 1.50175C20.3785 1.50281 20.3763 1.50419 20.3744 1.50584C20.3709 1.50584 20.3674 1.50994 20.3639 1.5111L20.3697 1.5035C16.8483 3.57063 15.6536 7.39446 15.544 9.30784C15.7073 9.29673 15.8701 9.28271 16.0363 9.28271C18.6641 9.28271 20.9531 10.7313 22.1786 12.8774C21.4302 12.3512 20.0897 11.8298 18.7989 12.0549C23.841 14.5815 22.4872 23.2826 15.5002 22.954C14.8782 22.929 14.2633 22.8108 13.6762 22.6033C13.5391 22.5518 13.4015 22.4951 13.2644 22.4343C13.1851 22.3981 13.1063 22.3618 13.0311 22.3215L13.0404 22.3273C12.9727 22.2946 12.9045 22.2607 12.8368 22.2256C12.9021 22.2566 12.964 22.2911 13.0311 22.3215C11.3155 21.4347 9.90216 19.7569 9.72542 17.7213C9.72542 17.7213 10.3723 15.3046 14.3587 15.3046C14.7898 15.3046 16.0217 14.0992 16.0445 13.7496C16.0392 13.6356 13.5998 12.6628 12.6484 11.7234C12.1403 11.2218 11.8988 10.9798 11.6848 10.798C11.5689 10.6998 11.4478 10.6081 11.3219 10.5232C11.0026 9.4027 10.9891 8.21683 11.2829 7.08931C9.84266 7.74697 8.7227 8.78463 7.90839 9.70303H7.90198C7.34608 8.99742 7.38516 6.67015 7.41666 6.18435C7.41024 6.15395 7.00251 6.39656 6.95001 6.43339C6.45948 6.7841 6.00095 7.17771 5.5798 7.6096C5.10055 8.09655 4.66271 8.62276 4.27084 9.18274C3.36927 10.4632 2.72989 11.9101 2.38965 13.4398C2.38324 13.4702 2.3774 13.5017 2.37099 13.5327C2.34474 13.6561 2.22574 14.2839 2.20941 14.4184C2.20941 14.4289 2.20941 14.4084 2.20941 14.4184C2.10019 15.0671 2.03026 15.7219 2 16.3791V16.451C2 24.2097 8.27646 30.5 16.0182 30.5C22.9521 30.5 28.7088 25.4549 29.8364 18.828C29.8597 18.6485 29.8789 18.4673 29.8999 18.286C30.1788 15.8763 29.869 13.3439 28.9905 11.2265ZM27.5999 11.9479V11.9631V11.9479Z" fill="url(#paint11_linear_21_3759)"/>
<defs>
<linearGradient id="paint0_linear_21_3759" x1="27.135" y1="5.99261" x2="3.81392" y2="28.4437" gradientUnits="userSpaceOnUse">
<stop offset="0.05" stop-color="#FFF44F"/>
<stop offset="0.11" stop-color="#FFE847"/>
<stop offset="0.22" stop-color="#FFC830"/>
<stop offset="0.37" stop-color="#FF980E"/>
<stop offset="0.4" stop-color="#FF8B16"/>
<stop offset="0.46" stop-color="#FF672A"/>
<stop offset="0.53" stop-color="#FF3647"/>
<stop offset="0.7" stop-color="#E31587"/>
</linearGradient>
<radialGradient id="paint1_radial_21_3759" cx="0" cy="0" r="1" gradientUnits="userSpaceOnUse" gradientTransform="translate(26.0576 4.71879) scale(29.2246 29.2888)">
<stop offset="0.13" stop-color="#FFBD4F"/>
<stop offset="0.19" stop-color="#FFAC31"/>
<stop offset="0.25" stop-color="#FF9D17"/>
<stop offset="0.28" stop-color="#FF980E"/>
<stop offset="0.4" stop-color="#FF563B"/>
<stop offset="0.47" stop-color="#FF3750"/>
<stop offset="0.71" stop-color="#F5156C"/>
<stop offset="0.78" stop-color="#EB0878"/>
<stop offset="0.86" stop-color="#E50080"/>
</radialGradient>
<radialGradient id="paint2_radial_21_3759" cx="0" cy="0" r="1" gradientUnits="userSpaceOnUse" gradientTransform="translate(15.3789 16.6925) scale(29.2246 29.2888)">
<stop offset="0.3" stop-color="#960E18"/>
<stop offset="0.35" stop-color="#B11927" stop-opacity="0.74"/>
<stop offset="0.43" stop-color="#DB293D" stop-opacity="0.34"/>
<stop offset="0.5" stop-color="#F5334B" stop-opacity="0.09"/>
<stop offset="0.53" stop-color="#FF3750" stop-opacity="0"/>
</radialGradient>
<radialGradient id="paint3_radial_21_3759" cx="0" cy="0" r="1" gradientUnits="userSpaceOnUse" gradientTransform="translate(18.904 -1.92803) scale(21.172 21.2184)">
<stop offset="0.13" stop-color="#FFF44F"/>
<stop offset="0.25" stop-color="#FFDC3E"/>
<stop offset="0.51" stop-color="#FF9D12"/>
<stop offset="0.53" stop-color="#FF980E"/>
</radialGradient>
<radialGradient id="paint4_radial_21_3759" cx="0" cy="0" r="1" gradientUnits="userSpaceOnUse" gradientTransform="translate(12.1497 24.3431) scale(13.915 13.9455)">
<stop offset="0.35" stop-color="#3A8EE6"/>
<stop offset="0.47" stop-color="#5C79F0"/>
<stop offset="0.67" stop-color="#9059FF"/>
<stop offset="1" stop-color="#C139E6"/>
</radialGradient>
<radialGradient id="paint5_radial_21_3759" cx="0" cy="0" r="1" gradientTransform="matrix(7.15643 -1.77455 2.06577 8.4291 15.8015 13.2116)" gradientUnits="userSpaceOnUse">
<stop offset="0.21" stop-color="#9059FF" stop-opacity="0"/>
<stop offset="0.28" stop-color="#8C4FF3" stop-opacity="0.06"/>
<stop offset="0.75" stop-color="#7716A8" stop-opacity="0.45"/>
<stop offset="0.97" stop-color="#6E008B" stop-opacity="0.6"/>
</radialGradient>
<radialGradient id="paint6_radial_21_3759" cx="0" cy="0" r="1" gradientUnits="userSpaceOnUse" gradientTransform="translate(15.012 3.52041) scale(10.0108 10.0328)">
<stop stop-color="#FFE226"/>
<stop offset="0.12" stop-color="#FFDB27"/>
<stop offset="0.3" stop-color="#FFC82A"/>
<stop offset="0.5" stop-color="#FFA930"/>
<stop offset="0.73" stop-color="#FF7E37"/>
<stop offset="0.79" stop-color="#FF7139"/>
</radialGradient>
<radialGradient id="paint7_radial_21_3759" cx="0" cy="0" r="1" gradientUnits="userSpaceOnUse" gradientTransform="translate(22.8815 -2.84294) scale(42.7109 42.8046)">
<stop offset="0.11" stop-color="#FFF44F"/>
<stop offset="0.46" stop-color="#FF980E"/>
<stop offset="0.62" stop-color="#FF5634"/>
<stop offset="0.72" stop-color="#FF3647"/>
<stop offset="0.9" stop-color="#E31587"/>
</radialGradient>
<radialGradient id="paint8_radial_21_3759" cx="0" cy="0" r="1" gradientTransform="matrix(3.12872 31.0423 -20.3367 2.19491 18.7536 1.83374)" gradientUnits="userSpaceOnUse">
<stop stop-color="#FFF44F"/>
<stop offset="0.06" stop-color="#FFE847"/>
<stop offset="0.17" stop-color="#FFC830"/>
<stop offset="0.3" stop-color="#FF980E"/>
<stop offset="0.36" stop-color="#FF8B16"/>
<stop offset="0.45" stop-color="#FF672A"/>
<stop offset="0.57" stop-color="#FF3647"/>
<stop offset="0.74" stop-color="#E31587"/>
</radialGradient>
<radialGradient id="paint9_radial_21_3759" cx="0" cy="0" r="1" gradientUnits="userSpaceOnUse" gradientTransform="translate(14.7777 7.23605) scale(26.6644 26.723)">
<stop offset="0.14" stop-color="#FFF44F"/>
<stop offset="0.48" stop-color="#FF980E"/>
<stop offset="0.59" stop-color="#FF5634"/>
<stop offset="0.66" stop-color="#FF3647"/>
<stop offset="0.9" stop-color="#E31587"/>
</radialGradient>
<radialGradient id="paint10_radial_21_3759" cx="0" cy="0" r="1" gradientUnits="userSpaceOnUse" gradientTransform="translate(21.8165 8.80047) scale(29.1844 29.2484)">
<stop offset="0.09" stop-color="#FFF44F"/>
<stop offset="0.23" stop-color="#FFE141"/>
<stop offset="0.51" stop-color="#FFAF1E"/>
<stop offset="0.63" stop-color="#FF980E"/>
</radialGradient>
<linearGradient id="paint11_linear_21_3759" x1="26.855" y1="5.87218" x2="7.01043" y2="25.6739" gradientUnits="userSpaceOnUse">
<stop offset="0.17" stop-color="#FFF44F" stop-opacity="0.8"/>
<stop offset="0.27" stop-color="#FFF44F" stop-opacity="0.63"/>
<stop offset="0.49" stop-color="#FFF44F" stop-opacity="0.22"/>
<stop offset="0.6" stop-color="#FFF44F" stop-opacity="0"/>
</linearGradient>
</defs>
</svg>
