<svg width="32" height="32" viewBox="0 0 32 32" fill="none" xmlns="http://www.w3.org/2000/svg">
<g clip-path="url(#clip0_21_3839)">
<path d="M28.1797 11.0974C27.6085 9.72345 26.4516 8.24011 25.5431 7.77127C26.2825 9.22076 26.7104 10.6748 26.874 11.76C26.874 11.7621 26.8748 11.7674 26.8765 11.7818C25.3904 8.07769 22.8704 6.58406 20.8127 3.3319C20.7088 3.16746 20.6046 3.00258 20.5031 2.82878C20.4515 2.74002 20.4032 2.64932 20.3584 2.55687C20.2729 2.39182 20.207 2.21735 20.1619 2.03701C20.1623 2.02848 20.1594 2.02013 20.1538 2.01361C20.1483 2.0071 20.1406 2.00288 20.1321 2.00179C20.124 1.99948 20.1155 1.99948 20.1074 2.00179C20.1056 2.00245 20.1028 2.00458 20.1009 2.00535C20.098 2.0065 20.0943 2.00912 20.0912 2.01082C20.0927 2.00885 20.0958 2.00442 20.0967 2.00338C16.7952 3.93691 15.6752 7.51375 15.5723 9.30329C14.2539 9.39392 12.9934 9.87965 11.9551 10.6972C11.8464 10.6053 11.7328 10.5195 11.6147 10.4401C11.3152 9.39209 11.3024 8.28286 11.5779 7.22822C10.2277 7.84297 9.17762 8.81471 8.41419 9.67276H8.40812C7.88711 9.01284 7.92386 6.83595 7.95355 6.38144C7.94732 6.35328 7.56489 6.57996 7.5148 6.61414C7.05505 6.9423 6.62524 7.31051 6.23041 7.71445C5.78111 8.17008 5.37059 8.66239 5.00311 9.18626C5.00311 9.18691 5.00273 9.18768 5.00251 9.18833C5.00251 9.18762 5.00289 9.18691 5.00311 9.18626C4.15799 10.3839 3.5586 11.7371 3.2396 13.1678C3.23331 13.1963 3.22801 13.2258 3.22188 13.2545C3.19716 13.3702 3.10813 13.949 3.09255 14.0748C3.09134 14.0845 3.0908 14.0938 3.08965 14.1035C2.97454 14.7019 2.90326 15.3079 2.87637 15.9168C2.87637 15.9392 2.875 15.9614 2.875 15.9839C2.87522 23.2416 8.75959 29.125 16.0179 29.125C22.5184 29.125 27.9157 24.4061 28.9724 18.2077C28.9947 18.0395 29.0125 17.8704 29.0321 17.7007C29.2934 15.447 29.0032 13.0783 28.1797 11.0974ZM13.0316 21.3838C13.093 21.4132 13.1508 21.4453 13.2139 21.4734C13.2165 21.4752 13.2201 21.4773 13.2228 21.4789C13.1586 21.4482 13.0948 21.4165 13.0316 21.3838ZM26.8776 11.7851L26.8758 11.7723C26.8765 11.777 26.8773 11.7818 26.878 11.7865L26.8776 11.7851Z" fill="url(#paint0_linear_21_3839)"/>
<path d="M28.1796 11.0974C27.6084 9.72348 26.4515 8.24014 25.543 7.7713C26.2824 9.22079 26.7103 10.6748 26.8738 11.76C26.8738 11.7568 26.8744 11.7626 26.8758 11.7723C26.8765 11.777 26.8773 11.7819 26.878 11.7865C28.118 15.1482 27.4425 18.5666 26.469 20.6555C24.963 23.8875 21.3166 27.1999 15.6094 27.0384C9.44308 26.8637 4.01075 22.2884 2.99668 16.2959C2.81189 15.3509 2.99668 14.8711 3.08965 14.1038C2.97639 14.6953 2.93324 14.8661 2.87637 15.9171C2.87637 15.9395 2.875 15.9617 2.875 15.9842C2.87511 23.2416 8.75948 29.125 16.0178 29.125C22.5183 29.125 27.9156 24.4061 28.9723 18.2078C28.9946 18.0395 29.0124 17.8704 29.032 17.7007C29.2933 15.4471 29.003 13.0783 28.1796 11.0974Z" fill="url(#paint1_radial_21_3839)"/>
<path d="M28.1796 11.0974C27.6084 9.72348 26.4515 8.24014 25.543 7.7713C26.2824 9.22079 26.7103 10.6748 26.8738 11.76C26.8738 11.7568 26.8744 11.7626 26.8758 11.7723C26.8765 11.777 26.8773 11.7819 26.878 11.7865C28.118 15.1482 27.4425 18.5666 26.469 20.6555C24.963 23.8875 21.3166 27.1999 15.6094 27.0384C9.44308 26.8637 4.01075 22.2884 2.99668 16.2959C2.81189 15.3509 2.99668 14.8711 3.08965 14.1038C2.97639 14.6953 2.93324 14.8661 2.87637 15.9171C2.87637 15.9395 2.875 15.9617 2.875 15.9842C2.87511 23.2416 8.75948 29.125 16.0178 29.125C22.5183 29.125 27.9156 24.4061 28.9723 18.2078C28.9946 18.0395 29.0124 17.8704 29.032 17.7007C29.2933 15.4471 29.003 13.0783 28.1796 11.0974Z" fill="url(#paint2_radial_21_3839)"/>
<path d="M21.7945 12.6422C21.8232 12.6623 21.8492 12.6823 21.8762 12.7023C21.5463 12.117 21.1356 11.581 20.6561 11.1103C16.5707 7.02535 19.5848 2.25299 20.0932 2.01061C20.0946 2.00864 20.0977 2.00421 20.0986 2.00317C16.7971 3.93671 15.6771 7.51354 15.5742 9.30308C15.7273 9.29247 15.88 9.27962 16.0359 9.27962C18.4996 9.27962 20.6454 10.6342 21.7945 12.6422Z" fill="url(#paint3_radial_21_3839)"/>
<path d="M16.0416 13.4578C16.0201 13.7847 14.865 14.9121 14.4611 14.9121C10.7238 14.9121 10.1172 17.1726 10.1172 17.1726C10.2827 19.0763 11.608 20.6439 13.2131 21.4734C13.2863 21.5112 13.3604 21.5454 13.4346 21.5792C13.5617 21.6355 13.6905 21.6881 13.8206 21.737C14.371 21.9319 14.9474 22.043 15.5308 22.0668C22.0812 22.3741 23.3503 14.2359 18.6231 11.8727C19.8337 11.6621 21.0903 12.149 21.792 12.6419C20.6429 10.6341 18.4971 9.27954 16.0334 9.27954C15.8776 9.27954 15.725 9.29239 15.5718 9.303C14.2534 9.39364 12.9929 9.87937 11.9546 10.6969C12.155 10.8664 12.3812 11.093 12.8577 11.5625C13.7493 12.4411 16.0367 13.351 16.0416 13.4578Z" fill="url(#paint4_radial_21_3839)"/>
<path d="M16.0416 13.4578C16.0201 13.7847 14.865 14.9121 14.4611 14.9121C10.7238 14.9121 10.1172 17.1726 10.1172 17.1726C10.2827 19.0763 11.608 20.6439 13.2131 21.4734C13.2863 21.5112 13.3604 21.5454 13.4346 21.5792C13.5617 21.6355 13.6905 21.6881 13.8206 21.737C14.371 21.9319 14.9474 22.043 15.5308 22.0668C22.0812 22.3741 23.3503 14.2359 18.6231 11.8727C19.8337 11.6621 21.0903 12.149 21.792 12.6419C20.6429 10.6341 18.4971 9.27954 16.0334 9.27954C15.8776 9.27954 15.725 9.29239 15.5718 9.303C14.2534 9.39364 12.9929 9.87937 11.9546 10.6969C12.155 10.8664 12.3812 11.093 12.8577 11.5625C13.7493 12.4411 16.0367 13.351 16.0416 13.4578Z" fill="url(#paint5_radial_21_3839)"/>
<path d="M11.3422 10.2598C11.4337 10.3188 11.5245 10.379 11.6146 10.4402C11.315 9.3922 11.3023 8.28297 11.5777 7.22833C10.2276 7.84307 9.1775 8.81482 8.41406 9.67286C8.47723 9.67106 10.3836 9.63677 11.3422 10.2598Z" fill="url(#paint6_radial_21_3839)"/>
<path d="M2.99736 16.2959C4.01143 22.2884 9.44376 26.8637 15.6101 27.0384C21.3173 27.1999 24.9636 23.8873 26.4697 20.6555C27.4431 18.5664 28.1187 15.1484 26.8787 11.7865L26.8782 11.7851L26.8765 11.7723C26.8751 11.7626 26.8743 11.7568 26.8745 11.76C26.8745 11.7621 26.8753 11.7674 26.8771 11.7819C27.3433 14.8258 25.7948 17.7747 23.3743 19.7686L23.367 19.7858C18.6505 23.6261 14.1372 22.1028 13.2234 21.4792C13.1591 21.4483 13.0953 21.4165 13.032 21.3839C10.2822 20.0698 9.14621 17.5646 9.38979 15.4162C7.06792 15.4162 6.27621 13.4579 6.27621 13.4579C6.27621 13.4579 8.36084 11.9715 11.1083 13.2642C13.6529 14.4615 16.0426 13.458 16.0429 13.4579C16.038 13.3511 13.7506 12.4412 12.8588 11.5626C12.3823 11.0932 12.1561 10.8668 11.9557 10.697C11.847 10.6052 11.7334 10.5194 11.6153 10.44C11.5251 10.3789 11.4343 10.3187 11.3429 10.2595C10.3843 9.63652 8.47793 9.67081 8.41476 9.67245H8.40869C7.88768 9.01254 7.92443 6.83565 7.95413 6.38114C7.94789 6.35298 7.56546 6.57965 7.51537 6.61383C7.05562 6.942 6.62581 7.31021 6.23098 7.71415C5.78167 8.16989 5.37115 8.6623 5.00368 9.18628C5.00368 9.18694 5.0033 9.1877 5.00308 9.18836C5.00308 9.18765 5.00346 9.18694 5.00368 9.18628C4.15856 10.3839 3.55918 11.7371 3.24018 13.1678C3.23389 13.1963 2.76713 15.2373 2.99736 16.2959Z" fill="url(#paint7_radial_21_3839)"/>
<path d="M20.6532 11.1102C21.1327 11.5809 21.5434 12.1169 21.8733 12.7023C21.9456 12.7566 22.0132 12.8108 22.0706 12.8637C25.0501 15.609 23.489 19.4918 23.3725 19.7686C25.7931 17.7747 27.3415 14.8257 26.8753 11.7818C25.3892 8.07769 22.8692 6.58406 20.8115 3.3319C20.7076 3.16746 20.6034 3.00258 20.5019 2.82878C20.4502 2.74002 20.402 2.64932 20.3572 2.55687C20.2717 2.39182 20.2058 2.21735 20.1607 2.03701C20.161 2.02848 20.1582 2.02013 20.1526 2.01361C20.1471 2.0071 20.1393 2.00288 20.1309 2.00179C20.1228 1.99948 20.1143 1.99948 20.1062 2.00179C20.1044 2.00245 20.1016 2.00458 20.0996 2.00535C20.0967 2.0065 20.0931 2.00912 20.09 2.01082C19.5819 2.25297 16.5678 7.02533 20.6532 11.1102Z" fill="url(#paint8_radial_21_3839)"/>
<path d="M22.0727 12.8637C22.0154 12.8108 21.9478 12.7566 21.8754 12.7023C21.8487 12.6821 21.8224 12.6621 21.7938 12.6421C21.092 12.1491 19.8354 11.6623 18.6248 11.8728C23.352 14.2361 22.083 22.3742 15.5325 22.067C14.9492 22.0432 14.3727 21.932 13.8224 21.7372C13.6922 21.6882 13.5635 21.6356 13.4363 21.5794C13.3622 21.5456 13.2881 21.5114 13.2148 21.4735C13.2175 21.4753 13.2211 21.4774 13.2238 21.479C14.1376 22.1024 18.6509 23.6259 23.3674 19.7855L23.3747 19.7684C23.4911 19.492 25.0522 15.6091 22.0727 12.8637Z" fill="url(#paint9_radial_21_3839)"/>
<path d="M10.1196 17.1727C10.1196 17.1727 10.7263 14.9122 14.4636 14.9122C14.8676 14.9122 16.0227 13.7848 16.044 13.4578C16.0654 13.1309 13.6542 14.4615 11.1094 13.2642C8.36198 11.9715 6.27734 13.4578 6.27734 13.4578C6.27734 13.4578 7.06905 15.4162 9.39092 15.4162C9.1474 17.5646 10.2834 20.0701 13.0331 21.3839C13.0946 21.4132 13.1523 21.4453 13.2154 21.4735C11.6105 20.6439 10.2852 19.0763 10.1196 17.1727Z" fill="url(#paint10_radial_21_3839)"/>
<path d="M28.1795 11.0974C27.6083 9.72345 26.4514 8.24011 25.5429 7.77127C26.2823 9.22076 26.7102 10.6748 26.8737 11.76C26.8737 11.7621 26.8746 11.7674 26.8763 11.7818C25.3902 8.07769 22.8702 6.58406 20.8125 3.3319C20.7086 3.16746 20.6044 3.00258 20.5029 2.82878C20.4512 2.74002 20.403 2.64932 20.3582 2.55687C20.2727 2.39182 20.2068 2.21735 20.1617 2.03701C20.162 2.02848 20.1591 2.02013 20.1536 2.01361C20.1481 2.0071 20.1403 2.00288 20.1319 2.00179C20.1238 1.99948 20.1153 1.99948 20.1072 2.00179C20.1053 2.00245 20.1026 2.00458 20.1006 2.00535C20.0977 2.0065 20.0941 2.00912 20.091 2.01082C20.0925 2.00885 20.0955 2.00442 20.0965 2.00338C16.795 3.93691 15.675 7.51375 15.5721 9.30329C15.7252 9.29268 15.8779 9.27983 16.0337 9.27983C18.4976 9.27983 20.6434 10.6344 21.7923 12.6422C21.0906 12.1493 19.834 11.6624 18.6234 11.8729C23.3506 14.2362 22.0815 22.3744 15.5311 22.0671C14.9477 22.0433 14.3713 21.9321 13.8209 21.7373C13.6908 21.6884 13.562 21.6357 13.4349 21.5795C13.3607 21.5457 13.2866 21.5115 13.2134 21.4737C13.216 21.4755 13.2196 21.4775 13.2223 21.4791C13.1581 21.4482 13.0943 21.4164 13.0309 21.3838C13.0924 21.4132 13.1501 21.4453 13.2132 21.4734C11.6082 20.6439 10.2829 19.0763 10.1173 17.1727C10.1173 17.1727 10.724 14.9121 14.4613 14.9121C14.8653 14.9121 16.0203 13.7848 16.0417 13.4578C16.0369 13.3511 13.7494 12.4412 12.8577 11.5626C12.3812 11.0932 12.1549 10.8668 11.9545 10.697C11.8458 10.6052 11.7322 10.5194 11.6141 10.44C11.3146 9.39193 11.3018 8.28269 11.5773 7.22806C10.2271 7.8428 9.17702 8.81454 8.41359 9.67259H8.40752C7.88651 9.01268 7.92326 6.83579 7.95295 6.38128C7.94672 6.35311 7.56429 6.57979 7.5142 6.61397C7.05445 6.94214 6.62464 7.31035 6.2298 7.71429C5.78063 8.16999 5.37024 8.66235 5.00289 9.18626C5.00289 9.18691 5.00251 9.18768 5.00229 9.18833C5.00229 9.18762 5.00267 9.18691 5.00289 9.18626C4.15777 10.3839 3.55839 11.7371 3.23938 13.1678C3.23309 13.1963 3.22779 13.2258 3.22166 13.2545C3.19695 13.3702 3.08571 13.9574 3.07018 14.0834C3.07133 14.0737 3.06898 14.093 3.07018 14.0834C2.96874 14.6901 2.90402 15.3025 2.87637 15.917C2.87637 15.9395 2.875 15.9617 2.875 15.9841C2.875 23.2416 8.75938 29.125 16.0177 29.125C22.5181 29.125 27.9155 24.4061 28.9722 18.2077C28.9945 18.0395 29.0123 17.8704 29.0319 17.7007C29.2932 15.447 29.0029 13.0783 28.1795 11.0974ZM26.8757 11.7723C26.8764 11.777 26.8772 11.7818 26.8779 11.7865L26.8775 11.7851L26.8757 11.7723Z" fill="url(#paint11_linear_21_3839)"/>
</g>
<defs>
<linearGradient id="paint0_linear_21_3839" x1="2293.21" y1="422.436" x2="182.886" y2="2458.14" gradientUnits="userSpaceOnUse">
<stop offset="0.05" stop-color="#FFF44F"/>
<stop offset="0.37" stop-color="#FF980E"/>
<stop offset="0.53" stop-color="#FF3647"/>
<stop offset="0.7" stop-color="#E31587"/>
</linearGradient>
<radialGradient id="paint1_radial_21_3839" cx="0" cy="0" r="1" gradientUnits="userSpaceOnUse" gradientTransform="translate(1838.12 -267.685) scale(2688.01 2733.28)">
<stop offset="0.13" stop-color="#FFBD4F"/>
<stop offset="0.28" stop-color="#FF980E"/>
<stop offset="0.47" stop-color="#FF3750"/>
<stop offset="0.78" stop-color="#EB0878"/>
<stop offset="0.86" stop-color="#E50080"/>
</radialGradient>
<radialGradient id="paint2_radial_21_3839" cx="0" cy="0" r="1" gradientUnits="userSpaceOnUse" gradientTransform="translate(1057.45 861.92) scale(2755.21 2733.28)">
<stop offset="0.3" stop-color="#960E18"/>
<stop offset="0.35" stop-color="#B11927" stop-opacity="0.74"/>
<stop offset="0.43" stop-color="#DB293D" stop-opacity="0.34"/>
<stop offset="0.5" stop-color="#F5334B" stop-opacity="0.09"/>
<stop offset="0.53" stop-color="#FF3750" stop-opacity="0"/>
</radialGradient>
<radialGradient id="paint3_radial_21_3839" cx="0" cy="0" r="1" gradientUnits="userSpaceOnUse" gradientTransform="translate(318.069 -126.387) scale(882.276 1497.88)">
<stop offset="0.13" stop-color="#FFF44F"/>
<stop offset="0.53" stop-color="#FF980E"/>
</radialGradient>
<radialGradient id="paint4_radial_21_3839" cx="0" cy="0" r="1" gradientUnits="userSpaceOnUse" gradientTransform="translate(275.837 1418.22) scale(1167.49 1279.58)">
<stop offset="0.35" stop-color="#3A8EE6"/>
<stop offset="0.67" stop-color="#9059FF"/>
<stop offset="1" stop-color="#C139E6"/>
</radialGradient>
<radialGradient id="paint5_radial_21_3839" cx="0" cy="0" r="1" gradientUnits="userSpaceOnUse" gradientTransform="translate(555.688 431.54) scale(619.935 754.951)">
<stop offset="0.21" stop-color="#9059FF" stop-opacity="0"/>
<stop offset="0.97" stop-color="#6E008B" stop-opacity="0.6"/>
</radialGradient>
<radialGradient id="paint6_radial_21_3839" cx="0" cy="0" r="1" gradientUnits="userSpaceOnUse" gradientTransform="translate(680.526 -313.962) scale(928.154 931.453)">
<stop offset="0.1" stop-color="#FFE226"/>
<stop offset="0.79" stop-color="#FF7139"/>
</radialGradient>
<radialGradient id="paint7_radial_21_3839" cx="0" cy="0" r="1" gradientUnits="userSpaceOnUse" gradientTransform="translate(2070.83 -840.899) scale(4431.21 3719.76)">
<stop offset="0.11" stop-color="#FFF44F"/>
<stop offset="0.46" stop-color="#FF980E"/>
<stop offset="0.72" stop-color="#FF3647"/>
<stop offset="0.9" stop-color="#E31587"/>
</radialGradient>
<radialGradient id="paint8_radial_21_3839" cx="0" cy="0" r="1" gradientTransform="matrix(306.811 1371.98 -6163.7 304.481 346.571 56.8108)" gradientUnits="userSpaceOnUse">
<stop stop-color="#FFF44F"/>
<stop offset="0.3" stop-color="#FF980E"/>
<stop offset="0.57" stop-color="#FF3647"/>
<stop offset="0.74" stop-color="#E31587"/>
</radialGradient>
<radialGradient id="paint9_radial_21_3839" cx="0" cy="0" r="1" gradientUnits="userSpaceOnUse" gradientTransform="translate(214.912 -433.762) scale(2544.16 2499.47)">
<stop offset="0.14" stop-color="#FFF44F"/>
<stop offset="0.48" stop-color="#FF980E"/>
<stop offset="0.66" stop-color="#FF3647"/>
<stop offset="0.9" stop-color="#E31587"/>
</radialGradient>
<radialGradient id="paint10_radial_21_3839" cx="0" cy="0" r="1" gradientUnits="userSpaceOnUse" gradientTransform="translate(1562.13 -378.01) scale(3058 2735.74)">
<stop offset="0.09" stop-color="#FFF44F"/>
<stop offset="0.63" stop-color="#FF980E"/>
</radialGradient>
<linearGradient id="paint11_linear_21_3839" x1="2102.87" y1="381.749" x2="415.352" y2="2225.56" gradientUnits="userSpaceOnUse">
<stop offset="0.17" stop-color="#FFF44F" stop-opacity="0.8"/>
<stop offset="0.6" stop-color="#FFF44F" stop-opacity="0"/>
</linearGradient>
<clipPath id="clip0_21_3839">
<rect width="28" height="28" fill="white" transform="translate(2 2)"/>
</clipPath>
</defs>
</svg>
