<svg width="105" height="32" viewBox="0 0 105 32" fill="none" xmlns="http://www.w3.org/2000/svg">
<path d="M16.3805 23.8332C15.4119 21.9237 14.2757 19.9951 12.0592 19.9951C11.6355 19.9951 11.2123 20.0652 10.8239 20.2428L10.071 18.7333C10.9884 17.9449 12.4713 17.3198 14.3771 17.3198C17.342 17.3198 18.8635 18.7503 20.0716 20.5762C20.7886 19.0172 21.1295 16.912 21.1295 14.3024C21.1295 7.78609 19.0949 4.43998 14.3422 4.43998C9.65887 4.43998 7.63531 7.78609 7.63531 14.3024C7.63531 20.7846 9.65887 24.0962 14.3424 24.0962C15.0867 24.0962 15.7607 24.0142 16.3805 23.8332ZM17.5414 26.1074C16.5149 26.383 15.424 26.5351 14.3422 26.5351C8.10599 26.5351 2 21.5511 2 14.3026C2 6.98507 8.10599 2 14.3422 2C20.6831 2 26.7305 6.94951 26.7305 14.3024C26.7305 18.3925 24.8249 21.7162 22.0557 23.8646C22.9505 25.2074 23.8717 26.0993 25.1543 26.0993C26.5541 26.0993 27.1187 25.0157 27.2132 24.1659H29.0363C29.1429 25.2975 28.5777 30 23.4827 30C20.3967 30 18.7651 28.2085 17.5414 26.1074ZM30.7397 19.8894V11.5098C30.7397 10.5554 30.3876 10.1316 29.2934 10.1316H28.1283V7.90483H35.7402V19.7837C35.7402 21.7862 36.8225 22.6692 38.4704 22.6692C39.8227 22.6692 41.1755 22.0699 41.9052 20.7016V11.5098C41.9052 10.5552 41.5521 10.1314 40.4585 10.1314H39.2232V7.90464H46.9063V20.3478C46.9063 21.587 47.3648 22.1519 48.7764 22.1519H49.0238V24.4498L42.1528 25.5454V23.1772H42.0113C40.6822 24.8023 38.8117 25.8989 36.1407 25.8989C33.1403 25.8989 30.7397 24.3795 30.7397 19.8894ZM59.0171 23.6723C61.7234 23.6723 62.7515 21.3142 62.8056 16.566C62.8581 11.9215 61.7234 9.67322 59.0171 9.67322C56.6527 9.67322 55.17 11.9227 55.17 16.566C55.17 21.3151 56.6284 23.6723 59.0171 23.6723ZM59.0171 25.8989C54.1229 25.8989 49.7099 22.1507 49.7099 16.566C49.7099 11.086 54.0166 7.44466 59.0169 7.44466C64.2293 7.44466 68.406 11.1559 68.406 16.566C68.406 22.1507 64.2293 25.8989 59.0171 25.8989ZM68.5636 25.5452V23.3183H69.3049C71.1407 23.3183 71.317 22.7881 71.317 21.1974V11.5098C71.317 10.5554 70.8229 10.1316 69.6937 10.1316H68.7054V7.90483H75.6816L76.0347 11.5463H76.1765C76.9531 8.92912 79.0353 7.55037 80.9878 7.55037C82.5995 7.55037 83.8581 8.46993 83.8581 10.3324C83.8581 11.6283 83.2359 13.0077 81.4942 13.0077C79.9287 13.0077 79.6237 11.9464 78.3289 11.9464C77.1765 11.9464 76.2816 13.043 76.2816 14.6565V21.1974C76.2816 22.7879 76.6703 23.3183 78.4707 23.3183H79.4939V25.5452H68.5636ZM91.7878 22.9529C94.0118 22.9529 94.9288 20.8437 94.9288 18.7238V15.8944C93.3057 17.5786 89.5283 17.6379 89.5283 20.643C89.5283 22.116 90.4 22.9529 91.7878 22.9529ZM95.0352 22.9409C94.1171 24.7083 92.234 25.8987 89.5993 25.8987C86.5405 25.8987 84.5639 24.2716 84.5639 21.4088C84.5639 15.6474 92.5757 17.1785 94.9286 13.3612V12.9482C94.9286 10.0145 93.7756 9.55507 92.505 9.55507C88.9402 9.55507 90.5633 13.3947 87.2808 13.3947C85.7047 13.3947 85.0926 12.4418 85.0926 11.3695C85.0926 9.20099 87.6813 7.44486 92.5409 7.44486C97.14 7.44486 99.9645 8.7179 99.9645 13.3023V20.6198C99.9645 21.7508 100.377 22.3645 101.365 22.3645C101.788 22.3645 102.141 22.2466 102.411 22.0579L103 23.4943C102.517 24.2374 101.234 25.5454 98.7988 25.5454C96.682 25.5454 95.3522 24.5555 95.1754 22.9411L95.0352 22.9409Z" fill="#B92B27"/>
</svg>
