<svg width="32" height="32" viewBox="0 0 32 32" fill="none" xmlns="http://www.w3.org/2000/svg">
<path d="M28.9878 24.1694H27.1657C27.0672 25.0259 26.509 26.0965 25.1137 26.0965C23.8333 26.0965 22.914 25.2071 22.0276 23.8565C23.4917 22.734 24.6752 21.2849 25.4844 19.6239C26.2936 17.9629 26.7062 16.1358 26.6896 14.2871C26.6896 6.94118 20.6487 2 14.3286 2C8.09069 2 2.00049 6.99059 2.00049 14.3035C2.00049 21.5506 8.09069 26.5412 14.3286 26.5412C15.4121 26.5412 16.4955 26.3929 17.5297 26.1129C18.7444 28.2047 20.3696 30 23.4393 30C28.5282 30 29.1027 25.2894 28.9878 24.1694ZM20.0413 20.5788C18.8429 18.7506 17.3163 17.3176 14.3615 17.3176C12.4573 17.3176 10.9798 17.9435 10.0606 18.7341L10.8157 20.2494C11.2097 20.0682 11.6201 20.0024 12.0469 20.0024C14.263 20.0024 15.3957 21.9294 16.3642 23.84C15.7404 24.0212 15.0673 24.1035 14.3286 24.1035C9.65018 24.1035 7.63105 20.7929 7.63105 14.3035C7.63105 7.78118 9.65018 4.43765 14.3286 4.43765C19.0728 4.43765 21.1083 7.78118 21.1083 14.3035C21.0919 16.9059 20.7636 19.0141 20.0413 20.5788Z" fill="#B92B27"/>
</svg>
