<svg width="78" height="32" viewBox="0 0 78 32" fill="none" xmlns="http://www.w3.org/2000/svg">
<path d="M21.4409 12.6869C21.0695 12.8884 20.6843 13.0635 20.2883 13.2109C19.4335 13.5185 18.5496 13.6779 17.6453 13.7375C17.4496 13.7499 17.2536 13.7633 17.0572 13.7668C16.9591 13.7668 16.9224 13.8057 16.9298 13.9C16.9339 13.9475 16.9298 13.9957 16.9298 14.0431V22.3227C16.9298 22.5573 16.9298 22.5576 16.6961 22.5576C15.6978 22.5576 14.6995 22.5541 13.7 22.5615C13.5371 22.5615 13.4963 22.5143 13.4966 22.3549C13.5011 19.574 13.5021 16.793 13.4998 14.0119C13.4998 13.7859 13.4998 13.7843 13.2719 13.7853C11.7691 13.7929 10.2662 13.7623 8.76396 13.8034C8.25368 13.8152 7.74887 13.9114 7.27004 14.0881C6.3253 14.4428 5.81276 15.1543 5.58773 16.1102C5.46948 16.6147 5.43888 17.1282 5.43664 17.6427C5.43028 19.2083 5.43441 20.774 5.4341 22.3396C5.4341 22.557 5.4341 22.5576 5.21641 22.5576C4.21269 22.5576 3.20834 22.5544 2.20559 22.5615C2.04271 22.5615 2 22.513 2 22.3536C2.00382 15.7406 2.00499 9.12765 2.00351 2.51466C2.00351 2.30365 2.00351 2.3011 2.21547 2.3011C3.21928 2.3011 4.2229 2.3011 5.22628 2.3011C5.43377 2.3011 5.4341 2.30301 5.4341 2.51657C5.4341 5.47299 5.4341 8.42919 5.4341 11.3852V11.57C5.49562 11.6045 5.52175 11.5582 5.553 11.5359C6.44959 10.8984 7.4546 10.5408 8.53511 10.3741C9.14072 10.2811 9.74823 10.2524 10.3589 10.253C11.3309 10.2545 12.3027 10.2545 13.2744 10.253C13.5017 10.253 13.502 10.253 13.502 10.0299V2.5478C13.502 2.30142 13.502 2.30078 13.7408 2.30078C14.7335 2.30078 15.7265 2.30078 16.7197 2.30078C16.9301 2.30078 16.9307 2.30078 16.9307 2.51306V10.0283C16.9307 10.253 16.9307 10.2549 17.1557 10.2514C17.7977 10.2454 18.439 10.2603 19.08 10.1902C20.4145 10.0446 21.3809 9.38221 21.9681 8.17738C22.0455 8.018 22.1141 8.00493 22.2686 8.06582C23.083 8.38614 23.9015 8.6966 24.721 9.00418C24.847 9.05136 24.9012 9.10874 24.9008 9.25312C24.8965 13.6211 24.8965 17.989 24.9008 22.3568C24.9008 22.5213 24.8514 22.5608 24.6939 22.5599C23.6902 22.5532 22.6859 22.5567 21.6831 22.5563C21.4692 22.5563 21.4686 22.5563 21.4686 22.3332C21.4686 19.1913 21.4686 16.0494 21.4686 12.9075C21.4683 12.8424 21.4845 12.7726 21.4409 12.6869Z" fill="black"/>
<path d="M55.1346 21.4092C55.089 21.3974 55.0653 21.4315 55.0388 21.4535C54.011 22.2685 52.8397 22.7176 51.5327 22.8174C50.1516 22.9229 48.8213 22.7202 47.5695 22.1136C45.789 21.2505 44.6677 19.8257 44.0988 17.9493C43.7746 16.877 43.6872 15.778 43.769 14.6612C43.8594 13.4206 44.1701 12.2474 44.8141 11.1761C45.8079 9.5234 47.2797 8.53787 49.1453 8.11617C49.7878 7.97072 50.446 7.90721 51.1043 7.92716C52.767 7.97688 54.2219 8.54234 55.4393 9.69043C55.4695 9.71943 55.5015 9.74652 55.5453 9.78605C55.6208 9.60309 55.6219 9.41727 55.6544 9.23942C55.7079 8.94777 55.75 8.6542 55.7922 8.36033C55.8102 8.23284 55.8557 8.17228 56.0031 8.17355C56.8206 8.18184 57.6382 8.18055 58.4573 8.17355C58.6013 8.17355 58.6487 8.21339 58.6487 8.36098C58.6527 13.2858 58.6805 18.21 58.6598 23.1352C58.6516 25.2258 57.8629 26.9997 56.23 28.3526C55.3375 29.0924 54.2979 29.5371 53.1686 29.7673C51.6185 30.0831 50.0669 30.108 48.5398 29.6517C46.4644 29.0319 44.9464 27.7448 44.0237 25.775C43.9483 25.6107 43.8881 25.4401 43.8434 25.265C43.8206 25.1785 43.8434 25.1305 43.9392 25.1056C44.8952 24.8432 45.8506 24.5776 46.8048 24.3087C46.8817 24.2872 46.9215 24.2992 46.9451 24.3814C47.2413 25.4163 47.9511 26.0816 48.8987 26.5148C49.6274 26.8479 50.4032 26.9343 51.2001 26.8819C51.8887 26.8368 52.5585 26.7157 53.1854 26.4179C54.4101 25.8365 55.0922 24.8761 55.153 23.5132C55.1824 22.8509 55.1628 22.1866 55.1644 21.5233C55.1606 21.4873 55.1728 21.4414 55.1346 21.4092ZM55.2495 15.2575C55.2575 15.0217 55.2213 14.6688 55.147 14.3204C54.8779 13.062 54.2072 12.1042 53.0217 11.5544C52.161 11.1554 51.2507 11.0887 50.3285 11.2567C49.0669 11.4868 48.116 12.1648 47.5722 13.3368C47.0109 14.5461 46.9853 15.8019 47.4169 17.0543C47.8026 18.1734 48.572 18.9406 49.6911 19.3419C50.3725 19.5863 51.0778 19.6348 51.7947 19.5481C52.9454 19.4088 53.881 18.895 54.5395 17.927C55.0586 17.1611 55.2499 16.2957 55.2499 15.2588L55.2495 15.2575Z" fill="black"/>
<path d="M64.4859 16.6048C64.5611 16.9596 64.6951 17.2992 64.8824 17.6097C65.49 18.6364 66.4002 19.2398 67.5598 19.453C68.6754 19.6583 69.7703 19.577 70.811 19.0928C71.4214 18.8092 71.9237 18.3757 72.3895 17.8973C72.433 17.8526 72.4672 17.7956 72.5437 17.7717L74.772 20.0574C74.8104 20.0736 74.772 20.0994 74.7442 20.1291C73.6199 21.317 72.2986 22.1731 70.6839 22.5336C69.667 22.7587 68.6227 22.8324 67.5845 22.7523C66.4176 22.6666 65.3195 22.3529 64.3153 21.7467C62.7266 20.787 61.7428 19.3756 61.2643 17.5983C61.043 16.7665 60.9485 15.9061 60.9843 15.0461C61.0432 13.4639 61.4452 11.9862 62.4003 10.6976C63.3886 9.36206 64.7193 8.53364 66.3253 8.15626C67.9589 7.77378 69.5854 7.83752 71.1701 8.39595C73.4768 9.20746 74.9122 10.8346 75.5169 13.1917C75.7884 14.249 75.858 15.3241 75.6864 16.4094C75.6622 16.5624 75.6095 16.608 75.4551 16.6076C71.8759 16.6034 68.2969 16.6024 64.718 16.6048H64.4859ZM64.5633 13.8047H72.1688C72.1957 13.7571 72.1748 13.7281 72.1646 13.6995C71.8101 12.7009 71.1672 11.9585 70.1987 11.5142C69.4085 11.1515 68.5749 11.0788 67.7227 11.1881C66.7596 11.3112 65.9378 11.7182 65.3002 12.4596C64.9622 12.8511 64.7111 13.3099 64.5633 13.8056V13.8047Z" fill="black"/>
<path d="M31.6373 9.6523C31.7437 9.5567 31.8513 9.45692 31.9628 9.36163C32.838 8.61194 33.8349 8.09718 34.9836 7.97191C36.6898 7.78577 38.201 8.25878 39.4355 9.48274C40.383 10.4221 40.8955 11.5893 41.1464 12.8837C41.2664 13.5008 41.2946 14.1249 41.2946 14.7515C41.2946 17.2666 41.2946 19.7819 41.2946 22.2973C41.2946 22.5577 41.2946 22.5581 41.0353 22.5581H38.071C37.8261 22.5581 37.8254 22.5581 37.8254 22.3161C37.8254 19.8272 37.8254 17.3384 37.8254 14.8497C37.8254 14.2641 37.7879 13.6847 37.6192 13.1192C37.2794 11.9801 36.4029 11.2801 35.2185 11.1835C34.7222 11.1434 34.2305 11.1459 33.7482 11.2639C32.7575 11.5051 32.1622 12.1544 31.8717 13.1103C31.6984 13.6805 31.6655 14.2664 31.6655 14.8567C31.6655 17.3299 31.6655 19.8028 31.6655 22.2753C31.6655 22.626 31.6513 22.5565 31.3786 22.5571C30.3966 22.56 29.4143 22.5571 28.4319 22.5571C28.2232 22.5571 28.2225 22.5571 28.2225 22.3448C28.2225 17.6961 28.2225 13.0475 28.2225 8.39903C28.2225 8.17909 28.2225 8.17847 28.4399 8.17847H31.1955C31.4326 8.17847 31.4293 8.17847 31.4542 8.40987C31.4964 8.79968 31.5426 9.18887 31.5871 9.57837C31.5877 9.59412 31.5928 9.60941 31.6015 9.62248C31.6104 9.63557 31.6228 9.64588 31.6373 9.6523Z" fill="black"/>
<path d="M21.2758 4.05748C21.2793 2.90588 22.2024 1.99492 23.3613 2.00002C24.4976 2.0048 25.4105 2.93648 25.4061 4.08394C25.4023 4.63164 25.1812 5.15545 24.7914 5.54013C24.4016 5.92483 23.8748 6.13885 23.3271 6.13519C22.7794 6.1315 22.2555 5.9104 21.8709 5.52053C21.4862 5.13065 21.2721 4.60391 21.2758 4.05621V4.05748Z" fill="black"/>
</svg>
