<svg width="219" height="32" viewBox="0 0 219 32" fill="none" xmlns="http://www.w3.org/2000/svg">
<path d="M94.8179 20.2154H109.023L101.51 8.10837L87.7232 29.9983H81.4484L98.2187 3.70442C98.5867 3.17268 99.0791 2.73933 99.6529 2.44226C100.227 2.14518 100.864 1.99341 101.51 2.00022C102.814 2.00022 104.03 2.62008 104.736 3.66002L121.571 29.9983H115.296L112.337 25.106H97.9527L94.8179 20.2154ZM159.995 25.106V2.26661H154.671V27.343C154.671 28.0294 154.937 28.6937 155.445 29.2026C155.953 29.7114 156.639 29.9983 157.39 29.9983H181.671L184.809 25.106H159.995ZM71.9041 21.0128C77.0742 21.0128 81.2728 16.8309 81.2728 11.6517C81.2728 6.47247 77.076 2.26661 71.9041 2.26661H48.6101V30H53.9337V7.15722H71.5512C74.0263 7.15722 76.014 9.17221 76.014 11.65C76.014 14.1277 74.0246 16.1427 71.5512 16.1427L56.5401 16.1205L72.4342 29.9983H80.1699L69.4749 21.0111L71.9041 21.0128ZM15.8451 29.9983C8.2032 29.9983 2 23.8014 2 16.1427C2 8.48404 8.2015 2.2649 15.8451 2.2649H31.9353C39.5806 2.2649 45.7787 8.48575 45.7787 16.1427C45.7787 23.7997 39.5806 29.9983 31.9353 29.9983H15.8451ZM31.5773 25.106C32.7535 25.1078 33.9186 24.8773 35.0059 24.4276C36.0931 23.978 37.0812 23.3181 37.9137 22.4856C38.7461 21.6532 39.4066 20.6645 39.8573 19.5761C40.308 18.4877 40.5401 17.321 40.5403 16.1427C40.541 14.963 40.3097 13.7948 39.8596 12.7046C39.4095 11.6145 38.7494 10.6239 37.9171 9.78932C37.0848 8.95476 36.0965 8.29262 35.0087 7.84071C33.9209 7.38879 32.7549 7.15596 31.5773 7.15551H16.1997C13.8219 7.15733 11.5423 8.10515 9.86206 9.79053C8.18186 11.4759 7.23872 13.7608 7.24008 16.1427C7.2403 17.3207 7.47229 18.4871 7.92277 19.5753C8.37326 20.6635 9.03342 21.652 9.86551 22.4844C10.6976 23.3169 11.6853 23.9768 12.7722 24.4267C13.859 24.8765 15.0237 25.1073 16.1997 25.106H31.5773ZM132.687 29.9983C125.043 29.9983 118.835 23.8014 118.835 16.1427C118.835 8.48404 125.043 2.2649 132.687 2.2649H151.799L148.681 7.15551H133.041C130.662 7.15687 128.381 8.10412 126.698 9.7892C125.016 11.4743 124.07 13.7594 124.068 16.1427C124.068 21.0999 128.091 25.106 133.041 25.106H152.241L149.104 29.9983H132.687ZM197.799 25.106C195.848 25.1069 193.951 24.4694 192.396 23.2907C190.84 22.1119 189.712 20.4564 189.182 18.5761H211.939L215.075 13.6854H189.182C189.716 11.8074 190.845 10.1544 192.4 8.97633C193.954 7.79826 195.85 7.15912 197.799 7.15551H213.419L216.579 2.2649H197.444C189.801 2.2649 183.592 8.48575 183.592 16.1427C183.592 23.7997 189.801 29.9983 197.444 29.9983H213.862L217 25.106H197.799Z" fill="#EA1B22"/>
</svg>
