<svg width="205" height="33" viewBox="0 0 205 33" fill="none" xmlns="http://www.w3.org/2000/svg">
<path d="M202.985 17.1326C202.985 14.9591 202.412 12.9173 201.409 11.1429C205.686 1.63688 196.825 3.02916 196.332 3.12399C194.455 3.48473 192.718 4.06381 191.116 4.79797C190.879 4.78486 190.642 4.77767 190.402 4.77767C184.423 4.77767 179.418 8.87246 178.138 14.3618C181.289 10.8904 183.494 9.48977 184.815 8.92938C184.606 9.11331 184.399 9.30013 184.195 9.48977C184.127 9.55238 184.062 9.61596 183.995 9.67889C183.862 9.80464 183.729 9.93155 183.598 10.0596C183.52 10.1355 183.444 10.2121 183.368 10.2887C183.252 10.4037 183.138 10.5195 183.024 10.6361C182.944 10.7188 182.865 10.8016 182.787 10.8844C182.681 10.9948 182.577 11.1059 182.473 11.2178C182.393 11.3044 182.315 11.391 182.236 11.4779C182.059 11.6735 181.884 11.8711 181.711 12.0707C181.622 12.175 181.532 12.2798 181.444 12.3851C181.365 12.4778 181.288 12.5704 181.211 12.6631C181.129 12.7627 181.048 12.8627 180.967 12.9632C180.888 13.06 180.81 13.1567 180.734 13.2535C180.661 13.3455 180.59 13.4372 180.519 13.529C180.439 13.6329 180.358 13.7366 180.279 13.8398C180.223 13.9137 180.17 13.987 180.115 14.0605C179.641 14.6956 179.187 15.3449 178.753 16.0074C178.752 16.0088 178.751 16.0104 178.75 16.012C178.644 16.1744 178.539 16.3375 178.436 16.5014L178.419 16.5279C178.319 16.6867 178.22 16.8463 178.122 17.0066L178.111 17.0233C177.866 17.425 177.627 17.8309 177.396 18.2409C176.263 20.2574 175.711 21.6662 175.688 21.7499C172.109 34.312 183.278 29.0071 184.836 28.2152C186.514 29.0293 188.404 29.4874 190.402 29.4874C195.873 29.4874 200.528 26.0583 202.261 21.2696H195.65C194.671 22.8923 192.788 23.9915 190.624 23.9915C187.454 23.9915 184.884 21.6331 184.884 18.7238H202.881C202.949 18.2028 202.985 17.6717 202.985 17.1326ZM200.634 4.97463C201.718 5.69279 202.587 6.82045 201.094 10.6183C199.663 8.35782 197.509 6.5846 194.949 5.60999C196.114 5.05786 198.997 3.88993 200.634 4.97463ZM177.607 28.19C176.725 27.3013 176.569 25.1368 178.516 21.1927C179.499 23.9673 181.46 26.2921 183.995 27.7675C182.734 28.4489 179.388 29.9829 177.607 28.19ZM184.857 15.3453C184.957 12.5177 187.464 10.2537 190.543 10.2537C193.622 10.2537 196.128 12.5177 196.229 15.3453H184.857Z" fill="#1EBBEE"/>
<path d="M47.3688 5.64683C47.3688 5.87046 47.2901 6.06269 47.1325 6.22352C46.9749 6.38358 46.7859 6.46362 46.5654 6.46362C46.3434 6.46362 46.1533 6.38358 45.9949 6.22352C45.8366 6.06269 45.7574 5.87007 45.7574 5.64567C45.7574 5.42127 45.8362 5.22905 45.9938 5.06898C46.1521 4.90892 46.3434 4.82888 46.5677 4.82888C46.7881 4.82888 46.9768 4.90892 47.1336 5.06898C47.2904 5.22905 47.3688 5.42167 47.3688 5.64683ZM47.2245 5.64573C47.2245 5.45809 47.1597 5.29687 47.0302 5.16208C46.9014 5.02728 46.7469 4.9599 46.5666 4.9599C46.3825 4.9599 46.2256 5.02728 46.0961 5.16208C45.9665 5.2961 45.9018 5.45732 45.9018 5.64573C45.9018 5.83566 45.9665 5.99764 46.0961 6.13166C46.2264 6.26569 46.3825 6.3327 46.5643 6.3327C46.7446 6.3327 46.8995 6.26569 47.0291 6.13166C47.1594 5.99764 47.2245 5.83566 47.2245 5.64573ZM46.9688 6.11673H46.7597L46.6086 5.73647H46.3859V6.11673H46.187V5.17586H46.6188C46.737 5.17586 46.8249 5.2019 46.8825 5.25398C46.9408 5.30606 46.97 5.37308 46.97 5.45503C46.97 5.57221 46.9124 5.65492 46.7972 5.70317L46.9688 6.11673ZM46.3859 5.58714H46.5904C46.7063 5.58714 46.7643 5.54233 46.7643 5.45273C46.7643 5.36695 46.7113 5.32407 46.6052 5.32407H46.3859V5.58714ZM45.5167 10.2533V10.9228C45.2212 10.9624 44.9648 10.9822 44.7476 10.9822C43.7043 10.9822 43.1827 10.4315 43.1827 9.33004V6.04727H42.2267V5.38315H43.1827L43.2201 4.01173L43.9999 3.93614V5.38315H45.207V6.04727H43.9999V9.47043C43.9999 10.032 44.2883 10.3127 44.8651 10.3127C45.0574 10.3127 45.2746 10.2929 45.5167 10.2533ZM41.5726 5.38315V6.04727H40.2908V10.8365H39.4523V6.04727H38.5336V5.38315H39.4523C39.4665 4.50846 39.6321 3.94514 39.949 3.69317C40.2694 3.4412 40.6593 3.31521 41.1187 3.31521C41.343 3.31521 41.5993 3.34041 41.8878 3.3908V4.06571C41.7062 4.01892 41.5335 3.99553 41.3697 3.99553C41.0029 3.99553 40.7305 4.07832 40.5525 4.2439C40.378 4.40588 40.2908 4.71184 40.2908 5.16178V5.38315H41.5726ZM35.4387 10.9822C34.6981 10.9822 34.1195 10.7051 33.7029 10.1507C33.2898 9.59642 33.0833 8.9089 33.0833 8.0882C33.0833 7.22071 33.3165 6.5278 33.783 6.00946C34.2494 5.49113 34.8298 5.23197 35.5242 5.23197C36.2684 5.23197 36.8541 5.50554 37.2814 6.05267C37.7122 6.5962 37.9276 7.27651 37.9276 8.0936C37.9276 8.94309 37.6962 9.63781 37.2333 10.1777C36.7704 10.7141 36.1722 10.9822 35.4387 10.9822ZM35.5028 10.2857C35.9301 10.2857 36.2879 10.1076 36.5764 9.7512C36.8648 9.39484 37.009 8.84051 37.009 8.0882C37.009 7.3323 36.8577 6.78517 36.555 6.44682C36.2523 6.10486 35.898 5.93387 35.4921 5.93387C35.0755 5.93387 34.723 6.10666 34.4346 6.45222C34.1462 6.79417 34.002 7.3377 34.002 8.08281C34.002 8.8711 34.1462 9.43623 34.4346 9.77819C34.723 10.1165 35.0791 10.2857 35.5028 10.2857ZM27.5476 9.42184L28.3487 9.25446C28.5268 9.94197 29.0894 10.2857 30.0365 10.2857C30.3855 10.2857 30.681 10.2065 30.9231 10.0482C31.1652 9.88977 31.2863 9.6666 31.2863 9.37864C31.2863 8.95029 30.9783 8.67853 30.3623 8.56334L29.2247 8.34737C28.7796 8.26098 28.4253 8.09181 28.1618 7.83984C27.8983 7.58787 27.7666 7.25492 27.7666 6.84097C27.7666 6.38383 27.9464 6.00226 28.306 5.6963C28.6656 5.38674 29.1499 5.23197 29.7588 5.23197C30.9302 5.23197 31.6531 5.69451 31.9272 6.61959L31.1581 6.78697C30.9374 6.21824 30.4834 5.93387 29.7962 5.93387C29.4543 5.93387 29.173 6.00587 28.9523 6.14985C28.7351 6.29023 28.6265 6.4882 28.6265 6.74377C28.6265 7.14692 28.906 7.40069 29.465 7.50508L30.5172 7.69405C31.6175 7.89563 32.1676 8.43376 32.1676 9.30845C32.1676 9.80878 31.9628 10.2137 31.5534 10.5233C31.1439 10.8293 30.5991 10.9822 29.919 10.9822C28.6407 10.9822 27.8502 10.4621 27.5476 9.42184ZM24.3673 10.9822C23.6266 10.9822 23.048 10.7051 22.6314 10.1507C22.2184 9.59642 22.0119 8.9089 22.0119 8.0882C22.0119 7.22071 22.2451 6.5278 22.7115 6.00946C23.178 5.49113 23.7584 5.23197 24.4527 5.23197C25.1969 5.23197 25.7826 5.50554 26.2099 6.05267C26.6408 6.5962 26.8562 7.27651 26.8562 8.0936C26.8562 8.94309 26.6247 9.63781 26.1618 10.1777C25.699 10.7141 25.1008 10.9822 24.3673 10.9822ZM24.4313 10.2857C24.8586 10.2857 25.2165 10.1076 25.5049 9.7512C25.7933 9.39484 25.9375 8.84051 25.9375 8.0882C25.9375 7.3323 25.7862 6.78517 25.4835 6.44682C25.1809 6.10486 24.8266 5.93387 24.4207 5.93387C24.0041 5.93387 23.6516 6.10666 23.3631 6.45222C23.0747 6.79417 22.9305 7.3377 22.9305 8.08281C22.9305 8.8711 23.0747 9.43623 23.3631 9.77819C23.6516 10.1165 24.0076 10.2857 24.4313 10.2857ZM19.6968 10.8365H18.8582V5.38315H19.5953V6.65738C19.8552 6.05626 20.1151 5.66751 20.3751 5.49114C20.6386 5.31116 20.9074 5.22117 21.1816 5.22117C21.267 5.22117 21.3774 5.22837 21.5127 5.24277V6.05267H21.3418C20.8789 6.05267 20.4944 6.22724 20.1881 6.57639C19.8819 6.92555 19.7181 7.38449 19.6968 7.95322V10.8365ZM16.7942 8.92509L17.5526 9.06008C17.4458 9.6612 17.209 10.1327 16.8422 10.4747C16.4755 10.8131 16.0179 10.9822 15.4696 10.9822C14.7254 10.9822 14.1575 10.7051 13.7658 10.1507C13.3777 9.59642 13.1836 8.91969 13.1836 8.12059C13.1836 7.2927 13.3884 6.60519 13.7978 6.05806C14.2109 5.50733 14.7717 5.23197 15.4803 5.23197C16.0678 5.23197 16.5378 5.41014 16.8903 5.76649C17.2464 6.11925 17.4671 6.57639 17.5526 7.13792L16.7942 7.2837C16.6517 6.38382 16.2209 5.93387 15.5016 5.93387C15.0387 5.93387 14.6827 6.13366 14.4334 6.53321C14.1842 6.92916 14.0596 7.44389 14.0596 8.07741C14.0596 8.77572 14.1824 9.31925 14.4281 9.708C14.6773 10.0931 15.0263 10.2857 15.4749 10.2857C16.1693 10.2857 16.609 9.83218 16.7942 8.92509ZM11.8032 3.46639V4.40588H10.9006V3.46639H11.8032ZM11.7765 5.38315V10.8365H10.938V5.38315H11.7765ZM9.03949 10.8365H8.15287V4.40047L5.78145 10.8365H5.1619L2.77445 4.40047V10.8365H2V3.46639H3.35663L5.55179 9.36245L7.70423 3.46639H9.03949V10.8365ZM168.451 26.3897H164.24V15.057H167.9V17.3971C168.319 15.6959 169.293 14.8453 170.821 14.8453C170.975 14.8453 171.189 14.8601 171.46 14.8898V18.8457C171.152 18.7714 170.876 18.7343 170.634 18.7343C169.179 18.7343 168.451 19.5552 168.451 21.1969V26.3897ZM159.45 22.3224L163.551 22.601C163.308 23.7153 162.687 24.6662 161.688 25.4536C160.696 26.2337 159.351 26.6237 157.653 26.6237C155.765 26.6237 154.258 26.074 153.134 24.9745C152.01 23.8676 151.447 22.497 151.447 20.8626C151.447 19.1689 152.002 17.7388 153.112 16.5725C154.222 15.4061 155.702 14.823 157.554 14.823C159.347 14.823 160.795 15.3727 161.897 16.4722C163.007 17.5717 163.562 19.0686 163.562 20.9629C163.562 21.1189 163.558 21.3344 163.551 21.6092H156.044C156.059 22.3224 156.184 22.8536 156.419 23.2027C156.654 23.5444 157.102 23.7153 157.764 23.7153C158.719 23.7153 159.281 23.251 159.45 22.3224ZM159.164 19.3806C159.156 18.6154 159.002 18.1028 158.701 17.8428C158.407 17.5754 158.039 17.4416 157.598 17.4416C156.555 17.4416 156.033 18.088 156.033 19.3806H159.164ZM148.685 26.3897H144.475V15.057H148.134V17.3971C148.553 15.6959 149.527 14.8453 151.055 14.8453C151.21 14.8453 151.423 14.8601 151.695 14.8898V18.8457C151.386 18.7714 151.11 18.7343 150.868 18.7343C149.413 18.7343 148.685 19.5552 148.685 21.1969V26.3897ZM137.579 26.6237C135.72 26.6237 134.243 26.0405 133.148 24.8742C132.053 23.7004 131.505 22.3261 131.505 20.7512C131.505 19.0574 132.075 17.6459 133.214 16.5168C134.36 15.3876 135.848 14.823 137.678 14.823C139.523 14.823 141.003 15.3801 142.12 16.4945C143.245 17.6088 143.807 19.0054 143.807 20.6843C143.807 22.3781 143.237 23.7933 142.098 24.9299C140.967 26.0591 139.46 26.6237 137.579 26.6237ZM137.645 23.927C138.328 23.927 138.744 23.5704 138.891 22.8573C139.045 22.1367 139.122 21.3864 139.122 20.6063C139.122 19.544 139.016 18.7788 138.802 18.3108C138.589 17.8428 138.207 17.6088 137.656 17.6088C137.149 17.6088 136.778 17.8502 136.543 18.3331C136.308 18.816 136.19 19.6109 136.19 20.7178C136.19 22.0178 136.311 22.8796 136.554 23.303C136.796 23.719 137.16 23.927 137.645 23.927ZM130.804 11.1791V26.3897H126.472V11.1791H130.804ZM118.673 29.9667H114.275V15.057H118.32V16.6616C118.886 15.4359 119.94 14.823 121.484 14.823C122.821 14.823 123.868 15.3504 124.625 16.4053C125.382 17.4528 125.761 18.8828 125.761 20.6955C125.761 22.5081 125.371 23.9493 124.592 25.0191C123.821 26.0888 122.799 26.6237 121.528 26.6237C120.279 26.6237 119.327 26.1408 118.673 25.1751V29.9667ZM118.673 22.2444C118.673 22.7496 118.787 23.1433 119.015 23.4256C119.242 23.7004 119.525 23.8379 119.863 23.8379C120.392 23.8379 120.756 23.5927 120.955 23.1024C121.153 22.6047 121.252 21.8432 121.252 20.8181C121.252 19.6369 121.138 18.8086 120.911 18.3331C120.683 17.8502 120.341 17.6088 119.885 17.6088C119.613 17.6088 119.342 17.7165 119.07 17.9319C118.805 18.1474 118.673 18.5003 118.673 18.9906V22.2444ZM114.301 26.3897H109.341L107.28 22.7793L105.086 26.3897H101.515L105.45 20.3835L102 15.057H106.894L108.051 17.1742C108.103 17.2708 108.165 17.3822 108.239 17.5085C108.276 17.5679 108.327 17.6645 108.393 17.7982C108.474 17.6719 108.573 17.5011 108.691 17.2856C108.705 17.2485 108.746 17.1705 108.812 17.0516L109.958 15.057H113.585L110.3 20.2052L114.301 26.3897ZM102.192 22.757V26.3897H90.8712V11.1791H102.192V14.6893H95.4017V16.8956H100.891V20.272H95.4017V22.757H102.192ZM85.6778 15.057V17.9431H83.4401V22.1218C83.4401 22.6938 83.5467 23.0356 83.7598 23.147C83.9729 23.251 84.1934 23.303 84.4212 23.303C84.7739 23.303 85.1928 23.2399 85.6778 23.1136V26.2783C84.8106 26.4491 83.9582 26.5346 83.1204 26.5346C81.7683 26.5346 80.7725 26.2411 80.1332 25.6542C79.5012 25.0674 79.1852 24.1313 79.1852 22.8461L79.1963 21.5201V17.9431H77.5208V15.057H79.1963L79.2624 11.3686L83.4401 11.3017V15.057H85.6778ZM73.965 22.3224L78.0656 22.601C77.8231 23.7153 77.2021 24.6662 76.2027 25.4536C75.2106 26.2337 73.8658 26.6237 72.1683 26.6237C70.2797 26.6237 68.7732 26.074 67.6489 24.9745C66.5245 23.8676 65.9623 22.497 65.9623 20.8626C65.9623 19.1689 66.5172 17.7388 67.6268 16.5725C68.7365 15.4061 70.2172 14.823 72.0691 14.823C73.8622 14.823 75.3098 15.3727 76.4121 16.4722C77.5218 17.5717 78.0766 19.0686 78.0766 20.9629C78.0766 21.1189 78.0729 21.3344 78.0656 21.6092H70.5589C70.5736 22.3224 70.6986 22.8536 70.9337 23.2027C71.1689 23.5444 71.6171 23.7153 72.2785 23.7153C73.2338 23.7153 73.796 23.251 73.965 22.3224ZM73.6784 19.3806C73.6711 18.6154 73.5168 18.1028 73.2155 17.8428C72.9215 17.5754 72.5541 17.4416 72.1132 17.4416C71.0697 17.4416 70.5479 18.088 70.5479 19.3806H73.6784ZM65.2616 26.3897H60.8634V19.258C60.8634 18.6711 60.7715 18.296 60.5878 18.1325C60.4114 17.9691 60.1873 17.8874 59.9154 17.8874C59.1144 17.8874 58.7139 18.452 58.7139 19.5812V26.3897H54.3157V15.057H58.3942V16.6616C58.9968 15.4359 60.0734 14.823 61.624 14.823C62.4397 14.823 63.1268 14.9827 63.6853 15.3021C64.2511 15.6142 64.6553 16.0227 64.8978 16.5279C65.1403 17.0256 65.2616 17.8948 65.2616 19.1354V26.3897ZM50.9584 26.3897H46.7476V15.057H50.4073V17.3971C50.8261 15.6959 51.7998 14.8453 53.3284 14.8453C53.4827 14.8453 53.6958 14.8601 53.9677 14.8898V18.8457C53.6591 18.7714 53.3835 18.7343 53.141 18.7343C51.6859 18.7343 50.9584 19.5552 50.9584 21.1969V26.3897ZM41.9573 22.3224L46.0579 22.601C45.8154 23.7153 45.1944 24.6662 44.195 25.4536C43.2029 26.2337 41.8581 26.6237 40.1606 26.6237C38.272 26.6237 36.7655 26.074 35.6412 24.9745C34.5168 23.8676 33.9546 22.497 33.9546 20.8626C33.9546 19.1689 34.5095 17.7388 35.6191 16.5725C36.7288 15.4061 38.2095 14.823 40.0614 14.823C41.8545 14.823 43.3021 15.3727 44.4044 16.4722C45.5141 17.5717 46.0689 19.0686 46.0689 20.9629C46.0689 21.1189 46.0652 21.3344 46.0579 21.6092H38.5512C38.5659 22.3224 38.6909 22.8536 38.926 23.2027C39.1612 23.5444 39.6094 23.7153 40.2708 23.7153C41.2262 23.7153 41.7883 23.251 41.9573 22.3224ZM41.6707 19.3806C41.6634 18.6154 41.5091 18.1028 41.2078 17.8428C40.9138 17.5754 40.5464 17.4416 40.1055 17.4416C39.062 17.4416 38.5402 18.088 38.5402 19.3806H41.6707ZM34.1247 15.057V17.9431H31.887V22.1218C31.887 22.6938 31.9936 23.0356 32.2067 23.147C32.4198 23.251 32.6403 23.303 32.8681 23.303C33.2208 23.303 33.6397 23.2399 34.1247 23.1136V26.2783C33.2575 26.4491 32.4051 26.5346 31.5674 26.5346C30.2152 26.5346 29.2195 26.2411 28.5801 25.6542C27.9481 25.0674 27.6321 24.1313 27.6321 22.8461L27.6432 21.5201V17.9431H25.9677V15.057H27.6432L27.7093 11.3686L31.887 11.3017V15.057H34.1247ZM25.9062 26.3897H21.5081V19.258C21.5081 18.6711 21.4162 18.296 21.2325 18.1325C21.0561 17.9691 20.832 17.8874 20.5601 17.8874C19.7591 17.8874 19.3586 18.452 19.3586 19.5812V26.3897H14.9604V15.057H19.0389V16.6616C19.6415 15.4359 20.7181 14.823 22.2687 14.823C23.0844 14.823 23.7715 14.9827 24.33 15.3021C24.8958 15.6142 25.3 16.0227 25.5425 16.5279C25.785 17.0256 25.9062 17.8948 25.9062 19.1354V26.3897ZM13.5321 11.1791V26.3897H8.91347V11.1791H13.5321Z" fill="black"/>
</svg>
