<svg width="32" height="32" viewBox="0 0 32 32" fill="none" xmlns="http://www.w3.org/2000/svg">
<path d="M30.0004 17.1326C30.0004 14.9591 29.4282 12.9173 28.4246 11.1429C32.7022 1.63688 23.8411 3.02916 23.3477 3.12399C21.4704 3.48473 19.7335 4.06381 18.1315 4.79797C17.8952 4.78486 17.6574 4.77767 17.418 4.77767C11.439 4.77767 6.43425 8.87246 5.15336 14.3618C8.30467 10.8904 10.51 9.48977 11.8307 8.92938C11.6213 9.11331 11.4146 9.30013 11.2106 9.48977C11.143 9.55238 11.0779 9.61596 11.0113 9.67889C10.8775 9.80464 10.7448 9.93155 10.6134 10.0596C10.5357 10.1355 10.4602 10.2121 10.3837 10.2887C10.2681 10.4037 10.1535 10.5195 10.0397 10.6361C9.95941 10.7188 9.8811 10.8016 9.80235 10.8844C9.69706 10.9948 9.59261 11.1059 9.48899 11.2178C9.40914 11.3044 9.33039 11.391 9.25186 11.4779C9.07471 11.6735 8.89984 11.8711 8.7273 12.0707C8.63736 12.175 8.54804 12.2798 8.45933 12.3851C8.38124 12.4778 8.30336 12.5704 8.22691 12.6631C8.14493 12.7627 8.06348 12.8627 7.98256 12.9632C7.90425 13.06 7.82605 13.1567 7.74959 13.2535C7.67675 13.3455 7.60609 13.4372 7.53489 13.529C7.4545 13.6329 7.37345 13.7366 7.29525 13.8398C7.23925 13.9137 7.18555 13.987 7.13053 14.0605C6.65641 14.6956 6.20232 15.3449 5.76892 16.0074C5.76775 16.0088 5.76677 16.0104 5.76597 16.012C5.65993 16.1744 5.55511 16.3375 5.45151 16.5014L5.43489 16.5279C5.33459 16.6867 5.23545 16.8463 5.1375 17.0066L5.12722 17.0233C4.8816 17.425 4.64323 17.8309 4.41223 18.2409C3.279 20.2574 2.72731 21.6662 2.70346 21.7499C-0.87507 34.312 10.2937 29.0071 11.8521 28.2152C13.5303 29.0293 15.4194 29.4874 17.418 29.4874C22.8891 29.4874 27.544 26.0583 29.2767 21.2696H22.6654C21.6872 22.8923 19.8038 23.9915 17.6402 23.9915C14.47 23.9915 11.9003 21.6331 11.9003 18.7238H29.8968C29.9651 18.2028 30.0004 17.6717 30.0004 17.1326ZM27.65 4.97463C28.7335 5.69279 29.6025 6.82045 28.1101 10.6183C26.6786 8.35782 24.525 6.5846 21.9653 5.60999C23.1297 5.05786 26.0133 3.88993 27.65 4.97463ZM4.62322 28.19C3.74056 27.3013 3.58459 25.1368 5.53212 21.1927C6.51486 23.9673 8.47606 26.2921 11.0109 27.7675C9.75028 28.4489 6.40341 29.9829 4.62322 28.19ZM11.8725 15.3453C11.9731 12.5177 14.4793 10.2537 17.5586 10.2537C20.6378 10.2537 23.1441 12.5177 23.2448 15.3453H11.8725Z" fill="#1EBBEE"/>
</svg>
