<svg width="100" height="32" viewBox="0 0 100 32" fill="none" xmlns="http://www.w3.org/2000/svg">
<path d="M16.1952 6.94261C16.9405 6.94412 17.6773 7.10197 18.3578 7.40595C19.4868 7.91645 20.3752 8.843 20.8379 9.99246C21.0959 10.646 21.1043 11.3976 21.0892 12.0905L21.044 13.2886L20.987 14.2187C20.9828 14.2899 20.9585 14.3863 20.9736 14.455C21.0071 14.6083 21.2501 14.7105 21.3858 14.7532C21.7403 14.8647 22.1114 14.7842 22.4525 14.6628C22.6561 14.5907 22.8379 14.47 23.0624 14.4893C23.2241 14.5044 23.411 14.5765 23.5266 14.6929C23.6473 14.8161 23.6221 14.9376 23.5182 15.0549C23.3205 15.2786 22.9946 15.4068 22.7189 15.4973C22.4173 15.5961 22.1106 15.685 21.8291 15.8358C21.5475 15.9866 21.2962 16.1994 21.1864 16.5036C21.0591 16.8571 21.1655 17.2174 21.3146 17.545C21.571 18.1016 21.897 18.6233 22.2849 19.0976C23.0054 19.9858 23.9489 20.7063 25.0549 21.0331C25.2174 21.0809 25.39 21.1211 25.5492 21.1521C25.6196 21.1655 25.6665 21.1487 25.6414 21.2241C25.638 21.2325 25.6313 21.2426 25.6263 21.2509C25.5894 21.3129 25.5291 21.3624 25.4713 21.4043C25.1445 21.6431 24.7172 21.752 24.3318 21.8467L23.7813 21.964C23.597 21.9975 23.3749 21.9992 23.2032 22.0729C22.9183 22.1969 22.8747 22.6234 22.8178 22.8856L22.744 23.1923C22.7189 23.2828 22.7273 23.3289 22.6309 23.3297C22.4659 23.3322 22.2991 23.2878 22.1383 23.2585C21.7587 23.1881 21.3733 23.1512 20.987 23.1605C20.5647 23.1705 20.1324 23.2191 19.7411 23.3825C19.3657 23.5392 19.0289 23.7746 18.6996 24.0084C18.1131 24.4164 17.5266 24.8211 16.8328 24.9761C16.4809 25.054 16.1173 25.0624 15.7579 25.0515C15.3753 25.0391 14.9978 24.9597 14.6426 24.8169C13.9656 24.5455 13.4143 24.0645 12.8035 23.6791C12.4566 23.4613 12.0871 23.287 11.6791 23.2233C11.2459 23.1563 10.806 23.1412 10.3703 23.1881L9.86594 23.2635C9.70256 23.2945 9.52493 23.3523 9.35735 23.3456C9.27859 23.3423 9.27776 23.3188 9.25681 23.2451L9.17553 22.9116C9.13783 22.7407 9.10599 22.5656 9.04483 22.4005C8.99707 22.2723 8.92585 22.1491 8.79682 22.0788C8.63259 21.9992 8.40721 22.0008 8.22706 21.9673C7.89443 21.9053 7.56179 21.8308 7.23837 21.7285C6.9602 21.6406 6.62673 21.5341 6.41726 21.318C6.3966 21.2978 6.37832 21.2753 6.3628 21.2509C6.35777 21.2426 6.35107 21.2342 6.34856 21.2258C6.32593 21.1563 6.35274 21.1655 6.42061 21.1529C6.74257 21.0938 7.0578 21.0026 7.36154 20.8806C7.91705 20.6577 8.42815 20.3343 8.88144 19.9439C9.54504 19.3708 10.0947 18.6577 10.5052 17.8827C10.6452 17.6179 10.796 17.328 10.8429 17.0331C10.9619 16.2907 10.3511 15.871 9.73523 15.6473C9.40008 15.5283 9.0708 15.4462 8.76582 15.2736C8.62673 15.1948 8.35526 15.0364 8.37704 14.8395C8.3938 14.6887 8.57813 14.5882 8.70214 14.5421C8.78592 14.5103 8.86971 14.4902 8.96858 14.4952C9.0775 14.501 9.16967 14.5589 9.27021 14.5991C9.6305 14.7465 10.0327 14.8504 10.4223 14.7918C10.6175 14.7616 10.8203 14.6871 10.961 14.5438C10.9946 14.5103 11.0071 14.4935 11.0155 14.4516C11.0297 14.3737 11.0054 14.2706 11.0013 14.1919L10.9627 13.5702L10.925 11.1906C10.9501 10.8513 10.9946 10.5086 11.0926 10.1827C11.1906 9.85672 11.3557 9.55006 11.5325 9.26267C11.8567 8.73018 12.2823 8.26646 12.7851 7.89778C13.5224 7.36154 14.4156 7.05153 15.3213 6.96607C15.6096 6.93842 15.8995 6.93925 16.1902 6.93925M2 25.5199C2.00067 26.7079 2.47289 27.847 3.31293 28.6871C4.15296 29.5271 5.29211 29.9993 6.4801 30H25.5207C26.7087 29.9993 27.8479 29.5271 28.6879 28.6871C29.5279 27.847 30.0002 26.7079 30.0008 25.5199V6.4801C30.0002 5.29211 29.5279 4.15296 28.6879 3.31293C27.8479 2.47289 26.7087 2.00067 25.5207 2H6.4801C5.29211 2.00067 4.15296 2.47289 3.31293 3.31293C2.47289 4.15296 2.00067 5.29211 2 6.4801V25.5199Z" fill="black"/>
<path d="M2.52698 6.48005C2.52698 5.43119 2.94364 4.42528 3.6853 3.68362C4.42696 2.94196 5.43287 2.5253 6.48173 2.5253H25.5232C26.5721 2.5253 27.578 2.94196 28.3196 3.68362C29.0613 4.42528 29.478 5.43119 29.478 6.48005V25.5199C29.478 26.5687 29.0613 27.5746 28.3196 28.3163C27.578 29.0579 26.5721 29.4746 25.5232 29.4746H6.48257C5.4337 29.4746 4.4278 29.0579 3.68614 28.3163C2.94448 27.5746 2.52782 26.5687 2.52782 25.5199L2.52698 6.48005ZM16.1977 6.5253C15.5274 6.52865 14.8789 6.56971 14.2312 6.7532C13.1981 7.04646 12.2656 7.63548 11.5886 8.47335C11.1696 8.99283 10.8043 9.6095 10.6468 10.263C10.4708 10.992 10.4734 11.7586 10.496 12.5027L10.5546 13.6807L10.5731 13.9656C10.5772 14.0293 10.6233 14.2706 10.5856 14.3142C10.506 14.4046 10.2538 14.3979 10.1516 14.3946C9.96728 14.3879 9.7863 14.3443 9.61202 14.2857C9.42266 14.2212 9.24336 14.1064 9.04227 14.0871C8.72555 14.0561 8.37532 14.1876 8.15664 14.4189C7.78546 14.8127 8.0209 15.2752 8.40381 15.5416C8.71382 15.757 9.0674 15.8684 9.42182 15.9857C9.71508 16.0821 10.0368 16.1935 10.2597 16.4147C10.5865 16.7381 10.4021 17.1646 10.2312 17.519C10.0971 17.7955 9.94047 18.0594 9.77038 18.315C9.18806 19.1814 8.41303 19.943 7.46037 20.3912C7.17381 20.5253 6.87386 20.6317 6.56384 20.7038C6.41303 20.739 6.2287 20.7415 6.09799 20.8336C5.95555 20.9342 5.8969 21.1068 5.93041 21.2735C6.0142 21.7008 6.5253 21.9212 6.88559 22.0553C7.20398 22.1726 7.5341 22.2563 7.8659 22.3276L8.47503 22.4407C8.57557 22.4574 8.61998 22.4491 8.65601 22.5462C8.6845 22.6217 8.70209 22.6987 8.72053 22.7758L8.85459 23.3456C8.8881 23.4696 8.93334 23.5869 9.03724 23.669C9.30704 23.881 9.73268 23.7176 10.0343 23.664C10.8345 23.5215 11.7067 23.5266 12.4273 23.9405C13.0532 24.3008 13.5936 24.7867 14.248 25.1009C14.9434 25.4344 15.7142 25.5299 16.4792 25.4587C17.1956 25.3917 17.8449 25.0984 18.4398 24.7046C19.0892 24.2773 19.6866 23.7327 20.4842 23.6154C20.9187 23.5574 21.359 23.5591 21.793 23.6204C22.0946 23.6623 22.4063 23.767 22.7121 23.7411C23.1269 23.705 23.1705 23.2534 23.2425 22.9266C23.2718 22.7951 23.2844 22.5982 23.3632 22.4859C23.4093 22.4189 23.5307 22.4273 23.6187 22.413L23.9522 22.3527C24.5337 22.2396 25.1772 22.1055 25.6765 21.7687C25.8215 21.6707 25.9589 21.5467 26.031 21.3833C26.098 21.2308 26.1005 21.0532 25.9991 20.9157C25.8927 20.7708 25.7369 20.7549 25.5735 20.723C24.9649 20.5973 24.3877 20.3509 23.8759 19.9983C23.0909 19.462 22.4532 18.718 21.9782 17.8986L21.7067 17.3741C21.581 17.0976 21.4654 16.7708 21.6623 16.496C21.8441 16.2446 22.1734 16.1173 22.4549 16.0184C22.8018 15.8961 23.1537 15.8005 23.4729 15.612C23.7059 15.4738 23.9505 15.2785 24.0176 15.002C24.1851 14.2748 23.1545 13.9069 22.6133 14.139C22.2798 14.2815 21.8743 14.4742 21.5073 14.3443C21.4838 14.3359 21.4419 14.3276 21.4235 14.3108C21.3942 14.2806 21.4093 14.232 21.4126 14.1851L21.4629 13.3724C21.509 12.5932 21.5467 11.8089 21.4754 11.0305C21.4436 10.6845 21.3917 10.3376 21.2853 10.0067C21.1822 9.68408 21.0196 9.37574 20.8454 9.085C20.5225 8.54212 20.1034 8.06258 19.6087 7.66983C18.863 7.08332 17.9564 6.72304 17.0113 6.58227C16.7376 6.54013 16.4612 6.51856 16.1843 6.51776M9.47629 3.24168C9.22828 3.24168 9.02719 3.44277 9.02719 3.69078C9.02719 3.93879 9.22828 4.13988 9.47629 4.13988C9.7243 4.13988 9.92539 3.93879 9.92539 3.69078C9.92539 3.44277 9.7243 3.24168 9.47629 3.24168ZM10.9233 3.24168C10.6753 3.24168 10.4742 3.44277 10.4742 3.69078C10.4742 3.93879 10.6753 4.13988 10.9233 4.13988C11.1713 4.13988 11.3724 3.93879 11.3724 3.69078C11.3724 3.44277 11.1713 3.24168 10.9233 3.24168ZM15.2651 3.24168C15.0171 3.24168 14.816 3.44277 14.816 3.69078C14.816 3.93879 15.0171 4.13988 15.2651 4.13988C15.5132 4.13988 15.7142 3.93879 15.7142 3.69078C15.7142 3.44277 15.5132 3.24168 15.2651 3.24168ZM16.713 3.24168C16.465 3.24168 16.2639 3.44277 16.2639 3.69078C16.2639 3.93879 16.465 4.13988 16.713 4.13988C16.961 4.13988 17.1621 3.93879 17.1621 3.69078C17.1621 3.44277 16.961 3.24168 16.713 3.24168ZM22.5027 3.24168C22.2547 3.24168 22.0536 3.44277 22.0536 3.69078C22.0536 3.93879 22.2547 4.13988 22.5027 4.13988C22.7507 4.13988 22.9518 3.93879 22.9518 3.69078C22.9518 3.44277 22.7507 3.24168 22.5027 3.24168ZM5.14616 4.69539C4.89815 4.69539 4.69707 4.89648 4.69707 5.14449C4.69707 5.3925 4.89815 5.59359 5.14616 5.59359C5.39418 5.59359 5.59526 5.3925 5.59526 5.14449C5.59526 4.89648 5.39418 4.69539 5.14616 4.69539ZM9.48802 4.69539C9.24001 4.69539 9.03892 4.89648 9.03892 5.14449C9.03892 5.3925 9.24001 5.59359 9.48802 5.59359C9.73603 5.59359 9.93712 5.3925 9.93712 5.14449C9.93712 4.89648 9.73603 4.69539 9.48802 4.69539ZM10.935 4.69539C10.687 4.69539 10.4859 4.89648 10.4859 5.14449C10.4859 5.3925 10.687 5.59359 10.935 5.59359C11.183 5.59359 11.3841 5.3925 11.3841 5.14449C11.3841 4.89648 11.183 4.69539 10.935 4.69539ZM15.2769 4.69539C15.0289 4.69539 14.8278 4.89648 14.8278 5.14449C14.8278 5.3925 15.0289 5.59359 15.2769 5.59359C15.5249 5.59359 15.726 5.3925 15.726 5.14449C15.726 4.89648 15.5249 4.69539 15.2769 4.69539ZM16.7247 4.69539C16.4767 4.69539 16.2756 4.89648 16.2756 5.14449C16.2756 5.3925 16.4767 5.59359 16.7247 5.59359C16.9727 5.59359 17.1738 5.3925 17.1738 5.14449C17.1738 4.89648 16.9727 4.69539 16.7247 4.69539ZM18.1717 4.69539C17.9237 4.69539 17.7226 4.89648 17.7226 5.14449C17.7226 5.3925 17.9237 5.59359 18.1717 5.59359C18.4197 5.59359 18.6208 5.3925 18.6208 5.14449C18.6208 4.89648 18.4197 4.69539 18.1717 4.69539ZM22.5136 4.69539C22.2656 4.69539 22.0645 4.89648 22.0645 5.14449C22.0645 5.3925 22.2656 5.59359 22.5136 5.59359C22.7616 5.59359 22.9627 5.3925 22.9627 5.14449C22.9627 4.89648 22.7616 4.69539 22.5136 4.69539ZM25.4084 4.69539C25.1604 4.69539 24.9593 4.89648 24.9593 5.14449C24.9593 5.3925 25.1604 5.59359 25.4084 5.59359C25.6564 5.59359 25.8575 5.3925 25.8575 5.14449C25.8575 4.89648 25.6564 4.69539 25.4084 4.69539ZM26.8554 4.69539C26.6074 4.69539 26.4063 4.89648 26.4063 5.14449C26.4063 5.3925 26.6074 5.59359 26.8554 5.59359C27.1034 5.59359 27.3045 5.3925 27.3045 5.14449C27.3045 4.89648 27.1034 4.69539 26.8554 4.69539ZM5.14616 6.14323C4.89815 6.14323 4.69707 6.34432 4.69707 6.59233C4.69707 6.84034 4.89815 7.04143 5.14616 7.04143C5.39418 7.04143 5.59526 6.84034 5.59526 6.59233C5.59526 6.34432 5.39418 6.14323 5.14616 6.14323ZM6.59317 6.14323C6.34516 6.14323 6.14407 6.34432 6.14407 6.59233C6.14407 6.84034 6.34516 7.04143 6.59317 7.04143C6.84118 7.04143 7.04227 6.84034 7.04227 6.59233C7.04227 6.34432 6.84118 6.14323 6.59317 6.14323ZM21.0666 6.14323C20.8186 6.14323 20.6175 6.34432 20.6175 6.59233C20.6175 6.84034 20.8186 7.04143 21.0666 7.04143C21.3146 7.04143 21.5157 6.84034 21.5157 6.59233C21.5157 6.34432 21.3146 6.14323 21.0666 6.14323ZM22.5136 6.14323C22.2656 6.14323 22.0645 6.34432 22.0645 6.59233C22.0645 6.84034 22.2656 7.04143 22.5136 7.04143C22.7616 7.04143 22.9627 6.84034 22.9627 6.59233C22.9627 6.34432 22.7616 6.14323 22.5136 6.14323ZM3.7 7.59023C3.45199 7.59023 3.2509 7.79132 3.2509 8.03933C3.2509 8.28734 3.45199 8.48843 3.7 8.48843C3.94801 8.48843 4.1491 8.28734 4.1491 8.03933C4.1491 7.79132 3.94801 7.59023 3.7 7.59023ZM9.48969 7.59023C9.24168 7.59023 9.04059 7.79132 9.04059 8.03933C9.04059 8.28734 9.24168 8.48843 9.48969 8.48843C9.7377 8.48843 9.93879 8.28734 9.93879 8.03933C9.93879 7.79132 9.7377 7.59023 9.48969 7.59023ZM22.5161 7.59023C22.2681 7.59023 22.067 7.79132 22.067 8.03933C22.067 8.28734 22.2681 8.48843 22.5161 8.48843C22.7641 8.48843 22.9652 8.28734 22.9652 8.03933C22.9652 7.79132 22.7641 7.59023 22.5161 7.59023ZM25.4109 7.59023C25.1629 7.59023 24.9618 7.79132 24.9618 8.03933C24.9618 8.28734 25.1629 8.48843 25.4109 8.48843C25.6589 8.48843 25.86 8.28734 25.86 8.03933C25.86 7.79132 25.6589 7.59023 25.4109 7.59023ZM26.8579 7.59023C26.6099 7.59023 26.4088 7.79132 26.4088 8.03933C26.4088 8.28734 26.6099 8.48843 26.8579 8.48843C27.1059 8.48843 27.307 8.28734 27.307 8.03933C27.307 7.79132 27.1059 7.59023 26.8579 7.59023ZM28.3049 7.59023C28.0569 7.59023 27.8558 7.79132 27.8558 8.03933C27.8558 8.28734 28.0569 8.48843 28.3049 8.48843C28.5529 8.48843 28.754 8.28734 28.754 8.03933C28.754 7.79132 28.5529 7.59023 28.3049 7.59023ZM8.04185 9.03724C7.79384 9.03724 7.59275 9.23833 7.59275 9.48717C7.59275 9.73602 7.79384 9.93544 8.04185 9.93628C8.28986 9.93711 8.49095 9.73519 8.49095 9.48634C8.49095 9.23749 8.28986 9.03808 8.04185 9.03724ZM25.4109 9.03724C25.1629 9.03724 24.9618 9.23833 24.9618 9.48717C24.9618 9.73602 25.1629 9.93544 25.4109 9.93628C25.6589 9.93711 25.86 9.73519 25.86 9.48634C25.86 9.23749 25.6589 9.03808 25.4109 9.03724ZM3.70167 10.4842C3.45366 10.4842 3.25257 10.6853 3.25257 10.9333C3.25257 11.1814 3.45366 11.3824 3.70167 11.3824C3.94968 11.3824 4.15077 11.1814 4.15077 10.9333C4.15077 10.6853 3.94968 10.4842 3.70167 10.4842ZM5.14868 10.4842C4.90067 10.4842 4.69958 10.6853 4.69958 10.9333C4.69958 11.1814 4.90067 11.3824 5.14868 11.3824C5.39669 11.3824 5.59778 11.1814 5.59778 10.9333C5.59778 10.6853 5.39669 10.4842 5.14868 10.4842ZM9.49053 10.4842C9.24252 10.4842 9.04143 10.6853 9.04143 10.9333C9.04143 11.1814 9.24252 11.3824 9.49053 11.3824C9.73854 11.3824 9.93963 11.1814 9.93963 10.9333C9.93963 10.6853 9.73854 10.4842 9.49053 10.4842ZM22.5169 10.4842C22.2689 10.4842 22.0678 10.6853 22.0678 10.9333C22.0678 11.1814 22.2689 11.3824 22.5169 11.3824C22.7649 11.3824 22.966 11.1814 22.966 10.9333C22.966 10.6853 22.7649 10.4842 22.5169 10.4842ZM25.4118 10.4842C25.1638 10.4842 24.9627 10.6853 24.9627 10.9333C24.9627 11.1814 25.1638 11.3824 25.4118 11.3824C25.6598 11.3824 25.8609 11.1814 25.8609 10.9333C25.8609 10.6853 25.6598 10.4842 25.4118 10.4842ZM26.8588 10.4842C26.6108 10.4842 26.4097 10.6853 26.4097 10.9333C26.4097 11.1814 26.6108 11.3824 26.8588 11.3824C27.1068 11.3824 27.3079 11.1814 27.3079 10.9333C27.3079 10.6853 27.1068 10.4842 26.8588 10.4842ZM6.59568 11.9321C6.34767 11.9321 6.14658 12.1332 6.14658 12.3812C6.14658 12.6292 6.34767 12.8303 6.59568 12.8303C6.84369 12.8303 7.04478 12.6292 7.04478 12.3812C7.04478 12.1332 6.84369 11.9321 6.59568 11.9321ZM9.49053 11.9321C9.24252 11.9321 9.04143 12.1332 9.04143 12.3812C9.04143 12.6292 9.24252 12.8303 9.49053 12.8303C9.73854 12.8303 9.93963 12.6292 9.93963 12.3812C9.93963 12.1332 9.73854 11.9321 9.49053 11.9321ZM23.9639 11.9321C23.7159 11.9321 23.5148 12.1332 23.5148 12.3812C23.5148 12.6292 23.7159 12.8303 23.9639 12.8303C24.2119 12.8303 24.413 12.6292 24.413 12.3812C24.413 12.1332 24.2119 11.9321 23.9639 11.9321ZM25.4109 11.9321C25.1629 11.9321 24.9618 12.1332 24.9618 12.3812C24.9618 12.6292 25.1629 12.8303 25.4109 12.8303C25.6589 12.8303 25.86 12.6292 25.86 12.3812C25.86 12.1332 25.6589 11.9321 25.4109 11.9321ZM28.3058 11.9321C28.0578 11.9321 27.8567 12.1332 27.8567 12.3812C27.8567 12.6292 28.0578 12.8303 28.3058 12.8303C28.5538 12.8303 28.7549 12.6292 28.7549 12.3812C28.7549 12.1332 28.5538 11.9321 28.3058 11.9321ZM3.7 13.3799C3.45199 13.3799 3.2509 13.581 3.2509 13.8299C3.2509 14.0787 3.45199 14.2781 3.7 14.279C3.94801 14.2798 4.1491 14.0779 4.1491 13.829C4.1491 13.5802 3.94801 13.3808 3.7 13.3799ZM26.8571 13.3799C26.6091 13.3799 26.408 13.581 26.408 13.8299C26.408 14.0787 26.6091 14.2781 26.8571 14.279C27.1051 14.2798 27.3062 14.0779 27.3062 13.829C27.3062 13.5802 27.1051 13.3808 26.8571 13.3799ZM28.3041 13.3799C28.0561 13.3799 27.855 13.581 27.855 13.8299C27.855 14.0787 28.0561 14.2781 28.3041 14.279C28.5521 14.2798 28.7532 14.0779 28.7532 13.829C28.7532 13.5802 28.5521 13.3808 28.3041 13.3799ZM3.7 14.8269C3.45199 14.8269 3.2509 15.028 3.2509 15.2769C3.2509 15.5257 3.45199 15.7251 3.7 15.726C3.94801 15.7268 4.1491 15.5249 4.1491 15.276C4.1491 15.0272 3.94801 14.8278 3.7 14.8269ZM5.147 14.8269C4.89899 14.8269 4.6979 15.028 4.6979 15.2769C4.6979 15.5257 4.89899 15.7251 5.147 15.726C5.39501 15.7268 5.5961 15.5249 5.5961 15.276C5.5961 15.0272 5.39501 14.8278 5.147 14.8269ZM6.59401 14.8269C6.346 14.8269 6.14491 15.028 6.14491 15.2769C6.14491 15.5257 6.346 15.7251 6.59401 15.726C6.84202 15.7268 7.04311 15.5249 7.04311 15.276C7.04311 15.0272 6.84202 14.8278 6.59401 14.8269ZM26.8571 14.8269C26.6091 14.8269 26.408 15.028 26.408 15.2769C26.408 15.5257 26.6091 15.7251 26.8571 15.726C27.1051 15.7268 27.3062 15.5249 27.3062 15.276C27.3062 15.0272 27.1051 14.8278 26.8571 14.8269ZM3.7 16.2748C3.45199 16.2748 3.2509 16.4759 3.2509 16.7239C3.2509 16.9719 3.45199 17.173 3.7 17.173C3.94801 17.173 4.1491 16.9719 4.1491 16.7239C4.1491 16.4759 3.94801 16.2748 3.7 16.2748ZM5.147 16.2748C4.89899 16.2748 4.6979 16.4759 4.6979 16.7239C4.6979 16.9719 4.89899 17.173 5.147 17.173C5.39501 17.173 5.5961 16.9719 5.5961 16.7239C5.5961 16.4759 5.39501 16.2748 5.147 16.2748ZM26.8563 16.2748C26.6082 16.2748 26.4072 16.4759 26.4072 16.7239C26.4072 16.9719 26.6082 17.173 26.8563 17.173C27.1043 17.173 27.3054 16.9719 27.3054 16.7239C27.3054 16.4759 27.1043 16.2748 26.8563 16.2748ZM28.3033 16.2748C28.0553 16.2748 27.8542 16.4759 27.8542 16.7239C27.8542 16.9719 28.0553 17.173 28.3033 17.173C28.5513 17.173 28.7524 16.9719 28.7524 16.7239C28.7524 16.4759 28.5513 16.2748 28.3033 16.2748ZM23.9614 17.7218C23.7134 17.7218 23.5123 17.9229 23.5123 18.1709C23.5123 18.4189 23.7134 18.62 23.9614 18.62C24.2094 18.62 24.4105 18.4189 24.4105 18.1709C24.4105 17.9229 24.2094 17.7218 23.9614 17.7218ZM28.3033 17.7218C28.0553 17.7218 27.8542 17.9229 27.8542 18.1709C27.8542 18.4189 28.0553 18.62 28.3033 18.62C28.5513 18.62 28.7524 18.4189 28.7524 18.1709C28.7524 17.9229 28.5513 17.7218 28.3033 17.7218ZM5.14616 19.1688C4.89815 19.1688 4.69707 19.3699 4.69707 19.6187C4.69707 19.8676 4.89815 20.067 5.14616 20.0678C5.39418 20.0687 5.59526 19.8667 5.59526 19.6179C5.59526 19.369 5.39418 19.1696 5.14616 19.1688ZM6.59317 19.1688C6.34516 19.1688 6.14407 19.3699 6.14407 19.6187C6.14407 19.8676 6.34516 20.067 6.59317 20.0678C6.84118 20.0687 7.04227 19.8667 7.04227 19.6179C7.04227 19.369 6.84118 19.1696 6.59317 19.1688ZM25.4084 19.1688C25.1604 19.1688 24.9593 19.3699 24.9593 19.6187C24.9593 19.8676 25.1604 20.067 25.4084 20.0678C25.6564 20.0687 25.8575 19.8667 25.8575 19.6179C25.8575 19.369 25.6564 19.1696 25.4084 19.1688ZM28.3033 19.1688C28.0553 19.1688 27.8542 19.3699 27.8542 19.6187C27.8542 19.8676 28.0553 20.067 28.3033 20.0678C28.5513 20.0687 28.7524 19.8667 28.7524 19.6179C28.7524 19.369 28.5513 19.1696 28.3033 19.1688ZM28.3033 20.6158C28.0553 20.6158 27.8542 20.8169 27.8542 21.0657C27.8542 21.3146 28.0553 21.514 28.3033 21.5148C28.5513 21.5157 28.7524 21.3137 28.7524 21.0649C28.7524 20.816 28.5513 20.6166 28.3033 20.6158ZM26.8563 22.0628C26.6082 22.0628 26.4072 22.2639 26.4072 22.5127C26.4072 22.7616 26.6082 22.961 26.8563 22.9618C27.1043 22.9627 27.3054 22.7607 27.3054 22.5119C27.3054 22.263 27.1043 22.0636 26.8563 22.0628ZM28.3033 22.0628C28.0553 22.0628 27.8542 22.2639 27.8542 22.5127C27.8542 22.7616 28.0553 22.961 28.3033 22.9618C28.5513 22.9627 28.7524 22.7607 28.7524 22.5119C28.7524 22.263 28.5513 22.0636 28.3033 22.0628ZM3.7 23.5115C3.45199 23.5115 3.2509 23.7126 3.2509 23.9614C3.2509 24.2103 3.45199 24.4097 3.7 24.4105C3.94801 24.4113 4.1491 24.2094 4.1491 23.9606C4.1491 23.7117 3.94801 23.5123 3.7 23.5115ZM5.147 23.5115C4.89899 23.5115 4.6979 23.7126 4.6979 23.9614C4.6979 24.2103 4.89899 24.4097 5.147 24.4105C5.39501 24.4113 5.5961 24.2094 5.5961 23.9606C5.5961 23.7117 5.39501 23.5123 5.147 23.5115ZM25.4101 23.5115C25.1621 23.5115 24.961 23.7126 24.961 23.9614C24.961 24.2103 25.1621 24.4097 25.4101 24.4105C25.6581 24.4113 25.8592 24.2094 25.8592 23.9606C25.8592 23.7117 25.6581 23.5123 25.4101 23.5115ZM8.04101 24.9585C7.793 24.9585 7.59191 25.1596 7.59191 25.4084C7.59191 25.6573 7.793 25.8567 8.04101 25.8575C8.28902 25.8584 8.49011 25.6564 8.49011 25.4076C8.49011 25.1587 8.28902 24.9593 8.04101 24.9585ZM9.48802 24.9585C9.24001 24.9585 9.03892 25.1596 9.03892 25.4084C9.03892 25.6573 9.24001 25.8567 9.48802 25.8575C9.73603 25.8584 9.93712 25.6564 9.93712 25.4076C9.93712 25.1587 9.73603 24.9593 9.48802 24.9585ZM10.935 24.9585C10.687 24.9585 10.4859 25.1596 10.4859 25.4084C10.4859 25.6573 10.687 25.8567 10.935 25.8575C11.183 25.8584 11.3841 25.6564 11.3841 25.4076C11.3841 25.1587 11.183 24.9593 10.935 24.9585ZM12.382 24.9585C12.134 24.9585 11.9329 25.1596 11.9329 25.4084C11.9329 25.6573 12.134 25.8567 12.382 25.8575C12.63 25.8584 12.8311 25.6564 12.8311 25.4076C12.8311 25.1587 12.63 24.9593 12.382 24.9585ZM19.6187 24.9585C19.3707 24.9585 19.1696 25.1596 19.1696 25.4084C19.1696 25.6573 19.3707 25.8567 19.6187 25.8575C19.8667 25.8584 20.0678 25.6564 20.0678 25.4076C20.0678 25.1587 19.8667 24.9593 19.6187 24.9585ZM22.5136 24.9585C22.2656 24.9585 22.0645 25.1596 22.0645 25.4084C22.0645 25.6573 22.2656 25.8567 22.5136 25.8575C22.7616 25.8584 22.9627 25.6564 22.9627 25.4076C22.9627 25.1587 22.7616 24.9593 22.5136 24.9585ZM26.8554 24.9585C26.6074 24.9585 26.4063 25.1596 26.4063 25.4084C26.4063 25.6573 26.6074 25.8567 26.8554 25.8575C27.1034 25.8584 27.3045 25.6564 27.3045 25.4076C27.3045 25.1587 27.1034 24.9593 26.8554 24.9585ZM5.14616 26.4063C4.89815 26.4063 4.69707 26.6074 4.69707 26.8563C4.69707 27.1051 4.89815 27.3045 5.14616 27.3054C5.39418 27.3062 5.59526 27.1043 5.59526 26.8554C5.59526 26.6066 5.39418 26.4072 5.14616 26.4063ZM9.48802 26.4063C9.24001 26.4063 9.03892 26.6074 9.03892 26.8563C9.03892 27.1051 9.24001 27.3045 9.48802 27.3054C9.73603 27.3062 9.93712 27.1043 9.93712 26.8554C9.93712 26.6066 9.73603 26.4072 9.48802 26.4063ZM10.935 26.4063C10.687 26.4063 10.4859 26.6074 10.4859 26.8563C10.4859 27.1051 10.687 27.3045 10.935 27.3054C11.183 27.3062 11.3841 27.1043 11.3841 26.8554C11.3841 26.6066 11.183 26.4072 10.935 26.4063ZM12.382 26.4063C12.134 26.4063 11.9329 26.6074 11.9329 26.8563C11.9329 27.1051 12.134 27.3045 12.382 27.3054C12.63 27.3062 12.8311 27.1043 12.8311 26.8554C12.8311 26.6066 12.63 26.4072 12.382 26.4063ZM13.829 26.4063C13.581 26.4063 13.3799 26.6074 13.3799 26.8563C13.3799 27.1051 13.581 27.3045 13.829 27.3054C14.077 27.3062 14.2781 27.1043 14.2781 26.8554C14.2781 26.6066 14.077 26.4072 13.829 26.4063ZM19.6103 26.4063C19.3623 26.4063 19.1612 26.6074 19.1612 26.8563C19.1612 27.1051 19.3623 27.3045 19.6103 27.3054C19.8584 27.3062 20.0594 27.1043 20.0594 26.8554C20.0594 26.6066 19.8584 26.4072 19.6103 26.4063ZM22.5052 26.4063C22.2572 26.4063 22.0561 26.6074 22.0561 26.8563C22.0561 27.1051 22.2572 27.3045 22.5052 27.3054C22.7532 27.3062 22.9543 27.1043 22.9543 26.8554C22.9543 26.6066 22.7532 26.4072 22.5052 26.4063ZM25.4 26.4063C25.152 26.4063 24.9509 26.6074 24.9509 26.8563C24.9509 27.1051 25.152 27.3045 25.4 27.3054C25.6481 27.3062 25.8491 27.1043 25.8491 26.8554C25.8491 26.6066 25.6481 26.4072 25.4 26.4063ZM26.847 26.4063C26.599 26.4063 26.3979 26.6074 26.3979 26.8563C26.3979 27.1051 26.599 27.3045 26.847 27.3054C27.0951 27.3062 27.2961 27.1043 27.2961 26.8554C27.2961 26.6066 27.0951 26.4072 26.847 26.4063ZM10.9275 27.8533C10.6795 27.8533 10.4784 28.0544 10.4784 28.3024C10.4784 28.5504 10.6795 28.7515 10.9275 28.7515C11.1755 28.7515 11.3766 28.5504 11.3766 28.3024C11.3766 28.0544 11.1755 27.8533 10.9275 27.8533ZM12.3745 27.8533C12.1265 27.8533 11.9254 28.0544 11.9254 28.3024C11.9254 28.5504 12.1265 28.7515 12.3745 28.7515C12.6225 28.7515 12.8236 28.5504 12.8236 28.3024C12.8236 28.0544 12.6225 27.8533 12.3745 27.8533ZM15.2693 27.8533C15.0213 27.8533 14.8202 28.0544 14.8202 28.3024C14.8202 28.5504 15.0213 28.7515 15.2693 28.7515C15.5173 28.7515 15.7184 28.5504 15.7184 28.3024C15.7184 28.0544 15.5173 27.8533 15.2693 27.8533ZM16.7172 27.8533C16.4692 27.8533 16.2681 28.0544 16.2681 28.3024C16.2681 28.5504 16.4692 28.7515 16.7172 28.7515C16.9652 28.7515 17.1663 28.5504 17.1663 28.3024C17.1663 28.0544 16.9652 27.8533 16.7172 27.8533ZM18.1642 27.8533C17.9162 27.8533 17.7151 28.0544 17.7151 28.3024C17.7151 28.5504 17.9162 28.7515 18.1642 28.7515C18.4122 28.7515 18.6133 28.5504 18.6133 28.3024C18.6133 28.0544 18.4122 27.8533 18.1642 27.8533ZM19.6112 27.8533C19.3632 27.8533 19.1621 28.0544 19.1621 28.3024C19.1621 28.5504 19.3632 28.7515 19.6112 28.7515C19.8592 28.7515 20.0603 28.5504 20.0603 28.3024C20.0603 28.0544 19.8592 27.8533 19.6112 27.8533ZM21.0582 27.8533C20.8102 27.8533 20.6091 28.0544 20.6091 28.3024C20.6091 28.5504 20.8102 28.7515 21.0582 28.7515C21.3062 28.7515 21.5073 28.5504 21.5073 28.3024C21.5073 28.0544 21.3062 27.8533 21.0582 27.8533Z" fill="#FFFC00"/>
<path d="M33.1963 20.6083V18.2396C33.6253 18.5999 34.0928 18.8705 34.5956 19.0498C35.0983 19.2291 35.6069 19.3196 36.1205 19.3196C36.4221 19.3196 36.6844 19.2928 36.9081 19.2384C37.1318 19.1839 37.3203 19.1093 37.4695 19.0121C37.6186 18.9149 37.7326 18.8027 37.8063 18.672C37.8797 18.5422 37.9178 18.3954 37.9169 18.2463C37.9192 18.0471 37.8569 17.8525 37.7393 17.6917C37.605 17.5141 37.4408 17.3613 37.2541 17.24C37.0489 17.1018 36.8059 16.9686 36.5252 16.8404L35.6144 16.4482C34.7765 16.103 34.1674 15.6808 33.7602 15.1914C33.353 14.7021 33.1486 14.0905 33.1486 13.385C33.1486 12.832 33.26 12.3569 33.482 11.9606C33.7017 11.5659 34.0125 11.2295 34.3886 10.9795C34.7715 10.7231 35.2139 10.5337 35.7175 10.4131C36.2414 10.2899 36.778 10.2291 37.3161 10.2321C37.8691 10.2321 38.3584 10.2656 38.7849 10.3326C39.1882 10.3932 39.5839 10.4963 39.9655 10.6401V12.8521C39.7805 12.7261 39.5865 12.6141 39.3848 12.517C39.1754 12.4139 38.9592 12.3452 38.7372 12.284C38.5198 12.2238 38.2986 12.1779 38.0752 12.1466C37.8679 12.1172 37.6588 12.1024 37.4494 12.1022C37.1779 12.1022 36.9316 12.1273 36.7095 12.1801C36.4875 12.2329 36.2906 12.3058 36.1481 12.398C36.0057 12.4818 35.8842 12.597 35.7929 12.7348C35.7087 12.8662 35.665 13.0195 35.6672 13.1755C35.6672 13.3531 35.7141 13.5123 35.808 13.6531C35.9018 13.7939 36.0342 13.9271 36.2076 14.0528C36.3811 14.1785 36.5905 14.3016 36.836 14.4231L37.6722 14.7968C38.066 14.9591 38.4482 15.1483 38.8159 15.3632C39.1352 15.5483 39.4278 15.7761 39.6856 16.0402C39.937 16.2916 40.1046 16.5798 40.2411 16.9032C40.3777 17.2266 40.4339 17.6028 40.4339 18.0318C40.4339 18.6242 40.3216 19.1211 40.097 19.5232C39.8783 19.9195 39.5644 20.2553 39.1837 20.5002C38.7727 20.7598 38.3174 20.9416 37.8406 21.0364C37.3379 21.1454 36.7908 21.199 36.2235 21.199C35.6663 21.2014 35.1101 21.152 34.562 21.0515C34.0367 20.9526 33.5817 20.8052 33.1963 20.6083ZM49.2726 21.0071H46.9408V16.796C46.9408 15.6213 46.5218 15.0348 45.6823 15.0348C45.4911 15.0307 45.3016 15.0706 45.1283 15.1513C44.955 15.2321 44.8025 15.3516 44.6827 15.5006C44.4213 15.8106 44.2906 16.2061 44.2906 16.6845V21.0079H41.9521V13.4277H44.2914V14.6259H44.3207C44.8788 13.7042 45.6898 13.2417 46.7564 13.2417C48.4339 13.2417 49.2734 14.2832 49.2734 16.3653L49.2726 21.0071ZM57.4301 21.0071H55.2156V19.9179H55.1863C54.6777 20.7666 53.9253 21.1914 52.9282 21.1914C52.1925 21.1914 51.6144 20.982 51.1921 20.5656C50.7698 20.1491 50.5595 19.5936 50.5595 18.8965C50.5595 17.426 51.4309 16.5773 53.172 16.3494L55.2298 16.0754C55.2298 15.2375 54.7807 14.832 53.8825 14.832C52.9793 14.832 52.1205 15.1001 51.3069 15.6389V13.8793C51.632 13.7118 52.0778 13.5635 52.6433 13.4353C53.2089 13.3071 53.7225 13.2426 54.1867 13.2426C56.3484 13.2426 57.4292 14.3209 57.4292 16.4767L57.4301 21.0071ZM55.2323 17.9271V17.4244L53.8557 17.602C53.0958 17.7009 52.7162 18.0436 52.7162 18.6309C52.7162 18.8973 52.8 19.1169 52.9927 19.2861C53.1854 19.4554 53.4284 19.5417 53.7443 19.5417C54.1833 19.5417 54.5403 19.3909 54.8168 19.0867C55.0933 18.7826 55.2315 18.3997 55.2315 17.9355L55.2323 17.9271ZM61.6421 20.1265H61.6119V24.4935H59.2793V13.4277H61.6186V14.5672H61.6488C62.2353 13.6841 63.038 13.2434 64.0836 13.2434C65.0656 13.2434 65.8247 13.5802 66.3593 14.2539C66.8938 14.9275 67.1636 15.8441 67.1636 17.0038C67.1636 18.2673 66.8511 19.2811 66.2277 20.0452C65.6044 20.8094 64.7732 21.1931 63.7367 21.1931C62.8151 21.1931 62.128 20.837 61.6421 20.1265ZM61.575 17.0264V17.633C61.575 18.1558 61.7133 18.5831 61.9898 18.9133C62.1209 19.0742 62.2875 19.2027 62.4764 19.2887C62.6653 19.3747 62.8715 19.416 63.079 19.4093C63.6119 19.4093 64.0258 19.2032 64.3191 18.7909C64.6123 18.3787 64.7598 17.7955 64.7598 17.0314C64.7598 15.6908 64.242 15.0331 63.2055 15.0331C62.9814 15.0274 62.7589 15.0735 62.5554 15.1678C62.352 15.2621 62.1731 15.4021 62.0325 15.5769C61.7292 15.9397 61.5775 16.4198 61.5775 17.0163L61.575 17.0264ZM74.4255 20.734C73.8976 21.0398 73.1352 21.1931 72.1381 21.1931C70.9651 21.1931 70.0308 20.8412 69.3103 20.1349C68.5897 19.4286 68.221 18.5178 68.221 17.4034C68.221 16.1156 68.6065 15.0993 69.3798 14.3578C70.1532 13.6162 71.1846 13.2434 72.4774 13.2434C73.3706 13.2434 74.0166 13.3624 74.4163 13.5986V15.5811C73.9469 15.2221 73.3716 15.0293 72.7807 15.0331C72.1104 15.0331 71.5784 15.2291 71.1854 15.6213C70.7925 16.0134 70.5972 16.5555 70.5972 17.2467C70.5972 17.917 70.7849 18.4449 71.1586 18.827C71.5323 19.209 72.0493 19.4001 72.7053 19.4001C73.2877 19.4001 73.8574 19.2174 74.4146 18.8521L74.4255 20.734ZM83.234 21.0071H80.9022V16.6988C80.9022 15.5886 80.4975 15.0331 79.6873 15.0331C79.4951 15.0274 79.3042 15.0666 79.1297 15.1475C78.9552 15.2283 78.8019 15.3486 78.6819 15.4989C78.4263 15.809 78.2964 16.2044 78.2964 16.6837V21.0071H75.9571V9.78549H78.2964V14.5614H78.3258C78.898 13.6875 79.6664 13.2509 80.6576 13.2509C82.3752 13.2509 83.2332 14.2874 83.2332 16.3511L83.234 21.0071ZM91.3907 21.0071H89.177V19.9179H89.1477C88.6391 20.7666 87.8867 21.1914 86.8897 21.1914C86.1548 21.1914 85.5759 20.982 85.1536 20.5656C84.7313 20.1491 84.521 19.5936 84.521 18.8965C84.521 17.426 85.3924 16.5773 87.1335 16.3494L89.1913 16.0754C89.1913 15.2375 88.7422 14.832 87.844 14.832C86.9408 14.832 86.0828 15.1001 85.2684 15.6389V13.8793C85.6035 13.7118 86.0392 13.5635 86.6048 13.4353C87.1703 13.3071 87.684 13.2426 88.1481 13.2426C90.3099 13.2426 91.3907 14.3209 91.3907 16.4767V21.0071ZM89.1913 17.9271V17.4244L87.8147 17.602C87.0547 17.7009 86.6752 18.0436 86.6752 18.6309C86.6752 18.8973 86.759 19.1169 86.9517 19.2861C87.1444 19.4554 87.3873 19.5417 87.7032 19.5417C88.1423 19.5417 88.4992 19.3909 88.7757 19.0867C89.0522 18.7826 89.1905 18.3997 89.1905 17.9355L89.1913 17.9271ZM97.823 20.9183C97.477 21.101 96.9567 21.1923 96.2613 21.1923C94.6132 21.1923 93.7895 20.336 93.7895 18.6234V15.1521H92.5595V13.4277H93.7887V11.7922L96.1205 11.1261V13.4277H97.823V15.1521H96.1205V18.2162C96.1205 19.0054 96.4339 19.4001 97.0606 19.4001C97.3288 19.3943 97.5912 19.3205 97.823 19.1856V20.9183Z" fill="#303030"/>
</svg>
