<svg width="32" height="32" viewBox="0 0 32 32" fill="none" xmlns="http://www.w3.org/2000/svg">
<path d="M28.3841 23.2685C28.5924 23.2097 28.7776 23.088 28.9142 22.92C29.0509 22.7521 29.1324 22.5461 29.1477 22.3301C29.1631 22.1141 29.1114 21.8986 28.9998 21.7131C28.8882 21.5276 28.722 21.381 28.5241 21.2933C27.2828 20.7192 26.1069 20.0135 25.0164 19.1882C24.7981 19.0227 24.623 18.8069 24.5062 18.5591C24.3893 18.3113 24.3342 18.039 24.3454 17.7652C24.3567 17.4915 24.434 17.2246 24.5708 16.9872C24.7076 16.7499 24.8998 16.5492 25.131 16.4022L26.6671 15.4285C27.0471 15.1872 27.3155 14.8048 27.4135 14.3655C27.5115 13.9262 27.4309 13.466 27.1896 13.0861C26.9482 12.7062 26.5659 12.4377 26.1266 12.3397C25.6873 12.2417 25.2271 12.3223 24.8471 12.5636L23.2117 13.6022V9.63636C23.2117 7.61107 22.4071 5.66874 20.975 4.23664C19.543 2.80454 17.6006 2 15.5753 2C13.55 2 11.6077 2.80454 10.1756 4.23664C8.74351 5.66874 7.93896 7.61107 7.93896 9.63636V13.6022L6.29969 12.5636C6.11158 12.4441 5.90177 12.3629 5.68224 12.3244C5.46272 12.286 5.23778 12.2912 5.02026 12.3397C4.80274 12.3882 4.59691 12.4791 4.41452 12.6072C4.23212 12.7352 4.07674 12.898 3.95724 13.0861C3.83773 13.2742 3.75645 13.484 3.71803 13.7035C3.67961 13.9231 3.68481 14.148 3.73332 14.3655C3.78184 14.583 3.87272 14.7889 4.00078 14.9713C4.12884 15.1537 4.29158 15.309 4.47969 15.4285L6.01587 16.4022C6.24706 16.5492 6.43925 16.7499 6.57604 16.9872C6.71283 17.2246 6.79015 17.4915 6.8014 17.7652C6.81265 18.039 6.75751 18.3113 6.64067 18.5591C6.52383 18.8069 6.34876 19.0227 6.13042 19.1882C5.03998 20.0135 3.86402 20.7192 2.62278 21.2933C2.4254 21.3815 2.25993 21.5282 2.1488 21.7137C2.03766 21.8991 1.98625 22.1143 2.00154 22.3299C2.01682 22.5455 2.09806 22.7513 2.23424 22.9192C2.37041 23.0871 2.55494 23.2091 2.76278 23.2685L5.27005 23.7776C5.53053 23.8521 5.75186 24.0249 5.88724 24.2596C6.02261 24.4942 6.06144 24.7723 5.99551 25.0351C5.92994 25.2978 5.93075 25.5726 5.99789 25.8349C6.06502 26.0972 6.19636 26.3386 6.38007 26.5375C6.56378 26.7363 6.79408 26.8864 7.05022 26.974C7.30637 27.0617 7.5803 27.0842 7.84733 27.0396L8.64405 26.9124C9.21322 26.8189 9.79648 26.8625 10.3454 27.0396C10.8944 27.2167 11.3932 27.5221 11.8004 27.9305C12.7583 29.0649 14.1038 29.8026 15.5753 30C17.0467 29.8006 18.3913 29.0612 19.3477 27.9255C19.755 27.517 20.2537 27.2116 20.8027 27.0345C21.3516 26.8574 21.9349 26.8138 22.5041 26.9073L23.3021 27.0345C23.5684 27.0788 23.8416 27.0562 24.0971 26.9688C24.3526 26.8814 24.5824 26.732 24.7659 26.534C24.9494 26.336 25.081 26.0955 25.1487 25.8341C25.2164 25.5727 25.2182 25.2986 25.1539 25.0364C25.0879 24.7736 25.1268 24.4955 25.2621 24.2608C25.3975 24.0262 25.6188 23.8534 25.8793 23.7789L28.3841 23.2685Z" fill="#FFEF5E"/>
<path d="M15.5741 2C13.5508 2.00671 11.6124 2.81341 10.1817 4.24405C8.7511 5.6747 7.9444 7.61314 7.93769 9.63636V13.6022L6.29969 12.5636C5.91976 12.3308 5.46353 12.2567 5.02944 12.3573C4.59535 12.4578 4.21819 12.725 3.97933 13.1012C3.74048 13.4773 3.65907 13.9323 3.75268 14.3679C3.84628 14.8036 4.1074 15.185 4.47969 15.4298L6.01587 16.4035C6.24706 16.5504 6.43925 16.7512 6.57604 16.9885C6.71283 17.2259 6.79015 17.4928 6.8014 17.7665C6.81265 18.0402 6.75751 18.3126 6.64067 18.5604C6.52383 18.8082 6.34876 19.024 6.13042 19.1895C5.03998 20.0148 3.86402 20.7205 2.62278 21.2945C2.4254 21.3827 2.25993 21.5295 2.1488 21.715C2.03766 21.9004 1.98625 22.1155 2.00154 22.3312C2.01682 22.5468 2.09806 22.7526 2.23424 22.9205C2.37041 23.0884 2.55494 23.2103 2.76278 23.2698L5.27005 23.7789C5.32096 23.801 5.36975 23.826 5.41642 23.854L22.6071 6.66836C22.0208 5.28697 21.0418 4.10817 19.7915 3.27826C18.5412 2.44835 17.0747 2.00387 15.5741 2Z" fill="#FFF9BF"/>
<path d="M28.3841 23.2685C28.5924 23.2097 28.7776 23.088 28.9142 22.92C29.0509 22.7521 29.1324 22.5461 29.1477 22.3301C29.1631 22.1141 29.1114 21.8986 28.9998 21.7131C28.8882 21.5276 28.722 21.381 28.5241 21.2933C27.2828 20.7192 26.1069 20.0135 25.0164 19.1882C24.7981 19.0227 24.623 18.8069 24.5062 18.5591C24.3893 18.3113 24.3342 18.039 24.3454 17.7652C24.3567 17.4915 24.434 17.2246 24.5708 16.9872C24.7076 16.7499 24.8998 16.5492 25.131 16.4022L26.6671 15.4285C27.0471 15.1872 27.3155 14.8048 27.4135 14.3655C27.5115 13.9262 27.4309 13.466 27.1896 13.0861C26.9483 12.7062 26.5659 12.4377 26.1266 12.3397C25.6873 12.2417 25.2271 12.3223 24.8471 12.5636L23.2117 13.6022V9.63636C23.2117 7.61107 22.4071 5.66873 20.9751 4.23664C19.543 2.80454 17.6006 2 15.5753 2C13.55 2 11.6077 2.80454 10.1756 4.23664C8.74351 5.66873 7.93896 7.61107 7.93896 9.63636V13.6022L6.29969 12.5636C6.11158 12.4441 5.90177 12.3629 5.68224 12.3244C5.46272 12.286 5.23778 12.2912 5.02026 12.3397C4.80274 12.3882 4.59691 12.4791 4.41452 12.6072C4.23212 12.7352 4.07674 12.898 3.95724 13.0861C3.83773 13.2742 3.75645 13.484 3.71803 13.7035C3.67961 13.9231 3.68481 14.148 3.73332 14.3655C3.78184 14.583 3.87272 14.7889 4.00078 14.9713C4.12884 15.1537 4.29158 15.309 4.47969 15.4285L6.01587 16.4022C6.24706 16.5492 6.43925 16.7499 6.57604 16.9872C6.71283 17.2246 6.79015 17.4915 6.8014 17.7652C6.81265 18.039 6.75751 18.3113 6.64067 18.5591C6.52382 18.8069 6.34876 19.0227 6.13042 19.1882C5.03998 20.0135 3.86402 20.7192 2.62278 21.2933C2.4254 21.3815 2.25993 21.5282 2.1488 21.7137C2.03766 21.8991 1.98625 22.1143 2.00154 22.3299C2.01682 22.5455 2.09806 22.7513 2.23424 22.9192C2.37041 23.0871 2.55494 23.2091 2.76278 23.2685L5.27005 23.7776C5.53053 23.8521 5.75186 24.0249 5.88724 24.2596C6.02261 24.4942 6.06144 24.7723 5.99551 25.0351C5.92994 25.2978 5.93075 25.5726 5.99789 25.8349C6.06502 26.0972 6.19636 26.3386 6.38007 26.5375C6.56378 26.7363 6.79408 26.8863 7.05022 26.974C7.30636 27.0617 7.5803 27.0842 7.84733 27.0396L8.64405 26.9124C9.21322 26.8189 9.79648 26.8625 10.3454 27.0396C10.8944 27.2167 11.3932 27.5221 11.8004 27.9305C12.7583 29.0649 14.1038 29.8026 15.5753 30C17.0467 29.8006 18.3913 29.0612 19.3477 27.9255C19.755 27.517 20.2537 27.2116 20.8027 27.0345C21.3516 26.8574 21.9349 26.8138 22.5041 26.9073L23.3021 27.0345C23.5684 27.0787 23.8416 27.0562 24.0971 26.9688C24.3526 26.8814 24.5824 26.732 24.7659 26.534C24.9494 26.336 25.081 26.0955 25.1487 25.8341C25.2164 25.5727 25.2182 25.2986 25.1539 25.0364C25.0879 24.7736 25.1268 24.4955 25.2621 24.2608C25.3975 24.0262 25.6188 23.8534 25.8793 23.7789L28.3841 23.2685Z" stroke="#191919" stroke-linecap="round" stroke-linejoin="round"/>
</svg>
