<svg width="219" height="32" viewBox="0 0 219 32" fill="none" xmlns="http://www.w3.org/2000/svg">
<path d="M185.454 13.0823V29.9669H190.868V18.7251H210.576V29.9669H215.987V13.1115L185.454 13.0823ZM190.265 7.6205H211.086C213.978 7.04566 216.128 4.49355 216.735 2.02466H184.617C185.217 4.49432 187.399 7.04566 190.265 7.6205ZM169.055 29.9776C171.785 28.8203 173.253 26.8183 173.816 24.4758H149.53L149.545 2.03853L144.101 2.05394V29.9776H169.055ZM103.617 7.54498H122.846C125.745 6.70275 128.179 4.49432 128.772 2.04623H98.2273V18.5479H123.228V24.3387L103.617 24.3541C100.544 25.2109 97.9384 27.2745 96.6384 30L98.2273 29.9707H128.599V13.0615H103.617V7.54498ZM56.1483 7.59815H76.9621C79.8578 7.021 82.01 4.4712 82.6134 2H50.497C51.0965 4.4712 53.2803 7.021 56.1483 7.59815ZM56.1483 18.6342H76.9621C79.8578 18.0632 82.01 15.5111 82.6134 13.0383H50.497C51.0965 15.5118 53.2803 18.0632 56.1483 18.6342ZM56.1483 29.9746H76.9621C79.8578 29.399 82.01 26.8476 82.6134 24.378H50.497C51.0965 26.8484 53.2803 29.399 56.1483 29.9746ZM2 2.06781C2.6257 4.50819 4.73859 7.0025 7.63745 7.62743H16.3988L16.8457 7.80389V29.9122H22.3167V7.80389L22.8137 7.62743H31.5827C34.514 6.87228 36.5814 4.50819 37.1963 2.06781V2.01387H2V2.06781Z" fill="#E82127"/>
</svg>
