<svg width="32" height="32" viewBox="0 0 32 32" fill="none" xmlns="http://www.w3.org/2000/svg">
<path fill-rule="evenodd" clip-rule="evenodd" d="M28.7303 6.3666C24.0613 4.3226 19.4999 3.673 15.5161 3.7038C11.5308 3.673 6.96798 4.3226 2.30037 6.3666C1.744 5.353 1.51607 4.7398 1.51607 4.7398C6.61972 2.7112 11.3992 2.0168 15.5161 2C19.633 2.0168 24.4124 2.7112 29.5161 4.7398C29.5161 4.7398 29.3547 5.2382 28.7303 6.3666ZM19.4362 7.8758L15.5161 30L11.5662 7.8716C7.85847 7.8744 6.68201 8.286 6.51212 9.9646C6.51212 9.9646 4.00631 9.0266 2.74349 7.1226C7.67301 4.8266 12.6252 4.7244 12.6252 4.7244L15.5161 8.2552L18.4027 4.7244C18.4027 4.7244 23.3549 4.828 28.2844 7.1226C27.0216 9.0266 24.5172 9.9646 24.5172 9.9646C24.3473 8.286 23.1694 7.8758 19.4348 7.8758" fill="#DE1735"/>
</svg>
