<svg width="103" height="32" viewBox="0 0 103 32" fill="none" xmlns="http://www.w3.org/2000/svg">
<path d="M7.06546 2.09716C5.05125 2.94296 2.83641 5.32966 2.13734 8.33163C1.25041 12.1318 4.93783 13.7367 5.23917 13.2131C5.59362 12.5921 4.57625 12.3836 4.3685 10.4132C4.10125 7.86501 5.27883 5.01808 6.76487 3.76887C7.04207 3.54052 7.02861 3.86277 7.02861 4.4568C7.02861 5.52814 6.96906 15.1132 6.96906 17.1143C6.96906 19.8232 6.85846 20.6762 6.65427 21.5184C6.45365 22.3749 6.12892 22.9525 6.37352 23.1774C6.65071 23.4256 7.82834 22.8345 8.51109 21.8784C9.32784 20.733 9.61567 19.3565 9.66884 17.8626C9.72914 16.0636 9.72558 13.2031 9.72914 11.5748C9.72914 10.0773 9.75254 5.69956 9.70574 3.06392C9.69224 2.41941 7.90561 1.74433 7.06546 2.09716ZM99.9298 16.3183C99.642 16.3183 99.5052 16.6206 99.3946 17.1278C99.0131 18.897 98.6119 19.2961 98.0929 19.2961C97.5144 19.2961 96.9954 18.4204 96.8585 16.6675C96.755 15.291 96.7713 12.7528 96.9053 10.2282C96.9323 9.71102 96.7912 9.19809 95.4058 8.69091C94.8075 8.47606 93.9404 8.1538 93.5093 9.20097C92.2877 12.1525 91.8127 14.5021 91.6986 15.4525C91.6959 15.5023 91.6355 15.5094 91.6249 15.3956C91.5554 14.633 91.3944 13.2465 91.3746 10.3321C91.3675 9.76865 91.2505 9.28132 90.6216 8.88512C90.2168 8.63041 88.9853 8.1737 88.5401 8.71439C88.1586 9.15754 87.7141 10.3462 87.249 11.7562C86.874 12.9044 86.6131 13.6833 86.6131 13.6833C86.6131 13.6833 86.6157 10.5874 86.623 9.41225C86.623 8.96904 86.3217 8.82179 86.2316 8.79474C85.8198 8.67384 85.0065 8.47606 84.6655 8.47606C84.2408 8.47606 84.1402 8.71439 84.1402 9.06011C84.1402 9.10349 84.07 13.132 84.07 15.9491V16.3453C83.8388 17.6414 83.0767 19.4007 82.25 19.4007C81.4234 19.4007 81.032 18.6651 81.032 15.3081C81.032 13.3504 81.0923 12.4982 81.1192 11.0811C81.1355 10.2652 81.1688 9.63772 81.166 9.49334C81.1589 9.06011 80.406 8.83817 80.0579 8.75776C79.7069 8.67384 79.402 8.64679 79.1617 8.65677C78.8271 8.67736 78.5895 8.89862 78.5895 9.20807V9.67757C78.1578 8.99321 77.458 8.51591 76.9901 8.37858C75.7387 8.00586 74.43 8.33803 73.4431 9.72095C72.6604 10.8229 72.1882 12.0678 72.0045 13.8576C71.867 15.1672 71.9109 16.4933 72.1548 17.6144C71.8606 18.8799 71.3183 19.4007 70.7262 19.4007C69.8627 19.4007 69.2409 17.99 69.3111 15.5492C69.3615 13.9451 69.6791 12.8204 70.03 11.1885C70.181 10.4935 70.057 10.1314 69.7528 9.77857C69.4749 9.46272 68.8794 9.29839 68.0265 9.49617C67.4203 9.6406 66.5475 9.79495 65.7542 9.91302C65.7542 9.91302 65.801 9.72095 65.8414 9.38237C66.0456 7.60603 64.1214 7.75046 63.5088 8.31813C63.1409 8.65677 62.8899 9.05654 62.7963 9.77505C62.646 10.9168 63.5726 11.4539 63.5726 11.4539C63.2685 12.8503 62.5255 14.6764 61.7527 15.996C61.3408 16.7046 61.026 17.2253 60.6183 17.7823C60.6146 17.5774 60.6146 17.369 60.6146 17.1648C60.6075 14.2268 60.6444 11.9141 60.6614 11.0811C60.6784 10.2652 60.7117 9.65409 60.7117 9.50967C60.7047 9.19382 60.521 9.07004 60.1325 8.92209C59.7915 8.78833 59.3867 8.69091 58.9683 8.65677C58.443 8.61691 58.1218 8.89862 58.1318 9.23085V9.67757C57.6972 8.99321 56.9974 8.51591 56.5359 8.37858C55.281 8.00586 53.9729 8.33803 52.986 9.72095C52.2061 10.8229 51.6907 12.3637 51.5432 13.8406C51.4099 15.2242 51.4333 16.3922 51.6205 17.3796C51.4198 18.3663 50.8477 19.4007 50.199 19.4007C49.3723 19.4007 48.9002 18.6651 48.9002 15.3081C48.9002 13.3504 48.9604 12.4982 48.9909 11.0811C49.0072 10.2652 49.0377 9.63772 49.0342 9.49334C49.0306 9.06011 48.2783 8.83817 47.9267 8.75776C47.5623 8.67096 47.244 8.64396 47.0029 8.65677C46.6818 8.68376 46.4577 8.96904 46.4577 9.18742V9.67757C46.0231 8.99321 45.3233 8.51591 44.8582 8.37858C43.6069 8.00586 42.3088 8.34518 41.3147 9.72095C40.666 10.618 40.1407 11.6147 39.8699 13.8242C39.7961 14.4623 39.7593 15.0591 39.7628 15.6168C39.5047 17.2011 38.364 19.0279 37.4338 19.0279C36.8851 19.0279 36.3632 17.9665 36.3632 15.7008C36.3632 12.686 36.5504 8.38856 36.5837 7.9724C36.5837 7.9724 37.7614 7.95176 37.9925 7.94893C38.5781 7.94535 39.1134 7.9589 39.8933 7.91836C40.2882 7.8984 40.666 6.48492 40.2576 6.30709C40.0769 6.22952 38.7787 6.15909 38.2633 6.14917C37.8287 6.13919 36.627 6.04886 36.627 6.04886C36.627 6.04886 36.7347 3.19836 36.7581 2.89959C36.778 2.64418 36.4568 2.51688 36.2696 2.43931C35.8173 2.2451 35.4125 2.15408 34.9375 2.0566C34.2717 1.91933 33.974 2.05378 33.9172 2.61361C33.83 3.46369 33.7832 5.95496 33.7832 5.95496C33.2948 5.95496 31.6386 5.85679 31.153 5.85679C30.702 5.85679 30.2129 7.8045 30.8389 7.82798C31.5585 7.85503 32.8063 7.88208 33.6358 7.90481C33.6358 7.90481 33.5989 12.2734 33.5989 13.6193V14.0355C33.1409 16.4221 31.5379 17.7119 31.5379 17.7119C31.8825 16.1305 31.1799 14.9453 29.9087 13.9451C29.44 13.5724 28.5169 12.8702 27.4826 12.1083C27.4826 12.1083 28.0817 11.5144 28.6134 10.3257C28.9884 9.48267 29.0054 8.51303 28.0817 8.30106C26.5559 7.94893 25.301 9.07361 24.9232 10.2751C24.6353 11.202 24.7863 11.8935 25.3577 12.6084L25.4882 12.7699C25.1472 13.4343 24.6722 14.3307 24.2737 15.0257C23.1599 16.9564 22.3198 18.4808 21.6873 18.4808C21.179 18.4808 21.1854 16.9329 21.1854 15.4824C21.1854 14.2332 21.279 12.3502 21.3527 10.4032C21.3761 9.7615 21.0549 9.39229 20.5168 9.06011C20.1886 8.85876 19.4923 8.46256 19.0875 8.46256C18.4856 8.46256 16.7387 8.54291 15.0896 13.3269C14.8819 13.9316 14.4735 15.0293 14.4735 15.0293L14.5103 9.27492C14.5103 9.14047 14.4402 9.01316 14.2764 8.92209C13.9984 8.77126 13.2526 8.46256 12.5968 8.46256C12.2785 8.46256 12.1211 8.61051 12.1211 8.90219L12.0679 17.8997C12.0679 18.5847 12.0842 19.3836 12.1516 19.7329C12.2182 20.0821 12.3288 20.3674 12.4628 20.5381C12.5968 20.7032 12.7535 20.8305 13.008 20.8874C13.2455 20.9379 14.5536 21.1022 14.6209 20.6022C14.7046 20.001 14.7075 19.3537 15.3937 16.9265C16.4643 13.1526 17.8567 11.313 18.5126 10.6578C18.6295 10.544 18.76 10.5369 18.7529 10.7254C18.7231 11.5542 18.626 13.6193 18.5593 15.375C18.3821 20.0786 19.2315 20.9479 20.453 20.9479C21.3832 20.9479 22.6948 20.0181 24.1035 17.6684C24.9834 16.2009 25.8335 14.7675 26.4489 13.7303C26.8707 14.1258 27.3521 14.5526 27.8307 15.0093C28.9452 16.0665 29.3096 17.0738 29.0657 18.0277C28.8814 18.759 28.1823 19.5109 26.9409 18.7796C26.5793 18.5676 26.4255 18.4033 26.0611 18.1614C25.8668 18.0305 25.5655 17.9936 25.3882 18.128C24.9196 18.4808 24.6552 18.9269 24.5013 19.4811C24.3574 20.0217 24.8962 20.3034 25.4549 20.5516C25.9334 20.7701 26.9643 20.9614 27.6229 20.9849C30.1895 21.0724 32.2441 19.7428 33.6726 16.3183C33.9307 19.2762 35.0176 20.9515 36.9085 20.9515C38.1761 20.9515 39.4445 19.3096 40.0003 17.6948C40.157 18.3528 40.3945 18.9233 40.6994 19.4106C42.1584 21.7268 44.9887 21.2303 46.4074 19.2626C46.849 18.6516 46.9164 18.4332 46.9164 18.4332C47.1234 20.2906 48.6158 20.9443 49.4694 20.9443C50.4294 20.9443 51.4135 20.4884 52.1055 18.9233C52.1891 19.0948 52.2763 19.2562 52.377 19.4106C53.8325 21.7268 56.6627 21.2303 58.085 19.2626C58.1488 19.1652 58.209 19.0848 58.2587 19.0073L58.3027 20.2294C58.3027 20.2294 57.4894 20.9749 56.991 21.4345C54.7996 23.4527 53.1328 24.9835 53.0094 26.7627C52.8556 29.0355 54.689 29.8785 56.0807 29.9887C57.5532 30.1069 58.8181 29.2909 59.5937 28.1427C60.2765 27.1354 60.7253 24.97 60.6919 22.8281C60.6785 21.9687 60.6579 20.881 60.638 19.7094C61.4108 18.8166 62.2807 17.6812 63.0776 16.3524C63.9504 14.9083 64.8805 12.9641 65.3556 11.4503C65.3556 11.4503 66.1688 11.4574 67.0323 11.4034C67.3103 11.3863 67.3903 11.4439 67.3365 11.6452C67.2762 11.89 66.246 15.8822 67.1862 18.5413C67.8321 20.3603 69.2805 20.9479 70.144 20.9479C71.1508 20.9479 72.115 20.1824 72.6297 19.0478C72.6936 19.1723 72.7574 19.2961 72.8311 19.4106C74.2866 21.7268 77.107 21.2268 78.5391 19.2626C78.8638 18.8166 79.0446 18.4332 79.0446 18.4332C79.3523 20.3574 80.8447 20.9515 81.6976 20.9515C82.5909 20.9515 83.4339 20.5858 84.1202 18.9603C84.1471 19.676 84.1904 20.26 84.2641 20.4442C84.3073 20.5588 84.5619 20.6996 84.7427 20.7701C85.5587 21.0724 86.3889 20.928 86.6931 20.864C86.9072 20.8205 87.0745 20.6527 87.0951 20.2095C87.1546 19.0478 87.1178 17.0972 87.4694 15.6439C88.0614 13.2131 88.6101 12.2698 88.8711 11.8032C89.0157 11.5407 89.1823 11.4973 89.1859 11.7726C89.1958 12.3331 89.2263 13.9785 89.4567 16.1945C89.6211 17.8193 89.8452 18.7824 90.0189 19.0884C90.5074 19.9577 91.1164 19.9982 91.6084 19.9982C91.9232 19.9982 92.579 19.9107 92.5216 19.3565C92.4918 19.0884 92.5422 17.4195 93.1207 15.0229C93.5021 13.455 94.1345 12.0415 94.3621 11.5243C94.4493 11.333 94.4862 11.4809 94.4862 11.5108C94.4358 12.5885 94.3288 16.1169 94.7634 18.044C95.3596 20.6598 97.0754 20.9515 97.6745 20.9515C98.9492 20.9515 99.9971 19.9776 100.348 17.4131C100.435 16.7949 100.308 16.3183 99.9298 16.3183ZM46.4308 14.734C46.3606 16.0899 46.0962 17.2253 45.675 18.0476C44.9051 19.5415 43.3899 20.0117 42.7235 17.8598C42.2386 16.3055 42.4024 14.1834 42.6065 13.0381C42.9007 11.3394 43.6473 10.1378 44.8115 10.2481C46.0026 10.3662 46.5846 11.907 46.4308 14.734ZM58.105 14.754C58.0383 16.033 57.7072 17.322 57.3456 18.0476C56.5998 19.5515 55.04 20.0217 54.3941 17.8598C53.9532 16.3787 54.0567 14.4687 54.2772 13.2665C54.5622 11.7022 55.2478 10.2481 56.4828 10.2481C57.6838 10.2481 58.2758 11.5712 58.105 14.754ZM58.4098 23.496C58.3928 25.8365 58.0284 27.8845 57.245 28.4821C56.1276 29.3279 54.6253 28.6898 54.9365 26.9846C55.2109 25.4737 56.5126 23.9328 58.4134 22.0491C58.4134 22.0491 58.4199 22.4788 58.4098 23.496ZM78.5661 14.7675C78.4988 16.1745 78.1875 17.2722 77.8033 18.0476C77.0567 19.5515 75.5112 20.0181 74.8518 17.8598C74.4937 16.6811 74.4767 14.7134 74.7348 13.0723C74.9957 11.3998 75.7288 10.1378 76.9397 10.2481C78.1372 10.3626 78.6966 11.907 78.5661 14.7675Z" fill="url(#paint0_linear_109_5162)"/>
<defs>
<linearGradient id="paint0_linear_109_5162" x1="-1.64935" y1="19.9769" x2="10.1901" y2="7.92415" gradientUnits="userSpaceOnUse">
<stop stop-color="#FFD521"/>
<stop offset="0.05" stop-color="#FFD521"/>
<stop offset="0.501119" stop-color="#F50000"/>
<stop offset="0.95" stop-color="#B900B4"/>
<stop offset="0.950079" stop-color="#B900B4"/>
<stop offset="1" stop-color="#B900B4"/>
</linearGradient>
</defs>
</svg>
