<svg width="103" height="32" viewBox="0 0 103 32" fill="none" xmlns="http://www.w3.org/2000/svg">
<path d="M7.07993 2.09859C5.06107 2.94415 2.83906 5.33314 2.13744 8.33179C1.24914 12.1311 4.94567 13.7379 5.24887 13.211C5.60566 12.592 4.58651 12.3826 4.37652 10.4113C4.10534 7.86533 5.289 5.02022 6.77872 3.77201C7.05563 3.54021 7.04242 3.86298 7.04242 4.45992L6.98348 17.1127C6.98348 19.8195 6.87169 20.6744 6.67093 21.5189C6.46742 22.3748 6.14041 22.9533 6.38828 23.1758C6.66519 23.4251 7.8476 22.8323 8.53178 21.877C9.35253 20.7314 9.63966 19.3556 9.69138 17.8613C9.75369 16.0602 9.7512 13.2021 9.75369 11.5717L9.72877 3.06628C9.7163 2.42074 7.92574 1.74342 7.08081 2.09735L7.07993 2.09859ZM78.8163 14.7655C78.7512 16.1727 78.4397 17.2725 78.0532 18.0484C77.3048 19.5503 75.7518 20.0167 75.0924 17.8577C74.7331 16.6808 74.7163 14.7153 74.9746 13.0729C75.2363 11.3998 75.9718 10.1362 77.1879 10.2502C78.3871 10.3629 78.9486 11.9082 78.8165 14.7656L78.8163 14.7655ZM58.5972 23.4964C58.581 25.8345 58.213 27.8845 57.4239 28.4812C56.3048 29.3255 54.8004 28.6922 55.1119 26.986C55.3876 25.4762 56.6909 23.9344 58.6005 22.0505L58.5974 23.4976L58.5972 23.4964ZM58.2915 14.7523C58.223 16.0339 57.8909 17.3215 57.5284 18.049C56.7801 19.551 55.2159 20.0205 54.5676 17.8584C54.1243 16.381 54.2305 14.4689 54.4498 13.2642C54.7345 11.7011 55.4244 10.2508 56.6631 10.2508C57.8676 10.2508 58.4614 11.5722 58.2917 14.7524L58.2915 14.7523ZM46.5792 14.7327C46.5057 16.0901 46.241 17.2249 45.8161 18.0489C45.0471 19.5406 43.5261 20.0136 42.8553 17.8582C42.3718 16.304 42.5363 14.1848 42.7375 13.04C43.0361 11.3411 43.7836 10.1367 44.9508 10.251C46.1497 10.3681 46.7324 11.9088 46.5794 14.733L46.5792 14.7327ZM100.254 16.3182C99.9614 16.3182 99.8276 16.6202 99.7171 17.1287C99.3333 18.8967 98.93 19.2971 98.4086 19.2971C97.8275 19.2971 97.3053 18.4216 97.1711 16.6692C97.0657 15.2913 97.0826 12.7544 97.2174 10.2309C97.2449 9.71247 97.1019 9.1994 95.7113 8.69431C95.1128 8.47697 94.243 8.15719 93.8099 9.20252C92.5861 12.156 92.1076 14.5011 91.9948 15.4535C91.989 15.5029 91.9285 15.5129 91.9179 15.3977C91.8461 14.6348 91.6856 13.2484 91.6657 10.3353C91.6619 9.76705 91.5414 9.28327 90.9142 8.88723C90.5072 8.63026 89.2712 8.17564 88.8262 8.71649C88.4406 9.1589 87.9941 10.349 87.5301 11.7598L86.8903 13.682L86.8998 9.41462C86.9018 8.97184 86.5982 8.82442 86.5066 8.79775C86.0945 8.67811 85.2824 8.47822 84.9364 8.47822C84.511 8.47822 84.407 8.716 84.407 9.06232L84.3397 15.9523L84.3409 16.3498C84.1056 17.6444 83.3427 19.4018 82.5131 19.4018C81.6825 19.4018 81.2918 18.6672 81.2918 15.3092C81.2918 13.3504 81.3506 12.4986 81.3795 11.0821L81.4269 9.49712C81.4207 9.06095 80.6667 8.84124 80.3158 8.75999C79.9631 8.67811 79.6569 8.64633 79.4176 8.65992C79.079 8.67898 78.8394 8.90118 78.8394 9.20663L78.8413 9.68194C78.4051 8.99652 77.7038 8.51972 77.2371 8.38151C75.9802 8.00827 74.6687 8.33914 73.6792 9.72331C72.8928 10.8232 72.4189 12.0691 72.2336 13.859C72.0972 15.1675 72.1417 16.4945 72.3841 17.6167C72.0913 18.8829 71.5475 19.4018 70.9522 19.4018C70.0878 19.4018 69.4612 17.9911 69.534 15.551C69.582 13.9461 69.9031 12.8198 70.2543 11.1905C70.4039 10.4958 70.2824 10.1322 69.9774 9.78375C69.6977 9.4641 69.1016 9.30084 68.2447 9.50173C67.6343 9.64505 66.7617 9.79896 65.9632 9.91722C65.9632 9.91722 66.0115 9.72506 66.051 9.38609C66.2586 7.60898 64.3275 7.75305 63.7112 8.32057C63.3436 8.65954 63.0931 9.0592 62.998 9.7779C62.8472 10.9184 63.7775 11.4563 63.7775 11.4563C63.4722 12.8521 62.7242 14.6783 61.9518 15.9975C61.5381 16.7044 61.2215 17.2283 60.8131 17.7851L60.8098 17.1641L60.8568 11.0826L60.9045 9.51432C60.8999 9.19529 60.7136 9.07491 60.3262 8.92237C59.9835 8.78753 59.5785 8.69406 59.1585 8.66154C58.6283 8.62016 58.3086 8.90143 58.3171 9.23405C58.3187 9.29686 58.3187 9.68244 58.3187 9.68244C57.8825 8.99702 57.1812 8.52022 56.7146 8.38201C55.4576 8.00889 54.1461 8.33964 53.1566 9.72381C52.3705 10.8237 51.8556 12.3673 51.711 13.8458C51.5739 15.2239 51.6001 16.3949 51.7854 17.3813C51.5855 18.3692 51.0109 19.4022 50.3612 19.4022C49.5306 19.4022 49.058 18.6675 49.058 15.3096C49.058 13.3508 49.1168 12.499 49.1457 11.0824L49.193 9.4975C49.1868 9.06132 48.4329 8.84161 48.0819 8.76024C47.7148 8.67549 47.3965 8.64409 47.1544 8.66203C46.8332 8.68596 46.6073 8.97359 46.6073 9.18794V9.68219C46.1711 8.99677 45.4699 8.51997 45.0031 8.38176C43.7462 8.00864 42.4419 8.34475 41.4452 9.72356C40.7953 10.6227 40.2691 11.6194 39.9996 13.8261C39.9213 14.4638 39.8868 15.0609 39.8912 15.619C39.632 17.204 38.4874 19.0307 37.551 19.0307C37.0031 19.0307 36.4813 17.9679 36.4813 15.703C36.4813 12.6859 36.668 8.39061 36.6996 7.97649L38.1116 7.95369C38.7017 7.94721 39.2362 7.96116 40.022 7.92091C40.4162 7.90097 40.7959 6.48602 40.3892 6.3108C40.2047 6.23154 38.9014 6.16213 38.3847 6.15128C37.9503 6.14131 36.741 6.05196 36.741 6.05196L36.8747 2.89966C36.8961 2.64867 36.5714 2.51956 36.3849 2.44105C35.9321 2.24951 35.5269 2.15779 35.0465 2.05884C34.383 1.922 34.0819 2.05585 34.0231 2.6159C33.9359 3.46581 33.8885 5.95525 33.8885 5.95525C33.4016 5.95525 31.7383 5.86004 31.2513 5.86004C30.7989 5.86004 30.3104 7.80626 30.936 7.83031L33.742 7.90758L33.7064 14.0373C33.2487 16.423 31.6365 17.7117 31.6365 17.7117C31.9827 16.1335 31.2755 14.9483 30.0014 13.945C29.5321 13.5752 28.6057 12.8754 27.5688 12.1084C27.5688 12.1084 28.1693 11.5167 28.7029 10.3264C29.0801 9.48304 29.0964 8.5181 28.1705 8.30524C26.6404 7.95344 25.379 9.07703 25.0026 10.2768C24.711 11.2061 24.8665 11.8956 25.4376 12.6122C25.4793 12.6645 25.5244 12.7181 25.5712 12.7717C25.2257 13.4374 24.7511 14.3337 24.3495 15.0286C23.2341 16.9583 22.3914 18.4847 21.7549 18.4847C21.2458 18.4847 21.2526 16.935 21.2526 15.4841C21.2526 14.2332 21.3449 12.3527 21.4188 10.4057C21.4432 9.76182 21.1212 9.39506 20.5813 9.06269C20.2536 8.86081 19.5534 8.46401 19.1482 8.46401C18.5413 8.46401 16.7909 8.54651 15.137 13.331C14.9285 13.9342 14.5188 15.0328 14.5188 15.0328L14.5541 9.27941C14.5541 9.14457 14.4823 9.01397 14.3177 8.92486C14.0391 8.77357 13.2958 8.46401 12.6328 8.46401C12.3175 8.46401 12.16 8.61069 12.16 8.90305L12.1023 17.9045C12.1023 18.5884 12.1201 19.3875 12.1878 19.7352C12.2555 20.0829 12.3643 20.3687 12.4994 20.5377C12.6344 20.7067 12.7905 20.8353 13.0479 20.8884C13.2876 20.9378 14.5995 21.1062 14.6678 20.6049C14.7495 20.0042 14.7525 19.3541 15.4417 16.9303C16.5142 13.1568 17.9125 11.3155 18.5699 10.6616C18.6848 10.5473 18.816 10.5405 18.8098 10.7276L18.6166 15.3785C18.4384 20.0786 19.2936 20.9498 20.5155 20.9498C21.4502 20.9498 22.768 20.021 24.1794 17.6698L26.5295 13.7324L27.9182 15.011C29.0339 16.0699 29.4002 17.0762 29.1571 18.0306C28.9712 18.7604 28.2711 19.5136 27.0252 18.7814C26.6621 18.5683 26.5071 18.4035 26.1419 18.1629C25.9458 18.0338 25.6462 17.9952 25.4665 18.1305C25 18.4822 24.7332 18.9296 24.5808 19.4835C24.4325 20.0225 24.9723 20.3073 25.5319 20.5553C26.0137 20.7696 27.0492 20.9641 27.7095 20.9862C30.2826 21.0735 32.3437 19.7438 33.7786 16.3173C34.0353 19.2766 35.1286 20.9512 37.0277 20.9512C38.2976 20.9512 39.5705 19.31 40.1271 17.6954C40.2868 18.3534 40.5234 18.9259 40.8289 19.4098C42.2924 21.7285 45.1314 21.2292 46.5574 19.2605C46.9983 18.6521 47.0655 18.4335 47.0655 18.4335C47.2736 20.2926 48.7707 20.9421 49.6277 20.9421C50.5878 20.9421 51.579 20.4882 52.2738 18.9241C52.3552 19.0939 52.444 19.256 52.5411 19.4096C54.0046 21.7284 56.8436 21.2291 58.2696 19.2603C58.3299 19.1776 58.3888 19.0938 58.4462 19.009L58.4881 20.2303L57.1752 21.4344C54.9772 23.4508 53.3061 24.9807 53.1831 26.7623C53.0253 29.0342 54.8676 29.8782 56.2615 29.9888C57.7417 30.1063 59.0094 29.2884 59.7882 28.1444C60.4737 27.1372 60.9221 24.9693 60.8892 22.8283L60.8374 19.7122C61.6101 18.815 62.4803 17.6813 63.2818 16.3541C64.1551 14.9077 65.0913 12.9653 65.5703 11.4537C65.5703 11.4537 66.3835 11.4607 67.2515 11.4038C67.5291 11.3858 67.6087 11.4425 67.5575 11.6458C67.4956 11.8917 66.4611 15.8817 67.4051 18.5399C68.0514 20.3594 69.5081 20.9451 70.3719 20.9451C71.3829 20.9451 72.3501 20.1816 72.8684 19.0477C72.9307 19.1741 72.9961 19.2965 73.0674 19.4094C74.5308 21.7281 77.3599 21.226 78.7959 19.2601C79.1199 18.8164 79.304 18.4331 79.304 18.4331C79.6122 20.3573 81.1085 20.9517 81.9655 20.9517C82.8583 20.9517 83.7056 20.5857 84.3931 18.959C84.4218 19.6752 84.467 20.2608 84.5385 20.4454C84.5821 20.5583 84.8357 20.7 85.0202 20.7685C85.8369 21.0714 86.6699 20.928 86.9768 20.8657C87.1903 20.8225 87.3569 20.6514 87.3793 20.209C87.4391 19.0477 87.4024 17.0967 87.7532 15.6466C88.3441 13.2131 88.8954 12.2693 89.1568 11.802C89.3031 11.5403 89.4684 11.4969 89.4743 11.7741C89.4868 12.3349 89.5146 13.9811 89.7435 16.1935C89.9118 17.8205 90.1361 18.7822 90.3088 19.0865C90.8014 19.9569 91.4097 19.9981 91.904 19.9981C92.2193 19.9981 92.8781 19.9109 92.8192 19.3572C92.7905 19.0872 92.8407 17.4188 93.4233 15.0213C93.8038 13.4557 94.438 12.0411 94.6668 11.524C94.7512 11.3333 94.7904 11.4836 94.7889 11.5128C94.7407 12.591 94.6327 16.1175 95.0718 18.0463C95.6673 20.6592 97.3898 20.9516 97.9899 20.9516C99.2712 20.9516 100.319 19.977 100.672 17.4123C100.757 16.7951 100.631 16.3185 100.254 16.3185" fill="#262626"/>
</svg>
