<svg width="32" height="32" viewBox="0 0 32 32" fill="none" xmlns="http://www.w3.org/2000/svg">
<path d="M23.438 2H8.56299C4.93862 2 2.00049 4.93813 2.00049 8.5625V23.4375C2.00049 27.0619 4.93862 30 8.56299 30H23.438C27.0624 30 30.0005 27.0619 30.0005 23.4375V8.5625C30.0005 4.93813 27.0624 2 23.438 2Z" fill="url(#paint0_radial_109_5332)"/>
<path d="M23.438 2H8.56299C4.93862 2 2.00049 4.93813 2.00049 8.5625V23.4375C2.00049 27.0619 4.93862 30 8.56299 30H23.438C27.0624 30 30.0005 27.0619 30.0005 23.4375V8.5625C30.0005 4.93813 27.0624 2 23.438 2Z" fill="url(#paint1_radial_109_5332)"/>
<path d="M16.0015 5.0625C13.0311 5.0625 12.6582 5.07552 11.4916 5.12856C10.3272 5.18194 9.53238 5.36623 8.83697 5.63672C8.1175 5.91606 7.5073 6.2898 6.89939 6.89792C6.29094 7.50594 5.91721 8.11614 5.63699 8.83528C5.36574 9.53091 5.18122 10.3261 5.12883 11.4899C5.07666 12.6566 5.06299 13.0296 5.06299 16.0001C5.06299 18.9706 5.07611 19.3423 5.12905 20.5089C5.18264 21.6733 5.36694 22.4681 5.63721 23.1635C5.91677 23.883 6.2905 24.4932 6.89863 25.1011C7.50643 25.7095 8.11663 26.0842 8.83555 26.3635C9.5315 26.634 10.3264 26.8183 11.4906 26.8717C12.6573 26.9247 13.0299 26.9377 16.0002 26.9377C18.9709 26.9377 19.3426 26.9247 20.5091 26.8717C21.6736 26.8183 22.4693 26.634 23.1652 26.3635C23.8843 26.0842 24.4937 25.7095 25.1014 25.1011C25.7098 24.4932 26.0834 23.883 26.3638 23.1638C26.6326 22.4681 26.8172 21.6731 26.8719 20.5091C26.9243 19.3425 26.938 18.9706 26.938 16.0001C26.938 13.0296 26.9243 12.6568 26.8719 11.4901C26.8172 10.3257 26.6326 9.53102 26.3638 8.83561C26.0834 8.11614 25.7098 7.50594 25.1014 6.89792C24.493 6.28958 23.8846 5.91584 23.1646 5.63683C22.4673 5.36623 21.672 5.18183 20.5076 5.12856C19.3409 5.07552 18.9695 5.0625 15.9981 5.0625H16.0015ZM15.0203 7.03355C15.3115 7.03311 15.6365 7.03355 16.0015 7.03355C18.9219 7.03355 19.268 7.04405 20.4212 7.09644C21.4876 7.14522 22.0664 7.32339 22.452 7.47312C22.9624 7.67131 23.3263 7.90833 23.7089 8.29125C24.0917 8.67406 24.3286 9.03861 24.5274 9.54906C24.6771 9.93406 24.8555 10.5129 24.9041 11.5793C24.9564 12.7323 24.9678 13.0786 24.9678 15.9976C24.9678 18.9166 24.9564 19.263 24.9041 20.4159C24.8553 21.4823 24.6771 22.0611 24.5274 22.4462C24.3292 22.9567 24.0917 23.3201 23.7089 23.7027C23.3261 24.0855 22.9626 24.3225 22.452 24.5208C22.0669 24.6711 21.4876 24.8489 20.4212 24.8977C19.2682 24.95 18.9219 24.9614 16.0015 24.9614C13.0809 24.9614 12.7348 24.95 11.5818 24.8977C10.5154 24.8484 9.93663 24.6703 9.55075 24.5205C9.04041 24.3222 8.67575 24.0853 8.29294 23.7025C7.91013 23.3197 7.67322 22.956 7.47449 22.4454C7.32475 22.0602 7.14636 21.4814 7.0978 20.415C7.04541 19.262 7.03491 18.9157 7.03491 15.9949C7.03491 13.074 7.04541 12.7296 7.0978 11.5765C7.14658 10.5101 7.32475 9.93133 7.47449 9.54578C7.67279 9.03533 7.91013 8.67078 8.29305 8.28797C8.67597 7.90516 9.04041 7.66814 9.55086 7.46952C9.93641 7.31912 10.5154 7.14139 11.5818 7.09239C12.5908 7.04678 12.9818 7.03311 15.0203 7.03081V7.03355ZM21.8399 8.84961C21.1153 8.84961 20.5274 9.43695 20.5274 10.1617C20.5274 10.8863 21.1153 11.4742 21.8399 11.4742C22.5645 11.4742 23.1524 10.8863 23.1524 10.1617C23.1524 9.43706 22.5645 8.84917 21.8399 8.84917V8.84961ZM16.0015 10.3832C12.8996 10.3832 10.3846 12.8981 10.3846 16.0001C10.3846 19.1021 12.8996 21.6159 16.0015 21.6159C19.1035 21.6159 21.6176 19.1021 21.6176 16.0001C21.6176 12.8982 19.1032 10.3832 16.0013 10.3832H16.0015ZM16.0015 12.3542C18.015 12.3542 19.6474 13.9864 19.6474 16.0001C19.6474 18.0136 18.015 19.646 16.0015 19.646C13.988 19.646 12.3557 18.0136 12.3557 16.0001C12.3557 13.9864 13.9879 12.3542 16.0015 12.3542Z" fill="white"/>
<defs>
<radialGradient id="paint0_radial_109_5332" cx="0" cy="0" r="1" gradientUnits="userSpaceOnUse" gradientTransform="translate(9.43799 32.1565) rotate(-90) scale(27.7501 25.8098)">
<stop stop-color="#FFDD55"/>
<stop offset="0.1" stop-color="#FFDD55"/>
<stop offset="0.5" stop-color="#FF543E"/>
<stop offset="1" stop-color="#C837AB"/>
</radialGradient>
<radialGradient id="paint1_radial_109_5332" cx="0" cy="0" r="1" gradientUnits="userSpaceOnUse" gradientTransform="translate(-2.68962 4.01698) rotate(78.681) scale(12.4044 51.1315)">
<stop stop-color="#3771C8"/>
<stop offset="0.128" stop-color="#3771C8"/>
<stop offset="1" stop-color="#6600FF" stop-opacity="0"/>
</radialGradient>
</defs>
</svg>
