<svg width="32" height="32" viewBox="0 0 32 32" fill="none" xmlns="http://www.w3.org/2000/svg">
<path d="M21.6586 2H10.3414C5.74191 2 2 5.74191 2 10.3414V21.6586C2 26.2581 5.74191 30 10.3414 30H21.6586C26.2581 30 30 26.2581 30 21.6586V10.3414C29.9999 5.74191 26.258 2 21.6586 2ZM27.1832 21.6586C27.1832 24.7097 24.7097 27.1832 21.6586 27.1832H10.3414C7.29025 27.1832 4.8168 24.7097 4.8168 21.6586V10.3414C4.8168 7.2902 7.29025 4.8168 10.3414 4.8168H21.6586C24.7097 4.8168 27.1832 7.2902 27.1832 10.3414V21.6586Z" fill="url(#paint0_linear_33_5781)"/>
<path d="M15.9996 8.75818C12.0065 8.75818 8.75781 12.0068 8.75781 15.9999C8.75781 19.993 12.0065 23.2417 15.9996 23.2417C19.9927 23.2417 23.2414 19.9931 23.2414 15.9999C23.2414 12.0068 19.9927 8.75818 15.9996 8.75818ZM15.9996 20.425C13.5557 20.425 11.5746 18.4439 11.5746 16C11.5746 13.5561 13.5558 11.575 15.9996 11.575C18.4435 11.575 20.4246 13.5561 20.4246 16C20.4246 18.4438 18.4434 20.425 15.9996 20.425Z" fill="url(#paint1_linear_33_5781)"/>
<path d="M23.2548 10.548C24.2132 10.548 24.9901 9.77105 24.9901 8.81268C24.9901 7.85431 24.2132 7.07739 23.2548 7.07739C22.2964 7.07739 21.5195 7.85431 21.5195 8.81268C21.5195 9.77105 22.2964 10.548 23.2548 10.548Z" fill="url(#paint2_linear_33_5781)"/>
<defs>
<linearGradient id="paint0_linear_33_5781" x1="16" y1="29.9185" x2="16" y2="2.21748" gradientUnits="userSpaceOnUse">
<stop stop-color="#E09B3D"/>
<stop offset="0.3" stop-color="#C74C4D"/>
<stop offset="0.6" stop-color="#C21975"/>
<stop offset="1" stop-color="#7024C4"/>
</linearGradient>
<linearGradient id="paint1_linear_33_5781" x1="15.9996" y1="29.9185" x2="15.9996" y2="2.21746" gradientUnits="userSpaceOnUse">
<stop stop-color="#E09B3D"/>
<stop offset="0.3" stop-color="#C74C4D"/>
<stop offset="0.6" stop-color="#C21975"/>
<stop offset="1" stop-color="#7024C4"/>
</linearGradient>
<linearGradient id="paint2_linear_33_5781" x1="23.2548" y1="29.9186" x2="23.2548" y2="2.21758" gradientUnits="userSpaceOnUse">
<stop stop-color="#E09B3D"/>
<stop offset="0.3" stop-color="#C74C4D"/>
<stop offset="0.6" stop-color="#C21975"/>
<stop offset="1" stop-color="#7024C4"/>
</linearGradient>
</defs>
</svg>
