<svg width="146" height="32" viewBox="0 0 146 32" fill="none" xmlns="http://www.w3.org/2000/svg">
<path d="M119.362 11.6407C117.396 11.1127 115.41 11.1127 113.454 11.6407C110.519 12.4327 108.553 14.3002 107.924 17.2823C107.575 18.9054 107.507 20.636 107.604 22.308C107.808 26.1212 110.151 28.8394 113.773 29.69H113.928C114.064 29.69 114.209 29.7878 114.345 29.7878H114.49C114.664 29.7878 114.878 29.8856 115.1 29.8856C115.807 29.9834 116.718 30.0127 117.473 29.8856H117.589C121.337 29.69 124.175 27.3043 125.008 23.6475C125.463 21.6431 125.463 19.6289 125.008 17.6148C124.311 14.4566 122.412 12.4327 119.304 11.5918L119.362 11.6407ZM119.604 22.6698C119.604 22.7871 119.604 22.9044 119.507 23.0217C119.129 24.7035 117.919 25.6128 116.301 25.5444C114.568 25.4466 113.376 24.4395 113.202 22.6893C113.086 21.4084 113.066 20.108 113.202 18.8272C113.367 16.8032 114.616 15.6984 116.495 15.7375C118.035 15.7375 119.139 16.6468 119.526 18.1525C119.894 19.6485 119.633 22.3275 119.623 22.6698H119.604ZM127.139 2.71376V29.6216H132.795V21.3889L138.005 29.6314H144L138.344 20.6751L144 11.758H138.005L132.795 19.9809V2.01955L127.139 2.71376ZM66.9276 21.2618C66.9276 20.0103 66.9276 18.7587 66.7436 17.5268C66.2593 14.1633 64.2352 12.0318 60.952 11.4745C59.7026 11.2593 58.3758 11.2887 57.0974 11.3767C53.6108 11.7091 50.9669 13.8993 50.4245 17.2041C50.0952 19.2085 50.0565 21.3302 50.318 23.3346C50.715 26.3559 52.1775 28.2821 54.6955 29.2109C55.848 29.5629 61.4846 31.0491 66.4433 28.5265L66.2399 27.7932C66.0075 26.8057 65.7363 25.8377 65.4748 24.8599V24.7621C65.4748 24.7621 65.3683 24.7621 65.1843 24.8599C64.9712 24.9577 64.7485 24.987 64.5354 25.0555H64.4192C63.6638 25.2706 62.5887 25.5346 61.4556 25.6812C60.5065 25.779 59.538 25.779 58.5695 25.6812C56.9909 25.4172 55.7899 24.5666 55.848 22.5524H66.9373V22.3569L66.9276 21.2618ZM61.843 18.8076H55.7318C55.7318 17.5854 55.9158 16.4415 56.9909 15.7472C58.1337 15.0139 59.4024 14.9846 60.584 15.6397C61.7849 16.3046 61.872 17.5072 61.843 18.8076ZM49.5238 28.3212C49.2817 27.4216 49.0008 26.5221 48.7296 25.6617L48.4778 24.7035C48.4778 24.7035 41.863 27.9105 40.8364 21.8191C40.7396 20.812 40.7396 19.7756 40.9333 18.7881C41.1948 16.9205 42.3182 15.9135 44.1196 15.7472C44.7298 15.6495 45.3593 15.7472 45.9598 15.845C46.783 15.9819 47.5771 16.2361 48.4778 16.461C48.7878 15.5028 49.1073 14.5446 49.4076 13.5864C49.5044 13.4397 49.5044 13.3029 49.5238 13.1953L49.6691 12.6184C49.6691 12.5207 49.5432 12.462 49.4173 12.3838C49.2623 12.2567 49.0105 12.1491 48.6037 12.0024C48.4391 11.9047 48.2841 11.8851 48.1195 11.8362C47.9742 11.7384 47.8774 11.7384 47.8774 11.7384C46.1438 11.2398 44.3617 11.2007 42.5507 11.3865C38.7348 11.7971 36.1393 14.0655 35.4226 17.8201C35.0449 19.7952 35.0642 21.7996 35.5194 23.7746C36.1683 26.7372 37.9503 28.6634 40.8461 29.514C42.7347 30.0714 44.6717 30.1007 46.599 29.7976C47.4125 29.6705 48.5747 29.25 49.4076 28.9469L49.7272 28.8296L49.5722 28.3212H49.5238ZM28.1395 13.8504C28.0427 13.7526 28.004 13.7037 27.9555 13.6451L27.8199 13.5082C26.5512 12.198 26.067 11.8753 25.0694 11.582C21.2342 10.438 17.4958 12.4718 16.3143 16.3632C15.5879 18.7587 15.5782 21.2227 16.0044 23.6475C16.9244 28.8981 20.7887 30.658 24.9145 29.7878C26.1832 29.5238 27.1226 28.7221 27.9943 27.6172C27.9943 27.6172 28.0911 27.5194 28.1686 27.3336V29.6412H33.4469V11.5624H28.1686V13.8504H28.1395ZM27.6747 22.9337C27.5003 24.6057 26.1638 25.603 24.5755 25.5444C22.9581 25.4466 21.8831 24.6057 21.5344 23.0315C21.118 20.8022 21.6313 18.1427 21.6507 17.9276C22.0768 16.4317 23.1518 15.6886 24.7401 15.7277C26.2994 15.7277 27.4907 16.6957 27.6747 18.3187C27.8296 19.844 27.8296 21.4182 27.6747 22.9337ZM15.2393 11.5527H11.2007V8.84429C11.4912 6.28257 15.6848 6.77145 15.6848 6.77145V2.3911C15.5395 2.3911 7.35575 0.39648 5.72869 6.68345C5.47688 7.46565 5.48656 11.0736 5.49625 11.5233H2V16.3437H5.70932V29.4456H11.1135V16.3437H15.2489L15.7138 11.5233H15.2489L15.2393 11.5527ZM100.089 11.6407C98.1226 11.1127 96.1372 11.1127 94.1809 11.6407C91.2464 12.4327 89.2803 14.3002 88.6411 17.2823C88.2925 18.9054 88.2247 20.636 88.3215 22.308C88.5346 26.1212 90.8686 28.8394 94.5005 29.69H94.6554C94.791 29.69 94.9363 29.7878 95.0719 29.7878H95.2172C95.3915 29.7878 95.6046 29.8856 95.8273 29.8856C96.5343 29.9834 97.4447 30.0127 98.2001 29.8856H98.3163C102.064 29.69 104.902 27.3043 105.735 23.6475C106.19 21.6431 106.19 19.6289 105.735 17.6148C105.028 14.4664 103.139 12.4327 100.031 11.5918L100.089 11.6407ZM100.321 22.6698C100.321 22.7871 100.321 22.9044 100.224 23.0217C99.8465 24.7035 98.6359 25.6128 97.0186 25.5444C95.285 25.4466 94.0937 24.4395 93.9194 22.6893C93.7983 21.4048 93.7983 20.1117 93.9194 18.8272C94.084 16.8032 95.3334 15.6984 97.2123 15.7375C98.7522 15.7375 99.8562 16.6468 100.244 18.1525C100.621 19.6485 100.36 22.3275 100.34 22.6698H100.321ZM80.0506 11.3082C77.9199 11.0736 76.0701 11.7287 74.5108 13.6255V2L68.8549 2.69421V29.5923H74.5108V27.9985C75.276 28.5461 76.012 29.2109 76.8836 29.5238C80.1765 30.7167 84.5154 29.7487 86.0359 25.2999C87.0141 22.4449 86.985 19.5214 86.2489 16.637C85.4451 13.43 83.3241 11.6602 80.0506 11.3082ZM80.9029 22.9631C80.6511 24.7328 79.2564 25.6617 77.6003 25.5346C77.1839 25.5346 76.8062 25.4172 76.4769 25.2804C75.1404 24.5079 74.7336 23.2075 74.6174 22.3862C74.5205 21.1249 74.4237 18.485 75.0338 17.2432C75.5471 16.285 76.4575 15.7668 77.6488 15.7277C79.3533 15.6299 80.6414 16.5197 80.8932 18.2699C81.1063 19.8049 81.116 21.428 80.8932 22.9631H80.9029Z" fill="#1877F2"/>
</svg>
