<svg width="32" height="32" viewBox="0 0 32 32" fill="none" xmlns="http://www.w3.org/2000/svg">
<path d="M30.0005 16C30.0005 8.26806 23.7324 2 16.0005 2C8.26855 2 2.00049 8.26806 2.00049 16C2.00049 22.9877 7.12011 28.7797 13.813 29.8299V20.0469H10.2583V16H13.813V12.9156C13.813 9.40687 15.9031 7.46875 19.1011 7.46875C20.6327 7.46875 22.2349 7.74219 22.2349 7.74219V11.1875H20.4696C18.7304 11.1875 18.188 12.2667 18.188 13.3739V16H22.0708L21.4501 20.0469H18.188V29.8299C24.8809 28.7797 30.0005 22.9879 30.0005 16Z" fill="#1877F2"/>
<path d="M21.4501 20.0469L22.0708 16H18.188V13.3739C18.188 12.2666 18.7304 11.1875 20.4696 11.1875H22.2349V7.74219C22.2349 7.74219 20.6327 7.46875 19.1009 7.46875C15.9031 7.46875 13.813 9.40688 13.813 12.9156V16H10.2583V20.0469H13.813V29.8299C14.5366 29.9433 15.268 30.0002 16.0005 30C16.733 30.0002 17.4643 29.9433 18.188 29.8299V20.0469H21.4501Z" fill="white"/>
</svg>
