<svg width="96" height="32" viewBox="0 0 96 32" fill="none" xmlns="http://www.w3.org/2000/svg">
<path d="M4.51721 21.256C4.51721 25.2812 9.7084 28.5453 16.1134 28.5453C22.5184 28.5453 27.7096 25.2808 27.7096 21.256C27.7096 17.2312 22.5179 13.967 16.1134 13.967C9.70886 13.967 4.51721 17.2307 4.51721 21.256Z" fill="white"/>
<path d="M16.3839 27.9515C10.7156 28.5159 5.8226 25.9302 5.45381 22.1729C5.08594 18.4165 9.38431 14.9134 15.0517 14.3476C20.7205 13.7814 25.614 16.368 25.9818 20.1235C26.3492 23.8812 22.0527 27.3853 16.3839 27.9515ZM27.7219 15.4801C27.2398 15.3348 26.9092 15.2351 27.1615 14.5958C27.7083 13.2068 27.7647 12.0091 27.1719 11.1542C26.0606 9.55158 23.0193 9.63753 19.5331 11.1115C19.5331 11.1092 18.4386 11.595 18.7182 10.7185C19.2545 8.97799 19.1735 7.52058 18.3389 6.67903C16.4481 4.76844 11.4185 6.75119 7.10514 11.1037C3.87533 14.3646 2 17.8204 2 20.8088C2 26.5249 9.26138 30 16.3652 30C25.6772 30 31.8719 24.538 31.8719 20.2021C31.8719 17.5819 29.686 16.095 27.7219 15.4801Z" fill="#E6162D"/>
<path d="M33.9069 5.01993C31.6582 2.50311 28.341 1.54391 25.2792 2.20069H25.2782C25.1099 2.237 24.9502 2.30642 24.8085 2.40501C24.6667 2.50359 24.5455 2.6294 24.4519 2.77525C24.3583 2.92111 24.294 3.08415 24.2628 3.25507C24.2316 3.42599 24.234 3.60144 24.27 3.7714C24.306 3.94137 24.3747 4.10252 24.4724 4.24565C24.5701 4.38878 24.6947 4.5111 24.8392 4.60561C24.9837 4.70012 25.1452 4.76498 25.3145 4.79648C25.4838 4.82798 25.6576 4.82551 25.826 4.7892C28.0041 4.32224 30.3611 5.00614 31.961 6.7931C32.7191 7.64122 33.2426 8.67589 33.4789 9.79307C33.7153 10.9102 33.6561 12.0705 33.3072 13.1573L33.3077 13.1577C33.2545 13.3231 33.2342 13.4975 33.2478 13.6709C33.2615 13.8442 33.3089 14.0131 33.3874 14.1679C33.4659 14.3228 33.5738 14.4604 33.705 14.573C33.8363 14.6857 33.9883 14.7711 34.1523 14.8243C34.4828 14.9322 34.8423 14.9032 35.1517 14.7438C35.4612 14.5844 35.6953 14.3075 35.8027 13.974L35.8031 13.9685C36.7629 10.9617 36.1564 7.53398 33.9069 5.01993Z" fill="#FF9933"/>
<path d="M30.4528 8.16588C29.3583 6.9401 27.7425 6.47452 26.2505 6.79487C26.102 6.82228 25.9605 6.87949 25.8344 6.9631C25.7082 7.04671 25.5999 7.15503 25.516 7.28164C25.432 7.40824 25.3741 7.55057 25.3456 7.70018C25.3171 7.8498 25.3186 8.00366 25.3501 8.15267C25.3816 8.30167 25.4424 8.44279 25.5288 8.56766C25.6153 8.69254 25.7257 8.79863 25.8535 8.87966C25.9813 8.96069 26.1239 9.01501 26.2729 9.0394C26.4219 9.06379 26.5742 9.05776 26.7208 9.02167V9.02259C27.0915 8.94257 27.4765 8.96226 27.8373 9.07971C28.198 9.19715 28.5219 9.40822 28.7764 9.69178C29.0305 9.97603 29.2058 10.3229 29.2847 10.6974C29.3636 11.0719 29.3433 11.4608 29.2258 11.8248H29.2267C29.1346 12.1123 29.1594 12.4249 29.2956 12.694C29.4318 12.9631 29.6682 13.1665 29.9529 13.2597C30.2378 13.3525 30.5475 13.3272 30.814 13.1895C31.0804 13.0517 31.2818 12.8128 31.3738 12.5253C31.8428 11.0605 31.5496 9.39119 30.4528 8.16588Z" fill="#FF9933"/>
<path d="M16.698 21.1471C16.4994 21.49 16.0615 21.6545 15.7182 21.5116C15.3803 21.3709 15.2743 20.9885 15.4664 20.6521C15.664 20.3175 16.0856 20.1544 16.422 20.289C16.7644 20.4154 16.8874 20.8029 16.698 21.1471ZM14.8918 23.4879C14.3437 24.3708 13.1695 24.7578 12.2848 24.3501C11.4134 23.9498 11.1562 22.9235 11.7053 22.0627C12.2466 21.2055 13.3812 20.8231 14.259 21.1945C15.1468 21.5768 15.4309 22.5958 14.8918 23.4879ZM16.952 17.2381C14.2544 16.5294 11.2054 17.8867 10.0339 20.2863C8.8406 22.7332 9.99475 25.4495 12.7192 26.3379C15.5424 27.2567 18.8697 25.8489 20.0266 23.2071C21.168 20.625 19.7434 17.9666 16.952 17.2381ZM49.3325 9.24694C51.0744 9.23132 52.7212 9.0631 54.276 8.74367L54.3521 9.68954C52.6343 9.90234 51.1828 10.0421 49.9986 10.1073L49.2383 12.9679H53.8358L53.6145 13.803H51.8129L50.1056 20.2371H49.1736L50.881 13.803H49.017L48.8572 14.4051C48.1907 16.9178 47.0538 18.8748 45.448 20.2743C45.306 20.0062 45.153 19.7442 44.9895 19.4888C46.3782 18.3343 47.3739 16.6278 47.9739 14.3674L49.3325 9.24694ZM45.3824 16.1604C45.6608 16.7243 45.9199 17.2978 46.1592 17.8798L45.2103 18.4203C45.0176 17.8116 44.7844 17.2167 44.5124 16.6397L45.3824 16.1604ZM42.5724 9.61555H45.2928C45.192 9.24882 45.0832 8.88441 44.9663 8.5226L45.8701 8.15445C46.0189 8.57178 46.1505 8.99324 46.2634 9.41929L45.7904 9.61555H48.4661L48.2571 10.401H42.3639L42.5724 9.61555ZM41.4146 12.4647H43.4416C43.2317 11.9122 43.0213 11.437 42.8119 11.0403L43.6159 10.5734C43.8062 10.9011 44.0393 11.3634 44.3184 11.9609L43.4739 12.4647H45.1352C45.7418 11.8457 46.3324 11.2109 46.9063 10.561L47.6698 11.0523C47.1638 11.5311 46.6505 12.0019 46.13 12.4647H48.039L47.8301 13.2501H41.2061L41.4146 12.4647ZM41.1569 14.7609H43.7257L44.0348 13.5944H44.9422L44.6321 14.7609H47.1007L46.8913 15.5463H44.4236L43.5722 18.7512C43.3428 19.6189 42.7991 20.0528 41.9427 20.0528C41.5826 20.0528 41.176 20.0491 40.7248 20.0408C40.7631 19.7701 40.7986 19.4594 40.8337 19.1078C41.3076 19.157 41.6832 19.1809 41.961 19.1809C42.3543 19.1809 42.6079 18.9732 42.719 18.5554L43.5162 15.5468H40.9479L41.1569 14.7609ZM41.7716 16.0988L42.5237 16.4917C41.8795 17.3483 41.2084 18.1838 40.5113 18.9971C40.3064 18.8495 40.0683 18.7015 39.7974 18.5549C40.3738 17.9331 41.0313 17.1145 41.7716 16.0988ZM65.1916 10.4631H59.7509L59.3539 11.9605H64.7945L65.1916 10.4631ZM64.1849 14.2571L64.5847 12.7469H59.1444L58.7442 14.2571H64.1849ZM65.0044 15.4847L65.4197 16.2463C64.5277 16.7298 63.5097 17.228 62.3642 17.7451C63.0153 18.3918 63.9309 18.833 65.1101 19.0701C64.8505 19.2912 64.5314 19.6074 64.154 20.0165C61.7546 19.3128 60.3883 17.6637 60.0527 15.0679H58.5284L57.4949 18.9603C58.4938 18.6419 59.4819 18.2898 60.4575 17.9046C60.3236 18.3467 60.2358 18.6942 60.1939 18.9483C59.1745 19.276 58.1542 19.6401 57.133 20.0408C56.8887 20.1466 56.6483 20.2612 56.4122 20.3846L56.0608 19.5256C56.3134 19.3955 56.4878 19.1529 56.5812 18.8013L59.0087 9.65369H62.1939C62.1132 9.25664 62.016 8.86317 61.9026 8.47434L62.876 8.13055C63.0216 8.63208 63.1433 9.14038 63.2407 9.65369H66.3635L64.8342 15.4126H63.8771L63.9691 15.0679H61.0216C61.1682 15.8455 61.4468 16.5377 61.8566 17.1435C62.8605 16.6839 63.9099 16.1319 65.0044 15.4847ZM56.4892 8.42424C56.9959 8.91465 57.56 9.51397 58.1788 10.2172C57.8186 10.504 57.504 10.7572 57.2354 10.9778C56.5561 10.1193 56.0334 9.49283 55.6678 9.09987L56.4892 8.42424ZM55.1666 11.6052C55.6815 12.0391 56.2711 12.5956 56.9395 13.2754C56.5379 13.6192 56.2233 13.8853 55.9975 14.0728C55.269 13.2469 54.7186 12.6618 54.348 12.3171L55.1666 11.6052ZM55.4548 15.215C55.7516 15.3625 56.0498 15.5017 56.3517 15.6323C55.4316 17.2616 54.5524 18.8206 53.7119 20.3106L52.7144 19.9434C53.5886 18.5756 54.5028 16.9996 55.4548 15.215ZM78.557 11.4457H77.0463L76.9771 11.5615C76.5442 13.24 76.3957 14.7098 76.5314 15.9696C77.1693 14.9553 77.8445 13.4468 78.557 11.4457ZM77.7684 8.25281L78.5848 8.40034C78.2615 9.13286 77.9125 9.85352 77.5385 10.561H80.2529L80.018 11.4462H79.4134C78.6139 13.7915 77.717 15.6479 76.7199 17.0139C76.9603 17.9271 77.386 18.7066 77.9938 19.3537C77.7247 19.6727 77.4648 19.988 77.2152 20.2987C76.6554 19.5959 76.2427 18.7856 76.0024 17.917C75.2712 18.7723 74.4043 19.5955 73.4022 20.3851C73.2812 20.1183 73.1431 19.8598 72.9888 19.6111C74.1279 18.7682 75.0667 17.8876 75.8061 16.9716C75.6381 15.8331 75.69 14.5586 75.9655 13.1458C75.7465 13.462 75.5234 13.7663 75.2939 14.0613C75.1721 13.8334 75.0265 13.6192 74.8596 13.4225C75.9691 12.0225 76.9389 10.2994 77.7684 8.25281ZM70.7033 12.3783L71.5023 9.37012H72.3077L71.7299 11.5436H72.7634L73.5916 8.4247H74.4221L73.5943 11.5436H74.6269L75.207 9.35817H76.0137L75.1077 12.7726H74.3014L74.4048 12.3792H70.7033V12.3783ZM70.6646 13.4712H74.6693L74.4407 14.3307H70.4369L70.6646 13.4712ZM72.5722 16.2959H70.91L70.7606 16.8608C70.3695 18.3339 69.6679 19.3813 68.6531 20.0041C68.5536 19.7336 68.4344 19.4709 68.2966 19.2181C69.0729 18.7921 69.6206 17.9744 69.9429 16.762L70.288 15.4604H73.6376L73.0708 17.5966C73.6174 17.2177 74.1601 16.8332 74.6989 16.443C74.6802 16.8029 74.667 17.1173 74.6615 17.388C74.0093 17.8142 73.3674 18.2565 72.7366 18.7144C72.5062 18.8863 72.294 19.0495 72.1019 19.2053L71.6671 18.4198C71.9526 18.1987 72.1456 17.9046 72.2435 17.5355L72.5722 16.2959ZM67.5067 11.5188C68.8416 10.4713 69.9184 9.40275 70.7365 8.31348L71.4044 8.74367C70.2796 10.1446 68.9862 11.3984 67.554 12.4761C67.5462 12.1567 67.5304 11.8375 67.5067 11.5188ZM66.3935 15.4728C67.6287 14.3927 68.7733 13.1201 69.8241 11.6539L70.5548 12.0345C70.094 12.6489 69.612 13.247 69.1098 13.8274L67.3983 20.2734H66.5415L67.9119 15.1161C67.449 15.5849 66.9646 16.0317 66.4604 16.455C66.4463 16.1271 66.424 15.7996 66.3935 15.4728ZM91.5523 9.64083C91.1046 9.36121 90.6442 9.10278 90.1727 8.86639L90.7282 8.23994C91.2034 8.45839 91.6697 8.69605 92.1259 8.95233L91.5523 9.64083ZM90.7573 12.0225H88.4026L88.184 12.8452H90.5379L90.7573 12.0225ZM87.767 14.4171H90.1217L90.343 13.5815H87.9887L87.767 14.4171ZM84.9479 12.8448H87.278L87.4961 12.0221H85.1673L84.9479 12.8448ZM84.5313 14.4171H86.8601L87.0813 13.5815H84.7525L84.5313 14.4171ZM83.2009 18.0512L83.9312 17.4376C84.4191 17.8101 84.8842 18.2121 85.3239 18.6413L84.5467 19.2912C84.1247 18.8494 83.6752 18.4352 83.2009 18.0512ZM89.747 15.8285L89.926 15.1534H87.5708L87.3636 15.9388H86.4562L86.6657 15.1534H84.336L84.091 16.0744H83.1836L84.4616 11.2605H87.6992L87.9145 10.4493H84.0605L84.2695 9.66381H88.1221L88.5005 8.23948H89.4074L89.0295 9.66381H93.0588L92.8494 10.4493H88.8196L88.6034 11.2605H91.865L90.654 15.8281H89.747V15.8285ZM82.1028 16.5896H88.5638L88.7522 15.8782H89.6833L89.4948 16.5896H91.5222L91.3132 17.3756H89.2858L88.9116 18.7889C88.6653 19.7136 88.0402 20.1764 87.0317 20.1764C86.5532 20.1764 85.9636 20.1668 85.262 20.1511C85.2975 19.8892 85.3285 19.5867 85.3526 19.242C86.0178 19.2995 86.6142 19.3284 87.1428 19.3284C87.6054 19.3284 87.8949 19.1074 88.0115 18.6652L88.3548 17.3751H81.8938L82.1028 16.5896ZM80.3148 11.7031H81.5869L82.5057 8.23994H83.4386L82.5184 11.7031H83.7277L83.4932 12.5874H82.284L80.2302 20.324H79.2986L81.3524 12.5874H80.0808L80.3148 11.7031ZM45.8869 23.7793L42.8938 28.8924H42.179L41.9182 25.0951L39.746 28.8924H39.0207L38.671 23.7793H39.5566L39.7824 27.5908L41.9746 23.7793H42.6193L42.882 27.6064L45.1748 23.7793H45.8869ZM50.1498 25.814C50.2171 25.5267 50.234 25.2726 50.1953 25.0496C50.1561 24.8277 50.0414 24.6374 49.8515 24.4806C49.6608 24.323 49.4022 24.244 49.0757 24.244C48.6373 24.244 48.2275 24.3874 47.8465 24.67C47.4654 24.9536 47.1927 25.3346 47.0283 25.814H50.1498ZM49.786 27.3679L50.5677 27.5196C50.3023 27.9567 49.9139 28.3184 49.4026 28.6038C48.8989 28.8887 48.3306 29.0369 47.7531 29.034C46.9769 29.034 46.4146 28.7881 46.0654 28.2963C45.7157 27.8045 45.6465 27.1611 45.8578 26.3627C46.0745 25.5488 46.4984 24.8915 47.1298 24.3901C47.7613 23.8878 48.4543 23.6363 49.2073 23.6363C49.9499 23.6363 50.4871 23.8685 50.8149 24.3308C51.1437 24.7927 51.1924 25.4849 50.9574 26.4059H46.8316C46.6258 27.179 46.6673 27.7002 46.955 27.9705C47.2341 28.2371 47.6056 28.3828 47.9899 28.3763C48.7138 28.3763 49.3129 28.0394 49.786 27.3679ZM54.3716 21.9818L54.1376 22.8674H53.187L53.421 21.9818H54.3716ZM53.8676 23.7788L52.51 28.8924H51.6267L52.9848 23.7788H53.8676ZM55.6852 26.8872C55.5873 27.4129 55.6651 27.7935 55.9201 28.0307C56.1665 28.264 56.4933 28.3911 56.8311 28.385C57.2818 28.385 57.6925 28.2099 58.0622 27.8583C58.4301 27.5067 58.6964 27.0255 58.859 26.4138C59.0342 25.7547 59.0379 25.2367 58.8708 24.8607C58.7042 24.4834 58.3841 24.2954 57.9111 24.2954C57.5395 24.2954 57.1685 24.4296 56.7992 24.6985C56.4352 24.9586 56.1542 25.3202 55.9906 25.7391L55.6852 26.8872ZM54.6963 28.8924H54.2697L56.1045 21.9818H56.9868L56.2839 24.6296C56.8643 23.9682 57.5109 23.6368 58.2234 23.6368C58.8754 23.6368 59.3607 23.8689 59.678 24.3317C59.9963 24.7941 60.0372 25.4665 59.8028 26.349C59.6015 27.1082 59.2164 27.7466 58.6454 28.2614C58.0763 28.7771 57.4439 29.0349 56.7514 29.0349C55.9788 29.0349 55.4743 28.7054 55.2362 28.0477L54.6963 28.8924ZM62.6966 28.3758C63.1459 28.3758 63.5671 28.2085 63.9591 27.8739C64.3529 27.5403 64.642 27.02 64.8296 26.3149C65.0167 25.6067 64.9944 25.0924 64.7604 24.773C64.5264 24.4554 64.1968 24.2954 63.7679 24.2954C63.3294 24.2954 62.9156 24.4563 62.5254 24.7785C62.1366 25.1007 61.8488 25.6113 61.664 26.3094C61.4678 27.0489 61.4796 27.5784 61.6981 27.8969C61.9189 28.2163 62.2504 28.3758 62.6966 28.3758ZM62.4548 29.0335C61.6749 29.0335 61.1359 28.7738 60.8363 28.2531C60.5367 27.7324 60.4912 27.088 60.6947 26.3177C60.9118 25.5033 61.3294 24.8525 61.9495 24.3667C62.5705 23.8795 63.2461 23.6368 63.9768 23.6368C64.7604 23.6368 65.3099 23.8924 65.6254 24.4048C65.9419 24.9164 65.9988 25.5561 65.7953 26.3223C65.5836 27.1197 65.1656 27.771 64.545 28.2766C63.924 28.7817 63.2274 29.0335 62.4548 29.0335ZM67.9333 27.7577L67.6328 28.8924H66.3717L66.6726 27.7577H67.9333ZM73.1523 27.0995L73.9181 27.2259C73.6549 27.7912 73.2884 28.2338 72.8167 28.5537C72.3535 28.8716 71.8052 29.0391 71.2451 29.034C70.4611 29.034 69.9334 28.7729 69.6611 28.2536C69.3884 27.7324 69.352 27.0977 69.5509 26.348C69.7567 25.5718 70.1446 24.9246 70.7156 24.4094C71.2847 23.8951 71.9426 23.6363 72.6888 23.6363C73.3075 23.6363 73.7596 23.8032 74.0446 24.135C74.3287 24.4678 74.4471 24.8975 74.3961 25.4238L73.5616 25.5603C73.6353 24.7173 73.2952 24.2954 72.5404 24.2954C72.0532 24.2954 71.6289 24.4811 71.2678 24.8548C70.9077 25.228 70.6482 25.711 70.4897 26.3044C70.3163 26.9607 70.3117 27.4695 70.4756 27.8312C70.6382 28.1943 70.9578 28.3763 71.429 28.3763C72.1584 28.3763 72.7325 27.9498 73.1523 27.0995ZM76.9261 28.3758C77.3751 28.3758 77.7957 28.2085 78.1887 27.8739C78.5807 27.5403 78.8698 27.02 79.0573 26.3149C79.2458 25.6067 79.2226 25.0924 78.9881 24.773C78.755 24.4554 78.4245 24.2954 77.9974 24.2954C77.5576 24.2954 77.1447 24.4563 76.7545 24.7785C76.3657 25.1007 76.0788 25.6113 75.8922 26.3094C75.696 27.0489 75.7078 27.5784 75.9268 27.8969C76.1467 28.2163 76.4781 28.3758 76.9261 28.3758ZM76.6826 29.0335C75.9027 29.0335 75.3641 28.7738 75.0649 28.2531C74.7658 27.7324 74.7189 27.088 74.9242 26.3177C75.1396 25.5033 75.5571 24.8525 76.1781 24.3667C76.7982 23.8795 77.4738 23.6368 78.2046 23.6368C78.9881 23.6368 79.5386 23.8924 79.8546 24.4048C80.1705 24.9164 80.2265 25.5561 80.023 26.3223C79.8113 27.1197 79.3943 27.771 78.7728 28.2766C78.1531 28.7817 77.4552 29.0335 76.6826 29.0335ZM88.2769 28.8924H87.4169L88.2614 25.7129C88.3475 25.3856 88.3871 25.1402 88.3812 24.9756C88.373 24.8125 88.2906 24.6622 88.1312 24.5257C87.9728 24.3892 87.772 24.3207 87.5275 24.3207C87.1915 24.3207 86.8277 24.4609 86.4417 24.7376C86.0547 25.0161 85.7865 25.4417 85.6344 26.0116L84.8695 28.8924H84.015L84.9078 25.5253C85.028 25.0768 84.9925 24.7596 84.8035 24.573C84.7148 24.4835 84.6093 24.4129 84.4931 24.3653C84.3769 24.3177 84.2524 24.2941 84.127 24.2959C83.7518 24.2959 83.3867 24.4397 83.0325 24.7307C82.6845 25.0111 82.436 25.3978 82.324 25.8328L81.5109 28.892H80.6677L82.0254 23.7784H82.7848L82.5244 24.761C83.1467 24.0109 83.8288 23.6373 84.5713 23.6373C84.9802 23.6373 85.2952 23.7563 85.5165 23.9958C85.7364 24.2361 85.8439 24.5239 85.8375 24.8626C86.4439 24.0454 87.1496 23.6373 87.9564 23.6373C88.3425 23.6373 88.6544 23.7365 88.8929 23.9351C89.1301 24.1341 89.2585 24.3634 89.279 24.6213C89.2977 24.8796 89.2444 25.2436 89.121 25.7124L88.2769 28.8924Z" fill="black"/>
</svg>
