<svg width="32" height="32" viewBox="0 0 32 32" fill="none" xmlns="http://www.w3.org/2000/svg">
<path d="M24.0677 15.189C24.7343 13.8917 24.8059 12.6789 24.2616 11.7361C23.6975 10.759 22.5332 10.2031 20.9834 10.1709C19.8454 10.1475 18.5532 10.4066 17.2575 10.9107C17.7041 9.38759 17.56 8.17845 16.8268 7.4452C15.9456 6.56402 14.3714 6.53378 12.394 7.36C10.5502 8.13044 8.52413 9.56555 6.68876 11.4008C3.95537 14.1343 2.13931 17.3048 2.05241 19.4907C2.01812 19.7075 2.00073 19.9242 2.00073 20.1354C2.00073 22.0928 3.37284 23.9098 5.8643 25.2512C8.26278 26.5428 11.4413 27.254 14.8142 27.254C18.1872 27.254 21.3657 26.5428 23.7642 25.2512C26.2556 23.9098 27.6277 22.0928 27.6277 20.1354C27.6278 18.2556 26.3682 16.512 24.0677 15.189Z" fill="#EA533B"/>
<path d="M16.238 26.7794C12.865 26.7794 9.68651 26.0682 7.28803 24.7767C4.79658 23.4352 3.42447 21.6182 3.42447 19.6608C3.42447 19.4496 3.44186 19.2329 3.47615 19.0162C3.56304 16.8302 5.37911 13.6597 8.11255 10.9263C9.92965 9.10925 11.9336 7.68496 13.7625 6.90906C13.333 7.00875 12.8756 7.15876 12.3941 7.35996C10.5503 8.13039 8.52419 9.5655 6.68882 11.4008C3.95537 14.1343 2.13931 17.3048 2.05241 19.4908C2.01812 19.7075 2.00073 19.9242 2.00073 20.1354C2.00073 22.0928 3.37284 23.9098 5.8643 25.2512C8.26278 26.5428 11.4413 27.254 14.8142 27.254C17.4729 27.254 20.0104 26.8118 22.1407 25.9921C20.3403 26.5065 18.3265 26.7794 16.238 26.7794Z" fill="#D93C1C"/>
<path d="M21.916 18.6911C21.7756 17.0742 20.7085 15.6499 18.9113 14.6804C17.1787 13.7457 14.9573 13.3411 12.656 13.541C10.3548 13.7409 8.23627 14.5226 6.69091 15.742C5.0878 17.007 4.2822 18.594 4.42269 20.2108C4.56318 21.8276 5.6303 23.252 7.42755 24.2215C8.8707 25 10.6528 25.4108 12.5379 25.4108C12.916 25.4108 13.2984 25.3942 13.6828 25.3608C15.984 25.161 18.1024 24.3793 19.6478 23.1599C21.251 21.8949 22.0565 20.3079 21.916 18.6911Z" fill="white"/>
<path d="M14.5973 24.8862C14.2129 24.9197 13.8305 24.9362 13.4525 24.9362C11.5673 24.9362 9.78518 24.5254 8.34209 23.7469C6.54489 22.7773 5.47767 21.353 5.33723 19.7362C5.19674 18.1194 6.00228 16.5324 7.60545 15.2674C7.92258 15.0172 8.26421 14.7857 8.62619 14.5736C7.91564 14.898 7.26387 15.2897 6.69091 15.7418C5.0878 17.0068 4.2822 18.5938 4.42269 20.2106C4.56318 21.8274 5.6303 23.2517 7.42755 24.2212C8.8707 24.9998 10.6528 25.4106 12.5379 25.4105C12.916 25.4105 13.2984 25.394 13.6828 25.3606C15.5118 25.2017 17.2249 24.6751 18.6271 23.8535C17.421 24.4041 16.0455 24.7605 14.5973 24.8862Z" fill="#E5E5E5"/>
<path d="M17.6779 18.7184C17.158 16.5559 14.6401 15.3 12.0649 15.919C9.4898 16.5381 7.81784 18.8012 8.33765 20.9639C8.5937 22.0288 9.33055 22.9049 10.4127 23.4306C11.0844 23.7569 11.8401 23.9229 12.6196 23.9229C13.0594 23.9229 13.5067 23.8701 13.9506 23.7634C16.5258 23.1443 18.1979 20.8812 17.6779 18.7184Z" fill="#333333"/>
<path d="M11.7282 22.508C12.6455 22.508 13.3892 21.7643 13.3892 20.8469C13.3892 19.9296 12.6455 19.1859 11.7282 19.1859C10.8108 19.1859 10.0671 19.9296 10.0671 20.8469C10.0671 21.7643 10.8108 22.508 11.7282 22.508Z" fill="white"/>
<path d="M22.4079 8.03357C22.0148 8.03357 21.696 8.35229 21.696 8.74544C21.696 9.13858 22.0148 9.4573 22.4079 9.4573C23.8472 9.4573 25.0181 10.6282 25.0181 12.0675C25.0181 12.4606 25.3368 12.7794 25.73 12.7794C26.1231 12.7794 26.4418 12.4606 26.4418 12.0675C26.4418 9.84318 24.6322 8.03357 22.4079 8.03357Z" fill="#FFA929"/>
<path d="M21.9323 3.99988C21.754 3.99988 21.5734 4.00578 21.3955 4.01749C20.8724 4.05189 20.4763 4.50382 20.5106 5.02691C20.545 5.54994 20.9973 5.94588 21.52 5.91175C21.6567 5.90278 21.7954 5.89819 21.9323 5.89819C25.3342 5.89819 28.1018 8.66581 28.1018 12.0677C28.1018 12.4836 28.0603 12.8991 27.9784 13.3026C27.902 13.6785 28.0708 14.0796 28.3927 14.2883C28.7203 14.5007 29.1644 14.4845 29.4771 14.2514C29.6624 14.1133 29.7928 13.9065 29.8388 13.6802C29.9459 13.1527 30.0001 12.6102 30.0001 12.0676C30.0001 7.61915 26.3809 3.99988 21.9323 3.99988Z" fill="#FFA929"/>
<path d="M14.8132 20.1355C15.3374 20.1355 15.7623 19.7105 15.7623 19.1863C15.7623 18.6621 15.3374 18.2372 14.8132 18.2372C14.289 18.2372 13.864 18.6621 13.864 19.1863C13.864 19.7105 14.289 20.1355 14.8132 20.1355Z" fill="white"/>
</svg>
