<svg width="121" height="32" viewBox="0 0 121 32" fill="none" xmlns="http://www.w3.org/2000/svg">
<path fill-rule="evenodd" clip-rule="evenodd" d="M9.01064 13.2924C14.2791 11.4499 15.1758 6.65039 14.5032 2.23757C14.5032 2.07835 14.6378 1.96462 14.7723 2.01011C19.8165 4.51222 25.4885 9.97137 25.4885 18.1601C25.4885 24.4381 20.6908 29.9883 13.7186 29.9883C11.2307 30.103 8.77596 29.3739 6.74184 27.916C4.70772 26.458 3.21006 24.3543 2.48524 21.9368C1.76042 19.5193 1.84971 16.9258 2.73904 14.5655C3.62836 12.2052 5.26706 10.2127 7.39649 8.90229C7.531 8.8113 7.71035 8.90229 7.71035 9.06151C7.77761 9.90313 8.0018 12.0186 8.92097 13.2924H9.01064Z" fill="url(#paint0_linear_109_5305)"/>
<path fill-rule="evenodd" clip-rule="evenodd" d="M40.3289 25.0069L40.7101 24.5519L41.8983 28.3734L41.7413 28.5326C40.8446 29.3742 39.4994 29.8064 37.7732 29.8064H37.7059C36.1366 29.8064 34.9036 29.3515 34.0517 28.5098C33.1998 27.6455 32.7514 26.3489 32.7514 24.7112V14.2933H29.7249V10.0852H32.7514V5.01274H37.4145V10.0852H41.1136V14.2933H37.3921V23.6876C37.3921 24.1198 37.5042 25.5073 38.8045 25.5073C39.477 25.5073 40.1048 25.2571 40.3289 24.9841V25.0069ZM42.795 29.3742V10.1079H47.4581V29.3742H42.795ZM45.1041 2.23767C45.6574 2.23769 46.1984 2.40389 46.6587 2.71532C47.119 3.02675 47.4782 3.46948 47.691 3.9877C47.9037 4.50593 47.9605 5.07645 47.8542 5.62737C47.7479 6.17829 47.4832 6.68494 47.0935 7.08347C46.7038 7.48201 46.2066 7.75459 45.6645 7.86685C45.1224 7.97912 44.5596 7.92604 44.0472 7.71432C43.5347 7.50261 43.0955 7.14171 42.7849 6.67714C42.4743 6.21256 42.3062 5.66509 42.3018 5.10372C42.3018 3.55697 43.5797 2.23767 45.1041 2.23767ZM59.9902 9.63027C64.0256 9.63027 66.2451 11.8594 66.2451 15.931V29.3514H61.582V17.0684C61.4923 14.8847 60.461 13.8839 58.264 13.8839C56.2911 13.8839 54.6994 15.1122 53.8923 16.1585V29.3514H49.2292V10.1307H53.8923V12.1779C55.2374 10.8586 57.3897 9.67576 59.9902 9.67576V9.63027ZM81.7589 12.1096V3.05654H86.422V29.3969H81.7589V27.3953C81.0453 28.1588 80.1869 28.7681 79.2353 29.1864C78.2837 29.6046 77.2585 29.8233 76.2214 29.8291C71.1324 29.8291 67.7247 25.7803 67.7247 19.7524C67.7247 13.7019 71.1324 9.65302 76.2214 9.65302C77.2607 9.65783 78.2881 9.87824 79.2404 10.3007C80.1927 10.7232 81.0497 11.3388 81.7589 12.1096ZM81.7589 16.1813C81.2392 15.4945 80.5751 14.934 79.815 14.5405C79.0549 14.147 78.2178 13.9305 77.3648 13.9066C74.4728 13.9066 72.5448 16.2495 72.5448 19.7524C72.5448 23.2327 74.4728 25.5755 77.3648 25.5755C79.0462 25.5755 80.8846 24.6657 81.7589 23.3464V16.1813ZM97.3175 9.65302C102.833 9.65302 106.666 13.9748 106.666 20.1164V21.4129H92.5648C93.0355 24.1198 95.1429 25.8485 98.0125 25.8485C99.8284 25.8485 101.824 25.0524 102.967 23.8923L103.281 23.6193L105.5 26.8493L105.276 27.0541C103.175 28.9439 100.437 29.938 97.6314 29.8291C91.8025 29.8291 87.6999 25.6665 87.6999 19.7297C87.6545 18.419 87.8707 17.1124 88.3354 15.8886C88.8001 14.6647 89.5037 13.5487 90.4041 12.6076C91.3044 11.6665 92.3829 10.9197 93.5748 10.4119C94.7666 9.90422 96.0473 9.64608 97.34 9.65302H97.3175ZM92.5423 17.8417H102.115C101.846 14.9529 99.4922 13.6336 97.3175 13.6336C94.0444 13.6336 92.8114 16.1358 92.5423 17.8645V17.8417ZM117.943 9.65302H118.279V14.4298L117.876 14.3615C117.539 14.2933 117.113 14.2478 116.687 14.2478C115.185 14.2478 113.1 15.3169 112.316 16.4542V29.3514H107.653V10.1079H112.338V12.2461C113.885 10.6084 115.925 9.65302 117.943 9.65302Z" fill="#424242"/>
<defs>
<linearGradient id="paint0_linear_109_5305" x1="2350.85" y1="2" x2="-406.487" y2="2315.05" gradientUnits="userSpaceOnUse">
<stop stop-color="#FF7854"/>
<stop offset="1" stop-color="#FD267D"/>
</linearGradient>
</defs>
</svg>
