<svg width="32" height="32" viewBox="0 0 32 32" fill="none" xmlns="http://www.w3.org/2000/svg">
<path d="M11.2005 13.3028C11.1593 13.3028 11.1319 13.3028 11.1045 13.2749C10.1719 12.0221 9.93877 9.8645 9.88392 9.04321C9.8702 8.88313 9.69192 8.79961 9.55477 8.87617C6.67477 10.5118 4.00049 14.3955 4.00049 18.14C4.00049 24.592 8.40963 30 16.0005 30C23.1113 30 28.0005 24.4319 28.0005 18.147C28.0005 9.92714 22.2199 4.48436 17.0702 2.02049C16.9331 1.95089 16.7822 2.06921 16.7959 2.21538C17.4679 6.64894 16.5491 11.4584 11.1936 13.3167L11.2005 13.3028Z" fill="url(#paint0_radial_109_5425)"/>
<defs>
<radialGradient id="paint0_radial_109_5425" cx="0" cy="0" r="1" gradientUnits="userSpaceOnUse" gradientTransform="translate(16.0005 30) scale(24 28)">
<stop stop-color="#FF7854"/>
<stop offset="1" stop-color="#FD267D"/>
</radialGradient>
</defs>
</svg>
