<svg width="94" height="32" viewBox="0 0 94 32" fill="none" xmlns="http://www.w3.org/2000/svg">
<path d="M91.2899 15.9257C90.5718 15.7065 89.853 15.7065 89.0983 15.7065C86.0784 15.7065 84.3873 17.9164 84.3873 21.6068V29.5637H77.9221V10.7177H83.8161V14.1903H83.8847C85.0013 11.8005 86.6189 10.2815 89.4217 10.2815C90.1756 10.2815 90.9681 10.3886 91.612 10.5006L91.2899 15.9257Z" fill="#FF0082"/>
<path d="M56.4878 2.42986H62.9579V18.6388H63.0279L68.4201 10.7178H75.4991L68.9954 19.3662L76.0375 29.5652H68.2044L63.0279 20.2314H62.9579V29.5645H56.4878V2.42986ZM53.1804 16.1062C51.9937 15.3853 50.8116 15.0599 49.2653 15.0599C46.4603 15.0599 44.3044 17.015 44.3044 20.2692C44.3044 23.268 46.8188 25.2217 49.6237 25.2217C51.0979 25.2217 52.5706 24.8984 53.6501 24.3194L53.7928 29.1662C52.1773 29.7081 50.2347 30 48.5079 30C42.3269 30 37.6193 26.3795 37.6193 20.1579C37.6193 13.8978 42.3275 10.2816 48.5086 10.2816C50.4503 10.2816 52.1766 10.6114 53.6501 11.3339L53.1804 16.1062ZM29.1088 29.5631H35.5747V10.7171H29.1088V29.5631ZM29.1088 7.6433H35.5747V2.86514H29.1088V7.6433ZM19.4671 29.5638H25.9377V2.42986H19.4671V29.5638ZM5.808 15.2719H2V10.7171H5.91704V9.56191C5.91704 3.95449 8.54065 2 13.7154 2C15.1174 2 16.1962 2.21773 17.0221 2.36055L16.625 6.84747C16.0875 6.66614 15.5486 6.55483 14.5755 6.55483C12.9234 6.55483 12.2795 7.71349 12.2795 9.56139V10.7171H16.8784V15.2719H12.2795V29.5638H5.808V15.2719Z" fill="#005FDD"/>
</svg>
