<svg width="104" height="32" viewBox="0 0 104 32" fill="none" xmlns="http://www.w3.org/2000/svg">
<path d="M60.1374 14.7964H58.8669L56.5535 17.1745V12.4182H55.5763V20.5298H56.5535V17.8583L59.1926 20.4963L59.225 20.5287H60.3973V20.4305L57.4325 17.498L60.1363 14.7941L60.1374 14.7964ZM53.8519 19.141C53.4927 19.4991 52.9718 19.6943 52.3862 19.6943C51.3756 19.6943 50.3661 19.0752 50.3661 17.6419C50.3661 16.4372 51.2138 15.5894 52.3862 15.5894C52.9071 15.5894 53.3956 15.7847 53.7872 16.1438L53.8195 16.1762L54.4386 15.5248L54.4062 15.4924C53.8195 14.9391 53.1357 14.6792 52.3538 14.6792C50.5613 14.6792 49.3566 15.8839 49.3566 17.6441C49.3566 19.6965 50.8547 20.609 52.3538 20.609H52.3862C53.1681 20.609 53.9177 20.3156 54.4386 19.7612L54.4709 19.7289L53.8195 19.0775L53.8519 19.1422V19.141ZM47.2049 17.8705C47.2049 18.9124 46.4888 19.6943 45.4782 19.7278C44.4029 19.7278 43.7515 19.0763 43.7515 17.9687V14.8086H42.7743V17.9687C42.7743 19.5973 43.7515 20.6402 45.283 20.6402H45.3153C46.0649 20.6402 46.7487 20.281 47.2049 19.7278L47.2372 19.6631L47.2696 20.5432H48.1809V14.8097H47.2038V17.8717L47.2049 17.8705ZM37.554 12.3859H34.5892V20.5309H37.554C40.3884 20.5309 41.6265 18.4461 41.6265 16.3937C41.6265 14.4718 40.356 12.387 37.554 12.387V12.3859ZM40.6159 16.3602C40.6159 17.9241 39.6712 19.4879 37.5864 19.4879H35.6321V13.3954H37.5552C39.6399 13.3954 40.6171 14.9269 40.6171 16.3602H40.6159ZM91.3432 16.9782H93.8519V18.8678C93.2328 19.3887 92.4832 19.682 91.6689 19.682C89.4536 19.682 88.4442 18.0858 88.4442 16.522C88.4442 14.9581 89.4548 13.199 91.6366 13.199C92.5167 13.199 93.3309 13.5248 93.9824 14.1115L94.0147 14.1438L94.6014 13.4601L94.5691 13.4277C93.7872 12.6458 92.7453 12.2554 91.6042 12.2554C90.3661 12.2554 89.3231 12.6458 88.5747 13.4277C87.7927 14.2096 87.3689 15.3173 87.4023 16.5554C87.4023 18.4773 88.51 20.6926 91.6377 20.6926H91.7035C92.8736 20.6971 93.9879 20.1985 94.7654 19.324V16.0992H91.312V16.9793H91.3443L91.3432 16.9782ZM64.3036 12.3859H61.3388V20.5309H64.3036C67.138 20.5309 68.3761 18.4461 68.3761 16.3937C68.3761 14.4718 67.1056 12.387 64.3036 12.387V12.3859ZM67.3655 16.3602C67.3655 17.9241 66.4207 19.4879 64.336 19.4879H62.414V13.3954H64.336C66.3884 13.3954 67.3655 14.9269 67.3655 16.3602ZM98.7799 14.6781C97.0532 14.6781 95.8151 15.9486 95.8151 17.6753C95.8151 19.4021 97.0532 20.6402 98.7799 20.6402C100.507 20.6402 101.777 19.4021 101.777 17.6753C101.777 15.9486 100.539 14.6781 98.7799 14.6781ZM100.8 17.6753C100.8 18.8811 99.9534 19.7278 98.7799 19.7278C97.6065 19.7278 96.7922 18.8811 96.7922 17.6753C96.7922 16.4695 97.6065 15.5582 98.8123 15.5582C99.9534 15.5906 100.8 16.4695 100.8 17.6753ZM73.9545 17.8705C73.9545 18.9124 73.2384 19.6943 72.2278 19.7278C71.1525 19.7278 70.501 19.0763 70.501 17.9687V14.8086H69.5239V17.9687C69.5239 19.5973 70.501 20.6402 71.9991 20.6402H72.0315C72.781 20.6402 73.4648 20.281 73.921 19.7278L73.9534 19.6631L73.9857 20.5432H74.897V14.8097H73.9199V17.8717H73.9523L73.9545 17.8705ZM80.6003 19.141C80.2423 19.4991 79.7202 19.6943 79.1346 19.6943C78.1251 19.6943 77.1146 19.0752 77.1146 17.6419C77.1146 16.4372 77.9612 15.5894 79.1346 15.5894C79.6555 15.5894 80.1452 15.7847 80.5356 16.1438L80.568 16.1762L81.187 15.5248L81.1547 15.4924C80.568 14.9391 79.8842 14.6781 79.1023 14.6781C77.3098 14.6781 76.1051 15.8828 76.1051 17.643C76.1051 19.6954 77.6031 20.6079 79.1023 20.6079H79.1346C79.9166 20.6079 80.6661 20.3145 81.187 19.7601L81.2194 19.7278L80.568 19.0763L80.6003 19.1422V19.141ZM86.887 14.7964H85.6165L83.3031 17.1745V12.4182H82.3259V20.5298H83.3031V17.8583L85.9411 20.4963L85.9734 20.5287H87.1458V20.4305L84.1809 17.498L86.8848 14.7941L86.887 14.7964Z" fill="#4C4C4C"/>
<path fill-rule="evenodd" clip-rule="evenodd" d="M16 30C23.7323 30 30 23.7323 30 16C30 8.26771 23.7323 2 16 2C8.26771 2 2 8.26771 2 16C2 23.7323 8.26771 30 16 30Z" fill="#DE5833"/>
<path fill-rule="evenodd" clip-rule="evenodd" d="M17.9694 26.445C17.9694 26.3357 17.9961 26.3101 17.6481 25.6174C16.7245 23.7668 15.7954 21.1589 16.2181 19.4757C16.2951 19.1701 15.3469 8.15724 14.6777 7.80142C13.9326 7.40543 13.0168 6.7752 12.1802 6.63577C11.7552 6.56773 11.1975 6.60008 10.7625 6.6592C10.6844 6.66924 10.6821 6.80867 10.7558 6.83321C11.0424 6.93025 11.3893 7.09868 11.5946 7.35301C11.6336 7.40097 11.5812 7.47682 11.5198 7.47905C11.3269 7.48575 10.9766 7.56717 10.5148 7.95869C10.4613 8.00443 10.5059 8.0892 10.5751 8.0747C11.5667 7.87838 12.5806 7.97431 13.1785 8.51865C13.2176 8.55323 13.1975 8.61681 13.1473 8.6302C7.96379 10.039 8.99 14.5477 10.3698 20.0803C11.5388 24.7685 12.014 26.435 12.1835 27.0028C12.2114 27.0998 12.2828 27.1768 12.3765 27.2136C14.1925 27.8951 17.9716 27.9085 17.9716 26.7172V26.4439L17.9694 26.445Z" fill="#DDDDDD"/>
<path d="M18.6796 27.4836C18.0504 27.7301 16.8201 27.8394 16.1096 27.8394C15.0677 27.8394 13.5663 27.6754 13.0198 27.4289C12.6818 26.3893 11.6712 23.1679 10.6729 19.0753C10.6405 18.9414 10.6082 18.8076 10.5747 18.6749V18.6715C9.38786 13.8249 8.41854 9.86615 13.7303 8.62243C13.7783 8.61127 13.8017 8.55327 13.7705 8.51423C13.1603 7.79142 12.0192 7.55382 10.5758 8.05243C10.5167 8.07251 10.4654 8.01339 10.5022 7.96208C10.7855 7.57167 11.3388 7.27162 11.6121 7.13999C11.669 7.11322 11.6656 7.02956 11.6054 7.01172C11.3354 6.92694 11.0599 6.86113 10.7799 6.8154C10.6996 6.80201 10.6918 6.6637 10.7732 6.65254C12.8201 6.37814 14.9573 6.99164 16.0304 8.34356C16.0404 8.35583 16.0549 8.36476 16.0705 8.3681C19.998 9.21138 20.2791 15.4189 19.8262 15.7022C19.7359 15.758 19.4514 15.7256 19.0744 15.6832C17.5463 15.5126 14.52 15.1735 17.0175 19.8282C17.0421 19.874 17.0097 19.9353 16.9573 19.9431C15.5496 20.1629 17.3533 24.5745 18.6796 27.4824V27.4836Z" fill="white"/>
<path d="M20.4358 21.8394C20.1369 21.7 18.9868 22.5254 18.2239 23.1579C18.0643 22.9326 17.7643 22.7675 17.0861 22.8857C16.4927 22.9895 16.1647 23.1322 16.0186 23.3788C15.0816 23.024 13.5055 22.4752 13.124 23.0051C12.708 23.584 13.2278 26.3213 13.781 26.6771C14.0699 26.8623 15.4508 25.9755 16.1714 25.3631C16.2874 25.5271 16.4748 25.6208 16.8597 25.6119C17.4419 25.5985 18.3867 25.4624 18.5328 25.1914C18.5429 25.1724 18.5507 25.1534 18.5563 25.1333C19.2969 25.41 20.6009 25.7045 20.8931 25.6598C21.6527 25.5461 20.7872 22.0023 20.4358 21.8394Z" fill="#3CA82B"/>
<path d="M18.2942 23.2393C18.3254 23.295 18.3511 23.3542 18.3723 23.4144C18.4782 23.71 18.65 24.6492 18.5206 24.8823C18.3901 25.1143 17.5446 25.2259 17.0226 25.2348C16.5005 25.2437 16.3834 25.053 16.2786 24.7574C16.1938 24.5209 16.1525 23.9654 16.1536 23.6475C16.1324 23.1757 16.3042 23.0095 17.1018 22.8801C17.6918 22.7853 18.003 22.8957 18.1837 23.0864C19.0214 22.4607 20.418 21.5795 20.5552 21.7401C21.2345 22.5432 21.3204 24.4573 21.1731 25.227C21.1252 25.478 18.8753 24.9771 18.8753 24.7061C18.8753 23.5795 18.5831 23.2705 18.2953 23.2381L18.2942 23.2393ZM13.3661 22.8879C13.5502 22.5968 15.0449 22.9593 15.8647 23.324C15.8647 23.324 15.6952 24.0881 15.9651 24.9872C16.0432 25.2504 14.0778 26.4216 13.8212 26.2197C13.5245 25.9866 12.9791 23.5003 13.3661 22.8868V22.8879Z" fill="#4CBA3C"/>
<path fill-rule="evenodd" clip-rule="evenodd" d="M14.0906 16.9637C14.2111 16.4384 14.7744 15.4478 16.7856 15.4713C17.8028 15.4668 19.0655 15.4713 19.9021 15.3753C20.8558 15.2694 21.7906 15.0418 22.6863 14.6983C23.5574 14.367 23.8664 14.4406 23.9746 14.6391C24.094 14.8578 23.9534 15.2348 23.6489 15.5817C23.0678 16.2443 22.0237 16.7585 20.1776 16.9113C18.3327 17.063 17.1113 16.5689 16.5848 17.3742C16.3572 17.7222 16.5335 18.541 18.3171 18.7986C20.7276 19.1467 22.7075 18.3792 22.9529 18.8433C23.1983 19.3073 21.7883 20.2487 19.3734 20.2688C16.9596 20.2889 15.4504 19.4233 14.9161 18.9939C14.2368 18.4484 13.9334 17.652 14.0906 16.9648V16.9637Z" fill="#FFCC33"/>
<g opacity="0.8">
<path d="M17.1655 11.2147C17.3004 10.9939 17.5983 10.8243 18.0868 10.8243C18.5754 10.8243 18.8052 11.0195 18.9647 11.2359C18.997 11.2794 18.9479 11.3319 18.8978 11.3096L18.8609 11.2939C18.6825 11.2159 18.4627 11.1199 18.0868 11.1144C17.6853 11.1088 17.4309 11.2092 17.2714 11.2962C17.2179 11.3263 17.1331 11.2672 17.1655 11.2147ZM11.6618 11.497C12.1359 11.2984 12.5096 11.3241 12.7728 11.3865C12.8286 11.3988 12.8665 11.3397 12.823 11.304C12.6189 11.1389 12.1604 10.9337 11.5626 11.1556C11.0294 11.3553 10.7784 11.768 10.7773 12.0391C10.7773 12.1038 10.9078 12.1093 10.9424 12.0547C11.0338 11.9074 11.1878 11.6944 11.6618 11.4958V11.497Z" fill="#14307E"/>
<path fill-rule="evenodd" clip-rule="evenodd" d="M18.5009 14.2322C18.0815 14.2322 17.7412 13.8931 17.7412 13.4748C17.7412 13.0565 18.0815 12.7174 18.5009 12.7174C18.9203 12.7174 19.2605 13.0565 19.2605 13.4748C19.2605 13.8931 18.9203 14.2322 18.5009 14.2322ZM19.0363 13.2238C19.0363 13.1156 18.9482 13.0275 18.84 13.0275C18.7318 13.0275 18.6436 13.1156 18.6436 13.2238C18.6436 13.332 18.7318 13.4201 18.84 13.4201C18.9482 13.4201 19.0363 13.332 19.0363 13.2238ZM13.4657 13.9991C13.4657 14.4865 13.0697 14.8814 12.5801 14.8814C12.0915 14.8814 11.6955 14.4876 11.6944 13.9991C11.6944 13.5105 12.0915 13.1156 12.5801 13.1156C13.0686 13.1156 13.4657 13.5105 13.4657 13.9979V13.9991ZM13.2047 13.7057C13.2103 13.5797 13.1121 13.4714 12.9861 13.4659C12.86 13.4603 12.7518 13.5585 12.7463 13.6845C12.7463 13.6923 12.7463 13.699 12.7463 13.7068C12.753 13.8329 12.86 13.931 12.9872 13.9243C13.1054 13.9187 13.1991 13.8239 13.2047 13.7057Z" fill="#14307E"/>
</g>
<path fill-rule="evenodd" clip-rule="evenodd" d="M15.9997 27.7568C22.4939 27.7568 27.7577 22.493 27.7577 15.9989C27.7577 9.50476 22.4939 4.24095 15.9997 4.24095C9.50557 4.24095 4.24176 9.50476 4.24176 15.9989C4.24176 22.493 9.50557 27.7568 15.9997 27.7568ZM15.9997 28.8511C23.0973 28.8511 28.8508 23.0976 28.8508 16C28.8508 8.90241 23.0973 3.14893 15.9997 3.14893C8.90211 3.14893 3.14862 8.90241 3.14862 16C3.14862 23.0976 8.90211 28.8511 15.9997 28.8511Z" fill="white"/>
<path fill-rule="evenodd" clip-rule="evenodd" d="M15.9978 27.5895C22.3994 27.5895 27.5896 22.4004 27.5896 15.9989C27.5896 9.59732 22.4005 4.40602 15.999 4.40602C9.59739 4.40602 4.40609 9.5962 4.40609 15.9978C4.40609 22.3993 9.59627 27.5895 15.9978 27.5895ZM28.8322 15.9978C28.8322 23.0853 23.0865 28.8299 15.999 28.8299C8.91139 28.8299 3.16571 23.0853 3.16571 15.9978C3.16571 8.9102 8.91027 3.16229 15.999 3.16229C23.0876 3.16229 28.8333 8.90909 28.8333 15.9966L28.8322 15.9978Z" fill="white"/>
</svg>
