<svg width="32" height="32" viewBox="0 0 32 32" fill="none" xmlns="http://www.w3.org/2000/svg">
<path d="M16.0007 4.06519C22.5923 4.06519 27.9358 9.40867 27.9358 16.0002C27.9358 22.5917 22.5923 27.9352 16.0007 27.9352C9.40928 27.9352 4.0658 22.5917 4.0658 16.0002C4.0658 9.40867 9.40928 4.06519 16.0007 4.06519Z" fill="#DE5833"/>
<path d="M16.0004 30C23.7324 30 30.0004 23.732 30.0004 16C30.0004 8.26803 23.7324 2 16.0004 2C8.26846 2 2.00043 8.26803 2.00043 16C2.00043 23.732 8.26846 30 16.0004 30ZM16.0004 28.8333C8.91276 28.8333 3.16709 23.0877 3.16709 16C3.16709 8.91234 8.91276 3.16667 16.0004 3.16667C23.0881 3.16667 28.8338 8.91234 28.8338 16C28.8338 23.0877 23.0881 28.8333 16.0004 28.8333Z" fill="#DE5833"/>
<path d="M10.1866 7.94187C10.1843 7.74116 10.3301 7.62878 10.5238 7.55002C10.4351 7.56452 10.3502 7.58671 10.2737 7.62098C10.0718 7.71249 9.92088 8.05898 9.9223 8.22299C10.9025 8.1239 12.3521 8.19245 13.4121 8.50884C13.4903 8.49785 13.5685 8.48686 13.6479 8.47775C12.5907 8.00833 11.3337 7.82707 10.1866 7.94187ZM10.3875 6.73566C10.4096 6.7317 10.432 6.72895 10.4542 6.72522C10.2428 6.75148 10.1312 6.82706 9.97251 6.85309C10.1449 6.86836 10.798 7.17321 11.2084 7.34085C11.2659 7.31899 11.3178 7.29471 11.3601 7.26604C11.1473 7.23462 10.6186 6.75675 10.3875 6.73566ZM11.4068 9.1092C11.348 9.13183 11.2922 9.15545 11.2439 9.18082C9.64602 10.0226 8.94019 11.989 9.36083 14.3451C9.74478 16.4893 11.3185 23.8152 12.039 27.261C12.2494 27.3349 12.4623 27.4036 12.6778 27.4659C12.0361 24.3635 10.2847 16.2342 9.87605 13.9511C9.46179 11.6284 9.86485 9.96179 11.4068 9.1092Z" fill="#D5D7D8"/>
<path d="M17.8726 26.0118C17.8462 26.0293 17.8148 26.0458 17.7813 26.0619C17.7565 26.1581 17.7186 26.231 17.6633 26.2677C17.3333 26.4867 16.4012 26.597 15.909 26.4867C15.8243 26.4679 15.7602 26.4368 15.7101 26.3941C14.8698 26.8606 13.6614 27.4817 13.416 27.3418C13.0326 27.122 12.977 24.2163 13.0326 23.5032C13.0731 22.9649 14.964 23.8368 15.8838 24.2942C16.0871 24.1042 16.5853 23.9771 17.0263 23.934C16.36 22.3124 15.8686 20.4576 16.1698 19.1423C15.7535 18.8521 15.2017 18.1793 15.3166 17.477C15.4051 16.9424 16.7865 15.9311 17.7645 15.87C18.7447 15.8082 19.0503 15.8221 19.8669 15.6266L19.9997 15.5947C20.5024 13.8275 19.2968 10.7529 17.9519 9.40753C17.5135 8.96909 16.8394 8.69314 16.0799 8.54747C15.7878 8.14661 15.3166 7.76332 14.6495 7.40837C13.4109 6.75078 11.8802 6.48306 10.4542 6.72518C10.432 6.72892 10.4096 6.73166 10.3875 6.73562C10.6185 6.75671 11.1472 7.23458 11.36 7.266C11.3177 7.29467 11.2659 7.31895 11.2083 7.34081C11.0086 7.41683 10.7371 7.46297 10.5237 7.54998C10.33 7.62875 10.1842 7.74113 10.1866 7.94183C11.3337 7.82703 12.5906 8.0083 13.6479 8.47771C13.5685 8.48683 13.4902 8.49781 13.412 8.5088C12.6623 8.61426 11.9731 8.80849 11.4753 9.07115C11.4519 9.08334 11.4297 9.09653 11.4067 9.10916C9.86479 9.96175 9.46173 11.6284 9.87599 13.951C10.2847 16.2342 12.0475 24.4894 12.6892 27.5917C13.7441 27.897 14.7305 28.141 15.8838 28.141C16.8628 28.141 18.0404 27.924 18.9509 27.7016C18.6312 27.0849 18.2197 26.4031 17.9662 25.9141C17.9324 25.9544 17.9057 25.9897 17.8726 26.0118ZM18.5178 14.3054C18.0999 14.3054 17.759 13.9655 17.759 13.5452C17.759 13.1269 18.0999 12.7869 18.5178 12.7869C18.938 12.7869 19.2775 13.1269 19.2775 13.5452C19.2777 13.6451 19.2581 13.744 19.22 13.8362C19.1819 13.9285 19.1259 14.0123 19.0554 14.083C18.9848 14.1536 18.901 14.2096 18.8087 14.2477C18.7165 14.2859 18.6176 14.3055 18.5178 14.3054ZM18.9749 11.4483C18.9749 11.4483 18.4963 11.1749 18.1248 11.1795C17.3616 11.1895 17.1537 11.5268 17.1537 11.5268C17.1537 11.5268 17.2818 10.7228 18.2579 10.8841C18.787 10.9721 18.9749 11.4483 18.9749 11.4483ZM10.9274 12.4367C10.9274 12.4367 10.5837 11.6707 11.4998 11.2953C12.4168 10.9198 12.8634 11.509 12.8634 11.509C12.8634 11.509 12.1975 11.2077 11.55 11.6146C10.9036 12.0211 10.9274 12.4367 10.9274 12.4367ZM11.7283 14.0694C11.7282 13.9533 11.751 13.8383 11.7954 13.731C11.8399 13.6238 11.905 13.5263 11.9871 13.4443C12.0692 13.3622 12.1667 13.2971 12.2739 13.2527C12.3812 13.2084 12.4962 13.1856 12.6123 13.1857C12.7283 13.1857 12.8432 13.2085 12.9504 13.253C13.0576 13.2974 13.155 13.3625 13.237 13.4445C13.319 13.5266 13.384 13.624 13.4284 13.7312C13.4728 13.8384 13.4956 13.9533 13.4955 14.0694C13.4955 14.5579 13.1 14.9527 12.6123 14.9527C12.4962 14.9529 12.3812 14.9302 12.2739 14.8859C12.1666 14.8415 12.0691 14.7765 11.987 14.6944C11.9049 14.6124 11.8398 14.5149 11.7954 14.4077C11.751 14.3004 11.7282 14.1854 11.7283 14.0694Z" fill="white"/>
<path d="M13.4955 14.0694C13.4955 13.9534 13.4727 13.8385 13.4284 13.7313C13.384 13.6241 13.3189 13.5266 13.2369 13.4446C13.1549 13.3625 13.0575 13.2974 12.9503 13.253C12.8431 13.2086 12.7282 13.1857 12.6122 13.1857C12.4961 13.1856 12.3812 13.2084 12.2739 13.2528C12.1666 13.2972 12.0691 13.3622 11.987 13.4443C11.9049 13.5264 11.8398 13.6238 11.7954 13.7311C11.751 13.8384 11.7282 13.9533 11.7282 14.0694C11.7281 14.1855 11.7509 14.3005 11.7953 14.4077C11.8397 14.515 11.9048 14.6124 11.9869 14.6945C12.0691 14.7765 12.1666 14.8416 12.2739 14.8859C12.3811 14.9302 12.4961 14.9529 12.6122 14.9528C13.1 14.9528 13.4955 14.5579 13.4955 14.0694ZM13.0035 14.0045C12.9428 14.0042 12.8847 13.9799 12.8418 13.9369C12.799 13.8939 12.7749 13.8356 12.7749 13.7749C12.7749 13.7141 12.7991 13.6559 12.842 13.6129C12.885 13.5699 12.9433 13.5458 13.004 13.5458C13.0648 13.5458 13.1231 13.5699 13.166 13.6129C13.209 13.6559 13.2331 13.7141 13.2331 13.7749C13.2331 13.805 13.2272 13.8349 13.2156 13.8627C13.2041 13.8906 13.1872 13.9159 13.1659 13.9372C13.1446 13.9586 13.1192 13.9755 13.0914 13.987C13.0635 13.9985 13.0337 14.0045 13.0035 14.0045Z" fill="#2D4F8E"/>
<path d="M13.0035 13.5455C12.9427 13.5456 12.8845 13.5698 12.8417 13.6128C12.7988 13.6558 12.7748 13.7141 12.7748 13.7748C12.7748 13.9016 12.878 14.0048 13.0035 14.0044C13.0643 14.0044 13.1227 13.9803 13.1658 13.9372C13.2089 13.8941 13.233 13.8357 13.233 13.7748C13.2331 13.7447 13.2271 13.7149 13.2156 13.687C13.2041 13.6592 13.1871 13.6339 13.1658 13.6125C13.1445 13.5912 13.1192 13.5743 13.0913 13.5628C13.0635 13.5513 13.0336 13.5454 13.0035 13.5455Z" fill="white"/>
<path d="M18.5175 12.7869C18.0996 12.7869 17.7587 13.1269 17.7587 13.5453C17.7587 13.9656 18.0996 14.3055 18.5175 14.3055C18.6173 14.3055 18.7162 14.2859 18.8085 14.2478C18.9007 14.2096 18.9845 14.1536 19.0551 14.083C19.1257 14.0124 19.1816 13.9285 19.2197 13.8362C19.2579 13.744 19.2774 13.6451 19.2773 13.5453C19.2773 13.1269 18.9377 12.7869 18.5175 12.7869ZM18.8544 13.4893C18.7473 13.4893 18.6589 13.4022 18.6589 13.2928C18.6589 13.1848 18.7473 13.0962 18.8544 13.0962C18.9662 13.0962 19.0518 13.1848 19.0518 13.2928C19.0518 13.4022 18.9662 13.4893 18.8544 13.4893Z" fill="#2D4F8E"/>
<path d="M18.8545 13.0962C18.7474 13.0962 18.659 13.1848 18.659 13.2928C18.659 13.4022 18.7474 13.4894 18.8545 13.4894C18.8805 13.4897 18.9062 13.4849 18.9303 13.4751C18.9543 13.4654 18.9762 13.4509 18.9946 13.4326C19.013 13.4143 19.0275 13.3925 19.0374 13.3685C19.0472 13.3445 19.0522 13.3188 19.052 13.2928C19.052 13.1848 18.9663 13.0962 18.8545 13.0962Z" fill="white"/>
<path d="M12.8631 11.509C12.8631 11.509 12.4166 10.9198 11.4995 11.2953C10.5834 11.6707 10.9271 12.4367 10.9271 12.4367C10.9271 12.4367 10.9033 12.0211 11.5497 11.6147C12.1972 11.2077 12.8631 11.509 12.8631 11.509ZM18.2576 10.8841C17.2815 10.7228 17.1534 11.5268 17.1534 11.5268C17.1534 11.5268 17.3613 11.1895 18.1245 11.1795C18.496 11.1749 18.9746 11.4483 18.9746 11.4483C18.9746 11.4483 18.7868 10.9721 18.2576 10.8841Z" fill="url(#paint0_linear_128_2702)"/>
<path d="M17.7644 15.87C16.7864 15.9311 15.405 16.9425 15.3165 17.477C15.2016 18.1793 15.7534 18.8522 16.1697 19.1423L16.1732 19.1448C16.5894 19.4344 19.3609 20.3694 20.736 20.3435C22.1126 20.3167 24.3734 19.4736 24.1252 18.7981C23.878 18.1224 21.6326 19.3943 19.2907 19.1772C17.5563 19.0161 17.2502 18.2391 17.6342 17.6716C18.1173 16.9583 18.9971 17.8069 20.4483 17.3726C21.9017 16.9396 23.9342 16.1645 24.6884 15.7424C26.4321 14.7703 23.9587 14.3671 23.3745 14.6368C22.8207 14.8927 20.8932 15.3791 19.9996 15.5947L19.8668 15.6266C19.0502 15.8221 18.7447 15.8082 17.7644 15.87Z" fill="#FDD209"/>
<path d="M15.5801 24.7322C15.5801 24.631 15.6615 24.5415 15.7907 24.4651C15.7944 24.4037 15.8278 24.3466 15.8838 24.2942C14.964 23.8369 13.0731 22.965 13.0326 23.5033C12.977 24.2163 13.0326 27.122 13.416 27.3418C13.6614 27.4818 14.8698 26.8607 15.7101 26.3941C15.4676 26.1875 15.5801 25.6859 15.5801 24.7322ZM17.954 25.9094L17.9662 25.9141C18.7192 26.2047 20.218 26.7517 20.5435 26.6323C20.9824 26.4645 20.8725 22.9573 20.38 22.8455C19.9854 22.758 18.4747 23.8224 17.8804 24.256C17.9855 24.6999 18.1128 25.5792 17.954 25.9094Z" fill="#65BC46"/>
<path d="M16.118 26.2307C15.6242 26.1213 15.7892 25.6273 15.7892 24.4762C15.7892 24.4725 15.7903 24.4689 15.7905 24.4651C15.6614 24.5415 15.58 24.631 15.58 24.7322C15.58 25.6859 15.4675 26.1875 15.7099 26.3941C15.76 26.4368 15.8242 26.4679 15.9089 26.4867C16.401 26.597 17.3331 26.4867 17.6631 26.2678C17.7184 26.2311 17.7563 26.1581 17.7811 26.0619C17.3949 26.2469 16.5701 26.3336 16.118 26.2307Z" fill="#43A244"/>
<path d="M15.8837 24.2942C15.8276 24.3466 15.7942 24.4037 15.7906 24.4651C15.7904 24.4689 15.7893 24.4725 15.7893 24.4762C15.7893 25.6273 15.6243 26.1213 16.1181 26.2307C16.5701 26.3336 17.3949 26.2469 17.7812 26.0619C17.8147 26.0458 17.8461 26.0294 17.8725 26.0118C17.9056 25.9897 17.9322 25.9544 17.9539 25.9094C18.1126 25.5792 17.9854 24.6999 17.8803 24.256C17.8571 24.1583 17.8351 24.0814 17.8174 24.0364C17.7721 23.9241 17.4226 23.8952 17.0262 23.934C16.5852 23.9772 16.087 24.1043 15.8837 24.2942Z" fill="#65BC46"/>
<defs>
<linearGradient id="paint0_linear_128_2702" x1="586.761" y1="168.26" x2="10.864" y2="168.26" gradientUnits="userSpaceOnUse">
<stop stop-color="#394A9F"/>
<stop offset="1" stop-color="#6176B9"/>
</linearGradient>
</defs>
</svg>
