<svg width="82" height="32" viewBox="0 0 82 32" fill="none" xmlns="http://www.w3.org/2000/svg">
<path d="M47.9593 17.0929C47.8515 17.2561 47.7829 17.3673 47.7087 17.4756C47.0117 18.4801 46.228 19.3974 45.1615 20.0319C43.7311 20.8817 42.1804 21.232 40.5653 20.8803C39.7367 20.6988 38.9642 20.2331 38.1832 19.8603C38.0027 19.7745 37.9047 19.7731 37.7451 19.8673C37.0747 20.2641 36.4239 20.7101 35.7143 21.0182C34.4561 21.5654 33.1307 21.8736 31.7605 21.5092C30.9012 21.2813 30.1594 20.7945 29.4876 20.2092C29.0118 19.7942 28.981 19.7942 28.4981 20.1937C27.6304 20.9112 26.6283 21.3741 25.58 21.7568C24.2798 22.2309 22.9376 22.5221 21.566 22.6586C19.8921 22.8246 18.34 22.539 17.2077 21.156C16.2994 20.0474 16.0572 18.7615 16.6129 17.4264C17.2217 15.9632 17.9243 14.5394 18.5849 13.0974C18.9292 12.3461 19.2763 11.5962 19.6108 10.8407C19.6724 10.7014 19.6961 10.5396 19.7031 10.3863C19.7157 10.1049 19.7731 9.79678 19.4498 9.62655C19.1195 9.4535 18.729 9.48445 18.4855 9.79397C18.1818 10.1795 17.9117 10.6029 17.6863 11.0405C16.9362 12.4868 16.2112 13.9471 15.4792 15.4033C14.9306 16.495 14.3917 17.5924 13.8389 18.6813C13.3141 19.714 12.3288 20.1079 11.2595 19.7055C10.8998 19.5691 10.6745 19.3032 10.6129 18.8966C10.5275 18.3212 10.715 17.8048 10.918 17.2899C11.3616 16.1616 11.8109 15.0361 12.2546 13.9077C12.4925 13.3028 12.7304 12.6978 12.953 12.0872C13.1097 11.6609 13.1559 11.2079 12.974 10.7886C12.8326 10.4651 12.5555 10.2315 12.1664 10.2667C11.7409 10.3047 11.4064 10.5284 11.2455 10.9251C10.6814 12.325 10.1398 13.7347 9.58558 15.1388C8.92218 16.8186 8.26857 18.504 7.57718 20.1726C7.32106 20.7888 6.93477 21.3516 6.28537 21.6147C5.95647 21.7483 5.58418 21.8314 5.23009 21.837C4.12442 21.851 3.1713 21.481 2.5191 20.537C1.99986 19.7899 1.87389 18.9557 2.12442 18.0721C2.35675 17.2547 2.58768 16.4373 2.83121 15.6241C3.06214 14.8532 3.30566 14.085 3.54499 13.3168C3.76752 12.6007 3.97606 11.879 4.21819 11.1699C4.69405 9.77286 5.07753 8.33502 5.83051 7.05334C6.34555 6.17684 7.1811 5.70272 8.13841 5.40868C9.13911 5.10198 9.99286 5.48746 10.8466 5.91516C11.1713 6.07695 11.4904 6.25 11.8235 6.39069C12.2882 6.58625 12.7108 6.46244 13.0859 6.15574C13.3924 5.90531 13.7017 5.65348 13.9845 5.37632C14.6912 4.68272 16.2168 4.55469 16.9628 5.36084C17.1349 5.54655 17.3379 5.70272 17.5268 5.87155C17.9173 6.21764 18.0782 6.25422 18.5303 5.99676C19.6052 5.38758 20.7178 5.47199 21.8109 5.8617C22.4449 6.08821 22.8256 6.63127 23.0677 7.27281C23.4246 8.21825 23.2749 9.12991 22.918 10.0191C22.2602 11.6539 21.5436 13.2634 20.9026 14.9038C20.5219 15.8774 20.2014 16.8777 19.9271 17.8864C19.8151 18.2972 19.8151 18.7854 19.9187 19.1976C20.0754 19.8223 20.6451 20.0277 21.2217 20.1009C22.0992 20.212 22.96 20.0488 23.7997 19.8153C24.5177 19.6169 25.2245 19.3707 25.9257 19.116C26.2644 18.9936 26.5793 18.8051 26.9026 18.6391C27.1783 18.4984 27.2007 18.293 27.0551 18.0341C26.7584 17.5066 26.4449 16.986 26.1832 16.4401C25.629 15.2865 25.1741 14.0962 25.2959 12.7822C25.4022 11.6314 25.8151 10.6311 26.8718 10.0261C28.4309 9.13273 29.6975 9.37893 30.8438 10.7141C31.8347 11.8691 32.1622 13.2591 31.7367 14.749C31.4988 15.5819 31.1573 16.3867 30.8326 17.1928C30.743 17.4165 30.7948 17.5586 30.9348 17.6895C31.5912 18.3057 32.34 18.7854 33.1713 19.1245C33.4848 19.2525 33.8165 19.3482 34.1482 19.4157C34.862 19.5592 35.5254 19.389 36.1202 18.9824C36.4029 18.7896 36.4099 18.6096 36.2126 18.3394C34.8438 16.4626 34.3022 14.3734 34.7136 12.0788C34.8676 11.2192 35.2637 10.4074 36.1804 10.1598C36.7472 10.0064 37.3882 10.0134 37.9789 10.088C38.9376 10.2104 39.8053 10.5945 40.3945 11.4246C41.1013 12.4206 41.2819 13.5096 40.9768 14.6998C40.7584 15.5552 40.312 16.2812 39.8207 16.9874C39.6262 17.2674 39.6192 17.5248 39.8837 17.7134C40.2924 18.0018 40.7066 18.3183 41.1685 18.4858C42.1706 18.8487 43.2119 18.8164 44.221 18.49C45.3267 18.1326 46.1034 17.3954 46.5457 16.3023C47.0747 14.9938 47.0817 13.6249 47.0537 12.2504C47.0327 11.1769 46.995 10.1021 46.9628 9.02721C46.9516 8.64313 46.89 8.62062 46.5261 8.69518C45.5674 8.88933 44.6045 9.06238 43.6416 9.23965C43.3379 9.29452 43.0327 9.33251 42.729 9.38737C42.0684 9.50696 41.5226 9.23402 41.4862 8.45742C41.4484 7.67378 41.3351 6.89436 41.2553 6.11353C41.2511 6.06992 41.2469 6.0249 41.2441 5.98128C41.1993 5.06118 41.4204 4.56173 42.5191 4.60112C43.6528 4.64333 44.7878 4.67991 45.9201 4.7404C46.4771 4.76995 46.6731 4.62785 46.7094 4.07213C46.7374 3.64021 46.75 3.2083 46.7766 2.77779C46.8172 2.13062 46.9642 1.97727 47.6178 2.00259C48.0083 2.01806 48.4015 2.087 48.7836 2.17282C49.3225 2.29382 49.6038 2.67508 49.6416 3.21392C49.6724 3.65428 49.6598 4.09886 49.6528 4.54203C49.6472 4.85577 49.7437 5.02319 50.0922 5.05836C51.0999 5.16107 52.1034 5.30176 53.1097 5.42275C53.5842 5.47902 53.8515 5.67317 53.9159 6.02771C54.0278 6.64393 53.8949 7.066 53.4316 7.23483C52.7836 7.46978 52.1146 7.64986 51.4456 7.81587C50.9768 7.93265 50.4925 7.98189 50.0167 8.07052C49.6975 8.12961 49.524 8.29844 49.5268 8.6586C49.5394 10.4425 49.4988 12.2279 49.5506 14.0104C49.5772 14.946 49.7171 15.8816 50.1132 16.7553C50.4337 17.4629 50.9796 17.7415 51.7409 17.6135C52.8564 17.425 53.8795 17.031 54.7696 16.322C55.2637 15.928 55.5898 15.4469 55.6136 14.7814C55.6584 13.563 55.7185 12.3461 55.7885 11.1305C55.8095 10.7802 55.8487 10.4158 55.9649 10.0894C56.0292 9.90793 56.2672 9.66735 56.4323 9.66313C57.3435 9.63499 58.2616 9.62655 59.1685 9.70533C59.7395 9.75457 60.1314 10.292 60.1006 10.8984C60.06 11.7481 59.9509 12.5951 59.8697 13.4434C59.7703 14.4902 59.678 15.5383 59.5674 16.5836C59.4554 17.6416 60.2966 18.1664 61.1307 18.1762C61.8291 18.1847 62.242 17.923 62.5387 17.1788C62.8466 16.4092 63.0285 15.5749 63.1615 14.7519C63.3491 13.5841 63.4372 12.3995 63.5758 11.2234C63.6318 10.7436 63.9299 10.3736 64.3008 10.2934C64.729 10.2006 65.2931 10.3764 65.433 10.7704C65.5506 11.0996 65.524 11.5019 65.4834 11.8635C65.3323 13.2029 65.1139 14.5366 64.988 15.8788C64.911 16.7032 65.3714 17.2899 66.1678 17.5333C66.5653 17.6543 66.9768 17.75 67.3882 17.7978C68.1104 17.8808 68.6213 17.3504 68.7724 16.526C68.8998 15.8324 68.9166 15.1177 68.9796 14.4114C69.0523 13.5729 69.0621 12.7245 69.2049 11.8987C69.4148 10.6761 70.2 9.56746 71.6556 9.21151C72.5289 8.99767 73.4106 8.97234 74.2826 9.07364C75.6122 9.22699 77.0048 10.1358 77.4302 11.6722C77.7535 12.8399 77.6248 13.9682 77.2455 15.0909C76.8046 16.3923 76.0013 17.4067 74.8774 18.1791C74.7738 18.2508 74.7136 18.3859 74.6339 18.4914C74.7752 18.5547 74.918 18.6729 75.0579 18.6701C76.4015 18.649 77.6668 18.3408 78.827 17.6332C79.0887 17.4742 79.3742 17.3532 79.65 17.221C79.9033 17.1 80.053 17.2435 79.9831 17.4629C79.8655 17.8316 79.7241 18.2213 79.489 18.5195C78.4953 19.7829 77.1391 20.3879 75.5716 20.4934C74.9068 20.5384 74.2322 20.4484 73.5618 20.4118C73.0565 20.3837 72.5513 20.3386 72.046 20.3049C71.7899 20.288 71.6416 20.3963 71.5772 20.6636C71.1741 22.3336 70.9614 24.0331 70.7528 25.7355C70.6213 26.8075 70.4225 27.8768 70.1664 28.9263C70.0278 29.4961 69.5856 29.8886 68.974 29.9871C68.6087 30.0462 68.3372 29.8872 68.214 29.5439C68.1104 29.2541 68.0138 28.9516 67.9887 28.6478C67.8683 27.1522 67.9173 25.6609 68.1146 24.1724C68.2154 23.4155 68.2812 22.6544 68.3679 21.8947C68.4281 21.3671 68.5079 20.8409 68.5569 20.3119C68.5961 19.8842 68.4995 19.7843 68.0922 19.7027C67.2511 19.5339 66.4085 19.3679 65.5702 19.1822C65.0006 19.0555 64.5569 19.2581 64.172 19.6521C63.6598 20.1768 63.0929 20.6313 62.4211 20.9267C61.6094 21.2827 60.7486 21.2081 59.9145 21.0744C58.7094 20.8817 57.7479 20.2444 57.0635 19.223C56.8508 18.9064 56.6968 18.5491 56.5303 18.203C56.4365 18.0088 56.3539 17.9343 56.1272 18.0496C55.3267 18.459 54.5289 18.8797 53.7031 19.2314C52.7822 19.6225 51.8053 19.7604 50.827 19.4861C49.8739 19.2187 49.1419 18.6011 48.5345 17.8301C48.3707 17.6261 48.2112 17.4179 47.9593 17.0929ZM75.4246 13.2563C75.4134 13.1241 75.4134 12.9904 75.3924 12.8596C75.2707 12.1041 74.5163 11.7664 73.9075 12.2209C73.6332 12.4263 73.3826 12.6978 73.1951 12.9862C72.5681 13.9513 72.2854 15.0572 72.0027 16.1573C71.9313 16.4331 71.8823 16.7257 71.8879 17.0085C71.8991 17.5361 72.207 17.6923 72.6479 17.4067C73.5618 16.8144 74.2378 15.9927 74.8088 15.0797C75.1559 14.5268 75.44 13.9415 75.4246 13.2563ZM39.5842 13.7895C39.5926 13.2648 39.4708 12.7794 39.0859 12.4009C38.8732 12.1913 38.6059 12.1013 38.3008 12.1969C37.9299 12.3123 37.7297 12.5895 37.7017 13.0481C37.6472 13.9373 38.0278 14.7012 38.4183 15.4539C38.6199 15.8408 38.8116 15.8295 39.0705 15.4708C39.4344 14.9699 39.5758 14.4015 39.5842 13.7895ZM30.5667 13.6193C30.4701 13.2971 30.4057 12.9609 30.2686 12.6584C30.0922 12.2729 29.6374 12.0999 29.2357 12.2054C28.8102 12.3179 28.6423 12.5219 28.6856 13.0481C28.7248 13.5068 28.8298 13.964 28.9502 14.4086C29.0397 14.7364 29.1769 15.0572 29.3379 15.3554C29.5562 15.7564 29.7843 15.7606 29.9985 15.3723C30.2952 14.8363 30.5247 14.2749 30.5667 13.6193Z" fill="#ED1C40"/>
</svg>
