<svg width="32" height="32" viewBox="0 0 32 32" fill="none" xmlns="http://www.w3.org/2000/svg">
<path d="M21.6949 28.0579C21.5022 27.7798 21.4263 27.4314 21.4817 27.0922C21.5372 26.756 21.7211 26.4534 21.9926 26.2579C22.2612 26.0653 22.5969 25.992 22.918 26.0562C23.2391 26.1203 23.5223 26.319 23.7033 26.6063C23.8843 26.8844 23.9485 27.2266 23.8901 27.5567C23.8288 27.8868 23.6478 28.1801 23.3822 28.3696C23.1194 28.5591 22.7954 28.6355 22.4772 28.5774C22.1619 28.5194 21.8817 28.3329 21.6949 28.0579ZM14.6828 29.6104C14.5689 29.4393 14.5251 29.2253 14.5631 29.0206C14.5981 28.8158 14.7091 28.6324 14.8755 28.5133C15.0389 28.3941 15.2404 28.3482 15.4389 28.3849C15.6345 28.4246 15.8096 28.5408 15.9235 28.715C16.0373 28.8861 16.0811 29.097 16.0432 29.3048C16.0081 29.5096 15.8943 29.6929 15.7308 29.8121C15.5673 29.9313 15.363 29.9771 15.1674 29.9374C14.9718 29.9007 14.7966 29.7815 14.6828 29.6104ZM23.4289 8.52024C23.5953 8.7739 23.7442 9.04284 23.8668 9.324C23.9923 9.60516 24.0916 9.89549 24.1704 10.1919C24.2463 10.4914 24.2988 10.797 24.3251 11.1026C24.3543 11.4113 24.3543 11.72 24.3309 12.0286C24.9323 12.2151 25.4811 12.594 25.8694 13.1686C26.7393 14.4613 26.4941 16.2094 25.3614 17.2087C26.7744 19.5619 26.1818 22.6792 23.9748 24.2744C23.0552 24.9407 21.9985 25.2157 20.9621 25.176C20.7665 25.9859 20.314 26.7285 19.6047 27.2419C18.2793 28.1985 16.5511 28.0212 15.4009 26.9455C15.3688 26.973 15.3396 27.0005 15.3104 27.028C15.3007 27.0382 15.29 27.0484 15.2783 27.0586C15.2686 27.0667 15.2589 27.0759 15.2491 27.0861C15.2394 27.0942 15.2287 27.1034 15.217 27.1136C15.2073 27.1217 15.1966 27.1299 15.1849 27.138C13.121 28.6324 10.2864 28.0885 8.85886 25.9278C8.7343 25.7383 8.62337 25.5407 8.52606 25.3349C8.42875 25.1291 8.34701 24.9172 8.28084 24.6992C8.21273 24.4792 8.16018 24.2561 8.1232 24.03C8.08623 23.8038 8.06579 23.5756 8.0619 23.3454C6.92339 23.1498 5.86078 22.4897 5.18643 21.3956C4.04791 19.5497 4.39239 17.1568 5.88997 15.7204C4.78649 13.8623 5.24773 11.4083 6.98761 10.1522C7.51308 9.77019 8.09693 9.56237 8.68954 9.47986C8.79463 9.18953 8.92016 8.90837 9.06612 8.63943C9.21209 8.36744 9.37557 8.11073 9.55948 7.86624C9.74047 7.62481 9.9419 7.3956 10.1579 7.18167C10.374 6.9708 10.6046 6.77521 10.8469 6.60101C12.8612 5.14325 15.4301 5.19826 17.3685 6.49711C19.5434 5.67501 22.0539 6.43904 23.4289 8.52024ZM3.82313 14.3727C4.08003 14.556 4.25518 14.8403 4.31065 15.1581C4.36611 15.4759 4.30189 15.8029 4.12673 16.0719C3.95158 16.3378 3.68301 16.5211 3.3794 16.5792C3.07288 16.6403 2.76052 16.57 2.50654 16.3867C2.24965 16.2033 2.07449 15.9221 2.01903 15.6043C1.96356 15.2865 2.0307 14.9564 2.20294 14.6905C2.3781 14.4246 2.64667 14.2413 2.95319 14.1801C3.25679 14.1221 3.56915 14.1924 3.82313 14.3727ZM8.33923 6.90968C8.4706 7.11138 8.52314 7.36198 8.47935 7.60341C8.43848 7.84485 8.30712 8.05877 8.11153 8.19935C7.91885 8.33993 7.68239 8.39189 7.44885 8.3491C7.21823 8.30326 7.01388 8.16574 6.88252 7.96403C6.74823 7.76233 6.69568 7.51173 6.73947 7.2703C6.78034 7.02887 6.91171 6.81494 7.1073 6.67436C7.29997 6.53683 7.53643 6.48182 7.76705 6.52461C8.00059 6.57045 8.20494 6.70798 8.33923 6.90968ZM10.0149 2.01686C10.1784 1.97713 10.3477 2.00769 10.4878 2.10243C10.6308 2.19411 10.7301 2.34386 10.7651 2.51195C10.8002 2.68309 10.7681 2.86034 10.6746 3.00704C10.5841 3.15373 10.4411 3.25458 10.2776 3.2882C10.1171 3.31876 9.95358 3.28514 9.81637 3.19346C9.68209 3.09872 9.58575 2.95203 9.55072 2.787C9.51861 2.62197 9.5478 2.44777 9.63246 2.30413C9.72004 2.1605 9.85724 2.05659 10.0149 2.01686ZM17.0678 2.95814C17.3306 2.80228 17.64 2.75949 17.9319 2.84201C18.2239 2.92147 18.472 3.12011 18.6267 3.38905C18.7843 3.66104 18.8311 3.98193 18.761 4.2906C18.6938 4.59621 18.5129 4.86515 18.2589 5.03323C17.9961 5.19826 17.6809 5.24716 17.3831 5.17076C17.0853 5.0913 16.8284 4.89571 16.6708 4.6176C16.5132 4.34255 16.4665 4.01555 16.5424 3.70383C16.6153 3.39211 16.8051 3.12317 17.0678 2.95814ZM6.85624 25.283C6.71612 25.3166 6.57016 25.286 6.45047 25.2066C6.32786 25.124 6.2432 24.9957 6.21401 24.849C6.18189 24.7023 6.20817 24.5495 6.28699 24.4211C6.36581 24.2958 6.48842 24.2072 6.62854 24.1736C6.76867 24.143 6.91463 24.1705 7.03724 24.2531C7.15693 24.3325 7.24159 24.4609 7.27078 24.6106C7.30289 24.7573 7.27662 24.9101 7.1978 25.0354C7.11898 25.1638 6.99637 25.2524 6.85624 25.283ZM27.0751 9.8527C27.2356 10.0758 27.3028 10.36 27.259 10.6351C27.2152 10.9132 27.0663 11.1607 26.8473 11.3196C26.6255 11.4786 26.354 11.5366 26.0913 11.4816C25.8285 11.4235 25.5979 11.2585 25.4549 11.0232C25.3177 10.797 25.268 10.525 25.3206 10.2653C25.3702 10.0025 25.5162 9.77019 25.7264 9.62044C25.9365 9.46764 26.1934 9.40651 26.4445 9.45235C26.6985 9.49514 26.9232 9.63878 27.0751 9.8527ZM27.8603 16.732C28.0501 16.6984 28.2398 16.7412 28.3975 16.8512C28.5551 16.9612 28.666 17.1323 28.7069 17.3279C28.7478 17.5205 28.7128 17.7252 28.6135 17.8933C28.5142 18.0614 28.3566 18.1836 28.1727 18.2325C27.9829 18.2723 27.7874 18.2325 27.6268 18.1225C27.4662 18.0125 27.3524 17.8383 27.3115 17.6427C27.2706 17.4441 27.3057 17.2393 27.4078 17.0682C27.5129 16.9001 27.6735 16.7778 27.8603 16.732ZM29.3287 13.1839C29.4718 13.1472 29.6206 13.1747 29.7462 13.2572C29.8688 13.3397 29.9564 13.4681 29.9885 13.6178C30.0177 13.7706 29.9914 13.9265 29.9097 14.0548C29.8279 14.1832 29.7024 14.2718 29.5593 14.2993C29.4192 14.3268 29.2733 14.2993 29.1536 14.2168C29.0368 14.1343 28.9521 14.0059 28.9229 13.8593C28.8908 13.7126 28.9171 13.5628 28.993 13.4345C29.0689 13.3092 29.1886 13.2205 29.3287 13.1839Z" fill="#FF1154"/>
<path d="M20.5714 20.5398C21.091 20.6162 21.6077 20.6926 21.6895 21.2397C21.9084 22.7005 19.2023 22.1565 18.5834 21.8417C17.6113 21.3436 17.0216 20.2067 17.2755 19.0821C17.3719 18.6481 17.8973 17.5235 18.3907 16.463C18.8549 15.4728 19.2898 14.5407 19.3249 14.284C19.392 13.7461 19.1176 13.7003 18.9454 13.6911C18.7264 13.6789 18.5513 13.792 18.3352 14.1342C18.198 14.3512 17.0975 16.6341 16.3618 18.1591C16.0319 18.8498 15.7721 19.3846 15.7108 19.5038C15.3663 20.1884 14.9314 20.3504 14.4935 20.329C13.8542 20.2923 13.5622 19.9347 13.6557 19.2899C13.679 19.1187 13.9914 18.3211 14.3271 17.4593C14.7241 16.4385 15.1562 15.3292 15.197 15.045C15.2408 14.7241 15.1795 14.3818 14.8759 14.2168C14.5694 14.0517 14.2074 14.3054 14.0994 14.4949C14.0293 14.6202 13.536 15.9282 13.0193 17.3065C12.4471 18.8284 11.8428 20.4329 11.7319 20.6468C11.3611 21.3497 10.9729 21.5728 10.389 21.6034C9.00528 21.6706 7.9777 20.4787 8.43018 19.021C8.46813 18.8987 8.54403 18.6298 8.64913 18.2661C9.10453 16.6678 10.0912 13.2052 10.6401 12.1845C11.0925 11.341 12.3537 10.6992 13.2265 11.0934C13.5126 11.2248 13.8717 11.4052 14.1403 11.5396C14.295 11.6191 14.4234 11.6802 14.4906 11.7138C14.8642 11.885 15.2613 11.4968 15.4773 11.286C15.5065 11.2554 15.5327 11.231 15.5561 11.2096C15.5775 11.1912 15.5979 11.1719 15.6174 11.1515C15.778 11.0079 15.9356 10.8612 16.1283 10.7756C16.3472 10.6747 16.6946 10.635 16.9603 10.6747C17.2259 10.7175 17.3865 10.8214 17.4857 10.907C17.6492 11.0445 17.7631 11.1546 17.9032 11.2982L17.9908 11.3838C18.2477 11.6405 18.4374 11.5182 18.5746 11.4327L18.6096 11.4082L18.6184 11.4052C18.8578 11.2585 19.0505 11.1423 19.7598 11.1546C20.4984 11.1698 21.3479 11.4449 21.5231 12.7621C21.6194 13.4741 21.0823 14.7302 20.5218 16.0351C19.9321 17.4134 19.3161 18.8498 19.4066 19.7483C19.4708 20.3809 20.0226 20.4604 20.5714 20.5398Z" fill="white"/>
</svg>
