<svg width="108" height="32" viewBox="0 0 108 32" fill="none" xmlns="http://www.w3.org/2000/svg">
<path d="M71.196 2V22.3958C73.7066 22.5126 76.2104 22.6544 78.7075 22.8212V27.1455C74.7472 26.8808 70.7829 26.6801 66.8162 26.5432V2H71.196ZM106 2.00244L100.297 15.252L105.999 29.9963L105.992 29.999C104.33 29.762 102.666 29.5365 101 29.3226L97.7984 21.0473L94.5661 28.5544C93.0327 28.3847 91.4983 28.2245 89.9629 28.0741L95.5226 15.1632L90.4309 2.00265H95.1688L98.0196 9.3677L101.19 2.00244H106ZM51.7845 26.3289V2.00224H64.0106V6.36542H56.1643V12.0199H62.101V16.3442H56.1643V26.3281L51.7845 26.3289ZM35.4303 6.36562V2.00204H48.9767V6.36542H44.3932V26.4471C42.9313 26.4858 41.471 26.531 40.0138 26.5862V6.36562H35.4303ZM20.4576 27.8432V2.00285H32.6227V6.36583H24.8367V12.2759C26.6255 12.2529 29.1688 12.2271 30.7511 12.2308V16.5555C28.7705 16.531 26.5347 16.5827 24.8367 16.5996V23.1465C27.4301 22.9417 30.0256 22.7639 32.6227 22.6132V26.9379C28.563 27.1726 24.5074 27.4746 20.4576 27.8436M11.866 17.8468L11.8658 2.00204H16.2456V28.2511C14.6445 28.4162 13.0464 28.5915 11.4512 28.7771L6.37937 14.1769V29.4024C4.91687 29.5932 3.45708 29.7924 2 30V2.00244H6.16223L11.866 17.8468ZM82.3207 27.4062V2.00244H86.7007V27.7687C85.2425 27.6385 83.783 27.5182 82.3207 27.4062Z" fill="#DB202C"/>
</svg>
