<svg width="115" height="33" viewBox="0 0 115 33" fill="none" xmlns="http://www.w3.org/2000/svg">
<mask id="mask0_109_5187" style="mask-type:luminance" maskUnits="userSpaceOnUse" x="2" y="2" width="111" height="29">
<path d="M2 1.99999V30.085H113V1.99999H2Z" fill="white"/>
</mask>
<g mask="url(#mask0_109_5187)">
<path d="M60.0314 15.3712C61.2068 15.3712 61.6147 16.0842 61.6147 16.9348C61.6147 18.3757 60.4977 19.254 58.7503 19.254C58.1245 19.254 57.2535 19.1052 56.735 18.9336C56.952 17.6093 57.8021 15.3712 60.0314 15.3712ZM85.284 15.3712C86.3589 15.3712 86.8681 16.0842 86.8681 16.9348C86.8681 18.3757 85.7529 19.254 84.0071 19.254C83.3783 19.254 82.5067 19.1052 81.9917 18.9336C82.2072 17.6093 83.1667 15.3712 85.284 15.3712ZM109.224 15.4914H111.916C112.286 15.4914 112.503 15.342 112.583 14.9987C112.704 14.5017 112.92 13.6361 112.982 13.4007C113.061 13.0914 112.881 12.855 112.54 12.855H109.88C110.071 12.0946 110.818 9.6191 110.818 8.00731C110.818 4.78891 108.084 2.05153 104.203 2.05153C99.824 2.05153 96.9724 4.99028 96.9724 9.12734C96.9724 10.335 97.4226 11.7395 97.9828 12.6148C97.7499 12.5983 97.5091 12.5905 97.2611 12.5905C93.9322 12.5905 91.8353 14.3978 91.8353 17.0262C91.8353 19.4924 93.7805 20.4499 95.6096 21.0884C97.2354 21.6546 98.7318 21.9191 98.7318 23.1884C98.7318 24.0444 97.9089 24.5473 96.2982 24.5473C94.3846 24.5473 93.3317 23.6465 93.0662 23.3052C93.2461 23.1626 93.5145 22.8227 93.5145 22.2575C93.5145 21.4679 92.9616 20.8235 91.9306 20.8235C91.0573 20.8235 90.3199 21.535 90.1341 22.4705C88.735 23.6164 87.2061 24.36 85.0404 24.36C82.9016 24.36 81.7937 23.2477 81.7937 20.8862C82.2951 21.0379 83.5995 21.2217 84.4607 21.2217C88.0755 21.2217 90.5383 19.5794 90.5383 16.2885C90.5383 14.5203 88.986 12.6635 85.9139 12.6635H85.9051C81.8648 12.6635 79.6049 15.2224 78.6147 18.0374C78.3379 17.9697 78.0608 17.905 77.7817 17.8427C78.0044 17.2194 78.1643 16.4947 78.1643 15.6956C78.1643 14.3028 77.3032 12.6634 74.999 12.6634C73.394 12.6634 71.8714 13.7129 70.8166 15.2886C71.0782 14.2611 71.2519 13.5782 71.2655 13.534C71.3322 13.2646 71.2193 12.964 70.8016 12.964H68.4361C68.1014 12.964 67.8612 13.0818 67.7639 13.4683C67.7012 13.7222 66.8895 16.909 66.0964 20.0137C65.6009 21.9492 63.0244 24.36 59.7825 24.36C57.6462 24.36 56.5417 23.1758 56.5417 20.8121C57.1 21.0325 58.345 21.2217 59.2028 21.2217C62.9655 21.2217 65.2833 19.5794 65.2833 16.2885C65.2833 14.5203 63.7309 12.6635 60.6609 12.6635H60.6516C56.1035 12.6635 53.3169 16.1975 52.8423 20.204C52.6458 21.8696 51.2408 24.1553 49.7168 24.1553C48.9745 24.1553 48.5598 23.6903 48.5598 22.8976C48.5598 22.2144 49.0406 20.5438 49.5693 18.4458C49.746 17.7465 50.0134 16.6775 50.311 15.4915H52.7879C53.1535 15.4915 53.3694 15.3421 53.4527 14.9988C53.5717 14.5018 53.7877 13.6362 53.8495 13.4007C53.9312 13.0915 53.7503 12.8551 53.4059 12.8551H50.9695C50.9695 12.8551 52.0894 8.38735 52.1163 8.27251C52.2255 7.81784 51.8443 7.5561 51.4475 7.6403C51.4475 7.6403 49.5675 8.00738 49.2173 8.08136C48.8685 8.15034 48.5962 8.34399 48.4674 8.85027C48.4518 8.91297 47.4713 12.8551 47.4713 12.8551H45.5213C45.1512 12.8551 44.9371 13.0069 44.855 13.3507C44.7345 13.8453 44.5161 14.7119 44.4552 14.9473C44.3746 15.2566 44.5559 15.4915 44.8996 15.4915H46.8144C46.8013 15.5484 46.1238 18.1269 45.5752 20.4368C45.318 21.5495 44.4528 24.1479 43.0361 24.1479C42.1909 24.1479 41.8341 23.7204 41.8341 22.8051C41.8341 21.3637 43.2515 17.7547 43.2515 16.1188C43.2515 13.9317 42.0791 12.6634 39.6748 12.6634C38.158 12.6634 36.5886 13.6428 35.9218 14.5016C35.9218 14.5016 36.1232 13.8003 36.195 13.528C36.2667 13.242 36.1124 12.9639 35.7389 12.9639H33.389C32.8867 12.9639 32.7506 13.2303 32.678 13.5236C32.647 13.6427 31.8012 16.9683 30.9895 20.1603C30.4313 22.3468 29.0818 24.1734 27.6379 24.1734C26.8928 24.1734 26.5635 23.7066 26.5635 22.913C26.5635 22.2297 27.0031 20.5436 27.5329 18.4455C28.1742 15.8968 28.7384 13.7974 28.8002 13.5498C28.879 13.2352 28.7384 12.9638 28.3342 12.9638H25.9698C25.5424 12.9638 25.3861 13.1865 25.2976 13.4997C25.2976 13.4997 24.6314 16.0164 23.9268 18.8229C23.4166 20.8585 22.8516 22.9327 22.8516 23.905C22.8516 25.6451 23.6305 26.9541 25.7781 26.9541C27.4326 26.9541 28.7443 26.1137 29.7441 25.0429C29.5977 25.6235 29.5039 25.9906 29.4931 26.0263C29.4075 26.3589 29.5112 26.6491 29.9026 26.6491H32.3217C32.7423 26.6491 32.9037 26.4815 32.9917 26.1137C33.0753 25.7645 34.8831 18.6556 34.8831 18.6556C35.362 16.7454 36.5413 15.481 38.206 15.481C38.993 15.481 39.6762 16.0042 39.5954 17.0158C39.5075 18.1333 38.1648 22.1427 38.1648 23.9012C38.1648 25.2317 38.6569 26.9542 41.1619 26.9542C42.8722 26.9542 44.1313 26.1348 45.0437 25.0791C45.3773 26.2014 46.2658 26.9542 47.8925 26.9542C50.5965 26.9542 52.2271 25.3494 53.1827 23.7398C53.9798 25.611 55.8409 26.9542 58.5711 26.9542C61.3529 26.9542 63.5063 25.7817 65.0319 24.1871C64.7576 25.2618 64.5717 25.9924 64.5552 26.0531C64.4678 26.3881 64.615 26.6547 65.0099 26.6547H67.4051C67.731 26.6547 67.9658 26.4864 68.05 26.1396C68.0918 25.9723 68.439 24.6344 68.9291 22.7345C69.8634 19.1002 71.3646 15.3284 73.6203 15.3284C74.4168 15.3284 74.7446 15.7719 74.7446 16.4747C74.7446 16.8039 74.6488 17.0879 74.5637 17.2445C73.4705 17.0262 72.5907 17.5644 72.5907 18.7336C72.5907 19.4952 73.3922 20.1868 74.4723 20.1868C75.2985 20.1868 75.9823 19.9855 76.5264 19.6177C77.0341 19.7232 77.5798 19.841 78.1298 19.967C78.0463 20.5135 78.0038 21.0514 78.0038 21.5582C78.0038 24.4776 80.1957 26.9543 83.9291 26.9543C86.8573 26.9543 88.7316 25.9723 90.4911 24.5111C91.3251 25.8748 93.4313 26.9758 96.1922 26.9758C99.9738 26.9758 102.122 25.0071 102.122 22.4082C102.122 20.0535 100.189 19.1873 98.1954 18.4672C96.5759 17.8826 95.2244 17.5641 95.2244 16.4192C95.2244 15.4787 95.9647 15.0512 97.23 15.0512C98.0514 15.0512 98.6651 15.2263 98.9978 15.3187C99.3246 16.1376 99.9996 17.0422 101.153 17.0422C102.129 17.0422 102.567 16.2719 102.567 15.5599C102.567 13.5348 99.1963 13.3238 99.1963 8.98033C99.1963 6.28182 100.722 4.05645 103.888 4.05645C106.086 4.05645 107.523 5.44968 107.523 7.69799C107.523 9.55324 106.397 12.8549 106.397 12.8549H104.484C104.118 12.8549 103.901 13.0067 103.817 13.3505C103.697 13.8451 103.481 14.7117 103.417 14.9471C103.339 15.2564 103.517 15.4913 103.864 15.4913H105.73C105.73 15.4913 103.8 22.611 103.8 23.9051C103.8 25.6452 104.78 26.9523 106.925 26.9523C109.962 26.9523 111.86 24.9818 112.686 22.1115C112.747 21.8888 112.623 21.7098 112.397 21.7098H111.24C111.009 21.7098 110.873 21.8401 110.816 22.0653C110.554 23.0841 109.906 24.155 108.63 24.155C107.888 24.155 107.472 23.6901 107.472 22.8973C107.472 22.2141 107.926 20.6121 108.483 18.4455C108.747 17.415 109.22 15.4912 109.22 15.4912" fill="#BD081C"/>
<path d="M30.1007 9.23581C30.0157 10.4866 28.9687 11.5017 27.7621 11.5017C26.5565 11.5017 25.646 10.4866 25.7322 9.23581C25.8198 7.98696 26.8653 6.97352 28.069 6.97352C29.2779 6.97352 30.1849 7.98696 30.1007 9.23581Z" fill="#BD081C"/>
<path d="M13.2525 1.99989C5.90185 1.99989 2 6.93185 2 12.3081C2 14.8044 3.32864 17.9144 5.45631 18.904C5.78018 19.0547 5.95134 18.9886 6.02475 18.6774C6.08172 18.44 6.37011 17.2851 6.49846 16.7458C6.54079 16.5737 6.51986 16.4258 6.37934 16.2556C5.67905 15.4055 5.11487 13.8337 5.11487 12.3708C5.11487 8.61545 7.95886 4.9816 12.8032 4.9816C16.9894 4.9816 19.9167 7.83096 19.9167 11.9087C19.9167 16.5166 17.5935 19.7074 14.5646 19.7074C12.8921 19.7074 11.6404 18.3272 12.0415 16.6286C12.5234 14.6055 13.4528 12.4186 13.4528 10.9605C13.4528 9.65039 12.7505 8.55992 11.2973 8.55992C9.58889 8.55992 8.21506 10.3283 8.21506 12.6975C8.21506 14.2056 8.7257 15.2244 8.7257 15.2244C8.7257 15.2244 7.03862 22.3626 6.73035 23.6912C6.20437 25.9459 6.79914 29.5991 6.85163 29.9182C6.87832 30.0895 7.06858 30.1473 7.17607 30.0033C7.34196 29.782 9.37655 26.7308 9.95197 24.5244C10.1562 23.7283 11.0102 20.4758 11.0102 20.4758C11.5684 21.5351 13.1879 22.4309 14.9139 22.4309C20.0499 22.4309 23.7527 17.7053 23.7527 11.8378C23.7527 6.21023 19.1615 2.00006 13.2526 2.00006" fill="#BD081C"/>
</g>
</svg>
