<svg width="32" height="32" viewBox="0 0 32 32" fill="none" xmlns="http://www.w3.org/2000/svg">
<path d="M2.00037 16.0003C2.00037 21.7331 5.44765 26.6581 10.3806 28.8234C10.3412 27.8458 10.3736 26.6722 10.6243 25.6085C10.8934 24.472 12.4257 17.9798 12.4257 17.9798C12.4257 17.9798 11.9784 17.0859 11.9784 15.7647C11.9784 13.69 13.1809 12.1405 14.6785 12.1405C15.9519 12.1405 16.5671 13.097 16.5671 14.2424C16.5671 15.5225 15.7507 17.4373 15.3308 19.2108C14.98 20.6959 16.0754 21.9072 17.5405 21.9072C20.193 21.9072 21.9796 18.5003 21.9796 14.4637C21.9796 11.3953 19.9129 9.09867 16.154 9.09867C11.9072 9.09867 9.26155 12.2657 9.26155 15.8034C9.26155 17.0231 9.62118 17.8832 10.1845 18.5493C10.4435 18.8552 10.4794 18.9783 10.3857 19.3296C10.3186 19.5872 10.1643 20.2073 10.1005 20.4531C10.0073 20.8077 9.71994 20.9345 9.39948 20.8035C7.44341 20.005 6.53243 17.8629 6.53243 15.4549C6.53243 11.4779 9.88652 6.70915 16.5383 6.70915C21.8834 6.70915 25.4015 10.5771 25.4015 14.7291C25.4015 20.2211 22.3482 24.3241 17.8474 24.3241C16.3359 24.3241 14.9142 23.5071 14.4271 22.579C14.4271 22.579 13.6144 25.8047 13.4422 26.4276C13.1454 27.507 12.5644 28.5859 12.0331 29.4268C13.3213 29.8077 14.6576 30.001 16.0009 30.0009C23.732 30.0009 30.0005 23.7327 30.0005 16.0003C30.0005 8.26829 23.732 2.00012 16.0009 2.00012C8.26909 2.00012 2.00037 8.26829 2.00037 16.0003Z" fill="#CB1F27"/>
</svg>
