<svg width="186" height="32" viewBox="0 0 186 32" fill="none" xmlns="http://www.w3.org/2000/svg">
<path d="M174.797 14.2979V18.1095H177.464V21.8919C177.471 22.1811 177.458 22.4907 177.418 22.7567L177.396 22.8856C177.391 22.9146 177.386 22.9442 177.38 22.9745L177.358 23.0673L177.345 23.1152L177.314 23.2133C177.074 23.9096 176.352 24.7923 174.73 24.7923C173.002 24.7923 172.308 23.7793 172.118 23.0677L172.096 22.9745L172.079 22.8856C172.031 22.5942 172.011 22.2296 172.011 21.8919V9.94675C172.011 9.57112 172.033 9.16407 172.101 8.83272L172.147 8.63098L172.158 8.58813L172.182 8.49958L172.197 8.45352L172.23 8.35854C172.477 7.69869 173.129 6.81961 174.715 6.81961C175.94 6.81961 176.599 7.32092 176.952 7.83902L177.015 7.93614C177.034 7.96827 177.053 8.00065 177.07 8.03326L177.12 8.12895L177.163 8.22321L177.2 8.31498L177.233 8.40317L177.26 8.48815L177.283 8.56814L177.302 8.64312L177.316 8.71167C177.324 8.74619 177.33 8.78237 177.335 8.82022L177.351 8.93698L177.358 8.99768L177.373 9.18121L177.384 9.35688L177.393 9.59683L177.396 9.72001V11.1704H183.948L183.95 10.2674L183.954 9.9446L183.952 9.6943L183.947 9.40259L183.941 9.24584L183.93 9.00125L183.913 8.75059L183.899 8.58313C183.455 4.17093 180.153 2.47311 176.136 2.17782L175.867 2.15996L175.596 2.14675C175.46 2.14098 175.323 2.13669 175.186 2.1339L174.911 2.13033L174.773 2.12961L174.497 2.1314L174.359 2.1339L174.086 2.1414L173.814 2.15318L173.544 2.16889L173.277 2.18853C173.188 2.19591 173.1 2.204 173.012 2.21281L172.749 2.24137C172.706 2.24613 172.662 2.25137 172.619 2.25708L172.36 2.29208C171.76 2.37884 171.182 2.50274 170.635 2.66806L170.402 2.74162C167.863 3.57821 166.019 5.35709 165.64 8.58313L165.601 8.94126L165.574 9.2187L165.549 9.50935L165.528 9.79857C165.516 9.98781 165.508 10.1656 165.508 10.3127L165.509 21.4416L165.511 21.5798L165.517 21.7897L165.523 21.9369L165.532 22.094L165.544 22.265L165.559 22.4532L165.588 22.7763L165.612 23.0241C165.98 27.1246 169.074 28.9485 172.86 29.3787L173.125 29.4066C173.569 29.4494 174.021 29.473 174.479 29.4801L174.755 29.4819L175.032 29.4801C175.486 29.4738 175.94 29.4493 176.392 29.4066L176.659 29.3787C180.457 28.9485 183.53 27.1246 183.904 23.0241L183.935 22.6628L183.957 22.3568L183.977 22.014L183.989 21.7187L184 21.3009V14.2975L174.797 14.2979ZM129.616 2.83267H123.036V22.1668C123.046 22.5039 123.036 22.8823 122.978 23.1598L122.958 23.2441L122.934 23.3333C122.925 23.3649 122.915 23.3964 122.905 23.4276L122.871 23.5258C122.623 24.1906 121.99 25.0579 120.477 25.0579C119.059 25.0579 118.411 24.2752 118.139 23.6268L118.1 23.5258L118.082 23.4765L118.051 23.3801L118.026 23.288L118.015 23.2441L117.996 23.1598C117.931 22.8823 117.922 22.5039 117.931 22.1672V2.83195H111.352V21.5669L111.351 21.7173L111.353 21.9808L111.363 22.3682L111.38 22.8395L111.393 23.0762L111.402 23.2023L111.41 23.2948C111.732 26.7607 113.757 28.565 116.616 29.3198L116.859 29.3812C117.41 29.5114 117.968 29.6057 118.531 29.6636L118.801 29.6901L119.074 29.7122L119.349 29.7301C119.488 29.7382 119.627 29.7446 119.767 29.7493L120.05 29.7572L120.334 29.7608L120.477 29.7615L120.764 29.7597L120.906 29.7572L121.189 29.7493C121.329 29.7446 121.469 29.7383 121.608 29.7304L121.883 29.7126L122.157 29.6901L122.427 29.6636C126.275 29.253 129.162 27.4931 129.56 23.2948L129.565 23.253L129.576 23.143L129.592 22.9238L129.606 22.6581L129.614 22.4664L129.622 22.1722L129.624 21.9808L129.623 21.8012L129.619 21.6391L129.616 21.5669V2.83267ZM69.1549 2.83267L65.8725 23.2619L62.5919 2.83267H51.9776L51.4145 28.9674H57.9175L58.0934 4.77365L62.5677 28.9674H69.1652L73.6434 4.77365L73.8201 28.9674H80.3394L79.7575 2.83267H69.1549ZM29.8553 2.83267L25.0358 28.9674H32.0638L35.696 4.77365L39.2408 28.9674H46.22L41.4205 2.83267H29.8553ZM152.613 23.8743L146.486 2.83267H136.83V28.6949H143.217L142.847 6.98029L149.427 28.6949H158.687V2.83267H152.258L152.613 23.8743ZM93.5323 9.63432C93.4168 9.11801 93.4502 8.56992 93.5099 8.2832C93.5267 8.20703 93.5469 8.13062 93.5704 8.05397L93.6087 7.93935C93.8682 7.21452 94.4757 6.53396 95.8681 6.53396C97.3707 6.53396 98.2519 7.47517 98.2519 8.88699V10.4852H104.666V8.66383C104.666 4.55299 101.988 2.97156 99.126 2.4174L98.8903 2.3742L98.6543 2.33528L98.4179 2.30065L98.1819 2.2703L97.9458 2.24352L97.7109 2.22066C97.6327 2.21352 97.5546 2.2071 97.4766 2.20138L97.2441 2.18531L97.0131 2.17246L96.7838 2.16246L96.5566 2.15532L96.3327 2.15032L96.0014 2.14782L95.8557 2.14854L95.5652 2.15282L95.4209 2.15639L95.1344 2.1671C95.0396 2.17115 94.9451 2.17591 94.8507 2.18139L94.5699 2.20103C90.6562 2.50167 87.6027 4.1163 86.9917 7.90257C86.8111 9.05588 86.7663 10.0792 87.0539 11.3853C87.5068 13.5316 89.2869 15.0591 91.3302 16.3399L91.6465 16.5352L91.8058 16.6316L92.1268 16.8212L92.4496 17.0083L92.7737 17.1922L93.26 17.4636L94.5376 18.167L94.8483 18.3398L95.1533 18.5119L95.4522 18.684L95.744 18.8561C97.1368 19.6888 98.2526 20.5329 98.6539 21.5423C98.8761 22.1422 98.8277 22.8977 98.7204 23.3801L98.7019 23.4579C98.6752 23.5753 98.6411 23.6909 98.5999 23.8039L98.5551 23.9171C98.2594 24.6105 97.6134 25.2018 96.1941 25.2018C94.5753 25.2018 93.6006 24.267 93.6006 22.8577L93.5984 20.3497H86.6941V22.3435C86.6941 27.0228 89.6499 29.0556 93.3517 29.659L93.6272 29.7011C93.8118 29.7273 93.9979 29.7503 94.1853 29.7701L94.4679 29.7972C94.7992 29.8258 95.1335 29.845 95.4707 29.855L95.7604 29.8615L95.9058 29.8629L96.0512 29.8636C96.1479 29.8636 96.2443 29.8629 96.3405 29.8615L96.6277 29.855L96.7699 29.8504L97.0539 29.8375C97.148 29.8328 97.2416 29.8272 97.3348 29.8208L97.6131 29.7993C97.7977 29.7834 97.9803 29.7643 98.1609 29.7422L98.4303 29.7072L98.6966 29.6672C98.7847 29.6532 98.8723 29.6383 98.9593 29.6226L99.2188 29.5733C102.352 28.9427 104.684 27.2328 105.152 23.945C105.216 23.4544 105.256 23.0016 105.277 22.5874L105.289 22.3175C105.29 22.2732 105.292 22.2295 105.293 22.1864L105.297 21.934V21.693L105.293 21.4637L105.286 21.2463L105.275 21.0413L105.269 20.9432L105.255 20.7561L105.238 20.5811L105.22 20.4186L105.192 20.1983L105.163 20.0062L105.124 19.7945L105.106 19.7077C104.654 17.4318 102.671 15.8243 100.467 14.5011L100.151 14.314L99.8323 14.1304L99.5127 13.9501L99.0329 13.6859L98.3966 13.3428L97.3106 12.7625L96.8641 12.5197L96.7184 12.4394L96.4326 12.2794L96.1546 12.1198C94.7875 11.3236 93.7541 10.5416 93.5323 9.63432ZM8.91566 9.56969C8.79764 9.07588 8.81613 8.55635 8.87656 8.25428L8.90144 8.14145L8.92988 8.02933C9.14671 7.24451 9.73928 6.43577 11.2706 6.43577C12.7924 6.43577 13.6885 7.38555 13.6885 8.80951V10.427H20.1787V8.59134C20.1787 4.66867 17.7491 3.02119 15.0344 2.3767L14.7976 2.32314C14.5998 2.28068 14.4011 2.24294 14.2015 2.20995L13.9623 2.17282L13.723 2.13961L13.4838 2.11069L13.2456 2.08569C13.1664 2.07787 13.0871 2.0706 13.0078 2.06391L12.7718 2.04606L12.5372 2.03106L12.304 2.01928L12.0729 2.01071L11.8451 2.00464L11.5074 2H11.3968C11.2994 2 11.2025 2.00071 11.1061 2.00214L10.8174 2.00821C10.6259 2.01393 10.4364 2.02226 10.2487 2.03321L9.96785 2.05249L9.82886 2.06391L9.55266 2.08962C9.46095 2.09891 9.36995 2.10902 9.27966 2.11997L9.0095 2.15496C8.78627 2.18591 8.56635 2.22185 8.34975 2.2628L8.09204 2.31421L7.83787 2.37063L7.58798 2.43204C7.50504 2.45347 7.42304 2.47561 7.34199 2.49846L7.09992 2.56987C4.58142 3.34755 2.76604 4.9786 2.30819 7.80867C2.11908 8.98018 2.08638 10.0107 2.35974 11.3314C2.84104 13.613 4.80323 15.2027 6.99861 16.5381L7.32138 16.7316L7.48383 16.8273L7.80979 17.0158L8.30105 17.294L8.95511 17.656L9.91915 18.187L10.3877 18.4491L10.843 18.7097L11.1381 18.884C11.1864 18.9128 11.2345 18.9418 11.2824 18.9711L11.5653 19.1457C12.7704 19.9041 13.7145 20.685 14.0785 21.6009C14.3174 22.1961 14.2616 22.952 14.1489 23.4497L14.1297 23.5304C14.1012 23.6463 14.0663 23.7605 14.0252 23.8725L13.98 23.985C13.6772 24.6905 13.0263 25.2957 11.5884 25.2957C9.96323 25.2957 8.99102 24.3449 8.99102 22.9163L8.98178 20.4015H2V22.3996C2 28.009 6.21054 29.8529 10.8736 29.9914L11.1654 29.9979L11.4583 30L11.748 29.9982C11.8926 29.9961 12.036 29.9925 12.1782 29.9875L12.4625 29.9746C12.6035 29.9675 12.7437 29.9585 12.8831 29.9475L13.1603 29.9239L13.434 29.8961C13.525 29.8861 13.6156 29.8754 13.7056 29.864L13.9733 29.8265C14.0624 29.8134 14.1507 29.7995 14.2381 29.7847L14.4994 29.7383C17.7445 29.1277 20.1627 27.3992 20.6497 24.0174C20.7117 23.5728 20.756 23.1259 20.7823 22.6778L20.7951 22.41L20.8029 22.1539C20.8048 22.0722 20.806 21.9904 20.8065 21.9086L20.8054 21.6748L20.8008 21.4523L20.793 21.2417L20.7823 21.0421L20.7691 20.8542L20.7542 20.6782L20.7286 20.4361L20.7012 20.2212L20.6643 19.9766L20.6223 19.7391C20.172 17.4904 18.2478 15.89 16.0826 14.5743L15.7641 14.3839L15.6042 14.29L15.2818 14.1051L14.9586 13.9233L14.6352 13.7448L14.3117 13.5695L12.8855 12.8089L12.4291 12.5633L12.133 12.4012L11.844 12.2398L11.5632 12.0791L11.4263 11.9988L11.1597 11.8388C9.981 11.1175 9.11579 10.3959 8.91566 9.56969Z" fill="#1428A0"/>
</svg>
