<svg width="32" height="32" viewBox="0 0 32 32" fill="none" xmlns="http://www.w3.org/2000/svg">
<path d="M29.9826 13.209C30.3641 15.3905 24.4134 18.2473 16.6901 19.5898C8.96763 20.9322 2.39809 20.251 2.01727 18.0686C1.63676 15.8869 7.58894 13.0309 15.3114 11.6888C23.0341 10.3457 29.6024 11.0269 29.9826 13.209Z" fill="#034EA2"/>
<path d="M22.7132 16.4474L22.6735 14.1791H23.3903V17.0381H22.3598L21.6446 14.6917H21.6292L21.6689 17.0381H20.9568V14.1791H22.0319L22.6972 16.4474H22.7132Z" fill="white"/>
<path d="M9.68558 14.4468L9.28907 17.0682H8.50745L9.04422 14.1791H10.3319L10.8662 17.0682H10.0876L9.70188 14.4468H9.68558Z" fill="white"/>
<path d="M12.6861 17.0682L12.202 14.4707H12.1863L12.1681 17.0682H11.4431L11.5071 14.1791H12.6883L13.0457 16.3876H13.0611L13.4189 14.1791H14.5994L14.6622 17.0682H13.9387L13.9196 14.4707H13.9046L13.4207 17.0682H12.6861Z" fill="white"/>
<path d="M7.28818 16.2531C7.31648 16.3231 7.30786 16.413 7.29464 16.4674C7.27034 16.5635 7.20512 16.6614 7.01256 16.6614C6.83108 16.6614 6.72095 16.5576 6.72095 16.3989V16.1192H5.94456L5.94394 16.343C5.94394 16.9871 6.4521 17.1814 6.99657 17.1814C7.52011 17.1814 7.95137 17.0028 8.01997 16.5214C8.05504 16.2718 8.02889 16.1085 8.01689 16.0468C7.89478 15.442 6.79601 15.2615 6.71418 14.9232C6.70034 14.8652 6.70434 14.8038 6.71111 14.7709C6.7311 14.6788 6.79447 14.5772 6.97565 14.5772C7.14483 14.5772 7.2448 14.6816 7.2448 14.8394C7.2448 14.8925 7.2448 15.0178 7.2448 15.0178H7.96676V14.8148C7.96676 14.1855 7.40076 14.0873 6.99072 14.0873C6.47579 14.0873 6.05499 14.257 5.97808 14.7274C5.95717 14.8572 5.95409 14.9729 5.98454 15.1178C6.11097 15.7082 7.1393 15.8792 7.28818 16.2531Z" fill="white"/>
<path d="M16.7016 16.2479C16.7302 16.3173 16.7209 16.4048 16.708 16.4591C16.6843 16.5549 16.6197 16.6513 16.4284 16.6513C16.2494 16.6513 16.1402 16.5475 16.1402 16.3925L16.1396 16.1153H15.3712L15.3702 16.336C15.3702 16.9736 15.8738 17.1661 16.4127 17.1661C16.9307 17.1661 17.358 16.9899 17.4254 16.5128C17.4604 16.2651 17.4355 16.1039 17.4229 16.0434C17.3014 15.4442 16.2137 15.2655 16.1328 14.9306C16.119 14.8729 16.123 14.8121 16.13 14.7811C16.1506 14.6884 16.2128 14.5892 16.3921 14.5892C16.5598 14.5892 16.6576 14.6912 16.6576 14.8477C16.6576 14.9002 16.6576 15.0242 16.6576 15.0242H17.374V14.8235C17.374 14.2009 16.8126 14.1033 16.4066 14.1033C15.8975 14.1033 15.4801 14.2709 15.4047 14.7378C15.3838 14.8658 15.3816 14.9794 15.4115 15.1237C15.536 15.7079 16.5542 15.8777 16.7016 16.2479Z" fill="white"/>
<path d="M19.1331 16.6359C19.334 16.6359 19.3968 16.4972 19.4106 16.4262C19.4165 16.3949 19.418 16.3532 19.4174 16.3157V14.1779H20.1495V16.2503C20.151 16.3035 20.1458 16.4127 20.1433 16.4401C20.092 16.9794 19.6647 17.1544 19.1328 17.1544C18.6004 17.1544 18.1728 16.9794 18.122 16.4401C18.1196 16.4127 18.1144 16.3035 18.1159 16.2503V14.1779H18.8474V16.3157C18.8474 16.3532 18.8486 16.3952 18.8541 16.4262C18.8698 16.4972 18.9307 16.6359 19.1331 16.6359Z" fill="white"/>
<path d="M25.172 16.6055C25.3818 16.6055 25.455 16.4732 25.4685 16.3962C25.4738 16.363 25.4753 16.3228 25.475 16.2863V15.8669H25.1778V15.4451H26.2043V16.2206C26.2037 16.2746 26.2025 16.3145 26.1939 16.4109C26.1456 16.9365 25.6888 17.124 25.1757 17.124C24.6617 17.124 24.2055 16.9365 24.1566 16.4109C24.1483 16.3145 24.1471 16.2746 24.1461 16.2206L24.1468 15.004C24.1468 14.9527 24.1532 14.8618 24.1587 14.8136C24.223 14.2736 24.6617 14.0999 25.1757 14.0999C25.6891 14.0999 26.1385 14.2727 26.1917 14.8136C26.2012 14.9057 26.1982 15.004 26.1982 15.004V15.1004H25.4682V14.9386C25.4688 14.9389 25.4673 14.8698 25.4587 14.8287C25.4464 14.7648 25.3907 14.6181 25.1702 14.6181C24.9591 14.6181 24.8973 14.7568 24.8819 14.8287C24.873 14.8667 24.8696 14.9183 24.8696 14.965V16.2863C24.869 16.3228 24.8712 16.363 24.877 16.3962C24.8896 16.4735 24.9625 16.6055 25.172 16.6055Z" fill="white"/>
</svg>
