<svg width="95" height="32" viewBox="0 0 95 32" fill="none" xmlns="http://www.w3.org/2000/svg">
<path d="M40.3773 2H39.8332L26.0059 11.1728L25.945 10.9363C24.0409 5.54627 18.6828 3.17827 11.838 3.17827H2V28.0511H12.4306C18.9821 28.0511 24.2191 25.3853 26.0059 20.2923L26.0653 20.1149L40.1129 29.4125L54.9966 19.5222V28.0511H72.8126V20.4502H63.9223V3.17829H54.9966V11.9747L43.8986 19.5092L41.3808 17.734L52.6911 10.1533L47.6736 6.91709L36.243 14.4978L33.8324 12.9993L45.2608 5.41937L40.3773 2ZM17.4917 15.9096C17.4917 19.1681 15.1122 20.6485 12.1343 20.6485H10.9308V10.8758H12.1343C15.4086 10.8758 17.4917 12.5342 17.4917 15.9096ZM92.0695 28.0511H74.6224V3.17826H83.5503V20.4502H92.0695V28.0511Z" fill="#0073C9"/>
</svg>
