<svg width="32" height="32" viewBox="0 0 32 32" fill="none" xmlns="http://www.w3.org/2000/svg">
<path d="M22.4729 19.0333V12.878H23.8986V17.7827H26.3952V19.031H22.4729V19.0333ZM11.0582 15.1973L14.5349 12.5233L15.5161 13.3248L12.2179 15.8215L12.9307 16.4457L16.2289 13.8603L17.2101 14.663C16.1159 15.5314 15.0165 16.3932 13.9119 17.2483L14.6236 17.8737L17.9252 15.1962L17.9241 12.8792H19.3509V17.7838H21.9362V19.0322H18.0139V16.714L14.5361 19.388L11.0582 16.714C10.8902 17.5645 10.2964 18.3007 9.52757 18.6903C9.19371 18.8603 8.83222 18.9693 8.46007 19.0123C8.24657 19.038 8.0319 19.0322 7.81723 19.0322H5.61807V12.8792H8.1544C8.81784 12.8855 9.45995 13.1144 9.9779 13.529C10.5076 13.949 10.8856 14.5463 11.0594 15.1973M6.9574 14.1275V17.8725L8.06923 17.8713C8.30292 17.8635 8.5321 17.8049 8.74083 17.6995C8.94955 17.5941 9.13283 17.4445 9.2779 17.2612C9.52283 16.9538 9.67327 16.582 9.71096 16.1907C9.74866 15.7995 9.67198 15.4058 9.49023 15.0573C9.37517 14.8358 9.21402 14.6414 9.01763 14.4873C8.82123 14.3331 8.59413 14.2228 8.35157 14.1637C8.1579 14.117 7.95723 14.1287 7.76007 14.1263L6.9574 14.1275ZM15.3061 2H15.6992C17.8981 2.02871 20.059 2.57763 22.0051 3.60183C23.9042 4.60124 25.5505 6.02048 26.8187 7.75167C28.532 10.0854 29.4748 12.8952 29.5161 15.79V16.21C29.4726 19.6959 28.1257 23.0392 25.7407 25.5818C24.4553 26.9545 22.9059 28.0533 21.1854 28.8125C19.4649 29.5717 17.6088 29.9756 15.7284 30H15.3072C13.6524 29.9749 12.0151 29.6565 10.4714 29.0597C8.59025 28.329 6.88929 27.2004 5.48507 25.751C3.98138 24.2047 2.85333 22.3334 2.18807 20.2817C1.76428 18.9655 1.53782 17.5937 1.51607 16.2112L1.51607 15.79C1.56019 13.1314 2.36683 10.5415 3.84007 8.328C5.21465 6.25301 7.10933 4.57475 9.33507 3.46067C11.1913 2.53373 13.2316 2.03461 15.3061 2ZM15.1276 3.435C12.3912 3.51272 9.75582 4.48611 7.6259 6.20583C5.88458 7.60908 4.54812 9.45049 3.75373 11.541C2.60065 14.609 2.68135 18.0045 3.9789 21.0143C4.87417 23.0712 6.30234 24.8518 8.1159 26.1722C9.76373 27.3737 11.6808 28.1532 13.6996 28.4425C15.3982 28.6863 17.1471 28.5872 18.8049 28.1392C21.074 27.5262 23.1255 26.2884 24.7257 24.5668C26.3271 22.8479 27.413 20.7133 27.8594 18.4068C28.2083 16.5973 28.1598 14.7335 27.7171 12.9445C27.202 10.8821 26.1722 8.9841 24.7239 7.42808C23.2756 5.87207 21.4563 4.70893 19.4361 4.0475C18.0463 3.59499 16.5884 3.38773 15.1276 3.435Z" fill="#0079B2"/>
</svg>
