<svg width="88" height="32" viewBox="0 0 88 32" fill="none" xmlns="http://www.w3.org/2000/svg">
<path d="M16.9995 7.98014C17.0418 7.98388 17.0418 7.98388 17.0849 7.98769C17.1534 7.99376 17.2218 7.99995 17.2903 8.00626C17.2903 8.0235 17.2903 8.04074 17.2903 8.0585C17.3138 8.05699 17.3374 8.05547 17.3617 8.05391C17.6719 8.043 17.9486 8.1065 18.2467 8.18911C18.2467 8.20635 18.2467 8.22359 18.2467 8.24135C18.2761 8.23973 18.3054 8.23812 18.3356 8.23645C18.4623 8.23576 18.5692 8.27374 18.6862 8.31971C18.6862 8.33695 18.6862 8.35419 18.6862 8.37195C18.7064 8.37411 18.7267 8.37626 18.7476 8.37848C19.1116 8.4546 19.4573 8.67632 19.7719 8.86825C19.8042 8.88739 19.8042 8.88739 19.8371 8.90692C19.8852 8.93602 19.9321 8.9672 19.9787 8.99885C19.9787 9.01609 19.9787 9.03333 19.9787 9.0511C19.9939 9.05409 20.0091 9.05709 20.0248 9.06018C20.0861 9.07842 20.1213 9.10115 20.1713 9.14078C20.1873 9.15343 20.2033 9.16607 20.2198 9.1791C20.2362 9.19235 20.2526 9.2056 20.2695 9.21925C20.2863 9.2324 20.3031 9.24555 20.3204 9.25909C20.3627 9.29289 20.4035 9.32859 20.444 9.36454C20.444 9.38178 20.444 9.39902 20.444 9.41679C20.4664 9.42729 20.4664 9.42729 20.4892 9.43801C20.5488 9.46979 20.5996 9.50307 20.6508 9.54739C20.6508 9.56463 20.6508 9.58187 20.6508 9.59963C20.6756 9.61014 20.6756 9.61014 20.7009 9.62086C20.7542 9.65187 20.7542 9.65187 20.78 9.73024C20.7971 9.73024 20.8141 9.73024 20.8317 9.73024C20.8727 9.77136 20.8727 9.77136 20.919 9.82656C20.9349 9.84558 20.9509 9.86461 20.9673 9.88421C20.9823 9.90236 20.9973 9.9205 21.0127 9.9392C21.0335 9.96399 21.0543 9.98877 21.0757 10.0143C21.1161 10.0698 21.1161 10.0698 21.1161 10.122C21.1417 10.1307 21.1673 10.1393 21.1936 10.1482C21.2464 10.2193 21.2464 10.2193 21.3019 10.3065C21.3204 10.3354 21.3389 10.3642 21.3579 10.394C21.379 10.4275 21.379 10.4275 21.4004 10.4616C21.3619 10.5611 21.3073 10.6042 21.2211 10.6641C21.1871 10.6881 21.1871 10.6881 21.1525 10.7126C21.0902 10.7489 21.0902 10.7489 21.0127 10.7489C21.0041 10.7748 20.9956 10.8007 20.9868 10.8273C20.848 10.9318 20.848 10.9318 20.78 10.9318C20.78 10.949 20.78 10.9663 20.78 10.984C20.7419 11.0176 20.7022 11.0493 20.6621 11.0804C20.1011 11.5346 19.6665 12.1209 19.3324 12.7603C19.3178 12.7876 19.3032 12.815 19.2882 12.8432C19.2017 13.0106 19.1357 13.1816 19.0759 13.3602C19.0531 13.4251 19.0269 13.4827 18.9964 13.5439C18.978 13.6135 18.9608 13.6828 18.9447 13.7528C18.9361 13.7882 18.9275 13.8236 18.9188 13.859C18.9151 13.8743 18.9114 13.8897 18.9075 13.9056C18.8955 13.952 18.882 13.9979 18.8681 14.0437C18.6592 14.7846 18.7 15.7309 18.893 16.4694C18.901 16.5023 18.909 16.5351 18.9172 16.569C18.9264 16.6055 18.9355 16.6419 18.9447 16.6784C18.9499 16.7002 18.9552 16.7219 18.9606 16.7444C19.0381 17.0511 19.1734 17.3333 19.3066 17.6187C19.316 17.6401 19.3254 17.6615 19.3351 17.6835C19.5005 18.0436 19.7692 18.4324 20.0514 18.7096C20.0821 18.7419 20.0821 18.7419 20.0821 18.7942C20.0991 18.7942 20.1162 18.7942 20.1338 18.7942C20.1757 18.838 20.1757 18.838 20.2226 18.8954C20.2781 18.963 20.3191 19.0061 20.3923 19.0554C20.3923 19.0726 20.3923 19.0899 20.3923 19.1076C20.4069 19.114 20.4215 19.1204 20.4366 19.127C20.5062 19.1657 20.556 19.2125 20.6137 19.2677C20.7474 19.3913 20.8879 19.4983 21.0369 19.6023C21.0753 19.6292 21.0753 19.6292 21.1144 19.6567C21.3157 19.7954 21.5227 19.9146 21.7407 20.024C21.7579 20.0327 21.7751 20.0414 21.7928 20.0504C21.8339 20.0711 21.8753 20.0913 21.9167 20.1114C21.9691 20.1524 21.9691 20.1524 21.989 20.2142C21.9934 20.5208 21.8749 20.7869 21.7623 21.0667C21.7517 21.0934 21.741 21.1201 21.7301 21.1476C21.6035 21.4642 21.4735 21.7796 21.3229 22.0854C21.3126 22.1063 21.3023 22.1272 21.2917 22.1488C21.1374 22.4596 20.9717 22.7627 20.7962 23.0617C20.7704 23.1056 20.7704 23.1056 20.744 23.1505C20.6482 23.3122 20.5491 23.4708 20.444 23.6265C20.4269 23.6524 20.4098 23.6782 20.3923 23.7049C20.3752 23.7049 20.3581 23.7049 20.3406 23.7049C20.3375 23.7201 20.3344 23.7354 20.3312 23.7511C20.3033 23.8496 20.2433 23.9275 20.1871 24.0118C20.1753 24.03 20.1635 24.0482 20.1514 24.067C20.1211 24.1127 20.0888 24.1571 20.0562 24.2012C20.0392 24.2012 20.0221 24.2012 20.0045 24.2012C19.996 24.2357 19.9875 24.2701 19.9787 24.3057C19.9616 24.3057 19.9446 24.3057 19.927 24.3057C19.9242 24.3208 19.9215 24.3359 19.9187 24.3515C19.8985 24.419 19.8702 24.4581 19.8267 24.5131C19.8115 24.5325 19.7963 24.5519 19.7807 24.5719C19.7644 24.5924 19.7482 24.6128 19.7315 24.6338C19.6983 24.6761 19.6652 24.7184 19.6321 24.7607C19.6161 24.7812 19.6001 24.8017 19.5836 24.8228C19.5274 24.8956 19.4742 24.97 19.4213 25.0452C19.3547 25.1389 19.2902 25.2233 19.2032 25.2982C19.1861 25.2982 19.1691 25.2982 19.1515 25.2982C19.1515 25.3241 19.1515 25.35 19.1515 25.3766C19.1344 25.3766 19.1174 25.3766 19.0998 25.3766C19.0939 25.391 19.088 25.4054 19.082 25.4203C19.0381 25.499 18.9822 25.5546 18.9188 25.6182C18.8959 25.6415 18.873 25.6648 18.8494 25.6888C18.7896 25.7423 18.7896 25.7423 18.7379 25.7423C18.7309 25.7579 18.724 25.7735 18.7169 25.7896C18.6862 25.8467 18.6578 25.8837 18.6086 25.9251C18.5916 25.9251 18.5745 25.9251 18.5569 25.9251C18.5569 25.9424 18.5569 25.9596 18.5569 25.9774C18.5313 25.9774 18.5057 25.9774 18.4794 25.9774C18.4708 26.0032 18.4623 26.0291 18.4535 26.0557C18.4028 26.1034 18.4028 26.1034 18.3404 26.1521C18.32 26.1683 18.2995 26.1846 18.2784 26.2014C18.2209 26.2386 18.2209 26.2386 18.1433 26.2386C18.1433 26.2558 18.1433 26.2731 18.1433 26.2908C17.9294 26.4709 17.5988 26.6698 17.3161 26.6565C17.3161 26.6738 17.3161 26.691 17.3161 26.7088C17.1218 26.765 16.9371 26.7976 16.735 26.8077C16.6715 26.806 16.6715 26.806 16.644 26.8394C16.5886 26.842 16.5331 26.8428 16.4776 26.8426C16.4473 26.8427 16.4169 26.8428 16.3856 26.8428C16.308 26.8394 16.308 26.8394 16.2563 26.8133C16.1987 26.8091 16.1411 26.806 16.0834 26.8035C15.826 26.789 15.5652 26.7526 15.3259 26.6515C15.2595 26.6245 15.1919 26.6034 15.1237 26.5814C14.9943 26.5383 14.8723 26.4862 14.749 26.4277C14.6414 26.3776 14.5313 26.3342 14.4209 26.2908C14.4209 26.2736 14.4209 26.2564 14.4209 26.2386C14.3975 26.237 14.374 26.2354 14.3498 26.2337C14.227 26.2166 14.1206 26.1631 14.0078 26.1134C13.9054 26.072 13.8052 26.0511 13.6971 26.0296C13.6886 26.021 13.6801 26.0124 13.6713 26.0035C13.6414 25.9992 13.6116 25.9949 13.5808 25.9904C13.4903 25.9774 13.4903 25.9774 13.4645 25.9513C12.8398 25.8186 12.0982 25.8206 11.474 25.9513C11.4655 25.9599 11.457 25.9685 11.4482 25.9774C11.3792 25.9811 11.3106 25.9785 11.2414 25.9774C11.2414 25.9946 11.2414 26.0119 11.2414 26.0296C11.2263 26.0319 11.2113 26.0341 11.1958 26.0365C11.0337 26.0645 10.895 26.1169 10.7447 26.1835C10.6583 26.2183 10.5841 26.2322 10.4917 26.2386C10.4917 26.2558 10.4917 26.2731 10.4917 26.2908C10.4576 26.2908 10.4235 26.2908 10.3883 26.2908C10.3883 26.3081 10.3883 26.3253 10.3883 26.3431C10.3394 26.36 10.2904 26.3769 10.2413 26.3937C10.2004 26.4078 10.2004 26.4078 10.1586 26.4222C10.0887 26.4442 10.0209 26.4609 9.9489 26.4737C9.9489 26.4909 9.9489 26.5082 9.9489 26.5259C9.92764 26.5323 9.90638 26.5386 9.88448 26.5451C9.74996 26.5859 9.61834 26.6262 9.49006 26.6843C9.35147 26.7433 9.20803 26.7651 9.06028 26.7884C8.96681 26.7956 8.96681 26.7956 8.88905 26.8394C8.82043 26.842 8.7525 26.843 8.68387 26.8428C8.66331 26.8429 8.64275 26.8429 8.62157 26.8429C8.57802 26.8429 8.53448 26.8429 8.49093 26.8428C8.42404 26.8426 8.35715 26.8428 8.29026 26.8429C8.24805 26.8429 8.20585 26.8429 8.16364 26.8428C8.1435 26.8429 8.12336 26.8429 8.1026 26.843C7.96143 26.8424 7.96143 26.8424 7.9326 26.8133C7.84089 26.7925 7.74876 26.7745 7.65654 26.7562C7.5707 26.7349 7.5707 26.7349 7.49316 26.6826C7.46063 26.673 7.42811 26.6633 7.3946 26.6533C7.21621 26.5956 7.05761 26.4935 6.89861 26.3953C6.88359 26.3861 6.86858 26.3768 6.8531 26.3672C6.8156 26.3433 6.77941 26.3172 6.74351 26.2908C6.74351 26.2736 6.74351 26.2564 6.74351 26.2386C6.72911 26.2316 6.71472 26.2246 6.69989 26.2174C6.63462 26.1835 6.57194 26.1491 6.51086 26.108C6.51086 26.0908 6.51086 26.0735 6.51086 26.0557C6.4958 26.0487 6.48073 26.0417 6.46522 26.0345C6.40674 26.0031 6.36078 25.9686 6.31052 25.9251C6.29466 25.9117 6.2788 25.8982 6.26246 25.8843C6.22651 25.8468 6.22651 25.8468 6.22651 25.7945C6.20945 25.7945 6.19239 25.7945 6.17481 25.7945C6.17481 25.7773 6.17481 25.7601 6.17481 25.7423C6.15775 25.7423 6.14069 25.7423 6.12311 25.7423C6.08211 25.7003 6.08211 25.7003 6.03587 25.6443C5.98513 25.5838 5.93547 25.5267 5.87915 25.4713C5.83876 25.4289 5.83876 25.4289 5.83876 25.3766C5.81317 25.368 5.78758 25.3594 5.76121 25.3505C5.68366 25.2605 5.68366 25.2605 5.68366 25.1938C5.6666 25.1938 5.64954 25.1938 5.63196 25.1938C5.6149 25.1507 5.59784 25.1076 5.58026 25.0632C5.5632 25.0632 5.54614 25.0632 5.52856 25.0632C5.4789 25.0059 5.43238 24.9486 5.38639 24.8885C5.37349 24.8721 5.36059 24.8558 5.34731 24.8389C5.27989 24.7517 5.22645 24.6736 5.19251 24.5669C5.17545 24.5669 5.15839 24.5669 5.14081 24.5669C5.09535 24.5095 5.05315 24.4523 5.01156 24.3922C4.9999 24.3758 4.98824 24.3595 4.97622 24.3426C4.91477 24.2549 4.86485 24.1734 4.83061 24.0706C4.81355 24.0706 4.79649 24.0706 4.77891 24.0706C4.7463 24.0312 4.7463 24.0312 4.70944 23.9758C4.69576 23.9554 4.68208 23.935 4.66799 23.914C4.65341 23.8918 4.63883 23.8697 4.62381 23.8469C4.60135 23.8132 4.60135 23.8132 4.57842 23.7789C4.53307 23.7108 4.48795 23.6425 4.44286 23.5743C4.41783 23.5366 4.39279 23.499 4.36774 23.4614C4.26079 23.3006 4.15403 23.1396 4.05511 22.9735C4.04502 22.9569 4.03492 22.9403 4.02452 22.9232C3.95171 22.8002 3.95171 22.8002 3.95171 22.7123C3.93465 22.7123 3.91759 22.7123 3.90001 22.7123C3.88522 22.6821 3.87042 22.6519 3.85518 22.6208C3.81005 22.5295 3.76317 22.4394 3.71531 22.3496C3.59585 22.1252 3.48574 21.8975 3.38038 21.666C3.35894 21.6191 3.33712 21.5723 3.31526 21.5256C3.22518 21.3322 3.14432 21.1359 3.06747 20.9368C3.04628 20.8821 3.02483 20.8274 3.00335 20.7728C2.84093 20.358 2.69283 19.9392 2.57336 19.5096C2.55403 19.4408 2.53403 19.3723 2.51401 19.3037C2.32989 18.6657 2.19067 18.0143 2.09052 17.3575C2.08698 17.3351 2.08345 17.3127 2.0798 17.2896C1.99659 16.7447 2.00014 16.1988 2.00144 15.6489C2.00168 15.5429 2.0015 15.4369 2.00091 15.3309C1.99772 14.7529 1.99633 14.1901 2.11637 13.6222C2.12427 13.5836 2.12427 13.5836 2.13233 13.5441C2.29043 12.7726 2.51525 11.9787 2.91772 11.2975C2.93088 11.2742 2.94404 11.2508 2.9576 11.2268C3.14524 10.8957 3.34765 10.5892 3.58439 10.2925C3.62716 10.238 3.66745 10.1817 3.70776 10.1253C3.72855 10.0984 3.74934 10.0714 3.77076 10.0437C3.78783 10.0437 3.80489 10.0437 3.82246 10.0437C3.83526 10.0049 3.83526 10.0049 3.84831 9.96532C3.86538 9.96532 3.88244 9.96532 3.90001 9.96532C3.90001 9.94808 3.90001 9.93084 3.90001 9.91308C3.91708 9.91308 3.93414 9.91308 3.95171 9.91308C3.96211 9.88965 3.96211 9.88965 3.97272 9.86574C4.00339 9.80864 4.03175 9.77168 4.08096 9.73024C4.09803 9.73024 4.11509 9.73024 4.13266 9.73024C4.1396 9.71354 4.14653 9.69683 4.15367 9.67963C4.18436 9.62575 4.18436 9.62575 4.26191 9.59963C4.26191 9.58239 4.26191 9.56515 4.26191 9.54739C4.40347 9.41679 4.40347 9.41679 4.46871 9.41679C4.46871 9.39955 4.46871 9.38231 4.46871 9.36454C4.50648 9.33087 4.50648 9.33087 4.55596 9.29598C4.57215 9.28433 4.58835 9.27268 4.60503 9.26067C4.64966 9.23394 4.64966 9.23394 4.70136 9.23394C4.70136 9.2167 4.70136 9.19946 4.70136 9.1817C4.8147 9.10334 4.8147 9.10334 4.88231 9.10334C4.88231 9.0861 4.88231 9.06886 4.88231 9.0511C5.07434 8.93542 5.07434 8.93542 5.16666 8.92049C5.16666 8.90325 5.16666 8.88601 5.16666 8.86825C5.20312 8.84621 5.23978 8.8245 5.27652 8.80295C5.29692 8.79083 5.31731 8.7787 5.33832 8.76621C5.39931 8.73765 5.39931 8.73765 5.50271 8.73765C5.50271 8.72041 5.50271 8.70317 5.50271 8.6854C5.73673 8.56503 5.96881 8.46563 6.21641 8.37726C6.2863 8.3522 6.35587 8.3266 6.42523 8.30012C6.52136 8.26347 6.59445 8.23802 6.69665 8.23972C6.74544 8.24053 6.74544 8.24053 6.79521 8.24135C6.79521 8.22411 6.79521 8.20687 6.79521 8.18911C6.85336 8.17707 6.91152 8.16511 6.96969 8.15319C7.00208 8.14652 7.03447 8.13986 7.06784 8.13299C7.08618 8.12949 7.10451 8.12598 7.12341 8.12237C7.16371 8.1145 7.20389 8.10593 7.24392 8.09672C7.50149 8.04364 7.76226 8.04971 8.02396 8.05026C8.10654 8.05034 8.1891 8.04973 8.27168 8.04907C8.65169 8.04789 8.99792 8.0724 9.35435 8.21523C9.39782 8.22469 9.44146 8.23335 9.48522 8.24135C9.57732 8.25855 9.65555 8.28299 9.74079 8.32349C9.841 8.36573 9.94606 8.39403 10.0501 8.42511C10.1215 8.44769 10.1901 8.47338 10.2591 8.50256C10.2591 8.5198 10.2591 8.53704 10.2591 8.5548C10.2836 8.55695 10.3081 8.55911 10.3334 8.56133C10.4635 8.5801 10.5784 8.63379 10.6985 8.6854C10.8605 8.75267 11.0228 8.81449 11.1897 8.86825C11.1897 8.88549 11.1897 8.90273 11.1897 8.92049C11.2105 8.91834 11.2313 8.91618 11.2527 8.91396C11.3397 8.92013 11.3759 8.93193 11.4514 8.96947C11.8022 9.13441 12.3459 9.13983 12.7148 9.02497C12.7743 9.00101 12.8318 8.97484 12.8894 8.94671C12.951 8.91889 13.0118 8.89981 13.0767 8.88131C13.1835 8.85066 13.2815 8.81093 13.3817 8.76285C13.451 8.73218 13.522 8.70955 13.5937 8.6854C13.6456 8.6641 13.6973 8.64233 13.7488 8.6201C13.8512 8.57595 13.9534 8.53776 14.059 8.50256C14.1103 8.48269 14.1615 8.46254 14.2125 8.44215C14.4794 8.33802 14.7478 8.24609 15.0264 8.17911C15.1097 8.15895 15.1917 8.13474 15.274 8.11075C15.4218 8.06771 15.5599 8.0506 15.7132 8.03973C15.7842 8.03303 15.8507 8.02162 15.9202 8.00626C16.2756 7.92939 16.64 7.94696 16.9995 7.98014Z" fill="black"/>
<path d="M63.9892 12.8969C64.0498 12.9155 64.1105 12.9333 64.1713 12.9507C64.3858 13.0137 64.5815 13.0969 64.7783 13.2043C64.8027 13.2163 64.8272 13.2283 64.8523 13.2407C65.2378 13.4401 65.5807 13.7052 65.8979 14.001C65.9151 14.017 65.9323 14.033 65.95 14.0494C65.9658 14.0644 65.9816 14.0794 65.9978 14.0949C66.0119 14.1082 66.026 14.1216 66.0405 14.1354C66.0708 14.1708 66.0708 14.1708 66.0708 14.223C66.0851 14.2282 66.0994 14.2335 66.1141 14.2388C66.1983 14.2899 66.2498 14.3623 66.3083 14.4401C66.3207 14.4563 66.3331 14.4725 66.3458 14.4892C66.4476 14.6235 66.5437 14.7613 66.6377 14.9012C66.6763 14.9585 66.7157 15.0142 66.7563 15.0699C66.8205 15.1604 66.8709 15.2543 66.919 15.3544C66.9277 15.3724 66.9365 15.3904 66.9455 15.4089C66.973 15.4662 67.0002 15.5237 67.0273 15.5813C67.036 15.5999 67.0448 15.6185 67.0539 15.6376C67.3659 16.3035 67.5562 17.0191 67.6477 17.7493C67.6516 17.7783 67.6516 17.7783 67.6557 17.8078C67.7606 18.5882 67.7399 19.4277 67.6218 20.2047C67.6162 20.2425 67.6162 20.2425 67.6105 20.281C67.4165 21.5503 66.9318 22.7906 66.031 23.7182C65.9928 23.7576 65.9553 23.7975 65.9177 23.8374C65.5313 24.244 65.072 24.5656 64.568 24.805C64.5236 24.8263 64.4795 24.8483 64.4354 24.8703C64.109 25.0302 63.7699 25.1347 63.4163 25.2134C63.3814 25.2211 63.3814 25.2211 63.3458 25.2291C62.9903 25.3044 62.6442 25.3343 62.2822 25.3325C62.2619 25.3325 62.2416 25.3324 62.2207 25.3324C61.8876 25.3313 61.5644 25.3108 61.2369 25.246C61.2085 25.2408 61.2085 25.2408 61.1796 25.2354C60.4629 25.0999 59.7967 24.7572 59.2464 24.2795C59.223 24.2597 59.1996 24.2399 59.1754 24.2194C58.9386 24.012 58.74 23.7647 58.5743 23.4959C58.5743 23.4787 58.5743 23.4614 58.5743 23.4437C58.5573 23.4437 58.5402 23.4437 58.5226 23.4437C58.5226 25.6073 58.5226 27.7708 58.5226 30C57.8061 30 57.0895 30 56.3512 30C56.351 29.8241 56.3508 29.6483 56.3506 29.4671C56.3492 28.3012 56.3477 27.1354 56.346 25.9696C56.346 25.9496 56.346 25.9296 56.3459 25.909C56.3453 25.474 56.3447 25.0391 56.344 24.6041C56.3437 24.3907 56.3433 24.1773 56.343 23.9639C56.343 23.9426 56.343 23.9214 56.3429 23.8995C56.3419 23.2157 56.341 22.5318 56.3403 21.848C56.3394 21.1432 56.3385 20.4384 56.3373 19.7335C56.3371 19.6332 56.337 19.5328 56.3368 19.4325C56.3368 19.4127 56.3367 19.393 56.3367 19.3726C56.3363 19.0978 56.3359 18.8229 56.3357 18.5481C56.3343 16.9577 56.3318 15.3685 56.2737 13.779C56.2652 13.5117 56.2566 13.2445 56.2478 12.9692C56.8961 12.9692 57.5445 12.9692 58.2124 12.9692C58.3232 14.4579 58.3232 14.4579 58.3158 15.0328C58.3329 15.0328 58.3499 15.0328 58.3675 15.0328C58.3742 15.0142 58.3808 14.9957 58.3876 14.9766C58.5757 14.5333 58.9993 14.0773 59.3757 13.779C59.3884 13.7688 59.4011 13.7587 59.4142 13.7482C59.8942 13.3694 60.4191 13.0876 61.0042 12.917C61.0235 12.9112 61.0427 12.9054 61.0626 12.8995C61.9954 12.6203 63.0574 12.6102 63.9892 12.8969ZM60.7716 14.6932C60.7462 14.7022 60.7209 14.7112 60.6948 14.7205C60.2815 14.8789 59.9263 15.1453 59.6083 15.4507C59.5933 15.465 59.5783 15.4793 59.5629 15.494C58.9687 16.0754 58.557 17.0222 58.5202 17.8577C58.5191 17.9253 58.5188 17.9929 58.5189 18.0605C58.5188 18.0862 58.5187 18.1119 58.5186 18.1383C58.5184 18.2231 58.5183 18.3078 58.5183 18.3926C58.5182 18.4518 58.5181 18.511 58.518 18.5702C58.5179 18.6944 58.5178 18.8186 58.5178 18.9428C58.5178 19.1011 58.5175 19.2594 58.517 19.4177C58.5168 19.5401 58.5167 19.6625 58.5167 19.7849C58.5167 19.8433 58.5166 19.9016 58.5164 19.9599C58.5152 20.3443 58.5243 20.7137 58.6293 21.0863C58.6348 21.1058 58.6402 21.1253 58.6459 21.1454C58.8426 21.8127 59.2305 22.4016 59.7634 22.8429C59.78 22.8566 59.7965 22.8704 59.8135 22.8845C60.0757 23.092 60.3593 23.2428 60.6682 23.3653C60.693 23.3755 60.7178 23.3858 60.7433 23.3963C60.8882 23.4535 61.0281 23.4876 61.1821 23.5092C61.2627 23.522 61.2627 23.522 61.3106 23.5347C61.4979 23.584 61.6841 23.5846 61.8767 23.5841C61.9032 23.584 61.9032 23.584 61.9302 23.584C62.5362 23.5818 63.092 23.4437 63.6151 23.1302C63.6389 23.1166 63.6626 23.103 63.6872 23.089C63.8803 22.9731 64.0382 22.8271 64.1985 22.6699C64.2294 22.6398 64.261 22.6103 64.2927 22.5811C64.8959 22.0102 65.2053 21.145 65.3664 20.3467C65.3741 20.3088 65.3741 20.3088 65.382 20.2701C65.4628 19.8478 65.4861 19.4292 65.4843 18.9999C65.4843 18.9752 65.4842 18.9506 65.4842 18.9252C65.4828 18.5462 65.4715 18.1745 65.3987 17.8016C65.3936 17.7752 65.3884 17.7488 65.3831 17.7216C65.2249 16.939 64.9288 16.2209 64.4164 15.6074C64.3987 15.5859 64.3809 15.5645 64.3626 15.5423C63.8686 14.9649 63.1169 14.5479 62.3563 14.4876C61.796 14.4559 61.2976 14.4945 60.7716 14.6932Z" fill="black"/>
<path d="M50.1729 12.9431C50.2125 12.9557 50.2125 12.9557 50.2528 12.9686C50.4136 13.0212 50.5681 13.0801 50.7206 13.1537C50.7414 13.1637 50.7622 13.1737 50.7835 13.184C51.1137 13.3474 51.4467 13.5595 51.7239 13.8051C51.7239 13.8223 51.7239 13.8396 51.7239 13.8573C51.7447 13.8662 51.7447 13.8662 51.7659 13.8753C51.9112 13.9564 52.0081 14.0681 52.1117 14.1969C52.1413 14.2267 52.1413 14.2267 52.1716 14.2571C52.3801 14.4687 52.5546 14.6984 52.7062 14.9544C52.7226 14.9804 52.739 15.0063 52.7559 15.0331C52.8836 15.2364 52.9924 15.4454 53.0957 15.6623C53.1115 15.6949 53.1279 15.7272 53.1448 15.7593C53.2274 15.9173 53.2826 16.0829 53.3379 16.2523C53.3481 16.2835 53.3583 16.3147 53.3689 16.3469C54.0154 18.3611 53.8594 20.6728 52.9102 22.5604C52.5532 23.2488 52.0055 23.8735 51.3879 24.3318C51.3712 24.3442 51.3546 24.3567 51.3375 24.3695C50.8591 24.7229 50.3086 24.9948 49.7335 25.1415C49.7105 25.1474 49.6874 25.1533 49.6637 25.1594C49.2166 25.2721 48.7835 25.3348 48.3231 25.3325C48.3027 25.3325 48.2824 25.3324 48.2615 25.3324C47.9287 25.3311 47.6047 25.3133 47.2777 25.246C47.2563 25.2417 47.2349 25.2373 47.2129 25.2329C46.1261 25.0037 45.2062 24.4047 44.5894 23.4698C44.5808 25.6248 44.5723 27.7797 44.5635 30C43.8469 30 43.1304 30 42.3921 30C42.3918 29.8308 42.3916 29.6616 42.3913 29.4872C42.3895 28.3664 42.3877 27.2456 42.3858 26.1248C42.3858 26.1056 42.3857 26.0864 42.3857 26.0666C42.385 25.649 42.3843 25.2313 42.3835 24.8137C42.3832 24.6088 42.3828 24.4039 42.3825 24.199C42.3824 24.1786 42.3824 24.1583 42.3824 24.1372C42.3812 23.4798 42.3802 22.8224 42.3792 22.1649C42.3781 21.4877 42.377 20.8106 42.3757 20.1334C42.3756 20.0371 42.3754 19.9408 42.3752 19.8446C42.3752 19.8162 42.3752 19.8162 42.3751 19.7872C42.3746 19.4857 42.3741 19.1842 42.3737 18.8828C42.3733 18.5776 42.3727 18.2725 42.3721 17.9673C42.3718 17.8028 42.3715 17.6383 42.3713 17.4738C42.3706 16.7963 42.366 16.1191 42.3539 15.4417C42.3533 15.411 42.3528 15.3803 42.3522 15.3487C42.3438 14.8895 42.3315 14.4306 42.3129 13.9716C42.3082 13.8521 42.3036 13.7326 42.2991 13.6131C42.2981 13.5859 42.297 13.5587 42.296 13.5308C42.2889 13.3348 42.2858 13.1392 42.2887 12.9431C42.9354 12.9391 43.581 12.95 44.2275 12.9692C44.2478 13.0435 44.2581 13.113 44.2625 13.1899C44.2639 13.2128 44.2653 13.2357 44.2667 13.2594C44.2688 13.2965 44.2688 13.2965 44.271 13.3343C44.2725 13.3602 44.2741 13.3861 44.2757 13.4127C44.279 13.4681 44.2822 13.5235 44.2855 13.5788C44.2938 13.7215 44.3024 13.8642 44.3111 14.0069C44.3127 14.0348 44.3144 14.0627 44.3162 14.0915C44.3348 14.3968 44.3573 14.7018 44.3826 15.0066C44.4018 14.9768 44.4018 14.9768 44.4214 14.9463C44.5312 14.7778 44.6449 14.6152 44.7703 14.4581C44.7875 14.4359 44.8047 14.4137 44.8224 14.3908C45.466 13.572 46.3559 13.0606 47.3585 12.8359C47.4567 12.8144 47.4567 12.8144 47.543 12.7853C47.6762 12.7508 47.8081 12.7409 47.945 12.7309C47.9891 12.7276 47.9891 12.7276 48.0341 12.7243C48.7804 12.6735 49.4586 12.7143 50.1729 12.9431ZM45.4505 15.6548C45.1219 16.036 44.8851 16.4957 44.7389 16.9775C44.7258 17.0206 44.7123 17.0636 44.6983 17.1064C44.4963 17.7479 44.5429 18.4287 44.5483 19.0932C44.5492 19.2238 44.5491 19.3544 44.5491 19.485C44.5491 19.6121 44.5495 19.7392 44.5501 19.8663C44.5503 19.9264 44.5505 19.9865 44.5506 20.0466C44.5514 20.4622 44.5742 20.8534 44.7105 21.2495C44.7203 21.2785 44.7203 21.2785 44.7303 21.3081C44.9644 21.9756 45.4138 22.6182 46.0111 22.9996C46.0381 23.0171 46.0651 23.0346 46.0929 23.0526C46.3814 23.2359 46.6649 23.376 46.9934 23.4698C47.0116 23.475 47.0297 23.4803 47.0485 23.4857C47.3397 23.5657 47.6269 23.584 47.9272 23.5841C47.9783 23.5841 47.9783 23.5841 48.0303 23.5842C48.217 23.582 48.3888 23.5655 48.5702 23.522C48.6018 23.5165 48.6333 23.511 48.6658 23.5053C48.9987 23.4455 49.3161 23.3385 49.6042 23.1563C49.6264 23.143 49.6486 23.1296 49.6714 23.1158C50.568 22.5615 51.0949 21.6236 51.346 20.6137C51.6914 19.147 51.606 17.4337 50.8259 16.1159C50.7088 15.9253 50.5773 15.7507 50.4314 15.5813C50.4167 15.5629 50.4019 15.5445 50.3867 15.5256C49.9149 14.9481 49.1411 14.568 48.4081 14.4897C47.2293 14.3976 46.2584 14.7911 45.4505 15.6548Z" fill="black"/>
<path d="M31.9094 8.21198C31.9334 8.21208 31.9575 8.21217 31.9823 8.21227C32.0075 8.21226 32.0328 8.21226 32.0587 8.21226C32.1425 8.21227 32.2263 8.21248 32.3101 8.21268C32.368 8.21273 32.4259 8.21277 32.4838 8.21279C32.6366 8.21289 32.7894 8.21315 32.9422 8.21344C33.0979 8.21371 33.2537 8.21383 33.4095 8.21396C33.7153 8.21424 34.0212 8.21468 34.3271 8.21523C34.3851 8.35952 34.4416 8.50362 34.4907 8.65132C34.5013 8.68328 34.512 8.71523 34.523 8.74816C34.5343 8.78244 34.5457 8.81673 34.557 8.85101C34.5691 8.88741 34.5813 8.92381 34.5934 8.9602C34.6191 9.03717 34.6447 9.11416 34.6703 9.19115C34.7371 9.39234 34.8043 9.59344 34.8715 9.79452C34.8781 9.81444 34.8848 9.83435 34.8916 9.85487C35.0138 10.2204 35.1386 10.585 35.2651 10.9491C35.3685 11.2465 35.4702 11.5443 35.5666 11.8441C35.6093 11.976 35.6545 12.1066 35.7027 12.2366C35.8341 12.5913 35.9525 12.9505 36.0719 13.3095C36.1383 13.5094 36.205 13.7091 36.2718 13.9089C36.2784 13.9286 36.285 13.9483 36.2918 13.9686C36.3958 14.28 36.5019 14.5906 36.61 14.9005C36.7973 15.4382 36.9774 15.9783 37.1577 16.5184C37.165 16.5405 37.1724 16.5626 37.18 16.5853C37.4832 17.4934 37.4832 17.4934 37.6065 17.8698C37.6514 18.0065 37.6982 18.1425 37.7457 18.2783C37.854 18.5884 37.956 18.9006 38.0586 19.2126C38.0643 19.2299 38.07 19.2473 38.0759 19.2651C38.1044 19.3518 38.1327 19.4386 38.1608 19.5255C38.2067 19.6668 38.2526 19.8075 38.3088 19.9451C38.3871 20.1373 38.4442 20.3371 38.5056 20.5353C38.5479 20.6706 38.5903 20.8046 38.6439 20.9358C38.7108 21.0995 38.7613 21.2684 38.8137 21.4373C38.8335 21.5013 38.8535 21.5654 38.8736 21.6294C38.8822 21.6574 38.8909 21.6854 38.8999 21.7143C38.9277 21.7997 38.9277 21.7997 38.9661 21.8863C39.0097 21.9897 39.0442 22.0939 39.0777 22.201C39.0843 22.2216 39.0908 22.2421 39.0975 22.2633C39.1252 22.3504 39.1526 22.4376 39.1801 22.5248C39.2785 22.8379 39.2785 22.8379 39.3946 23.1445C39.4497 23.2862 39.4923 23.4324 39.5375 23.5775C39.6175 23.8358 39.6175 23.8358 39.7082 24.0903C39.757 24.2231 39.8003 24.358 39.8446 24.4923C39.8623 24.5458 39.8801 24.5993 39.8979 24.6527C39.9092 24.6871 39.9205 24.7214 39.9319 24.7557C39.9421 24.7866 39.9523 24.8174 39.9628 24.8491C39.9882 24.9326 39.9882 24.9326 40.0141 25.0632C39.2463 25.0632 38.4786 25.0632 37.6876 25.0632C37.4802 24.467 37.2754 23.8704 37.0785 23.2706C36.9423 22.8559 36.8051 22.4417 36.6649 22.0284C36.5616 21.7241 36.4591 21.4196 36.3571 21.1149C36.3447 21.0778 36.3322 21.0406 36.3198 21.0035C36.2641 20.8369 36.2083 20.6703 36.1527 20.5037C36.1295 20.4345 36.1064 20.3652 36.0832 20.2959C36.0671 20.2479 36.0511 20.1998 36.035 20.1517C36.0253 20.1227 36.0156 20.0937 36.0056 20.0639C35.9972 20.0386 35.9887 20.0134 35.98 19.9873C35.9565 19.9198 35.9303 19.8532 35.9039 19.7868C33.9675 19.7781 32.0311 19.7695 30.036 19.7606C30.0104 19.8555 29.9848 19.9503 29.9585 20.048C29.9348 20.1235 29.9108 20.1987 29.8857 20.2737C29.8788 20.2943 29.872 20.3149 29.865 20.3361C29.8504 20.3804 29.8357 20.4245 29.821 20.4687C29.7975 20.5392 29.7741 20.6097 29.7508 20.6802C29.6927 20.8555 29.6345 21.0307 29.5763 21.2059C29.5271 21.354 29.4779 21.5022 29.4289 21.6504C29.4062 21.7189 29.3834 21.7873 29.3606 21.8558C29.2804 22.0975 29.204 22.34 29.1328 22.5846C29.075 22.7833 29.0092 22.9789 28.9419 23.1745C28.9054 23.2806 28.8693 23.3869 28.8332 23.4932C28.8221 23.5257 28.8221 23.5257 28.8108 23.5589C28.737 23.7757 28.6644 23.993 28.5924 24.2104C28.5792 24.2505 28.5659 24.2906 28.5525 24.3306C28.4866 24.5287 28.4224 24.7262 28.3729 24.9293C28.3558 24.9848 28.3558 24.9848 28.3041 25.0632C28.2314 25.0706 28.1644 25.073 28.0917 25.0721C28.0698 25.0721 28.0479 25.0721 28.0253 25.0721C27.9525 25.072 27.8798 25.0714 27.8071 25.0708C27.7567 25.0707 27.7064 25.0706 27.656 25.0705C27.5233 25.0702 27.3907 25.0694 27.258 25.0685C27.1227 25.0677 26.9873 25.0674 26.852 25.067C26.5864 25.0661 26.3207 25.0648 26.0551 25.0632C26.1123 24.8381 26.1827 24.6186 26.2567 24.3987C26.2688 24.3624 26.281 24.326 26.2931 24.2897C26.3255 24.1931 26.3579 24.0965 26.3904 23.9999C26.4107 23.9396 26.4309 23.8794 26.4511 23.8191C26.6179 23.3215 26.7864 22.8246 26.9588 22.329C27.0824 21.9737 27.2013 21.617 27.3183 21.2594C27.4402 20.8873 27.5667 20.5171 27.6952 20.1473C27.8153 19.8018 27.9318 19.4553 28.0456 19.1076C28.1598 18.7587 28.2769 18.4111 28.3978 18.0644C28.596 17.4954 28.7858 16.9236 28.9762 16.3519C29.2025 15.6722 29.4303 14.9932 29.666 14.3168C29.8492 13.7906 30.0262 13.2622 30.2001 12.7327C30.4752 11.8959 30.7584 11.0617 31.0407 10.2273C31.1194 9.99451 31.1981 9.76165 31.2765 9.52872C31.294 9.47684 31.3115 9.42496 31.3289 9.37308C31.3541 9.29829 31.3793 9.2235 31.4045 9.1487C31.485 8.90937 31.5658 8.67016 31.6484 8.43155C31.6549 8.41264 31.6614 8.39374 31.668 8.37426C31.7247 8.21152 31.737 8.21227 31.9094 8.21198ZM32.957 10.1482C32.8923 10.336 32.841 10.5254 32.7924 10.718C32.7796 10.7679 32.7668 10.8177 32.754 10.8676C32.7231 10.9883 32.6924 11.1091 32.6617 11.23C32.4085 12.2281 32.1001 13.2057 31.772 14.1811C31.7276 14.3133 31.6834 14.4455 31.6392 14.5777C31.3817 15.3472 31.1218 16.1159 30.8614 16.8844C30.821 17.0035 30.7807 17.1227 30.7405 17.2419C30.7205 17.3012 30.7004 17.3605 30.6802 17.4197C30.6502 17.5083 30.6202 17.5969 30.5904 17.6855C30.5813 17.712 30.5723 17.7385 30.563 17.7658C30.5548 17.7901 30.5467 17.8143 30.5383 17.8393C30.5311 17.8605 30.5239 17.8817 30.5165 17.9035C30.4978 17.9614 30.4978 17.9614 30.5013 18.0367C32.1392 18.0367 33.777 18.0367 35.4645 18.0367C35.4288 17.8742 35.3901 17.7227 35.3366 17.5667C35.3291 17.5446 35.3216 17.5225 35.3139 17.4997C35.2894 17.4272 35.2646 17.3548 35.2399 17.2824C35.2225 17.2311 35.205 17.1797 35.1876 17.1283C35.0621 16.7587 34.9348 16.3898 34.807 16.021C34.6758 15.6422 34.5469 15.2626 34.4193 14.8826C34.306 14.5454 34.1907 14.2091 34.074 13.8732C33.6488 12.6484 33.2941 11.4077 32.9829 10.1482C32.9744 10.1482 32.9658 10.1482 32.957 10.1482Z" fill="black"/>
<path d="M81.9938 12.8125C82.0206 12.8191 82.0473 12.8256 82.0749 12.8324C82.5996 12.9629 83.0721 13.1289 83.5189 13.4394C83.5456 13.4571 83.5724 13.4748 83.5999 13.4931C83.6859 13.552 83.7691 13.614 83.8517 13.6777C83.8747 13.6951 83.8747 13.6951 83.8982 13.7127C83.9365 13.7422 83.9734 13.7735 84.0101 13.8051C84.0101 13.8223 84.0101 13.8396 84.0101 13.8573C84.0249 13.8638 84.0397 13.8703 84.055 13.877C84.5482 14.1516 84.9579 14.9414 85.1717 15.4458C85.1828 15.4719 85.1939 15.498 85.2053 15.5249C85.6554 16.6031 85.8385 17.8091 85.7452 18.9754C85.7432 19.004 85.7412 19.0326 85.7391 19.0621C85.7369 19.0898 85.7348 19.1174 85.7325 19.1459C85.7297 19.1829 85.7297 19.1829 85.7268 19.2207C85.7162 19.2905 85.7162 19.2905 85.6645 19.4211C82.9006 19.4211 80.1367 19.4211 77.2891 19.4211C77.3795 20.3654 77.497 21.2806 78.0646 22.0593C78.0798 22.0805 78.0951 22.1018 78.1108 22.1236C78.5362 22.6879 79.1061 23.0882 79.7707 23.3131C79.802 23.324 79.8333 23.3349 79.8655 23.3462C81.246 23.8075 83.1635 23.6273 84.4762 23.0279C84.5625 22.9885 84.6108 22.9735 84.708 22.9735C84.8115 23.3303 84.8115 23.3303 84.8488 23.5085C84.9049 23.7659 84.9724 24.0201 85.0484 24.2722C85.0731 24.3707 85.085 24.4658 85.0958 24.5669C84.2386 24.9543 83.3137 25.1735 82.3815 25.2721C82.3632 25.2742 82.3448 25.2763 82.3259 25.2785C81.9871 25.3171 81.6522 25.3326 81.3113 25.3312C81.2346 25.3309 81.158 25.3312 81.0814 25.3315C80.6147 25.3319 80.1465 25.3082 79.6883 25.2133C79.6604 25.2077 79.6326 25.2021 79.6039 25.1964C79.344 25.1421 79.0913 25.0709 78.8401 24.9848C78.8218 24.9786 78.8035 24.9723 78.7846 24.9659C78.5157 24.873 78.2636 24.7539 78.0129 24.6191C77.9954 24.6098 77.9779 24.6006 77.9599 24.591C77.7082 24.4568 77.4826 24.3059 77.2632 24.1228C77.2491 24.1111 77.2349 24.0995 77.2203 24.0875C76.9284 23.8467 76.6674 23.5886 76.436 23.2869C76.4251 23.2728 76.4141 23.2586 76.4028 23.244C75.3161 21.8306 75.0257 19.9095 75.2243 18.164C75.238 18.0601 75.2546 17.957 75.2728 17.8538C75.2779 17.824 75.2831 17.7943 75.2884 17.7636C75.4612 16.7898 75.7807 15.8162 76.3585 15.0066C76.3762 14.9816 76.3939 14.9566 76.4121 14.9308C76.8399 14.3403 77.3356 13.8612 77.945 13.4668C77.9802 13.4438 78.0151 13.4203 78.0498 13.3965C78.3951 13.1706 78.8072 13.0262 79.202 12.917C79.2246 12.9105 79.2472 12.904 79.2705 12.8973C80.1234 12.6541 81.1278 12.5946 81.9938 12.8125ZM78.6333 15.0328C78.6197 15.0439 78.6061 15.055 78.5921 15.0664C78.4797 15.1594 78.3892 15.2593 78.2972 15.3723C78.2778 15.3959 78.2583 15.4195 78.2383 15.4439C77.7363 16.0755 77.3149 16.9775 77.3149 17.8016C79.3964 17.8016 81.4778 17.8016 83.6223 17.8016C83.6242 17.4482 83.6242 17.4482 83.5916 17.1012C83.5882 17.077 83.5847 17.0528 83.5811 17.0279C83.4818 16.3733 83.2523 15.7481 82.821 15.2417C82.7898 15.205 82.7898 15.205 82.758 15.1674C82.6755 15.0717 82.6755 15.0717 82.5883 14.9805C82.5713 14.9805 82.5542 14.9805 82.5366 14.9805C82.5366 14.9633 82.5366 14.946 82.5366 14.9283C81.3804 14.0218 79.7456 14.1165 78.6333 15.0328Z" fill="black"/>
<path d="M70.3102 7.32712C71.0353 7.32712 71.7604 7.32712 72.5075 7.32712C72.5251 7.46979 72.537 7.60215 72.5366 7.74447C72.5366 7.77458 72.5366 7.77458 72.5367 7.8053C72.5368 7.87261 72.5367 7.93993 72.5367 8.00725C72.5367 8.0564 72.5367 8.10555 72.5368 8.1547C72.5369 8.29109 72.5369 8.42747 72.5368 8.56385C72.5367 8.68326 72.5368 8.80267 72.5368 8.92208C72.5369 9.25564 72.5368 9.58919 72.5367 9.92275C72.5366 10.155 72.5365 10.3873 72.5365 10.6196C72.5362 13.0965 72.5311 15.5734 72.5114 23.5906C72.5113 23.6259 72.5113 23.6259 72.5112 23.662C72.51 24.1291 72.5087 24.5961 72.5075 25.0632C71.7824 25.0632 71.0573 25.0632 70.3102 25.0632C70.3102 19.2103 70.3102 13.3574 70.3102 7.32712Z" fill="black"/>
<path d="M16.9039 2.02459C17.1789 2.58028 16.8664 3.59602 16.6865 4.14956C16.4906 4.73556 16.2171 5.26507 15.8536 5.76297C15.8293 5.79676 15.8055 5.83094 15.7821 5.86543C15.7523 5.90946 15.7207 5.95233 15.689 5.99495C15.6719 5.99495 15.6548 5.99495 15.6373 5.99495C15.631 6.00953 15.6248 6.02411 15.6184 6.03913C15.5517 6.16169 15.4469 6.25896 15.3529 6.36065C15.339 6.37583 15.3251 6.39102 15.3107 6.40666C15.2829 6.43605 15.2534 6.46389 15.2237 6.49125C15.2066 6.49125 15.1895 6.49125 15.172 6.49125C15.1656 6.50687 15.1592 6.5225 15.1526 6.53859C15.1156 6.60399 15.0797 6.63441 15.0169 6.6741C14.9998 6.6741 14.9827 6.6741 14.9652 6.6741C14.9652 6.69134 14.9652 6.70858 14.9652 6.72634C14.8757 6.8047 14.8757 6.8047 14.8101 6.8047C14.8101 6.82194 14.8101 6.83918 14.8101 6.85694C14.7597 6.89469 14.7597 6.89469 14.6889 6.93857C14.6628 6.95483 14.6366 6.9711 14.6097 6.98785C14.5681 7.01356 14.5681 7.01356 14.5257 7.03979C14.4865 7.06509 14.4865 7.06509 14.4465 7.09091C14.2304 7.22935 14.0071 7.34688 13.7761 7.45772C13.755 7.46822 13.7339 7.47872 13.7122 7.48954C13.5288 7.57819 13.3442 7.63532 13.1476 7.68628C13.1181 7.69419 13.0886 7.7021 13.0583 7.71026C12.8088 7.77648 12.583 7.80267 12.3252 7.80382C12.2947 7.80436 12.2643 7.8049 12.2328 7.80545C12.2036 7.80559 12.1743 7.80572 12.1441 7.80586C12.1175 7.80611 12.0908 7.80635 12.0634 7.8066C11.9813 7.79583 11.9467 7.77842 11.889 7.71893C11.6685 7.17276 11.9231 6.24481 12.1217 5.73375C12.1316 5.7078 12.1316 5.7078 12.1416 5.68133C12.2961 5.2782 12.4808 4.89376 12.7162 4.53219C12.7281 4.51395 12.7399 4.49571 12.7522 4.47692C12.7905 4.41841 12.8292 4.36015 12.8681 4.302C12.8804 4.28338 12.8927 4.26476 12.9054 4.24557C12.9358 4.20083 12.968 4.15739 13.0006 4.11426C13.0176 4.11426 13.0347 4.11426 13.0523 4.11426C13.0594 4.09876 13.0665 4.08327 13.0739 4.06731C13.1023 4.0129 13.1318 3.97153 13.1714 3.92508C13.1845 3.90963 13.1977 3.89417 13.2112 3.87825C13.2249 3.86239 13.2385 3.84653 13.2526 3.83019C13.2659 3.81453 13.2791 3.79888 13.2928 3.78275C13.3808 3.67969 13.4708 3.58035 13.5693 3.48736C13.5863 3.48736 13.6034 3.48736 13.621 3.48736C13.621 3.47012 13.621 3.45288 13.621 3.43511C13.7625 3.30451 13.7625 3.30451 13.8278 3.30451C13.8278 3.28727 13.8278 3.27003 13.8278 3.25227C13.8732 3.21346 13.9204 3.17681 13.9683 3.14125C13.9825 3.13074 13.9966 3.12022 14.0112 3.10939C14.1108 3.03576 14.212 2.9649 14.3155 2.89688C14.3526 2.87235 14.3894 2.84723 14.4257 2.82158C14.5586 2.72844 14.6959 2.6543 14.8414 2.58302C14.8995 2.55399 14.9549 2.52355 15.0104 2.48987C15.0885 2.44584 15.1627 2.41477 15.2466 2.38467C15.3265 2.35465 15.4037 2.31878 15.4815 2.28345C15.6 2.22965 15.7188 2.18979 15.8441 2.15519C15.8667 2.14866 15.8892 2.14213 15.9125 2.1354C16.0196 2.10487 16.1245 2.07498 16.235 2.06051C16.3066 2.05884 16.3066 2.05884 16.3352 2.02459C16.5251 2.00116 16.7159 1.9836 16.9039 2.02459Z" fill="black"/>
</svg>
