<svg width="32" height="32" viewBox="0 0 32 32" fill="none" xmlns="http://www.w3.org/2000/svg">
<path d="M27.0682 11.5461C26.9058 11.6721 24.0383 13.2879 24.0383 16.8807C24.0383 21.0363 27.6871 22.5064 27.7963 22.5428C27.7795 22.6324 27.2166 24.5562 25.8725 26.5164C24.674 28.2414 23.4222 29.9636 21.5181 29.9636C19.6139 29.9636 19.1238 28.8575 16.9256 28.8575C14.7834 28.8575 14.0217 30 12.2799 30C10.5382 30 9.32284 28.4038 7.9255 26.4436C6.30694 24.1418 4.99921 20.5658 4.99921 17.1719C4.99921 11.7281 8.53876 8.84105 12.0223 8.84105C13.8733 8.84105 15.4162 10.0564 16.5784 10.0564C17.6845 10.0564 19.4094 8.76825 21.5153 8.76825C22.3133 8.76825 25.1808 8.84105 27.0682 11.5461ZM20.5156 6.46362C21.3864 5.43031 22.0025 3.99657 22.0025 2.56283C22.0025 2.36401 21.9857 2.16239 21.9493 1.99997C20.5324 2.05317 18.8466 2.94366 17.8301 4.12258C17.032 5.02987 16.2871 6.46362 16.2871 7.91696C16.2871 8.13538 16.3235 8.3538 16.3403 8.42381C16.4299 8.44061 16.5756 8.46022 16.7212 8.46022C17.9925 8.46022 19.5915 7.60893 20.5156 6.46362Z" fill="black"/>
</svg>
