<svg width="122" height="32" viewBox="0 0 122 32" fill="none" xmlns="http://www.w3.org/2000/svg">
<path d="M11.4498 29.6021V26.8222C11.4498 23.0493 11.0056 21.1829 9.47096 17.9261L2 2.00033H7.16901L13.5095 15.6225C15.367 19.5943 16.1748 21.6593 16.1748 26.2266V29.6023L11.4498 29.6021ZM14.4787 15.3444L20.3747 2H25.3419L19.365 15.3445L14.4787 15.3444Z" fill="#FC3F1D"/>
<path d="M110.19 22.8507L106.111 29.6021H101.224L107.605 19.1968L101.467 9.62537H106.878L110.755 15.6622L114.228 9.62537H119.034L113.299 19.316L119.922 29.6021H114.511L110.19 22.8507ZM88.5432 17.8067H95.247V17.4098C95.247 14.9075 94.5199 12.9614 92.1373 12.9614C89.8355 12.9614 88.6643 14.6295 88.5432 17.8067ZM93.1874 29.9993C87.049 29.9993 83.5759 26.6236 83.5759 19.6734C83.5759 13.6367 86.3625 9.22819 92.218 9.22819C97.024 9.22819 100.133 11.8494 100.133 18.7996V21.3018H88.5432C88.7453 24.6378 90.0778 26.2661 93.5911 26.2661C95.9335 26.2661 98.4372 25.3924 99.9314 24.3996V28.252C98.5182 29.205 96.2566 29.9995 93.1874 29.9995M67.7059 19.7531C67.7059 24.2803 68.9984 26.2661 71.6231 26.2661C74.3289 26.2661 75.702 24.2407 75.702 19.594C75.702 14.987 74.4099 12.9614 71.8248 12.9614C69.0789 12.9614 67.7059 15.0269 67.7059 19.7531ZM62.7388 19.7529C62.7388 13.0806 65.9695 9.22819 70.6135 9.22819C72.7136 9.22819 74.4905 10.1815 75.702 11.9686V2H80.5075V29.6028H76.0656L75.8231 27.0216C74.5308 28.9675 72.673 30 70.4116 30C65.8885 30 62.7388 26.3463 62.7388 19.7536M48.2006 29.6028H43.3948V9.62687H48.0794L48.2006 11.295H48.4427C49.4121 10.3419 51.1081 9.30923 53.9753 9.30923C57.8925 9.30923 59.5078 11.0567 59.5078 15.0282V29.6036H54.7024V15.5048C54.7024 13.9957 53.935 13.2807 52.2388 13.2807C50.5022 13.2807 49.089 14.1942 48.2006 15.2667V29.6028ZM34.6719 20.2698H33.9854C29.8661 20.2698 28.2106 21.1039 28.2106 23.447C28.2106 25.2345 29.22 26.4257 31.2393 26.4257C32.9352 26.4257 34.0661 25.7107 34.6717 24.8371L34.6719 20.2698ZM39.4774 24.7179C39.4774 26.3463 39.5584 27.9747 39.7198 29.6028H35.0353C34.8738 29.2056 34.7123 28.5307 34.6717 28.0144H34.47C33.541 28.9675 32.3294 29.8809 29.5027 29.8809C25.7874 29.8809 23.2837 27.6172 23.2837 23.5663C23.2837 19.5151 26.5547 17.1324 33.9046 17.1324H34.6719V16.0202C34.6719 13.8755 33.6219 13.0813 31.3201 13.0813C28.8565 13.0813 26.0298 14.114 24.7373 15.0672V11.1354C26.1913 10.3012 28.695 9.30839 31.8853 9.30839C36.9739 9.30839 39.4774 11.1352 39.4774 15.9805V24.7179Z" fill="black"/>
</svg>
