<svg width="32" height="32" viewBox="0 0 32 32" fill="none" xmlns="http://www.w3.org/2000/svg">
<path d="M30.0004 16C30.0004 8.26801 23.7324 2 16.0004 2C8.26844 2 2.00043 8.26801 2.00043 16C2.00043 23.732 8.26844 30 16.0004 30C23.7324 30 30.0004 23.732 30.0004 16Z" fill="white"/>
<path d="M29.7817 16C29.7817 8.38883 23.6116 2.21875 16.0004 2.21875C8.38925 2.21875 2.21918 8.38883 2.21918 16C2.21918 23.6112 8.38925 29.7812 16.0004 29.7812C23.6116 29.7812 29.7817 23.6112 29.7817 16Z" stroke="black" stroke-opacity="0.1"/>
<path fill-rule="evenodd" clip-rule="evenodd" d="M25.1414 10.4982C25.1005 10.3913 25.0292 10.2614 24.9367 10.1207C24.7515 9.83761 24.472 9.49041 24.1622 9.16277V9.16102C23.831 8.82804 23.4927 8.53959 23.2185 8.34911C23.0814 8.25474 22.9568 8.17997 22.8535 8.13902C22.8019 8.11762 22.7502 8.10341 22.7004 8.09982C22.6523 8.09628 22.5917 8.10516 22.5455 8.15144L16.1251 14.4046C16.0538 14.474 15.9381 14.474 15.8669 14.4046L9.44645 8.15144C9.40016 8.10695 9.33961 8.09807 9.29158 8.09982C9.24349 8.10341 9.19008 8.11762 9.13845 8.13902C9.03516 8.17997 8.90876 8.25474 8.77344 8.34911C8.49926 8.53959 8.16094 8.82983 7.8298 9.16102V9.16277C7.51996 9.49041 7.24044 9.83761 7.05529 10.1207C6.96268 10.2614 6.8897 10.3913 6.8505 10.4982C6.83094 10.5516 6.81668 10.605 6.81314 10.6531C6.81134 10.7012 6.82027 10.7635 6.86831 10.8097L14.0419 17.7911C14.106 17.8534 14.1416 17.9388 14.1416 18.0279L14.1345 26.5672C14.1345 26.6313 14.1718 26.6793 14.2039 26.7096C14.2377 26.7416 14.2823 26.7683 14.3321 26.7915C14.4318 26.8396 14.5689 26.8841 14.7309 26.9215C15.0585 26.9963 15.5054 27.0497 16.0004 27.0497C16.4954 27.0497 16.9423 26.9963 17.2699 26.9215C17.4319 26.8841 17.569 26.8396 17.6687 26.7915C17.7186 26.7683 17.7631 26.7399 17.7969 26.7096C17.829 26.6793 17.8664 26.6313 17.8664 26.5672L17.8592 18.0279C17.8592 17.9388 17.8948 17.8534 17.9589 17.7911L25.1325 10.8097C25.1806 10.7635 25.1895 10.7012 25.1877 10.6531C25.1859 10.6032 25.1699 10.5498 25.1503 10.4982H25.1414Z" fill="url(#paint0_linear_128_2741)"/>
<defs>
<linearGradient id="paint0_linear_128_2741" x1="6.81292" y1="17.9325" x2="25.015" y2="16.3592" gradientUnits="userSpaceOnUse">
<stop offset="0.3" stop-color="#FF6A16"/>
<stop offset="0.542948" stop-color="#FF3227"/>
<stop offset="0.89" stop-color="#FF66DD"/>
</linearGradient>
</defs>
</svg>
