<svg width="96" height="32" viewBox="0 0 96 32" fill="none" xmlns="http://www.w3.org/2000/svg">
<path d="M15.5644 2H16.3272C18.9754 2.05757 21.5805 3.12262 23.4515 5.00804C22.7607 5.71328 22.0554 6.38972 21.379 7.09496C20.3283 6.14505 19.0618 5.41103 17.6801 5.15197C15.6364 4.72019 13.4344 5.10879 11.7217 6.27458C9.85066 7.49795 8.58413 9.57048 8.31067 11.7869C8.00843 13.9746 8.62731 16.2774 10.0522 17.9757C11.4194 19.6309 13.5063 20.6671 15.6652 20.7391C17.6801 20.8542 19.7814 20.2353 21.2495 18.8249C22.4008 17.8318 22.9334 16.3206 23.1061 14.8525C20.7169 14.8525 18.3278 14.8669 15.9387 14.8525V11.8877H25.9989C26.5171 15.0684 25.7687 18.6522 23.3507 20.9262C21.7388 22.5382 19.508 23.4881 17.234 23.6752C15.0319 23.8911 12.7579 23.4737 10.8006 22.4086C8.4546 21.1565 6.58358 19.0408 5.66247 16.5509C4.79893 14.2624 4.78453 11.6718 5.59051 9.36898C6.32452 7.26767 7.73498 5.41103 9.54842 4.1157C11.2899 2.83477 13.4056 2.12953 15.5644 2Z" fill="#3780FF"/>
<path d="M73.2773 2.74832H76.3573V23.3009C75.3355 23.3009 74.2992 23.3153 73.2773 23.2865C73.2917 16.45 73.2773 9.59917 73.2773 2.74832Z" fill="#38B137"/>
<path d="M32.8513 9.87276C34.751 9.51295 36.8092 9.91594 38.3779 11.0529C39.8028 12.0604 40.7959 13.6436 41.0981 15.3707C41.4867 17.3713 40.9974 19.5589 39.702 21.1421C38.306 22.9124 36.0176 23.8623 33.7868 23.7184C31.743 23.6032 29.7569 22.5814 28.5479 20.9118C27.1806 19.0696 26.8496 16.5365 27.598 14.3776C28.3464 12.0604 30.4621 10.2901 32.8513 9.87276ZM33.283 12.6073C32.5058 12.8088 31.7862 13.255 31.2681 13.8883C29.872 15.5578 29.9584 18.278 31.4984 19.8324C32.3763 20.7247 33.7004 21.1421 34.9238 20.8974C36.0608 20.6959 37.0538 19.9331 37.6007 18.9257C38.5506 17.213 38.2772 14.8526 36.8236 13.5141C35.8881 12.6505 34.5208 12.2907 33.283 12.6073Z" fill="#FA3913"/>
<path d="M48.1084 9.87272C50.2817 9.45534 52.6564 10.0598 54.2828 11.5854C56.931 13.9602 57.2188 18.4075 54.9592 21.1421C53.592 22.8692 51.3755 23.8191 49.1879 23.7183C47.101 23.6608 45.0429 22.6245 43.8051 20.9118C42.4091 19.0264 42.1068 16.4357 42.8984 14.2337C43.69 11.9884 45.7625 10.2757 48.1084 9.87272ZM48.5402 12.6073C47.763 12.8088 47.0434 13.255 46.5253 13.8738C45.1436 15.5146 45.2012 18.1916 46.6836 19.7604C47.5615 20.6959 48.9288 21.1565 50.1953 20.8974C51.318 20.6815 52.3254 19.9331 52.8723 18.9256C53.8078 17.1985 53.5344 14.8381 52.0664 13.4996C51.1309 12.6361 49.7636 12.2907 48.5402 12.6073Z" fill="#FCBD06"/>
<path d="M61.0453 10.7074C62.7004 9.67118 64.9024 9.38333 66.6871 10.2757C67.2484 10.5203 67.709 10.9377 68.1551 11.3551C68.1695 10.9665 68.1551 10.5635 68.1695 10.1605C69.1338 10.1749 70.0981 10.1605 71.0768 10.1749V22.8691C71.0624 24.7834 70.5731 26.8127 69.1914 28.2088C67.6802 29.7488 65.363 30.2237 63.2761 29.9071C61.0453 29.5761 59.1023 27.9497 58.2388 25.8916C59.1023 25.4742 60.009 25.1432 60.9014 24.7546C61.4051 25.9348 62.427 26.9422 63.7079 27.1725C64.9888 27.4028 66.4712 27.0862 67.306 26.0211C68.1983 24.9273 68.1983 23.4305 68.1551 22.0919C67.4931 22.7396 66.7303 23.3153 65.8092 23.5312C63.8086 24.0925 61.6066 23.4017 60.0666 22.0488C58.5122 20.6959 57.5911 18.609 57.6775 16.5364C57.7206 14.1904 59.0447 11.9308 61.0453 10.7074ZM64.0245 12.5497C63.1466 12.6936 62.3262 13.183 61.7649 13.8594C60.412 15.4714 60.412 18.0476 61.7793 19.6308C62.5565 20.5663 63.8086 21.0845 65.0176 20.9549C66.1546 20.8398 67.2052 20.1202 67.7665 19.1271C68.7164 17.4432 68.5581 15.1547 67.2772 13.6867C66.4856 12.78 65.2191 12.3338 64.0245 12.5497Z" fill="#3780FF"/>
<path d="M80.0572 11.4415C81.7843 9.82954 84.4469 9.28263 86.6633 10.1318C88.7646 10.9234 90.1031 12.9239 90.7795 14.9821C87.6564 16.2774 84.5476 17.5583 81.4245 18.8537C81.8562 19.674 82.5183 20.4225 83.4106 20.7247C84.6628 21.1709 86.1596 21.0125 87.2102 20.1778C87.6276 19.8611 87.9586 19.4438 88.2752 19.0408C89.0668 19.5733 89.8584 20.0914 90.65 20.6239C89.5274 22.3079 87.642 23.4881 85.6127 23.6752C83.3674 23.9486 80.9783 23.0851 79.5247 21.3292C77.1355 18.5658 77.3658 13.9314 80.0572 11.4415ZM81.5972 14.1041C81.1078 14.8094 80.9063 15.6729 80.9207 16.5221C83.0076 15.6585 85.0945 14.795 87.1814 13.917C86.836 13.111 86.0013 12.6217 85.1521 12.4922C83.7848 12.2475 82.36 12.9815 81.5972 14.1041Z" fill="#FA3913"/>
</svg>
