<svg width="32" height="32" viewBox="0 0 32 32" fill="none" xmlns="http://www.w3.org/2000/svg">
<path d="M29.443 16.3358C29.443 15.3902 29.3515 14.4142 29.199 13.4992H15.9922V18.8978H23.5563C23.2513 20.6364 22.2448 22.1614 20.7503 23.1374L25.2644 26.645C27.9179 24.1744 29.443 20.5754 29.443 16.3358Z" fill="#4280EF"/>
<path d="M15.9975 30C19.7795 30 22.9516 28.7495 25.2696 26.6144L20.7556 23.1373C19.505 23.9914 17.8885 24.4794 15.9975 24.4794C12.3374 24.4794 9.25681 22.0088 8.12828 18.7148L3.49219 22.2833C5.87124 27.0109 10.6903 30 15.9975 30Z" fill="#34A353"/>
<path d="M8.123 18.6843C7.54349 16.9458 7.54349 15.0547 8.123 13.3162L3.48691 9.71713C1.50436 13.6822 1.50436 18.3488 3.48691 22.2834L8.123 18.6843Z" fill="#F6B704"/>
<path d="M15.9974 7.55165C17.98 7.52115 19.932 8.28367 21.3656 9.65619L25.3611 5.63011C22.8296 3.25106 19.4745 1.97003 15.9974 2.00053C10.6903 2.00053 5.87124 4.9896 3.49219 9.7172L8.12828 13.3163C9.25681 9.9917 12.3374 7.55165 15.9974 7.55165Z" fill="#E54335"/>
</svg>
