<svg width="172" height="32" viewBox="0 0 172 32" fill="none" xmlns="http://www.w3.org/2000/svg">
<path fill-rule="evenodd" clip-rule="evenodd" d="M109.388 2.19303V29.2178C109.245 29.5081 109.031 29.5711 108.784 29.5711C107.463 29.5711 106.143 29.5808 104.822 29.5669C104.271 29.5611 104.072 29.3363 104.054 28.7684C104.042 28.4031 104.052 28.0369 104.052 27.5678C103.876 27.7121 103.774 27.7823 103.689 27.8686C102.463 29.1059 100.972 29.7953 99.2458 29.9352C95.6495 30.2271 92.8942 28.7414 90.939 25.7958C88.2104 21.6853 88.7038 15.9879 92.1005 12.5225C94.5601 10.0131 97.5362 9.18076 100.951 10.2035C101.989 10.5143 102.889 11.0889 103.648 11.8701C103.728 11.9524 103.817 12.0263 103.905 12.1013C103.915 12.1104 103.941 12.1025 104.05 12.1025L104.05 11.5001L104.05 3.35962C104.05 3.18515 104.048 3.01074 104.051 2.8364C104.062 2.14067 104.178 2.0143 104.863 2.00928C105.969 2.00132 107.076 2.00641 108.183 2.00655C108.377 2.00655 108.575 1.98679 108.765 2.01591C108.963 2.046 109.154 2.12412 109.388 2.19303ZM94.6182 19.9662C94.6318 20.1466 94.6344 20.3998 94.6734 20.6474C94.7274 20.9911 94.7849 21.3376 94.8822 21.6707C95.4739 23.6985 97.1495 25.0176 99.2801 25.1485C101.324 25.2739 103.162 24.171 103.987 22.2807C104.653 20.7522 104.661 19.1936 104.053 17.6426C102.635 14.0255 97.9023 13.7584 95.8179 16.3299C94.9728 17.3726 94.6493 18.5819 94.6182 19.9662ZM13.857 29.4497C13.5598 29.4995 13.3388 29.5667 13.1172 29.5686C11.8749 29.5792 10.6324 29.5769 9.39008 29.573C8.60186 29.5706 8.5049 29.4695 8.5042 28.6465C8.50182 25.8563 8.50315 23.0663 8.50294 20.2764C8.50294 20.1019 8.5077 19.9273 8.4991 19.7532C8.47475 19.267 8.34877 19.1081 7.88407 18.962C7.27381 18.77 6.64906 18.6149 6.05566 18.3806C3.97709 17.5598 2.70871 16.0447 2.32404 13.8419C2.1679 12.9477 2.10278 12.0372 2.01401 11.1323C1.98603 10.8472 1.96588 10.5411 2.30788 10.3018H7.22281C7.57481 10.5135 7.55285 10.794 7.57901 11.0647C7.64022 11.6996 7.67065 12.3429 7.80251 12.9638C7.8796 13.3265 8.07064 13.7012 8.31127 13.9855C8.77982 14.5391 9.46038 14.4784 9.87163 13.8904C11.9946 10.8552 14.9714 9.53403 18.6105 9.56427C21.1503 9.58542 23.4209 10.3792 25.3369 12.0642C27.2262 13.7258 28.2497 15.8417 28.292 18.3484C28.3506 21.8156 28.3098 25.2843 28.3054 28.7527C28.3047 29.4239 28.1553 29.5677 27.4756 29.5718C26.2332 29.5788 24.9908 29.5777 23.7485 29.5727C22.9951 29.5697 22.8691 29.4457 22.8681 28.6886C22.8641 25.6467 22.8592 22.6046 22.8699 19.5627C22.8731 18.6525 22.714 17.7915 22.2681 16.9914C21.274 15.2077 19.5175 14.3638 17.5218 14.7117C15.7411 15.022 14.3033 16.538 14.0055 18.445C13.94 18.8642 13.9147 19.2934 13.9136 19.7181C13.9057 22.6437 13.9105 25.5694 13.9068 28.495C13.9065 28.7808 13.8778 29.0667 13.857 29.4497ZM45.7328 23.2646C46.7956 23.8612 49.1609 25.808 49.3704 26.2373C49.3146 26.6719 48.9692 26.9181 48.6693 27.181C47.0063 28.638 45.0729 29.5436 42.8878 29.8589C40.5103 30.2021 38.1941 29.9359 36.0171 28.8771C33.1407 27.4785 31.3636 25.2003 30.7448 22.0606C30.2438 19.519 30.549 17.0703 31.8383 14.8043C33.3818 12.0915 35.7629 10.5062 38.8164 9.96104C41.0631 9.55994 43.2722 9.75291 45.3628 10.7336C48.2227 12.0753 49.8494 14.3602 50.327 17.4465C50.4711 18.3772 50.4479 19.3371 50.4574 20.2841C50.4646 21.0034 50.3219 21.1199 49.5908 21.1204C45.2813 21.1237 40.9718 21.1215 36.6624 21.1242C36.3965 21.1244 36.1305 21.1509 35.7908 21.1691C35.8474 21.4695 35.8669 21.7165 35.9413 21.9458C36.3901 23.3293 37.3183 24.3065 38.6773 24.7617C40.9811 25.5333 43.1522 25.229 45.0981 23.6988C45.3036 23.5372 45.5303 23.402 45.7328 23.2646ZM36.0297 17.3976C36.6985 17.568 44.5826 17.5386 45.0461 17.3601C44.8787 16.5641 44.4915 15.89 43.8891 15.3416C42.0361 13.6546 38.5837 13.8266 36.9014 15.6862C36.4676 16.1657 36.1403 16.7032 36.0297 17.3976ZM122.318 29.9737C118.262 30.074 114.198 27.4792 112.676 23.3259C110.524 17.4498 114.321 10.9393 120.513 9.94854C124.246 9.35132 127.48 10.3709 130.082 13.1458C134.008 17.3347 133.428 24.2407 128.887 27.756C126.979 29.2332 124.829 29.9928 122.318 29.9737ZM127.257 19.8226C127.221 19.5206 127.196 19.1135 127.121 18.7159C126.695 16.4743 125.033 14.9705 122.776 14.7693C120.607 14.5759 118.665 15.784 117.871 17.8356C117.492 18.8134 117.427 19.8225 117.574 20.8611C118.039 24.1514 121.636 26.0378 124.593 24.5084C126.441 23.5528 127.157 21.9151 127.257 19.8226ZM145.033 29.9701C140.949 30.0613 136.985 27.5876 135.389 23.6224C133.216 18.2235 136.145 11.9686 141.733 10.2987C145.882 9.05843 149.603 9.9269 152.615 13.0901C157.023 17.7194 155.851 25.3603 150.309 28.5617C148.66 29.5144 146.889 30.0139 145.033 29.9701ZM149.858 19.7866C149.818 19.4756 149.786 19.0895 149.718 18.7098C149.354 16.6804 147.785 15.1156 145.831 14.8197C143.618 14.4847 141.635 15.4549 140.677 17.3631C140.12 18.4711 140.002 19.6441 140.178 20.8676C140.65 24.1623 144.236 26.0394 147.198 24.5064C149.072 23.5367 149.762 21.8653 149.858 19.7866ZM57.2454 20.0863C57.1052 19.8568 56.9837 19.6389 56.8448 19.4327C55.0672 16.7963 53.287 14.1618 51.508 11.5264C51.3887 11.3496 51.2606 11.1767 51.1625 10.9885C50.9601 10.6001 51.1106 10.2909 51.5358 10.2143C51.6872 10.1872 51.8454 10.1941 52.0007 10.1939C53.3986 10.1926 54.797 10.2133 56.1943 10.1833C56.7472 10.1713 57.0833 10.3819 57.379 10.8354C58.3737 12.3622 59.4036 13.8661 60.4217 15.3776C60.5612 15.5847 60.7096 15.7857 60.9067 16.0642C61.0656 15.8544 61.195 15.6994 61.3074 15.5328C62.3803 13.9413 63.4616 12.3551 64.5134 10.7496C64.7787 10.3445 65.0886 10.1796 65.5671 10.1861C67.0426 10.2062 68.5183 10.1937 69.994 10.1937C70.3558 10.1937 70.7082 10.209 70.8373 10.7791C69.8856 12.3001 68.797 13.8269 67.7551 15.3834C66.7212 16.9283 65.6802 18.4686 64.6149 20.0515C64.7961 20.3259 64.9552 20.5859 65.1329 20.8327C66.9119 23.3028 68.6942 25.7706 70.4745 28.2398C70.6105 28.4284 70.7589 28.612 70.8654 28.8168C71.0485 29.1687 70.8894 29.4807 70.502 29.5548C70.3701 29.5799 70.2311 29.5732 70.0955 29.5734C68.6198 29.5746 67.144 29.5593 65.6686 29.5827C65.2071 29.59 64.9158 29.4237 64.6556 29.052C63.5662 27.4955 62.4528 25.9555 61.3465 24.4108C61.2366 24.2573 61.1146 24.1125 60.9478 23.8992C60.786 24.1113 60.6572 24.2715 60.5379 24.4384C59.4437 25.968 58.3403 27.4915 57.2655 29.0347C56.9918 29.4278 56.6826 29.5907 56.2031 29.583C54.7474 29.5589 53.2909 29.5743 51.8347 29.5741C51.7374 29.5741 51.6401 29.5766 51.5435 29.5696C50.945 29.5255 50.776 29.1798 51.1005 28.6611C51.1724 28.5462 51.256 28.4386 51.3354 28.3285C53.1845 25.7655 55.034 23.2027 56.8819 20.6388C57.0051 20.4679 57.1141 20.2867 57.2454 20.0863ZM76.6739 14.8874C76.318 14.8686 76.0706 14.8458 75.823 14.8442C75.0079 14.8391 74.1928 14.8488 73.3776 14.8391C72.7097 14.8313 72.5127 14.6402 72.5035 13.9661C72.4904 12.9978 72.4897 12.029 72.5037 11.0607C72.513 10.4061 72.7247 10.2092 73.3969 10.1967C74.0372 10.1847 74.6781 10.2025 75.3181 10.1861C76.2242 10.1631 76.543 9.89387 76.6298 8.98261C76.6938 8.30998 76.6712 7.62877 76.6793 6.95133C76.6853 6.4478 76.6651 5.94372 76.682 5.44075C76.6966 4.99915 76.8472 4.83522 77.2844 4.83082C78.6623 4.81693 80.0402 4.81811 81.418 4.83389C81.6097 4.8362 81.8002 4.95363 82.0416 5.03483V10.1187C82.3306 10.1479 82.5533 10.1882 82.7763 10.1897C83.8242 10.1969 84.8722 10.1886 85.9202 10.1953C86.6684 10.1999 86.7965 10.3307 86.8002 11.0826C86.805 12.0704 86.8012 13.0584 86.8011 14.0462C86.8011 14.3202 86.8074 14.5967 86.5319 14.8551H82.0877C82.069 15.1452 82.0444 15.3516 82.0442 15.5583C82.0415 17.6115 82.03 19.6648 82.0521 21.7177C82.0574 22.2155 82.1366 22.7217 82.2532 23.207C82.4555 24.0488 83.019 24.5765 83.8458 24.8245C84.7787 25.1041 85.7227 25.0753 86.6712 24.9208C87.3963 24.8029 87.5849 24.9513 87.5934 25.6881C87.6045 26.6953 87.6043 27.7025 87.5928 28.7097C87.5867 29.2735 87.4768 29.4335 86.9724 29.5345C85.0828 29.9128 83.1937 29.97 81.3291 29.3978C78.4763 28.5218 76.7476 26.2685 76.6908 23.2651C76.6434 20.7478 76.6765 18.2292 76.674 15.7111C76.6736 15.4623 76.6739 15.2137 76.6739 14.8874ZM163.25 29.4697C162.934 29.5128 162.71 29.5681 162.486 29.5697C161.263 29.5785 160.039 29.5776 158.816 29.5726C158.083 29.5697 157.967 29.4591 157.967 28.7301C157.962 25.2808 157.964 21.8315 157.964 18.3822C157.964 15.9988 157.963 13.6153 157.966 11.2318C157.967 10.9643 157.994 10.6968 158.014 10.3465C158.273 10.2927 158.507 10.2041 158.742 10.2016C160.004 10.1876 161.266 10.1905 162.528 10.1996C162.734 10.2011 162.94 10.2625 163.162 10.299C163.514 11.1238 163.215 11.9772 163.406 12.8829C163.543 12.6918 163.642 12.5671 163.727 12.4329C164.902 10.5654 167.232 9.59107 169.386 10.0691C169.837 10.1693 169.987 10.317 169.991 10.7823C170.004 12.0999 170.003 13.4177 169.989 14.7353C169.987 14.933 169.888 15.1298 169.816 15.3938C169.527 15.3735 169.285 15.3573 169.043 15.3395C168.387 15.291 167.723 15.1501 167.078 15.211C165.457 15.3643 164.377 16.2898 163.772 17.7792C163.448 18.58 163.333 19.4202 163.335 20.2823C163.34 23.0145 163.339 25.7469 163.333 28.479C163.332 28.7816 163.284 29.0842 163.25 29.4697Z" fill="#8ED500"/>
</svg>
