<svg width="32" height="32" viewBox="0 0 32 32" fill="none" xmlns="http://www.w3.org/2000/svg">
<path d="M3.02488 4.99976C2.45913 4.99976 2.00049 5.4584 2.00049 6.02415V10.1217C2.00049 13.3277 4.59942 15.9266 7.80537 15.9266H8.82976V26.512C8.82976 27.0777 9.2884 27.5363 9.85415 27.5363H15.3176C15.8833 27.5363 16.342 27.0777 16.342 26.512V15.5851C16.342 13.8879 17.7179 12.512 19.4151 12.512C21.1123 12.512 22.4883 13.8879 22.4883 15.5851V26.512C22.4883 27.0777 22.9469 27.5363 23.5127 27.5363H28.9761C29.5418 27.5363 30.0005 27.0777 30.0005 26.512V15.5851C30.0005 9.73898 25.2612 4.99976 19.4151 4.99976C15.7111 4.99976 12.4525 6.90275 10.5621 9.78024H10.5371C9.97132 9.78024 9.51268 9.3216 9.51268 8.75585V6.02415C9.51268 5.4584 9.05404 4.99976 8.48829 4.99976H3.02488Z" fill="#8BC94D"/>
<path fill-rule="evenodd" clip-rule="evenodd" d="M30.0004 16.2681H22.4882V26.512C22.4882 27.0777 22.9469 27.5364 23.5126 27.5364H28.9761C29.5418 27.5364 30.0004 27.0777 30.0004 26.512V16.2681ZM16.3419 16.2681H8.82971V26.512C8.82971 27.0777 9.28835 27.5364 9.8541 27.5364H15.3175C15.8833 27.5364 16.3419 27.0777 16.3419 26.512V16.2681Z" fill="#7DB545"/>
</svg>
