<svg width="155" height="32" viewBox="0 0 155 32" fill="none" xmlns="http://www.w3.org/2000/svg">
<path d="M19.095 5.06073C20.4252 3.72101 22.2646 2.88627 24.3014 2.88627C27.0137 2.88627 29.3831 4.35996 30.6406 6.54472C31.7318 6.07067 32.9476 5.80272 34.2259 5.80272C39.1205 5.80272 43.0799 9.6982 43.0799 14.5006C43.0799 19.3029 39.1101 23.1984 34.2259 23.1984C33.6231 23.1984 33.0412 23.1365 32.48 23.0335C31.368 24.9606 29.2584 26.2591 26.8267 26.2591C25.8083 26.2591 24.8522 26.0324 24 25.6202C22.8777 28.1965 20.2589 30 17.2036 30C14.1483 30 11.3113 28.042 10.2721 25.2904C9.81485 25.3831 9.3472 25.4347 8.85878 25.4347C5.07606 25.4347 2 22.4152 2 18.6846C2 16.1907 3.38215 14.0059 5.42939 12.8414C5.00331 11.8933 4.77469 10.8524 4.77469 9.76003C4.77469 5.47295 8.34956 2 12.7558 2C15.3434 2 17.6401 3.20574 19.095 5.06073Z" fill="#0D9DDA"/>
<path d="M49.5258 20.6324C49.4427 20.8592 49.557 20.9004 49.5882 20.9416C49.848 21.1271 50.1078 21.2611 50.3676 21.4053C51.7601 22.137 53.0799 22.3534 54.4621 22.3534C57.2679 22.3534 59.0138 20.8695 59.0138 18.4889V18.4477C59.0138 16.2423 57.0497 15.4385 55.1999 14.8614L54.9609 14.7892C53.5684 14.3358 52.3629 13.9545 52.3629 13.0476V13.0064C52.3629 12.2335 53.0695 11.6564 54.1503 11.6564C55.3662 11.6564 56.7899 12.0583 57.7148 12.5632C57.7148 12.5632 57.985 12.7384 58.0889 12.4808C58.1409 12.3365 58.6085 11.0896 58.6605 10.9556C58.7124 10.8113 58.6189 10.6979 58.5254 10.6464C57.4654 10.0075 56.0105 9.57465 54.5036 9.57465H54.2231C51.6562 9.57465 49.8584 11.1102 49.8584 13.3155V13.3568C49.8584 15.6755 51.8433 16.4381 53.6827 16.9637L53.984 17.0564C55.335 17.4687 56.4989 17.819 56.4989 18.7568V18.7981C56.4989 19.6637 55.7403 20.3027 54.5244 20.3027C54.0568 20.3027 52.5395 20.2924 50.908 19.2721C50.7105 19.1588 50.5962 19.0763 50.4507 18.9836C50.3676 18.932 50.1701 18.8496 50.087 19.1072L49.5362 20.6324H49.5258Z" fill="#014486"/>
<path d="M90.604 20.6324C90.5209 20.8592 90.6352 20.9004 90.6663 20.9416C90.9261 21.1271 91.1859 21.2611 91.4457 21.4053C92.8383 22.137 94.1581 22.3534 95.5402 22.3534C98.3461 22.3534 100.092 20.8695 100.092 18.4889V18.4477C100.092 16.2423 98.1279 15.4385 96.2781 14.8614L96.039 14.7892C94.6465 14.3358 93.441 13.9545 93.441 13.0476V13.0064C93.441 12.2335 94.1477 11.6564 95.2285 11.6564C96.4339 11.6564 97.868 12.0583 98.7929 12.5632C98.7929 12.5632 99.0631 12.7384 99.1671 12.4808C99.219 12.3365 99.6867 11.0896 99.7386 10.9556C99.7906 10.8113 99.6971 10.6979 99.6035 10.6464C98.5435 10.0075 97.0887 9.57465 95.5818 9.57465H95.3012C92.7344 9.57465 90.9365 11.1102 90.9365 13.3155V13.3568C90.9365 15.6755 92.9214 16.4381 94.7608 16.9637L95.0622 17.0564C96.4132 17.4687 97.5771 17.819 97.5771 18.7568V18.7981C97.5771 19.6637 96.8185 20.3027 95.6026 20.3027C95.1349 20.3027 93.6177 20.2924 91.9861 19.2721C91.7887 19.1588 91.6744 19.0763 91.5289 18.9836C91.4769 18.9526 91.2379 18.8599 91.1652 19.1072L90.6144 20.6324H90.604Z" fill="#014486"/>
<path d="M120.979 13.47C120.75 12.6971 120.386 12.0169 119.908 11.4501C119.43 10.8833 118.827 10.4196 118.11 10.0898C117.393 9.76004 116.552 9.59515 115.606 9.59515C114.66 9.59515 113.808 9.76004 113.091 10.0898C112.374 10.4196 111.771 10.873 111.293 11.4501C110.815 12.0169 110.462 12.6971 110.223 13.47C109.994 14.2326 109.88 15.0777 109.88 15.9639C109.88 16.8605 109.994 17.6953 110.223 18.4579C110.451 19.2308 110.815 19.9109 111.293 20.4777C111.771 21.0446 112.374 21.498 113.091 21.8278C113.808 22.1472 114.65 22.3121 115.606 22.3121C116.552 22.3121 117.404 22.1472 118.11 21.8278C118.827 21.5083 119.43 21.0549 119.908 20.4777C120.386 19.9109 120.74 19.2308 120.979 18.4579C121.207 17.6953 121.321 16.8502 121.321 15.9639C121.332 15.0777 121.207 14.2429 120.979 13.47ZM118.64 15.9743C118.64 17.3243 118.391 18.3857 117.892 19.138C117.404 19.88 116.655 20.2407 115.606 20.2407C114.567 20.2407 113.818 19.88 113.33 19.138C112.842 18.3857 112.592 17.3243 112.592 15.9743C112.592 14.6242 112.842 13.5731 113.33 12.8311C113.818 12.0891 114.556 11.7387 115.606 11.7387C116.645 11.7387 117.393 12.0994 117.892 12.8311C118.391 13.5731 118.64 14.6242 118.64 15.9743Z" fill="#014486"/>
<path fill-rule="evenodd" clip-rule="evenodd" d="M140.197 19.8698C140.124 19.6431 139.895 19.7255 139.895 19.7255C139.552 19.8595 139.189 19.9728 138.804 20.0347C138.409 20.0965 137.983 20.1274 137.526 20.1274C136.393 20.1274 135.489 19.7976 134.845 19.1278C134.2 18.4682 133.837 17.3965 133.837 15.9537C133.837 14.6346 134.159 13.6556 134.741 12.893C135.312 12.1407 136.185 11.7594 137.339 11.7594C138.305 11.7594 139.043 11.8727 139.812 12.1097C139.812 12.1097 139.989 12.1922 140.082 11.9552C140.29 11.3884 140.436 10.9864 140.664 10.3681C140.727 10.1929 140.571 10.1105 140.519 10.0899C140.217 9.9662 139.5 9.7807 138.96 9.69826C138.451 9.62612 137.869 9.5849 137.204 9.5849C136.216 9.5849 135.343 9.74979 134.595 10.0796C133.847 10.4093 133.213 10.8628 132.714 11.4399C132.215 12.0067 131.831 12.6868 131.571 13.4598C131.311 14.2224 131.187 15.0674 131.187 15.964C131.187 17.8911 131.706 19.4472 132.745 20.5912C133.785 21.7351 135.343 22.3122 137.37 22.3122C138.565 22.3122 139.802 22.0751 140.685 21.7248C140.685 21.7248 140.851 21.6423 140.779 21.4465L140.197 19.8698Z" fill="#014486"/>
<path fill-rule="evenodd" clip-rule="evenodd" d="M152.176 13.0373C151.979 12.2953 151.49 11.543 151.158 11.203C150.649 10.6568 150.15 10.2755 149.651 10.0693C149.007 9.7911 148.227 9.61591 147.375 9.61591C146.388 9.61591 145.484 9.7808 144.756 10.1209C144.029 10.461 143.416 10.9247 142.927 11.5018C142.449 12.0789 142.086 12.7591 141.847 13.5423C141.618 14.3152 141.504 15.1603 141.504 16.0465C141.504 16.9328 141.628 17.7985 141.857 18.5611C142.096 19.3237 142.48 20.0038 143.01 20.5603C143.53 21.1271 144.206 21.56 145.006 21.8691C145.806 22.168 146.772 22.3329 147.884 22.3329C150.171 22.3329 151.386 21.8176 151.875 21.5497C151.968 21.4981 152.041 21.4157 151.937 21.1787L151.418 19.7359C151.335 19.5195 151.116 19.5916 151.116 19.5916C150.545 19.7977 149.745 20.179 147.864 20.179C146.637 20.179 145.723 19.8183 145.151 19.2515C144.569 18.6744 144.278 17.8294 144.237 16.6339H152.155C152.155 16.6339 152.363 16.6339 152.384 16.4381C152.426 16.3351 152.685 14.7996 152.176 13.0373ZM144.299 14.6759C144.413 13.9236 144.621 13.3053 144.933 12.8209C145.421 12.0789 146.159 11.677 147.198 11.677C148.238 11.677 148.924 12.0789 149.422 12.8209C149.745 13.3053 149.89 13.9545 149.942 14.6759H144.299Z" fill="#014486"/>
<path fill-rule="evenodd" clip-rule="evenodd" d="M88.694 13.0373C88.4965 12.2953 88.0081 11.543 87.6756 11.203C87.1663 10.6568 86.6675 10.2755 86.1687 10.0693C85.5244 9.7911 84.745 9.61591 83.8928 9.61591C82.9056 9.61591 82.0015 9.7808 81.274 10.1209C80.5466 10.461 79.9335 10.9247 79.445 11.5018C78.967 12.0789 78.6033 12.7591 78.3746 13.5423C78.146 14.3152 78.0317 15.1603 78.0317 16.0465C78.0317 16.9328 78.1564 17.7985 78.3954 18.5611C78.6344 19.3237 79.019 20.0038 79.5386 20.5603C80.0582 21.1271 80.7337 21.56 81.5338 21.8691C82.334 22.168 83.3005 22.3329 84.4125 22.3329C86.6987 22.3329 87.9146 21.8176 88.403 21.5497C88.4861 21.4981 88.5693 21.4157 88.4654 21.1787L87.9458 19.7359C87.8626 19.5195 87.6444 19.5916 87.6444 19.5916C87.0728 19.7977 86.2726 20.179 84.3917 20.179C83.1654 20.179 82.2509 19.8183 81.6793 19.2515C81.0974 18.6744 80.8064 17.8294 80.7648 16.6339H88.694C88.694 16.6339 88.9018 16.6339 88.9226 16.4381C88.9434 16.3351 89.2032 14.7996 88.694 13.0373ZM80.8168 14.6759C80.9311 13.9236 81.1286 13.3053 81.4507 12.8209C81.9391 12.0789 82.677 11.677 83.7162 11.677C84.7554 11.677 85.4413 12.0789 85.9401 12.8209C86.2622 13.3053 86.4077 13.9545 86.4597 14.6759H80.8168Z" fill="#014486"/>
<path d="M66.8392 14.3048C66.5171 14.2842 66.1014 14.2738 65.6026 14.2738C64.9271 14.2738 64.262 14.3563 63.6489 14.5212C63.0357 14.6861 62.4746 14.9437 61.9965 15.2838C61.5185 15.6239 61.1236 16.0567 60.843 16.5823C60.5624 17.0975 60.4169 17.7056 60.4169 18.396C60.4169 19.0865 60.5416 19.6945 60.7807 20.1892C61.0197 20.6839 61.373 21.0961 61.8199 21.4155C62.2667 21.735 62.8071 21.972 63.4306 22.106C64.0542 22.2503 64.7608 22.3224 65.5298 22.3224C66.3404 22.3224 67.151 22.2503 67.9408 22.1266C68.7202 21.9927 69.6763 21.8072 69.9361 21.7453C70.2063 21.6835 70.4973 21.601 70.4973 21.601C70.6947 21.5495 70.6739 21.3434 70.6739 21.3434V14.1502C70.6739 12.5734 70.2478 11.4089 69.4061 10.6772C68.5747 9.95585 67.3484 9.59515 65.7585 9.59515C65.1661 9.59515 64.21 9.6776 63.6281 9.79096C63.6281 9.79096 61.903 10.1207 61.1859 10.6772C61.1859 10.6772 61.0301 10.77 61.1132 10.9864L61.6744 12.4807C61.7471 12.6765 61.9342 12.6147 61.9342 12.6147C61.9342 12.6147 61.9965 12.5941 62.0693 12.5528C63.5969 11.7284 65.5194 11.7593 65.5194 11.7593C66.3716 11.7593 67.0367 11.9242 67.4835 12.2643C67.92 12.5941 68.1382 13.0887 68.1382 14.1399V14.4696C67.4732 14.3666 66.8496 14.3151 66.8392 14.3048ZM63.6904 19.8285C63.3787 19.5812 63.3371 19.5193 63.2332 19.3648C63.0773 19.1277 62.9942 18.7773 62.9942 18.3445C62.9942 17.654 63.2228 17.1594 63.7008 16.8296C63.7008 16.8296 64.3867 16.2422 65.9975 16.2628C67.1302 16.2731 68.1486 16.438 68.1486 16.438V20.014C68.1486 20.014 67.1406 20.2304 66.0079 20.3026C64.3971 20.385 63.6904 19.8285 63.6904 19.8285Z" fill="#014486"/>
<path fill-rule="evenodd" clip-rule="evenodd" d="M130.767 10.2446C130.829 10.0694 130.704 9.97665 130.642 9.95604C130.507 9.90451 129.831 9.77054 129.312 9.72932C128.314 9.66748 127.763 9.83238 127.265 10.0488C126.776 10.2652 126.225 10.6259 125.924 11.0278V10.0694C125.924 9.93543 125.83 9.83237 125.695 9.83237H123.669C123.534 9.83237 123.44 9.93543 123.44 10.0694V21.797C123.44 21.931 123.544 22.0341 123.679 22.0341H125.768C125.903 22.0341 126.007 21.931 126.007 21.797V15.9435C126.007 15.1603 126.101 14.3771 126.267 13.8824C126.433 13.3981 126.672 13.0065 126.963 12.7282C127.254 12.45 127.576 12.2542 127.94 12.1408C128.304 12.0274 128.709 11.9862 129.01 11.9862C129.426 11.9862 129.883 12.0893 129.883 12.0893C130.029 12.0996 130.122 12.0171 130.174 11.8729C130.309 11.5431 130.694 10.461 130.767 10.2446Z" fill="#014486"/>
<path fill-rule="evenodd" clip-rule="evenodd" d="M111.234 4.81348C110.985 4.73103 110.756 4.67951 110.455 4.62798C110.153 4.57645 109.789 4.54553 109.384 4.54553C107.95 4.54553 106.817 4.94745 106.027 5.74097C105.238 6.52419 104.697 7.72993 104.438 9.30667L104.344 9.84255H102.546C102.546 9.84255 102.328 9.83225 102.276 10.0693L101.975 11.7078C101.954 11.8624 102.016 11.9655 102.234 11.9655H103.98L102.203 21.8072C102.058 22.6007 101.902 23.25 101.736 23.7446C101.559 24.229 101.393 24.6 101.185 24.8576C100.987 25.1153 100.79 25.3008 100.457 25.4141C100.187 25.5069 99.865 25.5481 99.522 25.5481C99.335 25.5481 99.0752 25.5172 98.8881 25.476C98.7011 25.4451 98.5971 25.3935 98.4621 25.3317C98.4621 25.3317 98.2542 25.2493 98.1711 25.4554C98.1087 25.6203 97.6411 26.8981 97.5787 27.0527C97.5268 27.2073 97.5995 27.331 97.7034 27.3619C97.9321 27.4443 98.1087 27.4958 98.4309 27.568C98.8777 27.671 99.2415 27.6813 99.5948 27.6813C100.322 27.6813 100.987 27.5783 101.538 27.3825C102.099 27.1867 102.577 26.8363 103.003 26.3725C103.461 25.8676 103.762 25.3317 104.032 24.6103C104.313 23.8889 104.541 23.0027 104.728 21.9721L106.516 11.9552H109.124C109.124 11.9552 109.343 11.9655 109.395 11.7285L109.696 10.0899C109.717 9.9353 109.654 9.83224 109.436 9.83224H106.88C106.89 9.78072 107.004 8.89445 107.295 8.05971C107.42 7.70932 107.649 7.42076 107.857 7.22496C108.054 7.02915 108.272 6.89518 108.522 6.81274C108.771 6.73029 109.062 6.68907 109.374 6.68907C109.613 6.68907 109.841 6.71999 110.028 6.75091C110.278 6.80244 110.371 6.83335 110.434 6.85396C110.694 6.93641 110.725 6.85396 110.777 6.7303L111.39 5.08142C111.442 4.91653 111.286 4.84439 111.234 4.81348Z" fill="#014486"/>
<path fill-rule="evenodd" clip-rule="evenodd" d="M75.8092 21.8176C75.8092 21.9516 75.7157 22.0547 75.5806 22.0547H73.4814C73.3463 22.0547 73.2527 21.9516 73.2527 21.8176V5.04031C73.2527 4.90634 73.3463 4.80328 73.4814 4.80328H75.5806C75.7157 4.80328 75.8092 4.90634 75.8092 5.04031V21.8176Z" fill="#014486"/>
</svg>
