<svg width="32" height="32" viewBox="0 0 32 32" fill="none" xmlns="http://www.w3.org/2000/svg">
<path d="M13.6519 8.13691C14.5557 7.19676 15.8115 6.61314 17.2036 6.61314C19.0521 6.61314 20.6644 7.64412 21.5228 9.1747C22.2908 8.83136 23.1227 8.65414 23.964 8.65467C27.2976 8.65467 30 11.382 30 14.7429C30 18.1061 27.2976 20.8334 23.964 20.8334C23.5575 20.8334 23.1601 20.7925 22.774 20.7153C22.0178 22.0642 20.5758 22.9749 18.9226 22.9749C18.23 22.9749 17.576 22.8159 16.9924 22.5298C16.2248 24.3328 14.4399 25.5977 12.3575 25.5977C10.1888 25.5977 8.34258 24.2261 7.63406 22.3027C7.32522 22.3685 7.00276 22.4026 6.67348 22.4026C4.09148 22.4026 2 20.2884 2 17.6814C2 15.9329 2.94015 14.4068 4.33674 13.5916C4.04014 12.9103 3.88782 12.175 3.88938 11.432C3.88938 8.43212 6.32376 6 9.32814 6C11.0903 5.99773 12.6595 6.83796 13.6519 8.13691Z" fill="#00A1E0"/>
<path d="M6.05842 16.1622C6.04025 16.2076 6.06523 16.2167 6.06977 16.2258C6.122 16.2644 6.1765 16.2916 6.22873 16.3234C6.51487 16.4756 6.78283 16.5187 7.06669 16.5187C7.64122 16.5187 7.99775 16.2121 7.99775 15.7216V15.7125C7.99775 15.2584 7.59581 15.0926 7.21657 14.9745L7.16661 14.9586C6.88275 14.8655 6.63522 14.786 6.63522 14.5998V14.5907C6.63522 14.4295 6.77829 14.3114 7.00083 14.3114C7.24836 14.3114 7.5413 14.3932 7.72979 14.4976C7.72979 14.4976 7.78429 14.534 7.80473 14.4795C7.81608 14.4499 7.91146 14.1933 7.92054 14.1661C7.9319 14.1366 7.91146 14.1138 7.89329 14.1025C7.67756 13.9708 7.38007 13.8822 7.07123 13.8822H7.01446C6.48989 13.8822 6.122 14.2001 6.122 14.6543V14.6634C6.122 15.1426 6.52622 15.2992 6.90546 15.4082L6.96677 15.4264C7.24382 15.5104 7.48226 15.5854 7.48226 15.7784V15.7875C7.48226 15.9646 7.32784 16.0986 7.07804 16.0986C6.9804 16.0986 6.67156 16.0963 6.33774 15.8851C6.29686 15.8624 6.27415 15.8443 6.24236 15.8261C6.22646 15.8147 6.18559 15.7988 6.16742 15.8511L6.05842 16.1622ZM14.4675 16.1622C14.4493 16.2076 14.4743 16.2167 14.4789 16.2258C14.5311 16.2644 14.5856 16.2916 14.6378 16.3234C14.9239 16.4756 15.1919 16.5187 15.4758 16.5187C16.0503 16.5187 16.4068 16.2121 16.4068 15.7216V15.7125C16.4068 15.2584 16.0049 15.0926 15.6257 14.9745L15.5757 14.9586C15.2918 14.8655 15.0443 14.786 15.0443 14.5998V14.5907C15.0443 14.4295 15.1874 14.3114 15.4099 14.3114C15.6574 14.3114 15.9504 14.3932 16.1389 14.4976C16.1389 14.4976 16.1934 14.534 16.2138 14.4795C16.2252 14.4499 16.3205 14.1933 16.3296 14.1661C16.341 14.1366 16.3205 14.1138 16.3024 14.1025C16.0866 13.9708 15.7892 13.8822 15.4803 13.8822H15.4235C14.899 13.8822 14.5311 14.2001 14.5311 14.6543V14.6634C14.5311 15.1426 14.9353 15.2992 15.3145 15.4082L15.3759 15.4264C15.6529 15.5104 15.8913 15.5854 15.8913 15.7784V15.7875C15.8913 15.9646 15.7369 16.0986 15.4871 16.0986C15.3895 16.0986 15.0806 16.0963 14.7468 15.8851C14.7059 15.8624 14.6832 15.8443 14.6514 15.8261C14.6401 15.8193 14.5924 15.8011 14.5765 15.8511L14.4675 16.1622ZM20.206 15.1993C20.206 15.4764 20.1538 15.6967 20.0516 15.8511C19.9517 16.0032 19.7973 16.0782 19.5861 16.0782C19.3726 16.0782 19.2205 16.0032 19.1205 15.8511C19.0206 15.6967 18.9684 15.4764 18.9684 15.1993C18.9684 14.9223 19.0184 14.7043 19.1205 14.5499C19.2205 14.3977 19.3726 14.325 19.5861 14.325C19.7995 14.325 19.9517 14.3977 20.0539 14.5499C20.1538 14.702 20.206 14.92 20.206 15.1993ZM20.6852 14.6838C20.6375 14.5249 20.5648 14.3841 20.4672 14.2683C20.3675 14.1483 20.2416 14.0528 20.0993 13.9889C19.954 13.9208 19.7791 13.8868 19.5861 13.8868C19.3908 13.8868 19.2182 13.9208 19.0729 13.9889C18.9252 14.0571 18.8026 14.1524 18.705 14.2683C18.6073 14.3864 18.5347 14.5249 18.487 14.6838C18.4393 14.8428 18.4166 15.0154 18.4166 15.1993C18.4166 15.3833 18.4393 15.5559 18.487 15.7148C18.5347 15.8738 18.6073 16.0146 18.705 16.1304C18.8026 16.2485 18.9275 16.3416 19.0729 16.4074C19.2205 16.4733 19.393 16.5074 19.5861 16.5074C19.7814 16.5074 19.954 16.4733 20.0993 16.4074C20.2446 16.3416 20.3695 16.2462 20.4672 16.1304C20.5648 16.0146 20.6375 15.8738 20.6852 15.7148C20.7329 15.5559 20.7556 15.3833 20.7556 15.1993C20.7556 15.0154 20.7329 14.8405 20.6852 14.6838ZM24.6229 16.0032C24.607 15.9555 24.5616 15.9737 24.5616 15.9737C24.4912 16.0009 24.4185 16.0259 24.339 16.0373C24.2596 16.0486 24.171 16.0555 24.0756 16.0555C23.844 16.0555 23.66 15.9873 23.5261 15.8511C23.3943 15.7148 23.3194 15.4945 23.3194 15.1948C23.3194 14.9223 23.3853 14.7179 23.5033 14.5635C23.6192 14.4091 23.7986 14.3296 24.0347 14.3296C24.2323 14.3296 24.3844 14.3523 24.5411 14.4022C24.5411 14.4022 24.5797 14.4181 24.5979 14.3682C24.6388 14.2524 24.6706 14.1683 24.716 14.0412C24.7296 14.0048 24.6978 13.9889 24.6865 13.9844C24.6252 13.9594 24.4776 13.9208 24.3663 13.9049C24.2618 13.889 24.1415 13.8799 24.0075 13.8799C23.8054 13.8799 23.626 13.914 23.4738 13.9821C23.3217 14.0503 23.19 14.1434 23.0878 14.2615C22.9829 14.383 22.9033 14.5243 22.8539 14.677C22.8016 14.836 22.7767 15.0086 22.7767 15.1925C22.7767 15.5899 22.8834 15.9124 23.0969 16.1463C23.3081 16.3825 23.6282 16.5028 24.0438 16.5028C24.2891 16.5028 24.5411 16.4529 24.7228 16.3825C24.7228 16.3825 24.7569 16.3666 24.7432 16.3257L24.6229 16.0032ZM25.4631 14.9314C25.4858 14.7769 25.529 14.6475 25.5948 14.5476C25.6947 14.3954 25.8446 14.3114 26.0581 14.3114C26.2716 14.3114 26.4123 14.3954 26.5123 14.5476C26.5804 14.6475 26.6076 14.7815 26.619 14.9314H25.4631ZM27.0754 14.593C27.0346 14.4386 26.9347 14.2842 26.8665 14.2138C26.7621 14.1002 26.6599 14.023 26.5577 13.9799C26.4104 13.9176 26.252 13.886 26.0922 13.8868C25.89 13.8868 25.7061 13.9208 25.5562 13.9912C25.4063 14.0616 25.2814 14.157 25.1815 14.2773C25.0839 14.3954 25.0089 14.5385 24.9613 14.6975C24.9136 14.8564 24.8909 15.0313 24.8909 15.2152C24.8909 15.4014 24.9158 15.5763 24.9635 15.733C25.0135 15.8919 25.093 16.0305 25.1997 16.1463C25.3064 16.2621 25.4427 16.3529 25.6085 16.4165C25.772 16.4801 25.9695 16.5119 26.1966 16.5119C26.6644 16.5096 26.9119 16.4052 27.0141 16.3507C27.0323 16.3416 27.0482 16.3234 27.0278 16.2735L26.921 15.976C26.9051 15.9328 26.8597 15.9487 26.8597 15.9487C26.7439 15.9919 26.5781 16.0691 26.1943 16.0691C25.9423 16.0691 25.7561 15.9941 25.6402 15.8783C25.5199 15.7602 25.4608 15.5854 25.4518 15.3379L27.0754 15.3401C27.0754 15.3401 27.1186 15.3401 27.1231 15.297C27.1254 15.2743 27.1799 14.9586 27.0754 14.593ZM12.4646 14.9314C12.4873 14.7769 12.5304 14.6475 12.5963 14.5476C12.6962 14.3954 12.8461 14.3114 13.0596 14.3114C13.273 14.3114 13.4138 14.3954 13.5137 14.5476C13.5796 14.6475 13.6091 14.7815 13.6205 14.9314H12.4646ZM14.0792 14.593C14.0383 14.4386 13.9384 14.2842 13.8725 14.2138C13.7681 14.1002 13.6659 14.023 13.5637 13.9799C13.4164 13.9176 13.258 13.886 13.0982 13.8868C12.896 13.8868 12.7121 13.9208 12.5622 13.9912C12.4124 14.0616 12.2875 14.157 12.1875 14.2773C12.0899 14.3954 12.0149 14.5385 11.9673 14.6975C11.9196 14.8564 11.8969 15.0313 11.8969 15.2152C11.8969 15.4014 11.9218 15.5763 11.9695 15.733C12.0195 15.8919 12.099 16.0305 12.2057 16.1463C12.3124 16.2621 12.4487 16.3529 12.6145 16.4165C12.778 16.4801 12.9755 16.5119 13.2026 16.5119C13.6704 16.5096 13.9179 16.4052 14.0201 16.3507C14.0383 16.3416 14.0542 16.3234 14.0338 16.2735L13.927 15.976C13.9111 15.9328 13.8657 15.9487 13.8657 15.9487C13.7499 15.9919 13.5841 16.0691 13.2003 16.0691C12.9483 16.0691 12.7621 15.9941 12.6463 15.8783C12.5259 15.7602 12.4669 15.5854 12.4578 15.3379L14.0815 15.3401C14.0815 15.3401 14.1246 15.3401 14.1291 15.297C14.1291 15.2743 14.1836 14.9586 14.0792 14.593ZM8.95607 15.9941C8.89248 15.9442 8.8834 15.9306 8.86296 15.8988C8.83117 15.8488 8.81527 15.7784 8.81527 15.6876C8.81527 15.5445 8.86296 15.4423 8.96061 15.3742C8.95834 15.3742 9.09913 15.2516 9.43068 15.2561C9.66231 15.2584 9.87123 15.2947 9.87123 15.2947V16.0327C9.87123 16.0327 9.66458 16.0759 9.43295 16.0918C9.1014 16.11 8.95607 15.9941 8.95607 15.9941ZM9.60327 14.8542C9.53741 14.8496 9.45112 14.8473 9.34893 14.8473C9.2104 14.8473 9.07642 14.8655 8.94925 14.8996C8.82208 14.9336 8.70854 14.9859 8.61089 15.0563C8.51324 15.1267 8.43376 15.2175 8.37472 15.3242C8.31795 15.431 8.28843 15.5581 8.28843 15.6989C8.28843 15.842 8.31341 15.9669 8.36336 16.0691C8.41332 16.1713 8.48372 16.2576 8.57456 16.3234C8.66539 16.3893 8.77667 16.437 8.90611 16.4665C9.03328 16.496 9.17861 16.5096 9.3353 16.5096C9.50108 16.5096 9.66685 16.496 9.82808 16.4688C9.98705 16.4415 10.1823 16.4029 10.2368 16.3893C10.2913 16.3756 10.3504 16.3597 10.3504 16.3597C10.3913 16.3507 10.3867 16.3075 10.3867 16.3075V14.8224C10.3867 14.4976 10.3004 14.2546 10.1278 14.107C9.95753 13.9572 9.70773 13.8822 9.38299 13.8822C9.26036 13.8822 9.06507 13.8981 8.94925 13.9231C8.94925 13.9231 8.595 13.9912 8.44966 14.1048C8.44966 14.1048 8.41787 14.1252 8.43603 14.1683L8.55185 14.4772C8.56547 14.5181 8.60408 14.5044 8.60408 14.5044C8.60408 14.5044 8.61543 14.4999 8.63133 14.4908C8.94471 14.3205 9.33757 14.325 9.33757 14.325C9.51243 14.325 9.64869 14.3591 9.73952 14.4295C9.82809 14.4976 9.8735 14.5998 9.8735 14.8155V14.8837C9.73044 14.8655 9.60327 14.8542 9.60327 14.8542ZM22.6926 14.0185C22.6971 14.0073 22.697 13.9949 22.6923 13.9838C22.6877 13.9727 22.6788 13.964 22.6677 13.9594C22.6404 13.9481 22.5019 13.9185 22.3952 13.9117C22.1908 13.9004 22.0772 13.9344 21.9773 13.9799C21.8774 14.0253 21.7661 14.0979 21.7025 14.182V13.9844C21.7025 13.9572 21.6821 13.9344 21.6548 13.9344H21.2393C21.212 13.9344 21.1916 13.9572 21.1916 13.9844V16.4052C21.1916 16.4324 21.2143 16.4551 21.2415 16.4551H21.6685C21.6957 16.4551 21.7184 16.4324 21.7184 16.4052V15.1948C21.7184 15.0336 21.7366 14.87 21.7729 14.7679C21.807 14.6679 21.857 14.5862 21.916 14.5294C21.975 14.4726 22.0432 14.4318 22.1158 14.4091C22.1908 14.3864 22.2748 14.3773 22.3338 14.3773C22.4179 14.3773 22.5132 14.4 22.5132 14.4C22.545 14.4045 22.5609 14.3841 22.5723 14.3568C22.5973 14.2842 22.6767 14.0616 22.6926 14.0185Z" fill="white"/>
<path d="M18.6808 12.8967C18.6286 12.8808 18.5809 12.8695 18.5196 12.8581C18.4583 12.8468 18.3833 12.8422 18.2993 12.8422C18.0063 12.8422 17.7747 12.9262 17.6112 13.0898C17.45 13.2533 17.341 13.5008 17.2842 13.8255L17.2638 13.9345H16.8959C16.8959 13.9345 16.8505 13.9322 16.8414 13.9822L16.7801 14.3206C16.7755 14.3524 16.7892 14.3728 16.8323 14.3728H17.1911L16.8278 16.403C16.8005 16.5665 16.7664 16.7005 16.7301 16.8026C16.6938 16.9026 16.6597 16.9775 16.6166 17.0343C16.5757 17.0865 16.5371 17.1251 16.469 17.1478C16.4122 17.166 16.3486 17.1751 16.2782 17.1751C16.2396 17.1751 16.1874 17.1683 16.1488 17.1614C16.1102 17.1546 16.0897 17.1455 16.0602 17.1342C16.0602 17.1342 16.0193 17.1183 16.0012 17.1592C15.9875 17.1932 15.8922 17.4567 15.8808 17.4885C15.8694 17.5202 15.8853 17.5452 15.9058 17.5543C15.9535 17.5702 15.9898 17.5816 16.0534 17.5975C16.1442 17.6179 16.2192 17.6202 16.2918 17.6202C16.4417 17.6202 16.578 17.5997 16.6892 17.5589C16.8028 17.518 16.9004 17.4453 16.989 17.3499C17.0844 17.2455 17.1434 17.1365 17.2002 16.9866C17.257 16.839 17.3046 16.655 17.3432 16.4416L17.7089 14.3728H18.2425C18.2425 14.3728 18.2879 14.3751 18.297 14.3251L18.3583 13.9867C18.3629 13.955 18.3492 13.9345 18.3061 13.9345H17.7861C17.7883 13.9232 17.8133 13.7392 17.8724 13.5689C17.8973 13.4962 17.945 13.4372 17.9859 13.3963C18.0268 13.3554 18.0722 13.3282 18.1222 13.3123C18.1744 13.2964 18.2312 13.2873 18.297 13.2873C18.3447 13.2873 18.3947 13.2919 18.431 13.3009C18.481 13.3123 18.5014 13.3168 18.515 13.3214C18.5673 13.3373 18.5763 13.3214 18.5854 13.2964L18.7103 12.9558C18.7239 12.9172 18.6922 12.9013 18.6808 12.8967ZM11.4321 16.4052C11.4321 16.4325 11.4117 16.4552 11.3844 16.4552H10.953C10.9257 16.4552 10.9076 16.4325 10.9076 16.4052V12.9421C10.9076 12.9149 10.9257 12.8922 10.953 12.8922H11.3844C11.4117 12.8922 11.4321 12.9149 11.4321 12.9421V16.4052Z" fill="white"/>
</svg>
