<svg width="127" height="32" viewBox="0 0 127 32" fill="none" xmlns="http://www.w3.org/2000/svg">
<path d="M27.8184 29.5802H5.92725C4.49353 29.5802 3.09464 28.81 2.43015 27.515C1.66116 26.0101 1.94056 24.2251 3.12948 23.07L18.3767 7.81005H7.43088C4.42338 7.81005 2.01046 5.35994 2.01046 2.38471H22.1883C23.622 2.38471 25.0206 3.15484 25.6851 4.44987C26.4546 5.9548 26.1747 7.73984 24.9858 8.89469L9.73881 24.1551H22.3631C25.3704 24.1551 27.8184 26.6052 27.8184 29.5802ZM114.474 2C111.327 2 108.529 3.36499 106.57 5.53498C104.612 3.36499 101.815 2 98.6674 2C92.8624 2 88.1065 6.96994 88.1065 12.78V29.5802C91.1138 29.5802 93.5267 27.1301 93.5267 24.1551V12.7451C93.5267 9.94494 95.6948 7.56504 98.4923 7.46021C101.43 7.35513 103.843 9.69993 103.843 12.605V24.1551C103.843 27.1652 106.291 29.5802 109.263 29.5802V12.71C109.263 9.91007 111.431 7.52993 114.229 7.4251C117.166 7.32003 119.579 9.66506 119.579 12.5701V24.12C119.579 27.1303 122.027 29.5451 125 29.5451V12.7454C125.035 6.96994 120.279 2 114.474 2ZM55.2347 16C55.2347 23.735 48.9751 30 41.2468 30C33.5184 30 27.2589 23.735 27.2589 16C27.2589 8.26497 33.5184 2 41.2468 2C48.9751 2 55.2347 8.26497 55.2347 16ZM49.8143 16C49.8143 11.2751 45.9676 7.4251 41.2468 7.4251C36.5259 7.4251 32.6791 11.2751 32.6791 16C32.6791 20.7252 36.5259 24.5751 41.2468 24.5751C45.9676 24.5751 49.8143 20.7252 49.8143 16ZM85.3786 16C85.3786 23.735 79.1191 30 71.3907 30C63.6624 30 57.4028 23.735 57.4028 16C57.4028 8.26497 63.6624 2 71.3907 2C79.1191 2 85.3789 8.26497 85.3789 16M79.9587 16C79.9587 11.2751 76.1121 7.4251 71.391 7.4251C66.6703 7.4251 62.8235 11.2751 62.8235 16C62.8235 20.7252 66.6701 24.5751 71.391 24.5751C76.1121 24.5751 79.9587 20.7252 79.9587 16Z" fill="#0B5CFF"/>
</svg>
