<svg width="32" height="32" viewBox="0 0 32 32" fill="none" xmlns="http://www.w3.org/2000/svg">
<path d="M16 2C8.26801 2 2 8.26801 2 16C2 23.732 8.26801 30 16 30C23.732 30 30 23.732 30 16C30 8.26801 23.732 2 16 2ZM19.5756 19.9863C19.5756 20.1207 19.5222 20.2496 19.4271 20.3447C19.3321 20.4397 19.2032 20.4931 19.0688 20.4931H10.4845C9.82003 20.4931 9.18279 20.2292 8.71295 19.7593C8.2431 19.2895 7.97915 18.6522 7.97915 17.9878V12.0137C7.97915 11.8793 8.03255 11.7504 8.1276 11.6553C8.22265 11.5603 8.35157 11.5069 8.48599 11.5069H17.0703C17.7347 11.5069 18.372 11.7708 18.8418 12.2407C19.3116 12.7105 19.5756 13.3477 19.5756 14.0122V19.9863ZM24.0209 20.1632C24.0209 20.2055 24.0092 20.247 23.9872 20.2832C23.9652 20.3193 23.9337 20.3487 23.8961 20.3682C23.8585 20.3876 23.8163 20.3963 23.774 20.3934C23.7318 20.3904 23.6912 20.3759 23.6567 20.3514L20.0114 17.7684V14.2316L23.6567 11.6485C23.6912 11.6241 23.7318 11.6096 23.774 11.6066C23.8163 11.6037 23.8585 11.6124 23.8961 11.6318C23.9337 11.6513 23.9652 11.6807 23.9872 11.7168C24.0092 11.753 24.0208 11.7945 24.0209 11.8368V20.1632Z" fill="url(#paint0_linear_107_13)"/>
<defs>
<linearGradient id="paint0_linear_107_13" x1="2.05206" y1="29.9479" x2="29.1872" y2="2.81276" gradientUnits="userSpaceOnUse">
<stop stop-color="#0079FF"/>
<stop offset="1" stop-color="#00C2FF"/>
</linearGradient>
</defs>
</svg>
