<svg width="165" height="32" viewBox="0 0 165 32" fill="none" xmlns="http://www.w3.org/2000/svg">
<path d="M50.6692 19.3718C50.6692 21.4975 48.6901 23.0368 45.9048 23.0368H39.3812V9.84308H45.6848C48.3969 9.84308 50.3027 11.3091 50.3027 13.3614C50.3027 14.754 49.5697 15.6337 48.4702 16.1468C49.643 16.5865 50.6692 17.7593 50.6692 19.3718ZM42.2398 12.2619V15.1206H45.6116C46.6378 15.1206 47.2975 14.5342 47.2975 13.7279C47.2975 12.9216 46.5644 12.2619 45.6116 12.2619H42.2398ZM45.9048 20.6179C47.0043 20.6179 47.8106 19.9583 47.8106 19.0054C47.8106 18.0525 47.0775 17.3928 45.9048 17.3928H42.2398V20.6179H45.9048Z" fill="black"/>
<path d="M61.4446 22.9635L56.9003 17.7593H56.1673V22.9635H53.2354V9.84308H56.1673V14.9006H56.9003L61.2982 9.84308H64.7433L59.2458 16.1468L65.2561 22.9635H61.4446Z" fill="black"/>
<path d="M65.2552 16.4397C65.2552 12.4815 68.1877 9.62292 72.292 9.62292C76.3969 9.62292 79.3287 12.4815 79.3287 16.4397C79.3287 20.3978 76.3969 23.2564 72.292 23.2564C68.1877 23.2564 65.2552 20.3978 65.2552 16.4397ZM76.2505 16.4397C76.2505 13.9475 74.6376 12.2617 72.292 12.2617C69.9464 12.2617 68.3341 13.9475 68.3341 16.4397C68.3341 18.9318 69.9464 20.6177 72.292 20.6177C74.6376 20.6177 76.2505 18.9318 76.2505 16.4397Z" fill="black"/>
<path d="M90.5435 9.84308H93.476V22.9635H90.5435V17.686H84.6799V22.9635H81.748V9.84308H84.6799V15.0472H90.5435V9.84308Z" fill="black"/>
<path d="M99.7801 22.9635V12.4818H95.2354V9.84308H107.183V12.4818H102.638V22.9635H99.7801Z" fill="black"/>
<path d="M119.79 15.6334V22.9632H117.665L117.078 20.9109C116.419 22.0104 115.026 23.2564 112.901 23.2564C110.262 23.2564 108.356 21.4973 108.356 19.0784C108.356 16.6596 110.262 14.9737 114.147 14.9737H117.005C116.858 13.2878 115.979 12.1151 114.367 12.1151C113.047 12.1151 112.167 12.8481 111.728 13.6543L109.089 13.2146C109.749 10.9423 112.021 9.62292 114.513 9.62292C117.738 9.62292 119.79 11.8219 119.79 15.6334ZM116.932 17.246H114.22C112.021 17.246 111.288 17.9789 111.288 18.9318C111.288 20.0313 112.167 20.7643 113.633 20.7643C115.539 20.7643 116.932 19.3716 116.932 17.246Z" fill="black"/>
<path d="M131.078 22.9635L126.534 17.7593H125.8V22.9635H122.869V9.84308H125.8V14.9006H126.534L130.931 9.84308H134.377L128.879 16.1468L134.889 22.9635H131.078Z" fill="black"/>
<path d="M140.166 22.9635V12.4818H135.622V9.84308H147.57V12.4818H143.025V22.9635H140.166Z" fill="black"/>
<path d="M162.23 17.246H151.675C151.968 19.2983 153.434 20.6177 155.633 20.6177C157.172 20.6177 158.345 19.958 159.005 19.0051L161.717 19.4449C160.764 21.9371 158.198 23.2564 155.413 23.2564C151.455 23.2564 148.597 20.3978 148.597 16.4397C148.597 12.4815 151.455 9.62292 155.413 9.62292C159.371 9.62292 162.23 12.4816 162.23 16.2931C162.303 16.6596 162.23 16.9528 162.23 17.246ZM151.895 14.9737H159.152C158.638 13.3612 157.319 12.1884 155.486 12.1884C153.727 12.1151 152.335 13.2878 151.895 14.9737Z" fill="black"/>
<path d="M2 15.44C2 9.1043 2 5.93648 3.96824 3.96824C5.93648 2 9.1043 2 15.44 2H16.56C22.8957 2 26.0635 2 28.0318 3.96824C30 5.93648 30 9.1043 30 15.44V16.56C30 22.8957 30 26.0635 28.0318 28.0318C26.0635 30 22.8957 30 16.56 30H15.44C9.1043 30 5.93648 30 3.96824 28.0318C2 26.0635 2 22.8957 2 16.56V15.44Z" fill="#0077FF"/>
<path d="M16.8992 22.1717C10.5176 22.1717 6.87762 17.7967 6.72595 10.5167H9.92262C10.0276 15.8601 12.3842 18.1234 14.2509 18.5901V10.5167H17.261V15.1251C19.1043 14.9267 21.0408 12.8267 21.6941 10.5167H24.7042C24.2025 13.3634 22.1025 15.4634 20.6092 16.3267C22.1025 17.0267 24.4943 18.8584 25.4043 22.1717H22.0908C21.3792 19.9551 19.606 18.2401 17.261 18.0067V22.1717H16.8992Z" fill="white"/>
</svg>
