<svg width="32" height="32" viewBox="0 0 32 32" fill="none" xmlns="http://www.w3.org/2000/svg">
<path d="M2 15.44C2 9.1043 2 5.93648 3.96824 3.96824C5.93648 2 9.1043 2 15.44 2H16.56C22.8957 2 26.0635 2 28.0318 3.96824C30 5.93648 30 9.1043 30 15.44V16.56C30 22.8957 30 26.0635 28.0318 28.0318C26.0635 30 22.8957 30 16.56 30H15.44C9.1043 30 5.93648 30 3.96824 28.0318C2 26.0635 2 22.8957 2 16.56V15.44Z" fill="#0077FF"/>
<path d="M16.8992 22.1717C10.5176 22.1717 6.87762 17.7967 6.72595 10.5167H9.92262C10.0276 15.8601 12.3842 18.1234 14.2509 18.5901V10.5167H17.261V15.1251C19.1043 14.9267 21.0408 12.8267 21.6941 10.5167H24.7042C24.2025 13.3634 22.1025 15.4634 20.6092 16.3267C22.1025 17.0267 24.4943 18.8584 25.4043 22.1717H22.0908C21.3792 19.9551 19.606 18.2401 17.261 18.0067V22.1717H16.8992Z" fill="white"/>
</svg>
