<svg width="141" height="32" viewBox="0 0 141 32" fill="none" xmlns="http://www.w3.org/2000/svg">
<path d="M81.2251 7.70434V20.9315H78.6795V8.38616L76.3158 20.9315H71.5201L69.1564 8.29524V20.9315H66.6108V7.70434H71.611L73.9521 20.2497L76.3158 7.70434H81.2251ZM88.0208 10.977C89.6573 10.977 90.9755 11.5679 91.9528 12.7497C92.9528 13.9316 93.3165 15.3179 93.0438 16.9543H85.5207C85.7025 17.5452 86.0207 18.0224 86.4753 18.3861C86.9526 18.7497 87.5208 18.9088 88.1799 18.9088C89.2936 18.9088 90.0891 18.4542 90.6118 17.5452L92.7028 18.4997C92.271 19.2952 91.6346 19.9315 90.8391 20.4088C90.0436 20.886 89.1345 21.1133 88.1117 21.1133C86.6344 21.1133 85.3844 20.636 84.3843 19.6588C83.3843 18.6815 82.8842 17.477 82.8842 16.0452C82.8842 14.6134 83.3843 13.4088 84.3616 12.4316C85.3616 11.477 86.5662 10.977 88.0208 10.977ZM88.0208 13.1816C87.4526 13.1816 86.9526 13.3407 86.498 13.6816C86.0662 13.9997 85.748 14.4543 85.5662 14.9997H90.4982C90.3164 14.4543 90.0209 13.9997 89.5663 13.6816C89.1345 13.3407 88.6118 13.1816 88.0208 13.1816ZM99.2031 10.977C100.84 10.977 102.158 11.5679 103.135 12.7497C104.135 13.9316 104.499 15.3179 104.226 16.9543H96.703C96.8848 17.5452 97.203 18.0224 97.6576 18.3861C98.1349 18.7497 98.7031 18.9088 99.3622 18.9088C100.476 18.9088 101.271 18.4542 101.794 17.5452L103.885 18.4997C103.453 19.2952 102.817 19.9315 102.021 20.4088C101.226 20.886 100.317 21.1133 99.294 21.1133C97.8167 21.1133 96.5666 20.636 95.5666 19.6588C94.5666 18.6815 94.0665 17.477 94.0665 16.0452C94.0665 14.6134 94.5666 13.4088 95.5439 12.4316C96.5439 11.477 97.7712 10.977 99.2031 10.977ZM99.2031 13.1816C98.6349 13.1816 98.1349 13.3407 97.6803 13.6816C97.2485 13.9997 96.9303 14.4543 96.7485 14.9997H101.68C101.499 14.4543 101.203 13.9997 100.749 13.6816C100.317 13.3407 99.794 13.1816 99.2031 13.1816ZM106.499 13.4316H104.522V11.1816H106.499V8.31797L109.044 7.52252V11.1816H111.567V13.4316H109.044V17.3179C109.044 18.227 109.499 18.7042 110.431 18.7042H111.59V20.9542H110.431C109.09 20.9542 108.113 20.636 107.453 20.0224C106.817 19.3861 106.499 18.4315 106.499 17.1588V13.4316ZM112.658 8.47706C112.658 8.04525 112.817 7.68161 113.113 7.40889C113.408 7.11344 113.772 6.95435 114.204 6.95435C114.613 6.95435 114.976 7.11344 115.272 7.40889C115.567 7.70434 115.727 8.06798 115.727 8.47706C115.727 8.88615 115.567 9.24978 115.272 9.54523C114.976 9.84068 114.613 9.99977 114.204 9.99977C113.772 9.99977 113.408 9.84068 113.113 9.54523C112.817 9.24978 112.658 8.88615 112.658 8.47706ZM115.477 20.9315H112.931V11.1816H115.477V20.9315ZM123.136 10.977C124.227 10.977 125.091 11.3634 125.75 12.1134C126.409 12.8634 126.75 13.8406 126.75 14.9997V20.9088H124.204V15.4543C124.204 14.8179 124 14.3179 123.59 13.9088C123.181 13.4997 122.681 13.2952 122.068 13.2952C121.386 13.2952 120.84 13.4997 120.409 13.9088C119.977 14.3179 119.772 14.8179 119.772 15.4543V20.9088H117.227V11.1589H119.772V13.6588C120.022 12.8179 120.454 12.1816 121.045 11.6816C121.636 11.227 122.34 10.977 123.136 10.977ZM135.818 13.8407V11.1816H138.364V19.8406C138.364 21.2724 137.864 22.4769 136.864 23.4542C135.864 24.4315 134.636 24.9087 133.136 24.9087C132.136 24.9087 131.227 24.6587 130.432 24.1815C129.636 23.7042 129.023 23.0678 128.591 22.2724L130.886 21.0679C131.386 22.0679 132.136 22.5906 133.136 22.5906C133.886 22.5906 134.5 22.3406 135.023 21.8179C135.546 21.2951 135.796 20.636 135.796 19.8406V17.977C135.5 18.8406 135.046 19.5451 134.409 20.0679C133.773 20.5906 133.045 20.8406 132.204 20.8406C131 20.8406 130 20.3633 129.204 19.4315C128.409 18.477 128.022 17.3179 128.022 15.9088C128.022 14.4997 128.409 13.3407 129.204 12.4088C130.023 11.4543 131.023 10.9998 132.204 10.9998C133.045 10.9998 133.795 11.2498 134.409 11.7725C135.023 12.2952 135.523 12.977 135.818 13.8407ZM133.227 18.4997C133.977 18.4997 134.591 18.2497 135.091 17.7724C135.591 17.2952 135.818 16.6588 135.818 15.9088C135.818 15.1588 135.568 14.5452 135.091 14.0679C134.591 13.5679 133.977 13.3407 133.227 13.3407C132.5 13.3407 131.909 13.5907 131.409 14.0679C130.909 14.5679 130.682 15.1815 130.682 15.9088C130.682 16.6361 130.932 17.2497 131.409 17.7724C131.909 18.2497 132.5 18.4997 133.227 18.4997Z" fill="black"/>
<path d="M58.0705 17.6819L2 23.5682L2.68185 30L58.7524 24.1136L58.0705 17.6819Z" fill="#FFE900"/>
<path d="M29.1885 5.61361C27.9157 5.61361 26.6657 5.99996 25.5974 6.7045C24.5292 7.40904 23.711 8.43176 23.211 9.61357C22.711 10.7954 22.5973 12.0908 22.8473 13.3408C23.0973 14.5908 23.711 15.7499 24.6201 16.659C25.5293 17.568 26.6884 18.1817 27.9385 18.4317C29.1885 18.6817 30.484 18.5453 31.6659 18.068C32.8477 17.568 33.8478 16.7499 34.5751 15.6817C35.2797 14.6135 35.666 13.3635 35.666 12.0908C35.666 11.2499 35.5069 10.409 35.166 9.61357C34.8478 8.81812 34.3705 8.11358 33.7569 7.52268C33.1659 6.93177 32.4386 6.45451 31.6659 6.1136C30.8704 5.79543 30.0294 5.61361 29.1885 5.61361ZM29.1885 15.6817C28.4839 15.6817 27.7794 15.4772 27.1884 15.0681C26.5975 14.6817 26.1429 14.1135 25.8702 13.4544C25.5974 12.7954 25.5293 12.0681 25.6656 11.3863C25.802 10.6817 26.1429 10.0454 26.6429 9.54539C27.143 9.04539 27.7794 8.70449 28.4839 8.56813C29.1885 8.43176 29.9158 8.49994 30.5522 8.77267C31.2113 9.04539 31.7795 9.49994 32.1659 10.0908C32.5523 10.6817 32.7796 11.3863 32.7796 12.0908C32.7796 13.0454 32.3932 13.9544 31.7341 14.6363C31.0522 15.2953 30.1431 15.6817 29.1885 15.6817ZM50.0075 5.61361C48.7348 5.61361 47.4847 5.99996 46.4165 6.7045C45.3483 7.40904 44.53 8.43176 44.03 9.61357C43.53 10.7954 43.4164 12.0908 43.6664 13.3408C43.9164 14.5908 44.5301 15.7499 45.4392 16.659C46.3483 17.568 47.5074 18.1817 48.7575 18.4317C50.0075 18.6817 51.3031 18.5453 52.4849 18.068C53.6668 17.568 54.6668 16.7499 55.3941 15.6817C56.0987 14.6135 56.4851 13.3635 56.4851 12.0908C56.4851 11.2499 56.326 10.409 55.9851 9.61357C55.6669 8.81812 55.1896 8.11358 54.5759 7.52268C53.985 6.93177 53.2577 6.45451 52.4849 6.1136C51.6894 5.7727 50.8485 5.61361 50.0075 5.61361ZM50.0075 15.6817C49.303 15.6817 48.5984 15.4772 48.0075 15.0681C47.4165 14.6817 46.962 14.1135 46.6892 13.4544C46.4165 12.7954 46.3483 12.0681 46.4847 11.3863C46.621 10.6817 46.962 10.0454 47.462 9.54539C47.962 9.04539 48.5984 8.70449 49.303 8.56813C50.0075 8.43176 50.7349 8.49994 51.3712 8.77267C52.0304 9.04539 52.5986 9.49994 52.9849 10.0908C53.3713 10.6817 53.5986 11.3863 53.5986 12.0908C53.5986 13.0454 53.2122 13.9544 52.5531 14.6363C51.8713 15.2953 50.9621 15.6817 50.0075 15.6817ZM46.0528 5.24997V2.38636H33.1205V5.24997H38.1434V18.2271H41.0072V5.24997H46.0528ZM11.7105 8.84085V11.7045H15.6879C14.7788 14.1135 13.0287 15.6817 11.0059 15.6817C10.1195 15.6817 9.25586 15.4544 8.46037 15.0453C7.68761 14.6363 7.00577 14.0226 6.52848 13.2726C6.02846 12.5454 5.73299 11.6817 5.64208 10.7954C5.55116 9.90902 5.68753 9.02267 6.02846 8.20449C6.36938 7.38632 6.91486 6.65905 7.5967 6.1136C8.27855 5.54543 9.09676 5.15906 9.96044 4.99997C10.8241 4.81816 11.7332 4.86361 12.5742 5.13634C13.4151 5.38633 14.1879 5.8636 14.8243 6.47723L16.8698 4.4318C15.7107 3.27272 14.2333 2.5 12.6424 2.15909C11.0287 1.84091 9.3695 2 7.86944 2.63636C6.36938 3.27272 5.07387 4.31816 4.16474 5.68178C3.25561 7.04541 2.77832 8.63631 2.77832 10.2727C2.77832 11.3636 2.98287 12.4317 3.39198 13.4317C3.80109 14.4317 4.41475 15.3408 5.18751 16.1135C5.96027 16.8862 6.8694 17.4999 7.86944 17.909C8.86948 18.318 9.93771 18.5453 11.0287 18.5453C13.847 18.5453 16.3698 16.7271 17.8699 13.8635V18.2044H20.7336V8.84085H11.7105Z" fill="black"/>
</svg>
