<svg width="32" height="32" viewBox="0 0 32 32" fill="none" xmlns="http://www.w3.org/2000/svg">
<path d="M29.6662 16.7303L2 19.6369L2.33374 22.8109L30 19.9043L29.6662 16.7303Z" fill="#FFE900"/>
<path d="M15.4099 10.7786C14.7783 10.7785 14.1608 10.9656 13.6357 11.3163C13.1105 11.667 12.7012 12.1655 12.4596 12.7488C12.2179 13.332 12.1547 13.9738 12.278 14.593C12.4013 15.2122 12.7055 15.7808 13.1522 16.2272C13.5989 16.6734 14.168 16.9773 14.7874 17.1003C15.4069 17.2233 16.049 17.1598 16.6324 16.918C17.2158 16.6762 17.7143 16.2669 18.065 15.7418C18.4156 15.2167 18.6026 14.5995 18.6022 13.9682C18.6025 13.5491 18.5201 13.1341 18.3598 12.7469C18.1994 12.3597 17.9643 12.0079 17.6678 11.7116C17.3712 11.4154 17.0192 11.1805 16.6318 11.0204C16.2443 10.8603 15.8291 10.7781 15.4099 10.7786ZM15.4099 15.7427C15.0587 15.7427 14.7155 15.6386 14.4235 15.4436C14.1316 15.2487 13.9041 14.9715 13.7697 14.6473C13.6353 14.323 13.6002 13.9662 13.6686 13.622C13.7371 13.2778 13.9063 12.9616 14.1545 12.7134C14.4028 12.4652 14.7191 12.2962 15.0635 12.2277C15.4079 12.1593 15.7649 12.1944 16.0892 12.3287C16.4136 12.463 16.6909 12.6905 16.886 12.9823C17.081 13.2741 17.1851 13.6172 17.1851 13.9682C17.1847 14.4385 16.9974 14.8894 16.6645 15.2218C16.3317 15.5542 15.8803 15.7409 15.4099 15.7409V15.7427Z" fill="black"/>
<path d="M25.6821 10.7784C25.0506 10.7784 24.4333 10.9656 23.9083 11.3163C23.3832 11.667 22.9739 12.1654 22.7323 12.7486C22.4906 13.3317 22.4274 13.9734 22.5506 14.5925C22.6738 15.2116 22.9779 15.7802 23.4244 16.2265C23.871 16.6729 24.4399 16.9768 25.0592 17.1C25.6785 17.2231 26.3205 17.1599 26.9039 16.9184C27.4874 16.6768 27.986 16.2677 28.3368 15.7429C28.6876 15.2181 28.8749 14.6011 28.8749 13.9699C28.8758 13.5505 28.7938 13.1352 28.6336 12.7476C28.4734 12.36 28.2383 12.0078 27.9416 11.7113C27.645 11.4148 27.2927 11.1798 26.9049 11.0197C26.5172 10.8596 26.1016 10.7776 25.6821 10.7784ZM25.6821 15.7426C25.331 15.7426 24.9878 15.6385 24.6958 15.4435C24.4038 15.2486 24.1763 14.9714 24.0419 14.6471C23.9076 14.3229 23.8724 13.9661 23.9409 13.6219C24.0094 13.2776 24.1785 12.9614 24.4267 12.7133C24.675 12.4651 24.9914 12.2961 25.3357 12.2276C25.6801 12.1591 26.0371 12.1943 26.3615 12.3286C26.6859 12.4629 26.9631 12.6904 27.1582 12.9822C27.3533 13.274 27.4574 13.6171 27.4574 13.9681C27.4569 14.4384 27.2697 14.8892 26.9368 15.2217C26.6039 15.5541 26.1526 15.7407 25.6821 15.7407V15.7426Z" fill="black"/>
<path d="M23.7382 10.5924V9.17419H17.353V10.5924H19.8362V16.9894H21.2551V10.5924H23.7382Z" fill="black"/>
<path d="M6.78253 12.3656V13.7839H8.74355C8.29061 14.9724 7.42756 15.7404 6.42746 15.7404C5.98997 15.7397 5.5594 15.6312 5.17387 15.4245C4.78834 15.2178 4.45975 14.9193 4.2172 14.5553C3.97465 14.1914 3.82562 13.7733 3.78331 13.3381C3.74101 12.9028 3.80673 12.4639 3.97466 12.0601C4.14258 11.6563 4.40753 11.3001 4.74604 11.0231C5.08455 10.746 5.48619 10.5567 5.91536 10.4719C6.34454 10.3871 6.78803 10.4093 7.20655 10.5367C7.62507 10.6641 8.0057 10.8926 8.31478 11.2022L9.32211 10.1948C8.75184 9.62459 8.02533 9.23618 7.23425 9.07862C6.44321 8.92107 5.62319 9.00144 4.87783 9.30958C4.13247 9.61772 3.49522 10.1398 3.04662 10.8098C2.59802 11.4799 2.35819 12.2678 2.35746 13.0741C2.35526 13.609 2.4594 14.139 2.66382 14.6334C2.86825 15.1277 3.16889 15.5765 3.54828 15.9538C3.92554 16.3341 4.37409 16.6363 4.86827 16.8432C5.36246 17.0501 5.8926 17.1576 6.42837 17.1596C7.8181 17.1596 9.06857 16.265 9.80555 14.845V16.9889H11.2245V12.3656H6.78253Z" fill="black"/>
</svg>
