<svg width="74" height="32" viewBox="0 0 74 32" fill="none" xmlns="http://www.w3.org/2000/svg">
<path d="M2 28.0602H15.615V30H2V28.0602ZM2 24.3289H15.615V26.2731H2V24.3289ZM5.87406 20.6019H11.7191V22.557H5.87406V20.6019ZM5.87406 16.8881H11.7191V18.8432H5.87406V16.8881ZM5.87406 13.1568H11.7191V15.1119H5.87406V13.1568ZM5.87406 9.42986H11.7191V11.385H5.87406V9.42986ZM2 5.71602H15.615V7.67113H2V5.71602ZM2 2H15.615V3.93984H2V2ZM17.5509 26.2731H38.4809C38.8331 25.6708 39.1087 25.014 39.2662 24.3289H17.5509V26.2731ZM36.8512 16.8881H21.4491V18.8432H38.4941C38.0609 18.1075 37.5104 17.4472 36.8644 16.8881H36.8512ZM21.4359 13.1568V15.1119H36.8512C37.5141 14.5686 38.0478 13.9074 38.4941 13.1568H21.4359ZM38.4809 5.71602H17.5509V7.67113H39.2531C39.0847 6.98787 38.825 6.33029 38.4809 5.71602ZM32.0562 2H17.5509V3.93984H37.0459C35.6853 2.69217 33.9044 1.99983 32.0562 2ZM21.4359 9.42986H27.27V11.385H21.4359V9.42986ZM33.115 11.385H39.2116C39.3859 10.7478 39.4742 10.0903 39.4741 9.42986H33.115V11.385ZM21.4359 20.6019H27.27V22.557H21.4359V20.6019ZM33.115 20.6019V22.557H39.4741C39.4741 21.885 39.38 21.2282 39.2116 20.6019H33.115ZM17.5509 29.9913L32.0431 30C33.9922 30 35.7444 29.2647 37.0569 28.0602H17.5509V29.9913ZM40.8959 28.0602H50.6019V30H40.8959V28.0602ZM40.8959 24.3289H50.6019V26.2731H40.8959V24.3289ZM44.77 20.6019H50.6041V22.557H44.77V20.6019ZM44.77 16.8881H50.6041V18.8432H44.77V16.8881ZM53.3166 5.71602H40.8981V7.67113H53.9881L53.3166 5.71602ZM52.0259 2H40.8959V3.93984H52.6997L52.0259 2ZM62.27 28.0602H72V30H62.27V28.0602ZM62.27 24.3289H72V26.2731H62.27V24.3289ZM62.27 20.6019H68.1041V22.557H62.27V20.6019ZM62.27 16.8881H68.1041V18.8432H62.27V16.8881ZM62.27 15.1119H68.1041V13.1568H56.9937L56.4359 14.7366L55.8913 13.1568H44.77V15.1119H50.6041V13.3161L51.2319 15.1119H61.6553L62.27 13.3161V15.1119ZM68.1041 9.42986H58.2844L57.6106 11.385H68.1041V9.42986ZM60.87 2L60.1963 3.93984H72V2H60.87ZM56.4359 29.9913L57.1097 28.0602H55.7644L56.4359 29.9913ZM55.1497 26.2731H57.7331L58.4309 24.3289H54.465L55.1497 26.2731ZM53.8372 22.557H59.0456L59.7281 20.6019H53.1547L53.8372 22.557ZM52.54 18.8432H60.3559L61.0144 16.8881H51.8684L52.54 18.8432ZM44.77 11.385H55.2766L54.6028 9.42986H44.77V11.385ZM58.91 7.67113H72V5.71602H59.5684L58.91 7.67113Z" fill="#1E6CBB"/>
</svg>
