<svg width="32" height="32" viewBox="0 0 32 32" fill="none" xmlns="http://www.w3.org/2000/svg">
<path d="M16.0001 11C14.6077 11 13.2724 11.5531 12.2878 12.5377C11.3032 13.5223 10.7501 14.8576 10.7501 16.25V23.25C10.7501 24.6424 11.3032 25.9777 12.2878 26.9623C13.2724 27.9469 14.6077 28.5 16.0001 28.5C17.3925 28.5 18.7279 27.9469 19.7124 26.9623C20.697 25.9777 21.2501 24.6424 21.2501 23.25V16.25C21.2501 14.8576 20.697 13.5223 19.7124 12.5377C18.7279 11.5531 17.3925 11 16.0001 11ZM12.2814 17.8863H19.7189V21.605H12.2814V17.8863ZM16.0001 26.9688C15.0153 26.9641 14.072 26.5709 13.3756 25.8745C12.6792 25.1781 12.286 24.2349 12.2814 23.25V23.1363H19.7189V23.25C19.7143 24.2349 19.321 25.1781 18.6246 25.8745C17.9282 26.5709 16.985 26.9641 16.0001 26.9688ZM19.7189 16.355H12.2814V16.25C12.2814 15.2637 12.6732 14.3178 13.3706 13.6204C14.068 12.923 15.0138 12.5313 16.0001 12.5313C16.9864 12.5313 17.9323 12.923 18.6297 13.6204C19.3271 14.3178 19.7189 15.2637 19.7189 16.25V16.355ZM28.8276 19.0588L23.0001 13.625V21.5875C23.0001 22.5158 23.3689 23.406 24.0252 24.0624C24.6816 24.7188 25.5718 25.0875 26.5001 25.0875C27.4284 25.0875 28.3186 24.7188 28.975 24.0624C29.6314 23.406 30.0001 22.5158 30.0001 21.5875C29.9976 21.1066 29.8915 20.6318 29.6892 20.1954C29.4869 19.7591 29.1931 19.3714 28.8276 19.0588ZM26.5001 23.5563C25.978 23.5563 25.4772 23.3488 25.108 22.9796C24.7388 22.6104 24.5314 22.1096 24.5314 21.5875V17.125L27.7864 20.1613C27.9821 20.3259 28.1404 20.5306 28.2506 20.7615C28.3608 20.9924 28.4203 21.2442 28.4251 21.5C28.4368 21.7622 28.396 22.024 28.3051 22.2702C28.2141 22.5164 28.0749 22.7419 27.8956 22.9334C27.7162 23.125 27.5004 23.2788 27.2607 23.3858C27.0211 23.4927 26.7625 23.5507 26.5001 23.5563ZM2.00011 21.5875C2.00011 22.5158 2.36886 23.406 3.02523 24.0624C3.68161 24.7188 4.57185 25.0875 5.50011 25.0875C6.42836 25.0875 7.3186 24.7188 7.97498 24.0624C8.63136 23.406 9.00011 22.5158 9.00011 21.5875V13.625L3.17261 19.0588C2.80935 19.3733 2.517 19.7613 2.31487 20.1972C2.11275 20.6332 2.00546 21.107 2.00011 21.5875ZM4.17011 20.2225L7.46886 17.125V21.5875C7.46886 22.1096 7.26144 22.6104 6.89222 22.9796C6.52301 23.3488 6.02225 23.5563 5.50011 23.5563C4.97796 23.5563 4.4772 23.3488 4.10799 22.9796C3.73878 22.6104 3.53136 22.1096 3.53136 21.5875C3.53243 21.3273 3.59012 21.0704 3.70042 20.8347C3.81072 20.599 3.97099 20.3901 4.17011 20.2225ZM15.1251 7.0625C15.1251 6.4568 14.9455 5.86469 14.609 5.36107C14.2725 4.85744 13.7942 4.46491 13.2346 4.23312C12.675 4.00133 12.0592 3.94068 11.4651 4.05885C10.8711 4.17701 10.3254 4.46869 9.89709 4.89699C9.46879 5.32529 9.17712 5.87097 9.05895 6.46504C8.94078 7.0591 9.00143 7.67487 9.23323 8.23447C9.46502 8.79407 9.85755 9.27237 10.3612 9.60888C10.8648 9.94539 11.4569 10.125 12.0626 10.125C12.8748 10.125 13.6538 9.80235 14.2281 9.22802C14.8025 8.65369 15.1251 7.87473 15.1251 7.0625ZM10.5314 7.0625C10.5314 6.75965 10.6212 6.4636 10.7894 6.21178C10.9577 5.95997 11.1968 5.76371 11.4766 5.64781C11.7564 5.53191 12.0643 5.50159 12.3613 5.56067C12.6584 5.61976 12.9312 5.7656 13.1454 5.97974C13.3595 6.19389 13.5054 6.46674 13.5644 6.76377C13.6235 7.0608 13.5932 7.36869 13.4773 7.64849C13.3614 7.92828 13.1651 8.16743 12.9133 8.33569C12.6615 8.50394 12.3655 8.59375 12.0626 8.59375C11.6579 8.5892 11.2711 8.42642 10.9849 8.14023C10.6987 7.85405 10.5359 7.4672 10.5314 7.0625ZM19.9376 4C19.3319 4 18.7398 4.17961 18.2362 4.51613C17.7325 4.85264 17.34 5.33093 17.1082 5.89053C16.8764 6.45013 16.8158 7.0659 16.934 7.65997C17.0521 8.25403 17.3438 8.79972 17.7721 9.22802C18.2004 9.65631 18.7461 9.94799 19.3401 10.0662C19.9342 10.1843 20.55 10.1237 21.1096 9.89188C21.6692 9.66009 22.1475 9.26756 22.484 8.76394C22.8205 8.26031 23.0001 7.66821 23.0001 7.0625C23.0001 6.25028 22.6775 5.47132 22.1031 4.89699C21.5288 4.32266 20.7498 4 19.9376 4ZM19.9376 8.59375C19.6348 8.59375 19.3387 8.50394 19.0869 8.33569C18.8351 8.16743 18.6388 7.92828 18.5229 7.64849C18.407 7.36869 18.3767 7.0608 18.4358 6.76377C18.4949 6.46674 18.6407 6.19389 18.8549 5.97974C19.069 5.7656 19.3418 5.61976 19.6389 5.56067C19.9359 5.50159 20.2438 5.53191 20.5236 5.64781C20.8034 5.76371 21.0425 5.95997 21.2108 6.21178C21.3791 6.4636 21.4689 6.75965 21.4689 7.0625C21.4643 7.4672 21.3015 7.85405 21.0153 8.14023C20.7292 8.42642 20.3423 8.5892 19.9376 8.59375Z" fill="black"/>
</svg>
