<svg width="89" height="32" viewBox="0 0 89 32" fill="none" xmlns="http://www.w3.org/2000/svg">
<path d="M29.8945 15.58C29.8945 23.3832 23.7811 29.16 15.8945 29.16C14.4782 29.16 13.1192 28.9733 11.8418 28.6221C11.5935 28.5535 11.3297 28.5729 11.0942 28.6766L8.31525 29.9034C7.58853 30.2245 6.76806 29.7074 6.7437 28.9131L6.66729 26.4224C6.65776 26.1158 6.51982 25.8286 6.29103 25.6246C3.5669 23.1883 1.89453 19.6618 1.89453 15.58C1.89453 7.77716 8.00794 2 15.8945 2C23.7811 2 29.8945 7.77716 29.8945 15.58Z" fill="#0866FF"/>
<path d="M19.6959 19.4892L24.5702 11.9562C25.0603 11.199 24.1525 10.3178 23.4102 10.8298L18.322 14.3394C18.1505 14.4579 17.9245 14.4611 17.7498 14.3479L13.2338 11.4261C12.8516 11.1789 12.3412 11.2881 12.094 11.6704L7.21944 19.2038C6.72929 19.9609 7.63709 20.8422 8.37936 20.3302L13.4686 16.8202C13.6402 16.7018 13.8662 16.6986 14.0412 16.8118L18.5565 19.7336C18.9388 19.9808 19.4491 19.8715 19.6963 19.4892H19.6959Z" fill="white"/>
<path d="M62.1808 9.56212C61.7393 9.56212 61.4209 9.70704 61.0981 9.85441V13.1928C61.4073 13.2221 61.5846 13.2221 61.878 13.2221C62.9378 13.2221 63.0833 12.7368 63.0833 12.059V10.4645C63.0833 9.96398 62.9172 9.56212 62.1808 9.56212ZM55.1416 9.37995C54.4064 9.37995 54.2384 9.78372 54.2384 10.2837V10.5646H56.0441V10.2837C56.0438 9.78372 55.876 9.37995 55.1416 9.37995ZM41.5048 12.8548C41.5048 13.2501 41.6913 13.4557 42.1032 13.4557C42.5451 13.4557 42.8066 13.3116 43.1291 13.1637V12.3716H42.1628C41.706 12.3716 41.5048 12.4567 41.5048 12.8548ZM69.0284 9.56212C68.2918 9.56212 68.0365 9.96398 68.0365 10.4645V12.2912C68.0365 12.7931 68.2918 13.1963 69.0284 13.1963C69.763 13.1963 70.0203 12.7931 70.0203 12.2912V10.4645C70.0203 9.96398 69.763 9.56212 69.0284 9.56212ZM37.895 14.9027H35.7296V9.66136H34.6475V7.85514H35.7296V6.77081C35.7296 5.29739 36.3403 4.42107 38.0761 4.42107H39.5213V6.22756H38.618C37.9423 6.22756 37.8978 6.47988 37.8978 6.95108L37.895 7.85514H39.5313L39.3399 9.66136H37.895V14.9027ZM45.2956 14.9161H43.491L43.4127 14.4596C42.5886 14.9161 41.8531 14.99 41.368 14.99C40.0444 14.99 39.3399 14.1058 39.3399 12.8831C39.3399 11.4404 40.1619 10.9254 41.6326 10.9254H43.1294V10.6135C43.1294 9.87725 43.0451 9.66109 41.9126 9.66109H40.061L40.2421 7.85487H42.2661C44.751 7.85487 45.2956 8.63984 45.2956 10.628V14.9161ZM51.4326 9.79378C50.3094 9.60127 49.987 9.55913 49.4467 9.55913C48.476 9.55913 48.1826 9.77338 48.1826 10.5975V12.1566C48.1826 12.981 48.476 13.196 49.4467 13.196C49.987 13.196 50.3094 13.1531 51.4326 12.9598V14.7214C50.4489 14.9419 49.808 14.9998 49.2664 14.9998C46.9417 14.9998 46.0175 13.7771 46.0175 12.0111V10.746C46.0175 8.97835 46.9417 7.75345 49.2664 7.75345C49.808 7.75345 50.4489 7.81164 51.4326 8.03323V9.79378ZM58.2092 12.0111H54.2384V12.1566C54.2384 12.981 54.532 13.196 55.5024 13.196C56.375 13.196 56.9074 13.1531 58.0284 12.9598V14.7214C56.9473 14.9419 56.3839 14.9998 55.323 14.9998C52.998 14.9998 52.0732 13.7771 52.0732 12.0111V10.5646C52.0732 9.01941 52.7592 7.75345 55.1416 7.75345C57.524 7.75345 58.2092 9.00446 58.2092 10.5646V12.0111ZM65.2481 12.0446C65.2481 13.7515 64.7604 14.9965 61.8045 14.9965C60.7373 14.9965 60.1111 14.9027 58.9333 14.7214V4.9635L61.0979 4.60215V8.01529C61.5655 7.84155 62.1711 7.75318 62.7222 7.75318C64.8871 7.75318 65.2479 8.72386 65.2479 10.2835V12.0446H65.2481ZM72.1873 12.0815C72.1873 13.5541 71.5793 14.9824 69.0357 14.9824C66.4907 14.9824 65.8713 13.5541 65.8713 12.0815V10.6598C65.8713 9.18636 66.4907 7.75807 69.0357 7.75807C71.5793 7.75807 72.1873 9.18636 72.1873 10.6598V12.0815ZM79.1218 12.0815C79.1218 13.5541 78.5131 14.9824 75.97 14.9824C73.425 14.9824 72.8056 13.5541 72.8056 12.0815V10.6598C72.8056 9.18636 73.425 7.75807 75.97 7.75807C78.5133 7.75807 79.1218 9.18636 79.1218 10.6598V12.0815ZM86.2383 14.9027H83.8918L81.9074 11.5899V14.9027H79.742V4.9635L81.9074 4.60215V11.0005L83.8918 7.85514H86.2383L84.0718 11.2879L86.2383 14.9027ZM75.9626 9.56212C75.2274 9.56212 74.9721 9.96398 74.9721 10.4645V12.2912C74.9721 12.7931 75.2274 13.1963 75.9626 13.1963C76.697 13.1963 76.957 12.7931 76.957 12.2912V10.4645C76.9567 9.96398 76.697 9.56212 75.9626 9.56212Z" fill="black"/>
<path d="M35.4028 17.5078H36.0521L39.1624 24.849H39.1847L42.2615 17.5078H43.016V25.3928H42.4722V18.0516H42.451L39.4188 25.3928H38.9283L35.8626 18.0516H35.9466V25.3928H35.4028V17.5078Z" fill="black"/>
<path d="M44.3749 22.6739V22.6516C44.3749 22.9857 44.4548 23.3055 44.5445 23.6103C44.634 23.9151 44.7838 24.1824 44.9592 24.4127C45.1343 24.6432 45.363 24.8254 45.6275 24.9592C45.8921 25.0927 46.2037 25.1596 46.5541 25.1596C47.1279 25.1596 47.5846 25.0269 47.9199 24.7259C48.2551 24.4249 48.4884 24.0334 48.6151 23.4896H49.0388C48.9123 24.0334 48.6391 24.6536 48.2193 25.0103C47.7994 25.367 47.244 25.5364 46.5528 25.5364C46.1292 25.5364 45.7594 25.4557 45.4434 25.3034C45.1275 25.1511 44.8637 24.941 44.6519 24.6769C44.4401 24.4132 44.2822 24.1 44.1783 23.7394C44.0741 23.3792 44.0222 22.9904 44.0222 22.5741C44.0222 22.1728 44.0761 21.7878 44.184 21.4201C44.2917 21.052 44.4532 20.7287 44.6688 20.45C44.8841 20.1713 45.1539 19.9484 45.4772 19.7811C45.8004 19.6139 46.1811 19.5302 46.6199 19.5302C47.0213 19.5302 47.3761 19.6047 47.6844 19.7531C47.9928 19.9019 48.2511 20.1044 48.4593 20.3606C48.6674 20.617 48.8253 20.9144 48.9333 21.2524C49.0409 21.5906 49.0948 21.9528 49.0948 22.3392C49.0948 22.3767 49.0929 22.4637 49.0891 22.5121C49.0853 22.5608 49.0834 22.6739 49.0834 22.6739H44.3749ZM48.6597 22.1301C48.6448 21.8582 48.5926 21.5656 48.5031 21.2872C48.4137 21.0085 48.2815 20.785 48.1064 20.5732C47.931 20.3614 47.719 20.2034 47.4691 20.077C47.2192 19.9505 46.9345 19.8929 46.614 19.8929C46.2711 19.8929 45.9693 19.9606 45.7085 20.0908C45.4478 20.2211 45.2278 20.3929 45.0492 20.605C44.8703 20.8168 44.7324 21.021 44.6356 21.3035C44.5388 21.586 44.479 21.8584 44.4567 22.1303L48.6597 22.1301Z" fill="black"/>
<path d="M50.2749 23.4896C50.2895 23.7615 50.3491 23.992 50.4532 24.1965C50.5571 24.401 50.6928 24.575 50.8603 24.7199C51.0275 24.8648 51.2227 24.9744 51.4454 25.0484C51.6683 25.1229 51.9098 25.1598 52.17 25.1598C52.3557 25.1598 52.5547 25.143 52.7663 25.1095C52.9781 25.0761 53.1749 25.0149 53.3571 24.9257C53.539 24.8365 53.6896 24.712 53.8085 24.5521C53.9273 24.3925 53.9868 24.19 53.9868 23.9447C53.9868 23.6252 53.8903 23.3838 53.697 23.2201C53.5037 23.0567 53.2603 22.9305 52.9667 22.8411C52.673 22.7519 52.3571 22.6793 52.0191 22.6236C51.6809 22.5678 51.3649 22.4841 51.0715 22.3726C50.7779 22.2611 50.5345 22.1034 50.3412 21.899C50.1479 21.6948 50.0514 21.3954 50.0514 21.0014C50.0514 20.7192 50.1144 20.4832 50.2409 20.2934C50.367 20.1042 50.5288 19.9535 50.7257 19.842C50.9225 19.7306 51.1439 19.6509 51.3888 19.6022C51.6341 19.5541 51.8793 19.5296 52.1246 19.5296C52.4218 19.5296 52.7005 19.5631 52.9607 19.63C53.2209 19.6969 53.4458 19.8048 53.635 19.9533C53.8242 20.1017 53.9732 20.2695 54.0809 20.4998C54.1886 20.7303 54.2424 21.0419 54.2424 21.3138H53.8188C53.8188 21.0419 53.7761 20.853 53.6907 20.667C53.6054 20.481 53.4863 20.3418 53.334 20.2262C53.1815 20.1112 53.0012 20.0313 52.7932 19.9755C52.5852 19.9198 52.3622 19.8948 52.1243 19.8948C51.931 19.8948 51.7361 19.9146 51.5392 19.9519C51.3421 19.9891 51.1656 20.053 51.0098 20.1422C50.8537 20.2311 50.7254 20.347 50.6251 20.4881C50.5247 20.6295 50.4744 20.8005 50.4744 21.0009C50.4744 21.2314 50.5302 21.4174 50.6417 21.5585C50.7531 21.6999 50.8997 21.8133 51.0819 21.8984C51.2638 21.9838 51.4682 22.0526 51.695 22.1048C51.9215 22.1567 52.1502 22.2089 52.3805 22.2606C52.6627 22.3128 52.9283 22.3742 53.1774 22.4447C53.4265 22.5156 53.6418 22.6119 53.824 22.7345C54.0059 22.8571 54.1492 23.0151 54.2533 23.2081C54.3572 23.4015 54.4094 23.6467 54.4094 23.9439C54.4094 24.256 54.3387 24.5124 54.1976 24.7131C54.0562 24.9138 53.8781 25.0753 53.6625 25.1979C53.4468 25.3205 53.207 25.4062 52.9433 25.4543C52.6793 25.5027 52.4212 25.5269 52.1684 25.5269C51.8413 25.5269 51.5386 25.4839 51.26 25.3986C50.9813 25.3132 50.7376 25.1832 50.5296 25.0084C50.3214 24.8336 50.1579 24.6209 50.0391 24.3681C49.92 24.1155 49.857 23.7604 49.8496 23.4885H50.2749V23.4896Z" fill="black"/>
<path d="M55.6361 23.4896C55.6508 23.7615 55.7103 23.992 55.8144 24.1965C55.9183 24.401 56.054 24.575 56.2215 24.7199C56.3887 24.8648 56.5839 24.9744 56.8066 25.0484C57.0296 25.1229 57.271 25.1598 57.5312 25.1598C57.7169 25.1598 57.916 25.143 58.1275 25.1095C58.3393 25.0761 58.5362 25.0149 58.7183 24.9257C58.9002 24.8365 59.0509 24.712 59.1697 24.5521C59.2885 24.3925 59.3481 24.19 59.3481 23.9447C59.3481 23.6252 59.2515 23.3838 59.0582 23.2201C58.8649 23.0567 58.6215 22.9305 58.3279 22.8411C58.0342 22.7519 57.7183 22.6793 57.3803 22.6236C57.0421 22.5678 56.7261 22.4841 56.4327 22.3726C56.1391 22.2611 55.8957 22.1034 55.7024 21.899C55.5091 21.6948 55.4126 21.3954 55.4126 21.0014C55.4126 20.7192 55.4757 20.4832 55.6021 20.2934C55.7283 20.1042 55.89 19.9535 56.0869 19.842C56.2837 19.7306 56.5051 19.6509 56.7501 19.6022C56.9953 19.5541 57.2406 19.5296 57.4858 19.5296C57.783 19.5296 58.0617 19.5631 58.3219 19.63C58.5821 19.6969 58.807 19.8048 58.9962 19.9533C59.1855 20.1017 59.3345 20.2695 59.4421 20.4998C59.5509 20.7309 59.6047 21.0425 59.6047 21.3144H59.1811C59.1811 21.0425 59.1384 20.8535 59.053 20.6675C58.9677 20.4815 58.8486 20.3423 58.6963 20.2268C58.5438 20.1118 58.3635 20.0318 58.1555 19.9761C57.9475 19.9204 57.7245 19.8953 57.4866 19.8953C57.2933 19.8953 57.0984 19.9152 56.9015 19.9524C56.7044 19.9897 56.5279 20.0536 56.3721 20.1428C56.216 20.2317 56.0877 20.3475 55.9874 20.4886C55.887 20.63 55.8367 20.801 55.8367 21.0014C55.8367 21.232 55.8925 21.418 56.004 21.5591C56.1154 21.7005 56.262 21.8139 56.4442 21.899C56.6261 21.9843 56.8305 22.0531 57.0573 22.1053C57.2838 22.1573 57.5125 22.2095 57.7428 22.2611C58.025 22.3133 58.2906 22.3748 58.5397 22.4452C58.7888 22.5162 59.0041 22.6124 59.1863 22.735C59.3682 22.8577 59.5115 23.0156 59.6156 23.2087C59.7195 23.402 59.7717 23.6473 59.7717 23.9444C59.7717 24.2566 59.701 24.513 59.5599 24.7136C59.4185 24.9143 59.2404 25.0758 59.0248 25.1984C58.8091 25.3211 58.5693 25.4067 58.3056 25.4548C58.0416 25.5032 57.7835 25.5274 57.5307 25.5274C57.2036 25.5274 56.901 25.4845 56.6223 25.3991C56.3436 25.3137 56.0999 25.1838 55.8919 25.0089C55.6837 24.8341 55.5203 24.6215 55.4014 24.3686C55.2823 24.116 55.2193 23.7609 55.2119 23.489H55.6361V23.4896Z" fill="black"/>
<path d="M60.9608 22.6739V22.6516C60.9608 22.9857 61.0029 23.3055 61.0924 23.6103C61.1818 23.9151 61.3126 24.1824 61.488 24.4127C61.6631 24.6432 61.8822 24.8254 62.1468 24.9592C62.4114 25.0927 62.7183 25.1596 63.0685 25.1596C63.6422 25.1596 64.0969 25.0269 64.4321 24.7259C64.7674 24.4249 64.9982 24.0334 65.1249 23.4896H65.5485C65.4221 24.0334 65.1488 24.6536 64.729 25.0103C64.3092 25.367 63.7537 25.5364 63.0626 25.5364C62.6389 25.5364 62.2691 25.4557 61.9532 25.3034C61.6373 25.1511 61.3735 24.941 61.1617 24.6769C60.9499 24.4132 60.7919 24.1 60.6881 23.7394C60.5839 23.3792 60.532 22.9904 60.532 22.5741C60.532 22.1728 60.5858 21.7878 60.6938 21.4201C60.8014 21.052 60.9629 20.7287 61.1786 20.45C61.3939 20.1713 61.6636 19.9484 61.9869 19.7811C62.3102 19.6139 62.6909 19.5302 63.1297 19.5302C63.531 19.5302 63.8859 19.6047 64.1942 19.7531C64.5025 19.9019 64.7608 20.1044 64.9691 20.3606C65.1771 20.617 65.3351 20.9144 65.443 21.2524C65.5507 21.5906 65.6045 21.9528 65.6045 22.3392C65.6045 22.3767 65.6026 22.4637 65.5988 22.5121C65.595 22.5608 65.5931 22.6739 65.5931 22.6739H60.9608ZM65.1695 22.1301C65.1546 21.8582 65.1023 21.5656 65.0129 21.2872C64.9234 21.0085 64.7913 20.785 64.6162 20.5732C64.4408 20.3614 64.2287 20.2034 63.9789 20.077C63.729 19.9505 63.4443 19.8929 63.1237 19.8929C62.7809 19.8929 62.4791 19.9606 62.2183 20.0908C61.9576 20.2211 61.7376 20.3929 61.5589 20.605C61.38 20.8168 61.2422 21.021 61.1454 21.3035C61.0486 21.586 60.9888 21.8584 60.9665 22.1303L65.1695 22.1301Z" fill="black"/>
<path d="M66.6721 19.683H66.944V20.7706H67.0327C67.1069 20.7706 67.2129 20.4236 67.3502 20.2561C67.4875 20.0892 67.6474 19.9758 67.8296 19.857C68.0115 19.7382 68.2103 19.664 68.4259 19.6044C68.6412 19.5451 68.8606 19.5226 69.0836 19.5226C69.418 19.5226 69.7022 19.5674 69.9365 19.649C70.1707 19.7311 70.3618 19.8404 70.5105 19.9742C70.659 20.108 70.7762 20.2591 70.8618 20.4266C70.9472 20.5938 71.0087 20.7635 71.0456 20.9343C71.0829 21.1056 71.0543 21.2709 71.0619 21.4307C71.0693 21.5906 71.0225 21.7301 71.0225 21.8489V25.3928H70.7506V21.7709C70.7506 21.6298 70.7142 21.4514 70.6919 21.2358C70.6696 21.0202 70.5918 20.8141 70.4842 20.6172C70.3765 20.4204 70.2065 20.2513 69.9874 20.1101C69.7682 19.969 69.4621 19.8983 69.0757 19.8983C68.7486 19.8983 68.4571 19.9579 68.2045 20.0767C67.9517 20.1958 67.7355 20.3608 67.5572 20.5726C67.3788 20.7844 67.2097 21.037 67.1169 21.3307C67.024 21.6243 66.944 21.9457 66.944 22.2948V25.3928H66.6721V19.683Z" fill="black"/>
<path d="M77.0026 19.683V25.0927C77.0026 25.4124 77.0129 25.7227 76.9387 26.0237C76.8647 26.3246 76.7603 26.5903 76.5787 26.8209C76.397 27.0512 76.1586 27.235 75.8399 27.3725C75.521 27.5101 75.1229 27.5789 74.6338 27.5789C74.3298 27.5789 74.0473 27.5471 73.7803 27.484C73.5135 27.4209 73.2813 27.3203 73.0809 27.183C72.8806 27.0457 72.7201 26.7983 72.5978 26.5715C72.4754 26.3448 72.4077 26.2085 72.3928 25.6647H72.8164C72.8387 25.9366 72.9018 26.1982 73.0059 26.3766C73.11 26.5549 73.2457 26.7344 73.4129 26.8497C73.5799 26.9647 73.7678 27.0645 73.9758 27.117C74.1838 27.1686 74.4067 27.2029 74.6446 27.2029C75.0384 27.2029 75.3673 27.1474 75.6311 27.0289C75.8951 26.9098 76.105 26.7578 76.2611 26.568C76.4169 26.3788 76.5496 26.164 76.6127 25.9225C76.6757 25.6808 76.7304 25.4388 76.7304 25.1933V23.7615H76.6521C76.4517 24.3053 76.1795 24.5666 75.8345 24.7895C75.4894 25.0122 75.0723 25.1528 74.5829 25.1528C74.1601 25.1528 73.7952 25.0949 73.4874 24.9502C73.1796 24.8053 72.9238 24.6117 72.7199 24.3553C72.5159 24.0992 72.3637 23.8033 72.2639 23.4618C72.1638 23.1201 72.1135 22.7503 72.1135 22.3487C72.1135 21.9697 72.1674 21.6105 72.2753 21.2684C72.383 20.9267 72.5412 20.6278 72.7492 20.3714C72.9572 20.1153 73.2155 19.9108 73.5239 19.7586C73.8325 19.6063 74.187 19.5302 74.5886 19.5302C75.0419 19.5302 75.4598 19.6025 75.8426 19.8328C76.2252 20.0634 76.4985 20.499 76.6621 20.7709H76.7307V19.6833L77.0026 19.683ZM74.5889 19.8981C74.2395 19.8981 73.9369 19.9688 73.6802 20.1099C73.4241 20.2513 73.212 20.437 73.0448 20.6673C72.8776 20.8978 72.7511 21.1597 72.6658 21.4533C72.5804 21.747 72.5374 22.0461 72.5374 22.3506C72.5374 22.685 72.5801 23.0026 72.6658 23.3039C72.7509 23.6048 72.8811 23.8667 73.0559 24.0899C73.2305 24.3129 73.4464 24.4896 73.7025 24.6193C73.9589 24.7495 74.2542 24.8145 74.5889 24.8145C74.938 24.8145 75.2428 24.7476 75.503 24.6139C75.763 24.4801 75.9805 24.2982 76.155 24.0676C76.3296 23.8373 76.4596 23.5752 76.5452 23.2816C76.6306 22.9882 76.6736 22.6777 76.6736 22.3506C76.6736 22.0311 76.6309 21.7225 76.5452 21.4256C76.4596 21.1287 76.3296 20.8663 76.155 20.6395C75.9802 20.4128 75.763 20.2325 75.503 20.099C75.2428 19.9649 74.938 19.8981 74.5889 19.8981Z" fill="black"/>
<path d="M78.631 22.6739V22.6516C78.631 22.9857 78.615 23.3055 78.7047 23.6103C78.7944 23.9151 78.8958 24.1824 79.0712 24.4127C79.2466 24.6432 79.4511 24.8254 79.7156 24.9592C79.9802 25.0927 80.2801 25.1596 80.6303 25.1596C81.204 25.1596 81.6548 25.0269 81.9903 24.7259C82.3253 24.4249 82.5526 24.0334 82.6796 23.4896H83.1032C82.9768 24.0334 82.7035 24.6536 82.2837 25.0103C81.8639 25.367 81.3084 25.5364 80.6172 25.5364C80.1934 25.5364 79.8238 25.4557 79.5079 25.3034C79.1919 25.1511 78.9282 24.941 78.7167 24.6769C78.5049 24.4132 78.3469 24.1 78.2427 23.7394C78.1386 23.3792 78.0867 22.9904 78.0867 22.5741C78.0867 22.1728 78.1405 21.7878 78.2485 21.4201C78.3561 21.052 78.5176 20.7287 78.7335 20.45C78.9489 20.1713 79.2183 19.9484 79.5416 19.7811C79.8649 19.6139 80.2458 19.5302 80.6844 19.5302C81.0857 19.5302 81.4403 19.6047 81.7489 19.7531C82.0572 19.9019 82.3155 20.1044 82.5238 20.3606C82.7318 20.617 82.8898 20.9144 82.9975 21.2524C83.1051 21.5906 83.1592 21.9528 83.1592 22.3392C83.1592 22.3767 83.1573 22.4637 83.1535 22.5121C83.1492 22.5608 83.1473 22.6739 83.1473 22.6739H78.631ZM82.7239 22.1301C82.7087 21.8582 82.6568 21.5656 82.5676 21.2872C82.4781 21.0085 82.346 20.785 82.1706 20.5732C81.9952 20.3614 81.7831 20.2034 81.5335 20.077C81.2837 19.9505 80.9987 19.8929 80.6781 19.8929C80.3353 19.8929 80.0338 19.9606 79.773 20.0908C79.512 20.2211 79.292 20.3929 79.1134 20.605C78.9345 20.8168 78.7966 21.021 78.6998 21.3035C78.603 21.586 78.5432 21.8584 78.5209 22.1303L82.7239 22.1301Z" fill="black"/>
<path d="M84.6158 21.0425H84.5995C84.6514 20.7706 84.7463 20.6284 84.8839 20.4647C85.0215 20.3013 85.1884 20.1333 85.3856 20.0142C85.5827 19.8951 85.7994 19.7907 86.0408 19.7276C86.2826 19.6645 86.5191 19.6232 86.791 19.6305V20.0544C86.5191 20.0248 86.316 20.0471 86.0297 20.1213C85.7437 20.1955 85.4718 20.3592 85.2118 20.6118C85.1074 20.7233 85.0171 20.8312 84.9391 20.9348C84.8611 21.0392 84.7964 21.1542 84.7442 21.2804C84.6919 21.4066 84.6762 21.5479 84.6465 21.704C84.6169 21.8601 84.6158 22.0461 84.6158 22.2614V25.3929H84.072V19.683H84.6158V21.0425Z" fill="black"/>
</svg>
