<svg width="32" height="32" viewBox="0 0 32 32" fill="none" xmlns="http://www.w3.org/2000/svg">
<path d="M30.0005 15.58C30.0005 23.3832 23.8871 29.16 16.0005 29.16C14.5841 29.16 13.2251 28.9733 11.9477 28.6221C11.6995 28.5534 11.4357 28.5729 11.2001 28.6766L8.42121 29.9033C7.69449 30.2244 6.87402 29.7074 6.84965 28.9131L6.77325 26.4224C6.76371 26.1158 6.62577 25.8286 6.39699 25.6246C3.67286 23.1883 2.00049 19.6617 2.00049 15.58C2.00049 7.77713 8.1139 1.99997 16.0005 1.99997C23.8871 1.99997 30.0005 7.77713 30.0005 15.58Z" fill="#0866FF"/>
<path d="M19.8019 19.4892L24.6762 11.9562C25.1663 11.199 24.2585 10.3177 23.5162 10.8298L18.428 14.3394C18.2565 14.4578 18.0305 14.461 17.8558 14.3479L13.3398 11.4261C12.9575 11.1788 12.4472 11.2881 12.2 11.6704L7.3254 19.2038C6.83524 19.9609 7.74305 20.8422 8.48532 20.3301L13.5746 16.8202C13.7461 16.7017 13.9721 16.6985 14.1471 16.8117L18.6624 19.7335C19.0448 19.9807 19.555 19.8715 19.8023 19.4892H19.8019Z" fill="white"/>
</svg>
