<svg width="160" height="34" viewBox="0 0 160 34" fill="none" xmlns="http://www.w3.org/2000/svg">
<path d="M43.6175 27.3542L38.2017 8.09241H42.519C43.8627 13.59 45.7361 20.513 46.1022 23.4865H46.1431C46.7545 20.1468 48.9941 12.6941 50.2561 8.09241H54.1663C55.3466 12.2462 57.6679 20.5539 58.1567 23.3639H58.1975C58.8089 19.8215 60.9259 12.1645 62.0261 8.09241H66.0981L60.3162 27.3542H55.9188C54.5087 22.4937 53.1922 17.6058 51.9694 12.6941C51.358 15.8295 49.3228 22.7934 47.979 27.3542H43.6209H43.6175Z" fill="#053361"/>
<path d="M28.0624 24.8694C27.6554 24.7467 27.3709 24.585 27.0848 24.2988C26.7595 23.9327 24.7227 20.2268 24.7227 19.9815C24.7227 19.818 24.7227 19.7772 24.8044 19.818C24.8862 19.818 25.1297 19.3701 25.5776 18.3926C26.2691 16.7644 26.3099 16.7644 26.8805 17.1714C28.5086 18.4334 29.975 19.0857 31.4822 19.2083C32.1345 19.2492 32.2963 19.331 32.2963 19.6154L32.6215 19.2901C31.8875 21.1703 31.0172 22.9943 30.0158 24.7467C29.6905 24.9102 28.3877 24.9903 28.0198 24.8694H28.0607H28.0624Z" fill="url(#paint0_linear_128_2494)"/>
<path d="M6.71974 24.8286C6.44838 24.7196 6.13615 24.258 5.78304 23.444L4.9281 21.4888L4.39844 20.2677L4.96897 20.6748C5.37601 20.6748 6.27183 20.5113 7.24939 20.1451L8.22696 19.8607C8.51138 19.7381 8.634 19.6972 8.634 19.5763C8.634 19.4945 8.75662 19.4128 8.83837 19.3719C8.96099 19.3719 9.4089 19.1675 9.81594 18.9649L10.7526 18.6396C10.8344 18.6396 10.8753 18.6396 10.8753 18.5578C10.8753 18.5169 10.9161 18.4761 10.9979 18.4761C11.0387 18.4761 11.2414 18.7605 11.4049 19.1675C11.6893 19.8998 11.8119 19.9816 11.8937 19.8198C11.9754 19.7381 11.9754 19.8198 11.9754 19.9424C11.9754 20.2268 9.97943 23.8118 9.53152 24.2597C9.12449 24.7485 8.71745 24.912 7.8625 24.9512C7.2511 24.9512 6.96668 24.9512 6.72144 24.8286H6.71974Z" fill="url(#paint1_linear_128_2494)"/>
<path d="M28.1455 24.8696C28.1455 24.8287 28.0229 24.7878 27.8611 24.7878C27.6567 24.7878 27.6175 24.7878 27.6175 24.5835C27.6175 24.3791 27.6175 24.3399 27.3331 24.3399C27.0487 24.3399 27.0078 24.3399 27.0078 24.0555V23.7302L27.3331 24.0146C27.6993 24.3808 28.0246 24.5443 28.4742 24.6669C28.8403 24.7487 28.8403 24.9513 28.4333 24.9513C28.2698 24.9513 28.1489 24.9513 28.1489 24.8696H28.1455Z" fill="url(#paint2_radial_128_2494)"/>
<path d="M28.6369 24.7486C28.6369 24.6668 29.2074 24.6668 29.4101 24.626L30.0624 24.3007C30.4286 24.0571 30.4694 24.0963 30.3877 24.4233C30.3877 24.5459 30.3059 24.6277 30.1441 24.6277C30.0215 24.6277 29.9398 24.6685 29.9398 24.7503C29.9398 24.8729 29.6554 24.9546 29.2875 24.9546C29.1649 24.9546 28.6352 24.832 28.6352 24.7503L28.6369 24.7486ZM18.6994 22.9552C18.4951 22.5482 18.3333 22.3847 18.2924 22.4256C18.1698 22.4256 18.1289 22.4256 18.1289 22.2621C18.1289 21.855 20.0432 18.597 21.2643 16.8463C21.9557 15.9096 22.0783 15.787 22.3236 15.7461C22.528 15.7461 22.5671 15.7461 22.6489 15.9505V16.3166C22.0664 17.0796 21.5623 17.8971 21.1417 18.7605C20.474 20.2013 19.8626 21.6694 19.3091 23.1579L19.6753 24.4608C19.6753 24.786 18.9839 23.4832 18.6977 22.9535L18.6994 22.9552ZM26.4382 23.1187C26.4382 22.7526 26.5609 22.7117 26.7226 23.0779C26.8316 23.2947 26.8044 23.4031 26.6409 23.4031C26.5047 23.4031 26.4365 23.3083 26.4365 23.1187H26.4382Z" fill="url(#paint3_radial_128_2494)"/>
<path d="M26.0247 22.3456C26.0247 21.9794 26.1064 21.9794 26.2682 22.3456C26.4726 22.63 26.7161 23.0371 26.4726 23.0371C26.3091 23.0371 25.9838 22.63 25.9838 22.3456H26.0247ZM25.5768 21.5707C25.5768 21.3272 25.5359 21.2863 25.4133 21.2863C25.2089 21.2863 25.1288 21.1228 25.1288 20.7566C25.1288 20.5931 25.1288 20.5131 24.9654 20.5131C24.8427 20.5131 24.761 20.4313 24.761 20.3087C24.6792 20.0243 24.6384 19.7382 24.761 19.7791C24.9245 19.7791 25.9821 21.7342 25.9821 21.8159C25.9821 21.8568 25.9003 21.8977 25.7777 21.8977C25.5734 21.8977 25.5734 21.8568 25.5734 21.5724L25.5768 21.5707Z" fill="url(#paint4_radial_128_2494)"/>
<path d="M27.7772 24.7875L27.6137 24.7058C27.532 24.7058 27.4502 24.624 27.4502 24.5831C27.4502 24.5014 27.3685 24.4605 27.2867 24.4605C27.0823 24.4605 26.9205 24.217 26.9205 23.9309C26.9205 23.6056 27.0023 23.6056 27.1641 23.89C27.4485 24.1744 27.7755 24.4197 28.1417 24.5814C28.5078 24.6632 28.4261 24.8659 28.1008 24.8659C27.9373 24.8659 27.7755 24.8659 27.7755 24.7841L27.7772 24.7875ZM19.1034 23.5255C19.0217 23.282 18.9399 22.9959 19.0625 22.9141L19.1852 22.7098C19.8783 20.8636 20.6396 19.043 21.4656 17.2531C21.2527 17.5188 21.05 17.7896 20.8542 18.0672C20.5289 18.5968 20.2019 19.0039 20.1627 19.0039C20.1627 19.0039 20.081 18.8812 20.081 18.7194C20.081 18.4759 20.1218 18.435 20.3245 18.435C20.488 18.435 20.5289 18.3533 20.6089 18.1097L20.6907 17.6618C20.6907 17.5392 20.7316 17.4983 20.7724 17.4983C20.9359 17.4983 21.0977 17.2139 21.1386 17.0504C21.1386 16.9687 21.1386 16.8869 21.2203 16.8869C21.2612 16.8869 21.3021 16.8461 21.3021 16.7643C21.3021 16.6826 21.343 16.6417 21.4247 16.6008C21.5064 16.6008 21.5473 16.4782 21.5473 16.4373C21.5473 16.3556 21.6291 16.2738 21.6699 16.2738C21.7517 16.2329 21.7926 16.1512 21.7926 16.1103C21.7926 16.0286 22.2814 15.5398 22.3631 15.5398C22.4448 15.5398 22.8928 16.3539 22.9745 16.5582H22.7701L22.5658 16.8427L21.6699 18.6343C21.2629 19.4484 20.8559 20.2624 20.8559 20.4259L19.8783 22.8698C19.5121 23.5221 19.3895 23.6839 19.226 23.6839C19.1443 23.6839 19.1443 23.5613 19.1034 23.4796V23.5204V23.5255ZM26.0656 22.5071C26.0656 22.1409 26.1473 22.1409 26.35 22.5071C26.5544 22.7915 26.5544 22.8324 26.2683 22.8324C26.1048 22.8324 26.0639 22.7915 26.0639 22.5071H26.0656Z" fill="url(#paint5_radial_128_2494)"/>
<path d="M25.6189 21.7343C25.6189 21.3682 25.7415 21.3682 25.9442 21.7343C26.2695 22.3457 26.1877 22.1822 25.8624 22.0596C25.6989 21.9779 25.6581 22.0188 25.6581 21.7752L25.6172 21.7343H25.6189Z" fill="url(#paint6_radial_128_2494)"/>
<path d="M4.84628 21.0429C4.62148 20.7091 4.43073 20.3549 4.27575 19.9836L3.74609 18.8034L4.31663 19.1287C5.33507 19.0061 9.69155 16.93 9.69155 16.5638C9.69155 16.4412 9.97596 16.0751 10.0168 16.1568C10.0168 16.1568 10.4239 16.8891 10.6691 17.5005C11.1988 18.7216 11.2805 19.0078 11.0762 18.926C10.7509 18.9669 10.4647 19.0486 10.1803 19.2104L9.16189 19.6175L8.87748 19.7401H9.28451C9.7733 19.6583 9.56893 19.781 8.67311 20.0654L7.49287 20.4315C6.62089 20.6785 5.73699 20.8828 4.84628 21.0429Z" fill="url(#paint7_linear_128_2494)"/>
<path d="M4.23985 19.5763C4.23985 19.4945 4.15811 19.4128 4.11723 19.4128C3.99461 19.4128 3.83282 19.0057 3.42578 18.0282C3.42578 18.0282 3.79194 18.0282 4.15811 17.8647C5.58358 17.3759 6.80469 16.6844 8.0275 15.7886C8.75983 15.2181 8.92333 15.0563 8.92333 14.9337C8.92333 14.8519 8.9642 14.8111 9.04595 14.8111C9.1277 14.8111 9.16857 14.7702 9.16857 14.7293C9.16857 14.6476 9.20944 14.6067 9.29119 14.6067C9.41381 14.6067 10.1461 16.2348 10.2279 16.7236C10.2688 16.928 10.2688 16.9672 10.187 16.8462C10.0235 16.6419 9.94347 16.6419 9.94347 16.8054C8.38175 17.9311 6.64971 18.7963 4.81209 19.3702C4.56855 19.452 4.3233 19.5337 4.28243 19.6137L4.24156 19.5729L4.23985 19.5763Z" fill="url(#paint8_linear_128_2494)"/>
<path d="M8.5565 24.6258L8.84091 24.4214L9.37057 23.9735L9.69586 23.6482V23.9326C9.69586 24.217 9.53236 24.4623 9.28882 24.4623C9.24795 24.4623 9.1662 24.5031 9.1662 24.5849C9.1662 24.6666 9.08445 24.7075 8.88179 24.7075L8.51562 24.5849L8.5565 24.6258Z" fill="url(#paint9_linear_128_2494)"/>
<path d="M3.21982 17.6621L2.89453 16.8889L3.0989 16.848C3.8721 16.6845 5.54282 15.8296 6.43864 15.0973C7.23568 14.4876 7.93565 13.7586 8.5147 12.9395C8.5147 12.9395 8.59645 12.9395 8.71907 13.1438L9.45139 14.8537L9.65576 15.3425C9.69664 15.4651 9.57401 15.3425 9.53314 15.3425C9.45139 15.3425 9.41052 15.2608 9.41052 15.179C9.41052 15.0973 9.36964 15.0564 9.2879 15.0564C9.24702 15.0564 9.16527 15.0973 9.16527 15.179C9.16527 15.3425 9.00178 15.4634 8.26945 16.034C7.16926 16.848 5.74379 17.6621 4.68617 18.0708L3.99472 18.3144L3.66943 18.437C3.58769 18.437 3.42589 18.1117 3.22152 17.6638L3.21982 17.6621Z" fill="url(#paint10_linear_128_2494)"/>
<path d="M24.3923 30.9376C23.4266 30.66 22.616 29.9975 22.1527 29.1051C21.8269 28.5624 21.7588 28.291 21.9484 28.291C22.1119 28.291 22.478 28.1684 22.7624 28.0066C23.4147 27.7222 24.147 27.5995 24.7993 27.763C25.4908 28.1701 26.1022 28.6997 26.591 29.352L26.998 29.8408L27.405 29.7591L28.7896 27.9265C28.9123 27.763 28.3826 28.945 27.6094 30.0026C26.7596 30.803 25.581 31.1505 24.4332 30.9393H24.3923V30.9376ZM28.0573 24.7878C28.0573 24.6243 28.1391 24.5834 28.4644 24.6651C28.7488 24.7469 28.6687 24.9496 28.3417 24.9496C28.0982 24.9496 28.0164 24.9496 28.0164 24.7861H28.0573V24.7878Z" fill="url(#paint11_radial_128_2494)"/>
<path d="M19.2674 24.0143C19.1051 23.7157 19.0778 23.5119 19.1857 23.4029C19.39 23.1185 20.4068 20.8772 20.5703 20.2267C21.134 18.854 21.7863 17.5222 22.5254 16.2363C22.4845 16.2363 22.4437 16.1955 22.4437 16.1137C22.4437 15.8702 22.648 15.9911 22.8916 16.439C23.176 16.846 23.2169 17.1713 23.0142 17.1713C21.8868 19.0754 20.9722 21.0952 20.2859 23.1985C20.0015 23.8099 21.9958 28.9005 22.0366 28.9413L19.2674 24.0143ZM27.168 24.2596V24.016L27.4524 24.1795C27.8186 24.4639 27.8595 24.5457 27.4933 24.5457C27.2089 24.5457 27.168 24.5457 27.168 24.2613V24.2596ZM30.019 24.3396L30.426 24.0552L30.7104 23.7299L30.5469 24.0961C30.4652 24.3396 30.3426 24.4622 30.2625 24.4622C30.1399 24.4622 30.019 24.3396 30.019 24.3396ZM26.5157 23.282C26.5157 22.9158 26.5975 22.9158 26.841 23.282L27.0045 23.6073H26.761C26.5174 23.6073 26.5174 23.5664 26.5174 23.282H26.5157ZM25.2946 21.1634C25.2946 20.7563 25.3764 20.7563 25.6199 21.1634L25.8243 21.4886H25.5807C25.3372 21.4886 25.2963 21.4478 25.2963 21.1634H25.2946ZM24.8876 20.3902C24.8876 19.9831 24.9693 19.9831 25.2129 20.3902L25.4172 20.7972L25.1328 20.6746C24.9705 20.6746 24.8893 20.5798 24.8893 20.3902H24.8876Z" fill="url(#paint12_radial_128_2494)"/>
<path d="M10.2267 16.969C10.1449 16.8464 10.1041 16.7254 10.1449 16.6846C10.1449 16.6846 10.2676 16.7663 10.3084 16.9281C10.4719 17.2534 10.4311 17.2534 10.2267 16.9281V16.969Z" fill="url(#paint13_linear_128_2494)"/>
<path d="M8.51562 29.4712V29.2277C8.51562 29.0653 8.61043 28.9841 8.80004 28.9841C8.98965 28.9841 9.08445 29.0789 9.08445 29.2685C9.08445 29.4582 9.00327 29.553 8.84091 29.553L8.5565 29.5121L8.51562 29.4712Z" fill="#00B0E7"/>
<path d="M3.05824 17.214L3.01737 17.1322C2.93562 17.1322 2.32592 15.7068 2.36509 15.7068C3.00885 15.4155 3.65943 15.1447 4.32023 14.8927L4.84988 14.4039C5.9092 13.5898 7.08943 12.367 7.21206 11.8782C7.33468 11.3895 7.37555 11.3895 7.78259 11.7965C8.18962 12.2035 8.51491 12.6923 8.67841 13.2628C8.67841 13.4672 8.67841 13.5064 8.59666 13.4672C8.51491 13.4672 8.43316 13.4672 8.43316 13.549C7.35852 15.0136 5.88876 16.1427 4.1976 16.807C3.79057 16.9296 3.50615 17.0914 3.50615 17.214C3.50615 17.2685 3.4789 17.2685 3.4244 17.214C3.34266 17.0914 3.30178 17.0914 3.26091 17.1322C3.17916 17.2549 2.97649 17.2957 3.01737 17.214H3.05824Z" fill="url(#paint14_linear_128_2494)"/>
<path d="M10.5943 30.9378C10.1873 30.8152 9.41406 30.449 9.41406 30.3264L9.73935 30.2446C9.90285 30.2446 10.0238 30.2446 10.0238 30.3264H10.8378C11.4492 30.3264 11.7337 30.3673 11.938 30.449L12.3451 30.6125C12.4677 30.6125 12.4268 30.8169 12.2633 30.8969C12.0198 30.9787 10.9605 31.0195 10.6352 30.8969L10.5943 30.9378Z" fill="url(#paint15_linear_128_2494)"/>
<path d="M27.1632 30.2054C27.1632 30.1236 27.1223 30.0827 26.9997 30.1236C26.8362 30.1645 26.7153 30.0827 26.3474 29.6348C25.8774 29.0064 25.2983 28.4682 24.6375 28.0459C24.4332 27.9641 24.1896 27.9641 23.9852 27.9641C23.3943 28.085 22.8391 28.3354 22.3571 28.6964C22.1936 28.8599 21.9909 28.9008 21.9909 28.7782L21.9501 28.6556C21.8683 28.6556 21.6248 28.2485 20.8499 26.8231L20.5246 26.2525H20.7681C20.9316 26.2525 21.0525 26.2525 21.0525 26.3751C21.0525 26.4978 21.1752 26.5386 21.216 26.416L21.9892 25.7637C22.4502 25.3834 22.6807 25.0848 22.6807 24.8679C22.6807 24.651 22.7619 24.5426 22.9242 24.5426C23.2086 24.5426 23.2495 24.5835 23.6974 25.2749C23.9955 25.7143 24.3378 26.1231 24.7159 26.4961C25.4073 27.1875 25.8961 27.3919 26.671 27.3101H27.1598C27.1598 27.3919 27.2415 27.4327 27.2824 27.4327L27.7712 27.758C28.0147 27.9624 28.3009 28.1242 28.3826 28.1242H28.7079C28.5444 28.4086 28.0164 29.5497 27.6077 29.9976C27.1598 30.4864 27.2007 30.4046 27.2007 30.202H27.1598L27.1632 30.2054ZM19.7514 24.8696C19.467 24.34 19.3852 24.0555 19.547 23.892C20.0767 22.9962 20.4837 22.0595 20.7681 21.082L21.2569 19.8609L21.5822 19.0468C21.5413 19.0059 21.5822 18.965 21.5822 18.965L21.7048 18.9242C21.7048 18.8424 22.6415 16.8481 22.805 16.6437C22.9685 16.4802 23.0094 16.6437 23.2121 17.0508C23.4017 17.3221 23.4425 17.5526 23.3347 17.7422C22.8459 18.5563 22.398 19.3704 21.9909 20.2679C21.5839 21.0002 21.5022 21.2455 21.543 21.5707C21.543 22.0187 21.3795 22.6301 20.9316 23.6076C20.792 23.8989 20.6694 24.1986 20.5655 24.5035C20.5655 24.667 20.4837 24.7879 20.402 24.9105C20.3202 24.9105 20.2793 25.074 20.2793 25.1949C20.2793 25.5202 20.0358 25.3993 19.7497 24.8696H19.7514ZM29.1183 24.8287C29.1592 24.747 29.2818 24.6652 29.4028 24.6244L29.6872 24.5426C29.7689 24.5018 29.8098 24.4609 29.8507 24.5018L29.9324 24.4609C29.9324 24.42 29.9324 24.3383 30.0142 24.3383L30.2185 24.2156C30.382 24.093 30.3411 24.093 30.3411 24.3383C30.3411 24.5426 30.3003 24.6227 30.2185 24.6635L29.975 24.827L29.5679 24.9497C29.2966 24.9497 29.1609 24.9088 29.1609 24.827H29.12L29.1183 24.8287ZM26.8379 24.0964C26.8379 24.0555 26.797 23.9329 26.7153 23.892C26.5927 23.7286 26.5518 23.1597 26.6335 23.1597C26.7153 23.1597 26.8771 23.3641 27.2041 23.9738L27.3676 24.1782H27.0832C26.9605 24.1782 26.8396 24.1782 26.8396 24.0964H26.8379ZM26.1448 22.7118C26.1448 22.3048 26.2265 22.3048 26.47 22.7118L26.6744 23.0371L26.4309 22.9962C26.1873 22.9962 26.1465 22.9962 26.1465 22.7118H26.1448ZM25.7377 21.8977C25.7377 21.6934 25.6968 21.6133 25.5742 21.6133C25.4516 21.6133 25.3699 21.5725 25.3699 21.3289C25.3699 21.1654 25.4107 21.0445 25.4516 21.0445C25.5334 21.0445 25.8178 21.4107 25.8178 21.4924L26.0221 21.8994L26.2657 22.3065L25.9813 22.2247C25.8189 22.2247 25.7377 22.1299 25.7377 21.9403V21.8994V21.8977ZM24.9645 20.554C24.9645 20.2287 25.0054 20.1878 25.2081 20.4723C25.4516 20.7158 25.4516 20.8793 25.2081 20.8793C25.0037 20.8793 24.9645 20.8384 24.9645 20.554Z" fill="url(#paint16_radial_128_2494)"/>
<path d="M26.718 23.892L26.6771 23.4849C26.6771 23.3214 26.6363 23.2414 26.5136 23.2414C26.3501 23.2414 26.3501 23.2005 26.3501 22.957C26.3501 22.6726 26.3501 22.6317 26.4728 22.7526C26.5545 22.7935 26.6771 22.9962 26.7163 23.1597L26.8389 23.5258C26.8389 23.5258 27.0024 23.5258 26.9616 23.6076V23.6893C27.0433 23.6893 27.0842 23.7711 27.125 23.8528C27.125 23.9754 27.1251 24.0163 26.9616 24.0163C26.8798 24.0163 26.7572 23.9754 26.718 23.8937V23.892ZM25.9039 22.1821C25.9039 21.9652 25.9584 21.9107 26.0674 22.0186L26.2718 22.303C26.3536 22.4256 26.2718 22.4665 26.1083 22.4665C25.9448 22.4665 25.9039 22.4665 25.9039 22.1821ZM25.4969 21.368C25.4969 21.1784 25.5378 21.1375 25.6195 21.2454L25.8631 21.5707C25.8631 21.6524 25.8086 21.6933 25.6996 21.6933C25.5633 21.6933 25.4952 21.5985 25.4952 21.4089V21.368H25.4969ZM25.0899 20.634C25.0899 20.4171 25.1307 20.3626 25.2125 20.4705L25.4169 20.7958C25.4577 20.9184 25.4169 20.9593 25.2534 20.9593C25.0899 20.9593 25.049 20.9184 25.049 20.634H25.0899ZM24.6403 19.9017C24.6403 19.6973 24.4768 19.3311 24.7629 19.7382L24.9672 20.0226C25.0081 20.1452 24.9672 20.1861 24.8446 20.1861C24.6403 20.1861 24.6403 20.1452 24.6403 19.9017Z" fill="url(#paint17_radial_128_2494)"/>
<path d="M32.0151 20.0651V19.8216C32.0969 19.6172 31.8925 19.5372 31.2419 19.4554C29.7347 19.3328 28.2684 18.6822 26.6402 17.4186L26.3149 17.175L26.0305 17.6638L25.7461 18.0708L26.7237 15.8313C27.456 14.1623 27.7012 13.7144 27.8239 13.7144C27.9056 13.7144 28.2309 13.9579 28.4761 14.2849C29.1676 15.0172 30.0242 15.5877 30.9609 15.913C31.5723 16.1174 32.2229 16.1974 32.8752 16.1566H34.0963L33.9328 16.4819C33.444 17.703 32.8735 18.9258 32.3047 20.106C32.1412 20.2695 32.1003 20.2695 32.0202 20.106V20.0651H32.0151Z" fill="url(#paint18_linear_128_2494)"/>
<path d="M2.65142 16.0322C2.65142 15.9504 2.56967 15.9095 2.5288 15.9504C2.44705 15.9913 2.20351 15.4616 2.12176 14.8911C1.95826 14.2797 1.95826 14.1997 2.20351 14.1997C2.48792 14.1997 3.26282 13.8744 3.26282 13.7109L3.66986 13.3447C4.24039 12.9785 4.6883 12.5306 5.09534 12.0419C5.33888 11.7574 5.42063 11.5531 5.50237 11.2278V10.8207C5.70674 10.739 6.35732 10.9025 6.31645 10.9025C6.03203 10.7799 6.72348 11.0251 7.13052 11.3095C7.29401 11.3504 7.53756 11.5139 7.57843 11.5531C7.7828 11.7574 7.70105 11.8375 7.57843 11.9601C7.49668 12.0419 7.49668 12.1236 7.49668 12.1645C7.57843 12.2871 6.80523 13.1829 6.19382 13.7926C5.17538 14.7293 4.89097 14.9729 4.97272 14.8519C5.01359 14.7293 4.76835 14.8928 4.56568 15.0955L4.28126 15.259C3.06016 15.7478 2.77404 15.8704 2.73316 15.9913C2.73316 16.073 2.70592 16.073 2.65142 15.9913V16.0322Z" fill="url(#paint19_linear_128_2494)"/>
<path d="M12.0202 30.8556L11.7767 30.733C11.6132 30.6513 10.6356 30.5695 10.3103 30.6513C9.90329 30.8148 9.00747 30.2034 8.47781 29.4302L8.27344 28.9414L8.59873 28.8187L9.37192 28.2482C9.57629 28.0847 9.77896 27.9638 9.86071 27.9638L9.94246 27.8003C9.94246 27.7186 10.0242 27.6777 10.3086 27.6777C11.2044 27.6777 12.2229 26.8636 13.1187 25.4381C13.5257 24.7859 13.6075 24.7058 13.851 24.7058C13.9736 24.7058 14.1354 24.7467 14.1354 24.8284C14.2172 24.951 14.1354 27.0271 14.0128 28.0047C13.9311 28.9414 13.9719 29.1457 14.2972 29.1457C14.4062 29.1457 14.379 29.2678 14.2155 29.5119C13.6858 30.326 12.5873 30.9783 12.0168 30.8556H12.0202Z" fill="url(#paint20_linear_128_2494)"/>
<path d="M28.3856 28.4937C28.3856 28.4119 28.3447 28.3711 28.2221 28.4528C28.1403 28.4937 27.9785 28.4528 27.6107 28.1275C27.3671 27.884 27.081 27.7205 27.0401 27.7205L26.9175 27.6387L26.4287 27.5979C25.7765 27.5979 25.2076 27.4344 24.7597 27.0682L24.3936 26.7429H24.7188C25.6828 26.9388 26.6825 26.8689 27.6107 26.5385C28.0177 26.375 28.4656 26.295 28.9135 26.2541L29.6459 26.0498L29.4415 26.4977C28.7092 28.2076 28.3822 28.8598 28.3822 28.5346V28.4937H28.3856ZM20.9346 26.9064C20.8937 26.9064 20.8529 26.8247 20.9346 26.8247L20.812 26.702L20.7302 26.5794C20.7575 26.5794 20.7575 26.5522 20.7302 26.4977C20.3913 26.0566 20.129 25.561 19.957 25.0313C19.957 24.8269 19.957 24.706 20.0797 24.6243C20.2023 24.5834 20.284 24.4199 20.3232 24.2581C20.3232 24.1355 20.5276 23.7285 20.6894 23.3623C21.0964 22.3439 21.2599 21.8551 21.219 21.448C21.219 21.1227 21.2599 20.9184 21.626 20.2269C22.1966 19.0058 23.0924 17.0916 23.215 17.0916C23.3785 17.2959 23.5403 17.4986 23.6221 17.7438C23.8656 18.1509 24.0291 18.3552 23.9065 18.4762C23.3785 19.2102 22.888 19.9715 22.4401 20.7566C22.1966 21.1636 22.0331 21.6524 22.0331 22.1412C22.7194 23.2891 23.37 24.4574 23.9882 25.6427C23.9882 25.7653 24.1108 25.8863 24.1517 25.9271C24.2335 25.9271 24.2743 26.1315 24.2743 26.3342C24.2743 26.5238 24.2198 26.5647 24.1108 26.4568C23.9882 26.375 23.7038 25.968 23.4994 25.6427C23.0924 24.9513 23.0515 24.9513 23.0107 25.1948C22.9698 25.3992 22.8063 25.6018 22.1966 26.0089L21.3008 26.823C21.0964 27.0273 21.1373 27.0273 20.9346 26.9047V26.9064ZM28.2647 24.9921C28.0211 24.9513 27.9394 24.9104 27.9394 24.7486C27.9394 24.5442 27.9802 24.5442 28.1829 24.626L28.8744 24.7077C29.1213 24.7179 29.3683 24.6907 29.6067 24.626C29.7429 24.5715 29.8111 24.6124 29.8111 24.7486C29.8111 24.9121 29.8111 24.953 29.404 24.9921H28.2238H28.2647ZM27.2462 24.3399C27.2462 24.1355 27.2053 24.0963 26.9618 24.0963C26.7183 24.0963 26.7183 24.0963 26.7183 23.8119C26.7183 23.4049 26.8 23.4049 27.0435 23.8119C27.1662 24.0163 27.328 24.1781 27.5323 24.3007C27.9394 24.5442 27.9394 24.626 27.5323 24.626C27.3427 24.626 27.2479 24.5312 27.2479 24.3416L27.2462 24.3399Z" fill="url(#paint21_radial_128_2494)"/>
<path d="M9.53295 23.8921C9.53295 23.7694 9.81737 23.3215 9.85824 23.3215L9.93999 23.6468C9.93999 23.8904 9.93999 23.9312 9.73562 23.9312L9.53125 23.8904L9.53295 23.8921Z" fill="#00B2F7"/>
<path d="M26.3113 23.2005L26.2296 22.7934C26.2296 22.6299 26.2296 22.5499 26.0661 22.5499C25.9026 22.5499 25.8226 22.3864 25.8226 22.0611C25.8226 21.8567 25.7817 21.8176 25.6591 21.8176C25.4956 21.8176 25.4956 21.7358 25.4956 21.4923L25.5364 21.2079C25.6182 21.2079 26.7576 23.163 26.7576 23.2839C26.7576 23.4048 26.3505 23.3248 26.3096 23.2022L26.3113 23.2005ZM25.0902 20.7565C25.0902 20.3495 25.1311 20.3495 25.3338 20.6748C25.5364 21.0001 25.5381 21.041 25.252 21.041C25.0885 21.041 25.0477 21.0001 25.0477 20.7157L25.0885 20.7565H25.0902ZM24.6406 19.9425V19.6172L24.845 19.8607C25.1294 20.186 25.0885 20.2678 24.845 20.2678C24.6406 20.2678 24.6406 20.2269 24.6406 19.9425Z" fill="url(#paint22_radial_128_2494)"/>
<path d="M8.63825 13.5082C8.47475 13.3038 8.47475 13.2646 8.63825 13.2646C8.63825 13.2646 8.76087 13.3464 8.76087 13.469C8.84262 13.6734 8.84262 13.7126 8.63825 13.469V13.5099V13.5082Z" fill="url(#paint23_linear_128_2494)"/>
<path d="M9.53079 23.7708C9.77433 23.4455 9.85608 23.4455 9.85608 23.7708C9.85608 24.0961 9.85608 24.0961 9.61254 24.0961H9.32812L9.53249 23.7708H9.53079ZM11.3224 20.7972C11.3224 20.7155 11.566 20.2676 11.6477 20.2676C11.6886 20.2676 11.7295 20.3902 11.7295 20.552C11.7295 20.7416 11.6613 20.8364 11.5251 20.8364H11.3207V20.7955L11.3224 20.7972Z" fill="#00C8E6"/>
<path d="M2 14.3632C2 13.0603 2.7732 11.7983 3.91426 11.1869C4.44392 10.9025 5.74678 10.6981 5.82852 10.8616L5.95115 11.0251C6.19469 10.9434 6.11464 11.0251 5.91027 11.3095C5.78765 11.473 5.7059 11.6348 5.74678 11.7166C5.82852 11.9209 4.68746 13.1012 3.99601 13.5491L3.58897 13.9561C3.58897 14.0787 2.36787 14.6476 2.28612 14.5267L2.1635 14.6901C2.04087 14.7719 2 14.6084 2 14.3649V14.3632Z" fill="url(#paint24_linear_128_2494)"/>
<path d="M13.8114 29.2684C13.6888 29.1049 13.6888 28.8614 13.7297 28.3317C13.8421 27.332 13.8966 26.3255 13.8932 25.319C13.9749 25.2372 13.9749 25.1146 13.8523 25.1146C13.6054 25.3343 13.3993 25.5966 13.2409 25.8878C12.4268 27.1498 11.4084 27.9247 10.5535 27.9247C10.269 27.9247 10.2282 27.9656 10.269 28.0882C10.269 28.1699 10.269 28.2108 10.1464 28.2108C10.0647 28.2108 9.82113 28.3334 9.61676 28.5361L8.92531 29.0249C8.80268 29.1066 8.68177 29.2293 8.72094 29.2684C8.72094 29.3502 8.72094 29.3911 8.55744 29.2684C8.39395 29.2276 8.23215 28.9431 7.90516 28.25L6.88672 25.6443C8.43482 25.9287 10.4291 25.7669 10.4291 25.7669C11.0814 25.6443 10.5517 25.1964 11.2023 25.4416C11.9346 25.6852 10.998 26.2557 11.6094 25.8486C11.8137 25.726 12.0164 25.7669 12.139 25.726C12.2208 25.6851 12.3826 25.8895 12.3826 25.8486C12.3826 25.8078 12.667 26.053 12.7896 26.0121C12.994 25.8078 13.1149 25.4825 14.4586 23.1203L16.5755 19.537C17.3487 18.3159 17.3896 18.3159 17.6349 18.3159C17.8801 18.3159 17.9193 18.3159 17.9193 18.6003L17.7149 19.2117C17.5923 19.3752 17.4714 19.6188 17.4714 19.7414L17.267 20.3528L17.0626 21.0051L16.94 21.4121C16.2247 23.1544 15.7053 24.9716 15.3919 26.8279V27.5602L14.8622 28.4969C14.4143 29.311 14.2917 29.4336 14.1299 29.4336C14.0005 29.4404 13.8762 29.3791 13.8046 29.2701L13.8114 29.2684Z" fill="url(#paint25_linear_128_2494)"/>
<path d="M24.6785 26.9883C24.1897 26.5813 23.5783 25.7672 22.8051 24.4235C21.9502 22.8754 21.7049 22.4275 21.6641 22.1431C21.7458 21.5725 21.9076 21.0429 22.1528 20.5149C22.519 19.8235 23.4557 18.1119 23.5783 18.071C23.7009 17.9075 23.7418 17.9484 24.108 18.5598C24.2715 18.9259 24.4741 19.1712 24.3924 19.2121C23.8151 19.9035 23.3603 20.6886 23.0487 21.5334L22.6416 22.7136C22.6008 23.1615 22.6008 23.2433 22.8051 23.6912L23.1713 24.2617L23.253 24.5052C23.253 24.587 23.7418 24.7897 24.0262 24.7897C24.0262 24.7897 24.108 24.7897 24.108 24.8714L24.8403 24.7897L26.4685 24.5461C27.1207 24.5461 27.2825 24.4644 27.3234 24.3417C27.3234 24.2191 27.4051 24.3417 27.8531 24.4644C28.6671 24.7079 29.6856 24.7897 30.3787 24.1799C30.5411 24.0437 30.3918 24.478 29.9308 25.4828C29.442 26.5421 29.2394 26.8674 29.2394 26.583C29.2394 26.4604 28.5479 26.583 27.8139 26.7874C27.2025 27.0718 26.511 27.1944 25.8587 27.1535H25.4926C25.5335 27.1944 25.4517 27.2353 25.2882 27.2353C25.1247 27.2353 24.8812 27.1535 24.6768 26.9917L24.6785 26.9883Z" fill="url(#paint26_radial_128_2494)"/>
<path d="M26.5578 23.7301C26.476 23.5666 26.4352 23.3231 26.4352 23.1596C26.4352 22.9552 26.3943 22.916 26.2717 22.916C26.0673 22.916 25.9872 22.7525 25.9872 22.3864C25.9872 22.182 25.9872 22.1428 25.8238 22.1428C25.6603 22.1428 25.5802 21.9793 25.5802 21.6132C25.5802 21.4497 25.5393 21.3696 25.4167 21.3696C25.2123 21.3696 25.1323 21.2061 25.1323 20.84C25.1323 20.6765 25.1323 20.5964 24.9688 20.5964C24.8871 20.5964 24.8053 20.5556 24.7644 20.4738C24.6827 20.2694 24.6827 19.8215 24.7644 19.8215C24.8053 19.8215 25.3758 20.7582 25.9855 21.9385C27.1658 23.9753 27.2067 24.0145 26.9222 24.0145C26.7587 24.0145 26.6787 23.9328 26.5561 23.7301H26.5578Z" fill="url(#paint27_radial_128_2494)"/>
<path d="M11.408 20.634C11.6924 19.9817 11.815 19.9425 11.815 20.3904C11.815 20.634 11.815 20.6748 11.6106 20.6748L11.4062 20.634H11.408Z" fill="#00BFF9"/>
<path d="M23.0913 24.8693L22.3998 23.6482C22.1154 23.1185 22.1154 23.0776 22.2772 22.9158C22.3589 22.8341 22.3998 22.7115 22.3589 22.6723C22.4407 22.1426 22.6025 21.613 22.8477 21.1242L23.0913 20.5945C23.0913 20.431 23.9871 18.6394 24.0688 18.6394L24.3941 19.0464C26.838 23.5664 27.2451 24.2187 27.8548 24.544L28.0983 24.7075C28.0166 24.7075 28.0574 24.7075 28.0983 24.7892C26.8619 24.7109 25.622 24.8488 24.4333 25.1963C24.0262 25.278 23.9854 25.278 23.8628 25.1554C23.8219 25.0736 23.7401 25.0328 23.6993 25.0736L23.5766 24.9919C23.4949 24.9374 23.4676 24.9374 23.4949 24.9919C23.5766 25.1145 23.6584 25.5216 23.5766 25.5216L23.1696 24.8301L23.0879 24.871L23.0913 24.8693Z" fill="url(#paint28_radial_128_2494)"/>
<path d="M7.00917 24.992C6.84567 24.992 6.76562 24.9103 6.76562 24.7485C6.76562 24.6122 6.86043 24.5714 7.05004 24.6259C7.17266 24.6667 7.5797 24.7076 7.86411 24.6667C8.3529 24.6667 8.55556 24.585 8.92343 24.3823L9.33047 24.0979V24.3414C9.33047 24.5458 9.33047 24.6259 9.20784 24.6259C9.1261 24.6259 9.08522 24.6258 9.08522 24.7076C9.08522 24.912 7.82324 25.1146 7.04834 24.992H7.00746H7.00917Z" fill="url(#paint29_linear_128_2494)"/>
<path d="M28.3886 24.8695C28.4295 24.8695 28.4703 24.7878 28.3886 24.7878C28.3886 24.7605 28.4158 24.7605 28.4703 24.7878H28.6747C28.7564 24.7878 28.7973 24.8286 28.7973 24.8695L28.5538 24.9513C28.3494 24.9513 28.3102 24.9513 28.3903 24.8695H28.3886Z" fill="url(#paint30_radial_128_2494)"/>
<path d="M33.7251 16.6029C33.8069 16.4394 33.5207 16.3985 32.504 16.3593C31.8926 16.4002 31.2829 16.3593 30.7124 16.1158C29.7774 15.7803 28.9395 15.22 28.2684 14.4877L27.657 13.9989L27.4935 14.2032L27.25 14.6103L27.4135 14.2032C27.7064 13.3994 28.1186 12.6449 28.6346 11.9637C29.4487 11.1496 30.5489 10.7426 31.6474 10.9044C33.5207 11.2297 34.7827 12.9413 34.4983 14.8147C34.3757 15.4261 34.0095 16.3628 33.8869 16.3628C33.8052 16.3628 33.8052 16.4445 33.846 16.4854C33.846 16.5671 33.846 16.6489 33.7643 16.6897C33.6825 16.6897 33.6417 16.6897 33.6825 16.6489L33.7234 16.608L33.7251 16.6029Z" fill="url(#paint31_linear_128_2494)"/>
<path d="M11.6517 26.4176L9.86006 26.295C8.98638 26.2779 8.1161 26.1962 7.25435 26.0514C7.1726 26.0514 7.09085 26.0106 7.04998 25.8879C6.96823 25.8062 7.1726 26.295 7.13172 26.295C7.04998 26.295 6.15416 24.2581 6.11328 24.178L6.56119 24.4216C7.09085 24.7469 7.74143 24.8286 8.35283 24.6651C9.12603 24.4607 9.45302 24.0537 10.6741 21.8959C11.9361 19.6564 12.0587 19.452 12.0587 19.9408C12.0587 20.2661 11.977 20.4296 11.8152 20.4296C11.6926 20.4296 11.6517 20.4704 11.6517 20.714C11.6517 20.9183 11.6108 21.0393 11.5291 21.0393C11.4473 21.0393 11.4065 21.121 11.4065 21.2028C11.4065 21.4463 11.2838 21.6098 11.1629 21.6098C11.0812 21.6098 11.0403 21.6915 11.0403 21.7733C11.0403 22.0577 10.9585 22.2212 10.8359 22.2212C10.7542 22.2212 10.7133 22.3029 10.7133 22.3847C10.7133 22.6282 10.6316 22.7917 10.4698 22.7917C10.4289 22.7917 10.3471 22.9143 10.3471 23.0353C10.3471 23.1988 10.388 23.2396 11.1203 23.2788C11.5274 23.2788 12.2205 23.4014 12.6684 23.4423C13.1164 23.524 13.646 23.5649 13.8095 23.5241C14.0939 23.5241 14.1757 23.4423 14.6236 22.5874C14.8433 22.165 15.0885 21.758 15.3559 21.3662C15.3559 21.2845 15.4376 21.2028 15.4785 21.2028C15.5603 21.2028 15.5603 21.1619 15.5603 21.0801L15.6829 20.8366L15.8464 20.5522C15.8873 20.4296 15.969 20.3478 16.0099 20.3478C16.0508 20.3478 16.0916 20.3069 16.0916 20.2252L16.2143 19.9816L16.3777 19.6972C16.3777 19.5746 16.5004 19.4929 16.5412 19.4929L16.623 19.3702C16.623 19.2885 16.623 19.2476 16.7047 19.2476L16.7865 19.125L16.8682 18.8815L17.1526 18.4744L17.4779 17.9448L17.6414 17.7012C17.6414 17.6603 17.6414 17.6195 17.7232 17.6195L17.8049 17.4968C17.8049 17.4151 17.8049 17.3742 17.8867 17.3742L17.9684 17.2107C17.9684 17.129 18.0093 17.0881 18.0502 17.0881C18.091 17.0881 18.1319 17.0472 18.1319 16.9655C18.1319 16.8837 18.1728 16.8429 18.2137 16.8429C18.2954 16.8429 18.2954 16.7611 18.2954 16.7202C18.2954 16.6385 18.3772 16.5567 18.4589 16.5159C18.4998 16.5159 18.5815 16.4341 18.5815 16.3524C18.5815 16.3115 18.5815 16.2298 18.6633 16.2298C18.7042 16.2298 18.745 16.1889 18.745 16.1071C18.745 16.0254 18.7859 15.9436 18.8677 15.9436C18.9494 15.9028 18.9903 15.821 18.9903 15.7801C18.9903 15.6984 19.0311 15.6575 19.072 15.6575C19.1538 15.6575 19.1538 15.5758 19.1538 15.5349C19.1538 15.4531 19.2355 15.3305 19.3173 15.2914C19.399 15.2096 19.5216 15.087 19.5608 14.9661C19.8452 14.4773 20.2131 14.1929 20.5793 14.1929C20.7836 14.1929 20.8637 14.2337 20.9454 14.4364C21.1089 14.8026 21.4751 14.9661 21.8821 14.8434L22.5736 14.7208C22.8988 14.6799 22.9397 14.7208 22.9397 14.9252C21.4836 16.756 20.2029 18.7197 19.1112 20.7889C16.9125 24.7792 15.1617 27.9163 15.0391 27.9163C15.0391 27.9163 14.3868 25.8402 14.4277 25.7176C14.4686 25.595 15.0391 25.0262 15.0391 24.9035C14.9574 24.7809 14.1433 25.3106 14.3068 25.067C14.3886 24.9853 15.5279 22.8684 15.5688 22.6231C15.9758 21.4821 16.5055 20.3836 17.0351 19.3242C17.4422 18.6328 19.3156 18.1031 19.3156 18.0214C19.3156 18.0214 19.3156 17.9396 19.3973 17.9396L19.4791 17.7761C19.4791 17.6944 19.4791 17.6127 19.5608 17.6127C19.8674 17.1784 20.1007 16.6964 20.2523 16.1872C20.2523 16.1463 20.2523 16.0646 20.334 16.0646C20.3749 16.0646 20.4158 15.9828 20.334 15.9011C20.334 15.8193 20.334 15.7376 20.4158 15.7376C20.4158 15.7376 20.4975 15.6558 20.4975 15.5332C20.4975 15.2488 21.1089 15.6967 21.2707 15.7767C21.3933 15.7767 21.3524 18.7094 20.8637 15.8585C20.8637 15.695 20.4566 16.2655 20.3749 16.1838C20.3749 16.0612 21.3116 16.2246 20.8637 16.7543C19.6017 18.3433 17.1986 18.953 14.8773 22.945C13.1266 25.9578 12.8405 26.3256 12.6378 26.2847L12.4743 26.3256C12.4743 26.3665 12.4334 26.3665 12.3925 26.3256C12.3517 26.3256 12.3108 26.3256 12.3108 26.4074C12.3108 26.4891 12.1882 26.4891 11.6193 26.4074H11.6602L11.6517 26.4176Z" fill="url(#paint32_linear_128_2494)"/>
<path d="M11.6072 14.1995C11.1269 13.8981 10.7335 13.4774 10.4661 12.9784L10.2617 12.4487L11.2393 12.6531H12.2169L12.1351 13.0601L12.0942 13.9151C12.0942 14.1586 12.0534 14.363 12.0125 14.363L11.6054 14.1995H11.6072Z" fill="url(#paint33_linear_128_2494)"/>
<path d="M9.24904 24.1781C9.41253 24.0146 10.0631 23.037 10.6336 22.0203C12.9958 17.9074 14.8692 14.6902 15.2762 14.1197C16.058 13.0672 16.9589 12.1101 17.9637 11.2687L18.6552 10.9026L18.4116 11.3096C18.3299 11.5532 18.2481 11.8393 18.0863 12.0828C17.761 12.6823 17.5924 13.355 17.5975 14.038C17.6793 14.445 17.9637 14.9338 18.2498 15.0973C18.4122 15.179 18.6699 15.1382 19.023 14.9747C19.6753 14.6494 19.8371 14.5676 20.0006 14.3632C20.0823 14.2406 20.205 14.1997 20.4076 14.1997C20.5972 14.1997 20.692 14.2946 20.692 14.4842C20.692 14.6068 20.692 14.6885 20.6512 14.6068C20.6512 14.525 20.5694 14.4433 20.5285 14.4433C20.2033 14.4433 17.9637 17.7013 15.7224 21.4889C14.2561 23.9329 13.9717 24.4216 14.0943 24.0946C14.1761 23.8903 14.0534 23.6876 13.8899 23.8511C13.8082 23.9329 13.6055 23.9329 12.9941 23.8102C12.18 23.6467 11.2842 23.5667 10.4293 23.4849C10.2658 23.4849 10.104 23.6076 9.85874 23.892L9.45171 24.2173L9.16729 24.3399C9.00379 24.4216 9.04467 24.4216 9.24904 24.1764V24.1781ZM18.9004 21.0427L19.1048 20.6766C19.1456 20.6766 19.1048 20.8401 18.9821 21.0427L18.7778 21.368C18.7778 21.368 18.7778 21.2045 18.9004 21.0427ZM19.3074 20.227L19.551 19.9017L19.4284 20.2678C19.3466 20.3904 19.3057 20.5114 19.1848 20.5931L19.3483 20.2678L19.3074 20.227ZM19.7145 19.6581C20.2986 18.5954 20.939 17.5616 21.6287 16.5636C21.8331 16.3201 21.9949 16.034 21.9949 15.9522C21.9949 15.8705 21.9949 15.8296 22.0766 15.8705C22.1584 15.9113 22.1993 15.7887 22.1584 15.5043L22.2401 15.3817C22.3628 15.3817 22.5654 15.1773 22.5246 15.0973C22.4428 15.0155 22.3202 15.0564 22.3611 15.1381H22.1567C21.9523 15.1381 21.8723 15.1382 21.9131 15.2199H21.7905C21.5862 15.2199 21.5862 14.9764 21.7905 14.9764C21.9131 14.9764 21.9949 14.9355 21.9949 14.8946C21.9949 14.8537 21.9949 14.8129 22.0766 14.8129L22.6472 14.5693L23.9909 13.917C24.1135 13.7535 25.212 12.6959 23.2995 14.7311L22.3219 15.8722C21.9966 16.1975 22.3219 15.7904 22.3219 15.7904L21.7922 16.6045C21.0207 17.5753 20.314 18.5954 19.6753 19.6581H19.7162H19.7145Z" fill="url(#paint34_linear_128_2494)"/>
<path d="M12.0158 13.0602C12.0567 12.9375 11.2426 12.8558 11.0791 13.0193C10.9974 13.101 10.9565 13.0602 10.9565 13.0193C10.9565 12.9376 10.9293 12.9239 10.8748 12.9784C10.8339 13.0602 10.793 13.0602 10.5903 12.9784C10.3059 12.8558 10.1016 12.2461 10.1016 11.5529C10.1424 10.3318 10.9974 9.67956 11.527 9.63868C11.9341 9.59781 12.2594 9.63869 12.5046 9.9231C12.789 10.2075 12.8299 10.3301 12.8299 10.6963C12.8299 11.0216 12.7482 11.3077 12.5864 11.6739L12.2202 12.6923C12.1793 12.9767 12.0976 13.1811 12.0567 13.1811C12.0158 13.1811 11.975 13.1402 12.0158 13.0585V13.0602Z" fill="url(#paint35_linear_128_2494)"/>
<path d="M14.7447 11.3506C14.1997 10.0051 14.1997 8.50131 14.7447 7.15587C14.9933 6.57342 15.3373 6.03694 15.7631 5.56689L15.8449 5.89218C15.8449 6.13572 15.804 6.1766 15.6405 6.1766C15.477 6.1766 15.477 6.1766 15.5587 6.25835L15.6405 6.54276C15.6405 6.9498 17.3504 7.723 18.4915 7.88649C19.1437 7.96824 19.1829 7.96824 19.5508 7.76387C19.7551 7.64125 20.0396 7.52033 20.1622 7.52033C20.4057 7.52033 20.4466 7.52033 20.4466 7.23592C20.4466 7.03155 20.4466 6.9515 20.5692 6.9515C20.6101 6.9515 20.6918 6.82888 20.7327 6.66709C20.7736 6.46272 20.8145 6.42354 21.058 6.42354C21.1806 6.42354 21.0989 5.5686 21.0989 5.60947C21.465 5.5686 20.8945 7.1167 19.9987 7.68553C19.9169 7.7264 20.4875 7.60378 20.4466 7.68553C20.4057 7.8899 19.469 8.4996 18.6549 8.82659C16.9042 9.55892 15.6013 10.4156 15.1534 11.1888C14.949 11.5141 14.869 11.5141 14.7464 11.3523L14.7447 11.3506Z" fill="url(#paint36_linear_128_2494)"/>
<path d="M20.6102 14.5675C20.6102 14.4449 20.4467 14.404 20.2849 14.5675C20.2031 14.6493 20.2031 14.5675 20.2031 14.404C20.2031 14.2144 20.2979 14.1196 20.4875 14.1196C20.6771 14.1196 20.772 14.2144 20.772 14.404C20.772 14.5675 20.772 14.7293 20.6902 14.7293L20.6085 14.5658L20.6102 14.5675Z" fill="#59E9FE"/>
<path d="M18.4509 8.17424L17.0663 7.84896C16.2522 7.52367 15.4382 7.03488 15.3973 6.74876C15.3973 6.62614 15.3156 6.5444 15.2747 6.5444C15.1929 6.5444 15.1112 6.74876 15.0703 6.70789C15.0703 6.66702 15.0703 6.46435 15.1521 6.42347L15.1929 6.34173L15.3564 6.05731L15.5608 5.7729C15.6425 5.69115 15.8861 5.40674 16.0496 5.40674L16.5792 5.69115C17.1906 6.09819 17.8412 6.3826 18.6161 6.50522C19.0232 6.58697 19.2275 6.58697 19.9599 6.3826L20.9783 6.17823C21.1827 6.17823 21.2218 6.17823 21.2218 6.46265C21.2218 6.66701 21.181 6.74706 21.1401 6.74706H21.0175V6.9906C21.0175 7.11322 20.7739 7.39764 20.5287 7.64288C20.2851 7.88642 20.1216 8.04992 20.1216 7.9273C20.2034 7.80467 20.1625 7.80467 19.9173 7.9273C19.4285 8.25258 19.265 8.29346 18.4509 8.17084V8.17424Z" fill="url(#paint37_linear_128_2494)"/>
<path d="M24.3146 5.85283C23.3779 5.36404 23.2144 3.97943 24.0711 3.32715C24.3146 3.12278 25.0486 2.92012 25.2513 3.08361C25.4557 3.28798 25.4148 3.40891 25.9428 3.36803C25.9428 3.36803 26.3498 3.69332 26.3498 3.97944C26.641 4.7356 26.2646 5.58374 25.5102 5.87497C25.1202 6.02484 24.6859 6.00269 24.3146 5.81195V5.85283Z" fill="url(#paint38_linear_128_2494)"/>
<path d="M18.2098 6.7895C17.721 6.66687 16.8661 6.25984 16.2547 5.8528C15.9294 5.64843 15.8476 5.60926 15.6841 5.6893C15.3588 5.89367 15.5615 5.60756 16.0912 5.15965C16.7826 4.50737 17.6393 4.05945 18.576 3.93853C20.1241 3.81591 21.0199 4.75261 21.2225 5.97542C21.2634 6.30071 21.059 6.99386 20.8973 7.07561C20.7338 7.19823 20.7746 7.07561 20.7746 6.99386L20.8155 6.83037C20.7338 6.95299 20.8973 6.83037 20.8973 6.626V6.42163L20.1241 6.626C19.4922 6.82526 18.8212 6.86783 18.1689 6.74862L18.2098 6.7895Z" fill="url(#paint39_linear_128_2494)"/>
<path d="M26.2299 3.97951C25.9864 3.89776 25.7411 3.89776 25.4976 3.89776C24.8862 3.89776 24.8061 3.89775 24.6017 3.69338C24.4383 3.52989 24.2765 3.44984 24.1947 3.44984C23.9103 3.44984 24.1538 3.20631 24.52 3.08368C24.8862 2.96106 25.2932 2.96106 25.6202 3.16543C26.0272 3.3698 26.2316 3.57247 26.2725 3.85688C26.2997 3.99313 26.2861 4.034 26.2316 3.97951H26.2299Z" fill="url(#paint40_linear_128_2494)"/>
<path d="M20.8954 14.9748C20.7728 14.8607 20.6757 14.721 20.611 14.5678C20.5292 14.4043 20.1222 14.5678 19.9996 14.6904C19.877 14.7721 20.284 14.5269 20.284 14.2833C20.284 14.1198 20.4475 13.8763 21.0572 13.224C22.1165 12.083 22.5644 11.7168 23.0123 11.7168C23.2968 11.7168 23.3376 11.7168 23.3785 12.0421C23.5011 12.8562 23.3785 13.9155 23.0532 14.2408C22.9715 14.2816 22.9715 14.4451 22.9715 14.5661C23.0123 14.7295 22.9715 14.7704 22.6462 14.9322C22.4418 15.014 21.9939 15.0957 21.6686 15.0957C21.139 15.1366 21.0572 15.0957 20.8545 14.9731H20.8954V14.9748Z" fill="url(#paint41_linear_128_2494)"/>
<path d="M22.726 14.811C22.726 14.7292 22.726 14.6884 22.6443 14.7292C22.5625 14.7701 22.5217 14.7292 22.5217 14.6884L22.6034 14.3631C22.6034 14.1996 22.726 14.0378 22.7669 13.956C23.0513 13.7125 23.2966 12.4897 23.0922 12.3279C23.0104 12.3279 23.0104 12.2461 23.0104 12.1235C23.0513 12.0418 23.0104 11.96 23.0104 11.96C22.8469 11.96 22.0737 12.6923 21.3005 13.4672L20.5273 14.3222V14.0378C20.5273 13.6716 20.65 13.5081 20.9344 13.5081C21.0979 13.5081 21.1387 13.5081 21.1387 13.2646C21.1387 13.1011 21.2614 12.9393 21.5458 12.6123L22.0754 12.1644L22.4825 11.7573C23.3374 11.025 24.3967 10.5362 25.5361 10.4136C26.1066 10.3319 26.1475 10.3319 26.3502 10.5362C26.5937 10.8207 26.7163 11.1068 26.6346 11.4321C26.4302 11.7165 26.1867 12.0026 25.9023 12.2461C25.3488 12.7366 24.8055 13.239 24.2741 13.7534C23.908 14.1604 23.5009 14.4448 23.053 14.7309C22.7817 14.8399 22.6732 14.8536 22.7277 14.7718V14.8127L22.726 14.811Z" fill="url(#paint42_linear_128_2494)"/>
<path d="M18.1249 15.4226C17.7996 15.3 17.4335 14.7703 17.3926 14.2424C17.27 13.1831 17.597 12.0846 18.2475 11.2296C18.7363 10.7 20.4871 9.84504 21.7491 9.56062C23.5407 9.15359 25.2097 9.39713 26.1073 10.2521C26.5143 10.6591 26.6778 10.9435 26.6778 11.2296C26.6778 11.4732 26.4734 11.7184 26.2708 11.7184C26.2708 11.7184 26.2708 11.6367 26.3934 11.5549C26.6369 11.3506 26.6369 11.1479 26.3934 10.8635C26.2708 10.7 26.189 10.6591 25.782 10.7C24.4382 10.7 22.8084 11.7593 21.0985 13.6736C20.5365 14.4093 19.7939 14.9849 18.9407 15.3426C18.5337 15.5061 18.4519 15.5061 18.1266 15.4243L18.1249 15.4226Z" fill="url(#paint43_linear_128_2494)"/>
<path d="M78.1548 24.0145C78.1548 25.6427 78.2774 27.436 78.3182 27.7613H74.5715C74.4897 27.436 74.4489 26.5402 74.408 26.1331C73.7165 27.2742 72.291 28.17 69.6019 28.17C65.8142 28.17 64.307 25.8078 64.307 23.6092C64.307 20.0259 67.4015 18.8848 71.5144 18.8848H74.3654V18.2734C74.3654 17.0523 73.8357 16.0339 71.6371 16.0339C69.6002 16.0339 69.1931 16.8479 68.9496 17.7846H65.1211C65.2846 15.8704 66.5466 13.3055 71.6371 13.3055C76.7276 13.3055 78.1939 15.7495 78.1939 18.3552V24.0162H78.1531L78.1548 24.0145ZM74.3279 21.4088H71.6813C69.1965 21.4088 68.1798 22.0202 68.1798 23.4048C68.1798 24.4641 68.953 25.3191 70.6237 25.3191C73.3929 25.3191 74.3296 23.8118 74.3296 21.7358V21.4105L74.3279 21.4088ZM79.5394 13.263H81.9833V9.06827H85.9327V13.263H89.1907V16.1139H85.9327V22.7525C85.9327 23.9736 86.258 24.585 87.5609 24.585C87.9679 24.585 88.3749 24.585 88.782 24.5033V27.1907C88.0496 27.4343 87.0721 27.516 86.1354 27.516C83 27.516 82.0224 26.0497 82.0224 23.3622V16.1548H79.5377V13.263H79.5394ZM93.7124 21.2044C93.7941 23.1596 95.097 24.7468 97.2957 24.7468C99.0873 24.7468 99.9014 24.0946 100.431 23.1187H104.341C103.609 25.3582 101.654 27.7204 97.2139 27.7204C91.8799 27.7204 89.8021 24.0145 89.8021 20.3903C89.8021 16.2365 92.367 12.8559 97.2139 12.8559C102.509 12.8559 104.544 16.6027 104.544 20.186L104.503 21.2044H93.7107H93.7124ZM100.554 18.7622C100.472 17.3776 99.7396 15.6677 97.2139 15.6677C94.8926 15.6677 93.9559 17.0932 93.7533 18.7622H100.554ZM106.54 17.0915L106.499 13.263H110.328C110.409 13.67 110.45 15.1772 110.45 16.073C111.223 14.1996 112.935 12.815 115.745 12.8968V16.5618C112.61 16.4801 110.45 17.7829 110.45 21.775V27.3542H106.54V17.0915ZM119.204 27.3542V16.1548H116.842V13.263H119.204V11.8784C119.204 8.62036 120.832 6.78784 124.213 6.78784C124.865 6.78784 125.557 6.78784 125.964 6.91046V9.92321L125.027 9.88234C123.561 9.88234 123.154 10.4529 123.154 11.9993V13.3021H126.005V16.1531H123.154V27.3934L119.204 27.3525V27.3542ZM141.724 20.2677C141.724 24.5442 138.955 27.7204 133.946 27.7204C128.937 27.7204 126.371 24.2989 126.371 20.3086C126.371 16.3183 129.099 12.8559 134.108 12.8559C139.117 12.8559 141.722 16.5209 141.722 20.2677H141.724ZM130.363 20.2677C130.363 22.7116 131.666 24.7468 134.069 24.7468C136.472 24.7468 137.734 22.7917 137.734 20.3495C137.734 17.9073 136.513 15.8704 134.028 15.8704C131.543 15.8704 130.363 17.7846 130.363 20.3086V20.2677Z" fill="#053361"/>
<path d="M146.04 13.2628L149.461 17.8236H149.502L152.883 13.2628H157.118L151.662 19.9814L157.323 27.3524H152.844L149.342 22.5463H149.26L145.8 27.3524H141.564L147.021 20.2659L141.564 13.2202H146.043V13.2611L146.04 13.2628Z" fill="#053361"/>
<defs>
<linearGradient id="paint0_linear_128_2494" x1="26.6097" y1="23.4899" x2="33.3709" y2="11.8834" gradientUnits="userSpaceOnUse">
<stop stop-color="#1964E7"/>
<stop offset="1" stop-color="#6884F2"/>
</linearGradient>
<linearGradient id="paint1_linear_128_2494" x1="3.18244" y1="11.9601" x2="9.94367" y2="23.5666" gradientUnits="userSpaceOnUse">
<stop stop-color="#00CCE6"/>
<stop offset="1" stop-color="#0082E7"/>
</linearGradient>
<radialGradient id="paint2_radial_128_2494" cx="0" cy="0" r="1" gradientUnits="userSpaceOnUse" gradientTransform="translate(28.2272 21.6525) scale(9.81486 9.81491)">
<stop offset="0.2" stop-color="#00CDFF"/>
<stop offset="0.5" stop-color="#00BCFA"/>
<stop offset="0.8" stop-color="#00ABF8"/>
<stop offset="1" stop-color="#0098F7"/>
</radialGradient>
<radialGradient id="paint3_radial_128_2494" cx="0" cy="0" r="1" gradientUnits="userSpaceOnUse" gradientTransform="translate(28.2299 99.0097) scale(9.81485 9.81485)">
<stop offset="0.2" stop-color="#00CDFF"/>
<stop offset="0.5" stop-color="#00BCFA"/>
<stop offset="0.8" stop-color="#00ABF8"/>
<stop offset="1" stop-color="#0098F7"/>
</radialGradient>
<radialGradient id="paint4_radial_128_2494" cx="0" cy="0" r="1" gradientUnits="userSpaceOnUse" gradientTransform="translate(28.2251 21.6524) scale(9.81485 9.81484)">
<stop offset="0.2" stop-color="#00CDFF"/>
<stop offset="0.5" stop-color="#00BCFA"/>
<stop offset="0.8" stop-color="#00ABF8"/>
<stop offset="1" stop-color="#0098F7"/>
</radialGradient>
<radialGradient id="paint5_radial_128_2494" cx="0" cy="0" r="1" gradientUnits="userSpaceOnUse" gradientTransform="translate(28.2251 21.6522) scale(9.81485 9.81486)">
<stop offset="0.2" stop-color="#00CDFF"/>
<stop offset="0.5" stop-color="#00BCFA"/>
<stop offset="0.8" stop-color="#00ABF8"/>
<stop offset="1" stop-color="#0098F7"/>
</radialGradient>
<radialGradient id="paint6_radial_128_2494" cx="0" cy="0" r="1" gradientUnits="userSpaceOnUse" gradientTransform="translate(28.2263 21.6526) scale(9.81488 9.81486)">
<stop offset="0.2" stop-color="#00CDFF"/>
<stop offset="0.5" stop-color="#00BCFA"/>
<stop offset="0.8" stop-color="#00ABF8"/>
<stop offset="1" stop-color="#0098F7"/>
</radialGradient>
<linearGradient id="paint7_linear_128_2494" x1="3.46338" y1="11.7969" x2="10.2246" y2="23.4034" gradientUnits="userSpaceOnUse">
<stop stop-color="#00CCE6"/>
<stop offset="1" stop-color="#0082E7"/>
</linearGradient>
<linearGradient id="paint8_linear_128_2494" x1="3.60631" y1="11.7149" x2="10.3675" y2="23.3214" gradientUnits="userSpaceOnUse">
<stop stop-color="#00CCE6"/>
<stop offset="1" stop-color="#0082E7"/>
</linearGradient>
<linearGradient id="paint9_linear_128_2494" x1="5.9576" y1="18.648" x2="12.7579" y2="30.4571" gradientUnits="userSpaceOnUse">
<stop stop-color="#0CF4FF"/>
<stop offset="0.3" stop-color="#04EEFE"/>
<stop offset="1" stop-color="#00B1F7"/>
</linearGradient>
<linearGradient id="paint10_linear_128_2494" x1="3.74607" y1="11.6332" x2="10.5073" y2="23.2397" gradientUnits="userSpaceOnUse">
<stop stop-color="#00CCE6"/>
<stop offset="1" stop-color="#0082E7"/>
</linearGradient>
<radialGradient id="paint11_radial_128_2494" cx="0" cy="0" r="1" gradientUnits="userSpaceOnUse" gradientTransform="translate(28.2208 21.6524) scale(9.81485 9.81486)">
<stop offset="0.2" stop-color="#00CDFF"/>
<stop offset="0.5" stop-color="#00BCFA"/>
<stop offset="0.8" stop-color="#00ABF8"/>
<stop offset="1" stop-color="#0098F7"/>
</radialGradient>
<radialGradient id="paint12_radial_128_2494" cx="0" cy="0" r="1" gradientUnits="userSpaceOnUse" gradientTransform="translate(28.2273 21.6521) scale(9.81485)">
<stop offset="0.2" stop-color="#00CDFF"/>
<stop offset="0.5" stop-color="#00BCFA"/>
<stop offset="0.8" stop-color="#00ABF8"/>
<stop offset="1" stop-color="#0098F7"/>
</radialGradient>
<linearGradient id="paint13_linear_128_2494" x1="6.31131" y1="10.1413" x2="13.0709" y2="21.7478" gradientUnits="userSpaceOnUse">
<stop stop-color="#00CCE6"/>
<stop offset="1" stop-color="#0082E7"/>
</linearGradient>
<linearGradient id="paint14_linear_128_2494" x1="3.78205" y1="11.6143" x2="10.5416" y2="23.2208" gradientUnits="userSpaceOnUse">
<stop stop-color="#00CCE6"/>
<stop offset="1" stop-color="#0082E7"/>
</linearGradient>
<linearGradient id="paint15_linear_128_2494" x1="4.55517" y1="19.4573" x2="11.3556" y2="31.2665" gradientUnits="userSpaceOnUse">
<stop stop-color="#0CF4FF"/>
<stop offset="0.3" stop-color="#04EEFE"/>
<stop offset="1" stop-color="#00B1F7"/>
</linearGradient>
<radialGradient id="paint16_radial_128_2494" cx="0" cy="0" r="1" gradientUnits="userSpaceOnUse" gradientTransform="translate(28.2225 21.6525) scale(9.81486)">
<stop offset="0.2" stop-color="#00CDFF"/>
<stop offset="0.5" stop-color="#00BCFA"/>
<stop offset="0.8" stop-color="#00ABF8"/>
<stop offset="1" stop-color="#0098F7"/>
</radialGradient>
<radialGradient id="paint17_radial_128_2494" cx="0" cy="0" r="1" gradientUnits="userSpaceOnUse" gradientTransform="translate(28.2252 99.0097) scale(9.81485 9.81484)">
<stop offset="0.2" stop-color="#00CDFF"/>
<stop offset="0.5" stop-color="#00BCFA"/>
<stop offset="0.8" stop-color="#00ABF8"/>
<stop offset="1" stop-color="#0098F7"/>
</radialGradient>
<linearGradient id="paint18_linear_128_2494" x1="26.2979" y1="23.3061" x2="33.0574" y2="11.6996" gradientUnits="userSpaceOnUse">
<stop stop-color="#1964E7"/>
<stop offset="1" stop-color="#6884F2"/>
</linearGradient>
<linearGradient id="paint19_linear_128_2494" x1="3.79418" y1="11.6076" x2="10.5537" y2="23.2124" gradientUnits="userSpaceOnUse">
<stop stop-color="#00CCE6"/>
<stop offset="1" stop-color="#0082E7"/>
</linearGradient>
<linearGradient id="paint20_linear_128_2494" x1="6.31149" y1="18.4453" x2="13.1119" y2="30.2544" gradientUnits="userSpaceOnUse">
<stop stop-color="#0CF4FF"/>
<stop offset="0.3" stop-color="#04EEFE"/>
<stop offset="1" stop-color="#00B1F7"/>
</linearGradient>
<radialGradient id="paint21_radial_128_2494" cx="0" cy="0" r="1" gradientUnits="userSpaceOnUse" gradientTransform="translate(28.2238 99.0097) scale(9.81485 9.81485)">
<stop offset="0.2" stop-color="#00CDFF"/>
<stop offset="0.5" stop-color="#00BCFA"/>
<stop offset="0.8" stop-color="#00ABF8"/>
<stop offset="1" stop-color="#0098F7"/>
</radialGradient>
<radialGradient id="paint22_radial_128_2494" cx="0" cy="0" r="1" gradientUnits="userSpaceOnUse" gradientTransform="translate(28.2256 21.6524) scale(9.81486 9.81485)">
<stop offset="0.2" stop-color="#00CDFF"/>
<stop offset="0.5" stop-color="#00BCFA"/>
<stop offset="0.8" stop-color="#00ABF8"/>
<stop offset="1" stop-color="#0098F7"/>
</radialGradient>
<linearGradient id="paint23_linear_128_2494" x1="6.64394" y1="9.94703" x2="13.4035" y2="21.5536" gradientUnits="userSpaceOnUse">
<stop stop-color="#00CCE6"/>
<stop offset="1" stop-color="#0082E7"/>
</linearGradient>
<linearGradient id="paint24_linear_128_2494" x1="3.46635" y1="11.7966" x2="10.2259" y2="23.4031" gradientUnits="userSpaceOnUse">
<stop stop-color="#00CCE6"/>
<stop offset="1" stop-color="#0082E7"/>
</linearGradient>
<linearGradient id="paint25_linear_128_2494" x1="9.13649" y1="16.8189" x2="15.9369" y2="28.6281" gradientUnits="userSpaceOnUse">
<stop stop-color="#0CF4FF"/>
<stop offset="0.3" stop-color="#04EEFE"/>
<stop offset="1" stop-color="#00B1F7"/>
</linearGradient>
<radialGradient id="paint26_radial_128_2494" cx="0" cy="0" r="1" gradientUnits="userSpaceOnUse" gradientTransform="translate(28.2226 21.6526) scale(9.81485)">
<stop offset="0.2" stop-color="#00CDFF"/>
<stop offset="0.5" stop-color="#00BCFA"/>
<stop offset="0.8" stop-color="#00ABF8"/>
<stop offset="1" stop-color="#0098F7"/>
</radialGradient>
<radialGradient id="paint27_radial_128_2494" cx="0" cy="0" r="1" gradientUnits="userSpaceOnUse" gradientTransform="translate(28.2285 21.6523) scale(9.81485 9.81486)">
<stop offset="0.2" stop-color="#00CDFF"/>
<stop offset="0.5" stop-color="#00BCFA"/>
<stop offset="0.8" stop-color="#00ABF8"/>
<stop offset="1" stop-color="#0098F7"/>
</radialGradient>
<radialGradient id="paint28_radial_128_2494" cx="0" cy="0" r="1" gradientUnits="userSpaceOnUse" gradientTransform="translate(28.2226 21.6522) scale(9.81486)">
<stop offset="0.2" stop-color="#00CDFF"/>
<stop offset="0.5" stop-color="#00BCFA"/>
<stop offset="0.8" stop-color="#00ABF8"/>
<stop offset="1" stop-color="#0098F7"/>
</radialGradient>
<linearGradient id="paint29_linear_128_2494" x1="5.00975" y1="19.193" x2="11.8118" y2="31.0022" gradientUnits="userSpaceOnUse">
<stop stop-color="#0CF4FF"/>
<stop offset="0.3" stop-color="#04EEFE"/>
<stop offset="1" stop-color="#00B1F7"/>
</linearGradient>
<radialGradient id="paint30_radial_128_2494" cx="0" cy="0" r="1" gradientUnits="userSpaceOnUse" gradientTransform="translate(28.2268 21.6523) scale(9.81486 9.81505)">
<stop offset="0.2" stop-color="#00CDFF"/>
<stop offset="0.5" stop-color="#00BCFA"/>
<stop offset="0.8" stop-color="#00ABF8"/>
<stop offset="1" stop-color="#0098F7"/>
</radialGradient>
<linearGradient id="paint31_linear_128_2494" x1="26.034" y1="23.1529" x2="32.7935" y2="11.5464" gradientUnits="userSpaceOnUse">
<stop stop-color="#1964E7"/>
<stop offset="1" stop-color="#6884F2"/>
</linearGradient>
<linearGradient id="paint32_linear_128_2494" x1="11.9395" y1="15.2028" x2="18.7416" y2="27.012" gradientUnits="userSpaceOnUse">
<stop stop-color="#0CF4FF"/>
<stop offset="0.3" stop-color="#04EEFE"/>
<stop offset="1" stop-color="#00B1F7"/>
</linearGradient>
<linearGradient id="paint33_linear_128_2494" x1="11.241" y1="9.92476" x2="11.241" y2="13.9151" gradientUnits="userSpaceOnUse">
<stop stop-color="#40FAFD"/>
<stop offset="1" stop-color="#00E0FF"/>
</linearGradient>
<linearGradient id="paint34_linear_128_2494" x1="13.9291" y1="14.0584" x2="20.7295" y2="25.8676" gradientUnits="userSpaceOnUse">
<stop stop-color="#0CF4FF"/>
<stop offset="0.3" stop-color="#04EEFE"/>
<stop offset="1" stop-color="#00B1F7"/>
</linearGradient>
<linearGradient id="paint35_linear_128_2494" x1="11.4657" y1="9.9248" x2="11.4657" y2="13.9151" gradientUnits="userSpaceOnUse">
<stop stop-color="#40FAFD"/>
<stop offset="1" stop-color="#00E0FF"/>
</linearGradient>
<linearGradient id="paint36_linear_128_2494" x1="17.7728" y1="4.30491" x2="17.7728" y2="11.0644" gradientUnits="userSpaceOnUse">
<stop stop-color="#8EF6FD"/>
<stop offset="1" stop-color="#2BE8FF"/>
</linearGradient>
<linearGradient id="paint37_linear_128_2494" x1="18.1461" y1="99.0948" x2="18.1461" y2="11.0644" gradientUnits="userSpaceOnUse">
<stop stop-color="#8EF6FD"/>
<stop offset="1" stop-color="#2BE8FF"/>
</linearGradient>
<linearGradient id="paint38_linear_128_2494" x1="24.9805" y1="3.28628" x2="24.9805" y2="5.56671" gradientUnits="userSpaceOnUse">
<stop stop-color="#92EEFE"/>
<stop offset="1" stop-color="#59E5FE"/>
</linearGradient>
<linearGradient id="paint39_linear_128_2494" x1="18.3784" y1="99.0948" x2="18.3784" y2="11.0642" gradientUnits="userSpaceOnUse">
<stop stop-color="#8EF6FD"/>
<stop offset="1" stop-color="#2BE8FF"/>
</linearGradient>
<linearGradient id="paint40_linear_128_2494" x1="25.1825" y1="3.28635" x2="25.1825" y2="5.56678" gradientUnits="userSpaceOnUse">
<stop stop-color="#92EEFE"/>
<stop offset="1" stop-color="#59E5FE"/>
</linearGradient>
<linearGradient id="paint41_linear_128_2494" x1="19.9621" y1="10.3867" x2="22.527" y2="14.7449" gradientUnits="userSpaceOnUse">
<stop stop-color="#A6FEFF"/>
<stop offset="0.5" stop-color="#BFFDFE"/>
<stop offset="1" stop-color="#97EDFF"/>
</linearGradient>
<linearGradient id="paint42_linear_128_2494" x1="21.6616" y1="9.38496" x2="24.2281" y2="13.7414" gradientUnits="userSpaceOnUse">
<stop stop-color="#A6FEFF"/>
<stop offset="0.5" stop-color="#BFFDFE"/>
<stop offset="1" stop-color="#97EDFF"/>
</linearGradient>
<linearGradient id="paint43_linear_128_2494" x1="20.4547" y1="10.0971" x2="23.0213" y2="14.4536" gradientUnits="userSpaceOnUse">
<stop stop-color="#A6FEFF"/>
<stop offset="0.5" stop-color="#BFFDFE"/>
<stop offset="1" stop-color="#97EDFF"/>
</linearGradient>
</defs>
</svg>
