<svg width="32" height="32" viewBox="0 0 32 32" fill="none" xmlns="http://www.w3.org/2000/svg">
<g opacity="0.8">
<path d="M24.4282 22.8191C24.0779 22.7136 23.8332 22.5743 23.587 22.3281C23.3071 22.013 21.5543 18.824 21.5543 18.613C21.5543 18.4723 21.5543 18.4371 21.6246 18.4723C21.695 18.4723 21.9045 18.0869 22.29 17.2456C22.885 15.8446 22.9201 15.8446 23.4111 16.1948C24.8122 17.2808 26.074 17.8421 27.371 17.9476C27.9323 17.9828 28.0715 18.0531 28.0715 18.2979L28.3514 18.018C27.7198 19.6359 26.9709 21.2055 26.1092 22.7136C25.8292 22.8543 24.7081 22.9231 24.3916 22.8191H24.4267H24.4282Z" fill="url(#paint0_linear_128_2757)"/>
<path d="M6.06229 22.784C5.82878 22.6902 5.5601 22.293 5.25624 21.5925L4.52054 19.91L4.06476 18.8593L4.55571 19.2095C4.90598 19.2095 5.67685 19.0688 6.51808 18.7537L7.3593 18.509C7.60404 18.4035 7.70956 18.3683 7.70956 18.2642C7.70956 18.1939 7.81508 18.1236 7.88543 18.0884C7.99095 18.0884 8.37638 17.9125 8.72665 17.7381L9.5327 17.4582C9.60304 17.4582 9.63822 17.4582 9.63822 17.3878C9.63822 17.3527 9.67339 17.3175 9.74374 17.3175C9.77891 17.3175 9.95331 17.5623 10.094 17.9125C10.3387 18.5427 10.4443 18.613 10.5146 18.4738C10.585 18.4035 10.585 18.4738 10.585 18.5793C10.585 18.8241 8.86734 21.9091 8.4819 22.2945C8.13164 22.7151 7.78137 22.8558 7.04567 22.8895C6.51954 22.8895 6.2748 22.8895 6.06376 22.784H6.06229Z" fill="url(#paint1_linear_128_2757)"/>
<path d="M24.4997 22.8193C24.4997 22.7841 24.3942 22.749 24.2549 22.749C24.0791 22.749 24.0454 22.749 24.0454 22.5731C24.0454 22.3972 24.0454 22.3635 23.8006 22.3635C23.5559 22.3635 23.5207 22.3635 23.5207 22.1188V21.8389L23.8006 22.0836C24.1157 22.3987 24.3956 22.5394 24.7825 22.6449C25.0976 22.7153 25.0976 22.8897 24.7474 22.8897C24.6067 22.8897 24.5026 22.8897 24.5026 22.8193H24.4997Z" fill="url(#paint2_radial_128_2757)"/>
<path d="M24.9226 22.7152C24.9226 22.6449 25.4135 22.6449 25.5879 22.6097L26.1492 22.3298C26.4643 22.1202 26.4995 22.1539 26.4292 22.4353C26.4292 22.5408 26.3588 22.6112 26.2196 22.6112C26.1141 22.6112 26.0437 22.6464 26.0437 22.7167C26.0437 22.8222 25.799 22.8926 25.4824 22.8926C25.3769 22.8926 24.9211 22.787 24.9211 22.7167L24.9226 22.7152ZM16.3711 21.172C16.1953 20.8218 16.0561 20.6811 16.0209 20.7162C15.9154 20.7162 15.8802 20.7162 15.8802 20.5755C15.8802 20.2253 17.5275 17.4217 18.5783 15.9151C19.1733 15.1091 19.2788 15.0036 19.4898 14.9684C19.6657 14.9684 19.6994 14.9684 19.7697 15.1442V15.4593C19.2685 16.1159 18.8347 16.8194 18.4727 17.5624C17.8982 18.8022 17.3721 20.0655 16.8958 21.3464L17.2109 22.4676C17.2109 22.7475 16.6159 21.6263 16.3697 21.1706L16.3711 21.172ZM23.0306 21.3127C23.0306 20.9976 23.1361 20.9625 23.2753 21.2775C23.3691 21.4642 23.3457 21.5575 23.205 21.5575C23.0877 21.5575 23.0291 21.4759 23.0291 21.3127H23.0306Z" fill="url(#paint3_radial_128_2757)"/>
<path d="M22.6747 20.6474C22.6747 20.3323 22.745 20.3323 22.8842 20.6474C23.0601 20.8921 23.2697 21.2424 23.0601 21.2424C22.9194 21.2424 22.6395 20.8921 22.6395 20.6474H22.6747ZM22.2892 19.9805C22.2892 19.771 22.254 19.7358 22.1485 19.7358C21.9727 19.7358 21.9038 19.5951 21.9038 19.28C21.9038 19.1393 21.9038 19.0704 21.7631 19.0704C21.6576 19.0704 21.5872 19.0001 21.5872 18.8946C21.5169 18.6498 21.4817 18.4036 21.5872 18.4388C21.7279 18.4388 22.638 20.1212 22.638 20.1916C22.638 20.2268 22.5677 20.2619 22.4622 20.2619C22.2863 20.2619 22.2863 20.2268 22.2863 19.982L22.2892 19.9805Z" fill="url(#paint4_radial_128_2757)"/>
<path d="M24.1827 22.7487L24.0421 22.6783C23.9717 22.6783 23.9014 22.608 23.9014 22.5728C23.9014 22.5025 23.831 22.4673 23.7607 22.4673C23.5848 22.4673 23.4456 22.2577 23.4456 22.0115C23.4456 21.7316 23.5159 21.7316 23.6552 21.9763C23.8999 22.2211 24.1813 22.4321 24.4964 22.5713C24.8115 22.6417 24.7411 22.8161 24.4612 22.8161C24.3205 22.8161 24.1813 22.8161 24.1813 22.7457L24.1827 22.7487ZM16.7187 21.6627C16.6484 21.4531 16.578 21.2069 16.6836 21.1366L16.7891 20.9607C17.3856 19.3721 18.0407 17.8054 18.7514 16.2651C18.5683 16.4937 18.3939 16.7268 18.2253 16.9656C17.9454 17.4214 17.664 17.7717 17.6303 17.7717C17.6303 17.7717 17.56 17.6662 17.56 17.5269C17.56 17.3174 17.5951 17.2822 17.7695 17.2822C17.9102 17.2822 17.9454 17.2118 18.0143 17.0023L18.0846 16.6168C18.0846 16.5113 18.1198 16.4761 18.155 16.4761C18.2957 16.4761 18.4349 16.2314 18.4701 16.0907C18.4701 16.0204 18.4701 15.95 18.5404 15.95C18.5756 15.95 18.6108 15.9148 18.6108 15.8445C18.6108 15.7741 18.6459 15.739 18.7163 15.7038C18.7866 15.7038 18.8218 15.5983 18.8218 15.5631C18.8218 15.4928 18.8921 15.4224 18.9273 15.4224C18.9977 15.3872 19.0328 15.3169 19.0328 15.2817C19.0328 15.2114 19.4534 14.7908 19.5238 14.7908C19.5941 14.7908 19.9796 15.4913 20.0499 15.6672H19.8741L19.6982 15.9119L18.9273 17.4537C18.577 18.1542 18.2268 18.8547 18.2268 18.9954L17.3856 21.0985C17.0705 21.6598 16.965 21.799 16.8243 21.799C16.7539 21.799 16.7539 21.6935 16.7187 21.6231V21.6583V21.6627ZM22.7099 20.7863C22.7099 20.4712 22.7802 20.4712 22.9546 20.7863C23.1305 21.031 23.1305 21.0662 22.8843 21.0662C22.7436 21.0662 22.7084 21.031 22.7084 20.7863H22.7099Z" fill="url(#paint5_radial_128_2757)"/>
<path d="M22.3255 20.1213C22.3255 19.8062 22.431 19.8062 22.6054 20.1213C22.8853 20.6475 22.815 20.5068 22.5351 20.4012C22.3944 20.3309 22.3592 20.3661 22.3592 20.1565L22.324 20.1213H22.3255Z" fill="url(#paint6_radial_128_2757)"/>
<path d="M4.45016 19.5264C4.25671 19.2392 4.09257 18.9343 3.9592 18.6149L3.50342 17.5992L3.99438 17.8792C4.87077 17.7736 8.61963 15.9871 8.61963 15.672C8.61963 15.5665 8.86437 15.2514 8.89955 15.3218C8.89955 15.3218 9.24981 15.952 9.46085 16.4781C9.91663 17.5289 9.98698 17.7751 9.81111 17.7048C9.53119 17.7399 9.28498 17.8103 9.04024 17.9495L8.16384 18.2998L7.9191 18.4053H8.26936C8.68997 18.3349 8.51411 18.4405 7.74323 18.6852L6.72761 19.0003C5.97725 19.2128 5.21664 19.3887 4.45016 19.5264Z" fill="url(#paint7_linear_128_2757)"/>
<path d="M3.92831 18.2642C3.92831 18.1939 3.85797 18.1236 3.82279 18.1236C3.71727 18.1236 3.57805 17.7733 3.22778 16.9321C3.22778 16.9321 3.54287 16.9321 3.85797 16.7914C5.08463 16.3708 6.13542 15.7758 7.18768 15.0049C7.81786 14.5139 7.95855 14.3747 7.95855 14.2692C7.95855 14.1988 7.99373 14.1637 8.06407 14.1637C8.13442 14.1637 8.16959 14.1285 8.16959 14.0933C8.16959 14.023 8.20477 13.9878 8.27511 13.9878C8.38063 13.9878 9.01081 15.3889 9.08116 15.8095C9.11633 15.9853 9.11633 16.019 9.04599 15.915C8.9053 15.7391 8.83641 15.7391 8.83641 15.8798C7.49251 16.8485 6.00206 17.593 4.42074 18.0869C4.21116 18.1573 4.00012 18.2276 3.96495 18.2965L3.92978 18.2613L3.92831 18.2642Z" fill="url(#paint8_linear_128_2757)"/>
<path d="M7.6429 22.6095L7.88765 22.4337L8.34343 22.0482L8.62335 21.7683V22.0131C8.62335 22.2578 8.48266 22.4688 8.27308 22.4688C8.23791 22.4688 8.16756 22.504 8.16756 22.5744C8.16756 22.6447 8.09722 22.6799 7.92282 22.6799L7.60773 22.5744L7.6429 22.6095Z" fill="url(#paint9_linear_128_2757)"/>
<path d="M3.05055 16.6171L2.77063 15.9517L2.9465 15.9165C3.61185 15.7758 5.04955 15.0401 5.82042 14.4099C6.5063 13.8853 7.10863 13.258 7.60692 12.5531C7.60692 12.5531 7.67727 12.5531 7.78279 12.729L8.41297 14.2004L8.58883 14.621C8.62401 14.7265 8.51849 14.621 8.48331 14.621C8.41297 14.621 8.3778 14.5506 8.3778 14.4803C8.3778 14.4099 8.34262 14.3748 8.27228 14.3748C8.2371 14.3748 8.16676 14.4099 8.16676 14.4803C8.16676 14.621 8.02606 14.725 7.39588 15.216C6.44914 15.9165 5.22248 16.6171 4.31238 16.9688L3.71737 17.1784L3.43745 17.2839C3.36711 17.2839 3.22788 17.004 3.05201 16.6185L3.05055 16.6171Z" fill="url(#paint10_linear_128_2757)"/>
<path d="M21.27 28.0409C20.439 27.802 19.7414 27.2319 19.3428 26.464C19.0624 25.997 19.0038 25.7635 19.1669 25.7635C19.3076 25.7635 19.6227 25.658 19.8675 25.5187C20.4288 25.274 21.0589 25.1685 21.6203 25.3091C22.2153 25.6594 22.7414 26.1152 23.162 26.6765L23.5123 27.0971L23.8625 27.0268L25.054 25.4498C25.1595 25.3092 24.7038 26.3262 24.0384 27.2363C23.3071 27.9251 22.2929 28.2241 21.3052 28.0424H21.27V28.0409ZM24.4238 22.7488C24.4238 22.6082 24.4942 22.573 24.7741 22.6433C25.0188 22.7137 24.95 22.8881 24.6686 22.8881C24.459 22.8881 24.3887 22.8881 24.3887 22.7474H24.4238V22.7488Z" fill="url(#paint11_radial_128_2757)"/>
<path d="M16.8599 22.0834C16.7202 21.8264 16.6967 21.651 16.7895 21.5573C16.9654 21.3125 17.8403 19.3839 17.981 18.824C18.4661 17.6428 19.0274 16.4967 19.6635 15.3903C19.6283 15.3903 19.5931 15.3551 19.5931 15.2847C19.5931 15.0752 19.769 15.1792 19.9785 15.5647C20.2233 15.9149 20.2585 16.1948 20.0841 16.1948C19.1139 17.8333 18.3269 19.5714 17.7363 21.3814C17.4915 21.9075 19.2077 26.288 19.2428 26.3232L16.8599 22.0834ZM23.6585 22.2944V22.0848L23.9033 22.2255C24.2184 22.4703 24.2535 22.5406 23.9384 22.5406C23.6937 22.5406 23.6585 22.5406 23.6585 22.2959V22.2944ZM26.1118 22.3633L26.4621 22.1186L26.7068 21.8386L26.5662 22.1537C26.4958 22.3633 26.3903 22.4688 26.3214 22.4688C26.2159 22.4688 26.1118 22.3633 26.1118 22.3633ZM23.0972 21.4532C23.0972 21.1381 23.1676 21.1381 23.3771 21.4532L23.5178 21.7331H23.3083C23.0987 21.7331 23.0987 21.6979 23.0987 21.4532H23.0972ZM22.0464 19.6301C22.0464 19.2798 22.1168 19.2798 22.3263 19.6301L22.5022 19.91H22.2926C22.0831 19.91 22.0479 19.8748 22.0479 19.6301H22.0464ZM21.6962 18.9647C21.6962 18.6144 21.7665 18.6144 21.9761 18.9647L22.1519 19.315L21.9072 19.2095C21.7675 19.2095 21.6976 19.1279 21.6976 18.9647H21.6962Z" fill="url(#paint12_radial_128_2757)"/>
<path d="M9.08012 16.0206C9.00977 15.9151 8.9746 15.8111 9.00977 15.7759C9.00977 15.7759 9.11529 15.8462 9.15046 15.9855C9.29115 16.2654 9.25598 16.2654 9.08012 15.9855V16.0206Z" fill="url(#paint13_linear_128_2757)"/>
<path d="M7.60773 26.7791V26.5696C7.60773 26.4298 7.68931 26.36 7.85247 26.36C8.01564 26.36 8.09722 26.4416 8.09722 26.6047C8.09722 26.7679 8.02736 26.8495 7.88765 26.8495L7.6429 26.8143L7.60773 26.7791Z" fill="#00B0E7"/>
<path d="M2.91151 16.2315L2.87633 16.1611C2.80599 16.1611 2.28132 14.9345 2.31503 14.9345C2.86901 14.6838 3.42884 14.4508 3.99747 14.2339L4.45326 13.8133C5.36483 13.1128 6.38045 12.0605 6.48597 11.6399C6.59149 11.2193 6.62666 11.2193 6.97692 11.5696C7.32719 11.9198 7.60711 12.3404 7.7478 12.8314C7.7478 13.0073 7.7478 13.041 7.67745 13.0073C7.60711 13.0073 7.53676 13.0073 7.53676 13.0776C6.612 14.338 5.34724 15.3096 3.89196 15.8812C3.54169 15.9867 3.29695 16.1259 3.29695 16.2315C3.29695 16.2784 3.2735 16.2784 3.2266 16.2315C3.15625 16.1259 3.12108 16.1259 3.08591 16.1611C3.01556 16.2666 2.84116 16.3018 2.87633 16.2315H2.91151Z" fill="url(#paint14_linear_128_2757)"/>
<path d="M9.39648 28.0412C9.04622 27.9357 8.38086 27.6206 8.38086 27.5151L8.66078 27.4447C8.80147 27.4447 8.90552 27.4447 8.90552 27.5151H9.60605C10.1322 27.5151 10.3769 27.5502 10.5528 27.6206L10.9031 27.7613C11.0086 27.7613 10.9734 27.9371 10.8327 28.006C10.6231 28.0764 9.71157 28.1115 9.43165 28.006L9.39648 28.0412Z" fill="url(#paint15_linear_128_2757)"/>
<path d="M23.6544 27.4108C23.6544 27.3405 23.6192 27.3053 23.5137 27.3405C23.373 27.3756 23.269 27.3053 22.9524 26.9199C22.5479 26.3791 22.0496 25.916 21.481 25.5525C21.3051 25.4822 21.0956 25.4822 20.9197 25.4822C20.4112 25.5862 19.9334 25.8017 19.5186 26.1124C19.378 26.253 19.2036 26.2882 19.2036 26.1827L19.1684 26.0772C19.098 26.0772 18.8885 25.7269 18.2216 24.5003L17.9417 24.0093H18.1513C18.292 24.0093 18.396 24.0093 18.396 24.1148C18.396 24.2203 18.5016 24.2555 18.5367 24.15L19.2021 23.5887C19.5988 23.2614 19.7971 23.0044 19.7971 22.8178C19.7971 22.6312 19.867 22.5379 20.0067 22.5379C20.2514 22.5379 20.2866 22.5731 20.672 23.1681C20.9285 23.5462 21.2231 23.8979 21.5484 24.2189C22.1434 24.8139 22.564 24.9897 23.2309 24.9194H23.6515C23.6515 24.9897 23.7218 25.0249 23.757 25.0249L24.1776 25.3048C24.3872 25.4807 24.6334 25.6199 24.7037 25.6199H24.9837C24.843 25.8647 24.3886 26.8466 24.0369 27.232C23.6515 27.6526 23.6867 27.5823 23.6867 27.4079H23.6515L23.6544 27.4108ZM17.2764 22.8193C17.0316 22.3635 16.9613 22.1187 17.1005 21.9781C17.5563 21.2072 17.9065 20.4011 18.1513 19.5599L18.5719 18.5091L18.8518 17.8086C18.8167 17.7734 18.8518 17.7382 18.8518 17.7382L18.9573 17.7031C18.9573 17.6327 19.7634 15.9166 19.9041 15.7407C20.0448 15.6 20.0799 15.7407 20.2543 16.091C20.4175 16.3245 20.4527 16.5228 20.3599 16.686C19.9393 17.3865 19.5538 18.087 19.2036 18.8594C18.8533 19.4896 18.7829 19.7006 18.8181 19.9805C18.8181 20.366 18.6774 20.8921 18.292 21.7333C18.1718 21.9839 18.0663 22.2419 17.9769 22.5042C17.9769 22.6449 17.9066 22.7489 17.8362 22.8544C17.7659 22.8544 17.7307 22.9951 17.7307 23.0992C17.7307 23.3791 17.5211 23.2751 17.2749 22.8193H17.2764ZM25.3369 22.7841C25.372 22.7138 25.4775 22.6434 25.5816 22.6082L25.8263 22.5379C25.8967 22.5027 25.9319 22.4675 25.967 22.5027L26.0374 22.4675C26.0374 22.4324 26.0374 22.362 26.1077 22.362L26.2836 22.2565C26.4243 22.151 26.3891 22.151 26.3891 22.362C26.3891 22.5379 26.3539 22.6068 26.2836 22.6419L26.074 22.7826L25.7238 22.8882C25.4902 22.8882 25.3735 22.853 25.3735 22.7826H25.3383L25.3369 22.7841ZM23.3745 22.1539C23.3745 22.1187 23.3393 22.0132 23.269 21.9781C23.1635 21.8374 23.1283 21.3479 23.1986 21.3479C23.269 21.3479 23.4082 21.5237 23.6896 22.0484L23.8303 22.2243H23.5855C23.48 22.2243 23.376 22.2243 23.376 22.1539H23.3745ZM22.778 20.9624C22.778 20.6122 22.8484 20.6122 23.0579 20.9624L23.2338 21.2423L23.0242 21.2072C22.8147 21.2072 22.7795 21.2072 22.7795 20.9624H22.778ZM22.4277 20.2619C22.4277 20.086 22.3926 20.0172 22.2871 20.0172C22.1815 20.0172 22.1112 19.982 22.1112 19.7724C22.1112 19.6317 22.1464 19.5277 22.1815 19.5277C22.2519 19.5277 22.4966 19.8428 22.4966 19.9131L22.6725 20.2634L22.8821 20.6136L22.6373 20.5433C22.4976 20.5433 22.4277 20.4617 22.4277 20.2985V20.2634V20.2619ZM21.7624 19.1056C21.7624 18.8257 21.7976 18.7905 21.972 19.0352C22.1815 19.2448 22.1815 19.3855 21.972 19.3855C21.7961 19.3855 21.7624 19.3503 21.7624 19.1056Z" fill="url(#paint16_radial_128_2757)"/>
<path d="M23.2713 21.978L23.2361 21.6277C23.2361 21.487 23.2009 21.4182 23.0954 21.4182C22.9547 21.4182 22.9547 21.383 22.9547 21.1734C22.9547 20.9287 22.9547 20.8935 23.0602 20.9976C23.1306 21.0327 23.2361 21.2071 23.2698 21.3478L23.3753 21.6629C23.3753 21.6629 23.516 21.6629 23.4809 21.7333V21.8036C23.5512 21.8036 23.5864 21.874 23.6215 21.9443C23.6215 22.0498 23.6215 22.085 23.4809 22.085C23.4105 22.085 23.305 22.0498 23.2713 21.9795V21.978ZM22.5707 20.5066C22.5707 20.32 22.6176 20.2731 22.7114 20.3659L22.8873 20.6107C22.9577 20.7162 22.8873 20.7513 22.7466 20.7513C22.6059 20.7513 22.5707 20.7513 22.5707 20.5066ZM22.2205 19.8061C22.2205 19.6429 22.2557 19.6077 22.326 19.7006L22.5356 19.9805C22.5356 20.0508 22.4887 20.086 22.3949 20.086C22.2776 20.086 22.219 20.0044 22.219 19.8412V19.8061H22.2205ZM21.8702 19.1744C21.8702 18.9878 21.9054 18.9409 21.9757 19.0337L22.1516 19.3136C22.1868 19.4192 22.1516 19.4543 22.0109 19.4543C21.8702 19.4543 21.835 19.4192 21.835 19.1744H21.8702ZM21.4833 18.5442C21.4833 18.3684 21.3426 18.0533 21.5888 18.4035L21.7647 18.6483C21.7999 18.7538 21.7647 18.789 21.6592 18.789C21.4833 18.789 21.4833 18.7538 21.4833 18.5442Z" fill="url(#paint17_radial_128_2757)"/>
<path d="M27.8296 18.685V18.4754C27.8999 18.2995 27.7241 18.2307 27.1642 18.1603C25.8672 18.0548 24.6054 17.495 23.2043 16.4075L22.9244 16.1979L22.6797 16.6186L22.4349 16.9688L23.2762 15.0416C23.9063 13.6054 24.1174 13.22 24.2229 13.22C24.2932 13.22 24.5732 13.4295 24.7842 13.7109C25.3792 14.3411 26.1164 14.8321 26.9224 15.112C27.4486 15.2878 28.0084 15.3567 28.5697 15.3216H29.6205L29.4798 15.6015C29.0592 16.6523 28.5682 17.7045 28.0787 18.7202C27.938 18.8608 27.9029 18.8608 27.834 18.7202V18.685H27.8296Z" fill="url(#paint18_linear_128_2757)"/>
<path d="M2.56141 15.2145C2.56141 15.1441 2.49106 15.1089 2.45589 15.1441C2.38554 15.1793 2.17597 14.7235 2.10562 14.2325C1.96493 13.7064 1.96493 13.6375 2.17597 13.6375C2.42071 13.6375 3.08754 13.3576 3.08754 13.2169L3.4378 12.9018C3.92876 12.5867 4.31419 12.2013 4.66446 11.7807C4.87403 11.536 4.94438 11.3601 5.01472 11.0802V10.7299C5.19059 10.6596 5.75043 10.8002 5.71525 10.8002C5.47051 10.6947 6.06552 10.9058 6.41578 11.1505C6.55647 11.1857 6.76605 11.3264 6.80122 11.3601C6.97708 11.536 6.90674 11.6048 6.80122 11.7104C6.73087 11.7807 6.73087 11.851 6.73087 11.8862C6.80122 11.9917 6.13586 12.7626 5.60973 13.2873C4.73334 14.0933 4.48859 14.3029 4.55894 14.1988C4.59411 14.0933 4.38307 14.234 4.20868 14.4084L3.96393 14.5491C2.91314 14.9697 2.66692 15.0752 2.63175 15.1793C2.63175 15.2496 2.6083 15.2496 2.56141 15.1793V15.2145Z" fill="url(#paint19_linear_128_2757)"/>
<path d="M10.6235 27.9704L10.4139 27.8649C10.2732 27.7945 9.432 27.7242 9.15208 27.7945C8.80182 27.9352 8.03094 27.4091 7.57516 26.7438L7.39929 26.3231L7.67921 26.2176L8.34457 25.7267C8.52043 25.586 8.69483 25.4819 8.76518 25.4819L8.83552 25.3412C8.83552 25.2709 8.90587 25.2357 9.15062 25.2357C9.92149 25.2357 10.7979 24.5352 11.5688 23.3085C11.919 22.7472 11.9894 22.6783 12.1989 22.6783C12.3045 22.6783 12.4437 22.7135 12.4437 22.7839C12.514 22.8894 12.4437 24.6759 12.3382 25.5171C12.2678 26.3231 12.303 26.499 12.5829 26.499C12.6767 26.499 12.6533 26.604 12.5126 26.8141C12.0568 27.5146 11.1115 28.0759 10.6206 27.9704H10.6235Z" fill="url(#paint20_linear_128_2757)"/>
<path d="M24.7063 25.9379C24.7063 25.8676 24.6711 25.8324 24.5656 25.9027C24.4952 25.9379 24.356 25.9027 24.0395 25.6228C23.8299 25.4132 23.5837 25.2725 23.5485 25.2725L23.443 25.2022L23.0224 25.167C22.4611 25.167 21.9716 25.0263 21.5861 24.7112L21.271 24.4313H21.551C22.3805 24.5999 23.2407 24.5398 24.0395 24.2555C24.3897 24.1148 24.7752 24.0459 25.1606 24.0107L25.7908 23.8348L25.6149 24.2203C24.9847 25.6917 24.7033 26.253 24.7033 25.9731V25.9379H24.7063ZM18.2945 24.572C18.2594 24.572 18.2242 24.5017 18.2945 24.5017L18.189 24.3962L18.1187 24.2906C18.1421 24.2906 18.1421 24.2672 18.1187 24.2203C17.827 23.8407 17.6013 23.4142 17.4533 22.9585C17.4533 22.7826 17.4533 22.6785 17.5588 22.6082C17.6643 22.573 17.7347 22.4323 17.7684 22.2931C17.7684 22.1876 17.9443 21.8373 18.0835 21.5222C18.4338 20.6458 18.5744 20.2252 18.5393 19.875C18.5393 19.595 18.5744 19.4192 18.8895 18.8242C19.3805 17.7734 20.1514 16.1261 20.2569 16.1261C20.3976 16.302 20.5368 16.4764 20.6072 16.6874C20.8167 17.0377 20.9574 17.2135 20.8519 17.3176C20.3976 17.9492 19.9755 18.6043 19.5901 19.2799C19.3805 19.6302 19.2398 20.0508 19.2398 20.4714C19.8304 21.4592 20.3903 22.4646 20.9222 23.4846C20.9222 23.5901 21.0278 23.6942 21.0629 23.7293C21.1333 23.7293 21.1685 23.9052 21.1685 24.0796C21.1685 24.2428 21.1216 24.2779 21.0278 24.1851C20.9222 24.1148 20.6775 23.7645 20.5016 23.4846C20.1514 22.8896 20.1162 22.8896 20.081 23.0992C20.0459 23.275 19.9052 23.4494 19.3805 23.7997L18.6096 24.5002C18.4338 24.6761 18.4689 24.6761 18.2945 24.5706V24.572ZM24.6022 22.9248C24.3927 22.8896 24.3223 22.8544 24.3223 22.7152C24.3223 22.5393 24.3575 22.5393 24.5319 22.6097L25.1269 22.68C25.3394 22.6888 25.5519 22.6653 25.7571 22.6097C25.8743 22.5628 25.9329 22.5979 25.9329 22.7152C25.9329 22.8559 25.9329 22.891 25.5827 22.9248H24.567H24.6022ZM23.7258 22.3634C23.7258 22.1876 23.6907 22.1539 23.4811 22.1539C23.2715 22.1539 23.2715 22.1539 23.2715 21.9091C23.2715 21.5589 23.3419 21.5589 23.5514 21.9091C23.6569 22.085 23.7962 22.2242 23.972 22.3297C24.3223 22.5393 24.3223 22.6097 23.972 22.6097C23.8089 22.6097 23.7273 22.5281 23.7273 22.3649L23.7258 22.3634Z" fill="url(#paint21_radial_128_2757)"/>
<path d="M8.48316 21.9781C8.48316 21.8726 8.7279 21.4872 8.76307 21.4872L8.83342 21.7671C8.83342 21.9767 8.83342 22.0118 8.65756 22.0118L8.48169 21.9767L8.48316 21.9781Z" fill="#00B2F7"/>
<path d="M22.9213 21.3829L22.851 21.0327C22.851 20.892 22.851 20.8231 22.7103 20.8231C22.5696 20.8231 22.5007 20.6824 22.5007 20.4025C22.5007 20.2266 22.4656 20.1929 22.36 20.1929C22.2193 20.1929 22.2193 20.1226 22.2193 19.913L22.2545 19.6683C22.3249 19.6683 23.3053 21.3507 23.3053 21.4548C23.3053 21.5588 22.955 21.4899 22.9199 21.3844L22.9213 21.3829ZM21.8705 19.2799C21.8705 18.9296 21.9057 18.9296 22.0801 19.2095C22.2545 19.4895 22.256 19.5246 22.0098 19.5246C21.8691 19.5246 21.8339 19.4895 21.8339 19.2447L21.8691 19.2799H21.8705ZM21.4836 18.5794V18.2994L21.6595 18.509C21.9043 18.7889 21.8691 18.8593 21.6595 18.8593C21.4836 18.8593 21.4836 18.8241 21.4836 18.5794Z" fill="url(#paint22_radial_128_2757)"/>
<path d="M7.71325 13.0426C7.57255 12.8667 7.57255 12.833 7.71325 12.833C7.71325 12.833 7.81877 12.9034 7.81877 13.0089C7.88911 13.1847 7.88911 13.2184 7.71325 13.0089V13.044V13.0426Z" fill="url(#paint23_linear_128_2757)"/>
<path d="M8.48128 21.8737C8.69086 21.5938 8.7612 21.5938 8.7612 21.8737C8.7612 22.1537 8.7612 22.1537 8.55163 22.1537H8.30688L8.48275 21.8737H8.48128ZM10.023 19.3149C10.023 19.2446 10.2326 18.8591 10.303 18.8591C10.3381 18.8591 10.3733 18.9647 10.3733 19.1039C10.3733 19.267 10.3147 19.3486 10.1974 19.3486H10.0216V19.3134L10.023 19.3149Z" fill="#00C8E6"/>
<path d="M2.00085 13.7783C2.00085 12.6572 2.66621 11.5712 3.64812 11.0451C4.10391 10.8003 5.22505 10.6244 5.29539 10.7651L5.40091 10.9058C5.61049 10.8355 5.5416 10.9058 5.36574 11.1506C5.26022 11.2913 5.18987 11.4305 5.22505 11.5008C5.29539 11.6767 4.31348 12.6923 3.71847 13.0778L3.36821 13.428C3.36821 13.5335 2.31741 14.023 2.24707 13.919L2.14155 14.0597C2.03603 14.13 2.00085 13.9893 2.00085 13.7798V13.7783Z" fill="url(#paint24_linear_128_2757)"/>
<path d="M12.1649 26.6046C12.0594 26.4639 12.0594 26.2543 12.0945 25.7985C12.1913 24.9383 12.2382 24.0721 12.2352 23.206C12.3056 23.1357 12.3056 23.0301 12.2001 23.0301C11.9876 23.2192 11.8102 23.4449 11.6739 23.6955C10.9734 24.7815 10.097 25.4483 9.36131 25.4483C9.11656 25.4483 9.08139 25.4835 9.11656 25.589C9.11656 25.6593 9.11656 25.6945 9.01104 25.6945C8.9407 25.6945 8.73112 25.8 8.55526 25.9744L7.96025 26.395C7.85473 26.4654 7.75068 26.5709 7.78438 26.6046C7.78438 26.6749 7.78438 26.7101 7.64369 26.6046C7.503 26.5694 7.36377 26.3247 7.08239 25.7282L6.20599 23.4859C7.53817 23.7307 9.25432 23.5914 9.25432 23.5914C9.81562 23.4859 9.35984 23.1005 9.91968 23.3115C10.5499 23.5211 9.74381 24.012 10.2699 23.6618C10.4458 23.5563 10.6202 23.5914 10.7257 23.5563C10.7961 23.5211 10.9353 23.697 10.9353 23.6618C10.9353 23.6266 11.18 23.8376 11.2856 23.8025C11.4614 23.6266 11.5655 23.3467 12.7218 21.314L14.5435 18.2305C15.2088 17.1797 15.244 17.1797 15.455 17.1797C15.6661 17.1797 15.6998 17.1797 15.6998 17.4244L15.5239 17.9506C15.4184 18.0913 15.3143 18.3008 15.3143 18.4063L15.1385 18.9325L14.9626 19.4938L14.8571 19.844C14.2416 21.3433 13.7946 22.907 13.5249 24.5045V25.1346L13.0691 25.9407C12.6837 26.6412 12.5782 26.7467 12.4389 26.7467C12.3276 26.7526 12.2206 26.6999 12.159 26.6061L12.1649 26.6046Z" fill="url(#paint25_linear_128_2757)"/>
<path d="M21.5163 24.6425C21.0956 24.2923 20.5695 23.5917 19.9042 22.4354C19.1685 21.1032 18.9574 20.7178 18.9222 20.4731C18.9926 19.9821 19.1318 19.5263 19.3429 19.072C19.6579 18.477 20.464 17.0041 20.5695 16.969C20.675 16.8283 20.7102 16.8634 21.0253 17.3896C21.166 17.7047 21.3404 17.9157 21.27 17.9509C20.7732 18.5459 20.3819 19.2215 20.1137 19.9484L19.7635 20.964C19.7283 21.3495 19.7283 21.4198 19.9042 21.8052L20.2192 22.2962L20.2896 22.5058C20.2896 22.5761 20.7102 22.7505 20.9549 22.7505C20.9549 22.7505 21.0253 22.7505 21.0253 22.8209L21.6555 22.7505L23.0565 22.5409C23.6178 22.5409 23.7571 22.4706 23.7922 22.3651C23.7922 22.2596 23.8626 22.3651 24.248 22.4706C24.9486 22.6802 25.8249 22.7505 26.4214 22.2259C26.5611 22.1086 26.4327 22.4823 26.036 23.347C25.6154 24.2586 25.441 24.5385 25.441 24.2937C25.441 24.1882 24.846 24.2937 24.2143 24.4696C23.6882 24.7143 23.0932 24.8199 22.5319 24.7847H22.2168C22.252 24.8199 22.1816 24.855 22.0409 24.855C21.9002 24.855 21.6906 24.7847 21.5148 24.6455L21.5163 24.6425Z" fill="url(#paint26_radial_128_2757)"/>
<path d="M23.1335 21.8388C23.0631 21.6981 23.0279 21.4885 23.0279 21.3478C23.0279 21.1719 22.9928 21.1382 22.8872 21.1382C22.7114 21.1382 22.6425 20.9975 22.6425 20.6824C22.6425 20.5066 22.6425 20.4729 22.5018 20.4729C22.3611 20.4729 22.2922 20.3322 22.2922 20.0171C22.2922 19.8764 22.2571 19.8075 22.1515 19.8075C21.9757 19.8075 21.9068 19.6668 21.9068 19.3517C21.9068 19.211 21.9068 19.1422 21.7661 19.1422C21.6958 19.1422 21.6254 19.107 21.5902 19.0366C21.5199 18.8608 21.5199 18.4753 21.5902 18.4753C21.6254 18.4753 22.1164 19.2814 22.641 20.297C23.6566 22.0498 23.6918 22.0835 23.4471 22.0835C23.3064 22.0835 23.2375 22.0132 23.132 21.8388H23.1335Z" fill="url(#paint27_radial_128_2757)"/>
<path d="M10.0966 19.1744C10.3414 18.6131 10.4469 18.5794 10.4469 18.9649C10.4469 19.1744 10.4469 19.2096 10.271 19.2096L10.0952 19.1744H10.0966Z" fill="#00BFF9"/>
<path d="M20.1504 22.8191L19.5554 21.7683C19.3107 21.3125 19.3107 21.2773 19.4499 21.1381C19.5202 21.0678 19.5554 20.9622 19.5202 20.9285C19.5906 20.4728 19.7298 20.017 19.9408 19.5964L20.1504 19.1406C20.1504 18.9999 20.9213 17.4581 20.9916 17.4581L21.2715 17.8084C23.3746 21.6979 23.7249 22.2592 24.2495 22.5392L24.4591 22.6799C24.3888 22.6799 24.4239 22.6799 24.4591 22.7502C23.3951 22.6828 22.3282 22.8015 21.3053 23.1005C20.955 23.1708 20.9198 23.1708 20.8143 23.0653C20.7791 22.9949 20.7088 22.9598 20.6736 22.9949L20.5681 22.9246C20.4977 22.8777 20.4743 22.8777 20.4977 22.9246C20.5681 23.0301 20.6384 23.3804 20.5681 23.3804L20.2178 22.7854L20.1475 22.8205L20.1504 22.8191Z" fill="url(#paint28_radial_128_2757)"/>
<path d="M6.31138 22.9247C6.17069 22.9247 6.10181 22.8543 6.10181 22.7151C6.10181 22.5979 6.18339 22.5627 6.34655 22.6096C6.45207 22.6448 6.80234 22.6799 7.04708 22.6448C7.46769 22.6448 7.64209 22.5744 7.95865 22.4L8.30891 22.1553V22.3648C8.30891 22.5407 8.30891 22.6096 8.20339 22.6096C8.13305 22.6096 8.09788 22.6096 8.09788 22.6799C8.09788 22.8558 7.01191 23.0302 6.34509 22.9247H6.30991H6.31138Z" fill="url(#paint29_linear_128_2757)"/>
<path d="M24.7089 22.8193C24.744 22.8193 24.7792 22.7489 24.7089 22.7489C24.7089 22.7255 24.7323 22.7255 24.7792 22.7489H24.9551C25.0254 22.7489 25.0606 22.7841 25.0606 22.8193L24.851 22.8896C24.6751 22.8896 24.6414 22.8896 24.7103 22.8193H24.7089Z" fill="url(#paint30_radial_128_2757)"/>
<path d="M29.3011 15.7057C29.3715 15.565 29.1253 15.5298 28.2503 15.4961C27.7242 15.5313 27.1995 15.4961 26.7086 15.2865C25.904 14.9978 25.1829 14.5156 24.6055 13.8855L24.0794 13.4649L23.9387 13.6407L23.7291 13.991L23.8698 13.6407C24.1219 12.949 24.4766 12.2997 24.9206 11.7135C25.6211 11.013 26.5679 10.6627 27.5132 10.802C29.1253 11.0819 30.2112 12.5548 29.9665 14.1668C29.861 14.693 29.5459 15.499 29.4403 15.499C29.37 15.499 29.37 15.5694 29.4052 15.6045C29.4052 15.6749 29.4052 15.7452 29.3348 15.7804C29.2645 15.7804 29.2293 15.7804 29.2645 15.7452L29.2997 15.7101L29.3011 15.7057Z" fill="url(#paint31_linear_128_2757)"/>
<path d="M10.3063 24.1514L8.7646 24.0459C8.01278 24.0312 7.26388 23.9609 6.52232 23.8363C6.45197 23.8363 6.38163 23.8011 6.34645 23.6956C6.27611 23.6252 6.45197 24.0459 6.4168 24.0459C6.34645 24.0459 5.57558 22.2931 5.54041 22.2242L5.92584 22.4338C6.38163 22.7137 6.94146 22.784 7.46759 22.6433C8.13295 22.4675 8.41433 22.1172 9.46513 20.2604C10.5511 18.3332 10.6566 18.1573 10.6566 18.5779C10.6566 18.8578 10.5863 18.9985 10.447 18.9985C10.3415 18.9985 10.3063 19.0337 10.3063 19.2433C10.3063 19.4191 10.2712 19.5232 10.2008 19.5232C10.1305 19.5232 10.0953 19.5935 10.0953 19.6639C10.0953 19.8735 9.98979 20.0141 9.88574 20.0141C9.81539 20.0141 9.78022 20.0845 9.78022 20.1548C9.78022 20.3996 9.70987 20.5403 9.60435 20.5403C9.53401 20.5403 9.49884 20.6106 9.49884 20.681C9.49884 20.8905 9.42849 21.0312 9.28926 21.0312C9.25409 21.0312 9.18374 21.1368 9.18374 21.2408C9.18374 21.3815 9.21892 21.4167 9.8491 21.4504C10.1994 21.4504 10.7958 21.5559 11.1813 21.5911C11.5667 21.6614 12.0225 21.6966 12.1632 21.6614C12.4079 21.6614 12.4783 21.5911 12.8637 20.8554C13.0528 20.4919 13.2638 20.1417 13.4939 19.8046C13.4939 19.7342 13.5643 19.6639 13.5994 19.6639C13.6698 19.6639 13.6698 19.6287 13.6698 19.5584L13.7753 19.3488L13.916 19.104C13.9512 18.9985 14.0215 18.9282 14.0567 18.9282C14.0918 18.9282 14.127 18.893 14.127 18.8227L14.2325 18.6131L14.3732 18.3683C14.3732 18.2628 14.4787 18.1925 14.5139 18.1925L14.5843 18.087C14.5843 18.0166 14.5843 17.9814 14.6546 17.9814L14.725 17.8759L14.7953 17.6664L15.0401 17.3161L15.32 16.8603L15.4607 16.6507C15.4607 16.6156 15.4607 16.5804 15.531 16.5804L15.6014 16.4749C15.6014 16.4045 15.6014 16.3693 15.6717 16.3693L15.742 16.2287C15.742 16.1583 15.7772 16.1231 15.8124 16.1231C15.8476 16.1231 15.8827 16.088 15.8827 16.0176C15.8827 15.9473 15.9179 15.9121 15.9531 15.9121C16.0234 15.9121 16.0234 15.8418 16.0234 15.8066C16.0234 15.7362 16.0938 15.6659 16.1641 15.6307C16.1993 15.6307 16.2696 15.5604 16.2696 15.49C16.2696 15.4548 16.2696 15.3845 16.34 15.3845C16.3752 15.3845 16.4103 15.3493 16.4103 15.279C16.4103 15.2086 16.4455 15.1383 16.5159 15.1383C16.5862 15.1031 16.6214 15.0328 16.6214 14.9976C16.6214 14.9273 16.6565 14.8921 16.6917 14.8921C16.7621 14.8921 16.7621 14.8217 16.7621 14.7866C16.7621 14.7162 16.8324 14.6107 16.9028 14.577C16.9731 14.5066 17.0786 14.4011 17.1123 14.2971C17.3571 13.8765 17.6736 13.6317 17.9887 13.6317C18.1646 13.6317 18.2335 13.6669 18.3038 13.8413C18.4445 14.1564 18.7596 14.2971 19.1099 14.1915L19.7049 14.086C19.9848 14.0509 20.02 14.086 20.02 14.2619C18.7669 15.8374 17.6648 17.5271 16.7254 19.3078C14.8334 22.7415 13.3268 25.4411 13.2213 25.4411C13.2213 25.4411 12.66 23.6546 12.6952 23.549C12.7304 23.4435 13.2213 22.954 13.2213 22.8485C13.151 22.743 12.4504 23.1988 12.5911 22.9892C12.6615 22.9189 13.6419 21.0972 13.6771 20.8861C14.0274 19.9042 14.4831 18.959 14.9389 18.0474C15.2892 17.4524 16.9013 16.9966 16.9013 16.9263C16.9013 16.9263 16.9013 16.8559 16.9716 16.8559L17.042 16.7152C17.042 16.6449 17.042 16.5745 17.1123 16.5745C17.3761 16.2008 17.5769 15.7861 17.7073 15.3479C17.7073 15.3127 17.7073 15.2423 17.7777 15.2423C17.8129 15.2423 17.848 15.172 17.7777 15.1017C17.7777 15.0313 17.7777 14.961 17.848 14.961C17.848 14.961 17.9184 14.8906 17.9184 14.7851C17.9184 14.5403 18.4445 14.9258 18.5837 14.9947C18.6893 14.9947 18.6541 17.5183 18.2335 15.065C18.2335 14.9243 17.8832 15.4153 17.8129 15.3449C17.8129 15.2394 18.6189 15.3801 18.2335 15.8359C17.1475 17.2032 15.0796 17.7279 13.0821 21.1631C11.5755 23.7557 11.3293 24.0722 11.1549 24.0371L11.0142 24.0722C11.0142 24.1074 10.979 24.1074 10.9439 24.0722C10.9087 24.0722 10.8735 24.0722 10.8735 24.1426C10.8735 24.2129 10.768 24.2129 10.2785 24.1426H10.3137L10.3063 24.1514Z" fill="url(#paint32_linear_128_2757)"/>
<path d="M10.2681 13.6374C9.85479 13.378 9.51625 13.016 9.28616 12.5866L9.11029 12.1309L9.95151 12.3067H10.7927L10.7224 12.657L10.6872 13.3927C10.6872 13.6023 10.652 13.7781 10.6169 13.7781L10.2666 13.6374H10.2681Z" fill="url(#paint33_linear_128_2757)"/>
<path d="M8.23882 22.2243C8.37952 22.0836 8.93935 21.2424 9.43031 20.3675C11.463 16.8282 13.0751 14.0598 13.4254 13.5688C14.0981 12.6631 14.8733 11.8395 15.738 11.1155L16.333 10.8004L16.1234 11.1507C16.0531 11.3602 15.9828 11.6065 15.8435 11.816C15.5636 12.3319 15.4185 12.9108 15.4229 13.4985C15.4933 13.8487 15.738 14.2694 15.9842 14.41C16.1239 14.4804 16.3457 14.4452 16.6496 14.3045C17.2109 14.0246 17.3501 13.9543 17.4908 13.7784C17.5611 13.6729 17.6667 13.6377 17.8411 13.6377C18.0042 13.6377 18.0858 13.7193 18.0858 13.8825C18.0858 13.988 18.0858 14.0583 18.0506 13.988C18.0506 13.9176 17.9803 13.8473 17.9451 13.8473C17.6652 13.8473 15.738 16.6509 13.8094 19.9102C12.5475 22.0133 12.3028 22.4339 12.4083 22.1525C12.4786 21.9766 12.3731 21.8022 12.2324 21.9429C12.1621 22.0133 11.9877 22.0133 11.4616 21.9078C10.761 21.7671 9.99015 21.6982 9.25445 21.6278C9.11375 21.6278 8.97453 21.7334 8.76349 21.9781L8.41322 22.258L8.16848 22.3635C8.02779 22.4339 8.06296 22.4339 8.23882 22.2228V22.2243ZM16.5441 19.5263L16.7199 19.2112C16.7551 19.2112 16.7199 19.3519 16.6144 19.5263L16.4385 19.8062C16.4385 19.8062 16.4385 19.6655 16.5441 19.5263ZM16.8943 18.8243L17.1039 18.5443L16.9984 18.8594C16.928 18.9649 16.8929 19.069 16.7888 19.1393L16.9295 18.8594L16.8943 18.8243ZM17.2446 18.3348C17.7473 17.4203 18.2983 16.5307 18.8919 15.6719C19.0677 15.4623 19.2069 15.2161 19.2069 15.1457C19.2069 15.0754 19.2069 15.0402 19.2773 15.0754C19.3476 15.1106 19.3828 15.0051 19.3476 14.7603L19.418 14.6548C19.5235 14.6548 19.6979 14.4789 19.6627 14.41C19.5924 14.3397 19.4869 14.3749 19.522 14.4452H19.3462C19.1703 14.4452 19.1014 14.4452 19.1366 14.5156H19.0311C18.8552 14.5156 18.8552 14.306 19.0311 14.306C19.1366 14.306 19.2069 14.2708 19.2069 14.2356C19.2069 14.2005 19.2069 14.1653 19.2773 14.1653L19.7682 13.9557L20.9246 13.3944C21.0301 13.2537 21.9754 12.3436 20.3295 14.095L19.4883 15.0769C19.2084 15.3568 19.4883 15.0065 19.4883 15.0065L19.0325 15.7071C18.3687 16.5424 17.7605 17.4203 17.2109 18.3348H17.246H17.2446Z" fill="url(#paint34_linear_128_2757)"/>
<path d="M10.6197 12.657C10.6549 12.5515 9.95439 12.4811 9.8137 12.6218C9.74335 12.6922 9.70818 12.657 9.70818 12.6218C9.70818 12.5515 9.68473 12.5398 9.63783 12.5867C9.60266 12.657 9.56748 12.657 9.39308 12.5867C9.14834 12.4811 8.97247 11.9565 8.97247 11.36C9.00765 10.3092 9.74335 9.74791 10.1991 9.71274C10.5494 9.67756 10.8293 9.71274 11.0404 9.95748C11.2851 10.2022 11.3203 10.3077 11.3203 10.6228C11.3203 10.9028 11.2499 11.149 11.1107 11.4641L10.7956 12.3405C10.7604 12.5852 10.6901 12.7611 10.6549 12.7611C10.6197 12.7611 10.5846 12.7259 10.6197 12.6555V12.657Z" fill="url(#paint35_linear_128_2757)"/>
<path d="M12.9679 11.1858C12.499 10.0281 12.499 8.73399 12.9679 7.57622C13.1819 7.075 13.478 6.61335 13.8443 6.20886L13.9147 6.48878C13.9147 6.69835 13.8795 6.73353 13.7388 6.73353C13.5981 6.73353 13.5981 6.73353 13.6685 6.80388L13.7388 7.04862C13.7388 7.39888 15.2102 8.06424 16.1921 8.20493C16.7534 8.27528 16.7871 8.27528 17.1037 8.09942C17.2796 7.9939 17.5243 7.88984 17.6298 7.88984C17.8394 7.88984 17.8746 7.88984 17.8746 7.6451C17.8746 7.46923 17.8746 7.40035 17.9801 7.40035C18.0153 7.40035 18.0856 7.29483 18.1208 7.15561C18.156 6.97974 18.1911 6.94603 18.4007 6.94603C18.5062 6.94603 18.4359 6.21033 18.4359 6.2455C18.751 6.21033 18.26 7.54251 17.4891 8.032C17.4188 8.06717 17.9098 7.96165 17.8746 8.032C17.8394 8.20786 17.0334 8.73253 16.3328 9.01391C14.8262 9.6441 13.7051 10.3813 13.3197 11.0466C13.1438 11.3265 13.0749 11.3265 12.9694 11.1873L12.9679 11.1858Z" fill="url(#paint36_linear_128_2757)"/>
<path d="M18.0154 13.9542C18.0154 13.8486 17.8747 13.8135 17.7354 13.9542C17.6651 14.0245 17.6651 13.9542 17.6651 13.8135C17.6651 13.6503 17.7467 13.5687 17.9098 13.5687C18.073 13.5687 18.1546 13.6503 18.1546 13.8135C18.1546 13.9542 18.1546 14.0934 18.0842 14.0934L18.0139 13.9527L18.0154 13.9542Z" fill="#59E9FE"/>
<path d="M16.1573 8.45255L14.9658 8.17263C14.2653 7.89271 13.5647 7.4721 13.5296 7.22589C13.5296 7.12037 13.4592 7.05003 13.424 7.05003C13.3537 7.05003 13.2833 7.22589 13.2482 7.19072C13.2482 7.15554 13.2482 6.98114 13.3185 6.94597L13.3537 6.87563L13.4944 6.63088L13.6702 6.38614C13.7406 6.31579 13.9502 6.07104 14.0909 6.07104L14.5466 6.31579C15.0728 6.66605 15.6326 6.9108 16.2994 7.01632C16.6497 7.08666 16.8256 7.08666 17.4557 6.9108L18.3321 6.73494C18.508 6.73494 18.5417 6.73493 18.5417 6.97968C18.5417 7.15554 18.5065 7.22443 18.4714 7.22443H18.3658V7.434C18.3658 7.53952 18.1563 7.78426 17.9452 7.9953C17.7357 8.20487 17.595 8.34557 17.595 8.24005C17.6653 8.13453 17.6301 8.13453 17.4191 8.24005C16.9985 8.51996 16.8578 8.55514 16.1573 8.44962V8.45255Z" fill="url(#paint37_linear_128_2757)"/>
<path d="M21.2031 6.45497C20.3971 6.03436 20.2564 4.84287 20.9935 4.28157C21.2031 4.1057 21.8348 3.9313 22.0092 4.07199C22.185 4.24786 22.1499 4.35191 22.6042 4.31674C22.6042 4.31674 22.9544 4.59666 22.9544 4.84287C23.205 5.49357 22.8812 6.22341 22.2319 6.47402C21.8963 6.60299 21.5226 6.58393 21.2031 6.41979V6.45497Z" fill="url(#paint38_linear_128_2757)"/>
<path d="M15.9498 7.26095C15.5292 7.15544 14.7935 6.80517 14.2673 6.45491C13.9874 6.27904 13.9171 6.24533 13.7764 6.31421C13.4965 6.49008 13.6709 6.24387 14.1267 5.85843C14.7217 5.29713 15.4588 4.91169 16.2649 4.80763C17.5971 4.70211 18.3679 5.50817 18.5423 6.56043C18.5775 6.84034 18.4016 7.43682 18.2624 7.50716C18.1217 7.61268 18.1569 7.50716 18.1569 7.43682L18.1921 7.29613C18.1217 7.40165 18.2624 7.29612 18.2624 7.12026V6.9444L17.5971 7.12026C17.0533 7.29173 16.4759 7.32837 15.9146 7.22578L15.9498 7.26095Z" fill="url(#paint39_linear_128_2757)"/>
<path d="M22.8513 4.84289C22.6417 4.77254 22.4307 4.77254 22.2211 4.77254C21.695 4.77254 21.6261 4.77254 21.4502 4.59667C21.3095 4.45598 21.1703 4.3871 21.1 4.3871C20.8552 4.3871 21.0648 4.17753 21.3799 4.07201C21.695 3.96649 22.0452 3.96649 22.3266 4.14236C22.6769 4.31822 22.8528 4.49262 22.8879 4.73737C22.9114 4.85461 22.8997 4.88979 22.8528 4.84289H22.8513Z" fill="url(#paint40_linear_128_2757)"/>
<path d="M18.2608 14.3046C18.1553 14.2064 18.0718 14.0862 18.0161 13.9543C17.9458 13.8136 17.5955 13.9543 17.49 14.0598C17.3845 14.1302 17.7347 13.9191 17.7347 13.7096C17.7347 13.5689 17.8754 13.3593 18.4001 12.798C19.3116 11.8161 19.6971 11.501 20.0825 11.501C20.3273 11.501 20.3624 11.501 20.3976 11.7809C20.5031 12.4814 20.3976 13.393 20.1177 13.6729C20.0473 13.7081 20.0473 13.8488 20.0473 13.9528C20.0825 14.0935 20.0473 14.1287 19.7674 14.2679C19.5916 14.3383 19.2061 14.4086 18.9262 14.4086C18.4704 14.4438 18.4001 14.4086 18.2257 14.3031H18.2608V14.3046Z" fill="url(#paint41_linear_128_2757)"/>
<path d="M19.8361 14.1637C19.8361 14.0933 19.8361 14.0582 19.7658 14.0933C19.6954 14.1285 19.6602 14.0933 19.6602 14.0582L19.7306 13.7782C19.7306 13.6375 19.8361 13.4983 19.8713 13.428C20.116 13.2184 20.3271 12.1661 20.1512 12.0269C20.0809 12.0269 20.0809 11.9566 20.0809 11.851C20.116 11.7807 20.0809 11.7104 20.0809 11.7104C19.9402 11.7104 19.2748 12.3405 18.6094 13.0074L17.9441 13.7431V13.4983C17.9441 13.1832 18.0496 13.0425 18.2944 13.0425C18.435 13.0425 18.4702 13.0425 18.4702 12.833C18.4702 12.6923 18.5757 12.553 18.8205 12.2717L19.2763 11.8862L19.6265 11.536C20.3622 10.9058 21.2738 10.4852 22.2543 10.3796C22.7452 10.3093 22.7804 10.3093 22.9548 10.4852C23.1644 10.7299 23.2699 10.9761 23.1995 11.256C23.0237 11.5008 22.8141 11.747 22.5693 11.9566C22.093 12.3786 21.6255 12.811 21.1683 13.2536C20.8532 13.6038 20.5029 13.8486 20.1175 14.0948C19.884 14.1886 19.7907 14.2003 19.8376 14.13V14.1651L19.8361 14.1637Z" fill="url(#paint42_linear_128_2757)"/>
<path d="M15.8767 14.69C15.5968 14.5845 15.2817 14.1287 15.2465 13.6744C15.141 12.7628 15.4224 11.8176 15.9822 11.0819C16.4028 10.6261 17.9094 9.89038 18.9954 9.64563C20.5371 9.29537 21.9734 9.50494 22.7457 10.2406C23.096 10.5909 23.2367 10.8356 23.2367 11.0819C23.2367 11.2914 23.0608 11.5025 22.8864 11.5025C22.8864 11.5025 22.8864 11.4321 22.9919 11.3618C23.2015 11.1859 23.2015 11.0115 22.9919 10.7668C22.8864 10.6261 22.8161 10.5909 22.4658 10.6261C21.3095 10.6261 19.907 11.5376 18.4356 13.1849C17.9519 13.818 17.313 14.3134 16.5787 14.6211C16.2284 14.7618 16.1581 14.7618 15.8782 14.6915L15.8767 14.69Z" fill="url(#paint43_linear_128_2757)"/>
</g>
<defs>
<linearGradient id="paint0_linear_128_2757" x1="23.1781" y1="21.632" x2="28.9963" y2="11.6443" gradientUnits="userSpaceOnUse">
<stop stop-color="#1964E7"/>
<stop offset="1" stop-color="#6884F2"/>
</linearGradient>
<linearGradient id="paint1_linear_128_2757" x1="3.01836" y1="11.7103" x2="8.83657" y2="21.698" gradientUnits="userSpaceOnUse">
<stop stop-color="#00CCE6"/>
<stop offset="1" stop-color="#0082E7"/>
</linearGradient>
<radialGradient id="paint2_radial_128_2757" cx="0" cy="0" r="1" gradientUnits="userSpaceOnUse" gradientTransform="translate(24.57 20.0509) scale(8.44593 8.44597)">
<stop offset="0.2" stop-color="#00CDFF"/>
<stop offset="0.5" stop-color="#00BCFA"/>
<stop offset="0.8" stop-color="#00ABF8"/>
<stop offset="1" stop-color="#0098F7"/>
</radialGradient>
<radialGradient id="paint3_radial_128_2757" cx="0" cy="0" r="1" gradientUnits="userSpaceOnUse" gradientTransform="translate(24.5723 86.6187) scale(8.44592 8.44592)">
<stop offset="0.2" stop-color="#00CDFF"/>
<stop offset="0.5" stop-color="#00BCFA"/>
<stop offset="0.8" stop-color="#00ABF8"/>
<stop offset="1" stop-color="#0098F7"/>
</radialGradient>
<radialGradient id="paint4_radial_128_2757" cx="0" cy="0" r="1" gradientUnits="userSpaceOnUse" gradientTransform="translate(24.5681 20.0509) scale(8.44592 8.44591)">
<stop offset="0.2" stop-color="#00CDFF"/>
<stop offset="0.5" stop-color="#00BCFA"/>
<stop offset="0.8" stop-color="#00ABF8"/>
<stop offset="1" stop-color="#0098F7"/>
</radialGradient>
<radialGradient id="paint5_radial_128_2757" cx="0" cy="0" r="1" gradientUnits="userSpaceOnUse" gradientTransform="translate(24.5682 20.0506) scale(8.44592 8.44592)">
<stop offset="0.2" stop-color="#00CDFF"/>
<stop offset="0.5" stop-color="#00BCFA"/>
<stop offset="0.8" stop-color="#00ABF8"/>
<stop offset="1" stop-color="#0098F7"/>
</radialGradient>
<radialGradient id="paint6_radial_128_2757" cx="0" cy="0" r="1" gradientUnits="userSpaceOnUse" gradientTransform="translate(24.5693 20.051) scale(8.44594 8.44593)">
<stop offset="0.2" stop-color="#00CDFF"/>
<stop offset="0.5" stop-color="#00BCFA"/>
<stop offset="0.8" stop-color="#00ABF8"/>
<stop offset="1" stop-color="#0098F7"/>
</radialGradient>
<linearGradient id="paint7_linear_128_2757" x1="3.26014" y1="11.57" x2="9.07834" y2="21.5577" gradientUnits="userSpaceOnUse">
<stop stop-color="#00CCE6"/>
<stop offset="1" stop-color="#0082E7"/>
</linearGradient>
<linearGradient id="paint8_linear_128_2757" x1="3.38313" y1="11.4993" x2="9.20133" y2="21.487" gradientUnits="userSpaceOnUse">
<stop stop-color="#00CCE6"/>
<stop offset="1" stop-color="#0082E7"/>
</linearGradient>
<linearGradient id="paint9_linear_128_2757" x1="5.40648" y1="17.4655" x2="11.2583" y2="27.6275" gradientUnits="userSpaceOnUse">
<stop stop-color="#0CF4FF"/>
<stop offset="0.3" stop-color="#04EEFE"/>
<stop offset="1" stop-color="#00B1F7"/>
</linearGradient>
<linearGradient id="paint10_linear_128_2757" x1="3.5034" y1="11.429" x2="9.3216" y2="21.4167" gradientUnits="userSpaceOnUse">
<stop stop-color="#00CCE6"/>
<stop offset="1" stop-color="#0082E7"/>
</linearGradient>
<radialGradient id="paint11_radial_128_2757" cx="0" cy="0" r="1" gradientUnits="userSpaceOnUse" gradientTransform="translate(24.5645 20.0508) scale(8.44592 8.44593)">
<stop offset="0.2" stop-color="#00CDFF"/>
<stop offset="0.5" stop-color="#00BCFA"/>
<stop offset="0.8" stop-color="#00ABF8"/>
<stop offset="1" stop-color="#0098F7"/>
</radialGradient>
<radialGradient id="paint12_radial_128_2757" cx="0" cy="0" r="1" gradientUnits="userSpaceOnUse" gradientTransform="translate(24.5701 20.0507) scale(8.44592)">
<stop offset="0.2" stop-color="#00CDFF"/>
<stop offset="0.5" stop-color="#00BCFA"/>
<stop offset="0.8" stop-color="#00ABF8"/>
<stop offset="1" stop-color="#0098F7"/>
</radialGradient>
<linearGradient id="paint13_linear_128_2757" x1="5.71084" y1="10.1452" x2="11.5276" y2="20.1329" gradientUnits="userSpaceOnUse">
<stop stop-color="#00CCE6"/>
<stop offset="1" stop-color="#0082E7"/>
</linearGradient>
<linearGradient id="paint14_linear_128_2757" x1="3.53436" y1="11.4128" x2="9.3511" y2="21.4004" gradientUnits="userSpaceOnUse">
<stop stop-color="#00CCE6"/>
<stop offset="1" stop-color="#0082E7"/>
</linearGradient>
<linearGradient id="paint15_linear_128_2757" x1="4.19967" y1="18.1619" x2="10.0516" y2="28.324" gradientUnits="userSpaceOnUse">
<stop stop-color="#0CF4FF"/>
<stop offset="0.3" stop-color="#04EEFE"/>
<stop offset="1" stop-color="#00B1F7"/>
</linearGradient>
<radialGradient id="paint16_radial_128_2757" cx="0" cy="0" r="1" gradientUnits="userSpaceOnUse" gradientTransform="translate(24.566 20.0509) scale(8.44592 8.44592)">
<stop offset="0.2" stop-color="#00CDFF"/>
<stop offset="0.5" stop-color="#00BCFA"/>
<stop offset="0.8" stop-color="#00ABF8"/>
<stop offset="1" stop-color="#0098F7"/>
</radialGradient>
<radialGradient id="paint17_radial_128_2757" cx="0" cy="0" r="1" gradientUnits="userSpaceOnUse" gradientTransform="translate(24.5683 86.6186) scale(8.44592 8.44591)">
<stop offset="0.2" stop-color="#00CDFF"/>
<stop offset="0.5" stop-color="#00BCFA"/>
<stop offset="0.8" stop-color="#00ABF8"/>
<stop offset="1" stop-color="#0098F7"/>
</radialGradient>
<linearGradient id="paint18_linear_128_2757" x1="22.9098" y1="21.4739" x2="28.7265" y2="11.4862" gradientUnits="userSpaceOnUse">
<stop stop-color="#1964E7"/>
<stop offset="1" stop-color="#6884F2"/>
</linearGradient>
<linearGradient id="paint19_linear_128_2757" x1="3.54478" y1="11.407" x2="9.36153" y2="21.3932" gradientUnits="userSpaceOnUse">
<stop stop-color="#00CCE6"/>
<stop offset="1" stop-color="#0082E7"/>
</linearGradient>
<linearGradient id="paint20_linear_128_2757" x1="5.71099" y1="17.291" x2="11.5629" y2="27.4531" gradientUnits="userSpaceOnUse">
<stop stop-color="#0CF4FF"/>
<stop offset="0.3" stop-color="#04EEFE"/>
<stop offset="1" stop-color="#00B1F7"/>
</linearGradient>
<radialGradient id="paint21_radial_128_2757" cx="0" cy="0" r="1" gradientUnits="userSpaceOnUse" gradientTransform="translate(24.567 86.6187) scale(8.44592 8.44592)">
<stop offset="0.2" stop-color="#00CDFF"/>
<stop offset="0.5" stop-color="#00BCFA"/>
<stop offset="0.8" stop-color="#00ABF8"/>
<stop offset="1" stop-color="#0098F7"/>
</radialGradient>
<radialGradient id="paint22_radial_128_2757" cx="0" cy="0" r="1" gradientUnits="userSpaceOnUse" gradientTransform="translate(24.5686 20.0508) scale(8.44593 8.44592)">
<stop offset="0.2" stop-color="#00CDFF"/>
<stop offset="0.5" stop-color="#00BCFA"/>
<stop offset="0.8" stop-color="#00ABF8"/>
<stop offset="1" stop-color="#0098F7"/>
</radialGradient>
<linearGradient id="paint23_linear_128_2757" x1="5.9971" y1="9.97812" x2="11.8139" y2="19.9658" gradientUnits="userSpaceOnUse">
<stop stop-color="#00CCE6"/>
<stop offset="1" stop-color="#0082E7"/>
</linearGradient>
<linearGradient id="paint24_linear_128_2757" x1="3.26269" y1="11.5697" x2="9.07942" y2="21.5574" gradientUnits="userSpaceOnUse">
<stop stop-color="#00CCE6"/>
<stop offset="1" stop-color="#0082E7"/>
</linearGradient>
<linearGradient id="paint25_linear_128_2757" x1="8.14197" y1="15.8915" x2="13.9939" y2="26.0535" gradientUnits="userSpaceOnUse">
<stop stop-color="#0CF4FF"/>
<stop offset="0.3" stop-color="#04EEFE"/>
<stop offset="1" stop-color="#00B1F7"/>
</linearGradient>
<radialGradient id="paint26_radial_128_2757" cx="0" cy="0" r="1" gradientUnits="userSpaceOnUse" gradientTransform="translate(24.566 20.051) scale(8.44592)">
<stop offset="0.2" stop-color="#00CDFF"/>
<stop offset="0.5" stop-color="#00BCFA"/>
<stop offset="0.8" stop-color="#00ABF8"/>
<stop offset="1" stop-color="#0098F7"/>
</radialGradient>
<radialGradient id="paint27_radial_128_2757" cx="0" cy="0" r="1" gradientUnits="userSpaceOnUse" gradientTransform="translate(24.5711 20.0508) scale(8.44592 8.44593)">
<stop offset="0.2" stop-color="#00CDFF"/>
<stop offset="0.5" stop-color="#00BCFA"/>
<stop offset="0.8" stop-color="#00ABF8"/>
<stop offset="1" stop-color="#0098F7"/>
</radialGradient>
<radialGradient id="paint28_radial_128_2757" cx="0" cy="0" r="1" gradientUnits="userSpaceOnUse" gradientTransform="translate(24.5661 20.0507) scale(8.44592)">
<stop offset="0.2" stop-color="#00CDFF"/>
<stop offset="0.5" stop-color="#00BCFA"/>
<stop offset="0.8" stop-color="#00ABF8"/>
<stop offset="1" stop-color="#0098F7"/>
</radialGradient>
<linearGradient id="paint29_linear_128_2757" x1="4.59083" y1="17.9345" x2="10.4442" y2="28.0966" gradientUnits="userSpaceOnUse">
<stop stop-color="#0CF4FF"/>
<stop offset="0.3" stop-color="#04EEFE"/>
<stop offset="1" stop-color="#00B1F7"/>
</linearGradient>
<radialGradient id="paint30_radial_128_2757" cx="0" cy="0" r="1" gradientUnits="userSpaceOnUse" gradientTransform="translate(24.5696 20.0508) scale(8.44593 8.44609)">
<stop offset="0.2" stop-color="#00CDFF"/>
<stop offset="0.5" stop-color="#00BCFA"/>
<stop offset="0.8" stop-color="#00ABF8"/>
<stop offset="1" stop-color="#0098F7"/>
</radialGradient>
<linearGradient id="paint31_linear_128_2757" x1="22.6827" y1="21.3421" x2="28.4995" y2="11.3545" gradientUnits="userSpaceOnUse">
<stop stop-color="#1964E7"/>
<stop offset="1" stop-color="#6884F2"/>
</linearGradient>
<linearGradient id="paint32_linear_128_2757" x1="10.554" y1="14.5008" x2="16.4074" y2="24.6629" gradientUnits="userSpaceOnUse">
<stop stop-color="#0CF4FF"/>
<stop offset="0.3" stop-color="#04EEFE"/>
<stop offset="1" stop-color="#00B1F7"/>
</linearGradient>
<linearGradient id="paint33_linear_128_2757" x1="9.95298" y1="9.95892" x2="9.95298" y2="13.3927" gradientUnits="userSpaceOnUse">
<stop stop-color="#40FAFD"/>
<stop offset="1" stop-color="#00E0FF"/>
</linearGradient>
<linearGradient id="paint34_linear_128_2757" x1="12.2661" y1="13.5161" x2="18.118" y2="23.6781" gradientUnits="userSpaceOnUse">
<stop stop-color="#0CF4FF"/>
<stop offset="0.3" stop-color="#04EEFE"/>
<stop offset="1" stop-color="#00B1F7"/>
</linearGradient>
<linearGradient id="paint35_linear_128_2757" x1="10.1464" y1="9.95895" x2="10.1464" y2="13.3927" gradientUnits="userSpaceOnUse">
<stop stop-color="#40FAFD"/>
<stop offset="1" stop-color="#00E0FF"/>
</linearGradient>
<linearGradient id="paint36_linear_128_2757" x1="15.5737" y1="5.1229" x2="15.5737" y2="10.9396" gradientUnits="userSpaceOnUse">
<stop stop-color="#8EF6FD"/>
<stop offset="1" stop-color="#2BE8FF"/>
</linearGradient>
<linearGradient id="paint37_linear_128_2757" x1="15.8949" y1="86.6919" x2="15.8949" y2="10.9396" gradientUnits="userSpaceOnUse">
<stop stop-color="#8EF6FD"/>
<stop offset="1" stop-color="#2BE8FF"/>
</linearGradient>
<linearGradient id="paint38_linear_128_2757" x1="21.7761" y1="4.24639" x2="21.7761" y2="6.20876" gradientUnits="userSpaceOnUse">
<stop stop-color="#92EEFE"/>
<stop offset="1" stop-color="#59E5FE"/>
</linearGradient>
<linearGradient id="paint39_linear_128_2757" x1="16.0949" y1="86.6919" x2="16.0949" y2="10.9395" gradientUnits="userSpaceOnUse">
<stop stop-color="#8EF6FD"/>
<stop offset="1" stop-color="#2BE8FF"/>
</linearGradient>
<linearGradient id="paint40_linear_128_2757" x1="21.95" y1="4.24641" x2="21.95" y2="6.20878" gradientUnits="userSpaceOnUse">
<stop stop-color="#92EEFE"/>
<stop offset="1" stop-color="#59E5FE"/>
</linearGradient>
<linearGradient id="paint41_linear_128_2757" x1="17.4577" y1="10.3564" x2="19.6648" y2="14.1067" gradientUnits="userSpaceOnUse">
<stop stop-color="#A6FEFF"/>
<stop offset="0.5" stop-color="#BFFDFE"/>
<stop offset="1" stop-color="#97EDFF"/>
</linearGradient>
<linearGradient id="paint42_linear_128_2757" x1="18.9201" y1="9.49445" x2="21.1287" y2="13.2433" gradientUnits="userSpaceOnUse">
<stop stop-color="#A6FEFF"/>
<stop offset="0.5" stop-color="#BFFDFE"/>
<stop offset="1" stop-color="#97EDFF"/>
</linearGradient>
<linearGradient id="paint43_linear_128_2757" x1="17.8816" y1="10.1073" x2="20.0902" y2="13.8561" gradientUnits="userSpaceOnUse">
<stop stop-color="#A6FEFF"/>
<stop offset="0.5" stop-color="#BFFDFE"/>
<stop offset="1" stop-color="#97EDFF"/>
</linearGradient>
</defs>
</svg>
