<svg width="93" height="32" viewBox="0 0 93 32" fill="none" xmlns="http://www.w3.org/2000/svg">
<path d="M27.641 21.8712C27.5159 21.5187 27.3695 21.1778 27.2303 20.8619C27.0157 20.3789 26.7972 19.8976 26.5746 19.4183L26.5572 19.3808C24.5907 15.1139 22.5315 10.8905 20.3811 6.71375L20.2892 6.53526C20.0656 6.09715 19.8381 5.66106 19.6067 5.22703C19.3291 4.67531 18.9923 4.15558 18.6023 3.67703C18.1631 3.15173 17.6144 2.72938 16.9948 2.43975C16.3748 2.15001 15.6991 1.99991 15.0152 2C14.3312 2.00009 13.6555 2.15037 13.0357 2.44028C12.4162 2.73005 11.8675 3.15251 11.4285 3.67791C11.0391 4.15655 10.7026 4.67614 10.425 5.22755C10.1915 5.66558 9.96191 6.10569 9.73625 6.54781L9.65107 6.71341C7.50074 10.8904 5.44149 15.1139 3.4748 19.381L3.44664 19.442C3.22787 19.9135 3.01296 20.3867 2.80191 20.8618C2.66285 21.1774 2.51666 21.5182 2.39133 21.8716C2.03225 22.8339 1.91779 23.8708 2.05828 24.8886C2.20746 25.9175 2.62238 26.8894 3.26186 27.7078C3.90195 28.5267 4.74408 29.164 5.70501 29.5565C6.43131 29.851 7.20761 30.0016 7.99102 30C8.23739 30 8.48295 29.9856 8.7277 29.9569C9.71849 29.8305 10.6742 29.5072 11.5388 29.0059C12.6727 28.367 13.7927 27.4308 15.0161 26.0929C16.2395 27.4308 17.3593 28.367 18.4933 29.0057C19.358 29.5071 20.3137 29.8305 21.3045 29.9569C21.549 29.9854 21.795 29.9998 22.0412 30C22.8246 30.0017 23.6009 29.8511 24.327 29.5565C25.288 29.164 26.1302 28.5267 26.7703 27.7078C27.4098 26.8894 27.8247 25.9175 27.9739 24.8886C28.1142 23.8707 27.9998 22.8337 27.641 21.8712ZM15.0161 23.3297C13.5015 21.4046 12.5298 19.6168 12.1888 18.1182C12.0489 17.5567 12.0159 16.9738 12.0914 16.4C12.1511 15.9793 12.3052 15.5776 12.5422 15.2253C12.834 14.8459 13.2088 14.5388 13.6376 14.3276C14.0667 14.1165 14.5383 14.0067 15.0163 14.0068C15.4943 14.0069 15.9659 14.1167 16.3949 14.328C16.8237 14.5392 17.1984 14.8463 17.4902 15.2257C17.7272 15.578 17.8813 15.9797 17.9409 16.4005C18.016 16.9745 17.9829 17.5576 17.8432 18.1193C17.5018 19.6179 16.5303 21.4051 15.0161 23.3297ZM26.205 24.6351C26.1008 25.3545 25.8107 26.034 25.3635 26.6061C24.916 27.1788 24.3271 27.6244 23.6552 27.8988C22.9753 28.1719 22.2378 28.2687 21.5108 28.1801C20.7552 28.0825 20.027 27.8331 19.3698 27.4468C18.3604 26.8782 17.3386 26.0052 16.1887 24.7246C18.0191 22.4614 19.1622 20.3754 19.5853 18.5172C19.7756 17.736 19.8169 16.9257 19.707 16.1291C19.607 15.4427 19.353 14.788 18.9641 14.2143C18.508 13.5951 17.9132 13.0919 17.2277 12.7454C16.5418 12.3986 15.7844 12.218 15.0163 12.218C14.2481 12.218 13.4907 12.3986 12.8048 12.7454C12.1193 13.0918 11.5245 13.5948 11.0683 14.214C10.6795 14.7874 10.4254 15.4419 10.3253 16.1281C10.2153 16.9244 10.2564 17.7344 10.4463 18.5155C10.8693 20.3742 12.0123 22.4609 13.8433 24.7247C12.6936 26.0052 11.6718 26.8782 10.6624 27.447C10.0051 27.8332 9.27693 28.0826 8.52137 28.1801C7.79431 28.2687 7.05672 28.1719 6.37685 27.8988C5.70507 27.6242 5.1163 27.1787 4.66865 26.6063C4.22152 26.0341 3.93147 25.3545 3.82732 24.6351C3.7273 23.904 3.81255 23.1595 4.0752 22.4702C4.17498 22.1885 4.29196 21.9123 4.43676 21.5839C4.64387 21.1179 4.85473 20.6536 5.06932 20.191L5.09748 20.1296C7.05335 15.8864 9.1013 11.6864 11.2399 7.53268L11.3254 7.36621C11.5444 6.94036 11.7707 6.49987 11.9991 6.07437C12.2177 5.63571 12.4822 5.2216 12.7881 4.83901C13.0597 4.51063 13.4001 4.24633 13.7851 4.0649C14.1702 3.88348 14.5903 3.78941 15.0157 3.78937C15.4412 3.78934 15.8613 3.88335 16.2464 4.06471C16.6315 4.24607 16.9719 4.51033 17.2435 4.83866C17.5497 5.22092 17.8142 5.63489 18.0327 6.0735C18.2588 6.49534 18.4833 6.93182 18.7004 7.35383L18.7925 7.53285C20.9311 11.6866 22.979 15.8866 24.9347 20.13L24.9521 20.1676C25.1659 20.6318 25.3872 21.1115 25.5954 21.5841C25.7404 21.9129 25.8575 22.1893 25.9572 22.47C26.2198 23.1593 26.3051 23.9039 26.205 24.635M38.3718 23.1043C37.6747 23.1043 37.0333 22.9642 36.4475 22.684C35.8617 22.4037 35.3598 22.0112 34.9136 21.5069C34.4674 21.0026 34.1328 20.4139 33.8816 19.7692C33.6306 19.0965 33.519 18.3677 33.519 17.5831C33.519 16.7985 33.6586 16.0415 33.9096 15.3688C34.1606 14.6961 34.5232 14.1076 34.9694 13.5751C35.4156 13.0706 35.9455 12.6502 36.5591 12.3699C37.1727 12.0896 37.8141 11.9494 38.5393 11.9494C39.2364 11.9494 39.85 12.0896 40.408 12.398C40.9658 12.6782 41.412 13.0987 41.7744 13.631L41.8582 12.2578H44.4239V22.8242H41.8582L41.7744 21.2827C41.412 21.8431 40.9378 22.2917 40.3242 22.6279C39.7664 22.9364 39.097 23.1045 38.3719 23.1045M39.0415 20.5822C39.5435 20.5822 39.9897 20.442 40.4081 20.1898C40.7986 19.9095 41.1052 19.5452 41.3564 19.0968C41.5794 18.6483 41.691 18.1158 41.691 17.5271C41.691 16.9385 41.5794 16.4059 41.3564 15.9576C41.1332 15.5091 40.7984 15.1448 40.4081 14.8647C40.0176 14.5842 39.5435 14.4721 39.0415 14.4721C38.5395 14.4721 38.0933 14.6123 37.6749 14.8645C37.2845 15.1448 36.9777 15.5091 36.7267 15.9574C36.5035 16.4059 36.3919 16.9385 36.3919 17.5271C36.3919 18.1158 36.5035 18.6483 36.7267 19.0967C36.9497 19.5452 37.2845 19.9095 37.6749 20.1896C38.0933 20.442 38.5395 20.5822 39.0415 20.5822ZM48.803 9.39906C48.803 9.70742 48.7472 9.98772 48.6076 10.2119C48.463 10.4455 48.2614 10.6384 48.022 10.7725C47.771 10.9126 47.4921 10.9686 47.2133 10.9686C46.9345 10.9686 46.6553 10.9126 46.4043 10.7725C46.1649 10.6384 45.9633 10.4455 45.8187 10.2119C45.6793 9.95965 45.6235 9.70742 45.6235 9.39906C45.6235 9.09087 45.6791 8.81058 45.8187 8.58623C45.9581 8.334 46.1533 8.16596 46.4045 8.02581C46.6553 7.88567 46.9343 7.82954 47.2133 7.82954C47.4923 7.82954 47.771 7.88567 48.022 8.02581C48.2615 8.15977 48.4631 8.35262 48.6078 8.58623C48.7192 8.81058 48.803 9.06281 48.803 9.39906ZM45.8187 22.7963V12.2297H48.6076V22.7961L45.8187 22.7963ZM56.0544 15.0045V15.0327C55.915 14.9766 55.7476 14.9485 55.608 14.9206C55.4408 14.8926 55.3012 14.8926 55.134 14.8926C54.353 14.8926 53.7673 15.1167 53.3769 15.5933C52.9585 16.0697 52.7633 16.7424 52.7633 17.6112V22.7963H49.9744V12.2297H52.5401L52.6239 13.8273C52.9027 13.2667 53.2375 12.8463 53.7115 12.5381C54.1577 12.2296 54.6876 12.0896 55.3012 12.0896C55.4966 12.0896 55.6918 12.1175 55.8592 12.1455C55.9426 12.1736 55.9984 12.1736 56.0544 12.2017V15.0045ZM57.1698 22.7963V7.88549H59.9589V13.5751C60.3493 13.0708 60.7955 12.6782 61.3533 12.3701C61.9113 12.0898 62.5249 11.9216 63.222 11.9216C63.9192 11.9216 64.5606 12.0617 65.1463 12.342C65.7321 12.6223 66.2341 13.0147 66.6803 13.5191C67.1267 14.0236 67.4613 14.6123 67.7123 15.257C67.9633 15.9296 68.0747 16.6582 68.0747 17.4429C68.0747 18.2279 67.9353 18.9846 67.6845 19.6572C67.4333 20.3299 67.0709 20.9184 66.6245 21.4509C66.1783 21.9556 65.6485 22.3758 65.0348 22.6561C64.4212 22.9364 63.7798 23.0766 63.0548 23.0766C62.3574 23.0766 61.7439 22.9364 61.1861 22.6281C60.6281 22.3478 60.1819 21.9273 59.8195 21.395L59.7357 22.7682L57.1698 22.7963ZM62.5526 20.5822C63.0548 20.5822 63.501 20.442 63.9192 20.1898C64.3096 19.9095 64.6164 19.5452 64.8674 19.0968C65.0906 18.6483 65.2022 18.1158 65.2022 17.5271C65.2022 16.9385 65.0906 16.4059 64.8674 15.9576C64.6164 15.5091 64.3096 15.1448 63.9192 14.8647C63.5288 14.5842 63.0548 14.4721 62.5526 14.4721C62.0506 14.4721 61.6044 14.6123 61.1861 14.8645C60.7955 15.1448 60.4887 15.5091 60.2377 15.9574C60.0147 16.4059 59.9031 16.9385 59.9031 17.5271C59.9031 18.1158 60.0147 18.6483 60.2377 19.0967C60.4609 19.5452 60.7957 19.9095 61.1861 20.1896C61.6044 20.442 62.0506 20.5822 62.5526 20.5822ZM69.1347 22.7963V12.2297H71.7004L71.7842 13.6032C72.091 13.0985 72.5093 12.7061 73.0393 12.398C73.5691 12.0896 74.1827 11.9494 74.8801 11.9494C75.6609 11.9494 76.3302 12.1455 76.888 12.51C77.4738 12.8744 77.92 13.4069 78.2268 14.0796C78.5336 14.7522 78.7008 15.5649 78.7008 16.49V22.8242H75.9119V16.8543C75.9119 16.1257 75.7445 15.537 75.4099 15.1164C75.0753 14.6963 74.6289 14.4719 74.0433 14.4719C73.6249 14.4719 73.2623 14.556 72.9277 14.7522C72.6209 14.9483 72.3699 15.2006 72.1746 15.5651C71.9794 15.9013 71.8958 16.3216 71.8958 16.7422V22.7961L69.1347 22.7963ZM80.0953 22.7963V7.88549H82.8843V13.5751C83.2748 13.0708 83.721 12.6782 84.2788 12.3701C84.8368 12.0898 85.4504 11.9216 86.1474 11.9216C86.8448 11.9216 87.4863 12.0617 88.0719 12.342C88.6577 12.6223 89.1595 13.0147 89.6057 13.5191C90.0525 14.0236 90.3866 14.6123 90.6379 15.257C90.8893 15.9296 91 16.6582 91 17.4429C91 18.2279 90.8613 18.9846 90.6099 19.6572C90.3588 20.3299 89.9965 20.9184 89.5498 21.4509C89.1037 21.9556 88.5739 22.3758 87.9603 22.6561C87.3467 22.9364 86.7052 23.0766 85.9802 23.0766C85.283 23.0766 84.6694 22.9364 84.1116 22.6281C83.5536 22.3478 83.1075 21.9273 82.7449 21.395L82.6613 22.7682L80.0953 22.7963ZM85.506 20.5822C86.008 20.5822 86.4542 20.442 86.8726 20.1898C87.2631 19.9095 87.5697 19.5452 87.8209 19.0968C88.0441 18.6483 88.1557 18.1158 88.1557 17.5271C88.1557 16.9385 88.0441 16.4059 87.8209 15.9576C87.5979 15.5091 87.2631 15.1448 86.8726 14.8647C86.482 14.5842 86.008 14.4721 85.506 14.4721C85.004 14.4721 84.5578 14.6123 84.1394 14.8645C83.749 15.1448 83.4423 15.5091 83.1911 15.9574C82.9401 16.4059 82.8564 16.9385 82.8564 17.5271C82.8564 18.1158 82.9681 18.6483 83.1911 19.0967C83.4143 19.5452 83.7491 19.9095 84.1394 20.1896C84.5578 20.442 84.9762 20.5822 85.506 20.5822Z" fill="#FF385C"/>
</svg>
