<svg width="32" height="32" viewBox="0 0 32 32" fill="none" xmlns="http://www.w3.org/2000/svg">
<path d="M28.6098 21.8713C28.4848 21.5188 28.3386 21.1778 28.1996 20.8619C27.9856 20.3759 27.7615 19.889 27.5446 19.4183L27.5275 19.381C25.5937 15.1766 23.5183 10.9145 21.3588 6.7136L21.267 6.53515C21.0468 6.10625 20.8191 5.66266 20.5854 5.22682C20.3081 4.67518 19.9718 4.15551 19.5824 3.67703C19.1437 3.15178 18.5957 2.72946 17.9769 2.43978C17.3577 2.15002 16.6829 1.99991 15.9997 2C15.3166 2.00009 14.6417 2.15037 14.0226 2.44029C13.4039 2.73014 12.8561 3.1526 12.4175 3.67795C12.0285 4.1565 11.6924 4.67604 11.4151 5.22744C11.1795 5.66725 10.9495 6.11491 10.7272 6.54789L10.6421 6.7136C8.48248 10.9149 6.40705 15.1768 4.47341 19.3809L4.44517 19.442C4.23209 19.905 4.0118 20.3839 3.80137 20.8617C3.66223 21.1774 3.51638 21.5181 3.39116 21.8715C3.03261 22.8339 2.91833 23.8708 3.05864 24.8887C3.2076 25.9175 3.62198 26.8894 4.26063 27.7078C4.89986 28.5269 5.74102 29.1641 6.70087 29.5565C7.42624 29.8511 8.20163 30.0017 8.9841 30C9.22988 30 9.47555 29.9855 9.71971 29.957C10.7093 29.8304 11.6638 29.5071 12.5274 29.0058C13.66 28.367 14.7785 27.4308 16.0004 26.0929C17.2223 27.4308 18.3408 28.367 19.4735 29.0058C20.3371 29.5071 21.2916 29.8304 22.2812 29.957C22.5254 29.9855 22.771 29.9998 23.0169 30C23.7993 30.0017 24.5746 29.8511 25.3 29.5565C26.2598 29.1641 27.101 28.5268 27.7402 27.7077C28.3789 26.8894 28.7934 25.9175 28.9423 24.8887C29.0824 23.8707 28.9682 22.8338 28.6098 21.8713ZM16.0004 23.3298C14.4879 21.4047 13.5172 19.617 13.1766 18.1183C13.0371 17.5568 13.0041 16.9739 13.0795 16.4001C13.1389 15.9793 13.2929 15.5776 13.5296 15.2253C13.8211 14.846 14.1954 14.539 14.6237 14.3278C15.0522 14.1165 15.5233 14.0067 16.0007 14.0067C16.4781 14.0068 16.9491 14.1167 17.3776 14.328C17.8058 14.5392 18.18 14.8463 18.4714 15.2256C18.7081 15.5781 18.862 15.9798 18.9216 16.4006C18.9969 16.9746 18.9638 17.5577 18.8241 18.1194C18.483 19.618 17.5127 21.4051 16.0004 23.3298ZM27.1755 24.6353C27.0713 25.3546 26.7816 26.0341 26.3351 26.6064C25.8881 27.179 25.3 27.6246 24.6289 27.8991C23.9499 28.1723 23.2132 28.269 22.4871 28.1804C21.7325 28.0828 21.0051 27.8334 20.3487 27.4471C19.3406 26.8784 18.3201 26.0054 17.1719 24.7248C18.9999 22.4615 20.1414 20.3754 20.564 18.5174C20.7543 17.7361 20.7955 16.9257 20.6856 16.129C20.5859 15.4426 20.3321 14.7879 19.9435 14.2144C19.488 13.5951 18.894 13.092 18.2093 12.7454C17.5243 12.3987 16.7678 12.218 16.0006 12.2179C15.2334 12.2179 14.4769 12.3985 13.7919 12.7452C13.1072 13.0917 12.5132 13.5948 12.0577 14.214C11.6691 14.7873 11.4153 15.4419 11.3155 16.1281C11.2054 16.9244 11.2464 17.7345 11.4363 18.5155C11.8588 20.3744 13.0004 22.4609 14.8291 24.7249C13.6807 26.0054 12.6602 26.8784 11.6521 27.4472C10.9957 27.8335 10.2684 28.0828 9.51374 28.1804C8.7876 28.2691 8.0509 28.1723 7.37189 27.8991C6.70081 27.6246 6.11268 27.179 5.66565 26.6064C5.21927 26.0341 4.92963 25.3546 4.82542 24.6353C4.72538 23.9042 4.8105 23.1596 5.07293 22.4703C5.17276 22.1887 5.28946 21.9124 5.43408 21.5841C5.63873 21.1196 5.85587 20.6475 6.0659 20.191L6.09414 20.1297C8.01702 15.9491 10.081 11.7109 12.2288 7.53255L12.3143 7.36623C12.533 6.94019 12.7592 6.49976 12.9873 6.07422C13.2055 5.63553 13.4697 5.2214 13.7752 4.83881C14.0461 4.51024 14.386 4.24581 14.7705 4.06443C15.3503 3.79076 16.0043 3.71829 16.6296 3.85838C17.2549 3.99848 17.8162 4.34321 18.2252 4.83841C18.5309 5.22072 18.7951 5.63473 19.0133 6.07341C19.2393 6.49517 19.4634 6.93162 19.6802 7.35369L19.7721 7.53275C21.9198 11.7106 23.9837 15.9487 25.9068 20.1301L25.9241 20.1677C26.1378 20.6319 26.3588 21.1117 26.5668 21.5842C26.7116 21.913 26.8285 22.1895 26.928 22.4701C27.1903 23.1595 27.2754 23.9041 27.1755 24.6353Z" fill="#FF385C"/>
</svg>
