<svg width="174" height="32" viewBox="0 0 174 32" fill="none" xmlns="http://www.w3.org/2000/svg">
<path d="M16.1588 2.00139L16.3375 2.00505L14.4273 4.26871C10.8911 4.90953 7.83746 7.33032 6.63783 10.8846C4.85216 16.1726 7.84476 21.9666 13.3219 23.8254C18.7991 25.6843 24.6867 22.9043 26.472 17.6167C27.6508 14.1256 26.747 10.4142 24.4204 7.75975L24.3168 7.64357L24.1701 4.67218C28.9868 8.17753 31.1962 14.5384 29.1874 20.4879C26.7151 27.8098 18.7908 31.7356 11.4881 29.2572C4.18511 26.7785 0.268805 18.8337 2.74078 11.5121C4.73296 5.6126 10.2649 1.91783 16.1588 2.00139ZM65.2191 11.4256C67.0632 11.4256 68.5039 11.8701 69.5411 12.7591C70.5784 13.6479 71.097 15.0699 71.097 17.0251V25.0245C70.4761 25.2203 69.7224 25.407 68.8359 25.5848C67.9496 25.7623 66.948 25.8511 65.831 25.8511C64.9268 25.8511 64.0978 25.7712 63.3441 25.6114C62.5904 25.4516 61.9434 25.185 61.4031 24.8115C60.8696 24.4474 60.4388 23.9515 60.1523 23.3717C59.8601 22.7849 59.714 22.0649 59.714 21.2116C59.714 20.3583 59.8956 19.6428 60.2589 19.0651C60.6122 18.4973 61.0954 18.022 61.6684 17.6786C62.2448 17.3319 62.8876 17.083 63.5968 16.9319C64.2961 16.7818 65.0093 16.706 65.7244 16.7055C66.2386 16.7055 66.8061 16.7322 67.4268 16.7854V16.4652C67.4268 16.0389 67.3558 15.6922 67.2139 15.4252C67.0795 15.167 66.8772 14.9504 66.6289 14.7991C66.3803 14.6477 66.0745 14.5454 65.7115 14.4922C65.3105 14.436 64.9058 14.4092 64.5009 14.4123C63.5436 14.4123 62.5242 14.5989 61.4429 14.9722C61.1941 14.5097 61.0078 14.074 60.8841 13.6652C60.7601 13.2567 60.698 12.7678 60.6978 12.1985C61.4781 11.9322 62.2581 11.7369 63.038 11.6126C63.8183 11.4879 64.5453 11.4256 65.2191 11.4256ZM55.1493 7.36361C55.8791 7.36361 56.5801 7.4172 57.2523 7.52439L58.2318 25.6903C57.5022 25.7977 56.8108 25.8514 56.1576 25.8514C55.5109 25.8518 54.8653 25.798 54.2275 25.6906L53.7086 12.5564L49.5017 21.6343C49.233 21.6701 48.9544 21.7013 48.666 21.7279C48.3783 21.7545 48.0902 21.7678 47.8017 21.7678C47.5523 21.7681 47.3027 21.7592 47.053 21.7412C46.7916 21.7217 46.5317 21.6859 46.2747 21.634L42.3568 12.368L41.9533 25.6903C41.3386 25.7977 40.7431 25.8514 40.1667 25.8514C39.5522 25.8514 38.9183 25.7978 38.2651 25.6906L39.072 7.52473C39.8068 7.41983 40.548 7.36599 41.2903 7.36361C42.0396 7.36361 42.7791 7.4172 43.5089 7.52439L48.2633 17.4173L53.161 7.52439C53.7565 7.4172 54.4192 7.36361 55.1493 7.36361ZM98.5902 11.4256C99.5476 11.4256 100.399 11.5944 101.143 11.9322C101.888 12.27 102.522 12.7323 103.045 13.319C103.568 13.9054 103.963 14.603 104.229 15.4119C104.494 16.2209 104.627 17.0875 104.627 18.0118C104.627 18.3498 104.614 18.6833 104.587 19.0122C104.561 19.3406 104.53 19.6028 104.494 19.7988H95.6644C95.7354 20.8651 96.1078 21.6383 96.7816 22.1184C97.4555 22.5984 98.342 22.8384 99.4412 22.8384C100.044 22.8384 100.66 22.7805 101.29 22.6646C101.901 22.5541 102.502 22.3892 103.085 22.172C103.28 22.5273 103.449 22.9538 103.59 23.4516C103.732 23.9494 103.812 24.4827 103.829 25.0515C102.447 25.5848 100.886 25.8514 99.1484 25.8514C97.872 25.8514 96.7772 25.6737 95.8639 25.3181C94.9506 24.9626 94.206 24.4692 93.63 23.8381C93.0536 23.2074 92.628 22.4563 92.3533 21.5847C92.0786 20.7139 91.9414 19.7629 91.9416 18.7319C91.9414 17.7188 92.0831 16.7678 92.3666 15.879C92.65 14.9897 93.0711 14.2163 93.63 13.5587C94.1885 12.9009 94.88 12.381 95.7045 11.9988C96.5291 11.6166 97.4909 11.4256 98.5899 11.4256M143.777 11.4256C144.893 11.4256 145.868 11.6122 146.702 11.9855C147.535 12.3592 148.227 12.8703 148.777 13.5188C149.326 14.1679 149.734 14.9368 150 15.8254C150.266 16.7142 150.399 17.6652 150.399 18.6783C150.399 19.6918 150.266 20.634 150 21.5048C149.734 22.3761 149.326 23.136 148.777 23.7845C148.227 24.4336 147.535 24.9404 146.702 25.3048C145.869 25.669 144.894 25.8512 143.777 25.8514C142.659 25.8514 141.689 25.6692 140.865 25.3048C140.04 24.9406 139.357 24.4339 138.816 23.7845C138.276 23.136 137.868 22.3761 137.593 21.5048C137.318 20.6336 137.181 19.6915 137.181 18.6786C137.181 17.6651 137.318 16.714 137.593 15.8254C137.868 14.9366 138.276 14.1677 138.816 13.5188C139.357 12.8701 140.04 12.359 140.864 11.9855C141.689 11.6124 142.659 11.4258 143.776 11.4256M157.482 11.4256C158.173 11.4256 158.855 11.4878 159.529 11.6123C160.203 11.7366 160.886 11.9232 161.577 12.1722C161.537 12.6599 161.447 13.1422 161.311 13.612C161.169 14.1098 161.001 14.5454 160.806 14.9189C160.348 14.7306 159.876 14.5746 159.396 14.4522C158.882 14.319 158.341 14.2524 157.774 14.2521C157.171 14.2521 156.701 14.3455 156.364 14.5321C156.027 14.7185 155.859 15.0162 155.859 15.4252C155.859 15.8165 155.979 16.0921 156.218 16.2521C156.457 16.4122 156.799 16.5632 157.242 16.7052L158.758 17.1589C159.255 17.301 159.702 17.4742 160.101 17.6786C160.5 17.8832 160.841 18.1365 161.125 18.4386C161.409 18.7411 161.63 19.1144 161.79 19.5584C161.95 20.003 162.029 20.5451 162.029 21.1849C162.029 21.843 161.892 22.4563 161.617 23.0248C161.342 23.5941 160.943 24.0873 160.42 24.5045C159.897 24.9226 159.263 25.2515 158.519 25.4912C157.774 25.7314 156.932 25.8514 155.992 25.8514C155.566 25.8514 155.176 25.8381 154.822 25.8115C154.479 25.7861 154.137 25.7417 153.798 25.6783C153.471 25.6163 153.148 25.5407 152.827 25.4516C152.476 25.3519 152.13 25.2362 151.79 25.1047C151.825 24.6245 151.909 24.1401 152.042 23.6517C152.176 23.1625 152.349 22.6853 152.561 22.2249C153.146 22.4561 153.701 22.6295 154.224 22.7449C154.747 22.8605 155.292 22.9183 155.859 22.9183C156.107 22.9183 156.378 22.8961 156.67 22.8517C156.951 22.8108 157.224 22.7301 157.482 22.612C157.718 22.5046 157.931 22.3503 158.106 22.1583C158.275 21.9719 158.359 21.7274 158.359 21.425C158.359 20.9984 158.23 20.6917 157.974 20.5048C157.716 20.3182 157.357 20.1539 156.897 20.0118L155.247 19.5318C154.254 19.2473 153.479 18.8251 152.92 18.2651C152.362 17.7052 152.082 16.8652 152.082 15.7452C152.082 14.3945 152.566 13.3369 153.532 12.5724C154.498 11.8078 155.815 11.4256 157.482 11.4256ZM87.3164 7.71914V11.7455H90.5348C90.5879 12.012 90.6234 12.252 90.6411 12.4655C90.6588 12.679 90.6676 12.9013 90.6676 13.1323C90.6676 13.3808 90.6588 13.6208 90.6411 13.852C90.6194 14.1115 90.5839 14.3696 90.5348 14.6253H87.3164V20.0385C87.3164 20.5895 87.3609 21.0339 87.4499 21.3717C87.5385 21.709 87.6668 21.9758 87.8351 22.172C87.9993 22.3644 88.2169 22.5035 88.4603 22.5714C88.7086 22.6427 89.0012 22.6783 89.3378 22.6783C89.6041 22.6783 89.8658 22.6561 90.1228 22.6117C90.3797 22.5673 90.6058 22.5274 90.8008 22.4919C90.9247 22.8292 91.0133 23.1802 91.0664 23.5448C91.12 23.9094 91.1467 24.2339 91.1467 24.5182C91.1467 24.7137 91.1423 24.8783 91.1335 25.0119C91.1246 25.145 91.1113 25.2737 91.0936 25.398C90.2779 25.5938 89.4357 25.6914 88.5669 25.691C86.9532 25.691 85.7209 25.3135 84.87 24.5585C84.0187 23.8026 83.593 22.5714 83.593 20.865V14.6253H81.8645L81.7313 14.092L86.7052 7.71914H87.3164ZM77.3382 7.71914V11.7455H80.5563C80.6094 12.012 80.6449 12.252 80.6629 12.4655C80.6801 12.6788 80.6889 12.901 80.6891 13.1323C80.6891 13.3808 80.6803 13.6208 80.6629 13.852C80.6411 14.1115 80.6055 14.3696 80.5563 14.6253H77.3382V20.0385C77.3382 20.5895 77.3826 21.0339 77.4714 21.3717C77.5599 21.709 77.6883 21.9758 77.8565 22.172C78.0207 22.3644 78.2384 22.5035 78.4818 22.5714C78.7303 22.6427 79.0229 22.6783 79.3593 22.6783C79.6254 22.6783 79.887 22.6561 80.1442 22.6117C80.4014 22.5673 80.6274 22.5274 80.8222 22.4919C80.9472 22.8326 81.0365 23.1855 81.0885 23.5448C81.1417 23.9094 81.1682 24.2339 81.1682 24.5182C81.1682 24.7137 81.1638 24.8783 81.1549 25.0119C81.1461 25.145 81.1327 25.2737 81.1148 25.398C80.287 25.5949 79.439 25.6932 78.5883 25.691C76.9747 25.691 75.7424 25.3135 74.8915 24.5585C74.0404 23.8026 73.6148 22.5714 73.6148 20.865V14.6253H71.8859L71.7531 14.092L76.7266 7.71914H77.3382ZM113.144 11.5853C113.322 11.5853 113.526 11.5943 113.756 11.6123C113.986 11.6301 114.155 11.6567 114.261 11.6922C114.297 11.87 114.323 12.0744 114.341 12.3054C114.359 12.5364 114.368 12.7765 114.368 13.0258C114.368 13.3276 114.354 13.6564 114.328 14.0121C114.304 14.3529 114.255 14.6915 114.182 15.0251C113.987 14.9896 113.769 14.9718 113.53 14.9718H113.091C112.79 14.9718 112.453 15.0029 112.08 15.0651C111.708 15.1276 111.354 15.2923 111.016 15.5591C110.68 15.8254 110.4 16.2253 110.179 16.7588C109.957 17.2921 109.846 18.0388 109.846 18.9988V25.5585C109.527 25.6115 109.208 25.6469 108.889 25.6647C108.57 25.6824 108.26 25.6913 107.958 25.6913C107.656 25.6913 107.351 25.6824 107.04 25.6647C106.715 25.6451 106.391 25.6095 106.07 25.5581V11.7458C106.336 11.6925 106.588 11.6526 106.828 11.626C107.067 11.5993 107.329 11.586 107.613 11.586C107.879 11.586 108.14 11.6038 108.397 11.6393C108.654 11.6748 108.907 11.7192 109.155 11.7724C109.208 11.8614 109.257 11.9904 109.301 12.1592C109.345 12.3284 109.385 12.5061 109.421 12.6925C109.457 12.879 109.488 13.0657 109.514 13.2528L109.58 13.7192C109.971 13.1681 110.45 12.6749 111.016 12.2395C111.584 11.8036 112.293 11.5857 113.144 11.5857M131.537 11.4259C133.098 11.4259 134.246 11.8571 134.981 12.7195C135.717 13.5815 136.085 14.928 136.085 16.7591V25.5318C135.447 25.6384 134.817 25.6916 134.197 25.6916C133.576 25.6916 132.947 25.6384 132.309 25.5318V17.7455C132.309 16.7854 132.189 16.0479 131.949 15.5328C131.71 15.0168 131.227 14.7589 130.5 14.7591C130.198 14.7591 129.901 14.8035 129.609 14.8923C129.316 14.9811 129.05 15.1455 128.811 15.3856C128.572 15.6253 128.377 15.9632 128.226 16.3993C128.075 16.834 128 17.3993 128 18.092V25.5318C127.361 25.6384 126.732 25.6916 126.111 25.6916C125.491 25.6916 124.861 25.6384 124.223 25.5318V17.7455C124.223 16.7854 124.103 16.0479 123.864 15.5328C123.625 15.0168 123.141 14.7589 122.414 14.7591C122.113 14.7591 121.812 14.8035 121.51 14.8923C121.209 14.9811 120.939 15.1544 120.699 15.4123C120.46 15.6699 120.269 16.03 120.127 16.4925C119.985 16.9543 119.914 17.5586 119.914 18.3054V25.5318C119.276 25.6384 118.647 25.6916 118.026 25.6916C117.406 25.6916 116.776 25.6384 116.138 25.5318V11.7455C116.386 11.6922 116.634 11.6523 116.882 11.6256C117.131 11.599 117.406 11.5857 117.707 11.5857C117.974 11.5837 118.24 11.597 118.505 11.6256C118.735 11.6523 118.975 11.6922 119.223 11.7455C119.276 11.8345 119.325 11.9634 119.369 12.1323C119.413 12.3012 119.453 12.4789 119.489 12.6656C119.525 12.8522 119.556 13.0344 119.582 13.2122C119.608 13.3899 119.63 13.541 119.649 13.6652C119.79 13.3989 119.976 13.1323 120.207 12.8653C120.438 12.599 120.712 12.3591 121.032 12.1456C121.366 11.9248 121.728 11.75 122.109 11.6256C122.508 11.4925 122.955 11.4258 123.452 11.4256C125.597 11.4256 126.971 12.2434 127.574 13.879C127.928 13.2209 128.429 12.6476 129.077 12.1589C129.724 11.67 130.544 11.4256 131.537 11.4256M168.17 7.71914V11.7455H171.388C171.442 12.012 171.477 12.252 171.495 12.4655C171.513 12.6788 171.522 12.901 171.522 13.1323C171.522 13.3724 171.513 13.6125 171.495 13.852C171.473 14.1115 171.438 14.3696 171.389 14.6253H168.171V20.0385C168.171 20.5895 168.215 21.0339 168.303 21.3717C168.392 21.709 168.521 21.9758 168.689 22.172C168.853 22.3644 169.071 22.5035 169.314 22.5714C169.563 22.6427 169.855 22.6783 170.192 22.6783C170.457 22.6783 170.719 22.6561 170.977 22.6117C171.233 22.5673 171.459 22.5274 171.654 22.4919C171.779 22.8292 171.868 23.1802 171.92 23.5448C171.974 23.9094 172 24.2339 172 24.5182C172 24.7137 171.996 24.8783 171.987 25.0119C171.978 25.145 171.965 25.2737 171.947 25.398C171.132 25.5938 170.29 25.6914 169.42 25.691C167.807 25.691 166.575 25.3135 165.724 24.5585C164.873 23.8026 164.447 22.5714 164.447 20.865V14.6253H162.718L162.585 14.092L167.559 7.71914H168.17ZM143.777 14.3853C142.802 14.3853 142.097 14.7542 141.663 15.4922C141.228 16.2298 141.01 17.292 141.011 18.6786C141.011 20.0652 141.228 21.1273 141.663 21.865C142.097 22.6027 142.802 22.9716 143.777 22.9716C144.77 22.9716 145.484 22.6027 145.918 21.865C146.352 21.1273 146.569 20.0652 146.569 18.6786C146.569 17.292 146.352 16.2298 145.918 15.4922C145.484 14.7542 144.77 14.3853 143.777 14.3853ZM66.0701 19.0787C65.2015 19.0787 64.5144 19.2342 64.0088 19.5451C63.5035 19.8563 63.2508 20.3585 63.2508 21.0518C63.2508 21.5141 63.3484 21.8696 63.5437 22.1184C63.7387 22.3671 63.9735 22.5492 64.2482 22.6646C64.5278 22.7816 64.8239 22.8537 65.1258 22.8784C65.4366 22.905 65.707 22.9183 65.9369 22.9183C66.2032 22.9183 66.4692 22.8961 66.7348 22.8517C67.0009 22.8073 67.2315 22.7673 67.4268 22.7316V19.2119C67.2141 19.1764 66.9834 19.1453 66.7348 19.1187C66.4869 19.092 66.2653 19.0787 66.0701 19.0787ZM20.2541 3.29334C20.3188 3.31564 20.3713 3.35659 20.4092 3.40752L20.4301 3.43948L20.438 3.45213L20.4447 3.46678C20.4633 3.50206 20.4789 3.54201 20.4862 3.59161C20.4995 3.68183 20.5061 3.88522 20.5094 4.10094L20.5104 4.23143L20.5111 4.35993V4.59262C20.5108 4.71512 20.5098 4.80334 20.5098 4.82131V4.82464L20.5645 6.8959L20.6456 9.28606L20.7468 13.4405V13.4685C20.7458 13.7102 20.6957 15.4436 19.4685 16.6486C18.147 17.9469 16.5241 17.8277 15.4682 17.4695C14.4123 17.111 13.051 16.2169 12.7874 14.381C12.5291 12.58 13.6716 11.1103 13.7147 11.0554L13.7157 11.054L16.3132 7.81567L17.826 5.96646L19.1242 4.3546C19.1242 4.3546 19.7202 3.55433 19.8899 3.38921C19.9124 3.36769 19.9351 3.35027 19.9579 3.33695L19.9918 3.31864L20.0167 3.30599L20.021 3.30433C20.0946 3.27158 20.1778 3.26766 20.2541 3.29334ZM98.5371 14.3054C97.6504 14.3054 96.9765 14.5543 96.5157 15.0521C96.0548 15.5499 95.78 16.2521 95.6913 17.1589H101.064C101.028 16.3054 100.793 15.6165 100.359 15.0924C99.9243 14.5675 99.317 14.3051 98.5368 14.3051" fill="#0058CC"/>
</svg>
