<svg width="32" height="32" viewBox="0 0 32 32" fill="none" xmlns="http://www.w3.org/2000/svg">
<path d="M2.74324 11.5119C4.76056 5.55279 10.3986 1.84342 16.3747 2.00508L14.4594 4.2685C10.9141 4.90945 7.85281 7.33048 6.64968 10.8847C4.85965 16.1726 7.86003 21.9663 13.3513 23.8255C18.8427 25.6842 24.7454 22.9044 26.5354 17.6166C27.7347 14.0743 26.7837 10.3052 24.3746 7.64373L24.2274 4.6721C29.0567 8.17738 31.2718 14.5384 29.2576 20.4879C26.779 27.8096 18.8344 31.7357 11.5126 29.2572C4.19104 26.7785 0.264802 18.8338 2.74324 11.512M20.0676 3.30435C20.1415 3.27177 20.2248 3.26794 20.3013 3.29364C20.3759 3.31923 20.4387 3.37109 20.4779 3.43954L20.4857 3.45223L20.4927 3.46689C20.5111 3.502 20.5268 3.54236 20.5341 3.59168C20.5485 3.68903 20.5551 3.91817 20.5577 4.15278L20.5583 4.21677C20.5589 4.29147 20.5592 4.36552 20.5594 4.43486V4.49305C20.5591 4.68282 20.5575 4.82501 20.5575 4.82501L20.6125 6.89582L20.6939 9.28623L20.7953 13.4403V13.4494L20.7954 13.4543V13.4676C20.7946 13.7049 20.7459 15.4417 19.5138 16.6488C18.1891 17.9466 16.5618 17.8278 15.5031 17.4695C14.4443 17.111 13.0795 16.2168 12.8155 14.3811C12.591 12.8207 13.4207 11.5092 13.6745 11.1509L13.6915 11.1271C13.726 11.0792 13.7462 11.0541 13.7462 11.0541L16.3502 7.81589L17.867 5.96635L19.1685 4.3548C19.1685 4.3548 19.3599 4.09831 19.5569 3.84587L19.5963 3.79556C19.658 3.71673 19.7206 3.63867 19.7842 3.56139L19.8176 3.52136C19.8661 3.46372 19.9073 3.41723 19.9362 3.38923C19.9699 3.35642 20.0046 3.3352 20.0385 3.31868L20.0633 3.306L20.0676 3.30435Z" fill="#0058CC"/>
</svg>
