<svg width="174" height="32" viewBox="0 0 174 32" fill="none" xmlns="http://www.w3.org/2000/svg">
<path d="M37.1335 19.6696L39.0453 18.1738C39.6048 19.1321 40.4908 19.6696 41.4933 19.6696C42.4958 19.6696 43.1952 18.9684 43.1952 18.1738C43.1952 17.3791 42.0528 16.9117 40.8871 16.5611C39.395 16.117 37.7397 15.5093 37.7397 13.3357C37.7397 11.1621 39.3017 10.1104 41.4466 10.1104C43.5915 10.1104 44.2909 10.8115 45.2002 11.723L43.4983 13.0319C43.0553 12.3307 42.3559 11.9801 41.4933 11.9801C40.6306 11.9801 39.9312 12.5411 39.9312 13.2422C39.9312 13.9434 40.9803 14.4576 42.2393 14.8082C43.7314 15.299 45.5032 15.9534 45.5032 18.127C45.5032 20.3007 44.1044 21.5861 41.6564 21.5861C39.4416 21.6796 38.136 20.8149 37.1335 19.6696Z" fill="black"/>
<path d="M46.2032 17.0052C46.2032 14.0369 48.3481 12.3307 50.6561 12.3307C52.9642 12.3307 52.9176 12.8216 53.5004 13.5929V12.5411H55.5521V21.5394H53.5004V20.3942C52.8477 21.259 51.7519 21.7498 50.5862 21.7498C48.4413 21.7264 46.2032 19.9735 46.2032 17.0052ZM53.6637 17.0052C53.6637 15.5094 52.5213 14.2473 50.9592 14.2473C49.3972 14.2473 48.2548 15.4626 48.2548 17.0052C48.2548 18.5478 49.4671 19.8099 50.9592 19.8099C52.498 19.8099 53.6637 18.5712 53.6637 17.0052Z" fill="black"/>
<path d="M56.8547 12.5411H58.9064V13.5928C59.4659 12.8449 60.3518 12.3774 61.4709 12.3774C62.59 12.3774 63.8256 12.9851 64.3851 13.9434C64.9913 12.9851 66.0404 12.3774 67.346 12.3774C69.7473 12.3774 71.0063 13.8265 71.0063 16.1404V21.5628H68.908V16.2572C68.908 14.9484 68.2553 14.107 66.9497 14.107C65.6441 14.107 64.9913 14.9016 64.9913 16.4676V21.4926H62.893V16.2105C62.893 14.9484 62.2403 14.1537 60.9813 14.1537C59.7224 14.1537 58.9763 14.9484 58.9763 16.5611V21.5394H56.9247V12.5411C56.9247 12.5411 56.9247 12.5411 56.8547 12.5411Z" fill="black"/>
<path d="M71.5437 19.506L73.4554 18.5945C73.8984 19.4593 74.6678 19.9034 75.6003 19.9034C76.5562 19.9034 77.1624 19.4125 77.1624 18.8049C77.1624 18.1972 76.1599 18.0102 75.0641 17.7999C73.5021 17.496 71.9167 16.9351 71.9167 15.0887C71.9167 13.2423 73.3156 12.3307 75.4138 12.3307C77.5121 12.3307 78.3747 13.0319 79.0741 14.2005L77.3256 15.1121C76.9759 14.4576 76.2764 14.107 75.4138 14.107C74.5512 14.107 73.9683 14.5511 73.9683 15.0653C73.9683 15.5795 74.6678 15.8132 76.02 16.1171C77.4654 16.4209 79.1674 16.9117 79.1674 18.8282C79.1674 20.7448 78.0716 21.7965 75.5071 21.7498C73.5487 21.7264 72.2431 20.9317 71.5437 19.506Z" fill="black"/>
<path d="M88.0733 21.5159H86.0217V20.5109C85.4622 21.2588 84.5762 21.7263 83.4572 21.7263C81.3589 21.7263 80.0067 20.2772 80.0067 17.9166V12.541H82.105V17.6595C82.105 19.0618 82.7111 19.9266 84.0167 19.9266C85.3223 19.9266 86.0217 19.0618 86.0217 17.4725V12.541H88.0733V21.5159Z" fill="black"/>
<path d="M89.3336 12.5411H91.3852V13.6396C91.9913 12.8449 92.9472 12.3307 94.0896 12.3307C96.3044 12.3307 97.6566 13.7798 97.6566 16.1404V21.4693H95.5584V16.3975C95.5584 14.9952 94.9056 14.1304 93.5534 14.1304C92.2012 14.1304 91.4551 14.9952 91.4551 16.5845V21.5161H89.4035V12.5177C89.3802 12.5411 89.3336 12.5411 89.3336 12.5411Z" fill="black"/>
<path d="M105.864 20.324C105.212 21.1888 104.116 21.7264 102.95 21.7264C100.805 21.7264 98.5439 19.9734 98.5439 17.0519C98.5439 14.1304 100.689 12.3774 102.997 12.3774C105.305 12.3774 105.258 12.8683 105.841 13.733V12.5878H107.893V21.329C107.893 23.8299 106.284 25.91 103.277 25.91C100.269 25.91 99.5231 24.8582 98.6605 23.339L100.526 22.2406C101.178 23.4559 101.878 24.0402 103.323 24.0402C104.769 24.0402 105.888 22.8249 105.888 21.4225V20.324H105.864ZM105.958 17.0052C105.958 15.5093 104.815 14.2472 103.253 14.2472C101.691 14.2472 100.549 15.4626 100.549 17.0052C100.549 18.5477 101.761 19.8098 103.253 19.8098C104.745 19.8098 105.958 18.5711 105.958 17.0052Z" fill="black"/>
<path d="M113.019 10.2738H115.118V21.4691H113.019V10.2738Z" fill="black"/>
<path d="M116.47 12.5411H118.521V13.6396C119.127 12.8449 120.083 12.3307 121.226 12.3307C123.44 12.3307 124.793 13.7798 124.793 16.1404V21.4693H122.694V16.3975C122.694 14.9952 122.042 14.1304 120.689 14.1304C119.337 14.1304 118.591 14.9952 118.591 16.5845V21.5161H116.539V12.5177C116.539 12.5411 116.47 12.5411 116.47 12.5411Z" fill="black"/>
<path d="M125.262 12.541H126.824V11.1854L128.922 9.78308V12.5878H130.717V14.4575H128.922V17.8232C128.922 19.3891 129.132 19.6228 130.717 19.6228V21.5861H130.414C127.663 21.5861 126.8 20.6746 126.8 17.8232V14.4575H125.238V12.541H125.262Z" fill="black"/>
<path d="M131.11 17.0519C131.11 14.4343 133.162 12.3307 135.773 12.3307C138.384 12.3307 140.389 14.294 140.389 16.9585V17.7531H133.068C133.325 19.0152 134.374 19.8566 135.819 19.8566C137.265 19.8566 137.871 19.2022 138.314 18.2439L140.016 19.2489C139.223 20.698 137.801 21.6563 135.866 21.6563C133.022 21.6797 131.11 19.6229 131.11 17.0519ZM133.162 16.0002H138.267C137.964 14.7848 137.055 14.1304 135.773 14.1304C134.467 14.1304 133.558 14.9017 133.162 16.0002Z" fill="black"/>
<path d="M141.276 12.541H143.328V13.8965C143.724 12.985 144.47 12.541 145.636 12.541C146.802 12.541 146.848 12.6812 147.198 12.9383L146.405 14.9016C146.102 14.6912 145.753 14.551 145.146 14.551C143.934 14.551 143.281 15.2054 143.281 16.7713V21.5393H141.276C141.276 21.5159 141.276 12.541 141.276 12.541Z" fill="black"/>
<path d="M147.9 12.5411H149.952V13.6396C150.558 12.8449 151.514 12.3307 152.656 12.3307C154.871 12.3307 156.223 13.7798 156.223 16.1404V21.4693H154.125V16.3975C154.125 14.9952 153.472 14.1304 152.12 14.1304C150.768 14.1304 150.022 14.9952 150.022 16.5845V21.5161H147.97V12.5177L147.9 12.5411Z" fill="black"/>
<path d="M157.062 17.0519C157.062 14.4343 159.114 12.3307 161.725 12.3307C164.336 12.3307 166.341 14.294 166.341 16.9585V17.7531H159.02C159.277 19.0152 160.326 19.8566 161.771 19.8566C163.217 19.8566 163.823 19.2022 164.266 18.2439L165.968 19.2489C165.175 20.698 163.753 21.6563 161.818 21.6563C158.974 21.6797 157.062 19.6229 157.062 17.0519ZM159.16 16.0002H164.266C163.963 14.7848 163.054 14.1304 161.771 14.1304C160.466 14.1304 159.51 14.9017 159.16 16.0002Z" fill="black"/>
<path d="M166.524 12.541H168.086V11.1854L170.184 9.78308V12.5878H171.979V14.4575H170.184V17.8232C170.184 19.3891 170.394 19.6228 171.979 19.6228V21.5861H171.676C168.925 21.5861 168.062 20.6746 168.062 17.8232V14.4575H166.5V12.541H166.524Z" fill="black"/>
<path fill-rule="evenodd" clip-rule="evenodd" d="M26.6661 5.10852C24.1016 2.49082 20.2548 2 15.9417 2C11.6287 2 7.82849 2.49082 5.21732 5.10852C3.21233 7.16528 2 10.5309 2 16C2 21.4691 3.25895 24.8347 5.26395 26.8915C7.82849 29.5092 11.6753 30 15.9884 30C20.3014 30 24.1016 29.5092 26.7128 26.8915C28.7644 24.8347 29.9767 21.4691 29.9767 16C29.9767 10.5309 28.7178 7.16528 26.7128 5.10852H26.6661Z" fill="url(#paint0_linear_128_2554)"/>
<path d="M15.9389 24.2269C20.4712 24.2269 24.1454 20.5435 24.1454 15.9999C24.1454 11.4562 20.4712 7.77283 15.9389 7.77283C11.4065 7.77283 7.73236 11.4562 7.73236 15.9999C7.73236 20.5435 11.4065 24.2269 15.9389 24.2269Z" fill="white"/>
<path fill-rule="evenodd" clip-rule="evenodd" d="M18.6878 18.7578C13.8851 23.5725 8.70942 26.2837 7.1707 24.7411C5.63198 23.1985 8.31309 18.0566 13.1391 13.1952C17.9651 8.33377 23.1174 5.66933 24.6562 7.2119C26.1949 8.77784 23.4905 13.8964 18.6878 18.7578ZM18.1982 18.267C21.8119 14.6443 24.0034 11.045 23.2107 10.1802C22.418 9.31541 18.7577 11.5825 15.1441 15.2052C11.5304 18.8279 9.3389 22.4273 10.1316 23.292C10.9242 24.1334 14.5845 21.8663 18.1982 18.267Z" fill="url(#paint1_linear_128_2554)"/>
<path fill-rule="evenodd" clip-rule="evenodd" d="M18.6878 18.7578C13.8851 23.5725 8.70942 26.2837 7.1707 24.7411C5.63198 23.1985 8.31309 18.0566 13.1391 13.1952C17.9651 8.33377 23.1174 5.66933 24.6562 7.2119C26.1949 8.77784 23.4905 13.8964 18.6878 18.7578ZM18.1982 18.267C21.8119 14.6443 24.0034 11.045 23.2107 10.1802C22.418 9.31541 18.7577 11.5825 15.1441 15.2052C11.5304 18.8279 9.3389 22.4273 10.1316 23.292C10.9242 24.1334 14.5845 21.8663 18.1982 18.267Z" fill="url(#paint2_linear_128_2554)"/>
<path fill-rule="evenodd" clip-rule="evenodd" d="M10.1344 21.8195C13.3517 25.0449 18.5507 25.0449 21.8147 21.8195C25.032 18.5941 25.032 13.3821 21.8147 10.11C19.0403 10.8345 11.2302 18.6642 10.1344 21.8195Z" fill="white"/>
<defs>
<linearGradient id="paint0_linear_128_2554" x1="15.9902" y1="-1.63004" x2="15.9902" y2="27.3007" gradientUnits="userSpaceOnUse">
<stop stop-color="#7043EF"/>
<stop offset="1" stop-color="#3E14D8"/>
</linearGradient>
<linearGradient id="paint1_linear_128_2554" x1="10.778" y1="21.1172" x2="28.8627" y2="3.07775" gradientUnits="userSpaceOnUse">
<stop stop-color="#8E99FF"/>
<stop offset="1" stop-color="#72E3E3"/>
</linearGradient>
<linearGradient id="paint2_linear_128_2554" x1="10.778" y1="21.1172" x2="28.8627" y2="3.07775" gradientUnits="userSpaceOnUse">
<stop stop-color="#8E99FF"/>
<stop offset="1" stop-color="#40EFEF"/>
</linearGradient>
</defs>
</svg>
