<svg width="32" height="32" viewBox="0 0 32 32" fill="none" xmlns="http://www.w3.org/2000/svg">
<path fill-rule="evenodd" clip-rule="evenodd" d="M26.6645 5.10852C24.1 2.49082 20.2532 2 15.9401 2C11.627 2 7.82684 2.49082 5.21568 5.10852C3.21068 7.16528 1.99835 10.5309 1.99835 16C1.99835 21.4691 3.2573 24.8347 5.2623 26.8915C7.82684 29.5092 11.6736 30 15.9867 30C20.2998 30 24.1 29.5092 26.7111 26.8915C28.7628 24.8347 29.9751 21.4691 29.9751 16C29.9751 10.5309 28.7161 7.16528 26.7111 5.10852H26.6645Z" fill="url(#paint0_linear_128_2718)"/>
<path d="M15.9372 24.2269C20.4695 24.2269 24.1437 20.5435 24.1437 15.9999C24.1437 11.4562 20.4695 7.77283 15.9372 7.77283C11.4049 7.77283 7.73071 11.4562 7.73071 15.9999C7.73071 20.5435 11.4049 24.2269 15.9372 24.2269Z" fill="white"/>
<path fill-rule="evenodd" clip-rule="evenodd" d="M18.6861 18.7578C13.8835 23.5725 8.70778 26.2837 7.16906 24.7411C5.63034 23.1985 8.31144 18.0566 13.1374 13.1952C17.9634 8.33377 23.1158 5.66933 24.6545 7.2119C26.1932 8.77784 23.4888 13.8964 18.6861 18.7578ZM18.1965 18.267C21.8102 14.6443 24.0017 11.045 23.209 10.1802C22.4164 9.31541 18.7561 11.5825 15.1424 15.2052C11.5288 18.8279 9.33725 22.4273 10.1299 23.292C10.9226 24.1334 14.5829 21.8663 18.1965 18.267Z" fill="url(#paint1_linear_128_2718)"/>
<path fill-rule="evenodd" clip-rule="evenodd" d="M18.6861 18.7578C13.8835 23.5725 8.70778 26.2837 7.16906 24.7411C5.63034 23.1985 8.31144 18.0566 13.1374 13.1952C17.9634 8.33377 23.1158 5.66933 24.6545 7.2119C26.1932 8.77784 23.4888 13.8964 18.6861 18.7578ZM18.1965 18.267C21.8102 14.6443 24.0017 11.045 23.209 10.1802C22.4164 9.31541 18.7561 11.5825 15.1424 15.2052C11.5288 18.8279 9.33725 22.4273 10.1299 23.292C10.9226 24.1334 14.5829 21.8663 18.1965 18.267Z" fill="url(#paint2_linear_128_2718)"/>
<path fill-rule="evenodd" clip-rule="evenodd" d="M10.1328 21.8195C13.3501 25.0449 18.5491 25.0449 21.813 21.8195C25.0304 18.5941 25.0304 13.3821 21.813 10.11C19.0387 10.8345 11.2285 18.6642 10.1328 21.8195Z" fill="white"/>
<defs>
<linearGradient id="paint0_linear_128_2718" x1="15.9886" y1="-1.63004" x2="15.9886" y2="27.3007" gradientUnits="userSpaceOnUse">
<stop stop-color="#7043EF"/>
<stop offset="1" stop-color="#3E14D8"/>
</linearGradient>
<linearGradient id="paint1_linear_128_2718" x1="10.7764" y1="21.1172" x2="28.861" y2="3.07775" gradientUnits="userSpaceOnUse">
<stop stop-color="#8E99FF"/>
<stop offset="1" stop-color="#72E3E3"/>
</linearGradient>
<linearGradient id="paint2_linear_128_2718" x1="10.7764" y1="21.1172" x2="28.861" y2="3.07775" gradientUnits="userSpaceOnUse">
<stop stop-color="#8E99FF"/>
<stop offset="1" stop-color="#40EFEF"/>
</linearGradient>
</defs>
</svg>
