<svg width="32" height="32" viewBox="0 0 32 32" fill="none" xmlns="http://www.w3.org/2000/svg">
<path d="M29.9142 27.7599C29.9142 28.9967 28.9149 30 27.6811 30H4.23365C2.99982 30 2 28.9967 2 27.7599V4.23992C2 3.0029 3.00002 2 4.23365 2H27.6811C28.9149 2 29.9142 3.0029 29.9142 4.23992V27.7599Z" fill="#FAE100"/>
<path d="M20.4956 8.79743H11.4234C11.289 8.79743 11.1797 8.90711 11.1797 9.04232V18.146C11.1797 18.2816 11.2884 18.3911 11.4234 18.3911L15.3249 18.3925C14.9273 20.2447 13.8032 21.9741 12.2775 23.062C12.2486 23.0827 12.2245 23.1095 12.207 23.1405C12.1894 23.1715 12.1787 23.2059 12.1757 23.2414C12.1698 23.3134 12.1956 23.3844 12.2473 23.4357L14.8843 26.0617C14.9247 26.1013 14.9774 26.1259 15.0336 26.1312C15.0899 26.1366 15.1462 26.1224 15.1933 26.091C18.6661 23.7536 20.7398 19.863 20.7398 15.6825V9.04232C20.7398 8.90711 20.6304 8.79743 20.4956 8.79743Z" fill="#FAE100"/>
<path d="M20.4956 8.72608H11.4234C11.289 8.72608 11.1797 8.83575 11.1797 8.97116V18.0748C11.1796 18.1398 11.2053 18.2021 11.251 18.2481C11.2966 18.2941 11.3587 18.3201 11.4234 18.3203L15.3249 18.3213C14.9273 20.174 13.8032 21.903 12.2775 22.9908C12.2486 23.0116 12.2244 23.0385 12.2069 23.0696C12.1893 23.1007 12.1787 23.1353 12.1757 23.1709C12.1698 23.2427 12.1956 23.3137 12.2473 23.3645L14.8843 25.9905C14.9303 26.0361 14.9923 26.0617 15.0569 26.0615C15.1038 26.0615 15.1514 26.048 15.1933 26.0204C18.6661 23.6828 20.7398 19.7919 20.7398 15.612V8.97116C20.7398 8.83595 20.6304 8.72608 20.4956 8.72608Z" fill="#FAE000"/>
<path d="M20.4956 8.65547H11.4234C11.289 8.65547 11.1797 8.76515 11.1797 8.90056V18.0042C11.1797 18.1396 11.2884 18.2491 11.4234 18.2491L15.3249 18.2505C14.9273 20.1031 13.8032 21.8321 12.2775 22.92C12.2486 22.9408 12.2245 22.9676 12.2069 22.9986C12.1893 23.0296 12.1787 23.0641 12.1757 23.0997C12.1698 23.1721 12.1956 23.2431 12.2473 23.2939L14.8843 25.9197C14.9303 25.9653 14.9923 25.9909 15.0569 25.9907C15.1038 25.9907 15.1514 25.9772 15.1933 25.9496C18.6661 23.6122 20.7398 19.7211 20.7398 15.5411V8.90036C20.7398 8.76515 20.6304 8.65547 20.4956 8.65547Z" fill="#F9DF01"/>
<path d="M20.4956 8.58495H11.4234C11.289 8.58495 11.1797 8.69463 11.1797 8.82984V17.9335C11.1797 18.0691 11.2884 18.1788 11.4234 18.1788L15.3249 18.18C14.9273 20.0326 13.8032 21.7616 12.2775 22.8495C12.2486 22.8702 12.2245 22.897 12.207 22.928C12.1894 22.959 12.1787 22.9934 12.1757 23.029C12.1698 23.1016 12.1956 23.1725 12.2473 23.2232L14.8843 25.8492C14.9245 25.8892 14.9772 25.914 15.0336 25.9193C15.0899 25.9247 15.1464 25.9102 15.1933 25.8785C18.6661 23.5415 20.7398 19.6505 20.7398 15.4706V8.82984C20.7398 8.69463 20.6304 8.58495 20.4956 8.58495Z" fill="#F9DE01"/>
<path d="M20.4956 8.51464H11.4234C11.289 8.51464 11.1797 8.62432 11.1797 8.75953V17.8632C11.1797 17.9988 11.2884 18.1085 11.4234 18.1085L15.3249 18.1097C14.9273 19.9623 13.8032 21.6913 12.2775 22.7792C12.2486 22.7999 12.2245 22.8267 12.207 22.8577C12.1894 22.8887 12.1787 22.9231 12.1757 22.9587C12.1698 23.0306 12.1956 23.1022 12.2473 23.1529L14.8843 25.7789C14.9245 25.8189 14.9772 25.8437 15.0336 25.849C15.0899 25.8544 15.1464 25.8399 15.1933 25.8082C18.6661 23.4712 20.7398 19.5802 20.7398 15.4003V8.75953C20.7398 8.62432 20.6304 8.51464 20.4956 8.51464Z" fill="#F8DD02"/>
<path d="M20.4956 8.44383H11.4234C11.289 8.44383 11.1797 8.55351 11.1797 8.68872V17.7924C11.1797 17.9278 11.2884 18.0375 11.4234 18.0375L15.3249 18.0389C14.9273 19.8915 13.8032 21.6205 12.2775 22.7084C12.2486 22.7291 12.2245 22.7559 12.207 22.7869C12.1894 22.8179 12.1787 22.8523 12.1757 22.8878C12.1698 22.9598 12.1956 23.0312 12.2473 23.0821L14.8843 25.7081C14.9245 25.7481 14.9772 25.7729 15.0336 25.7782C15.0899 25.7836 15.1464 25.7691 15.1933 25.7374C18.6661 23.4 20.7398 19.5094 20.7398 15.3295V8.68872C20.7398 8.55331 20.6304 8.44363 20.4956 8.44363" fill="#F8DC02"/>
<path d="M20.4956 8.37299H11.4234C11.289 8.37299 11.1797 8.48268 11.1797 8.61808V17.7218C11.1797 17.8572 11.2884 17.9668 11.4234 17.9668L15.3249 17.9682C14.9273 19.8209 13.8032 21.5499 12.2775 22.6375C12.2486 22.6583 12.2245 22.6851 12.2069 22.7161C12.1893 22.7472 12.1787 22.7817 12.1757 22.8172C12.1698 22.889 12.1956 22.9606 12.2473 23.0114L14.8843 25.6373C14.9247 25.6769 14.9774 25.7015 15.0336 25.7069C15.0899 25.7123 15.1462 25.6981 15.1933 25.6668C18.6661 23.3291 20.7398 19.4388 20.7398 15.2583V8.61808C20.7398 8.48268 20.6304 8.37299 20.4956 8.37299Z" fill="#F7DC03"/>
<path d="M20.4956 8.30269H11.4234C11.289 8.30269 11.1797 8.41236 11.1797 8.54777V17.6514C11.1797 17.7868 11.2884 17.8963 11.4234 17.8963L15.3249 17.8977C14.9273 19.7504 13.8032 21.4794 12.2775 22.5672C12.2486 22.588 12.2245 22.6148 12.2069 22.6458C12.1893 22.6769 12.1787 22.7113 12.1757 22.7469C12.1698 22.8187 12.1956 22.8903 12.2473 22.9411L14.8843 25.5669C14.9247 25.6066 14.9774 25.6312 15.0336 25.6366C15.0899 25.642 15.1462 25.6278 15.1933 25.5965C18.6661 23.2588 20.7398 19.3685 20.7398 15.188V8.54777C20.7398 8.41236 20.6304 8.30269 20.4956 8.30269Z" fill="#F7DB03"/>
<path d="M20.4956 8.23151H11.4234C11.289 8.23151 11.1797 8.34119 11.1797 8.4764V17.5801C11.1797 17.7157 11.2884 17.8254 11.4234 17.8254L15.3249 17.8265C14.9273 19.6788 13.8032 21.4082 12.2775 22.496C12.2486 22.5168 12.2245 22.5436 12.2069 22.5747C12.1893 22.6057 12.1787 22.6402 12.1757 22.6757C12.1698 22.7475 12.1956 22.8185 12.2473 22.8698L14.8843 25.4958C14.9247 25.5354 14.9774 25.56 15.0336 25.5653C15.0899 25.5706 15.1462 25.5564 15.1933 25.5251C18.6661 23.1876 20.7398 19.2971 20.7398 15.1166V8.4764C20.7398 8.34119 20.6304 8.23151 20.4956 8.23151Z" fill="#F6DA04"/>
<path d="M20.4956 8.1612H11.4234C11.289 8.1612 11.1797 8.27088 11.1797 8.40609V17.5098C11.1797 17.6452 11.2884 17.7548 11.4234 17.7548L15.3249 17.7562C14.9273 19.6085 13.8032 21.3379 12.2775 22.4257C12.2486 22.4465 12.2245 22.4733 12.207 22.5043C12.1894 22.5352 12.1787 22.5697 12.1757 22.6052C12.1698 22.6772 12.1956 22.7482 12.2473 22.7994L14.8843 25.4255C14.9247 25.4651 14.9774 25.4897 15.0336 25.495C15.0899 25.5003 15.1462 25.4861 15.1933 25.4548C18.6661 23.1173 20.7398 19.2268 20.7398 15.0463V8.40609C20.7398 8.27068 20.6304 8.1612 20.4956 8.1612Z" fill="#F6D904"/>
<path d="M20.4956 8.09031H11.4234C11.289 8.09031 11.1797 8.2 11.1797 8.33521V17.4389C11.1796 17.5038 11.2053 17.5661 11.251 17.6122C11.2966 17.6582 11.3587 17.6842 11.4234 17.6844L15.3249 17.6854C14.9273 19.538 13.8032 21.267 12.2775 22.3549C12.2486 22.3757 12.2244 22.4026 12.2069 22.4337C12.1893 22.4648 12.1787 22.4993 12.1757 22.5349C12.1698 22.6067 12.1956 22.6777 12.2473 22.7286L14.8843 25.3546C14.9245 25.3946 14.9772 25.4193 15.0336 25.4247C15.0899 25.43 15.1464 25.4156 15.1933 25.3839C18.6661 23.0469 20.7398 19.1559 20.7398 14.976V8.33521C20.7398 8.2 20.6304 8.09031 20.4956 8.09031Z" fill="#F5D805"/>
<path d="M20.4956 8.01989H11.4234C11.289 8.01989 11.1797 8.12957 11.1797 8.26498V17.3686C11.1797 17.5039 11.2884 17.6135 11.4234 17.6135L15.3249 17.6149C14.9273 19.4676 13.8032 21.1966 12.2775 22.2844C12.2486 22.3052 12.2244 22.3321 12.2069 22.3632C12.1893 22.3943 12.1787 22.4289 12.1757 22.4645C12.1698 22.5363 12.1956 22.6075 12.2473 22.6583L14.8843 25.2841C14.9245 25.3242 14.9772 25.349 15.0335 25.3544C15.0899 25.3597 15.1464 25.3454 15.1933 25.3137C18.6661 22.9764 20.7398 19.0855 20.7398 14.9056V8.26478C20.7398 8.12957 20.6304 8.01989 20.4956 8.01989Z" fill="#F5D705"/>
<path d="M20.4932 8.16007H11.421C11.3933 8.16013 11.3667 8.17119 11.3471 8.19085C11.3275 8.21051 11.3165 8.23716 11.3164 8.26496V17.3686C11.3164 17.4265 11.3633 17.4737 11.421 17.4737L15.4933 17.4751C15.1219 19.4249 13.956 21.258 12.356 22.3989C12.3435 22.4076 12.3331 22.419 12.3255 22.4323C12.3179 22.4455 12.3133 22.4603 12.312 22.4755C12.3108 22.4907 12.3128 22.506 12.3181 22.5203C12.3233 22.5347 12.3317 22.5477 12.3425 22.5584L14.9805 25.1844C14.9902 25.1943 15.0017 25.2021 15.0144 25.2074C15.0271 25.2127 15.0407 25.2154 15.0545 25.2153C15.0753 25.2151 15.0957 25.2089 15.1131 25.1974C18.547 22.8861 20.5983 19.039 20.5983 14.9058V8.26496C20.5983 8.20713 20.5514 8.16007 20.4932 8.16007Z" fill="#CDAA14"/>
<path d="M20.4941 14.9054V8.26519H11.4219V17.3685L15.6192 17.3699C15.2192 19.6871 13.8368 21.4718 12.4179 22.4845L15.0554 25.1099C18.3348 22.903 20.4941 19.1641 20.4941 14.9054Z" fill="white"/>
</svg>
