<svg width="149" height="32" viewBox="0 0 149 32" fill="none" xmlns="http://www.w3.org/2000/svg">
<path d="M11.1627 29.5685H5.71266V15.9791H2V11.5547H5.71252V8.40639C5.71252 4.67566 7.35457 2 12.7899 2C13.9394 2 15.7442 2.23176 15.7442 2.23176V6.34008H13.8486C11.9171 6.34008 11.163 6.92772 11.163 8.55236V11.5547H15.6719L15.2704 15.9791H11.1628L11.1627 29.5685ZM23.6679 11.2011C23.5885 11.2011 23.5068 11.204 23.426 11.206C18.3724 11.206 16.0602 15.0082 16.0602 20.4055C16.0602 27.2047 19.0594 29.9259 23.4654 29.9259C25.9863 29.9259 27.6425 28.8646 28.6492 26.8841V29.5703H33.833V11.5566H28.6492V14.3268C27.8272 12.5445 26.1247 11.2222 23.6679 11.2011ZM24.986 15.4577C27.1085 15.4577 28.3825 16.9385 28.3825 19.4574L28.3874 22.03C28.3874 23.7277 27.3352 25.7139 24.986 25.7139C21.3744 25.7139 21.4709 21.8133 21.4709 20.5142C21.4709 16.1442 23.3952 15.4577 24.986 15.4577ZM35.9264 20.5644C35.9264 18.3754 35.8217 11.2128 45.1513 11.2128C48.8964 11.2128 50.4602 12.4039 50.4602 12.4039L49.2033 16.3032C49.2033 16.3032 47.6415 15.443 45.6065 15.443C43 15.443 41.3368 16.9543 41.3368 19.6135L41.3397 21.5202C41.3397 24.0754 42.9445 25.781 45.6118 25.781C47.4658 25.781 49.1745 24.9127 49.1745 24.9127L50.4282 28.7305C50.4282 28.7305 48.9984 29.9291 45.1775 29.9291C36.2942 29.9291 35.9266 23.5029 35.9266 20.5644H35.9264ZM80.8545 11.206C85.9082 11.206 88.2568 15.0082 88.2568 20.4055C88.2568 27.2047 85.2575 29.9259 80.8514 29.9259C78.3306 29.9259 76.4671 28.8648 75.4604 26.8841V29.5703L70.3419 29.5683V2.54772L75.7764 2.07364V14.0828C76.5608 11.9817 79.1384 11.206 80.8545 11.206ZM79.3309 15.4577C77.2083 15.4577 75.7764 16.9385 75.7764 19.4574L75.7714 22.03C75.7682 23.7277 76.763 25.7139 79.3309 25.7139C82.9424 25.7139 82.846 21.8133 82.846 20.5142C82.846 16.1442 80.9219 15.4577 79.3309 15.4577ZM59.8896 11.2209C54.1577 11.2209 51.1316 14.3468 51.1316 19.9018V20.9339C51.1316 28.1438 55.3811 30 60.4475 30C65.3719 30 67.6009 28.6223 67.6009 28.6223L66.5839 24.9535C66.5839 24.9535 63.962 26.0693 61.099 26.0693C58.1311 26.0693 56.8547 25.3127 56.5275 22.4598H68.0354V19.5165C68.0354 13.4908 64.6392 11.2208 59.8895 11.2208L59.8896 11.2209ZM60.0277 14.8947C62.0118 14.8947 63.2975 16.1116 63.2269 18.934H56.5375C56.6535 15.9635 58.04 14.8947 60.0277 14.8947ZM99.0931 11.1962C93.2068 11.1962 90.108 14.514 90.108 20.4598C90.108 28.6177 95.4497 29.9308 99.1029 29.9308C104.451 29.9308 108.009 27.0509 108.009 20.5339C108.009 13.7508 104.008 11.1962 99.0931 11.1962ZM99.019 15.4725C101.607 15.4725 102.633 17.41 102.633 19.6155V21.5117C102.633 24.1834 101.198 25.7288 99.0092 25.7288C96.9623 25.7288 95.5237 24.2833 95.5237 21.5117V19.6155C95.5237 16.6596 97.2355 15.4725 99.019 15.4725ZM118.836 11.1962C112.949 11.1962 109.851 14.514 109.851 20.4598C109.851 28.6177 115.192 29.9308 118.845 29.9308C124.193 29.9308 127.752 27.0509 127.752 20.5339C127.752 13.7508 123.751 11.1962 118.836 11.1962ZM118.762 15.4725C121.35 15.4725 122.375 17.41 122.375 19.6155V21.5117C122.375 24.1834 120.94 25.7288 118.752 25.7288C116.705 25.7288 115.266 24.2833 115.266 21.5117V19.6155C115.266 16.6596 116.978 15.4725 118.762 15.4725ZM129.805 29.5685V2.54772L135.256 2.07364V20.1846L140.663 11.5547H146.419L140.778 20.4928L146.636 29.5685H140.864L135.256 20.7561V29.5685H129.805Z" fill="#1877F2"/>
</svg>
