<svg width="101" height="32" viewBox="0 0 101 32" fill="none" xmlns="http://www.w3.org/2000/svg">
<path d="M20.3643 12.1073C22.1723 13.3989 24.3871 14.159 26.7791 14.159V9.55833C26.3264 9.55837 25.8749 9.51119 25.4319 9.41757V13.0389C23.0401 13.0389 20.8256 12.2788 19.0171 10.9872V20.376C19.0171 25.0728 15.2079 28.8799 10.5091 28.8799C8.75592 28.8799 7.12627 28.3501 5.77271 27.4415C7.31752 29.0205 9.47231 30 11.8559 30C16.5551 30 20.3645 26.1929 20.3645 21.4961V12.1071M22.0264 7.46567C21.0759 6.43034 20.4919 5.11134 20.3643 3.71164V3.11987H19.0877C19.409 4.95203 20.5051 6.51712 22.0262 7.46586M8.74466 23.8372C8.22844 23.1608 7.94942 22.3331 7.95077 21.4822C7.95077 19.3342 9.69303 17.5925 11.8427 17.5925C12.2433 17.5925 12.6415 17.6537 13.0233 17.7747V13.0714C12.5771 13.0104 12.1269 12.9844 11.6766 12.9937V16.6548C11.2946 16.5338 10.8963 16.4723 10.4956 16.4726C8.34584 16.4726 6.60358 18.2141 6.60358 20.3625C6.60358 21.8814 7.47443 23.1965 8.74466 23.8372Z" fill="#FF004F"/>
<path d="M19.017 10.9872C20.8255 12.2788 23.04 13.0387 25.432 13.0387V9.41739C24.1212 9.13731 22.9306 8.45507 22.0261 7.46586C20.5049 6.51712 19.4089 4.95185 19.0876 3.11987H15.7344V21.4955C15.7269 23.6377 13.9873 25.3723 11.8424 25.3723C10.5784 25.3723 9.4553 24.77 8.74417 23.8372C7.47431 23.1965 6.60327 21.8814 6.60327 20.3625C6.60327 18.2143 8.34553 16.4726 10.4952 16.4726C10.907 16.4726 11.3042 16.5368 11.6763 16.6548V12.9939C7.06009 13.0892 3.34753 16.8592 3.34753 21.4957C3.34753 23.8102 4.27206 25.9083 5.77258 27.4415C7.17305 28.3818 8.82232 28.8825 10.5091 28.8797C15.208 28.8797 19.0172 25.0724 19.0172 20.3758L19.017 10.9872Z" fill="black"/>
<path d="M25.4313 9.41723V8.43809C24.2273 8.43977 23.0471 8.10282 22.0256 7.4657C22.9298 8.45515 24.1205 9.1373 25.4313 9.41723ZM19.087 3.12009C19.0564 2.94507 19.0328 2.76888 19.0165 2.59195V2H14.3865V20.3758C14.379 22.5177 12.6399 24.2523 10.4947 24.2523C9.88657 24.2532 9.28673 24.1111 8.74363 23.8375C9.45495 24.7703 10.5779 25.3723 11.8419 25.3723C13.9866 25.3723 15.7264 23.638 15.7339 21.4958V3.1199L19.087 3.12009ZM11.676 12.9941V11.9517C11.2891 11.8989 10.8991 11.8725 10.5086 11.8725C5.8094 11.8721 2 15.6795 2 20.3758C2 23.32 3.49715 25.9149 5.77224 27.4414C4.27171 25.9084 3.34719 23.8101 3.34719 21.4956C3.34719 16.8592 7.05956 13.0894 11.676 12.9941Z" fill="#00F2EA"/>
<path d="M79.0787 25.0296C82.4409 25.0296 85.1666 22.3261 85.1666 18.9911C85.1666 15.6562 82.4409 12.9522 79.0787 12.9522H78.1611C81.5235 12.9522 84.2492 15.6564 84.2492 18.9911C84.2492 22.3259 81.5235 25.0296 78.1611 25.0296H79.0787Z" fill="#FF004F"/>
<path d="M78.0788 12.9522H77.1615C73.7994 12.9522 71.0731 15.6564 71.0731 18.9911C71.0731 22.3259 73.7994 25.0296 77.1615 25.0296H78.0788C74.716 25.0296 71.9903 22.3261 71.9903 18.9911C71.9903 15.6562 74.716 12.9522 78.0788 12.9522Z" fill="#00F2EA"/>
<path d="M52.0592 10.223V17.0878L55.5611 13.6138H59.814L55.3941 17.9155L60.3146 25.0295H56.5622L53.1434 20.1486L52.0592 21.142V24.9469H48.5564V10.223H52.0592ZM89.8367 10.223V17.0878L93.3395 13.6138H97.5924L93.1724 17.9155L98.0931 25.0298H94.3402L90.9206 20.149L89.8367 21.1424V24.9473H86.3334V10.223H89.8367ZM78.161 12.9523C81.5233 12.9523 84.2494 15.6564 84.2494 18.9911C84.2494 22.3259 81.5233 25.0296 78.161 25.0296H78.078C74.7157 25.0296 71.99 22.3261 71.99 18.9911C71.99 15.6562 74.7157 12.9523 78.078 12.9523H78.161ZM42.8862 10.223L41.8853 13.3665H38.9668V24.9471H35.38V13.2839H31.7947V10.2228L42.8862 10.223ZM72.2407 10.223L71.2402 13.3665H68.3217V24.9471H64.7349V13.2839H61.1496V10.2228L72.2407 10.223ZM47.055 14.9381V24.9473H43.5536V14.9381H47.055ZM78.1203 16.055C76.4852 16.055 75.159 17.369 75.159 18.9911C75.159 20.6133 76.4852 21.9278 78.1203 21.9282C79.7544 21.9282 81.0804 20.6133 81.0804 18.9911C81.0804 17.369 79.7544 16.055 78.1203 16.055ZM45.3035 10.223C46.2714 10.223 47.055 11.0009 47.055 11.96C47.055 12.919 46.272 13.697 45.3035 13.697C44.3364 13.6966 43.5536 12.9192 43.5536 11.96C43.5536 11.0009 44.3364 10.223 45.3035 10.223Z" fill="black"/>
</svg>
