<svg width="32" height="32" viewBox="0 0 32 32" fill="none" xmlns="http://www.w3.org/2000/svg">
<path d="M22.3648 12.1074C24.1727 13.3991 26.3876 14.1592 28.7797 14.1592V9.55853C28.3269 9.55871 27.8754 9.51147 27.4325 9.4176V13.039C25.0406 13.039 22.826 12.279 21.0177 10.9874V20.3761C21.0177 25.0728 17.2083 28.88 12.5095 28.88C10.7563 28.88 9.12662 28.3502 7.77295 27.4416C9.31798 29.0206 11.4726 30.0001 13.8563 30.0001C18.5555 30.0001 22.365 26.1929 22.365 21.496V12.1074H22.3648ZM24.0268 7.46593C23.1028 6.45705 22.4961 5.15322 22.3648 3.71176V3.12006H21.0882C21.4095 4.95208 22.5057 6.51725 24.0268 7.46593ZM10.7449 23.8376C10.2287 23.1611 9.94961 22.3335 9.95092 21.4825C9.95092 19.3345 11.6933 17.5928 13.843 17.5928C14.2436 17.5925 14.6418 17.654 15.0236 17.775V13.0715C14.5774 13.0104 14.1271 12.9844 13.677 12.994V16.6549C13.295 16.5339 12.8966 16.4724 12.4958 16.4728C10.3462 16.4728 8.60393 18.2143 8.60393 20.3626C8.60393 21.8817 9.47479 23.1969 10.7449 23.8376Z" fill="#FF004F"/>
<path d="M21.0174 10.9873C22.8259 12.2789 25.0402 13.0389 27.4322 13.0389V9.4175C26.097 9.13322 24.9151 8.43591 24.0264 7.46593C22.5053 6.51715 21.4093 4.95199 21.0879 3.12006H17.7347V21.4958C17.727 23.6381 15.9876 25.3726 13.8426 25.3726C12.5786 25.3726 11.4556 24.7705 10.7445 23.8375C9.47451 23.1969 8.60356 21.8816 8.60356 20.3627C8.60356 18.2146 10.3459 16.4728 12.4955 16.4728C12.9073 16.4728 13.3043 16.5369 13.6767 16.655V12.9941C9.06033 13.0894 5.34778 16.8593 5.34778 21.4959C5.34778 23.8104 6.27226 25.9087 7.77277 27.4418C9.12644 28.3502 10.756 28.8802 12.5093 28.8802C17.2082 28.8802 21.0175 25.0727 21.0175 20.3761L21.0174 10.9873Z" fill="black"/>
<path d="M27.4325 9.41742V8.43844C26.2285 8.44019 25.0482 8.10319 24.0267 7.46595C24.9309 8.45539 26.1216 9.13771 27.4325 9.41761M21.0881 3.11997C21.0575 2.94493 21.034 2.76871 21.0176 2.59177V2.00006H16.3876V20.376C16.3802 22.5181 14.6408 24.2526 12.4957 24.2526C11.8875 24.2535 11.2877 24.1114 10.7446 23.8377C11.4558 24.7705 12.5788 25.3725 13.8427 25.3725C15.9877 25.3725 17.7273 23.6382 17.7348 21.4959V3.12007L21.0881 3.11997ZM13.6771 12.994V11.9516C13.2902 11.8988 12.9002 11.8723 12.5097 11.8724C7.81032 11.8724 4.00098 15.6797 4.00098 20.376C4.00098 23.3204 5.4981 25.9153 7.77315 27.4416C6.27265 25.9086 5.34816 23.8103 5.34816 21.4958C5.34816 16.8594 9.06062 13.0893 13.6771 12.994Z" fill="#00F2EA"/>
</svg>
