<svg width="84" height="32" viewBox="0 0 84 32" fill="none" xmlns="http://www.w3.org/2000/svg">
<path d="M80.596 29.862H64.0898C63.7979 29.862 63.518 29.7461 63.3117 29.5397C63.1053 29.3333 62.9894 29.0534 62.9894 28.7616V3.14948C62.9894 2.85764 63.1053 2.57774 63.3117 2.37137C63.518 2.16501 63.7979 2.04907 64.0898 2.04907H80.596C80.8878 2.04907 81.1677 2.16501 81.3741 2.37137C81.5805 2.57774 81.6964 2.85764 81.6964 3.14948V7.31454C81.6964 7.60639 81.5805 7.88628 81.3741 8.09265C81.1677 8.29902 80.8878 8.41495 80.596 8.41495H69.3883V12.7341H80.596C80.8878 12.7341 81.1677 12.85 81.3741 13.0564C81.5805 13.2627 81.6964 13.5426 81.6964 13.8345V18.0381C81.6964 18.3299 81.5805 18.6098 81.3741 18.8162C81.1677 19.0225 80.8878 19.1385 80.596 19.1385H69.3883V23.4631H80.596C80.8878 23.4631 81.1677 23.579 81.3741 23.7854C81.5805 23.9918 81.6964 24.2717 81.6964 24.5635V28.7231C81.7016 28.8708 81.6769 29.018 81.6239 29.156C81.571 29.294 81.4907 29.4199 81.388 29.5262C81.2853 29.6325 81.1623 29.717 81.0262 29.7747C80.8901 29.8324 80.7438 29.8621 80.596 29.862Z" fill="#06C755"/>
<path d="M19.5901 29.8614C19.8819 29.8614 20.1618 29.7455 20.3682 29.5391C20.5746 29.3327 20.6905 29.0528 20.6905 28.761V24.6014C20.6905 24.3096 20.5746 24.0297 20.3682 23.8233C20.1618 23.617 19.8819 23.501 19.5901 23.501H8.38239V3.14338C8.38239 2.85153 8.26646 2.57164 8.06009 2.36527C7.85372 2.1589 7.57383 2.04297 7.28198 2.04297H3.10041C2.80857 2.04297 2.52867 2.1589 2.3223 2.36527C2.11594 2.57164 2 2.85153 2 3.14338V28.7445C2 29.0363 2.11594 29.3162 2.3223 29.5226C2.52867 29.729 2.80857 29.8449 3.10041 29.8449H19.6066L19.5901 29.8614Z" fill="#06C755"/>
<path d="M29.5359 2H25.3763C24.7564 2 24.2539 2.50253 24.2539 3.12242V28.74C24.2539 29.3599 24.7564 29.8625 25.3763 29.8625H29.5359C30.1558 29.8625 30.6583 29.3599 30.6583 28.74V3.12242C30.6583 2.50253 30.1558 2 29.5359 2Z" fill="#06C755"/>
<path d="M57.8648 2H53.7053C53.4134 2 53.1335 2.11594 52.9272 2.3223C52.7208 2.52867 52.6049 2.80856 52.6049 3.10041V18.3191L40.8855 2.48968C40.8587 2.44777 40.8274 2.40901 40.7919 2.37414L40.7259 2.30812L40.6654 2.2586H40.6324L40.5718 2.21458H40.5388L40.4783 2.18157H40.4398H40.3793H40.3408H40.2747H40.2307H40.1647H40.1207H40.0601H35.8181C35.5262 2.18157 35.2463 2.2975 35.04 2.50387C34.8336 2.71024 34.7177 2.99013 34.7177 3.28198V28.8996C34.7177 29.1914 34.8336 29.4713 35.04 29.6777C35.2463 29.8841 35.5262 30 35.8181 30H39.9831C40.275 30 40.5549 29.8841 40.7612 29.6777C40.9676 29.4713 41.0835 29.1914 41.0835 28.8996V13.5323L52.8194 29.3783C52.8963 29.4905 52.9933 29.5875 53.1055 29.6644L53.1716 29.7084H53.2046L53.2596 29.7359H53.3146H53.3531H53.4302C53.5274 29.7599 53.6271 29.7728 53.7273 29.7744H57.8648C58.1567 29.7744 58.4366 29.6585 58.6429 29.4521C58.8493 29.2457 58.9652 28.9658 58.9652 28.674V3.12242C58.9682 2.97607 58.9419 2.83061 58.8879 2.69455C58.8339 2.55849 58.7533 2.43457 58.6508 2.33005C58.5483 2.22552 58.426 2.14249 58.2911 2.08582C58.1561 2.02915 58.0112 1.99997 57.8648 2Z" fill="#06C755"/>
</svg>
