<svg width="32" height="32" viewBox="0 0 32 32" fill="none" xmlns="http://www.w3.org/2000/svg">
<path d="M23.6882 2H8.31274C4.82658 2 2.00049 4.82609 2.00049 8.31225V23.6877C2.00049 27.1739 4.82658 30 8.31274 30H23.6882C27.1744 30 30.0005 27.1739 30.0005 23.6877V8.31225C30.0005 4.82609 27.1744 2 23.6882 2Z" fill="#06C755"/>
<path d="M25.3332 14.6805C25.3332 10.5032 21.1455 7.10474 15.9979 7.10474C10.8502 7.10474 6.66248 10.5032 6.66248 14.6805C6.66248 18.4255 9.98748 21.5624 14.4692 22.1547C14.7737 22.2204 15.1876 22.3551 15.2917 22.615C15.3862 22.8512 15.3539 23.2214 15.3224 23.4594C15.3224 23.4594 15.213 24.1182 15.1894 24.2582C15.1482 24.4945 15.0012 25.1814 15.9979 24.7622C16.9945 24.3431 21.3738 21.5965 23.3321 19.3416C24.6849 17.8585 25.3332 16.35 25.3332 14.6805Z" fill="white"/>
<path d="M22.227 17.0929H19.602C19.5556 17.0929 19.5111 17.0745 19.4783 17.0417C19.4454 17.0089 19.427 16.9643 19.427 16.9179V12.8448C19.427 12.7984 19.4454 12.7539 19.4783 12.7211C19.5111 12.6882 19.5556 12.6698 19.602 12.6698H22.227C22.2734 12.6698 22.3179 12.6882 22.3507 12.7211C22.3836 12.7539 22.402 12.7984 22.402 12.8448V13.5072C22.402 13.5536 22.3836 13.5981 22.3507 13.6309C22.3179 13.6637 22.2734 13.6822 22.227 13.6822H20.4446V14.369H22.227C22.2734 14.369 22.3179 14.3875 22.3507 14.4203C22.3836 14.4531 22.402 14.4976 22.402 14.544V15.2125C22.402 15.259 22.3836 15.3035 22.3507 15.3363C22.3179 15.3691 22.2734 15.3875 22.227 15.3875H20.4446V16.0753H22.227C22.2734 16.0753 22.3179 16.0937 22.3507 16.1266C22.3836 16.1594 22.402 16.2039 22.402 16.2503V16.9118C22.4028 16.9353 22.3989 16.9587 22.3905 16.9807C22.3821 17.0026 22.3693 17.0226 22.353 17.0395C22.3366 17.0564 22.3171 17.0699 22.2954 17.079C22.2738 17.0882 22.2505 17.0929 22.227 17.0929Z" fill="#06C755"/>
<path d="M12.5259 17.0928C12.5723 17.0928 12.6168 17.0744 12.6496 17.0416C12.6825 17.0087 12.7009 16.9642 12.7009 16.9178V16.2563C12.7009 16.2099 12.6825 16.1654 12.6496 16.1326C12.6168 16.0998 12.5723 16.0813 12.5259 16.0813H10.7435V12.8438C10.7435 12.7974 10.7251 12.7529 10.6923 12.7201C10.6594 12.6873 10.6149 12.6688 10.5685 12.6688H9.90352C9.8571 12.6688 9.81259 12.6873 9.77977 12.7201C9.74695 12.7529 9.72852 12.7974 9.72852 12.8438V16.9152C9.72852 16.9616 9.74695 17.0061 9.77977 17.0389C9.81259 17.0718 9.8571 17.0902 9.90352 17.0902H12.5285L12.5259 17.0928Z" fill="#06C755"/>
<path d="M14.1044 12.6619H13.4429C13.3443 12.6619 13.2644 12.7418 13.2644 12.8404V16.9144C13.2644 17.0129 13.3443 17.0929 13.4429 17.0929H14.1044C14.203 17.0929 14.2829 17.0129 14.2829 16.9144V12.8404C14.2829 12.7418 14.203 12.6619 14.1044 12.6619Z" fill="#06C755"/>
<path d="M18.6115 12.6619H17.95C17.9036 12.6619 17.8591 12.6803 17.8263 12.7131C17.7935 12.7459 17.775 12.7905 17.775 12.8369V15.2571L15.9113 12.7397C15.907 12.7331 15.9021 12.7269 15.8964 12.7214L15.8859 12.7109L15.8763 12.703H15.871L15.8614 12.696H15.8562L15.8465 12.6907H15.8404H15.8308H15.8247H15.8142H15.8072H15.7967H15.7897H15.78H15.1054C15.059 12.6907 15.0145 12.7092 14.9817 12.742C14.9489 12.7748 14.9304 12.8193 14.9304 12.8657V16.9397C14.9304 16.9862 14.9489 17.0307 14.9817 17.0635C15.0145 17.0963 15.059 17.1147 15.1054 17.1147H15.7678C15.8142 17.1147 15.8587 17.0963 15.8915 17.0635C15.9244 17.0307 15.9428 16.9862 15.9428 16.9397V14.4959L17.8092 17.0159C17.8214 17.0337 17.8368 17.0491 17.8547 17.0614L17.8652 17.0684H17.8704L17.8792 17.0727H17.8879H17.894H17.9063C17.9218 17.0766 17.9376 17.0786 17.9535 17.0789H18.6115C18.658 17.0789 18.7025 17.0604 18.7353 17.0276C18.7681 16.9948 18.7865 16.9503 18.7865 16.9039V12.8404C18.787 12.8171 18.7828 12.794 18.7742 12.7723C18.7657 12.7507 18.7528 12.731 18.7365 12.7144C18.7202 12.6977 18.7008 12.6845 18.6793 12.6755C18.6579 12.6665 18.6348 12.6619 18.6115 12.6619Z" fill="#06C755"/>
</svg>
