<svg width="117" height="32" viewBox="0 0 117 32" fill="none" xmlns="http://www.w3.org/2000/svg">
<path d="M15.9118 30C23.595 30 29.8235 23.732 29.8235 16C29.8235 8.26802 23.595 2 15.9118 2C8.22851 2 2 8.26802 2 16C2 23.732 8.22851 30 15.9118 30Z" fill="black"/>
<path d="M20.2947 15.3255C20.2159 15.2858 20.137 15.2498 20.0546 15.2173C19.9148 12.5955 18.4885 11.0952 16.0982 11.0808C16.0875 11.0808 16.0767 11.0808 16.066 11.0808C14.6361 11.0808 13.4463 11.6939 12.7153 12.8119L14.0305 13.7207C14.5788 12.8876 15.4352 12.7073 16.066 12.7073C16.0731 12.7073 16.0803 12.7073 16.0875 12.7073C16.8759 12.7109 17.4672 12.9417 17.8542 13.3925C18.1337 13.7207 18.3201 14.1715 18.4133 14.7413C17.7145 14.6223 16.9619 14.5862 16.1556 14.6331C13.8835 14.7665 12.4214 16.0973 12.5217 17.951C12.5719 18.8922 13.0378 19.7001 13.8334 20.2266C14.5071 20.6738 15.3707 20.8902 16.2702 20.8433C17.46 20.7784 18.3918 20.3204 19.0404 19.4873C19.535 18.8526 19.8467 18.0339 19.9865 16.9989C20.5527 17.3415 20.972 17.7959 21.2049 18.3405C21.5991 19.2637 21.6206 20.7856 20.3915 22.0262C19.3128 23.1117 18.0155 23.5805 16.0516 23.595C13.8764 23.5805 12.2315 22.8773 11.1599 21.5069C10.1565 20.2266 9.64047 18.3729 9.62255 16.0035C9.64047 13.6341 10.1601 11.784 11.1599 10.5002C12.2315 9.12974 13.8764 8.4301 16.0516 8.41207C18.2448 8.4301 19.9184 9.13335 21.0293 10.511C21.5741 11.1854 21.9862 12.0329 22.255 13.021L23.7959 12.6063C23.4662 11.3873 22.9502 10.3415 22.2478 9.46874C20.8251 7.70522 18.7394 6.80362 16.0588 6.78198H16.0481C13.3711 6.80001 11.3105 7.70882 9.92716 9.47596C8.69438 11.0519 8.06008 13.241 8.03857 15.9891V15.9963V16.0035C8.06008 18.7516 8.69438 20.9407 9.92716 22.5167C11.3105 24.2874 13.3711 25.1926 16.0481 25.2106H16.0588C18.4384 25.1926 20.1191 24.5651 21.5024 23.1766C23.3121 21.359 23.2584 19.0798 22.6599 17.6805C22.2263 16.6815 21.4092 15.8665 20.2947 15.3255ZM16.1842 19.2168C15.188 19.2745 14.1523 18.8237 14.1021 17.8608C14.0627 17.1467 14.6074 16.3497 16.2452 16.256C16.4315 16.2451 16.6179 16.2415 16.797 16.2415C17.3919 16.2415 17.9474 16.2992 18.4527 16.411C18.2663 18.7768 17.159 19.1627 16.1842 19.2168Z" fill="white"/>
<path d="M31.6276 10.1072H36.9636V24.0892H39.6406V10.1072H44.9767V7.58276H31.6276V10.1072Z" fill="black"/>
<path d="M52.9056 11.5426C52.0096 11.5426 51.2571 11.7301 50.6586 12.0944C50.0601 12.4658 49.6014 12.9635 49.2717 13.591V7.58276H46.7345V24.0892H49.2717V16.9486C49.2717 16.4437 49.3326 16.0253 49.4473 15.6827C49.562 15.3401 49.7448 15.0444 49.992 14.7739C50.268 14.4385 50.5905 14.2005 50.9489 14.0274C51.3108 13.8651 51.7301 13.7785 52.2282 13.7785C52.8948 13.7785 53.418 13.9733 53.7907 14.37C54.167 14.7667 54.3498 15.3076 54.3498 16.0001V24.0892H56.887V15.7909C56.887 14.5178 56.5645 13.4936 55.9051 12.7183C55.26 11.9321 54.2638 11.5426 52.9056 11.5426Z" fill="black"/>
<path d="M75.9437 12.3288C75.1374 11.8095 74.1196 11.5535 72.894 11.5535C71.8046 11.5535 70.8406 11.8239 69.9805 12.3685C69.1312 12.9131 68.4539 13.6488 67.9808 14.59C67.497 15.5277 67.2605 16.5844 67.2605 17.7637V18.1892C67.2605 19.4478 67.497 20.5406 67.9736 21.4638C68.4503 22.3871 69.1097 23.1083 69.9662 23.6204C70.8155 24.1325 71.7974 24.3886 72.9012 24.3886C74.2343 24.3886 75.3452 24.1109 76.2268 23.5663C77.1084 23.0146 77.7535 22.2464 78.1584 21.2547L75.9652 20.317C75.6893 20.9625 75.3058 21.4278 74.822 21.7054C74.3382 21.9867 73.7111 22.131 72.937 22.131C71.9408 22.131 71.1667 21.7812 70.6005 21.0815C70.0629 20.4144 69.7798 19.4983 69.7511 18.3335H78.3448V17.3165C78.3448 16.2598 78.1441 15.2969 77.7535 14.4133C77.3557 13.5478 76.75 12.8409 75.9437 12.3288ZM69.8121 16.4978C69.9267 15.7152 70.2027 15.0841 70.6327 14.6189C71.224 13.9806 71.9443 13.6632 72.894 13.6632C73.8365 13.6632 74.5568 13.9193 75.0335 14.4314C75.5173 14.9435 75.786 15.6287 75.847 16.4978H69.8121Z" fill="black"/>
<path d="M100.632 13.4071C100.242 12.8409 99.7434 12.3901 99.1234 12.0475C98.5034 11.7049 97.758 11.5426 96.8872 11.5426C95.9375 11.5426 95.1025 11.7842 94.3571 12.2711C93.6225 12.7615 93.0455 13.4576 92.6334 14.3664C92.2177 15.2752 92.0134 16.3932 92.0134 17.7131V18.1855C92.0134 19.4911 92.2213 20.5982 92.6334 21.5251C93.0455 22.4411 93.6225 23.1479 94.3571 23.6384C95.0918 24.1289 95.9375 24.3669 96.8872 24.3669C97.7544 24.3669 98.5034 24.1974 99.1234 23.862C99.7434 23.5194 100.249 23.0686 100.632 22.5024V24.0784H103.148V7.58276H100.632V13.4071ZM100.675 19.0655C100.675 19.5379 100.614 19.9274 100.492 20.2448C100.371 20.5622 100.163 20.8435 99.8867 21.0923C99.4961 21.4421 99.1127 21.691 98.7364 21.8605C98.3529 22.0227 97.9551 22.1093 97.5394 22.1093C96.9481 22.1093 96.4285 21.9759 95.977 21.7198C95.5254 21.4638 95.1778 21.0382 94.9269 20.454C94.6833 19.8733 94.5507 19.1196 94.5507 18.1855V17.7131C94.5507 16.7899 94.6725 16.0361 94.9269 15.4627C95.1742 14.8893 95.5254 14.4674 95.977 14.1969C96.4285 13.9336 96.9517 13.793 97.5394 13.793C97.9623 13.793 98.3601 13.8723 98.7364 14.0274C99.1198 14.1825 99.5033 14.4457 99.8867 14.8028C100.17 15.0372 100.371 15.3149 100.492 15.6394C100.614 15.9568 100.675 16.3607 100.675 16.8259V19.0655Z" fill="black"/>
<path d="M114.315 18.6003C114.018 18.1279 113.581 17.7637 113.022 17.504C112.463 17.248 111.803 17.0532 111.044 16.9306L109.739 16.7431C109.026 16.6204 108.481 16.4329 108.105 16.1913C107.729 15.9497 107.546 15.5998 107.546 15.1418C107.546 14.6838 107.775 14.3268 108.245 14.0563C108.711 13.793 109.263 13.6524 109.854 13.6524C110.445 13.6524 110.95 13.7678 111.363 14.0094C111.785 14.2438 112.097 14.6153 112.319 15.1202L114.344 14.1248C114.014 13.2954 113.491 12.657 112.771 12.2134C112.051 11.7698 111.083 11.5535 109.875 11.5535C109.008 11.5535 108.22 11.7013 107.514 12.0043C106.808 12.3 106.241 12.7183 105.811 13.2376C105.381 13.7642 105.166 14.3953 105.166 15.1382C105.166 16.1624 105.503 16.9775 106.17 17.5906C106.836 18.2036 107.679 18.6003 108.707 18.7698L109.986 18.9574C110.7 19.0656 111.266 19.2279 111.674 19.437C112.09 19.6462 112.294 20.0104 112.294 20.5334C112.294 21.0852 112.072 21.5035 111.628 21.7992C111.183 22.0877 110.578 22.2356 109.804 22.2356C109.105 22.2356 108.531 22.0661 108.08 21.7307C107.628 21.3881 107.313 20.9373 107.123 20.3711L104.815 21.2186C105.091 22.1671 105.643 22.928 106.471 23.5086C107.291 24.0893 108.424 24.3778 109.875 24.3778C110.857 24.3778 111.707 24.2083 112.434 23.8585C113.162 23.5086 113.739 23.0434 114.143 22.452C114.556 21.8605 114.763 21.1465 114.763 20.4108C114.767 19.6714 114.613 19.0656 114.315 18.6003Z" fill="black"/>
<path d="M62.9293 12.3504C62.4168 12.7002 62.0334 13.1726 61.7646 13.7857V11.8311H59.342V24.0964H61.7646V17.5147C61.7646 16.9485 61.8183 16.4833 61.9259 16.1263C62.0334 15.762 62.2018 15.4338 62.4383 15.1309C62.7143 14.7667 63.0368 14.4926 63.3952 14.3086C63.7571 14.1211 64.137 14.031 64.5599 14.031H66.0686L66.3911 11.8347H64.782C64.0617 11.8311 63.4417 12.0006 62.9293 12.3504Z" fill="black"/>
<path d="M89.4351 18.6328C89.4423 18.4994 89.4423 18.3768 89.4423 18.2433V16.4041C89.4423 14.8966 89.0194 13.7173 88.1844 12.8626C87.3494 12.0151 86.2134 11.5895 84.78 11.5895C83.4934 11.5895 82.4434 11.878 81.6371 12.437C80.8308 13.0032 80.2968 13.7029 80.028 14.5324L82.0743 15.2608C82.2427 14.7415 82.5509 14.3376 82.9774 14.0491C83.4146 13.7606 83.9521 13.6127 84.6796 13.6127C85.4071 13.6127 85.9912 13.8147 86.4105 14.2114C86.8406 14.6153 87.0556 15.2681 87.0556 16.1841V17.1939C86.303 16.9595 85.4537 16.844 84.4933 16.844C83.5436 16.844 82.7229 16.9991 82.0241 17.3021C81.3253 17.605 80.7806 18.0378 80.4079 18.5968C80.0244 19.1557 79.8417 19.8229 79.8417 20.5911C79.8417 21.3124 79.9958 21.9651 80.2932 22.5385C80.5907 23.1119 81.0601 23.57 81.6873 23.9054C82.3144 24.248 83.1064 24.4102 84.0489 24.4102C85.1383 24.4102 86.0808 24.147 86.8764 23.6096C87.6433 23.0975 88.2418 22.3979 88.6933 21.5143C88.9227 22.2753 89.0445 23.1444 89.0624 24.129H91.2019C91.2019 22.6215 90.9654 21.3196 90.4816 20.2232C90.2235 19.6174 89.8723 19.0836 89.4351 18.6328ZM86.4213 21.4566C85.9841 22.1094 85.2853 22.4339 84.3284 22.4339C83.6153 22.4339 83.0706 22.2536 82.7122 21.9074C82.3431 21.5504 82.1675 21.114 82.1675 20.5947C82.1675 20.0754 82.3682 19.6246 82.7588 19.2351C83.1566 18.8456 83.7622 18.6617 84.5829 18.6617C85.6114 18.6617 86.4392 18.8564 87.0663 19.2351C87.0198 20.1475 86.8047 20.8832 86.4213 21.4566Z" fill="black"/>
</svg>
