<svg width="32" height="32" viewBox="0 0 32 32" fill="none" xmlns="http://www.w3.org/2000/svg">
<path d="M13.9173 18.1072C13.9173 17.3897 14.262 16.2487 16.9395 16.2487C17.7603 16.2487 18.266 16.3082 18.945 16.4604C18.728 19.2709 17.3525 19.6419 16.0155 19.6419C15.284 19.6419 13.9173 19.2604 13.9173 18.1072Z" fill="black"/>
<path d="M6.53299 30H25.468C26.6701 30 27.8229 29.5225 28.6729 28.6725C29.523 27.8225 30.0005 26.6696 30.0005 25.4675V6.5325C30.0005 5.33041 29.523 4.17755 28.6729 3.32754C27.8229 2.47753 26.6701 2 25.468 2L6.53299 2C5.33089 2 4.17804 2.47753 3.32803 3.32754C2.47802 4.17755 2.00049 5.33041 2.00049 6.5325L2.00049 25.4675C2.00049 26.6696 2.47802 27.8225 3.32803 28.6725C4.17804 29.5225 5.33089 30 6.53299 30ZM12.266 12.3425C13.2582 10.925 14.5672 10.372 16.3785 10.372C17.656 10.372 18.7427 10.8025 19.5197 11.6163C20.295 12.4317 20.7377 13.5972 20.8392 15.0865C21.2686 15.2662 21.6641 15.4779 22.0257 15.7218C23.4817 16.7 24.2832 18.163 24.2832 19.8395C24.2832 23.4043 21.3607 26.5 16.0722 26.5C11.531 26.5 6.81299 23.8575 6.81299 15.993C6.81299 8.1705 11.3822 5.5 16.0582 5.5C18.2177 5.5 23.284 5.8185 25.188 12.1097L23.403 12.5717C21.9295 8.09175 18.8407 7.37775 16.011 7.37775C11.3297 7.37775 8.68374 10.2268 8.68374 16.2905C8.68374 21.7278 11.6412 24.6152 16.0722 24.6152C19.7175 24.6152 22.4352 22.7217 22.4352 19.948C22.4352 18.0597 20.8497 17.1568 20.7675 17.1568C20.4577 18.7755 19.6282 21.5002 15.9847 21.5002C13.862 21.5002 12.0297 20.0338 12.0297 18.1122C12.0297 15.3682 14.6337 14.3743 16.69 14.3743C17.46 14.3743 18.3875 14.4268 18.8722 14.5247C18.8722 13.6883 18.1652 12.2568 16.3767 12.2568C14.7825 12.2568 14.3467 12.7607 13.8392 13.3488L13.7972 13.396C13.4437 13.1597 12.266 12.3425 12.266 12.3425Z" fill="black"/>
</svg>
