<svg width="164" height="32" viewBox="0 0 164 32" fill="none" xmlns="http://www.w3.org/2000/svg">
<path d="M16.8288 8.1064C15.2928 6.01761 12.8544 4.75537 10.2304 4.75537C5.6928 4.75537 2 8.48443 2 13.0593C2 20.5879 11.9264 30.0002 16.8288 30.0002C21.7248 30.0002 31.6576 20.5943 31.6576 13.0657C31.664 8.47162 27.9712 4.75537 23.4336 4.75537C20.7968 4.75537 18.3648 6.01761 16.8288 8.1064Z" fill="#FF661B"/>
<path d="M59.9722 21.5551C59.6074 22.3945 59.121 23.1249 58.481 23.7721C57.873 24.4 57.1498 24.919 56.305 25.265C55.4794 25.643 54.5834 25.8416 53.6234 25.8416C52.6634 25.8416 51.7546 25.6494 50.929 25.265C50.0778 24.919 49.3482 24.4064 48.753 23.7721C48.1258 23.1506 47.6394 22.4201 47.2618 21.568C46.9162 20.7286 46.737 19.8252 46.737 18.8705C46.737 17.9286 46.9226 17.0316 47.2746 16.1858C47.6522 15.3336 48.1322 14.6032 48.7658 13.9689C49.361 13.3474 50.097 12.8412 50.9418 12.476C51.7418 12.1108 52.6634 11.9249 53.6234 11.9249C54.5834 11.9249 55.4794 12.1108 56.3178 12.476C57.1434 12.8412 57.8666 13.3474 58.4938 13.9689C59.1146 14.6224 59.5946 15.3465 59.9594 16.1922C60.305 17.0316 60.497 17.9158 60.497 18.8641C60.497 19.8188 60.3114 20.703 59.9594 21.5487H59.9722V21.5551ZM61.393 11.0279C59.217 8.86865 56.6378 7.77941 53.6234 7.77941C50.9866 7.77941 48.6954 8.60595 46.7498 10.2334V2H42.6602V18.8705C42.6602 21.9332 43.729 24.5474 45.8666 26.7194C48.0106 28.8787 50.6026 29.968 53.6234 29.968C56.6378 29.968 59.217 28.8787 61.393 26.7194C63.537 24.573 64.5994 21.9716 64.5994 18.8705C64.5994 17.3455 64.337 15.9231 63.7994 14.6224C63.2618 13.2897 62.4618 12.0979 61.393 11.0279ZM133.175 21.5551C132.811 22.3945 132.318 23.1249 131.684 23.7721C131.076 24.4 130.34 24.919 129.508 25.265C128.683 25.643 127.787 25.8416 126.827 25.8416C125.873 25.8416 124.971 25.6494 124.132 25.265C123.294 24.919 122.571 24.4064 121.956 23.7721C121.348 23.1506 120.868 22.4201 120.503 21.568C120.158 20.7286 119.966 19.8252 119.966 18.8833C119.966 17.9414 120.158 17.0444 120.516 16.1986C120.881 15.3465 121.367 14.616 121.982 13.9945C122.59 13.3666 123.313 12.8668 124.158 12.5016C124.983 12.1236 125.879 11.9249 126.852 11.9249C127.825 11.9249 128.721 12.1172 129.559 12.5016C130.385 12.8668 131.121 13.3602 131.735 13.9945C132.356 14.6352 132.849 15.3721 133.227 16.2114C133.572 17.0508 133.751 17.935 133.751 18.8961C133.751 19.8508 133.566 20.735 133.214 21.5808L133.175 21.5551ZM134.596 11.0279C132.42 8.86865 129.815 7.77941 126.801 7.77941C123.787 7.77941 121.182 8.86865 119.051 11.0279C116.907 13.2064 115.844 15.8142 115.844 18.8769C115.844 21.9396 116.913 24.5538 119.051 26.7259C121.195 28.8851 123.787 29.9744 126.807 29.9744C129.822 29.9744 132.427 28.8851 134.603 26.7259C136.721 24.5794 137.809 21.978 137.809 18.8897C137.783 17.3648 137.508 15.9423 136.983 14.6416C136.459 13.3346 135.652 12.1428 134.577 11.0471L134.596 11.0279ZM157.406 21.5551C157.041 22.3945 156.548 23.1249 155.915 23.7721C155.307 24.4 154.571 24.919 153.739 25.265C152.9 25.643 152.017 25.8416 151.057 25.8416C150.084 25.8416 149.188 25.6494 148.35 25.265C147.511 24.919 146.788 24.4064 146.174 23.7721C145.553 23.1506 145.073 22.4201 144.721 21.568C144.356 20.7286 144.183 19.8252 144.183 18.8705C144.183 17.9286 144.356 17.0316 144.721 16.1858C145.067 15.3336 145.559 14.6032 146.174 13.9689C146.795 13.3474 147.518 12.8412 148.35 12.476C149.188 12.1108 150.071 11.9249 151.057 11.9249C152.011 11.9249 152.894 12.1108 153.739 12.476C154.577 12.8412 155.307 13.3474 155.915 13.9689C156.542 14.6224 157.041 15.3465 157.406 16.1922C157.751 17.0316 157.931 17.9158 157.931 18.8641C157.931 19.8188 157.745 20.703 157.393 21.5487H157.406V21.5551ZM161.201 14.6224C160.676 13.3153 159.87 12.1236 158.795 11.0279C156.638 8.86865 154.052 7.77941 151.044 7.77941C148.004 7.77941 145.425 8.86865 143.287 11.0279C141.131 13.2064 140.055 15.8142 140.055 18.8641C140.055 21.9268 141.131 24.541 143.262 26.713C145.419 28.8723 147.998 29.9616 151.031 29.9616C154.033 29.9616 156.625 28.8723 158.788 26.713C160.932 24.5666 161.995 21.9652 161.995 18.8641C162.001 17.3391 161.726 15.9167 161.201 14.6224ZM108.657 21.5551C108.311 22.3945 107.806 23.1249 107.191 23.7721C106.571 24.4 105.841 24.919 105.015 25.265C104.164 25.643 103.275 25.8416 102.321 25.8416C101.361 25.8416 100.452 25.6494 99.6138 25.265C98.7626 24.919 98.0458 24.4064 97.4378 23.7721C96.817 23.1506 96.3242 22.4201 95.9722 21.568C95.6266 20.7286 95.4346 19.8252 95.4346 18.8705C95.4346 17.9286 95.6202 17.0316 95.9722 16.1858C96.3178 15.3336 96.8234 14.6032 97.425 13.9689C98.033 13.3474 98.7562 12.8412 99.601 12.476C100.427 12.1108 101.323 11.9249 102.295 11.9249C103.249 11.9249 104.132 12.1108 104.977 12.476C105.803 12.8412 106.539 13.3474 107.153 13.9689C107.774 14.6224 108.267 15.3465 108.619 16.1922C108.983 17.0316 109.156 17.9158 109.156 18.8641C109.156 19.8188 108.983 20.703 108.619 21.5487H108.657V21.5551ZM109.201 10.227C107.217 8.59954 104.926 7.78581 102.327 7.78581C99.3002 7.78581 96.7082 8.87506 94.5706 11.0343C92.4266 13.2128 91.3642 15.8206 91.3642 18.8705C91.3642 21.9332 92.433 24.5474 94.5706 26.7194C96.7146 28.8787 99.3066 29.968 102.327 29.968C105.329 29.968 107.921 28.8787 110.084 26.7194C112.228 24.573 113.291 21.9716 113.291 18.8705V2H109.201V10.227ZM77.873 25.8352C74.0586 25.8352 70.9738 22.7149 70.9738 18.8705C70.9738 15.0389 74.0714 11.9185 77.8474 11.9185C81.6554 11.9185 84.7466 15.0389 84.7466 18.8705C84.753 22.7085 81.6554 25.8352 77.873 25.8352ZM88.8298 18.8705C88.8298 12.7515 83.9274 7.78581 77.8602 7.78581C71.7866 7.78581 66.8586 12.7515 66.8586 18.8705C66.8586 24.9959 71.7866 29.968 77.8602 29.968C80.529 29.968 82.9866 28.9941 84.9002 27.373V29.9808H88.817V19.1908V18.8833L88.8298 18.8705Z" fill="black"/>
</svg>
