<svg width="95" height="32" viewBox="0 0 95 32" fill="none" xmlns="http://www.w3.org/2000/svg">
<path d="M32.0547 17.0203V7.58228H32.9608C33.315 7.58228 33.6546 7.72243 33.9051 7.97192C34.1555 8.22141 34.2962 8.55979 34.2962 8.91262V13.1097C35.7479 11.8186 36.9849 11.3025 38.6297 11.2692C41.7813 11.2044 44.5389 13.5414 44.791 16.6769C45.1022 20.4246 42.3663 23.2442 38.803 23.2442C34.8931 23.2442 32.0547 20.8268 32.0547 17.0203ZM34.2608 17.762C34.4814 19.7123 36.3527 21.3233 38.3244 21.3547C40.885 21.3939 42.644 19.7261 42.644 17.2557C42.644 14.7854 40.9343 13.1548 38.4347 13.1548C35.7657 13.1548 33.9575 15.0875 34.2608 17.762Z" fill="white"/>
<path d="M48.5391 11.5067V13.1883C49.9494 11.6186 50.7885 11.2085 52.4392 11.2085C52.9202 11.2092 53.4003 11.2479 53.8751 11.3243V13.5572C53.3683 13.418 52.8448 13.348 52.319 13.3492C51.1234 13.3492 50.1188 13.7416 49.3762 14.4775C48.7302 15.123 48.5391 15.6292 48.5391 16.6358V22.8539H46.2188V11.5067H48.5391Z" fill="white"/>
<path d="M54.4256 15.2584C54.5458 14.1537 54.7605 13.5552 55.2391 12.9783C56.1964 11.801 57.9199 11.2124 60.3605 11.2124C62.2987 11.2124 63.709 11.5126 64.6939 12.1562C65.5074 12.686 65.8422 13.4689 65.8422 14.8502V19.893C65.8422 20.9977 66.1298 21.3901 66.9197 21.3666C67.0957 21.3603 67.2713 21.3445 67.4456 21.3195V22.8402C67.053 22.9743 66.6393 23.0367 66.2244 23.0246C64.7648 23.0246 64.0951 22.587 63.642 21.3214C62.2061 22.6341 60.7229 23.1875 58.5936 23.1875C55.7473 23.1875 54.0002 21.8983 54.0002 19.8027C53.994 19.2176 54.1609 18.6436 54.48 18.1523C54.7991 17.661 55.2563 17.2742 55.7946 17.04C56.6554 16.6711 57.1734 16.5573 59.6474 16.3022C61.7531 16.0943 62.1116 16.0491 62.7104 15.8647C63.3564 15.6567 63.644 15.3133 63.644 14.7364C63.644 13.516 62.6158 12.9705 60.4609 12.9705C58.4242 12.9705 57.3763 13.3629 56.9548 14.3989C56.8542 14.6563 56.678 14.8775 56.4492 15.0337C56.2205 15.1898 55.9498 15.2736 55.6725 15.2741L54.4256 15.2584ZM63.6381 17.197C62.16 17.6254 60.6421 17.9035 59.1077 18.027C57.0257 18.235 56.3796 18.6156 56.3796 19.6615C56.3796 20.8132 57.3369 21.4117 59.2259 21.4117C60.782 21.4117 61.954 21.0193 62.7911 20.2599C63.4608 19.6379 63.6283 19.2004 63.6283 18.1172L63.6381 17.197Z" fill="white"/>
<path d="M73.0579 22.8558H72.4669C72.2087 22.8565 71.9555 22.785 71.7361 22.6493C71.5167 22.5137 71.34 22.3194 71.226 22.0886L66.1992 11.5067H67.5938C67.9912 11.5036 68.381 11.6157 68.7156 11.8292C69.0503 12.0428 69.3154 12.3486 69.4788 12.7095L72.8274 20.3266L76.2843 12.684C76.4509 12.3291 76.7164 12.0294 77.0493 11.8206C77.3821 11.6119 77.7682 11.5029 78.1614 11.5067H79.428L74.2929 22.1023C74.1774 22.3297 74.0008 22.5205 73.7827 22.6536C73.5646 22.7867 73.3136 22.8567 73.0579 22.8558Z" fill="white"/>
<path d="M81.0033 17.8367C81.2416 20.0245 82.973 21.3823 85.5337 21.3823C86.9873 21.3823 88.0707 20.9526 88.7542 20.0912C88.9481 19.8468 89.1951 19.6493 89.4765 19.5134C89.7579 19.3774 90.0665 19.3067 90.3792 19.3064H91.7285C90.5467 21.8866 88.4509 23.1522 85.317 23.1522C81.3933 23.1522 78.7617 20.7799 78.7617 17.2343C78.7617 13.6887 81.4662 11.2007 85.3662 11.2007C88.1889 11.2007 90.462 12.4663 91.372 14.5854C91.7778 15.5528 91.9471 16.4279 91.9471 17.8308L81.0033 17.8367ZM89.5677 16.0865C89.0418 14.0831 87.4857 12.947 85.3328 12.947C83.1798 12.947 81.6237 14.0752 81.0742 16.0865H89.5677Z" fill="white"/>
<path d="M25.9658 11.0573L25.0991 8.71254L25.7019 7.3665C25.7398 7.28159 25.751 7.18726 25.7341 7.09588C25.7172 7.00449 25.673 6.92031 25.6073 6.85438L23.9685 5.20421C23.6167 4.8486 23.1707 4.59987 22.6825 4.48697C22.1943 4.37407 21.684 4.40165 21.2109 4.5665L20.7519 4.72544L18.2484 2.02354L14.0016 2H13.974L9.69971 2.03336L7.19814 4.75683L6.75298 4.59986C6.27683 4.43306 5.7628 4.40501 5.27121 4.51901C4.77961 4.633 4.33086 4.88431 3.97762 5.24345L2.30925 6.92502C2.25689 6.97758 2.22172 7.04469 2.20836 7.11753C2.195 7.19037 2.20408 7.26554 2.2344 7.33315L2.86275 8.7302L2 11.073L2.55744 13.1863L5.10037 22.8165C5.39333 23.9259 6.0673 24.8979 7.00511 25.5636C7.00511 25.5636 10.0917 27.7317 13.1369 29.7018C13.3777 29.8933 13.6767 29.9976 13.9849 29.9976C14.293 29.9976 14.592 29.8933 14.8329 29.7018C18.2543 27.4688 20.9607 25.5557 20.9607 25.5557C21.8978 24.8897 22.571 23.9178 22.8635 22.8087L25.3926 13.1745L25.9658 11.0573Z" fill="url(#paint0_linear_128_2434)"/>
<path d="M14.6831 19.3553C14.521 19.283 14.3538 19.2227 14.1828 19.1748H13.8814C13.7104 19.2227 13.5432 19.283 13.3811 19.3553L12.6228 19.6693C12.3825 19.7693 11.9964 19.9479 11.7659 20.0617L10.3714 20.7857C10.3209 20.8021 10.2764 20.8331 10.2437 20.8748C10.2111 20.9165 10.1917 20.967 10.1881 21.0197C10.1845 21.0725 10.1968 21.1251 10.2235 21.1709C10.2502 21.2166 10.29 21.2533 10.3379 21.2763L11.5493 22.1279C11.762 22.277 12.0968 22.5399 12.2938 22.7165L12.6346 23.0089C12.8316 23.1776 13.1526 23.4582 13.3476 23.6309L13.6707 23.9154C13.7705 23.9982 13.8963 24.0436 14.0262 24.0436C14.1561 24.0436 14.2819 23.9982 14.3817 23.9154L14.7205 23.6211L15.4336 23.001L15.7763 22.7028C15.9733 22.5321 16.3062 22.2691 16.5189 22.1141L17.7303 21.2508C17.7782 21.2278 17.8181 21.1911 17.8447 21.1452C17.8712 21.0993 17.8833 21.0465 17.8792 20.9937C17.8752 20.9409 17.8552 20.8906 17.822 20.8493C17.7887 20.808 17.7437 20.7776 17.6929 20.7622L16.3003 20.0578C16.0678 19.94 15.6818 19.7635 15.4395 19.6653L14.6831 19.3553Z" fill="white"/>
<path d="M23.2697 11.5813L23.3091 11.4557C23.3114 11.2877 23.3008 11.1198 23.2775 10.9534C23.1603 10.6562 23.0096 10.3731 22.8284 10.1097L22.0405 8.95787C21.8948 8.74204 21.6466 8.40062 21.4792 8.19852L20.4234 6.88191C20.3271 6.75359 20.2225 6.63168 20.1102 6.51695H20.0885C20.0885 6.51695 19.8758 6.55423 19.6197 6.60328L18.0065 6.91331L17.2994 7.04869C17.0646 7.05968 16.8299 7.02571 16.608 6.94863L15.3336 6.53853C15.0854 6.45808 14.6757 6.34232 14.4216 6.28738C14.1538 6.25903 13.8838 6.25903 13.616 6.28738C13.3619 6.34624 12.9522 6.46005 12.704 6.5405L11.4296 6.95255C11.2076 7.02964 10.9729 7.06361 10.7382 7.05262L10.031 6.91919L8.41585 6.61113C8.15979 6.56208 7.94902 6.52284 7.94705 6.5248H7.92539C7.81312 6.63953 7.7085 6.76144 7.6122 6.88976L6.55839 8.20637C6.39687 8.40258 6.14277 8.75185 5.99701 8.96572L5.20912 10.1175C5.07304 10.3161 4.94873 10.5225 4.83684 10.7356C4.76934 10.9732 4.73357 11.2186 4.73047 11.4655L4.76986 11.5911C4.78883 11.6718 4.81318 11.7511 4.84275 11.8285C5.00623 12.0247 5.28593 12.3504 5.46518 12.5408L8.22282 15.4605C8.31436 15.5669 8.37562 15.6959 8.40021 15.8339C8.42481 15.9719 8.41184 16.114 8.36267 16.2453L7.9116 17.3108C7.80903 17.5931 7.80143 17.9009 7.88993 18.1879L7.98054 18.4351C8.12859 18.8366 8.38236 19.1911 8.71525 19.4613L9.1486 19.8125C9.26117 19.8934 9.39252 19.9445 9.53034 19.961C9.66815 19.9775 9.8079 19.9588 9.93649 19.9067L11.4768 19.1748C11.7596 19.0338 12.0241 18.8592 12.2647 18.6549L13.4978 17.5462C13.5469 17.5021 13.5866 17.4485 13.6146 17.3888C13.6425 17.329 13.6582 17.2643 13.6606 17.1984C13.6629 17.1326 13.652 17.0669 13.6285 17.0053C13.6049 16.9437 13.5692 16.8874 13.5234 16.8399L10.7401 14.9719C10.6348 14.8974 10.5597 14.7877 10.5286 14.6628C10.4975 14.5378 10.5125 14.4059 10.5707 14.291L11.6502 12.27C11.7116 12.1463 11.7478 12.0117 11.757 11.874C11.7661 11.7363 11.7479 11.5982 11.7033 11.4675C11.5693 11.2182 11.3529 11.0227 11.0908 10.9141L7.70675 9.64071C7.4625 9.54849 7.47629 9.44449 7.73432 9.42879L9.72179 9.23258C10.0334 9.21284 10.3463 9.24063 10.6495 9.31499L12.379 9.79572C12.5017 9.83258 12.6069 9.91255 12.675 10.0208C12.7431 10.129 12.7695 10.2582 12.7493 10.3844L12.0697 14.0811C12.0243 14.2858 12.013 14.4966 12.0362 14.705C12.0638 14.7933 12.2962 14.9013 12.5503 14.964L13.6041 15.1877C13.9102 15.2438 14.2239 15.2438 14.5299 15.1877L15.4774 14.9739C15.7315 14.917 15.9619 14.7973 15.9915 14.709C16.0141 14.5004 16.0022 14.2896 15.956 14.085L15.2725 10.3883C15.2523 10.2621 15.2787 10.133 15.3468 10.0247C15.4149 9.91648 15.52 9.83651 15.6428 9.79964L17.3723 9.31695C17.6755 9.24256 17.9883 9.21477 18.3 9.23454L20.2875 9.41898C20.5475 9.44253 20.5593 9.53867 20.317 9.6309L16.935 10.9083C16.6728 11.0168 16.4564 11.2123 16.3224 11.4616C16.2327 11.7256 16.2518 12.0142 16.3756 12.2641L17.457 14.2851C17.5152 14.4 17.5302 14.5319 17.4991 14.6569C17.468 14.7818 17.3929 14.8915 17.2876 14.966L14.5063 16.8379C14.4605 16.8855 14.4248 16.9417 14.4012 17.0033C14.3776 17.0649 14.3667 17.1306 14.3691 17.1965C14.3715 17.2624 14.3871 17.3271 14.4151 17.3868C14.4431 17.4466 14.4828 17.5001 14.5319 17.5443L15.7669 18.6529C16.0076 18.8566 16.2722 19.0305 16.5548 19.1709L18.0952 19.9008C18.2239 19.9526 18.3638 19.971 18.5016 19.9541C18.6394 19.9373 18.7707 19.8859 18.883 19.8047L19.3164 19.4515C19.6496 19.1808 19.9035 18.8256 20.0511 18.4233L20.1417 18.1761C20.2302 17.8891 20.2226 17.5813 20.12 17.299L19.667 16.2336C19.6178 16.1022 19.6049 15.9601 19.6295 15.8221C19.6541 15.6841 19.7153 15.5552 19.8069 15.4487L22.5645 12.5251C22.7437 12.3289 23.0215 12.0149 23.185 11.8128C23.2183 11.7376 23.2466 11.6602 23.2697 11.5813Z" fill="white"/>
<path d="M93.0082 11.648C93.0133 11.8398 92.9608 12.0286 92.8575 12.1905C92.7542 12.3523 92.6048 12.4798 92.4283 12.5565C92.2519 12.6332 92.0564 12.6557 91.8671 12.6212C91.6777 12.5866 91.503 12.4965 91.3653 12.3625C91.2276 12.2284 91.1333 12.0565 91.0943 11.8687C91.0553 11.6809 91.0734 11.4857 91.1464 11.3083C91.2194 11.1308 91.3439 10.9791 91.504 10.8725C91.6641 10.766 91.8524 10.7094 92.045 10.7101C92.1703 10.7078 92.2948 10.7303 92.4113 10.7763C92.5278 10.8224 92.634 10.891 92.7236 10.9783C92.8132 11.0656 92.8845 11.1697 92.9334 11.2847C92.9822 11.3997 93.0077 11.5232 93.0082 11.648ZM91.3162 11.648C91.313 11.7458 91.3297 11.8433 91.3652 11.9345C91.4008 12.0257 91.4545 12.1088 91.5231 12.1788C91.5918 12.2488 91.6739 12.3043 91.7646 12.3419C91.8553 12.3795 91.9526 12.3984 92.0509 12.3976C92.1474 12.3971 92.2429 12.3773 92.3316 12.3394C92.4203 12.3015 92.5005 12.2463 92.5673 12.1769C92.6342 12.1075 92.6864 12.0255 92.7209 11.9357C92.7553 11.8458 92.7713 11.75 92.7679 11.6539C92.773 11.5558 92.758 11.4577 92.7239 11.3655C92.6897 11.2733 92.6371 11.189 92.5692 11.1178C92.5012 11.0465 92.4195 10.9898 92.3289 10.951C92.2382 10.9122 92.1406 10.8922 92.042 10.8922C91.9434 10.8922 91.8458 10.9122 91.7551 10.951C91.6645 10.9898 91.5828 11.0465 91.5149 11.1178C91.4469 11.189 91.3943 11.2733 91.3601 11.3655C91.326 11.4577 91.311 11.5558 91.3162 11.6539V11.648ZM91.8953 12.1405H91.6766V11.2026C91.7962 11.1813 91.9176 11.1714 92.0391 11.1732C92.1524 11.1643 92.2659 11.1881 92.366 11.2419C92.3943 11.2662 92.417 11.2964 92.4327 11.3302C92.4483 11.364 92.4565 11.4008 92.4566 11.4381C92.4524 11.4909 92.4308 11.5408 92.3952 11.5802C92.3596 11.6196 92.3119 11.6462 92.2597 11.6559V11.6677C92.3062 11.6866 92.3468 11.7178 92.377 11.7578C92.4071 11.7979 92.4258 11.8454 92.431 11.8953C92.4403 11.9765 92.4636 12.0555 92.5 12.1288H92.2636C92.2275 12.057 92.2023 11.9803 92.1888 11.9012C92.171 11.7991 92.1139 11.752 91.9918 11.752H91.8893L91.8953 12.1405ZM91.8953 11.6088H91.9977C92.1178 11.6088 92.2163 11.5696 92.2163 11.4714C92.2163 11.3733 92.1533 11.3282 92.0194 11.3282C91.979 11.3274 91.9386 11.3313 91.8992 11.34L91.8953 11.6088Z" fill="#77777A"/>
<defs>
<linearGradient id="paint0_linear_128_2434" x1="2.00788" y1="16" x2="25.9579" y2="16" gradientUnits="userSpaceOnUse">
<stop stop-color="#F1562B"/>
<stop offset="0.3" stop-color="#F1542B"/>
<stop offset="0.41" stop-color="#F04D2A"/>
<stop offset="0.49" stop-color="#EF4229"/>
<stop offset="0.5" stop-color="#EF4029"/>
<stop offset="0.56" stop-color="#E83E28"/>
<stop offset="0.67" stop-color="#E13C26"/>
<stop offset="1" stop-color="#DF3C26"/>
</linearGradient>
</defs>
</svg>
