<svg width="32" height="32" viewBox="0 0 32 32" fill="none" xmlns="http://www.w3.org/2000/svg">
<path d="M27.9131 11.0585L27.0464 8.71376L27.6491 7.36772C27.687 7.28281 27.6983 7.18848 27.6814 7.0971C27.6645 7.00571 27.6203 6.92153 27.5546 6.8556L25.9158 5.20543C25.564 4.84982 25.118 4.60109 24.6298 4.48819C24.1416 4.37529 23.6312 4.40287 23.1581 4.56772L22.6992 4.72666L20.1956 2.02477L15.9489 2.00122H15.9213L11.647 2.03458L9.14541 4.75805L8.70025 4.60108C8.2241 4.43428 7.71006 4.40623 7.21847 4.52023C6.72688 4.63422 6.27813 4.88554 5.92488 5.24467L4.25651 6.92624C4.20415 6.9788 4.16898 7.04591 4.15562 7.11875C4.14227 7.19159 4.15134 7.26676 4.18167 7.33437L4.81001 8.73142L3.94727 11.0742L4.5047 13.1875L7.04764 22.8178C7.34059 23.9271 8.01456 24.8991 8.95237 25.5648C8.95237 25.5648 12.039 27.733 15.0842 29.703C15.325 29.8945 15.624 29.9988 15.9321 29.9988C16.2403 29.9988 16.5393 29.8945 16.7801 29.703C20.2016 27.47 22.908 25.5569 22.908 25.5569C23.8451 24.8909 24.5183 23.919 24.8107 22.8099L27.3399 13.1757L27.9131 11.0585Z" fill="url(#paint0_linear_128_2672)"/>
<path d="M16.6304 19.3565C16.4683 19.2843 16.301 19.2239 16.1301 19.176H15.8287C15.6577 19.2239 15.4905 19.2843 15.3284 19.3565L14.57 19.6705C14.3297 19.7706 13.9437 19.9491 13.7132 20.0629L12.3186 20.787C12.2681 20.8033 12.2237 20.8343 12.191 20.876C12.1584 20.9177 12.139 20.9682 12.1354 21.0209C12.1318 21.0737 12.1441 21.1264 12.1708 21.1721C12.1975 21.2178 12.2373 21.2545 12.2851 21.2775L13.4965 22.1291C13.7093 22.2782 14.0441 22.5411 14.2411 22.7177L14.5819 23.0101C14.7788 23.1788 15.0999 23.4594 15.2949 23.6321L15.6179 23.9166C15.7178 23.9994 15.8436 24.0448 15.9735 24.0448C16.1034 24.0448 16.2292 23.9994 16.329 23.9166L16.6678 23.6223L17.3809 23.0022L17.7236 22.704C17.9206 22.5333 18.2534 22.2703 18.4662 22.1153L19.6776 21.252C19.7255 21.2291 19.7653 21.1923 19.7919 21.1464C19.8185 21.1005 19.8306 21.0478 19.8265 20.995C19.8225 20.9422 19.8025 20.8918 19.7693 20.8505C19.736 20.8092 19.691 20.7788 19.6401 20.7634L18.2475 20.059C18.0151 19.9413 17.629 19.7647 17.3868 19.6666L16.6304 19.3565Z" fill="white"/>
<path d="M25.2169 11.5825L25.2563 11.4569C25.2586 11.2889 25.2481 11.121 25.2248 10.9546C25.1075 10.6574 24.9569 10.3743 24.7757 10.1109L23.9878 8.95909C23.842 8.74326 23.5939 8.40184 23.4264 8.19974L22.3706 6.88313C22.2743 6.75481 22.1697 6.6329 22.0575 6.51817H22.0358C22.0358 6.51817 21.8231 6.55545 21.567 6.6045L19.9538 6.91453L19.2466 7.04992C19.0119 7.0609 18.7772 7.02693 18.5553 6.94985L17.2808 6.53975C17.0327 6.4593 16.6229 6.34354 16.3689 6.2886C16.1011 6.26025 15.831 6.26025 15.5632 6.2886C15.3091 6.34746 14.8994 6.46127 14.6512 6.54172L13.3768 6.95377C13.1549 7.03086 12.9202 7.06483 12.6854 7.05384L11.9783 6.92041L10.3631 6.61236C10.1071 6.5633 9.89629 6.52406 9.89432 6.52602H9.87265C9.76039 6.64075 9.65577 6.76266 9.55946 6.89098L8.50565 8.20759C8.34413 8.4038 8.09004 8.75307 7.94428 8.96695L7.15638 10.1187C7.02031 10.3174 6.896 10.5237 6.7841 10.7368C6.7166 10.9744 6.68084 11.2198 6.67773 11.4667L6.71713 11.5923C6.73609 11.673 6.76044 11.7523 6.79001 11.8297C6.9535 12.0259 7.2332 12.3517 7.41245 12.542L10.1701 15.4617C10.2616 15.5681 10.3229 15.6971 10.3475 15.8351C10.3721 15.9731 10.3591 16.1152 10.3099 16.2466L9.85887 17.312C9.7563 17.5943 9.74869 17.9021 9.8372 18.1891L9.9278 18.4363C10.0759 18.8379 10.3296 19.1923 10.6625 19.4625L11.0959 19.8138C11.2084 19.8946 11.3398 19.9457 11.4776 19.9622C11.6154 19.9787 11.7552 19.96 11.8838 19.9079L13.4241 19.1761C13.7068 19.0351 13.9714 18.8605 14.212 18.6561L15.445 17.5475C15.4942 17.5033 15.5339 17.4497 15.5618 17.39C15.5898 17.3303 15.6054 17.2655 15.6078 17.1997C15.6102 17.1338 15.5993 17.0681 15.5757 17.0065C15.5522 16.9449 15.5164 16.8887 15.4707 16.8411L12.6874 14.9731C12.582 14.8986 12.507 14.7889 12.4759 14.664C12.4448 14.539 12.4597 14.4071 12.518 14.2922L13.5974 12.2712C13.6588 12.1475 13.6951 12.0129 13.7042 11.8752C13.7134 11.7375 13.6951 11.5994 13.6506 11.4687C13.5166 11.2194 13.3002 11.0239 13.038 10.9154L9.65401 9.64193C9.40976 9.54971 9.42355 9.44571 9.68159 9.43001L11.6691 9.2338C11.9807 9.21406 12.2936 9.24185 12.5968 9.31621L14.3262 9.79694C14.449 9.8338 14.5542 9.91378 14.6223 10.022C14.6904 10.1303 14.7168 10.2594 14.6965 10.3856L14.017 14.0823C13.9715 14.287 13.9602 14.4978 13.9835 14.7063C14.0111 14.7946 14.2435 14.9025 14.4976 14.9653L15.5514 15.1889C15.8574 15.245 16.1712 15.245 16.4772 15.1889L17.4246 14.9751C17.6787 14.9182 17.9092 14.7985 17.9387 14.7102C17.9614 14.5017 17.9494 14.2909 17.9033 14.0862L17.2198 10.3895C17.1995 10.2634 17.2259 10.1342 17.294 10.0259C17.3621 9.9177 17.4673 9.83773 17.5901 9.80086L19.3195 9.31817C19.6228 9.24378 19.9356 9.21599 20.2473 9.23576L22.2347 9.4202C22.4947 9.44375 22.5066 9.5399 22.2643 9.63212L18.8822 10.9095C18.6201 11.018 18.4037 11.2135 18.2697 11.4628C18.1799 11.7268 18.1991 12.0154 18.3228 12.2653L19.4042 14.2864C19.4625 14.4013 19.4774 14.5332 19.4463 14.6581C19.4153 14.783 19.3402 14.8927 19.2348 14.9672L16.4536 16.8391C16.4078 16.8867 16.372 16.943 16.3485 17.0046C16.3249 17.0662 16.314 17.1318 16.3164 17.1977C16.3188 17.2636 16.3344 17.3283 16.3624 17.388C16.3903 17.4478 16.43 17.5013 16.4792 17.5455L17.7142 18.6541C17.9549 18.8578 18.2194 19.0317 18.5021 19.1721L20.0424 19.9021C20.1712 19.9538 20.311 19.9722 20.4488 19.9554C20.5867 19.9385 20.7179 19.8871 20.8303 19.8059L21.2637 19.4527C21.5969 19.182 21.8507 18.8268 21.9984 18.4245L22.089 18.1773C22.1775 17.8904 22.1699 17.5825 22.0673 17.3002L21.6143 16.2348C21.5651 16.1034 21.5521 15.9614 21.5767 15.8233C21.6013 15.6853 21.6626 15.5564 21.7541 15.4499L24.5118 12.5263C24.691 12.3301 24.9687 12.0161 25.1322 11.814C25.1656 11.7388 25.1939 11.6615 25.2169 11.5825Z" fill="white"/>
<defs>
<linearGradient id="paint0_linear_128_2672" x1="3.95514" y1="16.0012" x2="27.9052" y2="16.0012" gradientUnits="userSpaceOnUse">
<stop stop-color="#F1562B"/>
<stop offset="0.3" stop-color="#F1542B"/>
<stop offset="0.41" stop-color="#F04D2A"/>
<stop offset="0.49" stop-color="#EF4229"/>
<stop offset="0.5" stop-color="#EF4029"/>
<stop offset="0.56" stop-color="#E83E28"/>
<stop offset="0.67" stop-color="#E13C26"/>
<stop offset="1" stop-color="#DF3C26"/>
</linearGradient>
</defs>
</svg>
