<svg width="118" height="32" viewBox="0 0 118 32" fill="none" xmlns="http://www.w3.org/2000/svg">
<path d="M27.4383 18.7858C27.056 20.761 24.0164 22.9225 20.5249 23.3414C18.7043 23.5599 16.9119 23.7603 15.0005 23.6723C11.8745 23.5284 9.40801 22.9225 9.40801 22.9225C9.40801 23.2283 9.42683 23.5195 9.46426 23.7917C9.87066 26.8916 12.5233 27.0774 15.036 27.164C17.572 27.2512 19.83 26.5355 19.83 26.5355L19.9344 28.8397C19.9344 28.8397 18.1604 29.7968 15.0005 29.9727C13.2579 30.069 11.0944 29.9287 8.57422 29.2586C3.10884 27.8048 2.1689 21.9507 2.02511 16.0105C1.98115 14.2469 2.00828 12.5837 2.00828 11.193C2.00828 5.11873 5.96868 3.33836 5.96868 3.33836C7.96562 2.41673 11.3923 2.02925 14.9546 2H15.0421C18.6045 2.02925 22.0333 2.41673 24.0302 3.33836C24.0302 3.33836 27.9906 5.11873 27.9906 11.193C27.9906 11.193 28.0401 15.6744 27.4383 18.7858Z" fill="#2B90D9"/>
<path d="M7.49146 9.72075C7.49146 8.83653 8.20483 8.11989 9.08457 8.11989C9.9645 8.11989 10.6777 8.83653 10.6777 9.72075C10.6777 10.6048 9.9645 11.3216 9.08457 11.3216C8.20483 11.3216 7.49146 10.6048 7.49146 9.72075ZM30.3396 11.664V19.0188H27.44V11.8802C27.44 10.3752 26.8098 9.61161 25.5494 9.61161C24.1561 9.61161 23.4576 10.5177 23.4576 12.3092V16.2165H20.575V12.3092C20.575 10.5177 19.8765 9.61161 18.4832 9.61161C17.2228 9.61161 16.5926 10.3752 16.5926 11.8802V19.0188H13.6929V11.664C13.6929 10.1609 14.0738 8.96641 14.8389 8.08259C15.6279 7.19897 16.6611 6.74602 17.9435 6.74602C19.4275 6.74602 20.5512 7.31898 21.2939 8.46529L22.0164 9.68206L22.7387 8.46529C23.4816 7.31898 24.6051 6.74602 26.0893 6.74602C27.3716 6.74602 28.4047 7.19897 29.1937 8.08259C29.9588 8.96641 30.3396 10.1609 30.3396 11.664ZM40.3289 15.3201C40.9272 14.6849 41.2154 13.8848 41.2154 12.92C41.2154 11.9552 40.9272 11.1552 40.3289 10.5434C39.7528 9.90796 39.0212 9.60228 38.1347 9.60228C37.2481 9.60228 36.5167 9.90796 35.9405 10.5434C35.3642 11.1552 35.0761 11.9552 35.0761 12.92C35.0761 13.8848 35.3642 14.6849 35.9405 15.3201C36.5167 15.9319 37.2481 16.2378 38.1347 16.2378C39.0212 16.2378 39.7528 15.9319 40.3289 15.3201ZM41.2154 7.0372H44.0746V18.8029H41.2154V17.4143C40.3511 18.5674 39.1541 19.1322 37.6028 19.1322C36.1178 19.1322 34.8544 18.5439 33.7905 17.3437C32.749 16.1436 32.217 14.6612 32.217 12.92C32.217 11.2023 32.749 9.71969 33.7905 8.51964C34.8544 7.3196 36.1178 6.70783 37.6028 6.70783C39.1541 6.70783 40.3511 7.27263 41.2154 8.42551V7.0372ZM53.6944 12.7083C54.5365 13.3435 54.9578 14.2377 54.9356 15.3671C54.9356 16.5673 54.5143 17.5085 53.65 18.1674C52.7855 18.8029 51.744 19.1322 50.4806 19.1322C48.1977 19.1322 46.6462 18.1909 45.8261 16.3319L48.3086 14.8497C48.641 15.8612 49.3724 16.3791 50.4806 16.3791C51.5 16.3791 52.01 16.0495 52.01 15.3671C52.01 14.8729 51.3449 14.426 49.993 14.0731C49.4831 13.9318 49.062 13.7907 48.7297 13.6729C48.2643 13.4848 47.8654 13.2729 47.5329 13.0142C46.7127 12.3789 46.2917 11.5315 46.2917 10.4493C46.2917 9.29619 46.6906 8.37854 47.4885 7.71961C48.3086 7.0372 49.3058 6.70783 50.5028 6.70783C52.4089 6.70783 53.8053 7.53135 54.7138 9.20206L52.276 10.6139C51.9213 9.81403 51.323 9.41401 50.5028 9.41401C49.6383 9.41401 49.2173 9.74338 49.2173 10.3786C49.2173 10.8728 49.8821 11.3198 51.2342 11.6728C52.276 11.908 53.0959 12.2611 53.6944 12.7083ZM62.7821 9.95513H60.2775V14.8497C60.2775 15.4379 60.4993 15.7908 60.9204 15.9554C61.2307 16.0732 61.8512 16.0967 62.7821 16.0495V18.8029C60.854 19.0381 59.4576 18.8498 58.6375 18.2144C57.8175 17.6026 57.4185 16.4732 57.4185 14.8497V9.95513H55.4903V7.0372H57.4185V4.66058L60.2775 3.74293V7.0372H62.7821V9.95513ZM71.8921 15.2496C72.4684 14.6376 72.7563 13.8611 72.7563 12.9199C72.7563 11.9788 72.4684 11.2022 71.8921 10.5905C71.3157 9.97851 70.6065 9.67283 69.742 9.67283C68.8777 9.67283 68.1685 9.97851 67.5922 10.5905C67.0381 11.2257 66.7499 12.0023 66.7499 12.9199C66.7499 13.8378 67.0381 14.6143 67.5922 15.2496C68.1685 15.8613 68.8777 16.1672 69.742 16.1672C70.6065 16.1672 71.3157 15.8613 71.8921 15.2496ZM65.5753 17.3438C64.445 16.1437 63.8909 14.6848 63.8909 12.9199C63.8909 11.1786 64.445 9.71979 65.5753 8.51974C66.7055 7.31969 68.102 6.70793 69.742 6.70793C71.3823 6.70793 72.7785 7.31969 73.909 8.51974C75.0395 9.71979 75.6156 11.2022 75.6156 12.9199C75.6156 14.6613 75.0395 16.1437 73.909 17.3438C72.7785 18.544 71.4045 19.1321 69.742 19.1321C68.0798 19.1321 66.7055 18.544 65.5753 17.3438ZM85.1687 15.3201C85.7451 14.6849 86.033 13.8848 86.033 12.92C86.033 11.9552 85.7451 11.1552 85.1687 10.5434C84.5926 9.90796 83.861 9.60228 82.9745 9.60228C82.0879 9.60228 81.3565 9.90796 80.7582 10.5434C80.182 11.1552 79.8937 11.9552 79.8937 12.92C79.8937 13.8848 80.182 14.6849 80.7582 15.3201C81.3565 15.9319 82.1101 16.2378 82.9745 16.2378C83.861 16.2378 84.5926 15.9319 85.1687 15.3201ZM86.033 2.33093H88.8923V18.8029H86.033V17.4143C85.1909 18.5674 83.9939 19.1322 82.4426 19.1322C80.9576 19.1322 79.6723 18.5439 78.6083 17.3437C77.5666 16.1436 77.0346 14.6612 77.0346 12.92C77.0346 11.2023 77.5666 9.71969 78.6083 8.51964C79.6723 7.3196 80.9576 6.70783 82.4426 6.70783C83.9939 6.70783 85.1909 7.27263 86.033 8.42551V2.33093ZM98.9332 15.2496C99.5093 14.6376 99.7975 13.8611 99.7975 12.9199C99.7975 11.9788 99.5093 11.2022 98.9332 10.5905C98.3569 9.97851 97.6477 9.67283 96.7832 9.67283C95.9189 9.67283 95.2095 9.97851 94.6333 10.5905C94.079 11.2257 93.791 12.0023 93.791 12.9199C93.791 13.8378 94.079 14.6143 94.6333 15.2496C95.2095 15.8613 95.9189 16.1672 96.7832 16.1672C97.6477 16.1672 98.3569 15.8613 98.9332 15.2496ZM92.6164 17.3438C91.4859 16.1437 90.932 14.6848 90.932 12.9199C90.932 11.1786 91.4859 9.71979 92.6164 8.51974C93.7469 7.31969 95.1431 6.70793 96.7832 6.70793C98.4234 6.70793 99.8197 7.31969 100.95 8.51974C102.081 9.71979 102.657 11.2022 102.657 12.9199C102.657 14.6613 102.081 16.1437 100.95 17.3438C99.8197 18.544 98.4456 19.1321 96.7832 19.1321C95.1209 19.1321 93.7469 18.544 92.6164 17.3438ZM115.025 11.5787V18.8027H112.165V11.9552C112.165 11.1787 111.966 10.5904 111.567 10.1434C111.19 9.74342 110.658 9.53147 109.971 9.53147C108.353 9.53147 107.533 10.4963 107.533 12.4494V18.8027H104.674V7.03724H107.533V8.3549C108.22 7.24899 109.306 6.70787 110.836 6.70787C112.055 6.70787 113.052 7.13137 113.828 8.00205C114.626 8.87273 115.025 10.0493 115.025 11.5787Z" fill="#282C37"/>
</svg>
