<svg width="32" height="32" viewBox="0 0 32 32" fill="none" xmlns="http://www.w3.org/2000/svg">
<path d="M28.7598 18.7857C28.3729 20.7609 25.2946 22.9225 21.7592 23.3414C19.9156 23.5597 18.1004 23.7603 16.1649 23.6722C12.9994 23.5283 10.5017 22.9225 10.5017 22.9225C10.5017 23.2283 10.5207 23.5194 10.5587 23.7917C10.9702 26.8916 13.6563 27.0773 16.2007 27.1639C18.7689 27.2511 21.0556 26.5356 21.0556 26.5356L21.1611 28.8395C21.1611 28.8395 19.3648 29.7967 16.1649 29.9727C14.4003 30.069 12.2094 29.9287 9.6575 29.2584C4.12295 27.8048 3.17113 21.9505 3.02549 16.0104C2.9811 14.2468 3.00846 12.5837 3.00846 11.1928C3.00846 5.11879 7.01899 3.33839 7.01899 3.33839C9.0412 2.41681 12.5111 2.02927 16.1185 2H16.2071C19.8145 2.02927 23.2867 2.41681 25.3087 3.33839C25.3087 3.33839 29.3191 5.11879 29.3191 11.1928C29.3191 11.1928 29.3694 15.6743 28.7598 18.7857Z" fill="#2B90D9"/>
<path d="M24.5886 11.6641V19.0187H21.6523V11.8803C21.6523 10.3755 21.0143 9.61169 19.738 9.61169C18.3269 9.61169 17.6197 10.5177 17.6197 12.3093V16.2166H14.7007V12.3093C14.7007 10.5177 13.9934 9.61169 12.5823 9.61169C11.3061 9.61169 10.668 10.3755 10.668 11.8803V19.0187H7.73169V11.6641C7.73169 10.161 8.11737 8.96648 8.89208 8.08277C9.69096 7.19905 10.7372 6.74603 12.0359 6.74603C13.5385 6.74603 14.6764 7.31913 15.4288 8.46549L16.1602 9.68214L16.8917 8.46549C17.6439 7.31913 18.7818 6.74603 20.2845 6.74603C21.5831 6.74603 22.6294 7.19905 23.4284 8.08277C24.2029 8.96648 24.5886 10.161 24.5886 11.6641Z" fill="white"/>
</svg>
